<?xml version="1.0" encoding="utf-8"?>
<!-- Generator: Adobe Illustrator 16.0.0, SVG Export Plug-In . SVG Version: 6.00 Build 0)  -->
<!DOCTYPE svg PUBLIC "-//W3C//DTD SVG 1.1//EN" "http://www.w3.org/Graphics/SVG/1.1/DTD/svg11.dtd">
<svg version="1.1" id="圖層_1" xmlns="http://www.w3.org/2000/svg" xmlns:xlink="http://www.w3.org/1999/xlink" x="0px" y="0px"
	 width="231.417px" height="80.333px" viewBox="0 0 231.417 80.333" enable-background="new 0 0 231.417 80.333"
	 xml:space="preserve">
<g>
	<rect x="4.234" y="5.047" fill="#FFFFFF" width="221.104" height="717.202"/>
	<path fill="#9FA0A0" d="M225.838,722.749H3.734V4.547h222.104V722.749z M4.734,721.749h220.104V5.547H4.734V721.749z"/>
</g>
<g>
	<rect x="4.234" y="5.047" fill="#050506" width="221.104" height="9.527"/>
</g>
<g>
	<rect x="206.23" y="8.619" fill="#E4E4E4" width="10.008" height="2.382"/>
</g>
<g>
	<path fill="#E4E4E4" d="M219.877,8.619h-1.818V8.322c0-0.492-0.615-0.893-1.365-0.893h-10.918c-0.754,0-1.365,0.401-1.365,0.893
		v2.977c0,0.493,0.611,0.893,1.365,0.893h10.918c0.75,0,1.365-0.4,1.365-0.893v-0.297h1.818V8.619z M217.148,11.298
		c0,0.165-0.205,0.298-0.455,0.298h-10.918c-0.252,0-0.455-0.133-0.455-0.298V8.322c0-0.165,0.203-0.298,0.455-0.298h10.918
		c0.25,0,0.455,0.133,0.455,0.298v0.297v2.382V11.298z M218.969,10.406h-0.91V9.215h0.91V10.406z"/>
</g>
<g>
	<rect x="8.785" y="11.001" fill="#E4E4E4" width="1.818" height="1.19"/>
</g>
<g>
	<rect x="11.514" y="9.811" fill="#E4E4E4" width="1.82" height="2.381"/>
</g>
<g>
	<rect x="14.244" y="9.215" fill="#E4E4E4" width="1.82" height="2.977"/>
</g>
<g>
	<rect x="16.973" y="8.619" fill="#E4E4E4" width="1.818" height="3.573"/>
</g>
<g>
	<rect x="19.703" y="7.429" fill="#E4E4E4" width="1.82" height="4.763"/>
</g>
<g>
	<path fill="#EBEBEB" d="M30.199,8.925c-0.131-0.307-0.381-0.886-1.734-0.886c-0.783,0-1.941,0.343-1.941,1.794
		c0,0.92,0.557,1.749,1.941,1.749c0.906,0,1.54-0.337,1.734-0.964h1.639c-0.328,1.114-1.44,1.891-3.405,1.891
		c-2.083,0-3.579-0.92-3.579-2.691c0-1.792,1.583-2.707,3.602-2.707c2.344,0,3.295,1.058,3.383,1.814H30.199z"/>
</g>
<g>
	<path fill="#EBEBEB" d="M33.216,12.374H31.49l2.796-5.127h1.886l2.763,5.127h-1.778l-0.504-1.056h-2.892L33.216,12.374z
		 M34.199,10.431h1.997l-0.972-2.027h-0.021L34.199,10.431z"/>
</g>
<g>
	<path fill="#EBEBEB" d="M39.441,7.247h3.961c2.082,0,2.465,1.006,2.465,1.449c0,0.564-0.436,1.05-1.209,1.221
		c0.643,0.186,0.993,0.343,0.993,1.301c0,0.749,0,0.935,0.348,1.021v0.135h-1.812c-0.11-0.242-0.175-0.507-0.175-1.036
		c0-0.699-0.065-0.971-1.276-0.971h-1.691v2.006h-1.604V7.247z M42.965,9.503c0.853,0,1.266-0.193,1.266-0.699
		c0-0.272-0.185-0.671-1.146-0.671h-2.039v1.37H42.965z"/>
</g>
<g>
	<path fill="#EBEBEB" d="M46.777,7.247h3.961c2.086,0,2.467,1.006,2.467,1.449c0,0.564-0.438,1.05-1.211,1.221
		c0.644,0.186,0.993,0.343,0.993,1.301c0,0.749,0,0.935,0.35,1.021v0.135h-1.812c-0.109-0.242-0.176-0.507-0.176-1.036
		c0-0.699-0.064-0.971-1.277-0.971h-1.691v2.006h-1.604V7.247z M50.301,9.503c0.853,0,1.268-0.193,1.268-0.699
		c0-0.272-0.186-0.671-1.146-0.671h-2.041v1.37H50.301z"/>
</g>
<g>
	<path fill="#EBEBEB" d="M55.621,12.374h-1.639V7.247h1.639V12.374z"/>
</g>
<g>
	<path fill="#EBEBEB" d="M62.366,8.154h-4.158v1.079h3.819v0.906h-3.819v1.329h4.342v0.906h-5.945V7.247h5.762V8.154z"/>
</g>
<g>
	<path fill="#EBEBEB" d="M63.34,7.247h3.961c2.085,0,2.467,1.006,2.467,1.449c0,0.564-0.438,1.05-1.209,1.221
		c0.643,0.186,0.99,0.343,0.99,1.301c0,0.749,0,0.935,0.351,1.021v0.135h-1.813c-0.108-0.242-0.175-0.507-0.175-1.036
		c0-0.699-0.064-0.971-1.275-0.971h-1.691v2.006H63.34V7.247z M66.867,9.503c0.848,0,1.263-0.193,1.263-0.699
		c0-0.272-0.183-0.671-1.146-0.671h-2.039v1.37H66.867z"/>
</g>
<g>
	<rect x="4.234" y="14.985" fill="#F65536" width="221.104" height="29.598"/>
</g>
<g>
	<path fill="#FFFFFF" d="M10.266,29.416c-0.187,0-0.372-0.069-0.518-0.208c-0.3-0.286-0.311-0.76-0.025-1.06l4.889-5.125
		c0.286-0.302,0.761-0.311,1.061-0.025s0.311,0.76,0.025,1.06l-4.889,5.125C10.661,29.338,10.463,29.416,10.266,29.416z"/>
</g>
<g>
	<path fill="#FFFFFF" d="M15.154,34.541c-0.198,0-0.396-0.078-0.543-0.232l-4.889-5.125c-0.285-0.3-0.274-0.774,0.025-1.06
		c0.3-0.287,0.773-0.276,1.061,0.025l4.889,5.125c0.285,0.3,0.274,0.774-0.025,1.06C15.526,34.472,15.341,34.541,15.154,34.541z"/>
</g>
<g>
	<path fill="#FFFFFF" d="M21.861,29.416H10.266c-0.414,0-0.75-0.336-0.75-0.75s0.336-0.75,0.75-0.75h11.596
		c0.414,0,0.75,0.336,0.75,0.75S22.275,29.416,21.861,29.416z"/>
</g>
<g>
	<path fill="#3C6DD5" d="M77.668,34.397c-0.008,0.016-0.017,0.034-0.024,0.05c0.003-0.036,0.014-0.085,0.024-0.144
		c-0.097,0.273-0.202,0.578-0.34,0.862c-0.137,0.285-0.299,0.547-0.438,0.757c-0.13,0.12-0.23,0.246-0.224,0.284
		c0.012,0.042,0.138-0.019,0.277-0.144c0.034-0.024,0.068-0.058,0.093-0.076c0.23-0.151,0.468-0.401,0.664-0.723
		c-0.041,0.061-0.086,0.122-0.134,0.176c0.066-0.085,0.119-0.179,0.172-0.288l-0.037,0.029c0.054-0.078,0.1-0.169,0.138-0.267
		c0.043-0.097,0.075-0.199,0.096-0.301c0.051-0.202,0.047-0.398,0.027-0.526c-0.027-0.13-0.069-0.17-0.111-0.138
		c-0.042,0.033-0.081,0.138-0.135,0.303c0,0-0.011,0.037-0.023,0.073C77.682,34.361,77.668,34.397,77.668,34.397z"/>
</g>
<g>
	<path fill="#3C6DD5" d="M77.271,34.909c0.099-0.163,0.181-0.276,0.249-0.452l0.021,0.019h-0.06l0.002-0.047
		c0.01,0.177-0.049,0.439-0.164,0.683l-0.036,0.077c-0.016,0.043-0.021,0.068-0.017,0.083c0.011,0.032,0.084-0.026,0.143-0.143
		l0.069-0.134c0.046-0.079,0.085-0.177,0.125-0.278c0.037-0.102,0.063-0.212,0.085-0.318c0.017-0.106,0.022-0.21,0.021-0.298
		c-0.005-0.088-0.021-0.162-0.043-0.212c-0.021-0.044-0.052-0.007-0.078,0.001c-0.042-0.014-0.07,0.112-0.1,0.277
		c-0.023,0.167-0.036,0.313-0.001,0.335c-0.011,0.028-0.021,0.056-0.03,0.083c0-0.024,0.003-0.046,0.004-0.07
		c0.023,0.057-0.018,0.209-0.045,0.326c0,0-0.012,0.043-0.028,0.085c-0.017,0.041-0.034,0.082-0.034,0.082l0.127-0.056l0.022-0.094
		c-0.007,0.006-0.016,0.017-0.016,0.016c0.043-0.177,0.065-0.346,0.09-0.539l0.004-0.244c-0.011-0.067-0.035-0.062-0.06,0.005
		l-0.033,0.101c0.005-0.016,0.011-0.03,0.017-0.045c-0.047,0.237-0.133,0.476-0.238,0.685c-0.017,0.032-0.034,0.073-0.034,0.095
		C77.236,34.951,77.252,34.941,77.271,34.909z"/>
</g>
<g>
	<path fill="#3C6DD5" d="M77.481,34.097c0.013-0.037,0.021-0.074,0.022-0.128c-0.004-0.013-0.005-0.02-0.006-0.024
		c-0.005,0.02-0.013,0.047-0.02,0.074C77.466,34.071,77.467,34.099,77.481,34.097z"/>
</g>
<g>
	<path fill="#3C6DD5" d="M77.498,33.945c0.006-0.019,0.008-0.031,0.008-0.031c-0.002,0.007-0.007,0.014-0.01,0.02
		c0.001,0.006,0.001,0.006,0.001,0.006S77.497,33.94,77.498,33.945z"/>
</g>
<g>
	<path fill="#3C6DD5" d="M72.388,31.986c0.487-0.607,1.218-1.012,1.987-1.091c0.025-0.003,0.048-0.01,0.049-0.016
		c0-0.005-0.021-0.007-0.045-0.004c-0.774,0.078-1.509,0.481-2.001,1.091c-0.016,0.021-0.026,0.041-0.024,0.047
		C72.358,32.017,72.373,32.005,72.388,31.986z"/>
</g>
<g>
	<path fill="#3C6DD5" d="M76.816,32.622c-0.012-0.011-0.017-0.008-0.012,0.008c0.005,0.013,0.015,0.034,0.024,0.045
		c0.01,0.01,0.015,0.006,0.012-0.007C76.839,32.652,76.827,32.63,76.816,32.622z"/>
</g>
<g>
	<path fill="#3C6DD5" d="M76.375,32.739c-0.041-0.06-0.096-0.105-0.143-0.146c-0.008-0.008-0.015-0.019-0.02-0.027
		c-0.004,0.009-0.017,0.003-0.039-0.014c-0.377-0.335-0.879-0.548-1.374-0.524c-0.004,0.007-0.01,0.014-0.021,0.02
		c-0.034,0.018-0.1,0.034-0.169,0.034l-0.053-0.003c-0.209,0.008-0.418,0.058-0.613,0.141c-0.036,0.025-0.075,0.058-0.12,0.089
		c-0.14,0.12-0.263,0.254-0.36,0.406c0.012-0.005,0.022-0.005,0.028,0c0.013,0.015-0.004,0.054-0.031,0.092l-0.041,0.057
		c0.045-0.052,0.087-0.104,0.138-0.147c0.007-0.007,0.014-0.012,0.021-0.018c0.047-0.055,0.105-0.102,0.161-0.152
		c0.497-0.423,1.221-0.556,1.857-0.289c0.01,0.003,0.025,0.013,0.03,0.021c0.004,0.007,0,0.012-0.013,0.008
		c-0.207-0.067-0.407-0.078-0.6-0.062c-0.192,0.016-0.382,0.062-0.57,0.131c-0.227,0.084-0.418,0.221-0.572,0.383
		c-0.148,0.168-0.259,0.362-0.314,0.567c-0.078,0.205-0.101,0.428-0.052,0.636c0.044,0.206,0.14,0.395,0.286,0.552
		c0.193,0.214,0.445,0.348,0.704,0.395c0.265,0.04,0.538-0.002,0.769-0.131c0.163-0.107,0.34-0.19,0.452-0.142
		c0.064,0.031,0.08,0.114,0.035,0.224c0.017-0.013,0.03-0.03,0.046-0.045l0.079-0.066c0.034-0.035,0.07-0.065,0.106-0.09
		c0.034-0.026,0.063-0.048,0.096-0.062c0,0,0.083-0.041,0.081-0.042c0.127-0.049,0.271-0.19,0.383-0.263l0.029,0.031l0.017-0.021
		c0.045-0.069,0.094-0.116,0.13-0.128l0.041,0.016c0.048,0.028,0.083,0.079,0.106,0.16c0.02,0.002,0.034,0.015,0.046,0.039
		c0.059-0.05,0.113-0.072,0.15-0.008c0.022-0.036,0.039-0.026,0.038,0.024c-0.001,0.018-0.005,0.038-0.009,0.059l0,0
		c0.018-0.02,0.021-0.025,0.042-0.052c0.015-0.04,0.023-0.063,0.023-0.063c0.033-0.107,0.027-0.109,0.052-0.203
		c0.028-0.08,0.051-0.13,0.051-0.13c0.083-0.089,0.083-0.091,0.115-0.074l0.01,0.019c0.016-0.077,0.016-0.083,0.021-0.104
		c0.007-0.022,0.015-0.038,0.015-0.038c0.018-0.003,0.018-0.003,0.025-0.017c0.007-0.004,0.014-0.003,0.014-0.003
		c0.018,0.045,0.018,0.045,0.023,0.047c0.005,0.01,0.009,0.025,0.009,0.025c0.003,0.053,0.005,0.075,0.005,0.083
		c-0.052,0.111-0.052,0.111-0.052,0.111c0.015,0.025,0.014,0.025,0.014,0.025c-0.025,0.023-0.025,0.023-0.025,0.023
		c0.021-0.012,0.021-0.012,0.021-0.012c-0.021,0.055-0.021,0.055-0.021,0.055c0.025-0.062,0.025-0.062,0.025-0.062
		c-0.025,0.133-0.025,0.133-0.034,0.188c-0.009,0.056-0.018,0.103-0.018,0.109c0.006-0.003,0.012-0.003,0.012-0.003
		c-0.045,0.14-0.039,0.142-0.092,0.273c-0.01,0.012-0.017,0.02-0.023,0.027c0.001,0.015,0.073,0.042,0.063,0.067l0.049-0.083v-0.32
		h-0.08c0,0,0.038,0.285,0.034,0.305c-0.005,0.012,0.046,0.335,0.046,0.335v-0.04c-1,0.041,0.026,0.084-0.036,0.243
		c-0.025,0.037,0.036,0.062,0.036,0.093v-0.032c0-0.017-0.136,0.008-0.129-0.002c0.197-0.252,0.267-0.582,0.351-0.923
		c0.007-0.063-0.013-0.12,0.003-0.127c0.016-0.006,0.002,0.04-0.007,0.105c-0.015,0.364-0.153,0.771-0.379,1.117
		c-0.227,0.348-0.548,0.633-0.878,0.809c-0.086,0.048-0.174,0.096-0.26,0.141c-0.09,0.04-0.182,0.081-0.272,0.116l0.03-0.002
		c-0.051,0.014-0.1,0.027-0.15,0.041l-0.015,0.005l0.119-0.01c0.026-0.006,0.053-0.014,0.078-0.023
		c0.423-0.176,0.798-0.393,1.123-0.717c0.089-0.085,0.163-0.173,0.241-0.258c0.071-0.089,0.144-0.178,0.21-0.278
		c0.029-0.054,0.057-0.087,0.065-0.075c0.008,0.012-0.01,0.069-0.038,0.122c-0.181,0.362-0.461,0.704-0.791,0.95
		c-0.329,0.248-0.699,0.192-1.013,0.237c-0.134,0.047-0.271-0.131-0.385-0.131h-0.006c0.031,0,0.06,0.211,0.09,0.213
		c-0.104,0.021-0.165,0.105-0.261,0.113l0.041,0.081c-0.261,0.034-0.533,0.055-0.796,0.024c-0.263-0.041-0.518-0.095-0.729-0.209
		c-0.018-0.007-0.034-0.008-0.05-0.015c-0.102-0.025-0.197-0.06-0.3-0.099c-0.1-0.043-0.201-0.096-0.306-0.162
		c0.066,0.051,0.136,0.096,0.205,0.143c-0.164-0.076-0.316-0.171-0.465-0.296c-0.198-0.171-0.378-0.387-0.495-0.603
		c-0.062-0.105-0.102-0.214-0.138-0.307c-0.03-0.097-0.046-0.184-0.054-0.252c-0.206-0.439-0.288-0.933-0.26-1.416
		c0.025-0.485,0.188-0.964,0.442-1.381c0.023-0.044,0.058-0.076,0.071-0.077c0.014,0.002,0,0.033-0.025,0.076
		c-0.356,0.597-0.492,1.317-0.384,1.993c-0.06-0.569,0.057-1.154,0.325-1.667c0.028-0.068,0.07-0.129,0.105-0.195
		c0.036-0.065,0.079-0.124,0.128-0.179c0.44-0.593,1.08-0.987,1.826-1.132c0.637-0.12,1.24-0.039,1.842,0.244
		c0.419,0.208,0.775,0.504,1.05,0.867c0.271,0.364,0.455,0.801,0.521,1.273c0.026,0.125,0.005,0.244-0.02,0.26
		c-0.029,0.016-0.053-0.072-0.071-0.193c-0.151-0.957-0.799-1.772-1.643-2.146c-0.421-0.191-0.888-0.28-1.347-0.25
		c-0.46,0.025-0.92,0.163-1.322,0.41c-0.176,0.103-0.333,0.23-0.479,0.365c0.004,0.001,0.009,0.002,0.011,0.004
		c0.012,0.012,0.006,0.033-0.008,0.064c0.163-0.151,0.339-0.292,0.538-0.396c0.515-0.345,1.181-0.519,1.845-0.38
		c0.457,0.089,0.83,0.312,1.141,0.586c0.43,0.309,0.766,0.751,0.948,1.266c0.011,0.02,0.013,0.043,0.01,0.052
		c-0.005,0.009-0.012,0-0.02-0.021c-0.142-0.347-0.352-0.665-0.615-0.929c0.026,0.055,0.031,0.095,0.009,0.106
		c-0.021,0.013-0.067-0.005-0.123-0.043c0.055,0.059,0.104,0.121,0.15,0.187c0.029,0.04,0.044,0.077,0.032,0.083
		c-0.011,0.007-0.041-0.019-0.069-0.056c-0.19-0.259-0.433-0.479-0.707-0.645c-0.338-0.188-0.723-0.289-1.104-0.298
		c0.052,0.02,0.1,0.042,0.1,0.065v0l0.175,0.023c0.521,0.059,1.046,0.309,1.417,0.722c0.374,0.408,0.603,0.965,0.602,1.531
		c0,0.022-0.002,0.04-0.01,0.041c0,0-0.193-0.017-0.193-0.036c-0.002-0.337-0.411-0.675-0.411-0.977v0.001
		c0,0.014,0.184,0.019,0.174,0.007c-0.01-0.01,0.071-0.034,0.067-0.047c-0.002-0.016,0.051-0.018,0.06-0.008
		c-0.283-0.56-0.778-0.977-1.353-1.14c0.523,0.176,0.993,0.554,1.255,1.041c0.04,0.046,0.075,0.1,0.109,0.152
		c0.008,0.014,0.018,0.036,0.016,0.043c-0.002,0.006-0.011-0.002-0.021-0.017l-0.025-0.044c0.045,0.095,0.052,0.179,0.022,0.188
		c-0.028,0.004-0.083-0.065-0.13-0.157c-0.129-0.245-0.3-0.464-0.504-0.646l-0.069-0.056c-0.025-0.016-0.053-0.028-0.08-0.042
		c0.33,0.265,0.573,0.628,0.693,1.021c0.013,0.033,0.016,0.063,0.006,0.068c-0.011,0.004-0.028-0.02-0.04-0.053
		c-0.269-0.663-0.888-1.149-1.568-1.274c-0.232-0.001-0.458,0.039-0.667,0.11c0.026-0.003,0.055-0.008,0.083-0.008
		c0.349-0.025,0.682-0.001,0.997,0.113c0.316,0.107,0.614,0.305,0.839,0.598c0.013,0.014,0.018,0.029,0.015,0.034
		c-0.004,0.004-0.015-0.003-0.026-0.018c-0.223-0.279-0.5-0.465-0.816-0.582c-0.262-0.1-0.525-0.135-0.775-0.11
		c0.504,0.005,1.01,0.18,1.382,0.561c0.018,0.016,0.031,0.034,0.036,0.049c0.005-0.001,0.008,0.001,0.015,0.005
		c0.049,0.044,0.106,0.093,0.151,0.153c0.01,0.011,0.017,0.028,0.017,0.037C76.396,32.755,76.387,32.75,76.375,32.739z
		 M76.257,35.85c0.008-0.001,0.013-0.003,0.019-0.005c-0.018,0.009-0.036,0.018-0.057,0.029c0,0,0.001,0.001-0.094,0.014
		C76.125,35.887,76.189,35.87,76.257,35.85z M76.833,34.965L76.833,34.965c0.026-0.016,0.045-0.029,0.045-0.029
		C76.86,34.949,76.845,34.957,76.833,34.965z M71.936,33.606c-0.024,0.403,0.025,0.806,0.146,1.194
		c-0.036-0.093-0.075-0.184-0.099-0.28C71.914,34.219,71.897,33.908,71.936,33.606z M76.903,35.44
		c-0.078,0.071-0.156,0.111-0.228,0.147c-0.039,0.054-0.086,0.104-0.142,0.15c-0.069,0.064-0.142,0.124-0.22,0.174
		c-0.074,0.055-0.153,0.102-0.234,0.145c0.028,0-0.01,0.021-0.027,0.034l-0.059,0.039c0.175-0.087,0.346-0.186,0.506-0.31
		C76.644,35.709,76.787,35.57,76.903,35.44z M77.38,34.159c0.002-0.005,0.005-0.01,0.007-0.017c0,0,0,0,0.018,0.04
		C77.404,34.182,77.394,34.172,77.38,34.159z M77.35,34.097c-0.002,0.009-0.005,0.018-0.008,0.027
		C77.335,34.113,77.34,34.104,77.35,34.097z M77.279,34.34c0.01-0.013,0.016-0.021,0.021-0.032
		C77.279,34.34,77.279,34.34,77.279,34.34z M76.593,34.325c0,0,0.022,0.026,0.045,0.052c0.021,0.027,0.042,0.053,0.042,0.053
		s-0.02-0.027-0.037-0.056c-0.021-0.027-0.044-0.054-0.044-0.054L76.593,34.325z"/>
</g>
<g>
	<path fill="#FFFFFF" d="M62.186,27.519c-0.035,0.03-0.073,0.045-0.118,0.045H50.874c-0.044,0-0.08-0.013-0.11-0.039
		c-0.03-0.026-0.045-0.056-0.045-0.092v-0.583c0-0.043,0.013-0.083,0.039-0.117c0.025-0.035,0.068-0.052,0.13-0.052h4.714v-0.714
		h-4.026c-0.044,0-0.081-0.013-0.116-0.04c-0.035-0.025-0.053-0.056-0.053-0.091v-0.584c0-0.043,0.016-0.082,0.046-0.117
		c0.03-0.034,0.075-0.052,0.136-0.052h4.014v-0.649h-4.416c-0.044,0-0.08-0.013-0.11-0.039c-0.031-0.026-0.045-0.056-0.045-0.091
		V23.72c0-0.043,0.013-0.082,0.038-0.117c0.026-0.034,0.069-0.051,0.13-0.051h4.403v-0.636c0-0.043,0.014-0.083,0.037-0.117
		c0.027-0.034,0.058-0.052,0.093-0.052h1.39c0.034,0,0.066,0.018,0.097,0.052c0.029,0.035,0.045,0.074,0.045,0.117v0.636h4.468
		c0.112,0,0.17,0.048,0.17,0.143v0.545c0,0.069-0.019,0.119-0.053,0.149c-0.035,0.03-0.074,0.045-0.117,0.045h-4.468v0.649h4.078
		c0.112,0,0.169,0.048,0.169,0.143v0.545c0,0.07-0.017,0.12-0.051,0.149c-0.035,0.03-0.075,0.046-0.118,0.046h-4.078v0.714h4.805
		c0.113,0,0.169,0.047,0.169,0.143v0.545C62.236,27.439,62.221,27.488,62.186,27.519z M61.107,33.876
		c-0.173,0.173-0.407,0.26-0.701,0.26h-2.572c-0.042,0-0.088-0.009-0.137-0.026c-0.047-0.018-0.079-0.04-0.097-0.065l-0.324-0.701
		c-0.019-0.026-0.019-0.052,0-0.078c0.017-0.026,0.047-0.039,0.091-0.039h2.338v-0.948h-6.442v1.675
		c0,0.122-0.056,0.182-0.168,0.182h-1.3c-0.051,0-0.097-0.016-0.135-0.046c-0.04-0.03-0.06-0.067-0.06-0.11v-4.986
		c0-0.243,0.083-0.433,0.247-0.571c0.069-0.07,0.158-0.124,0.267-0.162c0.108-0.04,0.231-0.059,0.37-0.059h7.999
		c0.295,0,0.521,0.086,0.677,0.259c0.137,0.147,0.206,0.355,0.206,0.624v4.077C61.366,33.465,61.28,33.702,61.107,33.876z
		 M59.705,29.097h-6.442v0.714h6.442V29.097z M59.705,30.694h-6.442v0.701h6.442V30.694z"/>
</g>
<g>
	<path fill="#FFFFFF" d="M49.3,33.928c-0.077,0.078-0.166,0.139-0.267,0.182c-0.099,0.043-0.222,0.065-0.37,0.065h-2.311
		c-0.096,0-0.165-0.031-0.208-0.091l-0.39-0.714c-0.019-0.035-0.012-0.078,0.02-0.13c0.03-0.052,0.067-0.078,0.11-0.078h2.025
		v-6.116h-7.454v6.922c0,0.043-0.018,0.084-0.053,0.123c-0.034,0.04-0.073,0.059-0.115,0.059h-1.272
		c-0.044,0-0.088-0.02-0.131-0.059c-0.043-0.039-0.065-0.08-0.065-0.123v-7.051c0-0.251,0.087-0.455,0.261-0.61
		c0.207-0.191,0.459-0.286,0.752-0.286h3.585v-3.104c0-0.043,0.018-0.081,0.053-0.111c0.034-0.03,0.068-0.045,0.103-0.045h1.313
		c0.042,0,0.082,0.015,0.117,0.045c0.034,0.03,0.053,0.067,0.053,0.111v3.104h3.479c0.295,0,0.537,0.095,0.728,0.286
		c0.19,0.19,0.285,0.428,0.285,0.713v6.286C49.546,33.556,49.464,33.763,49.3,33.928z M42.521,25.448
		c-0.017,0.034-0.047,0.051-0.091,0.051h-1.636c-0.087,0-0.155-0.03-0.208-0.09l-1.701-2.26c-0.018-0.017-0.011-0.045,0.02-0.084
		c0.03-0.04,0.067-0.059,0.111-0.059h1.597c0.034,0,0.071,0.007,0.11,0.02c0.038,0.013,0.067,0.033,0.084,0.059l1.714,2.26
		C42.538,25.379,42.538,25.414,42.521,25.448z M47.859,25.409c-0.053,0.06-0.122,0.09-0.209,0.09h-1.636
		c-0.043,0-0.073-0.017-0.09-0.051c-0.019-0.034-0.019-0.069,0-0.104l1.714-2.26c0.042-0.052,0.107-0.078,0.193-0.078h1.598
		c0.043,0,0.081,0.02,0.116,0.059c0.035,0.039,0.045,0.067,0.027,0.084L47.859,25.409z"/>
</g>
<g>
	<path fill="#FFFFFF" d="M64.62,34.067c-0.018,0.052-0.068,0.078-0.155,0.078h-1.257c-0.043,0-0.072-0.016-0.091-0.045
		c-0.017-0.031-0.017-0.063,0-0.098l0.622-2.046c0.018-0.052,0.056-0.094,0.115-0.13c0.062-0.034,0.127-0.052,0.195-0.052h1.037
		c0.059,0,0.106,0.018,0.142,0.052c0.034,0.036,0.043,0.087,0.026,0.156L64.62,34.067z M66.99,31.154
		c-0.062,0.06-0.128,0.108-0.201,0.143s-0.166,0.052-0.279,0.052h-2.446c-0.147,0-0.285-0.043-0.414-0.129
		c-0.155-0.112-0.233-0.281-0.233-0.505v-7.108c0-0.182,0.068-0.342,0.207-0.479c0.138-0.156,0.311-0.233,0.518-0.233h2.305
		c0.216,0,0.394,0.078,0.53,0.233c0.139,0.155,0.209,0.332,0.209,0.531v6.992C67.185,30.856,67.119,31.024,66.99,31.154z
		 M65.759,23.916H64.84v1.424h0.919V23.916z M65.759,26.35H64.84v1.45h0.919V26.35z M65.759,28.81H64.84v1.516h0.919V28.81z
		 M67.728,34.1c-0.019,0.029-0.048,0.045-0.091,0.045h-1.256c-0.087,0-0.134-0.026-0.143-0.078l-0.648-2.084
		c-0.016-0.069-0.008-0.12,0.027-0.156c0.034-0.034,0.081-0.052,0.142-0.052h1.036c0.068,0,0.134,0.018,0.195,0.052
		c0.059,0.036,0.099,0.078,0.116,0.13l0.621,2.046C67.744,34.037,67.744,34.069,67.728,34.1z M74.732,32.384
		c-0.035,0.025-0.073,0.039-0.117,0.039H74.24v0.854c0,0.268-0.074,0.483-0.221,0.647c-0.129,0.147-0.314,0.221-0.556,0.221h-1.762
		c-0.069,0-0.121-0.039-0.155-0.117l-0.232-0.583c-0.019-0.052-0.019-0.099,0-0.143c0.017-0.043,0.06-0.065,0.13-0.065h1.229v-0.815
		h-3.056v1.541c0,0.043-0.016,0.084-0.046,0.124c-0.03,0.038-0.063,0.058-0.097,0.058h-1.269c-0.044,0-0.081-0.02-0.11-0.058
		c-0.03-0.04-0.045-0.081-0.045-0.124v-1.541h-0.415c-0.044,0-0.082-0.013-0.117-0.039c-0.034-0.026-0.051-0.056-0.051-0.091v-0.609
		c0-0.043,0.017-0.076,0.051-0.097c0.035-0.022,0.073-0.033,0.117-0.033h0.415v-2.486c0-0.233,0.086-0.427,0.258-0.583
		c0.182-0.165,0.394-0.246,0.635-0.246h1.425v-0.57H67.74c-0.043,0-0.082-0.011-0.116-0.032c-0.034-0.021-0.052-0.054-0.052-0.098
		v-0.608c0-0.043,0.018-0.076,0.052-0.097c0.034-0.021,0.073-0.033,0.116-0.033h1.14v-0.712h-0.699c-0.043,0-0.082-0.01-0.116-0.032
		c-0.035-0.021-0.053-0.053-0.053-0.097v-0.608c0-0.044,0.018-0.076,0.053-0.098c0.034-0.021,0.073-0.032,0.116-0.032h0.699v-0.738
		h-0.984c-0.044,0-0.082-0.011-0.116-0.032c-0.035-0.022-0.052-0.054-0.052-0.098v-0.608c0-0.043,0.017-0.076,0.052-0.097
		c0.034-0.021,0.072-0.032,0.116-0.032h0.984v-0.713c0-0.043,0.016-0.079,0.045-0.109c0.03-0.03,0.063-0.045,0.097-0.045h1.373
		c0.034,0,0.066,0.015,0.098,0.045c0.029,0.031,0.046,0.066,0.046,0.109v0.713h1.293v-0.687c0-0.043,0.016-0.082,0.046-0.116
		c0.03-0.035,0.063-0.052,0.097-0.052h1.373c0.035,0,0.066,0.018,0.098,0.052c0.029,0.034,0.045,0.073,0.045,0.116v0.687h0.907
		c0.11,0,0.168,0.047,0.168,0.143v0.583c0,0.043-0.018,0.078-0.053,0.103c-0.033,0.026-0.073,0.04-0.115,0.04h-0.907v0.738h0.66
		c0.112,0,0.168,0.048,0.168,0.143v0.583c0,0.043-0.017,0.077-0.051,0.104c-0.035,0.025-0.074,0.039-0.117,0.039h-0.66v0.712h1.088
		c0.111,0,0.168,0.048,0.168,0.143v0.583c0,0.043-0.018,0.078-0.052,0.104c-0.034,0.026-0.073,0.039-0.116,0.039h-2.642v0.57h1.411
		c0.13,0,0.253,0.017,0.369,0.051c0.116,0.035,0.214,0.091,0.291,0.168c0.156,0.129,0.233,0.32,0.233,0.57v2.525h0.375
		c0.112,0,0.169,0.048,0.169,0.142v0.583C74.784,32.323,74.767,32.358,74.732,32.384z M70.369,29.121h-0.751v0.765h0.751V29.121z
		 M70.369,30.752h-0.751v0.803h0.751V30.752z M71.831,24.486h-1.293v0.738h1.293V24.486z M71.831,26.091h-1.293v0.712h1.293V26.091z
		 M72.674,29.121h-0.738v0.765h0.738V29.121z M72.674,30.752h-0.738v0.803h0.738V30.752z"/>
</g>
<g>
	<path fill="#FFFFFF" d="M45.067,32.511c-0.019,0-0.037,0-0.058-0.002l-2.263-0.271c-0.315-0.029-0.559-0.309-0.547-0.631
		l-0.144-2.017l0.002-0.029c0.031-0.336,0.325-0.587,0.668-0.555l2.742,0.252c0.337,0.032,0.586,0.331,0.556,0.668l-0.004,0.027
		l-0.344,2.016C45.64,32.279,45.381,32.511,45.067,32.511z M42.909,31.541l2.076,0.248l0.313-1.832l-2.518-0.231L42.909,31.541z"/>
</g>
<g>
	<path fill="#FFFFFF" d="M45.324,32.277c-0.02,0-0.04-0.002-0.061-0.006c-0.193-0.033-0.324-0.217-0.291-0.411l0.346-2.022
		c0.031-0.206,0.239-0.603,0.617-0.855c0.253-0.169,0.676-0.332,1.252-0.153c0.188,0.059,0.292,0.258,0.233,0.446
		c-0.058,0.188-0.258,0.292-0.446,0.233c-0.224-0.07-0.219-0.06-0.389,0.031c-0.215,0.115-0.17,0.338-0.17,0.412v0.001l-0.543,2.027
		C45.842,32.154,45.494,32.277,45.324,32.277z"/>
</g>
<g>
	<circle fill="#FFFFFF" cx="43.243" cy="32.874" r="0.384"/>
</g>
<g>
	<circle fill="#FFFFFF" cx="44.666" cy="33.052" r="0.384"/>
</g>
<g>
	<path fill="#828C99" d="M23.234,54.259h-1.199v1.039h0.969v5.297h-0.402V60.13h-2.367v0.457h-0.406v-5.289h0.977v-1.039h-1.219
		v-0.383h3.648V54.259z M22.602,59.732v-2.055h-0.367c-0.394,0-0.59-0.178-0.59-0.535v-1.457h-0.488
		c0.008,1.216-0.241,2.053-0.746,2.512l-0.168-0.145v1.68H22.602z M20.777,55.685h-0.535v2.094
		C20.599,57.386,20.777,56.688,20.777,55.685z M22.266,58.853h-1.727v-0.367h1.727V58.853z M21.645,55.298v-1.039H21.18v1.039
		H21.645z M22.602,57.275v-1.59h-0.566v1.391c0,0.133,0.077,0.199,0.23,0.199H22.602z M26.523,58.787
		c-0.031,0.688-0.087,1.116-0.168,1.285s-0.194,0.281-0.34,0.336s-0.473,0.082-0.98,0.082c-0.563,0-0.895-0.01-0.996-0.029
		s-0.192-0.076-0.273-0.168s-0.121-0.231-0.121-0.416v-3.535h2.133v-2.09h-2.254v-0.398h2.672v2.887h-2.152v3.098
		c0,0.057,0.023,0.109,0.07,0.156s0.111,0.072,0.193,0.076s0.514,0.006,1.295,0.006c0.242,0,0.39-0.138,0.441-0.414
		s0.078-0.609,0.078-1L26.523,58.787z"/>
	<path fill="#828C99" d="M34.668,60.044l-0.113,0.449l-3.16-0.035c-1.146,0-2.009-0.298-2.59-0.895
		c-0.352,0.451-0.667,0.805-0.945,1.063l-0.344-0.301c0.891-0.805,1.448-1.662,1.672-2.57h-1.426V57.38
		c0.528-0.607,0.969-1.154,1.32-1.641h-1.496v-0.398h2.043v0.398c-0.481,0.62-0.909,1.159-1.281,1.617h1.281v0.398
		c-0.13,0.427-0.333,0.918-0.609,1.473c0.284,0.284,0.61,0.49,0.98,0.617s0.788,0.195,1.256,0.203s0.966,0.012,1.494,0.012
		C33.356,60.06,33.996,60.055,34.668,60.044z M29.355,54.779l-0.32,0.297c-0.3-0.422-0.676-0.814-1.129-1.176l0.313-0.273
		C28.683,53.978,29.062,54.362,29.355,54.779z M34.477,56.974h-2.168c-0.159,1.133-0.858,1.986-2.098,2.559l-0.305-0.359
		c1.19-0.484,1.847-1.217,1.969-2.199h-1.953v-0.41h2.008c0.016-0.221,0.023-0.59,0.023-1.105H30.18v-0.414h4.016v0.414h-1.809
		c0,0.221-0.013,0.59-0.039,1.105h2.129V56.974z M31.715,54.646l-0.359,0.191c-0.138-0.287-0.37-0.63-0.695-1.031l0.359-0.211
		C31.355,53.996,31.587,54.347,31.715,54.646z M34.523,59.166l-0.273,0.359c-0.542-0.557-1.184-1.061-1.926-1.512l0.23-0.328
		C33.336,58.146,33.992,58.64,34.523,59.166z M33.738,53.83c-0.164,0.333-0.419,0.672-0.766,1.016l-0.344-0.234
		c0.331-0.338,0.581-0.66,0.75-0.965L33.738,53.83z"/>
</g>
<g>
	<path fill="#828C99" d="M108.35,53.74c-0.074,0.219-0.186,0.494-0.332,0.824l-0.215,0.48v5.582h-0.406V55.83
		c-0.33,0.537-0.672,1.016-1.023,1.438l-0.242-0.422c0.701-0.81,1.301-1.901,1.801-3.273L108.35,53.74z M113.268,55.525h-1.031
		v4.559c0,0.133-0.055,0.255-0.168,0.367c-0.111,0.112-0.242,0.168-0.395,0.168h-1.117l-0.168-0.406h1.191
		c0.066,0,0.123-0.023,0.172-0.07c0.051-0.047,0.074-0.107,0.074-0.18v-4.438h-3.512v-0.434h3.512v-1.473h0.41v1.473h1.031V55.525z
		 M110.686,58.626l-0.418,0.152c-0.26-0.664-0.645-1.359-1.152-2.086l0.418-0.168C110.033,57.267,110.418,57.968,110.686,58.626z"/>
	<path fill="#828C99" d="M115.604,58.419c-0.26,0.789-0.559,1.435-0.895,1.938l-0.371-0.184c0.355-0.484,0.652-1.109,0.891-1.875
		L115.604,58.419z M118.189,57.931h-1.707v2.121c0,0.123-0.031,0.23-0.094,0.324s-0.129,0.156-0.203,0.186
		c-0.072,0.03-0.219,0.045-0.438,0.045c-0.098,0-0.197-0.004-0.297-0.012l-0.137-0.406c0.117,0.016,0.242,0.023,0.375,0.023
		c0.162,0,0.268-0.021,0.318-0.063s0.076-0.1,0.076-0.176v-2.043h-1.734v-0.391h3.84V57.931z M118.1,54.732h-1.602v0.727h1.328
		v0.395h-3.125v-0.395h1.391v-0.727h-1.633v-0.383h1.633v-0.73h0.406v0.73h1.602V54.732z M117.818,56.869h-3.117v-0.391h3.117
		V56.869z M118.053,59.412l-0.336,0.234c-0.133-0.292-0.367-0.67-0.707-1.137l0.34-0.199
		C117.592,58.594,117.826,58.961,118.053,59.412z M121.314,60.326l-0.27,0.328c-0.715-0.711-1.201-1.541-1.457-2.488
		c-0.223,0.953-0.82,1.776-1.793,2.469l-0.27-0.293c0.615-0.414,1.086-0.93,1.41-1.547c0.326-0.617,0.475-1.638,0.445-3.063h0.398
		c-0.02,0.302-0.031,0.577-0.031,0.824c0,0.807,0.137,1.518,0.41,2.133S120.818,59.849,121.314,60.326z M121.213,54.779
		c-0.086,0.865-0.305,1.67-0.656,2.418l-0.367-0.184c0.25-0.513,0.438-1.124,0.559-1.832h-1.762
		c-0.203,0.521-0.449,0.998-0.742,1.43l-0.297-0.313c0.488-0.716,0.867-1.627,1.137-2.734l0.391,0.09
		c-0.094,0.398-0.205,0.773-0.336,1.125H121.213z"/>
</g>
<g>
	<path fill="#828C99" d="M195.583,54.396h-1.035c-0.117,0.789-0.282,1.448-0.496,1.977h1.387v3.59h-0.395v-0.344h-0.871v0.504
		h-0.398v-3.102c-0.117,0.234-0.267,0.487-0.449,0.758l-0.328-0.27c0.599-0.807,0.991-1.845,1.176-3.113h-1.016v-0.414h2.426V54.396
		z M195.028,59.228v-2.449h-0.855v2.449H195.028z M199.989,60.158h-3.199v0.453h-0.418v-3.863c-0.242,0.221-0.421,0.381-0.535,0.48
		l-0.262-0.289c0.891-0.768,1.466-1.501,1.727-2.199h-1.055v0.922h-0.41v-1.32h1.633c0.117-0.318,0.196-0.561,0.238-0.73l0.379,0.09
		c-0.047,0.211-0.112,0.424-0.195,0.641h1.922v1.32h-0.406V54.74h-1.664c-0.208,0.513-0.526,1.03-0.953,1.551h1.414
		c-0.106-0.315-0.199-0.542-0.277-0.68l0.367-0.133c0.125,0.289,0.219,0.56,0.281,0.813h1.301v0.387h-1.375v0.742h1.258v0.375
		h-1.258v0.785h1.258v0.359h-1.258v0.832h1.488V60.158z M198.095,57.419v-0.742h-1.305v0.742H198.095z M198.095,58.58v-0.785h-1.305
		v0.785H198.095z M198.095,59.771v-0.832h-1.305v0.832H198.095z"/>
	<path fill="#828C99" d="M203.509,54.845h-2.473v-0.41h1.074c-0.097-0.276-0.203-0.521-0.32-0.734l0.359-0.137
		c0.177,0.318,0.305,0.608,0.383,0.871h0.977V54.845z M203.356,56.005h-2.145v-0.402h2.145V56.005z M203.356,57.142h-2.145V56.74
		h2.145V57.142z M203.204,60.412h-0.398v-0.43h-1.055v0.621h-0.402v-2.688h1.855V60.412z M202.806,59.58v-1.254h-1.055v1.254
		H202.806z M204.388,58.029c-0.18,0.857-0.384,1.505-0.613,1.945l-0.367-0.16c0.258-0.547,0.452-1.174,0.582-1.883L204.388,58.029z
		 M207.692,53.814c-0.021,0.588-0.056,1.16-0.104,1.715s-0.089,0.883-0.123,0.986s-0.095,0.196-0.182,0.279
		s-0.208,0.145-0.361,0.186s-0.422,0.051-0.805,0.033l-0.121-0.426c0.255,0.013,0.438,0.02,0.551,0.02
		c0.271,0,0.448-0.077,0.533-0.23s0.15-0.873,0.197-2.156h-1.082c-0.102,1.623-0.86,2.655-2.277,3.098l-0.242-0.328
		c0.617-0.211,1.108-0.521,1.473-0.93c-0.261-0.302-0.594-0.587-1-0.855l0.266-0.281c0.344,0.216,0.665,0.483,0.965,0.801
		c0.234-0.419,0.368-0.92,0.402-1.504h-1.984v-0.406H207.692z M206.899,59.044c-0.028,0.56-0.081,0.921-0.156,1.084
		s-0.173,0.268-0.293,0.316s-0.367,0.072-0.742,0.072c-0.347,0-0.585-0.049-0.715-0.146s-0.195-0.275-0.195-0.533v-1.914h0.398
		v1.953c0,0.076,0.034,0.136,0.104,0.182s0.265,0.068,0.588,0.068c0.242,0,0.397-0.045,0.467-0.137s0.126-0.441,0.17-1.051
		L206.899,59.044z M206.407,58.142l-0.289,0.277c-0.276-0.401-0.581-0.76-0.914-1.078l0.266-0.289
		C205.884,57.438,206.196,57.801,206.407,58.142z M207.989,59.701l-0.383,0.176c-0.112-0.57-0.315-1.189-0.609-1.855l0.344-0.152
		C207.658,58.577,207.875,59.188,207.989,59.701z"/>
</g>
<rect x="4.234" y="69.833" fill="#B3C9E3" width="221.104" height="2.5"/>
<rect x="4.234" y="69.833" fill="#3C6DD5" width="62.385" height="2.5"/>
</svg>
