<?xml version="1.0" encoding="utf-8"?>
<!-- Generator: Adobe Illustrator 16.0.0, SVG Export Plug-In . SVG Version: 6.00 Build 0)  -->
<!DOCTYPE svg PUBLIC "-//W3C//DTD SVG 1.1//EN" "http://www.w3.org/Graphics/SVG/1.1/DTD/svg11.dtd">
<svg version="1.1" id="圖層_1" xmlns="http://www.w3.org/2000/svg" xmlns:xlink="http://www.w3.org/1999/xlink" x="0px" y="0px"
	 width="258px" height="164.666px" viewBox="0 0 258 164.666" enable-background="new 0 0 258 164.666" xml:space="preserve">
<g>
	<g>
		<g>
			<path fill="#DCDDDD" d="M249.154,117.466h-1.301c-0.059,0-0.112,0.021-0.168,0.033v-68.33c0-18.721-15.178-33.896-33.898-33.896
				H49.822c-18.721,0-33.896,15.176-33.896,33.896v27.104c-0.121-0.07-0.252-0.122-0.4-0.122h-1.203
				c-0.443,0-0.803,0.358-0.803,0.802v17.971c0,0.441,0.359,0.801,0.803,0.801h1.203c0.148,0,0.279-0.051,0.4-0.122v21.891
				c-0.045-0.008-0.086-0.026-0.135-0.026h-1.304c-0.44,0-0.801,0.358-0.801,0.801v34.543c0,0.441,0.36,0.801,0.801,0.801h1.304
				c0.049,0,0.09-0.019,0.135-0.026v7.831c-0.045-0.008-0.086-0.026-0.135-0.026h-1.304c-0.44,0-0.801,0.358-0.801,0.802v34.541
				c0,0.443,0.36,0.803,0.801,0.803h1.304c0.049,0,0.09-0.02,0.135-0.027v245.018c0,18.721,15.176,33.896,33.896,33.896h163.965
				c18.721,0,33.898-15.176,33.898-33.896V153.577c0.056,0.012,0.109,0.033,0.168,0.033h1.301c0.445,0,0.801-0.359,0.801-0.801
				v-34.543C249.955,117.824,249.599,117.466,249.154,117.466z M243.685,442.524c0,16.485-13.412,29.896-29.898,29.896H49.822
				c-16.486,0-29.896-13.411-29.896-29.896V49.169c0-16.484,13.41-29.896,29.896-29.896h163.965
				c16.486,0,29.898,13.412,29.898,29.896V442.524z"/>
			<g>
				<circle fill="#EFEFEF" cx="94.956" cy="45.888" r="4.31"/>
				<circle fill="#EFEFEF" cx="131.629" cy="29.754" r="3.308"/>
				<path fill="#EFEFEF" d="M150.57,45.536c0,1.024-0.828,1.854-1.854,1.854h-33.068c-1.025,0-1.854-0.83-1.854-1.854l0,0
					c0-1.023,0.828-1.854,1.854-1.854h33.068C149.742,43.683,150.57,44.513,150.57,45.536L150.57,45.536z"/>
			</g>
			
				<rect x="28.216" y="72.877" fill="#FFFFFF" stroke="#F7F8F8" stroke-width="0.5" stroke-miterlimit="10" width="206.83" height="345.825"/>
			<g>
				<rect x="28.216" y="72.877" fill="#050506" width="206.83" height="13.618"/>
				<g>
					<rect x="217.173" y="77.983" fill="#E4E4E4" width="9.361" height="3.405"/>
					<path fill="#E4E4E4" d="M229.937,77.983h-1.7v-0.425c0-0.704-0.574-1.276-1.276-1.276h-10.214
						c-0.706,0-1.276,0.572-1.276,1.276v4.255c0,0.705,0.57,1.277,1.276,1.277h10.214c0.702,0,1.276-0.572,1.276-1.277v-0.425h1.7
						V77.983z M227.386,81.813c0,0.235-0.192,0.426-0.426,0.426h-10.214c-0.234,0-0.425-0.19-0.425-0.426v-4.255
						c0-0.235,0.19-0.426,0.425-0.426h10.214c0.233,0,0.426,0.19,0.426,0.426v0.425v3.405V81.813z M229.089,80.538h-0.853v-1.703
						h0.853V80.538z"/>
				</g>
				<rect x="32.472" y="81.389" fill="#E4E4E4" width="1.703" height="1.702"/>
				<rect x="35.025" y="79.687" fill="#E4E4E4" width="1.703" height="3.404"/>
				<rect x="37.58" y="78.835" fill="#E4E4E4" width="1.702" height="4.256"/>
				<rect x="40.132" y="77.983" fill="#E4E4E4" width="1.701" height="5.107"/>
				<rect x="42.686" y="76.282" fill="#E4E4E4" width="1.702" height="6.809"/>
				<g>
					<path fill="#EBEBEB" d="M52.504,78.421c-0.122-0.439-0.356-1.267-1.622-1.267c-0.733,0-1.816,0.49-1.816,2.563
						c0,1.316,0.521,2.5,1.816,2.5c0.848,0,1.439-0.48,1.622-1.377h1.533c-0.308,1.592-1.349,2.703-3.186,2.703
						c-1.949,0-3.349-1.315-3.349-3.848c0-2.563,1.481-3.869,3.37-3.869c2.192,0,3.081,1.512,3.164,2.594H52.504z"/>
					<path fill="#EBEBEB" d="M55.326,83.351h-1.613l2.615-7.329h1.764l2.584,7.329h-1.663l-0.472-1.51h-2.704L55.326,83.351z
						 M56.247,80.573h1.868l-0.909-2.898h-0.021L56.247,80.573z"/>
					<path fill="#EBEBEB" d="M61.15,76.021h3.706c1.947,0,2.306,1.438,2.306,2.072c0,0.806-0.407,1.501-1.132,1.745
						c0.603,0.266,0.929,0.49,0.929,1.859c0,1.07,0,1.336,0.326,1.459v0.193h-1.693c-0.104-0.346-0.166-0.725-0.166-1.48
						c0-1-0.06-1.388-1.193-1.388H62.65v2.868h-1.5V76.021z M64.447,79.247c0.797,0,1.184-0.275,1.184-1
						c0-0.389-0.173-0.959-1.074-0.959H62.65v1.959H64.447z"/>
					<path fill="#EBEBEB" d="M68.012,76.021h3.706c1.95,0,2.307,1.438,2.307,2.072c0,0.806-0.408,1.501-1.133,1.745
						c0.603,0.266,0.93,0.49,0.93,1.859c0,1.07,0,1.336,0.327,1.459v0.193h-1.695c-0.102-0.346-0.164-0.725-0.164-1.48
						c0-1-0.061-1.388-1.194-1.388h-1.583v2.868h-1.5V76.021z M71.308,79.247c0.797,0,1.187-0.275,1.187-1
						c0-0.389-0.174-0.959-1.071-0.959h-1.911v1.959H71.308z"/>
					<path fill="#EBEBEB" d="M76.286,83.351h-1.533v-7.329h1.533V83.351z"/>
					<path fill="#EBEBEB" d="M82.595,77.318h-3.89v1.542h3.572v1.295h-3.572v1.9h4.062v1.295h-5.562v-7.329h5.39V77.318z"/>
					<path fill="#EBEBEB" d="M83.507,76.021h3.704c1.95,0,2.308,1.438,2.308,2.072c0,0.806-0.41,1.501-1.132,1.745
						c0.602,0.266,0.927,0.49,0.927,1.859c0,1.07,0,1.336,0.328,1.459v0.193h-1.695c-0.102-0.346-0.164-0.725-0.164-1.48
						c0-1-0.061-1.388-1.191-1.388h-1.584v2.868h-1.5V76.021z M86.806,79.247c0.793,0,1.181-0.275,1.181-1
						c0-0.389-0.171-0.959-1.071-0.959h-1.908v1.959H86.806z"/>
				</g>
			</g>
		</g>
		<g>
			<g>
				<g>
					
						<rect x="28.612" y="72.94" fill="#FFFFFF" stroke="#9FA0A0" stroke-width="0.851" stroke-miterlimit="10" width="206.082" height="345.762"/>
					<g>
						<rect x="28.612" y="72.94" fill="#050506" width="206.082" height="11.311"/>
						<g>
							<rect x="216.884" y="77.182" fill="#E4E4E4" width="9.328" height="2.829"/>
							<path fill="#E4E4E4" d="M229.604,77.182h-1.695v-0.353c0-0.585-0.572-1.061-1.272-1.061H216.46
								c-0.703,0-1.272,0.476-1.272,1.061v3.533c0,0.586,0.569,1.062,1.272,1.062h10.176c0.7,0,1.272-0.476,1.272-1.062v-0.352
								h1.695V77.182z M227.061,80.362c0,0.195-0.191,0.354-0.425,0.354H216.46c-0.235,0-0.424-0.159-0.424-0.354v-3.533
								c0-0.195,0.188-0.354,0.424-0.354h10.176c0.233,0,0.425,0.159,0.425,0.354v0.353v2.829V80.362z M228.757,79.304h-0.849
								v-1.415h0.849V79.304z"/>
						</g>
						<rect x="32.853" y="80.011" fill="#E4E4E4" width="1.695" height="1.413"/>
						<rect x="35.396" y="78.597" fill="#E4E4E4" width="1.697" height="2.827"/>
						<rect x="37.941" y="77.889" fill="#E4E4E4" width="1.696" height="3.535"/>
						<rect x="40.485" y="77.182" fill="#E4E4E4" width="1.694" height="4.242"/>
						<rect x="43.03" y="75.769" fill="#E4E4E4" width="1.696" height="5.655"/>
						<g>
							<path fill="#EBEBEB" d="M52.812,77.544c-0.122-0.363-0.355-1.052-1.616-1.052c-0.73,0-1.81,0.408-1.81,2.13
								c0,1.094,0.519,2.077,1.81,2.077c0.845,0,1.436-0.399,1.616-1.145h1.528c-0.306,1.322-1.343,2.245-3.175,2.245
								c-1.941,0-3.336-1.092-3.336-3.195c0-2.129,1.476-3.213,3.357-3.213c2.185,0,3.071,1.255,3.153,2.152H52.812z"/>
							<path fill="#EBEBEB" d="M55.625,81.639h-1.608l2.605-6.087h1.758l2.575,6.087h-1.657l-0.47-1.254h-2.695L55.625,81.639z
								 M56.541,79.332h1.861l-0.905-2.406h-0.021L56.541,79.332z"/>
							<path fill="#EBEBEB" d="M61.427,75.552h3.691c1.94,0,2.298,1.194,2.298,1.723c0,0.667-0.406,1.245-1.128,1.449
								c0.6,0.22,0.926,0.406,0.926,1.543c0,0.891,0,1.109,0.324,1.213v0.159H65.85c-0.103-0.287-0.163-0.601-0.163-1.229
								c0-0.83-0.061-1.151-1.189-1.151h-1.576v2.381h-1.494V75.552z M64.71,78.231c0.795,0,1.18-0.229,1.18-0.83
								c0-0.324-0.172-0.799-1.068-0.799h-1.9v1.629H64.71z"/>
							<path fill="#EBEBEB" d="M68.264,75.552h3.692c1.944,0,2.299,1.194,2.299,1.723c0,0.667-0.408,1.245-1.129,1.449
								c0.6,0.22,0.926,0.406,0.926,1.543c0,0.891,0,1.109,0.326,1.213v0.159H72.69c-0.103-0.287-0.163-0.601-0.163-1.229
								c0-0.83-0.061-1.151-1.191-1.151h-1.577v2.381h-1.494V75.552z M71.548,78.231c0.795,0,1.182-0.229,1.182-0.83
								c0-0.324-0.173-0.799-1.069-0.799h-1.902v1.629H71.548z"/>
							<path fill="#EBEBEB" d="M76.507,81.639H74.98v-6.087h1.527V81.639z"/>
							<path fill="#EBEBEB" d="M82.794,76.629h-3.876v1.281h3.56v1.076h-3.56v1.577h4.047v1.075h-5.541v-6.087h5.37V76.629z"/>
							<path fill="#EBEBEB" d="M83.702,75.552h3.691c1.943,0,2.3,1.194,2.3,1.723c0,0.667-0.408,1.245-1.127,1.449
								c0.599,0.22,0.923,0.406,0.923,1.543c0,0.891,0,1.109,0.327,1.213v0.159h-1.689c-0.102-0.287-0.163-0.601-0.163-1.229
								c0-0.83-0.06-1.151-1.188-1.151h-1.577v2.381h-1.496V75.552z M86.989,78.231c0.79,0,1.178-0.229,1.178-0.83
								c0-0.324-0.17-0.799-1.067-0.799h-1.901v1.629H86.989z"/>
						</g>
					</g>
				</g>
				<rect x="28.612" y="84.251" fill="#F65536" width="206.082" height="55.943"/>
				<g>
					<g>
						<g>
							<path fill="#3C6DD5" d="M160.761,126.801c-0.011,0.022-0.023,0.048-0.035,0.072c0.004-0.052,0.02-0.122,0.035-0.204
								c-0.136,0.385-0.285,0.816-0.48,1.219c-0.194,0.401-0.422,0.773-0.618,1.069c-0.185,0.169-0.326,0.348-0.316,0.402
								c0.017,0.059,0.193-0.026,0.392-0.204c0.048-0.034,0.097-0.083,0.132-0.107c0.325-0.213,0.659-0.566,0.938-1.021
								c-0.058,0.086-0.121,0.171-0.189,0.25c0.094-0.121,0.168-0.254,0.243-0.408l-0.053,0.041c0.076-0.11,0.141-0.238,0.195-0.377
								c0.06-0.136,0.105-0.281,0.135-0.424c0.07-0.287,0.065-0.564,0.039-0.745c-0.04-0.184-0.1-0.241-0.157-0.194
								c-0.06,0.046-0.114,0.195-0.191,0.427c0,0-0.016,0.053-0.033,0.104C160.78,126.751,160.761,126.801,160.761,126.801z"/>
						</g>
						<g>
							<path fill="#3C6DD5" d="M160.201,127.523c0.14-0.229,0.256-0.39,0.353-0.638l0.03,0.026h-0.085l0.003-0.067
								c0.014,0.25-0.068,0.621-0.232,0.965l-0.05,0.109c-0.023,0.061-0.032,0.097-0.023,0.117c0.015,0.045,0.119-0.038,0.201-0.202
								l0.098-0.188c0.064-0.11,0.12-0.25,0.177-0.394c0.053-0.144,0.087-0.301,0.12-0.448c0.022-0.15,0.03-0.298,0.03-0.421
								c-0.008-0.125-0.03-0.229-0.062-0.3c-0.029-0.063-0.072-0.011-0.11,0.001c-0.06-0.02-0.098,0.159-0.142,0.392
								c-0.031,0.236-0.05,0.442,0,0.474c-0.015,0.04-0.029,0.079-0.043,0.118c0.001-0.034,0.004-0.066,0.006-0.1
								c0.033,0.08-0.025,0.296-0.063,0.461c0,0-0.018,0.061-0.04,0.119c-0.025,0.059-0.048,0.116-0.048,0.116l0.178-0.078
								l0.033-0.133c-0.01,0.007-0.022,0.024-0.022,0.021c0.062-0.251,0.093-0.489,0.128-0.761l0.005-0.345
								c-0.016-0.094-0.05-0.087-0.084,0.009l-0.049,0.142c0.008-0.021,0.017-0.042,0.025-0.063
								c-0.066,0.335-0.188,0.672-0.337,0.968c-0.024,0.046-0.049,0.104-0.049,0.134C160.15,127.585,160.172,127.57,160.201,127.523
								z"/>
						</g>
						<g>
							<g>
								<path fill="#3C6DD5" d="M160.497,126.378c0.02-0.053,0.03-0.104,0.032-0.183c-0.005-0.019-0.006-0.028-0.009-0.034
									c-0.007,0.028-0.017,0.067-0.026,0.105C160.475,126.341,160.477,126.379,160.497,126.378z"/>
							</g>
							<g>
								<path fill="#3C6DD5" d="M160.52,126.161c0.008-0.025,0.013-0.043,0.013-0.043c-0.005,0.01-0.01,0.019-0.014,0.028
									c0,0.009,0,0.009,0,0.009S160.519,126.156,160.52,126.161z"/>
							</g>
							<g>
								<path fill="#3C6DD5" d="M153.297,123.393c0.688-0.857,1.722-1.43,2.811-1.541c0.035-0.005,0.065-0.015,0.066-0.023
									c0-0.007-0.027-0.011-0.062-0.005c-1.097,0.109-2.135,0.679-2.829,1.541c-0.023,0.029-0.037,0.058-0.034,0.066
									C153.255,123.437,153.276,123.419,153.297,123.393z"/>
							</g>
							<g>
								<path fill="#3C6DD5" d="M159.557,124.291c-0.016-0.016-0.022-0.011-0.016,0.012c0.006,0.018,0.02,0.049,0.034,0.065
									c0.012,0.013,0.02,0.006,0.017-0.011C159.588,124.334,159.573,124.304,159.557,124.291z"/>
							</g>
							<g>
								<path fill="#3C6DD5" d="M158.934,124.458c-0.059-0.085-0.136-0.148-0.201-0.207c-0.012-0.01-0.022-0.025-0.027-0.038
									c-0.008,0.014-0.026,0.005-0.056-0.019c-0.533-0.475-1.243-0.773-1.943-0.741c-0.005,0.011-0.015,0.019-0.031,0.028
									c-0.048,0.024-0.14,0.047-0.237,0.047l-0.075-0.005c-0.296,0.011-0.591,0.082-0.868,0.198
									c-0.05,0.037-0.105,0.084-0.169,0.127c-0.196,0.17-0.37,0.358-0.509,0.573c0.018-0.007,0.032-0.007,0.04,0.002
									c0.018,0.021-0.007,0.075-0.045,0.129l-0.058,0.081c0.063-0.073,0.121-0.146,0.195-0.208c0.01-0.01,0.02-0.019,0.029-0.025
									c0.068-0.078,0.15-0.144,0.229-0.214c0.702-0.6,1.727-0.787,2.625-0.41c0.016,0.005,0.036,0.019,0.045,0.03
									c0.004,0.012-0.002,0.019-0.019,0.013c-0.294-0.096-0.577-0.111-0.849-0.088c-0.271,0.021-0.54,0.089-0.808,0.185
									c-0.319,0.12-0.591,0.313-0.808,0.54c-0.21,0.239-0.366,0.513-0.444,0.804c-0.111,0.29-0.144,0.604-0.073,0.897
									c0.062,0.293,0.198,0.56,0.403,0.781c0.275,0.302,0.631,0.491,0.997,0.557c0.374,0.058,0.761-0.002,1.086-0.185
									c0.23-0.152,0.48-0.269,0.638-0.201c0.092,0.044,0.115,0.16,0.051,0.316c0.024-0.019,0.044-0.042,0.065-0.063l0.113-0.094
									c0.047-0.051,0.098-0.092,0.148-0.126c0.048-0.037,0.09-0.067,0.136-0.089c0,0,0.117-0.056,0.113-0.06
									c0.181-0.068,0.384-0.267,0.542-0.37l0.042,0.042l0.022-0.027c0.064-0.1,0.132-0.164,0.184-0.183l0.059,0.021
									c0.068,0.04,0.117,0.111,0.151,0.229c0.026,0.001,0.048,0.021,0.064,0.054c0.084-0.071,0.159-0.102,0.212-0.012
									c0.032-0.051,0.056-0.036,0.053,0.034c-0.001,0.024-0.005,0.055-0.012,0.084h0.001c0.023-0.028,0.03-0.036,0.06-0.075
									c0.02-0.055,0.032-0.088,0.032-0.088c0.047-0.15,0.037-0.153,0.072-0.285c0.042-0.114,0.073-0.186,0.073-0.186
									c0.118-0.125,0.118-0.127,0.164-0.104l0.012,0.027c0.022-0.107,0.023-0.116,0.029-0.146c0.01-0.032,0.021-0.055,0.021-0.055
									c0.026-0.003,0.026-0.003,0.036-0.022c0.01-0.007,0.02-0.005,0.02-0.005c0.024,0.063,0.024,0.063,0.033,0.065
									c0.007,0.017,0.012,0.037,0.012,0.037c0.006,0.076,0.008,0.105,0.009,0.117c-0.075,0.157-0.075,0.157-0.075,0.157
									c0.02,0.036,0.019,0.036,0.019,0.036c-0.035,0.034-0.035,0.034-0.035,0.034c0.031-0.019,0.031-0.019,0.031-0.019
									c-0.029,0.079-0.029,0.079-0.029,0.079c0.037-0.089,0.037-0.089,0.037-0.089c-0.037,0.188-0.038,0.188-0.049,0.265
									c-0.013,0.079-0.024,0.146-0.025,0.155c0.01-0.006,0.017-0.004,0.017-0.004c-0.064,0.197-0.056,0.199-0.131,0.386
									c-0.012,0.016-0.022,0.027-0.032,0.039c0.001,0.02-0.008,0.057-0.023,0.093l-0.042,0.32l-0.004,0.245
									c0.001,0,0.001,0,0.001,0c-0.006,0,0.911-0.164,0.903-0.137c-0.005,0.018,0.919-0.093,0.919-0.093v-0.055
									c-2,0.056-0.962,0.118-1.05,0.343c-0.035,0.052-0.532,0.086-0.566,0.131l-0.194-0.046c0.026-0.023-0.085,0.013-0.074-0.001
									c0.278-0.357,0.43-0.824,0.549-1.307c0.01-0.086,0.008-0.168,0.03-0.178c0.022-0.009,0.017,0.056,0.005,0.147
									c-0.022,0.515-0.209,1.089-0.53,1.579c-0.317,0.493-0.771,0.896-1.237,1.144c-0.121,0.068-0.245,0.136-0.366,0.199
									c-0.128,0.055-0.255,0.112-0.385,0.164l0.042-0.004c-0.071,0.02-0.14,0.038-0.21,0.059l-0.021,0.008l0.17-0.015
									c0.037-0.01,0.074-0.019,0.109-0.033c0.599-0.248,1.128-0.556,1.588-1.013c0.126-0.121,0.229-0.247,0.341-0.366
									c0.102-0.125,0.203-0.25,0.296-0.393c0.041-0.075,0.081-0.124,0.093-0.105c0.012,0.017-0.013,0.096-0.054,0.172
									c-0.255,0.51-0.652,0.994-1.119,1.343c-0.463,0.35-0.986-0.332-1.431-0.268c-0.188,0.068-0.384-0.789-0.543-0.789h-0.009
									c0.043,0,0.084,0.902,0.127,0.904c-0.147,0.031-0.233,0.45-0.369,0.461l0.058,0.266c-0.368,0.047-0.753,0.152-1.124,0.108
									c-0.371-0.058-0.732-0.097-1.03-0.259c-0.024-0.012-0.048,0.008-0.071-0.004c-0.143-0.033-0.279-0.074-0.424-0.127
									c-0.142-0.063-0.284-0.131-0.431-0.226c0.093,0.071,0.19,0.136,0.289,0.202c-0.231-0.107-0.448-0.236-0.658-0.414
									c-0.279-0.241-0.532-0.548-0.699-0.853c-0.087-0.148-0.145-0.302-0.195-0.434c-0.042-0.137-0.066-0.26-0.076-0.357
									c-0.289-0.621-0.406-1.318-0.365-2.001c0.035-0.686,0.267-1.36,0.623-1.95c0.035-0.063,0.083-0.107,0.102-0.11
									c0.019,0.004-0.001,0.048-0.036,0.108c-0.503,0.845-0.694,1.862-0.542,2.817c-0.084-0.805,0.079-1.631,0.459-2.356
									c0.041-0.098,0.1-0.186,0.15-0.277c0.05-0.092,0.112-0.175,0.181-0.252c0.623-0.839,1.526-1.396,2.581-1.601
									c0.899-0.17,1.752-0.054,2.604,0.345c0.592,0.295,1.096,0.713,1.482,1.226c0.384,0.517,0.644,1.134,0.736,1.802
									c0.037,0.178,0.006,0.345-0.028,0.365c-0.04,0.023-0.073-0.102-0.101-0.272c-0.214-1.353-1.129-2.505-2.321-3.033
									c-0.595-0.271-1.253-0.396-1.903-0.353c-0.651,0.036-1.301,0.229-1.869,0.58c-0.25,0.145-0.471,0.324-0.678,0.517
									c0.006,0.001,0.013,0.002,0.016,0.006c0.016,0.016,0.008,0.046-0.012,0.089c0.23-0.213,0.479-0.412,0.761-0.56
									c0.728-0.488,1.669-0.734,2.607-0.538c0.646,0.127,1.174,0.441,1.613,0.829c0.605,0.437,1.081,1.062,1.339,1.789
									c0.015,0.028,0.018,0.062,0.013,0.073c-0.004,0.013-0.015-0.001-0.025-0.03c-0.2-0.489-0.498-0.939-0.871-1.313
									c0.037,0.078,0.046,0.135,0.015,0.15c-0.031,0.018-0.098-0.009-0.177-0.063c0.078,0.082,0.148,0.171,0.214,0.265
									c0.041,0.056,0.063,0.109,0.047,0.117c-0.018,0.01-0.061-0.025-0.1-0.078c-0.269-0.367-0.609-0.679-0.999-0.912
									c-0.478-0.268-1.021-0.409-1.561-0.421c0.073,0.026,0.141,0.059,0.141,0.092v0.001l0.247,0.033
									c0.738,0.082,1.48,0.437,2.005,1.021c0.527,0.576,0.852,1.365,0.849,2.165c0.001,0.03-0.002,0.057-0.012,0.057
									c-0.007,0,0.144-0.023,0.144-0.052c-0.001-0.477-0.159-0.954-0.159-1.38v0.002c0,0.02-0.162,0.025-0.175,0.01
									c-0.013-0.015-0.111-0.048-0.116-0.066c-0.004-0.023-0.033-0.024-0.02-0.011c-0.4-0.79-1.153-1.382-1.964-1.61
									c0.741,0.249,1.378,0.781,1.748,1.471c0.057,0.064,0.092,0.141,0.14,0.214c0.012,0.021,0.02,0.052,0.018,0.063
									c-0.004,0.009-0.021-0.004-0.033-0.024l-0.039-0.062c0.065,0.133,0.074,0.251,0.031,0.266
									c-0.04,0.007-0.116-0.093-0.183-0.223c-0.182-0.346-0.424-0.656-0.713-0.913l-0.099-0.08
									c-0.036-0.023-0.075-0.04-0.111-0.06c0.465,0.374,0.81,0.888,0.979,1.443c0.018,0.048,0.021,0.091,0.007,0.097
									c-0.014,0.005-0.039-0.028-0.057-0.075c-0.38-0.938-1.254-1.625-2.217-1.803c-0.327,0-0.646,0.057-0.941,0.157
									c0.038-0.004,0.077-0.012,0.116-0.012c0.493-0.035,0.964-0.001,1.41,0.16c0.447,0.152,0.868,0.431,1.187,0.846
									c0.017,0.02,0.024,0.04,0.02,0.048c-0.005,0.007-0.021-0.004-0.036-0.024c-0.315-0.396-0.708-0.658-1.154-0.822
									c-0.37-0.141-0.743-0.192-1.097-0.155c0.712,0.006,1.428,0.253,1.954,0.792c0.024,0.022,0.043,0.05,0.052,0.069
									c0.005,0,0.011,0.002,0.02,0.01c0.068,0.062,0.149,0.131,0.214,0.215c0.014,0.016,0.024,0.039,0.023,0.052
									C158.962,124.48,158.949,124.475,158.934,124.458z M158.766,128.855c0.01-0.004,0.019-0.006,0.025-0.009
									c-0.024,0.013-0.051,0.026-0.08,0.041c0,0,0.001,0.002-0.132,0.02C158.58,128.907,158.671,128.883,158.766,128.855z
									 M159.581,127.604L159.581,127.604c0.037-0.023,0.063-0.042,0.063-0.042C159.62,127.581,159.597,127.594,159.581,127.604z
									 M152.659,125.683c-0.035,0.569,0.036,1.141,0.207,1.689c-0.051-0.132-0.105-0.261-0.14-0.397
									C152.626,126.55,152.604,126.11,152.659,125.683z M159.68,128.274c-0.111,0.102-0.221,0.157-0.32,0.208
									c-0.057,0.077-0.124,0.149-0.201,0.213c-0.099,0.091-0.201,0.174-0.312,0.246c-0.104,0.078-0.217,0.146-0.33,0.204
									c0.04,0.001-0.014,0.03-0.04,0.049l-0.081,0.054c0.247-0.122,0.489-0.262,0.713-0.437
									C159.313,128.656,159.515,128.459,159.68,128.274z M160.353,126.465c0.003-0.008,0.007-0.015,0.011-0.023
									c0,0,0,0,0.023,0.057C160.387,126.498,160.373,126.483,160.353,126.465z M160.311,126.378
									c-0.004,0.011-0.008,0.024-0.011,0.036C160.291,126.399,160.297,126.389,160.311,126.378z M160.211,126.722
									c0.014-0.02,0.022-0.029,0.03-0.046C160.211,126.722,160.211,126.722,160.211,126.722z M159.242,126.699
									c0,0,0.031,0.037,0.063,0.073c0.029,0.038,0.058,0.076,0.058,0.076s-0.025-0.039-0.053-0.078
									c-0.029-0.039-0.061-0.078-0.061-0.078L159.242,126.699z"/>
							</g>
						</g>
					</g>
					<g>
						<path fill="#FFFFFF" d="M138.875,117.079c-0.049,0.043-0.104,0.063-0.165,0.063h-15.824c-0.061,0-0.112-0.017-0.155-0.055
							c-0.043-0.037-0.064-0.079-0.064-0.129v-0.825c0-0.063,0.019-0.116,0.055-0.165c0.037-0.049,0.099-0.073,0.185-0.073h6.662
							v-1.011h-5.69c-0.061,0-0.115-0.019-0.165-0.055c-0.049-0.035-0.073-0.079-0.073-0.128v-0.826
							c0-0.061,0.021-0.116,0.064-0.165s0.106-0.073,0.192-0.073h5.672v-0.917h-6.241c-0.061,0-0.112-0.02-0.155-0.057
							c-0.043-0.036-0.064-0.079-0.064-0.128v-0.826c0-0.061,0.019-0.116,0.056-0.165c0.036-0.05,0.097-0.074,0.184-0.074h6.222
							v-0.899c0-0.061,0.02-0.115,0.055-0.165c0.038-0.049,0.08-0.073,0.13-0.073h1.965c0.047,0,0.094,0.024,0.137,0.073
							c0.043,0.05,0.063,0.104,0.063,0.165v0.899h6.315c0.159,0,0.239,0.067,0.239,0.203v0.771c0,0.098-0.025,0.168-0.074,0.211
							s-0.104,0.065-0.165,0.065h-6.315v0.917h5.765c0.159,0,0.238,0.067,0.238,0.2v0.772c0,0.099-0.024,0.168-0.072,0.211
							c-0.049,0.043-0.104,0.063-0.166,0.063h-5.765v1.011h6.793c0.158,0,0.238,0.067,0.238,0.201v0.771
							C138.949,116.966,138.924,117.036,138.875,117.079z M137.351,126.064c-0.244,0.245-0.574,0.367-0.99,0.367h-3.635
							c-0.062,0-0.126-0.013-0.193-0.035c-0.067-0.026-0.112-0.057-0.137-0.093l-0.459-0.992c-0.025-0.035-0.025-0.072,0-0.11
							c0.023-0.036,0.066-0.054,0.128-0.054h3.305v-1.341h-9.105v2.368c0,0.172-0.08,0.257-0.238,0.257h-1.836
							c-0.073,0-0.138-0.021-0.192-0.063c-0.056-0.043-0.084-0.097-0.084-0.156v-7.049c0-0.344,0.117-0.611,0.351-0.809
							c0.097-0.098,0.223-0.175,0.375-0.229c0.153-0.055,0.328-0.082,0.523-0.082h11.308c0.416,0,0.735,0.121,0.955,0.366
							c0.195,0.208,0.293,0.502,0.293,0.88v5.765C137.718,125.483,137.596,125.82,137.351,126.064z M135.37,119.31h-9.105v1.01
							h9.105V119.31z M135.37,121.567h-9.105v0.991h9.105V121.567z"/>
					</g>
					<g>
						<g>
							<path fill="#FFFFFF" d="M120.662,126.137c-0.109,0.111-0.235,0.197-0.376,0.26c-0.141,0.06-0.314,0.09-0.522,0.09h-3.268
								c-0.135,0-0.232-0.042-0.295-0.128l-0.551-1.009c-0.024-0.05-0.016-0.11,0.028-0.185c0.043-0.072,0.096-0.11,0.156-0.11
								h2.863v-8.646h-10.537v9.784c0,0.061-0.024,0.118-0.074,0.175c-0.049,0.055-0.103,0.082-0.164,0.082h-1.799
								c-0.062,0-0.122-0.027-0.184-0.082c-0.062-0.057-0.092-0.114-0.092-0.175v-9.968c0-0.354,0.122-0.644,0.367-0.862
								c0.294-0.271,0.648-0.405,1.064-0.405h5.066v-4.387c0-0.061,0.025-0.113,0.074-0.155c0.047-0.044,0.097-0.064,0.146-0.064
								h1.854c0.061,0,0.116,0.021,0.166,0.064c0.048,0.042,0.073,0.095,0.073,0.155v4.387h4.919c0.416,0,0.759,0.135,1.028,0.405
								c0.27,0.268,0.403,0.605,0.403,1.009v8.884C121.01,125.612,120.894,125.905,120.662,126.137z M111.081,114.151
								c-0.025,0.049-0.068,0.073-0.129,0.073h-2.313c-0.122,0-0.22-0.043-0.293-0.127l-2.405-3.196
								c-0.024-0.023-0.016-0.063,0.027-0.119s0.095-0.082,0.156-0.082h2.258c0.048,0,0.101,0.008,0.157,0.026
								c0.054,0.02,0.094,0.047,0.118,0.083l2.424,3.195C111.104,114.054,111.104,114.103,111.081,114.151z M118.625,114.098
								c-0.074,0.084-0.172,0.127-0.295,0.127h-2.313c-0.062,0-0.104-0.024-0.128-0.073s-0.024-0.098,0-0.146l2.423-3.195
								c0.061-0.073,0.152-0.109,0.274-0.109h2.258c0.062,0,0.116,0.026,0.165,0.082s0.062,0.096,0.037,0.119L118.625,114.098z"/>
						</g>
					</g>
					<g>
						<path fill="#FFFFFF" d="M142.317,126.335c-0.024,0.073-0.098,0.11-0.219,0.11h-1.776c-0.061,0-0.104-0.022-0.128-0.063
							c-0.024-0.045-0.024-0.09,0-0.139l0.879-2.891c0.024-0.074,0.079-0.135,0.164-0.184c0.086-0.049,0.178-0.074,0.274-0.074
							h1.465c0.084,0,0.151,0.025,0.201,0.074c0.049,0.049,0.061,0.122,0.036,0.22L142.317,126.335z M145.667,122.217
							c-0.086,0.086-0.181,0.153-0.283,0.201c-0.104,0.05-0.235,0.074-0.395,0.074h-3.458c-0.208,0-0.403-0.062-0.586-0.184
							c-0.22-0.157-0.33-0.396-0.33-0.713v-10.05c0-0.257,0.098-0.481,0.293-0.678c0.194-0.219,0.439-0.328,0.732-0.328h3.257
							c0.306,0,0.556,0.109,0.75,0.328c0.195,0.222,0.295,0.471,0.295,0.752v9.883C145.942,121.795,145.849,122.033,145.667,122.217
							z M143.928,111.985h-1.3v2.013h1.3V111.985z M143.928,115.427h-1.3v2.05h1.3V115.427z M143.928,118.904h-1.3v2.142h1.3
							V118.904z M146.709,126.382c-0.024,0.041-0.067,0.063-0.128,0.063h-1.775c-0.122,0-0.188-0.037-0.202-0.11l-0.914-2.946
							c-0.024-0.098-0.012-0.171,0.037-0.22c0.048-0.049,0.115-0.074,0.201-0.074h1.463c0.098,0,0.189,0.025,0.275,0.074
							c0.084,0.049,0.14,0.109,0.164,0.184l0.879,2.891C146.733,126.292,146.733,126.337,146.709,126.382z M156.612,123.956
							c-0.05,0.037-0.104,0.055-0.166,0.055h-0.53v1.208c0,0.378-0.104,0.684-0.312,0.914c-0.183,0.208-0.445,0.313-0.786,0.313
							h-2.489c-0.099,0-0.172-0.056-0.219-0.165l-0.331-0.823c-0.024-0.073-0.024-0.141,0-0.202
							c0.024-0.061,0.085-0.092,0.184-0.092h1.738v-1.152h-4.318v2.178c0,0.061-0.022,0.119-0.065,0.175
							c-0.042,0.055-0.088,0.082-0.136,0.082h-1.794c-0.061,0-0.113-0.027-0.156-0.082c-0.043-0.056-0.063-0.114-0.063-0.175v-2.178
							h-0.586c-0.062,0-0.116-0.018-0.165-0.055c-0.049-0.036-0.072-0.079-0.072-0.13v-0.858c0-0.063,0.023-0.107,0.072-0.138
							c0.049-0.031,0.104-0.047,0.165-0.047h0.586v-3.513c0-0.33,0.122-0.604,0.366-0.824c0.256-0.232,0.555-0.348,0.896-0.348
							h2.014v-0.806h-3.716c-0.062,0-0.116-0.015-0.165-0.045s-0.072-0.076-0.072-0.139v-0.859c0-0.062,0.023-0.106,0.072-0.137
							c0.049-0.031,0.104-0.047,0.165-0.047h1.61v-1.005h-0.987c-0.062,0-0.117-0.017-0.166-0.047
							c-0.049-0.029-0.073-0.076-0.073-0.137v-0.86c0-0.061,0.024-0.106,0.073-0.138c0.049-0.03,0.104-0.045,0.166-0.045h0.987
							v-1.044h-1.392c-0.061,0-0.115-0.015-0.164-0.045c-0.05-0.03-0.073-0.076-0.073-0.139v-0.859c0-0.062,0.023-0.106,0.073-0.138
							c0.049-0.03,0.104-0.046,0.164-0.046h1.392v-1.007c0-0.061,0.021-0.112,0.064-0.155c0.042-0.042,0.088-0.063,0.137-0.063h1.94
							c0.049,0,0.095,0.021,0.138,0.063c0.042,0.043,0.064,0.095,0.064,0.155v1.007h1.829v-0.97c0-0.06,0.021-0.116,0.064-0.164
							c0.043-0.049,0.088-0.074,0.137-0.074h1.94c0.048,0,0.094,0.025,0.138,0.074c0.043,0.048,0.063,0.104,0.063,0.164v0.97h1.281
							c0.158,0,0.238,0.067,0.238,0.202v0.823c0,0.062-0.025,0.108-0.074,0.146c-0.048,0.036-0.104,0.055-0.164,0.055h-1.281v1.044
							h0.935c0.157,0,0.237,0.066,0.237,0.201v0.823c0,0.06-0.024,0.108-0.074,0.146c-0.048,0.037-0.104,0.057-0.163,0.057h-0.935
							v1.005h1.537c0.159,0,0.238,0.067,0.238,0.202v0.823c0,0.062-0.024,0.111-0.073,0.147c-0.049,0.035-0.104,0.054-0.165,0.054
							h-3.733v0.806h1.995c0.184,0,0.357,0.025,0.521,0.074c0.165,0.047,0.303,0.127,0.411,0.237c0.221,0.183,0.33,0.452,0.33,0.806
							v3.567h0.53c0.159,0,0.239,0.068,0.239,0.203v0.823C156.685,123.87,156.661,123.92,156.612,123.956z M150.444,119.343h-1.062
							v1.08h1.062V119.343z M150.444,121.649h-1.062v1.134h1.062V121.649z M152.511,112.791h-1.829v1.044h1.829V112.791z
							 M152.511,115.062h-1.829v1.005h1.829V115.062z M153.701,119.343h-1.043v1.08h1.043V119.343z M153.701,121.649h-1.043v1.134
							h1.043V121.649z"/>
					</g>
					<g>
						<g>
							<path fill="#FFFFFF" d="M114.679,124.135c-0.026,0-0.054-0.001-0.081-0.004l-3.198-0.383
								c-0.446-0.039-0.79-0.436-0.772-0.892l-0.205-2.85l0.004-0.041c0.044-0.478,0.46-0.829,0.944-0.784l3.876,0.355
								c0.477,0.044,0.829,0.468,0.785,0.944l-0.005,0.038l-0.487,2.851C115.489,123.807,115.123,124.135,114.679,124.135z
								 M111.628,122.764l2.935,0.351l0.442-2.59l-3.561-0.326L111.628,122.764z"/>
						</g>
						<g>
							<path fill="#FFFFFF" d="M115.042,123.804c-0.028,0-0.057-0.002-0.086-0.008c-0.272-0.047-0.457-0.306-0.41-0.581l0.487-2.856
								c0.043-0.293,0.338-0.853,0.872-1.21c0.358-0.238,0.956-0.47,1.771-0.217c0.265,0.084,0.412,0.365,0.329,0.63
								c-0.082,0.266-0.363,0.415-0.63,0.33c-0.317-0.099-0.603-0.084-0.843,0.043c-0.302,0.163-0.533,0.479-0.533,0.582v0.003
								l-0.476,2.865C115.481,123.631,115.283,123.804,115.042,123.804z"/>
						</g>
						<g>
							<circle fill="#FFFFFF" cx="112.1" cy="124.649" r="0.542"/>
						</g>
						<g>
							<circle fill="#FFFFFF" cx="114.111" cy="124.9" r="0.542"/>
						</g>
					</g>
				</g>
				
					<line fill="none" stroke="#FFFFFF" stroke-width="0.9321" stroke-miterlimit="10" x1="64.544" y1="149.5" x2="198.761" y2="149.5"/>
				<g>
					<circle fill="none" stroke="#F65536" stroke-width="1.8641" stroke-miterlimit="10" cx="221.657" cy="148.14" r="3.816"/>
					
						<line fill="none" stroke="#F65536" stroke-width="1.8641" stroke-linecap="round" stroke-miterlimit="10" x1="224.522" y1="151.005" x2="226.952" y2="153.437"/>
				</g>
				<g>
					
						<line fill="none" stroke="#FFFFFF" stroke-width="1.3981" stroke-linecap="round" stroke-miterlimit="10" x1="34.234" y1="95.378" x2="45.041" y2="95.378"/>
					
						<line fill="none" stroke="#FFFFFF" stroke-width="1.3981" stroke-linecap="round" stroke-miterlimit="10" x1="34.234" y1="99.261" x2="45.041" y2="99.261"/>
					
						<line fill="none" stroke="#FFFFFF" stroke-width="1.3981" stroke-linecap="round" stroke-miterlimit="10" x1="34.234" y1="103.145" x2="45.041" y2="103.145"/>
				</g>
				
					<line fill="none" stroke="#F65536" stroke-width="0.9321" stroke-miterlimit="10" x1="28.612" y1="157.419" x2="234.694" y2="157.419"/>
				
					<text transform="matrix(1 0 0 1 36.2456 172.8945)" fill="#F65536" font-family="'MicrosoftJhengHeiRegular'" font-size="9.3206">快閃活動</text>
				<text transform="matrix(1 0 0 1 36.2456 152.04)" fill="#B3C9E3" font-family="'MicrosoftJhengHeiRegular'" font-size="9.3206">您想要找...</text>
				
					<text transform="matrix(1 0 0 1 88.1304 172.8945)" fill="#F65536" font-family="'MicrosoftJhengHeiRegular'" font-size="9.3206">商品直播</text>
				
					<text transform="matrix(1 0 0 1 138.9497 172.8945)" fill="#F65536" font-family="'MicrosoftJhengHeiRegular'" font-size="9.3206">本月最夯</text>
				
					<text transform="matrix(1 0 0 1 188.3491 172.8945)" fill="#F65536" font-family="'MicrosoftJhengHeiRegular'" font-size="9.3206">網友推薦</text>
				<polygon fill="#F65536" points="154.609,157.419 161.228,157.419 157.918,160.816 				"/>
				<g>
					<g>
						<g>
							<circle fill-rule="evenodd" clip-rule="evenodd" fill="#FFFFFF" cx="227.524" cy="93.217" r="1.22"/>
						</g>
						<g>
							<circle fill-rule="evenodd" clip-rule="evenodd" fill="#FFFFFF" cx="227.524" cy="97.09" r="1.22"/>
						</g>
						<g>
							<circle fill-rule="evenodd" clip-rule="evenodd" fill="#FFFFFF" cx="227.524" cy="100.965" r="1.22"/>
						</g>
					</g>
					<g>
						<path fill-rule="evenodd" clip-rule="evenodd" fill="#FFFFFF" d="M205.731,102.166c0-1.79,0-3.526,0-5.309
							c-0.31,0-0.603,0-0.913,0c0-0.551,0-1.057,0-1.591c0.3,0,0.586,0,0.879,0c0.033-0.338,0.053-0.645,0.094-0.95
							c0.183-1.371,1.159-2.265,2.546-2.31c0.362-0.011,0.726,0.045,1.087,0.074c0.187,0.012,0.269,0.1,0.25,0.303
							c-0.039,0.454-0.059,0.911-0.089,1.406c-0.517-0.059-1.06-0.227-1.448,0.268c-0.269,0.342-0.259,0.75-0.244,1.19
							c0.461,0,0.903,0,1.37,0c0,0.545,0,1.059,0,1.599c-0.442,0-0.867,0-1.326,0c-0.008,0.144-0.021,0.265-0.021,0.382
							c-0.002,1.53-0.008,3.06,0.004,4.59c0.002,0.268-0.063,0.363-0.345,0.353C206.971,102.151,206.37,102.166,205.731,102.166z"/>
					</g>
					<g>
						<g>
							<path fill="#FFFFFF" d="M184.807,99.959c-0.039,0-0.08-0.002-0.12-0.006l-4.777-0.571c-0.669-0.06-1.18-0.651-1.157-1.333
								l-0.304-4.257l0.006-0.063c0.064-0.712,0.686-1.239,1.41-1.172l5.791,0.531c0.712,0.068,1.237,0.7,1.173,1.411l-0.006,0.058
								l-0.729,4.258C186.016,99.468,185.47,99.959,184.807,99.959z M180.25,97.909l4.385,0.525l0.661-3.869l-5.319-0.487
								L180.25,97.909z"/>
						</g>
						<g>
							<path fill="#FFFFFF" d="M185.35,99.463c-0.042,0-0.085-0.003-0.129-0.01c-0.406-0.071-0.683-0.456-0.612-0.868l0.729-4.269
								c0.065-0.437,0.505-1.274,1.304-1.808c0.535-0.355,1.428-0.701,2.645-0.324c0.396,0.124,0.616,0.546,0.491,0.94
								c-0.121,0.398-0.543,0.619-0.939,0.494c-0.476-0.147-0.292-0.126-0.652,0.065c-0.452,0.242-0.186,0.715-0.186,0.87v0.003
								l-1.321,4.28C186.617,99.205,185.709,99.463,185.35,99.463z"/>
						</g>
						<g>
							<circle fill="#FFFFFF" cx="180.955" cy="100.728" r="0.81"/>
						</g>
						<g>
							<circle fill="#FFFFFF" cx="183.959" cy="101.103" r="0.81"/>
						</g>
					</g>
				</g>
			</g>
		</g>
	</g>
</g>
</svg>
