<?xml version="1.0" encoding="utf-8"?>
<!-- Generator: Adobe Illustrator 16.0.0, SVG Export Plug-In . SVG Version: 6.00 Build 0)  -->
<!DOCTYPE svg PUBLIC "-//W3C//DTD SVG 1.1//EN" "http://www.w3.org/Graphics/SVG/1.1/DTD/svg11.dtd">
<svg version="1.1" id="圖層_1" xmlns="http://www.w3.org/2000/svg" xmlns:xlink="http://www.w3.org/1999/xlink" x="0px" y="0px"
	 width="13.833px" height="12.666px" viewBox="0 0 13.833 12.666" enable-background="new 0 0 13.833 12.666" xml:space="preserve">
<g>
	<g>
		<g>
			<path fill="#DCDDDD" d="M216.738,24.717h-1.301c-0.059,0-0.112,0.021-0.168,0.033v-68.33c0-18.721-15.178-33.896-33.898-33.896
				H17.406c-18.721,0-33.896,15.176-33.896,33.896v27.104c-0.121-0.07-0.252-0.122-0.4-0.122h-1.203
				c-0.443,0-0.803,0.358-0.803,0.802V2.174c0,0.441,0.359,0.801,0.803,0.801h1.203c0.148,0,0.279-0.051,0.4-0.122v21.891
				c-0.045-0.008-0.086-0.026-0.135-0.026h-1.304c-0.44,0-0.801,0.358-0.801,0.801v34.543c0,0.441,0.36,0.801,0.801,0.801h1.304
				c0.049,0,0.09-0.019,0.135-0.026v7.831c-0.045-0.008-0.086-0.026-0.135-0.026h-1.304c-0.44,0-0.801,0.358-0.801,0.802v34.541
				c0,0.443,0.36,0.803,0.801,0.803h1.304c0.049,0,0.09-0.02,0.135-0.027v245.018c0,18.721,15.176,33.896,33.896,33.896h163.965
				c18.721,0,33.898-15.176,33.898-33.896V60.828c0.056,0.012,0.109,0.033,0.168,0.033h1.301c0.445,0,0.801-0.359,0.801-0.801
				V25.518C217.539,25.075,217.183,24.717,216.738,24.717z M211.269,349.775c0,16.485-13.412,29.896-29.898,29.896H17.406
				c-16.486,0-29.896-13.411-29.896-29.896V-43.58c0-16.484,13.41-29.896,29.896-29.896h163.965
				c16.486,0,29.898,13.412,29.898,29.896V349.775z"/>
			
				<rect x="-4.2" y="-19.872" fill="#FFFFFF" stroke="#F7F8F8" stroke-width="0.5" stroke-miterlimit="10" width="206.83" height="345.825"/>
		</g>
		<g>
			<g>
				<g>
					
						<rect x="-3.804" y="-19.809" fill="#FFFFFF" stroke="#9FA0A0" stroke-width="0.851" stroke-miterlimit="10" width="206.082" height="345.762"/>
				</g>
				<rect x="-3.804" y="-8.498" fill="#F65536" width="206.082" height="55.943"/>
				<g>
					
						<line fill="none" stroke="#FFFFFF" stroke-width="1.3981" stroke-linecap="round" stroke-miterlimit="10" x1="1.818" y1="2.629" x2="12.625" y2="2.629"/>
					
						<line fill="none" stroke="#FFFFFF" stroke-width="1.3981" stroke-linecap="round" stroke-miterlimit="10" x1="1.818" y1="6.512" x2="12.625" y2="6.512"/>
					
						<line fill="none" stroke="#FFFFFF" stroke-width="1.3981" stroke-linecap="round" stroke-miterlimit="10" x1="1.818" y1="10.396" x2="12.625" y2="10.396"/>
				</g>
			</g>
		</g>
	</g>
</g>
</svg>
