<?xml version="1.0" encoding="utf-8"?>
<!-- Generator: Adobe Illustrator 16.0.0, SVG Export Plug-In . SVG Version: 6.00 Build 0)  -->
<!DOCTYPE svg PUBLIC "-//W3C//DTD SVG 1.1//EN" "http://www.w3.org/Graphics/SVG/1.1/DTD/svg11.dtd">
<svg version="1.1" id="圖層_1" xmlns="http://www.w3.org/2000/svg" xmlns:xlink="http://www.w3.org/1999/xlink" x="0px" y="0px"
	 width="221.104px" height="67.333px" viewBox="0 0 221.104 67.333" enable-background="new 0 0 221.104 67.333"
	 xml:space="preserve">
<g>
	<g>
		<rect y="30.751" fill="#43494F" width="221.104" height="28.25"/>
	</g>
	<g>
		<path fill="#FFFFFF" d="M26.053,50.042H24.59l-5.523-8.553c-0.123-0.199-0.232-0.412-0.328-0.635h-0.041
			c0.037,0.219,0.055,0.691,0.055,1.422v7.766h-1.169v-10.59h1.545l5.373,8.463c0.273,0.438,0.417,0.68,0.431,0.725h0.027
			c-0.05-0.35-0.075-0.881-0.075-1.592v-7.596h1.169V50.042z"/>
		<path fill="#FFFFFF" d="M35.036,40.519H31.98v9.523h-1.169v-9.523h-3.049v-1.066h7.273V40.519z"/>
		<path fill="#FFFFFF" d="M42.562,50.042h-5.947v-1.02h2.406v-8.326l-2.468,0.746v-1.102l3.609-1.127v9.809h2.399V50.042z"/>
		<path fill="#FFFFFF" d="M44.708,48.749c0.597,0.334,1.219,0.5,1.866,0.5c0.962,0,1.714-0.393,2.256-1.18
			c0.542-0.785,0.813-1.904,0.813-3.354c-0.009,0.01-0.019,0.01-0.027,0c-0.456,0.922-1.249,1.381-2.379,1.381
			c-0.911,0-1.656-0.313-2.235-0.936c-0.579-0.625-0.868-1.41-0.868-2.359c0-1.006,0.309-1.846,0.927-2.518
			c0.617-0.674,1.434-1.01,2.45-1.01c1.062,0,1.875,0.416,2.44,1.248s0.848,2.027,0.848,3.586c0,1.922-0.37,3.422-1.111,4.498
			c-0.74,1.074-1.794,1.613-3.161,1.613c-0.706,0-1.313-0.119-1.818-0.355V48.749z M45.303,42.632c0,0.738,0.193,1.33,0.581,1.773
			c0.388,0.445,0.921,0.666,1.6,0.666c0.602,0,1.1-0.199,1.493-0.598c0.395-0.398,0.592-0.881,0.592-1.445
			c0-0.789-0.197-1.449-0.592-1.979c-0.394-0.531-0.919-0.797-1.575-0.797c-0.615,0-1.119,0.23-1.511,0.693
			S45.303,41.97,45.303,42.632z"/>
		<path fill="#FFFFFF" d="M53.821,48.374l-1.189,3.623h-0.8l0.868-3.623H53.821z"/>
		<path fill="#FFFFFF" d="M56.049,48.749c0.597,0.334,1.219,0.5,1.866,0.5c0.962,0,1.714-0.393,2.256-1.18
			c0.542-0.785,0.813-1.904,0.813-3.354c-0.009,0.01-0.019,0.01-0.027,0c-0.456,0.922-1.249,1.381-2.379,1.381
			c-0.911,0-1.656-0.313-2.235-0.936c-0.579-0.625-0.868-1.41-0.868-2.359c0-1.006,0.309-1.846,0.927-2.518
			c0.617-0.674,1.434-1.01,2.45-1.01c1.062,0,1.875,0.416,2.44,1.248s0.848,2.027,0.848,3.586c0,1.922-0.37,3.422-1.111,4.498
			c-0.74,1.074-1.794,1.613-3.161,1.613c-0.706,0-1.313-0.119-1.818-0.355V48.749z M56.644,42.632c0,0.738,0.193,1.33,0.581,1.773
			c0.388,0.445,0.921,0.666,1.6,0.666c0.602,0,1.1-0.199,1.493-0.598c0.395-0.398,0.592-0.881,0.592-1.445
			c0-0.789-0.197-1.449-0.592-1.979c-0.394-0.531-0.919-0.797-1.575-0.797c-0.615,0-1.119,0.23-1.511,0.693
			S56.644,41.97,56.644,42.632z"/>
		<path fill="#FFFFFF" d="M63.528,44.962c0-1.867,0.305-3.283,0.912-4.244c0.609-0.963,1.487-1.443,2.636-1.443
			c2.201,0,3.302,1.811,3.302,5.428c0,1.76-0.302,3.119-0.906,4.078c-0.604,0.959-1.481,1.439-2.635,1.439
			c-1.075,0-1.896-0.461-2.461-1.381C63.81,47.917,63.528,46.626,63.528,44.962z M64.69,44.901c0,2.898,0.757,4.348,2.27,4.348
			c1.499,0,2.249-1.471,2.249-4.41c0-3.057-0.731-4.586-2.194-4.586C65.464,40.253,64.69,41.802,64.69,44.901z"/>
		<path fill="#FFFFFF" d="M71.642,44.962c0-1.867,0.305-3.283,0.912-4.244c0.609-0.963,1.487-1.443,2.636-1.443
			c2.201,0,3.302,1.811,3.302,5.428c0,1.76-0.302,3.119-0.906,4.078c-0.604,0.959-1.481,1.439-2.635,1.439
			c-1.075,0-1.896-0.461-2.461-1.381C71.924,47.917,71.642,46.626,71.642,44.962z M72.804,44.901c0,2.898,0.757,4.348,2.27,4.348
			c1.499,0,2.249-1.471,2.249-4.41c0-3.057-0.731-4.586-2.194-4.586C73.579,40.253,72.804,41.802,72.804,44.901z"/>
	</g>
	<g>
		<g>
			<g>
				<circle fill="#F65536" cx="182.794" cy="27.751" r="20.666"/>
			</g>
		</g>
		<g>
			<g>
				<g>
					<path fill="#FFFFFF" d="M189.85,34.272c-0.058,0-0.117-0.002-0.178-0.009l-7.025-0.84c-0.982-0.088-1.736-0.958-1.701-1.96
						l-0.447-6.262l0.008-0.09c0.096-1.049,1.01-1.824,2.074-1.725l8.518,0.782c1.047,0.098,1.82,1.028,1.725,2.074l-0.01,0.084
						l-1.07,6.264C191.628,33.552,190.824,34.272,189.85,34.272z M183.146,31.26l6.449,0.771l0.973-5.69l-7.824-0.718L183.146,31.26
						z"/>
				</g>
			</g>
			<g>
				<g>
					<path fill="#FFFFFF" d="M190.648,33.544c-0.063,0-0.124-0.004-0.188-0.016c-0.6-0.103-1.006-0.672-0.901-1.276l1.071-6.278
						c0.095-0.642,0.742-1.874,1.917-2.658c0.787-0.523,2.1-1.031,3.89-0.476c0.582,0.182,0.906,0.802,0.724,1.384
						c-0.18,0.584-0.8,0.91-1.384,0.727c-0.698-0.219-2.111-0.187-2.64,0.094c-0.664,0.357-1.955,1.052-1.955,1.28v0.004
						l-0.261,6.296C190.829,33.164,191.176,33.544,190.648,33.544z"/>
				</g>
			</g>
			<g>
				<g>
					<circle fill="#FFFFFF" cx="184.183" cy="35.402" r="1.191"/>
				</g>
			</g>
			<g>
				<g>
					<circle fill="#FFFFFF" cx="188.603" cy="35.954" r="1.191"/>
				</g>
			</g>
		</g>
		<g>
			<g>
				<path fill="#FFFFFF" d="M177.848,29.835h-7.833c-0.552,0-1-0.447-1-1s0.448-1,1-1h7.833c0.552,0,1,0.447,1,1
					S178.4,29.835,177.848,29.835z"/>
			</g>
			<g>
				<path fill="#FFFFFF" d="M173.932,33.751c-0.552,0-1-0.447-1-1v-7.832c0-0.553,0.448-1,1-1s1,0.447,1,1v7.832
					C174.932,33.304,174.484,33.751,173.932,33.751z"/>
			</g>
		</g>
	</g>
</g>
</svg>
