<?xml version="1.0" encoding="utf-8"?>
<!-- Generator: Adobe Illustrator 16.0.0, SVG Export Plug-In . SVG Version: 6.00 Build 0)  -->
<!DOCTYPE svg PUBLIC "-//W3C//DTD SVG 1.1//EN" "http://www.w3.org/Graphics/SVG/1.1/DTD/svg11.dtd">
<svg version="1.1" id="圖層_1" xmlns="http://www.w3.org/2000/svg" xmlns:xlink="http://www.w3.org/1999/xlink" x="0px" y="0px"
	 width="103.833px" height="42.917px" viewBox="0 0 103.833 42.917" enable-background="new 0 0 103.833 42.917"
	 xml:space="preserve">
<g>
	<g>
		<g>
			<circle fill="#F65536" cx="81.761" cy="22.259" r="19.262"/>
		</g>
		<g>
			<g>
				<path fill="#FFFFFF" d="M85.412,28.667c-0.058,0-0.119-0.003-0.179-0.01l-7.074-0.845c-0.989-0.089-1.749-0.965-1.713-1.974
					l-0.45-6.306l0.008-0.09c0.097-1.056,1.017-1.837,2.088-1.736l8.577,0.788c1.054,0.098,1.832,1.035,1.736,2.088l-0.01,0.086
					l-1.078,6.305C87.202,27.941,86.393,28.667,85.412,28.667z M78.662,25.633l6.494,0.776l0.979-5.729l-7.878-0.723L78.662,25.633z
					"/>
			</g>
			<g>
				<path fill="#FFFFFF" d="M86.215,27.933c-0.063,0-0.125-0.004-0.189-0.016c-0.604-0.103-1.013-0.675-0.908-1.284l1.078-6.322
					c0.096-0.646,0.748-1.886,1.931-2.677c0.792-0.525,2.114-1.037,3.917-0.478c0.585,0.184,0.911,0.808,0.728,1.393
					c-0.181,0.588-0.806,0.916-1.394,0.731c-0.703-0.221-1.919-0.187-2.45,0.095c-0.668,0.359-1.762,1.06-1.762,1.288v0.006
					l-0.47,6.338C86.604,27.551,86.747,27.933,86.215,27.933z"/>
			</g>
			<g>
				<circle fill="#FFFFFF" cx="79.706" cy="29.805" r="1.199"/>
			</g>
			<g>
				<circle fill="#FFFFFF" cx="84.156" cy="30.36" r="1.199"/>
			</g>
		</g>
	</g>
	<g>
		<g>
			<g>
				<circle fill="#F65536" cx="22.668" cy="22.26" r="19.262"/>
			</g>
		</g>
		<g>
			<g>
				<path fill="#FFFFFF" d="M22.651,30.419c-0.123,0-0.246-0.019-0.365-0.053c-3.062-0.901-5.405-2.708-6.597-5.088
					c-0.83-1.656-0.996-3.436-0.458-4.883c0.654-1.766,2.141-2.822,3.977-2.822c1.299,0,2.54,0.538,3.443,1.409
					c0.904-0.871,2.146-1.409,3.445-1.409c1.834,0,3.321,1.057,3.977,2.823c0.537,1.446,0.371,3.226-0.46,4.882
					c-1.19,2.38-3.533,4.187-6.596,5.088C22.898,30.4,22.774,30.419,22.651,30.419z M19.208,20.167
					c-0.515,0-1.199,0.197-1.546,1.132c-0.283,0.766-0.154,1.818,0.346,2.817c0.482,0.963,1.719,2.682,4.644,3.647
					c2.926-0.966,4.162-2.685,4.645-3.647c0.499-0.999,0.629-2.052,0.346-2.817c-0.278-0.751-0.798-1.132-1.545-1.132
					c-0.841,0-1.898,0.551-2.202,1.569c-0.162,0.551-0.669,0.929-1.243,0.929c-0.572,0-1.08-0.378-1.243-0.929
					C21.105,20.718,20.047,20.167,19.208,20.167z"/>
			</g>
		</g>
	</g>
	<text transform="matrix(1 0 0 1 44.7085 39.3584)" fill="#3C6DD5" font-family="'ComicSansMS-Bold'" font-size="10.5416">VS</text>
</g>
</svg>
