<?xml version="1.0" encoding="utf-8"?>
<!-- Generator: Adobe Illustrator 16.0.0, SVG Export Plug-In . SVG Version: 6.00 Build 0)  -->
<!DOCTYPE svg PUBLIC "-//W3C//DTD SVG 1.1//EN" "http://www.w3.org/Graphics/SVG/1.1/DTD/svg11.dtd">
<svg version="1.1" id="圖層_1" xmlns="http://www.w3.org/2000/svg" xmlns:xlink="http://www.w3.org/1999/xlink" x="0px" y="0px"
	 width="252.5px" height="52px" viewBox="0 0 252.5 52" enable-background="new 0 0 252.5 52" xml:space="preserve">
<g>
	<g>
		<g>
			<path fill="#DCDDDD" d="M242.154-16.866h-1.301c-0.059,0-0.112,0.021-0.168,0.033v-68.33c0-18.721-15.178-33.896-33.898-33.896
				H42.822c-18.721,0-33.896,15.176-33.896,33.896v27.104c-0.121-0.07-0.252-0.122-0.4-0.122H7.322
				c-0.443,0-0.803,0.358-0.803,0.802v17.971c0,0.441,0.359,0.801,0.803,0.801h1.203c0.148,0,0.279-0.051,0.4-0.122v21.891
				c-0.045-0.008-0.086-0.026-0.135-0.026H7.487c-0.44,0-0.801,0.358-0.801,0.801v34.543c0,0.441,0.36,0.801,0.801,0.801h1.304
				c0.049,0,0.09-0.019,0.135-0.026v7.831c-0.045-0.008-0.086-0.026-0.135-0.026H7.487c-0.44,0-0.801,0.358-0.801,0.802v34.541
				c0,0.443,0.36,0.803,0.801,0.803h1.304c0.049,0,0.09-0.02,0.135-0.027v245.018c0,18.721,15.176,33.896,33.896,33.896h163.965
				c18.721,0,33.898-15.176,33.898-33.896V19.245c0.056,0.012,0.109,0.033,0.168,0.033h1.301c0.445,0,0.801-0.359,0.801-0.801
				v-34.543C242.955-16.508,242.6-16.866,242.154-16.866z M236.686,308.192c0,16.485-13.412,29.896-29.898,29.896H42.822
				c-16.486,0-29.896-13.411-29.896-29.896V-85.163c0-16.484,13.41-29.896,29.896-29.896h163.965
				c16.486,0,29.898,13.412,29.898,29.896V308.192z"/>
			<g>
			</g>
			
				<rect x="21.217" y="-61.455" fill="#FFFFFF" stroke="#F7F8F8" stroke-width="0.5" stroke-miterlimit="10" width="206.83" height="345.825"/>
		</g>
		<g>
			<g>
				<g>
					
						<rect x="21.612" y="-61.392" fill="#FFFFFF" stroke="#9FA0A0" stroke-width="0.851" stroke-miterlimit="10" width="206.082" height="345.762"/>
				</g>
				<rect x="21.612" y="-50.081" fill="#F65536" width="206.082" height="55.943"/>
				
					<line fill="none" stroke="#FFFFFF" stroke-width="0.9321" stroke-miterlimit="10" x1="57.545" y1="15.168" x2="191.762" y2="15.168"/>
				<g>
					<circle fill="none" stroke="#F65536" stroke-width="1.8641" stroke-miterlimit="10" cx="214.657" cy="13.808" r="3.816"/>
					
						<line fill="none" stroke="#F65536" stroke-width="1.8641" stroke-linecap="round" stroke-miterlimit="10" x1="217.522" y1="16.673" x2="219.952" y2="19.104"/>
				</g>
				
					<line fill="none" stroke="#F65536" stroke-width="0.9321" stroke-miterlimit="10" x1="21.612" y1="46.64" x2="227.694" y2="46.64"/>
				
					<line fill="none" stroke="#F65536" stroke-width="0.9321" stroke-miterlimit="10" x1="21.612" y1="23.087" x2="227.694" y2="23.087"/>
				
					<text transform="matrix(1 0 0 1 29.2461 38.5625)" fill="#F65536" font-family="'MicrosoftJhengHeiRegular'" font-size="9.3206">快閃活動</text>
				<text transform="matrix(1 0 0 1 29.2461 17.708)" fill="#B3C9E3" font-family="'MicrosoftJhengHeiRegular'" font-size="9.3206">您想要找...</text>
				
					<text transform="matrix(1 0 0 1 81.1309 38.5625)" fill="#F65536" font-family="'MicrosoftJhengHeiRegular'" font-size="9.3206">商品直播</text>
				
					<text transform="matrix(1 0 0 1 131.9502 38.5625)" fill="#F65536" font-family="'MicrosoftJhengHeiRegular'" font-size="9.3206">本月最夯</text>
				
					<text transform="matrix(1 0 0 1 181.3496 38.5625)" fill="#F65536" font-family="'MicrosoftJhengHeiRegular'" font-size="9.3206">網友推薦</text>
				<polygon fill="#F65536" points="147.609,23.087 154.229,23.087 150.919,26.484 				"/>
			</g>
		</g>
	</g>
</g>
</svg>
