<?xml version="1.0" encoding="utf-8"?>
<!-- Generator: Adobe Illustrator 16.0.0, SVG Export Plug-In . SVG Version: 6.00 Build 0)  -->
<!DOCTYPE svg PUBLIC "-//W3C//DTD SVG 1.1//EN" "http://www.w3.org/Graphics/SVG/1.1/DTD/svg11.dtd">
<svg version="1.1" id="圖層_1" xmlns="http://www.w3.org/2000/svg" xmlns:xlink="http://www.w3.org/1999/xlink" x="0px" y="0px"
	 width="238.416px" height="93.17px" viewBox="0 0 238.416 93.17" enable-background="new 0 0 238.416 93.17" xml:space="preserve">
<g>
	<g>
		<g>
			<path fill="#3C6DD5" d="M233.51,74.533c-0.045,0.09-0.094,0.191-0.139,0.283c0.014-0.199,0.076-0.48,0.141-0.807
				c-0.545,1.529-1.139,3.246-1.914,4.846c-0.771,1.598-1.678,3.076-2.459,4.254c-0.732,0.674-1.297,1.383-1.256,1.596
				c0.064,0.236,0.771-0.102,1.555-0.811c0.193-0.135,0.385-0.326,0.525-0.424c1.295-0.848,2.625-2.252,3.734-4.066
				c-0.229,0.342-0.482,0.686-0.754,0.996c0.371-0.484,0.668-1.01,0.967-1.621l-0.209,0.162c0.303-0.436,0.561-0.949,0.777-1.498
				c0.238-0.543,0.42-1.119,0.533-1.693c0.283-1.135,0.264-2.238,0.156-2.959c-0.158-0.729-0.393-0.957-0.627-0.773
				c-0.238,0.186-0.453,0.777-0.758,1.703c0,0-0.066,0.203-0.133,0.408C233.584,74.332,233.51,74.533,233.51,74.533z"/>
		</g>
		<g>
			<path fill="#3C6DD5" d="M231.284,77.408c0.553-0.912,1.016-2.042,1.398-3.028l0.121-0.38h-0.338l0.016,0.22
				c0.049,0.992-0.277,2.715-0.928,4.082l-0.197,0.554c-0.094,0.242-0.129,0.445-0.096,0.527c0.057,0.184,0.473-0.118,0.801-0.77
				l0.389-0.736c0.26-0.441,0.475-0.988,0.705-1.555c0.209-0.572,0.348-1.193,0.477-1.783c0.086-0.598,0.121-1.176,0.119-1.67
				c-0.029-0.496-0.121-0.911-0.244-1.194c-0.117-0.252-0.289-0.038-0.441,0.007c-0.234-0.078-0.387,0.633-0.561,1.561
				c-0.127,0.936-0.197,1.758-0.002,1.883c-0.057,0.154-0.115,0.313-0.17,0.467c0.008-0.135,0.016-0.262,0.023-0.395
				c0.135,0.318-0.102,1.174-0.254,1.832c0.002,0-0.066,0.242-0.158,0.475c-0.096,0.23-0.191,0.463-0.191,0.463l0.709-0.313
				l0.131-0.527c-0.035,0.031-0.092,0.094-0.092,0.086c0.248-0.996,0.375-1.943,0.512-3.025l0.021-1.371
				c-0.063-0.375-0.199-0.348-0.336,0.031l-0.193,0.566c0.035-0.088,0.066-0.166,0.102-0.254c-0.262,1.33-0.75,2.674-1.34,3.848
				c-0.098,0.184-0.195,0.416-0.193,0.537C231.079,77.65,231.17,77.593,231.284,77.408z"/>
		</g>
		<g>
			<g>
				<path fill="#3C6DD5" d="M232.458,72.849c0.078-0.209,0.119-0.414,0.129-0.723c-0.018-0.076-0.027-0.113-0.033-0.135
					c-0.029,0.113-0.07,0.266-0.109,0.414C232.372,72.703,232.379,72.859,232.458,72.849z"/>
			</g>
			<g>
				<path fill="#3C6DD5" d="M232.553,71.992c0.027-0.104,0.047-0.174,0.047-0.174c-0.02,0.041-0.037,0.078-0.055,0.115
					c0.002,0.033,0.002,0.035,0.002,0.035S232.547,71.97,232.553,71.992z"/>
			</g>
			<g>
				<path fill="#3C6DD5" d="M203.831,60.98c2.734-3.416,6.844-5.688,11.172-6.131c0.145-0.02,0.264-0.059,0.268-0.092
					c0.004-0.029-0.111-0.041-0.246-0.021c-4.361,0.436-8.486,2.701-11.25,6.131c-0.092,0.117-0.146,0.229-0.135,0.264
					C203.661,61.154,203.745,61.087,203.831,60.98z"/>
			</g>
			<g>
				<path fill="#3C6DD5" d="M228.723,64.554c-0.066-0.063-0.092-0.043-0.066,0.043c0.025,0.072,0.08,0.193,0.137,0.258
					c0.049,0.055,0.082,0.033,0.066-0.043C228.844,64.722,228.78,64.603,228.723,64.554z"/>
			</g>
			<g>
				<path fill="#3C6DD5" d="M226.243,65.214c-0.232-0.336-0.539-0.592-0.799-0.818c-0.049-0.043-0.088-0.102-0.109-0.152
					c-0.027,0.053-0.102,0.016-0.219-0.074c-2.123-1.887-4.945-3.08-7.73-2.951c-0.02,0.039-0.059,0.078-0.121,0.111
					c-0.193,0.1-0.561,0.189-0.947,0.188l-0.295-0.02c-1.182,0.047-2.352,0.324-3.453,0.791c-0.201,0.146-0.42,0.33-0.674,0.502
					c-0.783,0.676-1.473,1.43-2.025,2.281c0.07-0.025,0.127-0.025,0.162,0.006c0.066,0.084-0.027,0.301-0.178,0.516l-0.232,0.322
					c0.252-0.289,0.486-0.584,0.779-0.828c0.037-0.039,0.076-0.072,0.113-0.1c0.271-0.311,0.6-0.572,0.91-0.857
					c2.795-2.379,6.865-3.125,10.439-1.625c0.061,0.018,0.145,0.072,0.178,0.123c0.018,0.041-0.006,0.068-0.072,0.045
					c-1.17-0.377-2.297-0.441-3.375-0.35c-1.08,0.088-2.145,0.352-3.209,0.74c-1.271,0.471-2.35,1.24-3.215,2.148
					c-0.832,0.947-1.455,2.035-1.768,3.189c-0.441,1.152-0.566,2.404-0.293,3.574c0.246,1.158,0.789,2.219,1.607,3.104
					c1.094,1.201,2.51,1.951,3.965,2.215c1.488,0.229,3.023-0.01,4.318-0.734c0.916-0.604,1.91-1.066,2.537-0.801
					c0.365,0.174,0.455,0.639,0.201,1.26c0.098-0.074,0.174-0.166,0.258-0.254l0.449-0.373c0.188-0.199,0.389-0.367,0.592-0.504
					c0.189-0.145,0.361-0.268,0.541-0.344c0,0,0.465-0.23,0.453-0.242c0.715-0.273,1.523-1.064,2.154-1.479L227.35,74l0.09-0.115
					c0.254-0.391,0.525-0.65,0.732-0.723l0.232,0.09c0.27,0.154,0.465,0.441,0.602,0.898c0.104,0.012,0.191,0.086,0.256,0.215
					c0.332-0.279,0.635-0.402,0.842-0.043c0.127-0.203,0.223-0.145,0.213,0.139c-0.004,0.1-0.021,0.215-0.047,0.33l0.002-0.004
					c0.094-0.107,0.121-0.139,0.234-0.291c0.08-0.219,0.129-0.35,0.129-0.35c0.188-0.602,0.152-0.609,0.287-1.139
					c0.166-0.451,0.295-0.736,0.295-0.736c0.465-0.496,0.465-0.51,0.648-0.412l0.049,0.109c0.086-0.434,0.092-0.465,0.115-0.588
					c0.041-0.125,0.084-0.211,0.084-0.211c0.102-0.018,0.102-0.018,0.141-0.096c0.041-0.023,0.078-0.018,0.078-0.018
					c0.102,0.252,0.102,0.254,0.135,0.262c0.027,0.061,0.047,0.145,0.047,0.145c0.02,0.301,0.027,0.42,0.031,0.471
					c-0.297,0.619-0.299,0.621-0.299,0.621c0.082,0.146,0.078,0.146,0.078,0.146c-0.143,0.133-0.143,0.133-0.143,0.133
					c0.123-0.07,0.123-0.07,0.123-0.07c-0.115,0.311-0.115,0.311-0.115,0.311c0.15-0.352,0.15-0.352,0.15-0.352
					c-0.15,0.752-0.152,0.75-0.195,1.053c-0.053,0.316-0.098,0.582-0.102,0.615c0.039-0.02,0.064-0.016,0.064-0.016
					c-0.254,0.783-0.223,0.795-0.518,1.535c-0.049,0.063-0.092,0.109-0.133,0.152c0.004,0.082-0.031,0.23-0.094,0.375L231.2,76.82
					l-0.016,0.09c0.004,0.002,0.008,0.002,0.008,0.002c-0.027,0.143-0.061,0.236-0.092,0.344c-0.02,0.068-0.021,0.072-0.021,0.072
					l-0.002,0.002c-0.084,0.23-0.15,0.584-0.496,1.475c-0.141,0.209-0.275,0.398-0.408,0.576l0.148-0.15
					c0.1-0.094,0.119,0.061,0.164,0.002c1.109-1.418,1.941-3.266,2.41-5.18c0.043-0.352,0.15-0.67,0.236-0.711
					c0.086-0.035,0.121,0.227,0.072,0.594c-0.086,2.047-0.801,4.33-2.076,6.279c-1.262,1.959-3.053,3.557-4.904,4.547
					c-0.48,0.27-0.963,0.539-1.449,0.793c-0.506,0.221-1.008,0.451-1.521,0.65l0.166-0.014c-0.279,0.078-0.553,0.154-0.83,0.232
					l-0.088,0.029l0.674-0.061c0.148-0.033,0.295-0.072,0.438-0.127c2.383-0.986,4.484-2.207,6.316-4.029
					c0.5-0.48,0.912-0.98,1.355-1.451c0.398-0.502,0.805-1,1.174-1.561c0.162-0.305,0.322-0.494,0.371-0.424
					c0.045,0.066-0.053,0.383-0.213,0.684c-1.014,2.031-2.596,3.959-4.449,5.338c-1.844,1.395-3.924,2.242-5.689,2.496
					c-0.754,0.268-1.529,0.379-2.164,0.422l-0.035,0.004c0.174,0.025,0.334,0.025,0.508,0.035c-0.588,0.119-0.93,0.01-1.467,0.051
					l0.229,0.17c-1.465,0.184-2.992,0.158-4.473-0.018c-1.475-0.229-2.912-0.605-4.1-1.248c-0.096-0.043-0.189-0.084-0.283-0.125
					c-0.563-0.139-1.107-0.352-1.684-0.568c-0.561-0.246-1.131-0.547-1.713-0.92c0.371,0.285,0.76,0.529,1.15,0.795
					c-0.92-0.426-1.783-0.963-2.617-1.664c-1.113-0.963-2.119-2.18-2.781-3.389c-0.346-0.592-0.572-1.205-0.775-1.729
					c-0.17-0.543-0.262-1.033-0.303-1.42c-1.152-2.469-1.613-5.244-1.453-7.955c0.141-2.73,1.059-5.416,2.479-7.762
					c0.137-0.25,0.328-0.428,0.406-0.434c0.07,0.014-0.006,0.186-0.145,0.43c-2.004,3.354-2.764,7.404-2.16,11.199
					c-0.33-3.197,0.314-6.482,1.83-9.371c0.16-0.383,0.395-0.73,0.598-1.098c0.199-0.365,0.445-0.695,0.717-1.004
					c2.479-3.336,6.068-5.549,10.264-6.365c3.578-0.676,6.967-0.215,10.355,1.373c2.354,1.17,4.359,2.834,5.898,4.875
					c1.527,2.049,2.559,4.506,2.928,7.16c0.146,0.703,0.023,1.371-0.113,1.459c-0.158,0.09-0.293-0.406-0.396-1.088
					c-0.855-5.377-4.492-9.961-9.236-12.064c-2.363-1.074-4.984-1.574-7.568-1.4c-2.586,0.143-5.172,0.914-7.436,2.307
					c-0.99,0.576-1.871,1.291-2.693,2.053c0.025,0.004,0.049,0.01,0.064,0.025c0.059,0.061,0.031,0.184-0.047,0.354
					c0.918-0.846,1.904-1.641,3.025-2.225c2.891-1.939,6.635-2.92,10.369-2.141c2.568,0.502,4.666,1.756,6.414,3.297
					c2.408,1.736,4.301,4.221,5.326,7.115c0.057,0.111,0.066,0.242,0.051,0.291c-0.018,0.051-0.063-0.004-0.104-0.119
					c-0.795-1.947-1.979-3.74-3.463-5.221c0.148,0.309,0.182,0.531,0.059,0.598c-0.125,0.07-0.387-0.033-0.703-0.248
					c0.313,0.328,0.592,0.682,0.852,1.053c0.162,0.227,0.248,0.434,0.186,0.465c-0.066,0.039-0.24-0.105-0.395-0.314
					c-1.07-1.455-2.428-2.695-3.977-3.625c-1.896-1.059-4.15-1.621-6.291-1.674c0.293,0.107,0.472,0.232,0.472,0.367v0.002
					l1.071,0.135c2.934,0.326,5.93,1.732,8.012,4.059c2.1,2.291,3.409,5.428,3.399,8.605c0.006,0.123,0,0.227-0.034,0.229
					c-0.031,0.002-0.123-0.094-0.125-0.203c-0.002-1.896-0.324-3.793-1.324-5.49v0.008c0,0.076,0.056,0.104-0.001,0.039
					c-0.051-0.057-0.084-0.189-0.1-0.264c-0.018-0.09,0.036-0.098,0.085-0.043c-1.588-3.143-4.495-5.494-7.719-6.408
					c2.943,0.992,5.525,3.111,6.994,5.852c0.225,0.262,0.388,0.561,0.579,0.854c0.047,0.082,0.083,0.201,0.073,0.246
					c-0.014,0.035-0.073-0.014-0.12-0.096l-0.15-0.244c0.258,0.529,0.292,1,0.124,1.055c-0.16,0.025-0.465-0.367-0.723-0.885
					c-0.725-1.375-1.689-2.609-2.838-3.635l-0.391-0.314c-0.145-0.09-0.299-0.16-0.447-0.24c1.852,1.49,3.223,3.531,3.898,5.742
					c0.07,0.186,0.084,0.359,0.027,0.381c-0.055,0.023-0.158-0.109-0.227-0.293c-1.508-3.73-4.986-6.465-8.813-7.166
					c-1.305-0.004-2.572,0.221-3.746,0.621c0.152-0.018,0.305-0.047,0.461-0.045c1.963-0.141,3.834-0.006,5.609,0.637
					c1.779,0.602,3.453,1.709,4.715,3.359c0.068,0.078,0.098,0.162,0.078,0.193c-0.02,0.025-0.08-0.018-0.145-0.1
					c-1.25-1.57-2.811-2.617-4.588-3.273c-1.471-0.555-2.955-0.758-4.357-0.615c2.824,0.027,5.674,1.01,7.766,3.154
					c0.098,0.088,0.176,0.193,0.207,0.273c0.018-0.004,0.045,0.008,0.076,0.033c0.275,0.252,0.598,0.525,0.854,0.859
					c0.055,0.063,0.096,0.156,0.09,0.209C226.354,65.308,226.303,65.281,226.243,65.214z M225.577,82.701
					c0.039-0.012,0.072-0.021,0.102-0.031c-0.098,0.049-0.201,0.102-0.316,0.16c0,0,0.002,0.01-0.529,0.078
					C224.833,82.908,225.202,82.812,225.577,82.701z M228.817,77.726l-0.002,0.004c0.148-0.092,0.252-0.164,0.252-0.164
					C228.969,77.636,228.881,77.683,228.817,77.726z M201.29,70.087c-0.141,2.262,0.145,4.531,0.822,6.713
					c-0.203-0.52-0.42-1.033-0.555-1.574C201.161,73.535,201.073,71.787,201.29,70.087z M229.211,80.396
					c-0.441,0.402-0.877,0.623-1.273,0.826c-0.225,0.303-0.494,0.588-0.801,0.844c-0.393,0.361-0.801,0.693-1.236,0.98
					c-0.418,0.311-0.861,0.572-1.314,0.811c0.158,0.004-0.057,0.123-0.16,0.195l-0.32,0.215c0.979-0.488,1.941-1.043,2.836-1.738
					C227.752,81.91,228.551,81.126,229.211,80.396z M231.885,73.193c0.016-0.029,0.029-0.057,0.045-0.088c0,0,0,0,0.096,0.223
					C232.026,73.328,231.967,73.271,231.885,73.193z M231.719,72.847c-0.014,0.049-0.027,0.1-0.041,0.15
					C231.639,72.937,231.665,72.89,231.719,72.847z M231.327,74.216c0.053-0.074,0.086-0.119,0.115-0.18
					C231.327,74.216,231.327,74.216,231.327,74.216z M227.467,74.13c0,0,0.127,0.146,0.254,0.293c0.115,0.15,0.23,0.299,0.23,0.299
					s-0.105-0.156-0.211-0.313c-0.119-0.154-0.24-0.307-0.24-0.307L227.467,74.13z"/>
			</g>
		</g>
	</g>
	<g>
		<path fill="#F65536" d="M146.516,35.871c-0.195,0.172-0.414,0.256-0.658,0.256H82.932c-0.244,0-0.449-0.072-0.619-0.219
			c-0.172-0.146-0.256-0.316-0.256-0.512v-3.285c0-0.242,0.072-0.461,0.219-0.656c0.146-0.193,0.389-0.291,0.73-0.291h26.498v-4.016
			H86.875c-0.244,0-0.463-0.072-0.658-0.219s-0.291-0.316-0.291-0.512v-3.285c0-0.242,0.084-0.461,0.256-0.656
			c0.17-0.193,0.424-0.293,0.766-0.293h22.557v-3.648h-24.82c-0.244,0-0.449-0.074-0.619-0.221c-0.172-0.145-0.256-0.314-0.256-0.51
			v-3.285c0-0.244,0.072-0.463,0.219-0.658c0.146-0.193,0.389-0.291,0.73-0.291h24.746V9.994c0-0.244,0.074-0.463,0.219-0.658
			c0.146-0.193,0.316-0.291,0.512-0.291h7.811c0.193,0,0.377,0.098,0.547,0.291c0.172,0.195,0.256,0.414,0.256,0.658v3.576h25.113
			c0.631,0,0.949,0.268,0.949,0.803v3.066c0,0.391-0.1,0.67-0.293,0.84c-0.195,0.17-0.414,0.256-0.656,0.256h-25.113v3.648h22.922
			c0.633,0,0.949,0.27,0.949,0.803v3.066c0,0.391-0.098,0.67-0.291,0.84c-0.195,0.172-0.414,0.256-0.658,0.256h-22.922v4.016h27.01
			c0.633,0,0.949,0.268,0.949,0.803v3.066C146.807,35.421,146.709,35.701,146.516,35.871z M140.458,71.605
			c-0.975,0.973-2.289,1.459-3.943,1.459h-14.453c-0.244,0-0.5-0.049-0.768-0.145c-0.268-0.1-0.449-0.219-0.547-0.365l-1.824-3.943
			c-0.1-0.145-0.1-0.291,0-0.438c0.096-0.146,0.266-0.219,0.51-0.219h13.141v-5.328H96.366v9.416c0,0.682-0.318,1.021-0.949,1.021
			h-7.301c-0.291,0-0.547-0.084-0.766-0.254c-0.221-0.172-0.33-0.379-0.33-0.621V44.158c0-1.363,0.463-2.434,1.389-3.213
			c0.389-0.389,0.887-0.693,1.496-0.912c0.607-0.219,1.301-0.328,2.08-0.328h44.969c1.652,0,2.92,0.486,3.795,1.459
			c0.777,0.828,1.168,1.996,1.168,3.504v22.922C141.917,69.294,141.43,70.63,140.458,71.605z M132.573,44.742H96.366v4.014h36.207
			V44.742z M132.573,53.72H96.366v3.941h36.207V53.72z"/>
	</g>
	<g>
		<g>
			<path fill="#F65536" d="M74.086,71.896c-0.439,0.439-0.938,0.779-1.498,1.023c-0.559,0.242-1.252,0.365-2.08,0.365H57.514
				c-0.535,0-0.924-0.172-1.168-0.512l-2.189-4.016c-0.098-0.193-0.063-0.438,0.109-0.73c0.17-0.291,0.377-0.438,0.621-0.438h11.387
				V33.207h-41.9v38.91c0,0.242-0.1,0.473-0.293,0.693c-0.195,0.219-0.414,0.328-0.656,0.328H16.27c-0.244,0-0.488-0.109-0.73-0.328
				c-0.244-0.221-0.365-0.451-0.365-0.693V32.476c0-1.41,0.486-2.555,1.461-3.43c1.168-1.07,2.578-1.607,4.234-1.607h20.146V9.994
				c0-0.244,0.098-0.451,0.293-0.621c0.193-0.17,0.389-0.256,0.584-0.256h7.373c0.242,0,0.461,0.086,0.656,0.256
				c0.193,0.17,0.293,0.377,0.293,0.621v17.445h19.563c1.654,0,3.018,0.537,4.09,1.607c1.068,1.07,1.605,2.408,1.605,4.014v35.332
				C75.473,69.804,75.01,70.972,74.086,71.896z M35.979,24.228c-0.098,0.195-0.268,0.291-0.51,0.291H26.27
				c-0.486,0-0.875-0.17-1.168-0.51L15.54,11.306c-0.098-0.096-0.061-0.254,0.109-0.475c0.17-0.219,0.377-0.328,0.621-0.328h8.979
				c0.193,0,0.402,0.037,0.621,0.109c0.219,0.074,0.377,0.184,0.475,0.328l9.635,12.703C36.077,23.839,36.077,24.035,35.979,24.228z
				 M65.983,24.009c-0.293,0.34-0.682,0.51-1.168,0.51h-9.197c-0.244,0-0.414-0.096-0.512-0.291c-0.098-0.193-0.098-0.389,0-0.584
				l9.637-12.703c0.242-0.291,0.607-0.438,1.094-0.438h8.979c0.244,0,0.463,0.109,0.658,0.328c0.193,0.221,0.242,0.379,0.146,0.475
				L65.983,24.009z"/>
		</g>
	</g>
	<g>
		<path fill="#F65536" d="M160.202,72.679c-0.098,0.291-0.389,0.438-0.873,0.438h-7.061c-0.242,0-0.412-0.086-0.51-0.254
			c-0.098-0.172-0.098-0.354,0-0.547l3.494-11.5c0.098-0.291,0.314-0.533,0.654-0.729c0.34-0.193,0.703-0.291,1.092-0.291h5.824
			c0.338,0,0.605,0.098,0.801,0.291c0.193,0.195,0.242,0.486,0.145,0.875L160.202,72.679z M173.522,56.304
			c-0.34,0.34-0.717,0.607-1.129,0.801s-0.934,0.291-1.564,0.291h-13.756c-0.826,0-1.602-0.242-2.33-0.729
			c-0.873-0.631-1.311-1.576-1.311-2.838V13.871c0-1.02,0.389-1.918,1.166-2.693c0.775-0.873,1.746-1.311,2.91-1.311h12.957
			c1.211,0,2.207,0.438,2.982,1.311c0.777,0.873,1.166,1.867,1.166,2.984v39.303C174.614,54.628,174.249,55.576,173.522,56.304z
			 M166.608,15.617h-5.168v8.006h5.168V15.617z M166.608,29.3h-5.168v8.152h5.168V29.3z M166.608,43.128h-5.168v8.518h5.168V43.128z
			 M177.67,72.863c-0.098,0.168-0.268,0.254-0.51,0.254H170.1c-0.484,0-0.752-0.146-0.801-0.438l-3.639-11.717
			c-0.098-0.389-0.049-0.68,0.146-0.875c0.193-0.193,0.459-0.291,0.801-0.291h5.822c0.387,0,0.752,0.098,1.092,0.291
			c0.338,0.195,0.557,0.438,0.654,0.729l3.494,11.5C177.766,72.509,177.766,72.691,177.67,72.863z M217.047,63.218
			c-0.195,0.145-0.414,0.219-0.656,0.219h-2.109v4.803c0,1.504-0.414,2.717-1.238,3.639c-0.729,0.826-1.771,1.238-3.129,1.238
			h-9.898c-0.391,0-0.682-0.219-0.875-0.654l-1.309-3.275c-0.1-0.291-0.1-0.559,0-0.801c0.096-0.242,0.338-0.365,0.727-0.365h6.914
			v-4.584h-17.176v8.66c0,0.242-0.086,0.475-0.256,0.691c-0.17,0.219-0.352,0.328-0.545,0.328h-7.133
			c-0.244,0-0.449-0.109-0.619-0.328c-0.17-0.217-0.254-0.449-0.254-0.691v-8.66h-2.33c-0.244,0-0.461-0.074-0.654-0.219
			c-0.195-0.146-0.291-0.314-0.291-0.51v-3.42c0-0.244,0.096-0.426,0.291-0.547c0.193-0.121,0.41-0.182,0.654-0.182h2.33V44.585
			c0-1.311,0.484-2.402,1.455-3.275c1.02-0.922,2.207-1.383,3.566-1.383h8.006v-3.203h-14.775c-0.242,0-0.461-0.061-0.654-0.182
			c-0.195-0.121-0.291-0.303-0.291-0.547v-3.42c0-0.242,0.096-0.424,0.291-0.547c0.193-0.119,0.412-0.182,0.654-0.182h6.406v-4.002
			h-3.932c-0.242,0-0.461-0.061-0.654-0.182c-0.195-0.121-0.291-0.303-0.291-0.547v-3.42c0-0.244,0.096-0.426,0.291-0.547
			c0.193-0.121,0.412-0.182,0.654-0.182h3.932V18.82h-5.533c-0.242,0-0.461-0.061-0.654-0.182c-0.195-0.121-0.291-0.303-0.291-0.547
			v-3.42c0-0.242,0.096-0.426,0.291-0.547c0.193-0.121,0.412-0.182,0.654-0.182h5.533V9.939c0-0.242,0.084-0.447,0.254-0.617
			s0.352-0.256,0.545-0.256h7.717c0.193,0,0.375,0.086,0.545,0.256s0.256,0.375,0.256,0.617v4.004h7.277v-3.857
			c0-0.242,0.084-0.461,0.256-0.654c0.168-0.193,0.352-0.293,0.545-0.293h7.715c0.193,0,0.375,0.1,0.547,0.293
			c0.17,0.193,0.254,0.412,0.254,0.654v3.857h5.096c0.629,0,0.945,0.268,0.945,0.801v3.275c0,0.242-0.098,0.436-0.291,0.582
			c-0.193,0.145-0.412,0.219-0.654,0.219h-5.096v4.148h3.713c0.629,0,0.945,0.268,0.945,0.801v3.275
			c0,0.242-0.098,0.436-0.291,0.582c-0.193,0.145-0.412,0.219-0.654,0.219h-3.713v4.002h6.115c0.629,0,0.945,0.268,0.945,0.801
			v3.275c0,0.244-0.098,0.438-0.291,0.582c-0.195,0.146-0.412,0.219-0.654,0.219h-14.85v3.203h7.934c0.729,0,1.42,0.098,2.074,0.291
			c0.656,0.193,1.201,0.51,1.639,0.945c0.873,0.729,1.311,1.797,1.311,3.203V58.56h2.109c0.631,0,0.947,0.268,0.947,0.801v3.275
			C217.338,62.878,217.241,63.072,217.047,63.218z M192.518,44.876h-4.221v4.295h4.221V44.876z M192.518,54.046h-4.221v4.514h4.221
			V54.046z M200.743,18.82h-7.277v4.148h7.277V18.82z M200.743,27.845h-7.277v4.002h7.277V27.845z M205.473,44.876h-4.148v4.295
			h4.148V44.876z M205.473,54.046h-4.148v4.514h4.148V54.046z"/>
	</g>
	<path fill="#F65536" d="M62.171,43.241c-3.238-1.01-5.613-0.09-7.037,0.859c-0.744,0.497-1.364,1.094-1.872,1.709
		c-0.24-0.078-0.489-0.137-0.75-0.161l-15.417-1.418c-1.925-0.18-3.579,1.229-3.752,3.122l-0.015,0.163l0.809,11.333
		c-0.064,1.814,1.302,3.389,3.079,3.551l12.715,1.518c0.108,0.01,0.215,0.015,0.321,0.015c1.762,0,3.218-1.301,3.424-3.042
		l1.936-11.334l0.02-0.154c0.018-0.192,0.008-0.381-0.005-0.568c0.407-0.532,1.105-1.189,1.874-1.601
		c0.955-0.511,2.213-0.567,3.479-0.172c1.056,0.332,2.176-0.259,2.505-1.313C63.814,44.691,63.226,43.57,62.171,43.241z
		 M37.393,48.274l14.158,1.302l-1.758,10.295l-11.671-1.394L37.393,48.274z"/>
	<g>
		<circle fill="#F65536" cx="39.997" cy="65.975" r="2.156"/>
	</g>
	<g>
		<circle fill="#F65536" cx="47.997" cy="66.975" r="2.156"/>
	</g>
</g>
</svg>
