<?xml version="1.0" encoding="utf-8"?>
<!-- Generator: Adobe Illustrator 16.0.0, SVG Export Plug-In . SVG Version: 6.00 Build 0)  -->
<!DOCTYPE svg PUBLIC "-//W3C//DTD SVG 1.1//EN" "http://www.w3.org/Graphics/SVG/1.1/DTD/svg11.dtd">
<svg version="1.1" id="圖層_1" xmlns="http://www.w3.org/2000/svg" xmlns:xlink="http://www.w3.org/1999/xlink" x="0px" y="0px"
	 width="841.89px" height="595.28px" viewBox="0 0 841.89 595.28" enable-background="new 0 0 841.89 595.28" xml:space="preserve">
<g>
	<g>
		<g>
			<g>
				<path d="M480.009,427.352c0,5.775-4.682,10.438-10.451,10.438c-5.768,0-10.449-4.662-10.449-10.438
					c0-5.77,4.682-10.451,10.449-10.451C475.327,416.9,480.009,421.582,480.009,427.352z"/>
			</g>
		</g>
		<g>
			<g>
				<path d="M399.455,427.352c0,5.775-4.682,10.438-10.451,10.438c-5.768,0-10.449-4.662-10.449-10.438
					c0-5.77,4.682-10.451,10.449-10.451C394.773,416.9,399.455,421.582,399.455,427.352z"/>
			</g>
		</g>
		<g>
			<g>
				<path d="M218.265,470.477h-50.616c-4.694,0-8.5-3.806-8.5-8.5V361.311c0-4.694,3.806-8.5,8.5-8.5h50.616v13.997h-42.116v88.671
					h42.116V470.477z"/>
			</g>
		</g>
		<g>
			<path d="M612.979,470.976h-17V361.311c0-4.694,3.806-8.5,8.5-8.5h60.552c4.694,0,8.5,3.806,8.5,8.5v58.666
				c0,4.694-3.806,8.5-8.5,8.5h-52.052V470.976z M612.979,411.477h43.552v-41.666h-43.552V411.477z"/>
		</g>
		<g>
			<g>
				<path d="M363.653,470.478c-2.999,0-5.847-1.594-7.385-4.294L314.82,393.41v74.896h-17V361.311c0-3.856,2.596-7.229,6.324-8.217
					c3.728-0.987,7.653,0.659,9.562,4.01l41.447,72.773v-68.566c0-4.694,3.806-8.5,8.5-8.5h149.335v17H372.154v92.166
					c0,3.856-2.596,7.229-6.324,8.217C365.106,470.385,364.375,470.478,363.653,470.478z"/>
			</g>
		</g>
		<g>
			<path d="M176.148,450.188v5.291h5.292C178.518,455.479,176.148,453.109,176.148,450.188z"/>
		</g>
		<g>
			<path d="M612.979,406.186v5.291h5.292C615.349,411.477,612.979,409.107,612.979,406.186z"/>
		</g>
		<g>
			<path d="M656.531,375.102v-5.291h-5.291C654.162,369.811,656.531,372.18,656.531,375.102z"/>
		</g>
		<g>
			<path d="M181.439,366.808h-5.291v5.291C176.148,369.177,178.518,366.808,181.439,366.808z"/>
		</g>
		<g>
			<path d="M219.265,365.808c0,0.553-0.448,1-1,1h-5.125c-0.552,0-1-0.447-1-1v-11.997c0-0.553,0.448-1,1-1h5.125
				c0.552,0,1,0.447,1,1V365.808z"/>
		</g>
		<g>
			<path d="M219.265,469.477c0,0.553-0.448,1-1,1h-5.125c-0.552,0-1-0.447-1-1v-12.998c0-0.553,0.448-1,1-1h5.125
				c0.552,0,1,0.447,1,1V469.477z"/>
		</g>
		<g>
			<g>
				<path d="M286.239,470.477h-50.616c-4.694,0-8.5-3.806-8.5-8.5V361.311c0-4.694,3.806-8.5,8.5-8.5h50.616v13.997h-42.116v88.671
					h42.116V470.477z"/>
			</g>
		</g>
		<g>
			<path d="M244.123,450.188v5.291h5.292C246.492,455.479,244.123,453.109,244.123,450.188z"/>
		</g>
		<g>
			<path d="M249.414,366.808h-5.291v5.291C244.123,369.177,246.492,366.808,249.414,366.808z"/>
		</g>
		<g>
			<path d="M287.239,365.808c0,0.553-0.448,1-1,1h-5.125c-0.552,0-1-0.447-1-1v-11.997c0-0.553,0.448-1,1-1h5.125
				c0.552,0,1,0.447,1,1V365.808z"/>
		</g>
		<g>
			<path d="M283.563,411.14c0,0.553-0.448,1-1,1h-5.125c-0.552,0-1-0.447-1-1v-13.999c0-0.553,0.448-1,1-1h5.125
				c0.552,0,1,0.447,1,1V411.14z"/>
		</g>
		<g>
			<path d="M287.239,469.477c0,0.553-0.448,1-1,1h-5.125c-0.552,0-1-0.447-1-1v-12.998c0-0.553,0.448-1,1-1h5.125
				c0.552,0,1,0.447,1,1V469.477z"/>
		</g>
		<g>
			<path d="M516.552,368.811c0,0.553-0.448,1-1,1h-5.125c-0.552,0-1-0.447-1-1v-15c0-0.553,0.448-1,1-1h5.125c0.552,0,1,0.447,1,1
				V368.811z"/>
		</g>
		<g>
			<path d="M298.82,470.975c-0.553,0-1-0.448-1-1v-5.125c0-0.552,0.447-1,1-1h15c0.553,0,1,0.448,1,1v5.125c0,0.552-0.447,1-1,1
				H298.82z"/>
		</g>
		<g>
			<rect x="241.735" y="396.141" width="38.266" height="15.999"/>
		</g>
		<g>
			<g>
				<path d="M585.575,470.477h-50.617c-4.693,0-8.5-3.806-8.5-8.5V361.311c0-4.694,3.807-8.5,8.5-8.5h50.617v13.997h-42.117v88.671
					h42.117V470.477z"/>
			</g>
		</g>
		<g>
			<path d="M543.458,450.188v5.291h5.292C545.827,455.479,543.458,453.109,543.458,450.188z"/>
		</g>
		<g>
			<path d="M548.749,366.808h-5.291v5.291C543.458,369.177,545.827,366.808,548.749,366.808z"/>
		</g>
		<g>
			<path d="M586.575,365.808c0,0.553-0.448,1-1,1h-5.125c-0.553,0-1-0.447-1-1v-11.997c0-0.553,0.447-1,1-1h5.125
				c0.552,0,1,0.447,1,1V365.808z"/>
		</g>
		<g>
			<path d="M582.899,411.14c0,0.553-0.447,1-1,1h-5.125c-0.553,0-1-0.447-1-1v-13.999c0-0.553,0.447-1,1-1h5.125
				c0.553,0,1,0.447,1,1V411.14z"/>
		</g>
		<g>
			<path d="M586.575,469.477c0,0.553-0.448,1-1,1h-5.125c-0.553,0-1-0.447-1-1v-12.998c0-0.553,0.447-1,1-1h5.125
				c0.552,0,1,0.447,1,1V469.477z"/>
		</g>
		<g>
			<rect x="541.071" y="396.141" width="38.266" height="15.999"/>
		</g>
		<g>
			<path d="M673.326,472.456c-10.63,0-16.351-6.209-18.368-8.979c-8.151-11.197-16.546-38.262-17.477-41.312
				c-1.208-3.961,1.023-8.152,4.984-9.361c3.958-1.208,8.153,1.021,9.362,4.983c2.327,7.619,9.604,29.095,15.257,36.86
				c4.989,6.85,18.234-0.705,22.175-3.185c3.504-2.207,8.137-1.153,10.342,2.354c2.206,3.506,1.152,8.136-2.354,10.342
				C687.436,470.332,679.541,472.456,673.326,472.456z"/>
		</g>
		<g>
			<g>
				<path d="M437.321,471.728c-0.553,0-1-0.448-1-1v-5.125c0-0.552,0.447-1,1-1h13.335c0.553,0,1,0.448,1,1v5.125
					c0,0.552-0.447,1-1,1H437.321z"/>
			</g>
			<g>
				<rect x="436.321" y="361.311" width="15.335" height="106.103"/>
			</g>
		</g>
	</g>
	<g>
		<path d="M799.776,376.314H712.78c-5.799,0-10.5-4.701-10.5-10.5s4.701-10.5,10.5-10.5h48.651L415.942,150.778L70.453,355.314
			h48.65c5.799,0,10.5,4.701,10.5,10.5s-4.701,10.5-10.5,10.5H32.108c-4.731,0-8.878-3.164-10.127-7.727
			c-1.25-4.563,0.707-9.398,4.778-11.809l383.834-227.239c3.299-1.953,7.399-1.953,10.698,0l383.834,227.239
			c4.07,2.41,6.027,7.245,4.777,11.809C808.654,373.15,804.508,376.314,799.776,376.314z"/>
	</g>
</g>
</svg>
