<?xml version="1.0" encoding="utf-8"?>
<!-- Generator: Adobe Illustrator 22.1.0, SVG Export Plug-In . SVG Version: 6.00 Build 0)  -->
<svg version="1.1" id="圖層_1" xmlns="http://www.w3.org/2000/svg" xmlns:xlink="http://www.w3.org/1999/xlink" x="0px" y="0px"
	 viewBox="0 0 3359.1 2239.4" style="enable-background:new 0 0 3359.1 2239.4;" xml:space="preserve">
<style type="text/css">
	.st0{fill:none;stroke:#000000;stroke-width:150;stroke-miterlimit:10;}
</style>
<rect y="0" class="st0" width="3359.1" height="2239.4"/>
<g>
	<polygon points="2489.3,1178.3 2607.5,1178.3 2780.3,1178.3 2894.3,1178.3 2793.7,1144.2 2685.5,1107.5 2525.4,1053.2 
		2525.4,1053.2 1642.6,753.9 749.4,1075.8 586.9,1134.3 559,1144.4 464.8,1178.3 573.2,1178.3 649.7,1178.3 872.7,1178.3 
		872.7,1142.8 671.8,1142.8 768,1108.1 1643.2,792.8 2675.5,1142.8 2489.3,1142.8 	"/>
	<g>
		<g>
			<path d="M2007.4,1126h-197.5v350.8H1763V1126h-198.3v-42.2h442.7V1126z"/>
		</g>
		<g>
			<path d="M1547.2,1471.7l-178.8-235.4v235.1H1325v-371.1l178.4,235.2v-212.3h43.8L1547.2,1471.7L1547.2,1471.7z"/>
		</g>
		<g>
			<path d="M1286.6,1170.5v-53.7h-132.2c-15.2,0-39.7,8.7-39.7,34.6v312.9h171.9v-47.6h-125.4v-64.9h119.9v-38.4h-119.9v-142.9
				H1286.6z"/>
		</g>
		<g>
			<path d="M2194.2,1170.5v-53.7H2062c-15.1,0-39.6,8.7-39.6,34.5v320.5h171.9v-47.6h-125.4v-72.5h119.9v-38.4h-119.9v-142.9H2194.2
				z"/>
		</g>
		<g>
			<path d="M2452.4,1381.7v-220.2c0-15.1-8.7-39.7-34.6-39.7h-195.1v350h45.9v-90.2h102.7l61.4,103.8l39.5-23.4l-47.6-80.4
				L2452.4,1381.7L2452.4,1381.7z M2406.5,1335.7h-137.8v-168h137.8V1335.7z"/>
		</g>
		<path d="M1087.3,1173.9v-58.2H944.1c-15.1,0-39.6,8.7-39.6,34.6v249.8v24v39.7H939h10.4h137.8v-58.2H962.7v-231.7L1087.3,1173.9
			L1087.3,1173.9z"/>
		<g>
			<path d="M1625.8,1323.7c0,12.6-10.2,22.8-22.9,22.8c-12.6,0-22.8-10.2-22.8-22.8c0-12.6,10.2-22.9,22.8-22.9
				C1615.5,1300.9,1625.8,1311.1,1625.8,1323.7z"/>
		</g>
		<g>
			<path d="M1889,1323.7c0,12.6-10.2,22.8-22.9,22.8c-12.6,0-22.9-10.2-22.9-22.8c0-12.6,10.2-22.9,22.9-22.9
				C1878.7,1300.9,1889,1311.1,1889,1323.7z"/>
		</g>
	</g>
</g>
</svg>
