<?xml version="1.0" encoding="utf-8"?>
<!-- Generator: Adobe Illustrator 16.0.0, SVG Export Plug-In . SVG Version: 6.00 Build 0)  -->
<!DOCTYPE svg PUBLIC "-//W3C//DTD SVG 1.1//EN" "http://www.w3.org/Graphics/SVG/1.1/DTD/svg11.dtd">
<svg version="1.1" id="圖層_1" xmlns="http://www.w3.org/2000/svg" xmlns:xlink="http://www.w3.org/1999/xlink" x="0px" y="0px"
	 width="868px" height="374px" viewBox="0 0 868 374" enable-background="new 0 0 868 374" xml:space="preserve">
<g>
	<polygon points="691.357,203.803 729.488,203.803 785.217,203.803 821.993,203.803 789.552,192.8 754.637,180.967 703.001,163.455 
		703.001,163.455 418.266,66.918 130.136,170.735 77.733,189.618 68.746,192.858 38.354,203.803 73.312,203.803 98,203.803 
		169.921,203.803 169.921,192.342 105.131,192.342 136.135,181.165 418.449,79.45 751.412,192.342 691.357,192.342 	"/>
	<g>
		<g>
			<path d="M535.932,186.951h-63.715v113.162h-15.121V186.951h-63.952v-13.598h142.788V186.951z"/>
		</g>
		<g>
			<path d="M387.494,298.436l-57.668-75.914v75.832h-14.012V178.658l57.548,75.875v-68.479h14.133V298.436z"/>
		</g>
		<g>
			<path d="M303.44,201.286v-17.32h-42.648c-4.889,0-12.792,2.797-12.792,11.148v100.935h55.44v-15.348h-40.435V259.77h38.675
				v-12.387h-38.675v-46.097H303.44z"/>
		</g>
		<g>
			<path d="M596.19,201.286v-17.32h-42.663c-4.885,0-12.788,2.797-12.788,11.143v103.379h55.451v-15.348h-40.445V259.77h38.676
				v-12.387h-38.676v-46.097H596.19z"/>
		</g>
		<g>
			<path d="M679.476,269.403v-71.029c0-4.885-2.797-12.792-11.148-12.792h-62.919v112.907h14.817v-29.085h33.111l19.817,33.487
				l12.749-7.546l-15.353-25.941H679.476z M664.664,254.591h-44.438v-54.197h44.438V254.591z"/>
		</g>
		<path d="M239.142,202.376v-18.771h-46.178c-4.884,0-12.787,2.796-12.787,11.148v80.586v7.734v12.792h11.138h3.366h44.461v-18.762
			h-40.204v-74.728H239.142z"/>
		<g>
			<path d="M412.822,250.709c0,4.075-3.303,7.363-7.373,7.363c-4.064,0-7.368-3.288-7.368-7.363c0-4.069,3.303-7.372,7.368-7.372
				C409.52,243.337,412.822,246.64,412.822,250.709z"/>
		</g>
		<g>
			<path d="M497.729,250.709c0,4.075-3.303,7.363-7.373,7.363c-4.069,0-7.372-3.288-7.372-7.363c0-4.069,3.303-7.372,7.372-7.372
				C494.426,243.337,497.729,246.64,497.729,250.709z"/>
		</g>
	</g>
</g>
</svg>
