<?xml version="1.0" encoding="utf-8"?>
<!-- Generator: Adobe Illustrator 16.0.0, SVG Export Plug-In . SVG Version: 6.00 Build 0)  -->
<!DOCTYPE svg PUBLIC "-//W3C//DTD SVG 1.1//EN" "http://www.w3.org/Graphics/SVG/1.1/DTD/svg11.dtd">
<svg version="1.1" id="圖層_1" xmlns="http://www.w3.org/2000/svg" xmlns:xlink="http://www.w3.org/1999/xlink" x="0px" y="0px"
	 width="620.787px" height="413.858px" viewBox="0 0 620.787 413.858" enable-background="new 0 0 620.787 413.858"
	 xml:space="preserve">
<g>
	<g>
		<g>
			<g>
				<path d="M348.813,283.139c0,3.463-2.809,6.259-6.268,6.259s-6.266-2.796-6.266-6.259c0-3.46,2.807-6.268,6.266-6.268
					S348.813,279.679,348.813,283.139z"/>
			</g>
		</g>
		<g>
			<g>
				<path d="M300.506,283.139c0,3.463-2.807,6.259-6.266,6.259s-6.268-2.796-6.268-6.259c0-3.46,2.809-6.268,6.268-6.268
					S300.506,279.679,300.506,283.139z"/>
			</g>
		</g>
		<g>
			<g>
				<path d="M191.852,308.999H161.5c-2.816,0-5.098-2.282-5.098-5.097v-60.366c0-2.815,2.281-5.098,5.098-5.098h30.352v8.394
					h-25.254v53.173h25.254V308.999z"/>
			</g>
		</g>
		<g>
			<path d="M428.551,309.298h-10.195v-65.762c0-2.815,2.283-5.098,5.098-5.098h36.311c2.814,0,5.098,2.282,5.098,5.098v35.18
				c0,2.815-2.283,5.097-5.098,5.097h-31.213V309.298z M428.551,273.619h26.115v-24.986h-26.115V273.619z"/>
		</g>
		<g>
			<g>
				<path d="M279.037,309c-1.799,0-3.506-0.956-4.43-2.575l-24.854-43.64v44.912h-10.195v-64.161c0-2.313,1.557-4.336,3.793-4.928
					s4.59,0.396,5.734,2.404l24.855,43.64v-41.116c0-2.815,2.281-5.098,5.096-5.098h89.553v10.194h-84.455v55.27
					c0,2.313-1.557,4.335-3.793,4.927C279.908,308.944,279.471,309,279.037,309z"/>
			</g>
		</g>
		<g>
			<path d="M166.598,296.832v3.173h3.172C168.018,300.005,166.598,298.585,166.598,296.832z"/>
		</g>
		<g>
			<path d="M428.551,270.445v3.174h3.174C429.971,273.619,428.551,272.198,428.551,270.445z"/>
		</g>
		<g>
			<path d="M454.666,251.806v-3.173h-3.172C453.246,248.633,454.666,250.054,454.666,251.806z"/>
		</g>
		<g>
			<path d="M169.77,246.832h-3.172v3.173C166.598,248.253,168.018,246.832,169.77,246.832z"/>
		</g>
		<g>
			<path d="M192.453,246.232c0,0.331-0.27,0.6-0.602,0.6h-3.072c-0.33,0-0.6-0.269-0.6-0.6v-7.194c0-0.331,0.27-0.6,0.6-0.6h3.072
				c0.332,0,0.602,0.269,0.602,0.6V246.232z"/>
		</g>
		<g>
			<path d="M192.453,308.399c0,0.331-0.27,0.6-0.602,0.6h-3.072c-0.33,0-0.6-0.269-0.6-0.6v-7.795c0-0.331,0.27-0.6,0.6-0.6h3.072
				c0.332,0,0.602,0.269,0.602,0.6V308.399z"/>
		</g>
		<g>
			<g>
				<path d="M232.613,308.999h-30.352c-2.816,0-5.098-2.282-5.098-5.097v-60.366c0-2.815,2.281-5.098,5.098-5.098h30.352v8.394
					h-25.254v53.173h25.254V308.999z"/>
			</g>
		</g>
		<g>
			<path d="M207.359,296.832v3.173h3.172C208.779,300.005,207.359,298.585,207.359,296.832z"/>
		</g>
		<g>
			<path d="M210.531,246.832h-3.172v3.173C207.359,248.253,208.779,246.832,210.531,246.832z"/>
		</g>
		<g>
			<path d="M233.213,246.232c0,0.331-0.268,0.6-0.6,0.6h-3.072c-0.332,0-0.6-0.269-0.6-0.6v-7.194c0-0.331,0.268-0.6,0.6-0.6h3.072
				c0.332,0,0.6,0.269,0.6,0.6V246.232z"/>
		</g>
		<g>
			<path d="M231.01,273.417c0,0.331-0.268,0.6-0.6,0.6h-3.072c-0.332,0-0.6-0.269-0.6-0.6v-8.396c0-0.331,0.268-0.6,0.6-0.6h3.072
				c0.332,0,0.6,0.269,0.6,0.6V273.417z"/>
		</g>
		<g>
			<path d="M233.213,308.399c0,0.331-0.268,0.6-0.6,0.6h-3.072c-0.332,0-0.6-0.269-0.6-0.6v-7.795c0-0.331,0.268-0.6,0.6-0.6h3.072
				c0.332,0,0.6,0.269,0.6,0.6V308.399z"/>
		</g>
		<g>
			<path d="M370.727,248.033c0,0.331-0.27,0.6-0.602,0.6h-3.072c-0.33,0-0.6-0.269-0.6-0.6v-8.995c0-0.331,0.27-0.6,0.6-0.6h3.072
				c0.332,0,0.602,0.269,0.602,0.6V248.033z"/>
		</g>
		<g>
			<path d="M240.158,309.298c-0.33,0-0.6-0.269-0.6-0.6v-3.073c0-0.331,0.27-0.6,0.6-0.6h8.996c0.332,0,0.6,0.269,0.6,0.6v3.073
				c0,0.331-0.268,0.6-0.6,0.6H240.158z"/>
		</g>
		<g>
			<rect x="205.926" y="264.422" width="22.947" height="9.595"/>
		</g>
		<g>
			<g>
				<path d="M412.117,308.999h-30.354c-2.814,0-5.098-2.282-5.098-5.097v-60.366c0-2.815,2.283-5.098,5.098-5.098h30.354v8.394
					h-25.256v53.173h25.256V308.999z"/>
			</g>
		</g>
		<g>
			<path d="M386.861,296.832v3.173h3.172C388.281,300.005,386.861,298.585,386.861,296.832z"/>
		</g>
		<g>
			<path d="M390.033,246.832h-3.172v3.173C386.861,248.253,388.281,246.832,390.033,246.832z"/>
		</g>
		<g>
			<path d="M412.717,246.232c0,0.331-0.27,0.6-0.6,0.6h-3.074c-0.33,0-0.6-0.269-0.6-0.6v-7.194c0-0.331,0.27-0.6,0.6-0.6h3.074
				c0.33,0,0.6,0.269,0.6,0.6V246.232z"/>
		</g>
		<g>
			<path d="M410.512,273.417c0,0.331-0.268,0.6-0.6,0.6h-3.072c-0.332,0-0.6-0.269-0.6-0.6v-8.396c0-0.331,0.268-0.6,0.6-0.6h3.072
				c0.332,0,0.6,0.269,0.6,0.6V273.417z"/>
		</g>
		<g>
			<path d="M412.717,308.399c0,0.331-0.27,0.6-0.6,0.6h-3.074c-0.33,0-0.6-0.269-0.6-0.6v-7.795c0-0.331,0.27-0.6,0.6-0.6h3.074
				c0.33,0,0.6,0.269,0.6,0.6V308.399z"/>
		</g>
		<g>
			<rect x="385.43" y="264.422" width="22.945" height="9.595"/>
		</g>
		<g>
			<path d="M464.738,310.187c-6.375,0-9.805-3.724-11.016-5.385c-4.887-6.715-9.922-22.944-10.479-24.773
				c-0.725-2.375,0.613-4.889,2.988-5.614c2.373-0.724,4.889,0.613,5.613,2.989c1.396,4.568,5.76,17.446,9.15,22.104
				c2.992,4.107,10.934-0.423,13.297-1.909c2.102-1.324,4.879-0.692,6.201,1.411c1.324,2.103,0.691,4.879-1.41,6.201
				C473.199,308.912,468.465,310.187,464.738,310.187z"/>
		</g>
		<g>
			<g>
				<path d="M323.213,309.749c-0.33,0-0.6-0.269-0.6-0.6v-3.073c0-0.331,0.27-0.6,0.6-0.6h7.998c0.33,0,0.6,0.269,0.6,0.6v3.073
					c0,0.331-0.27,0.6-0.6,0.6H323.213z"/>
			</g>
			<g>
				<rect x="322.613" y="243.536" width="9.197" height="63.626"/>
			</g>
		</g>
	</g>
	<g>
		<path d="M540.566,252.533h-52.168c-3.479,0-6.297-2.819-6.297-6.297s2.818-6.296,6.297-6.296h29.174l-207.18-122.654
			L103.215,239.94h29.174c3.477,0,6.297,2.818,6.297,6.296s-2.82,6.297-6.297,6.297H80.221c-2.838,0-5.324-1.897-6.072-4.634
			c-0.75-2.736,0.422-5.636,2.863-7.081l230.174-136.268c1.979-1.171,4.438-1.171,6.416,0l230.172,136.268
			c2.441,1.445,3.615,4.345,2.865,7.081C545.891,250.636,543.404,252.533,540.566,252.533z"/>
	</g>
</g>
<rect fill="none" stroke="#000000" stroke-width="30" width="620.787" height="413.858"/>
</svg>
