<?xml version="1.0" encoding="utf-8"?>
<!-- Generator: Adobe Illustrator 16.0.0, SVG Export Plug-In . SVG Version: 6.00 Build 0)  -->
<!DOCTYPE svg PUBLIC "-//W3C//DTD SVG 1.1//EN" "http://www.w3.org/Graphics/SVG/1.1/DTD/svg11.dtd">
<svg version="1.1" id="圖層_1" xmlns="http://www.w3.org/2000/svg" xmlns:xlink="http://www.w3.org/1999/xlink" x="0px" y="0px"
	 width="422.979px" height="145.493px" viewBox="0 0 422.979 145.493" enable-background="new 0 0 422.979 145.493"
	 xml:space="preserve">
<g>
	<g>
		<g>
			<defs>
				<circle id="SVGID_1_" cx="70.681" cy="73.554" r="58.75"/>
			</defs>
			<clipPath id="SVGID_2_">
				<use xlink:href="#SVGID_1_"  overflow="visible"/>
			</clipPath>
			<g clip-path="url(#SVGID_2_)">
				<g>
					<path d="M405.223,77.979c-5.111-1.28-37.01-7.595-37.01-7.595c-2.063-0.652-4.319-1.133-6.188-2.045
						c-0.983-0.42-1.954-0.808-2.972-1.259l-1.521-0.665l-0.767-0.333l-0.191-0.085c-0.069-0.025-0.146-0.047-0.104-0.126
						l0.072-0.383l1.156-6.249c0.209-1.07,0.351-2.081,0.659-3.264l0.414-1.729l0.105-0.433l0.052-0.217l0.022-0.119l0.083-0.439
						l0.688-3.509c0.397-2.385,0.931-4.712,1.418-7.097c0.1-0.469,0.196-0.926,0.292-1.381c2.518-11.308,5.37-22.944,5.094-34.732
						l0.146-1.412l1.204-10.598l0.305-2.651l0.073-0.662l0.109-1.155l0.227-2.428c0.266-3.215,0.531-6.433,0.797-9.654
						c4.832,0.043,9.677,0.088,14.534,0.132c2.892,0.022,5.792,0.005,8.705-0.076l1.363-0.021
						c9.076-0.141,18.251-0.629,27.324,0.291c0.431,0.035,0.846,0.069,1.262,0.104c1.235,0.109,2.479,0.207,3.735,0.271
						c1.467-0.095,2.944-0.152,4.421-0.198c0.737-0.021,1.475-0.041,2.209-0.063c0.742-0.005,1.496,0.008,2.243,0.018l0.56,0.013
						c0.115,0.005,0.14-0.003,0.329,0.012l0.509,0.036l2.043,0.151c1.351,0.149,2.687,0.381,4.034,0.582
						c2.688,0.393,5.383,0.951,7.989,1.528c-0.101,2.94-0.267,5.896-0.525,8.768l-0.098,1.075l-0.142,1.011
						c-0.104,0.66-0.209,1.322-0.313,1.987c-0.114,0.646-0.228,1.294-0.34,1.943c-0.118,0.456-0.238,0.797-0.366,1.2l-0.121,1.458
						c-0.768,8.224-2.188,16.331-4.987,24.037c-0.125,0.493-0.242,0.964-0.36,1.431c-1.646,6.779-3.42,13.585-5.89,20.185
						c-2.435,6.596-5.612,12.996-9.91,18.657c-0.26,0.437-0.556,0.859-0.832,1.288c-2.635,4.072-5.526,8.022-8.728,11.789
						c-3.205,3.765-6.719,7.356-10.716,10.614c-0.475,0.311-0.919,0.63-1.355,0.95c-0.627,0.467-1.318,0.866-1.973,1.302
						c-0.664,0.421-1.353,0.878-1.943,1.203l-3.675,2.137c-1.214,0.729-2.476,1.383-3.713,2.074
						c-1.244,0.68-2.479,1.376-3.751,2.006c-5.017,2.643-10.219,4.939-15.536,6.838l-1.354,0.462
						c-4.977,1.672-10.018,3.179-15.179,4.519c0.276-0.075,0.276-0.075,0.551-0.152c-4.962,1.33-9.836,3.363-15.076,4.318
						c-0.499,0.08-0.986,0.157-1.474,0.235c-9.169,1.521-18.746,2.036-28.242,0.59l-1.484-0.266
						c-10.382-2.018-20.305-5.88-29.572-11.144c-0.451-0.289-0.885-0.565-1.318-0.845c-4.018-2.525-7.825-5.362-11.4-8.477
						c-3.577-3.111-6.938-6.486-10.01-10.146l-1.021-1.153c-2.686-3.116-5.263-6.376-7.799-9.838
						c-0.271-0.435-0.507-0.889-0.75-1.342c-1.563-2.934-2.722-6.085-3.713-9.319c-0.994-3.243-1.823-6.554-2.673-10.087
						c-0.109-0.564-0.175-1.131-0.235-1.697c-0.066-0.56-0.121-1.128-0.146-1.715c-0.041-0.316-0.08-0.635-0.119-0.954
						c-0.064-0.659-0.129-1.322-0.194-1.988c0.01-0.369,0.028-0.738,0.057-1.103c0.046-0.8,0.245-1.676,0.491-2.445
						c0.314-0.824,0.67-1.545,1.262-2.226c1.084-1.298,2.906-2.178,5.076-1.801c0.43,0.124,0.846,0.298,1.243,0.507
						c1.189,0.626,2.23,1.587,3.021,2.402c0.13,0.304,0.229,0.608,0.272,0.875c0.075,0.309,0.105,0.597,0.137,0.895
						c0.055,0.319,0.076,0.617,0.14,0.931c0.074,0.324,0.155,0.63,0.283,0.923l0.089,0.709c0.025,0.29,0.088,0.6,0.138,0.901
						c0.05,0.304,0.093,0.602,0.168,0.914c0.086,0.385,0.137,0.756,0.239,1.145c0.095,0.384,0.188,0.77,0.282,1.159
						c0.982,2.477,1.751,4.996,2.592,7.573c0.843,2.567,1.738,5.184,2.944,7.691l0.574,1.149c2.233,3.342,4.576,6.528,7.131,9.519
						c0.284,0.333,0.567,0.666,0.857,1.005c5.238,5.312,10.78,10.253,16.982,14.375c0.357,0.254,0.735,0.471,1.103,0.71
						c4.135,2.633,8.592,4.656,13.184,6.198c4.59,1.567,9.339,2.584,14.15,3.305c0.436,0.067,0.876,0.136,1.319,0.205
						c7.482,0.646,14.993,0.69,22.53-0.109l1.329-0.143c9.396-1.647,18.559-4.62,27.611-8.005l1.295-0.482
						c4.334-2.103,8.734-3.956,13.048-6.038c4.314-2.022,8.587-4.335,12.461-7.056c0.553-0.462,1.126-0.872,1.723-1.248
						c0.297-0.19,0.585-0.42,0.89-0.612c3.716-1.613,7.177-4.324,10.178-7.555c3.013-3.238,5.6-6.997,7.895-10.957
						c0.23-0.37,0.434-0.762,0.652-1.142c3.427-5.216,6.052-10.987,8.171-16.922c2.146-5.934,3.797-12.042,5.338-18.154
						c0.112-0.437,0.226-0.874,0.339-1.313c2.254-7.24,3.685-14.837,4.505-22.372l0.13-1.328l0.149-1.101l0.048-0.344l0.032-0.19
						l0.115-0.732c0.06-0.351,0.106-0.722,0.141-1.106c-0.308-0.146-0.72-0.217-1.11-0.291c-0.194-0.04-0.414-0.07-0.643-0.1
						l-2.379-0.237c-1.658-0.123-3.316-0.247-4.973-0.369l-5.018-0.272c-0.469-0.021-0.939-0.041-1.426-0.062
						c-8.982-0.388-18.078-0.578-27.178-0.676c-0.456-0.004-0.912-0.007-1.373-0.011c-2.828-0.454-5.673-0.672-8.526-0.757
						l-1.465-0.034c-0.248-0.004-0.496,0-0.74,0.008c-0.484,0.023-0.974,0.039-1.38,0.117l0.055,1.832l0.008,0.42l0.004,0.206
						l-0.036,0.663c-0.047,0.896-0.112,1.79-0.181,2.682c-0.271,3.57-0.708,7.119-1.488,10.611c0,0-1.932,25.696-4.481,37.658
						c-0.1,0.482-0.198,0.964-0.298,1.452c-0.442,2.461-0.885,4.933-1.33,7.415c-0.224,1.246-0.501,2.502-0.747,3.759l-0.094,0.471
						l-0.049,0.235c-0.011,0.063-0.002,0.046-0.006,0.071v0.184c0.005,0.113-0.004,0.241-0.011,0.362l-0.023,0.649l-0.003,0.073
						c0.009,0.018,0.061,0.018,0.087,0.029l0.189,0.051c0.121,0.036,0.243,0.057,0.358,0.078l0.637,0.131
						c0,0,24.332,5.689,41.487,9.099c-1.082,1.805-7.492,9.508-8.718,10.423C405.471,78.013,405.336,78.018,405.223,77.979z"/>
					<path d="M-307.067,93.543c-0.601,0.799-0.579,2.192-0.716,2.636c-0.049,0.77,0.041,1.091,0.208,1.389
						c0.169,0.3,0.628,0.754,1.495,1.205c0.898,0.433,2.111,0.777,3.408,1.037c2.693,0.443,5.771,0.444,8.863,0.133
						c3.104-0.31,6.25-0.931,9.34-1.756s6.13-1.857,9.054-3.065c1.458-0.61,2.892-1.256,4.286-1.944
						c1.355-0.664,2.801-1.49,4.248-2.286c5.768-3.212,11.416-6.849,17.162-10.542c0.963-0.815,1.918-1.624,2.872-2.434
						c9.896-8.685,18.713-18.701,26.87-29.193c8.16-10.511,15.699-21.512,23.043-32.644c0.717-1.104,1.412-2.18,2.107-3.254
						c8.661-13.369,16.85-27.16,24.127-41.401c7.254-14.238,13.633-28.941,18.332-44.014l1.281-3.606
						c2.822-8.119,5.4-16.3,7.422-24.533c1.002-4.114,1.873-8.24,2.508-12.348c0.631-4.097,1.029-8.197,0.964-12.086
						c-0.003-1.955-0.21-3.806-0.513-5.521c-0.313-1.712-0.873-3.166-1.475-4.15c-0.641-0.986-1.148-1.371-1.924-1.64
						c-0.451-0.202-0.656-0.175-0.907-0.171c-0.233,0.021-0.516,0.092-0.92,0.315c-0.807,0.442-1.933,1.48-2.925,2.88
						c-1.013,1.375-1.947,3.045-2.789,4.813c-1.688,3.556-3.029,7.527-4.152,11.592c-0.318,1.126-0.619,2.26-0.902,3.403
						c-2.83,11.443-4.346,23.479-5.405,35.496c-1.037,12.039-1.556,24.134-1.857,36.168c-0.017,1.143-0.033,2.245-0.049,3.346
						c-0.034,3.27-0.013,6.557,0.078,9.869c0.78,11.762,2.027,23.273,3.509,34.686c1.502,11.412,3.195,22.728,5.262,34.12
						l1.011,3.499c1.477,4.933,3.173,9.771,5.182,14.39c2.009,4.608,4.314,9.03,7.056,12.916c2.729,3.883,5.912,7.221,9.471,9.335
						c3.547,2.147,7.439,2.995,11.723,2.577c1.085-0.155,2.126-0.359,3.159-0.65c3.744-1.014,7.472-2.762,11.031-4.971
						c3.569-2.191,6.988-4.813,10.268-7.657c6.556-5.715,12.563-12.294,18.229-19.175c11.325-13.814,21.382-28.819,31.267-43.842
						l2.015-3.34c12.666-21.226,23.851-43.54,33.021-66.428c0.549-1.236,1.052-2.442,1.549-3.643
						C-4.541-80.76,0.548-94.777,5.01-108.886c4.442-14.102,8.367-28.313,11.056-42.461l0.646-3.582
						c1.085-6.545,1.856-13.171,1.627-19.444c-0.119-3.105-0.545-6.159-1.427-8.537c-0.438-1.169-0.982-2.16-1.544-2.725
						c-0.559-0.6-1.038-0.869-1.76-1.045c0.305,0.071,0.303,0.074,0.568,0.18c-0.291-0.123-0.631-0.205-1.031-0.25
						c-0.194-0.034-0.436-0.009-0.649-0.033c-0.134,0.044-0.245-0.001-0.38,0.059c-0.495,0.099-1.209,0.436-2.02,1.148
						c-1.634,1.399-3.288,3.828-4.646,6.456c-2.76,5.335-4.776,11.529-6.666,17.769c-0.35,1.202-0.689,2.37-1.029,3.541
						c-3.087,11.118-5.265,22.66-7.083,34.265c-1.808,11.619-3.203,23.348-4.391,35.129l-0.395,3.705
						c-2.66,25.941-3.869,51.964-2.867,78.251c0.038,1.321,0.072,2.589,0.107,3.858c0.424,11.689,1.271,23.346,2.724,34.898
						c1.463,11.539,3.495,23.022,6.646,34.044c0.349,1.182,0.721,2.349,1.101,3.511c1.535,4.635,3.317,9.16,5.495,13.335
						c2.168,4.155,4.762,8.009,7.727,10.815c0.685,0.682,1.366,1.343,2.068,1.905c2.282,1.872,4.563,2.961,7.072,3.31
						c1.259,0.172,2.6,0.158,4.022-0.06c0.779-0.084,1.285-0.302,1.87-0.44c0.145-0.041,0.291-0.062,0.439-0.112l0.444-0.215
						l0.903-0.4c2.433-1.22,4.784-3.4,6.523-6.04c1.758-2.648,2.946-5.763,3.501-9.028c0.121-1.056,0.401-2.048,0.444-3.084
						c0.032-1.034,0.134-2.063,0.142-3.106c-0.057-0.574-0.113-1.15-0.171-1.729l-0.175-1.727l-0.404-1.728
						c-0.104-0.62-0.209-1.236-0.312-1.848c-1.117-5.547-3.03-10.602-1.191-15.297c0.251-0.396,0.541-0.738,0.873-1.004
						c0.998-0.79,2.376-0.893,4.197,0.346c0.667,0.753,1.324,1.615,1.979,2.542c0.63,0.938,1.133,2.012,1.696,3.068
						c1.185,2.091,1.975,4.431,2.894,6.503c0.326,0.835,0.503,1.716,0.703,2.594l0.736,3.299c0.149,1.122,0.258,2.257,0.381,3.388
						c0.203,1.394,0.162,2.813,0.138,4.233l-0.037,2.138c-0.09,0.71-0.179,1.425-0.27,2.142
						c-0.813,9.343-5.738,18.596-14.184,24.086c-2.099,1.383-4.518,2.418-7.105,3.105c-2.438,0.599-4.903,0.849-7.464,0.744
						c-5.123-0.174-10.17-2.193-14.034-5.122c-1.206-0.892-2.32-1.862-3.364-2.87c-4.977-4.65-8.332-10.148-11.064-15.664
						c-2.711-5.549-4.775-11.231-6.484-16.943c-0.383-1.272-0.742-2.551-1.101-3.848c-3.148-10.826-5.162-21.851-6.599-32.905
						c-1.431-11.06-2.253-22.163-2.708-33.269l-0.146-3.919c-0.946-29.242-0.319-57.976,2.462-86.718
						c0.136-1.307,0.271-2.619,0.411-3.943c1.025-11.075,2.43-22.084,4.279-33.022c1.865-10.939,4.141-21.813,7.225-32.598
						c0.359-1.269,0.746-2.534,1.135-3.801c1.998-6.793,4.259-13.568,7.704-20.297c1.782-3.353,3.777-6.74,7.023-9.969
						c1.651-1.582,3.686-3.184,6.46-4.214c1.393-0.495,2.936-0.821,4.521-0.857c0.747-0.013,1.359,0.024,2.057,0.077
						c0.701,0.102,1.38,0.16,2.096,0.357c1.414,0.301,2.832,0.916,4.137,1.65c1.281,0.781,2.462,1.718,3.404,2.754
						c1.95,2.071,3.076,4.32,3.921,6.439c1.611,4.266,2.09,8.228,2.326,12.045c0.389,7.624-0.385,14.789-1.455,21.842l-0.677,4.005
						c-2.123,13.923-5.815,27.236-9.934,40.294c-4.146,13.056-8.788,25.841-13.41,38.644c-0.813,2.282-1.681,4.54-2.597,6.776
						c-0.453,1.121-0.925,2.235-1.406,3.345c-11.72,23.875-23.503,47.678-36.93,70.772c-0.646,1.096-1.296,2.19-1.943,3.289
						c-9.602,15.339-19.592,30.41-31.143,44.517c-5.808,7.026-12.012,13.814-19.067,19.956c-3.536,3.061-7.297,5.951-11.389,8.52
						c-4.115,2.534-8.55,4.798-13.494,6.269c-1.408,0.422-2.859,0.766-4.345,1.05c-3.101,0.51-6.521,0.673-9.836,0.195
						c-3.338-0.453-6.6-1.515-9.542-3.026c-5.918-3.05-10.418-7.625-13.988-12.404c-3.566-4.825-6.314-9.967-8.641-15.189
						c-2.316-5.229-4.197-10.562-5.816-15.934c-0.373-1.266-0.746-2.531-1.09-3.802c-3.533-13.522-5.651-27.168-7.088-40.803
						c-1.42-13.642-2.086-27.288-2.173-40.908c-0.001-1.311-0.001-2.62-0.003-3.973c0.049-12.507,0.611-25.048,1.816-37.59
						c1.241-12.54,3.017-25.08,6.242-37.565c0.324-1.248,0.669-2.499,1.04-3.764c1.495-4.278,3.13-8.559,5.286-12.811
						c1.089-2.123,2.295-4.244,3.848-6.323c1.547-2.058,3.415-4.164,6.199-5.811c1.393-0.805,3.056-1.448,4.849-1.687
						c1.772-0.242,3.667-0.078,5.209,0.428c0.793,0.239,1.585,0.46,2.333,0.887c0.758,0.385,1.516,0.769,2.159,1.314
						c0.671,0.51,1.341,1.033,1.853,1.646c0.547,0.598,1.109,1.203,1.494,1.847c1.75,2.553,2.68,5.217,3.232,7.722
						c0.172,0.64,0.283,1.263,0.378,1.88c0.097,0.62,0.216,1.247,0.289,1.862c0.104,1.212,0.277,2.454,0.294,3.641
						c0.215,4.802-0.129,9.42-0.705,13.951c-0.583,4.53-1.424,8.965-2.426,13.337c-2.035,8.729-4.725,17.19-7.912,25.385
						l-1.463,3.618c-4.41,16.024-10.816,31.376-18.195,46.169c-7.404,14.793-15.847,29.018-24.781,42.888
						c-0.719,1.109-1.436,2.223-2.166,3.353c-7.232,11.269-14.889,22.463-23.31,33.216c-8.435,10.734-26.86,29.436-31.188,32.714
						c-13.869,10.51-22.54,16.896-41.824,23.099c-4.384,0.961-13.038,1.765-17.776,1.358c-2.354-0.175-4.801-0.678-7.256-1.557
						c-2.432-0.894-5.014-2.268-7.192-4.656c-0.533-0.592-1.02-1.294-1.476-1.952c-0.434-0.696-0.779-1.49-1.104-2.235
						c-0.282-0.775-0.452-1.59-0.618-2.372c-0.114-0.784-0.105-1.559-0.111-2.313c0.183-2.991,1.371-5.271,2.688-7.094
						c2.817-3.52,7.089-8.919,10.424-6.548C-303.362,86.039-303.096,88.248-307.067,93.543z"/>
					<path d="M47.827,92.188c2.025,2.722,7.286,6.286,8.413,7.057c1.12,0.765,6.644,1.465,7.84,1.512
						c1.184,0.054,2.317-0.199,3.052-0.911l0.151-0.139c1.049-0.952,1.268-2.239,2.359-3.504l0.137-0.19
						c0.135-0.184,1.312-4.551,1.347-6.408c0.003-0.08-0.015-0.317-0.015-0.317c-0.14-1.809-0.433-3.483-0.193-5.434
						c-0.023-0.115-0.055-0.219-0.087-0.322c-0.6-1.497-1.436-2.875-2.282-4.272c-0.804-1.415-1.506-2.886-1.777-4.803l-0.167-0.341
						c-1.077-2.165-2.474-4.3-4.522-5.851c-0.075-0.12-0.163-0.22-0.255-0.314c-2.182-2.166-4.778-3.981-6.847-6.463l-0.26-0.32
						c-0.943-1.165-1.919-2.371-3.02-3.505c0.059,0.06,0.059,0.06,0.116,0.119c-1.063-1.126-2.801-1.644-4.066-2.953l-0.344-0.363
						c-0.521-0.598-1.05-1.165-1.577-1.875l-0.787-1.088c-0.262-0.418-0.501-0.831-0.794-1.393
						c-0.291-0.526-0.494-1.083-0.702-1.645c-0.217-0.561-0.385-1.131-0.483-1.724c-0.309-1.173-0.162-2.384-0.154-3.583
						l0.104-0.604c0.062-0.276,0.13-0.616,0.176-0.77c0.294-1.124,0.762-2.437,1.366-3.633c0.614-1.189,1.358-2.297,2.25-3.259
						c0.87-0.983,1.916-1.785,3.02-2.475c1.137-0.644,2.34-1.17,3.618-1.511c0.26-0.058,0.515-0.088,0.769-0.121
						c1.161-0.193,2.344-0.239,3.521-0.177c1.17,0.06,2.073,0.211,2.976,0.381c1.784,0.354,3.396,0.858,4.932,1.438l0.511,0.154
						c4.503,1.422,9.604,5.143,10.585,6.329c0.574,0.693,0.496,5.022-2.694,6.566c-2.828,1.369-9.114-1.523-12.71-2.831
						c-0.892-0.324-3.082-0.76-5.313,0.522c-0.163,0.34-0.172,0.595-0.271,1.128l-0.015,0.001l-0.013,0.027
						c0.091,0.221,0.181,0.437,0.269,0.653c0.01,0.018,0.066,0.146,0.11,0.276l0.252,0.467c0.126,0.306,0.43,0.706,0.622,1.069
						l0.188,0.276c1.72,1.665,4.035,3.355,6.092,5.446l0.294,0.3c7.266,6.158,10.555,12.563,12.385,15.188l0.258,0.378
						c1.773,3.963,4.578,7.517,6.035,12.01l0.128,0.486c0.393,2.787,0.753,5.614,0.788,8.465l-0.009,0.504
						c-0.089,0.887-0.183,1.768-0.356,2.63c-0.161,0.861-0.262,1.739-0.49,2.567c-0.217,0.852-0.365,1.655-0.626,2.541
						c-0.305,0.897-0.501,1.783-0.913,2.678c-0.071,0.173-0.144,0.347-0.22,0.522c-0.656,1.639-1.65,3.253-2.815,4.753
						c-1.229,1.464-2.661,2.846-4.336,3.864l-0.5,0.314c-2.763,0.593-5.08,1.437-7.56,1.93c-2.438,0.488-12.225-0.626-14.145-1.64
						c-1.942-1.017-3.589-2.471-5.179-3.879l-0.398-0.325c-2.731-2.021-5.912-4.108-7.769-7.403
						c-0.096-0.146-0.167-0.314-0.244-0.478c1.152-1.933,0.971-2.909,0.23-3.777c-0.394-0.414-0.892-0.809-1.424-1.224
						c-0.525-0.414-1.134-0.827-1.563-1.325c-0.445-0.487-0.803-1.024-0.938-1.601c-0.108-0.58,0.031-1.207,0.514-1.827
						c0.937-1.231,3.502-2.496,8.376-3.104C44.578,85.281,46.364,90.222,47.827,92.188z"/>
					<path d="M88.841,93.95c1.036,0.561,5.32,3.795,6.566,4.43c1.222,0.64,5.235,1.683,7.016,1.245
						c1.168-0.114,3.242-1.162,3.859-2.003l0.136-0.164c0.248-0.241,0.365-0.617,0.554-0.896c0.108-0.376,0.295-0.64,0.387-1.028
						c0.059-0.18,0.123-0.353,0.203-0.518c0.066-0.182,0.116-0.38,0.198-0.56c0.182-0.343,0.326-0.761,0.575-1.146l0.119-0.223
						c0.109-0.24,0.186-0.566,0.244-0.856c0.287-0.955,0.577-3.412,0.519-6.158c-0.033-1.532-0.148-3.786-0.938-5.551
						c-0.654-1.464-2.275-3.958-3.535-5.666c-2.082-2.88-6.17-6.902-8.597-8.167c-0.102-0.109-0.214-0.2-0.325-0.282
						c-2.688-1.879-5.766-3.492-8.292-6.066L87.214,60c-1.152-1.233-7.045-6.751-7.651-7.616c-1.468-2.094-2.231-3.742-2.862-5.631
						c-0.563-1.943-0.919-3.861-0.719-6.125l0.119-0.729c0.211-1.269,0.672-2.698,1.243-3.927c0.614-1.237,1.352-2.405,2.282-3.402
						c1.814-2.04,4.225-3.447,6.837-4.264c0.271-0.069,0.524-0.109,0.778-0.153c2.328-0.444,4.333-0.384,6.313-0.105
						c1.956,0.285,3.79,0.827,5.52,1.548l0.572,0.2c1.506,0.565,4.375,2.4,5.777,3.368c4.402,3.042,4.441,7.937,1.74,10.852
						c-0.277,0.3-1.066,1.659-3.888,1.619c-1.327-0.018-4.349-2.986-6.519-4.348c-0.843-0.527-1.76-0.7-2.563-0.982l-0.267-0.095
						c-1.646-0.113-3.909-0.523-4.889,0.279c-0.103,0.147-0.143,0.327-0.175,0.493c-0.041,0.176-0.029,0.279-0.07,0.604
						c-0.016,0.043-0.021,0.104-0.022,0.181c-0.033,2.026,0.129,3.014,1.181,4.227c1.33,1.532,3.278,3.051,5.255,4.853
						c0,0,3.907,2.498,7.243,5.378c0.716,0.619,5.057,5.419,7.438,7.637l0.338,0.322c1.318,1.819,2.886,3.396,4.414,5.174
						c1.526,1.75,3.084,3.642,4.185,5.878l0.236,0.479c0.874,2.867,1.72,5.778,2.07,8.765l0.045,0.526
						c0.017,3.75-0.477,7.291-1.241,10.651c-0.05,0.181-0.1,0.362-0.151,0.55c-0.903,3.412-2.667,7.091-5.726,9.777l-0.452,0.402
						c-2.684,1.106-4.938,2.359-7.427,3.227c-2.451,0.852-12.663,0.8-14.749-0.021c-2.11-0.814-3.912-2.182-5.684-3.438
						l-0.435-0.298c-2.999-1.771-6.378-3.619-8.593-6.699c-0.108-0.142-0.208-0.288-0.3-0.448c0.936-2.057,0.629-3.017-0.212-3.79
						c-0.863-0.741-2.234-1.317-3.288-2.146c-0.507-0.42-0.933-0.895-1.144-1.438c-0.191-0.553-0.144-1.187,0.24-1.868
						c0.745-1.352,3.067-2.992,7.772-4.439C81.603,84.949,83.563,90.342,88.841,93.95z"/>
					<path d="M286.168-159.869c-2.914-0.613-13.325-1.24-28.193,5.695c-10.794,5.036-20.133,10.393-26.296,15.414
						c-6.17,5.028-11.879,10.606-17.629,16.14c-0.562,0.557-1.106,1.098-1.649,1.637c-13.544,13.403-26.309,28.603-34.521,46.141
						l-1.157,2.03c-5.211,9.128-10.158,18.423-14.54,28.026c-4.323,9.609-8.215,19.522-10.865,29.743l-0.568,2.114
						c-0.457,1.76-0.839,3.526-1.252,5.286c-0.324,1.753-0.745,3.526-0.989,5.257l-0.409,2.605l-0.29,2.544
						c-0.165,1.724-0.248,3.517-0.389,5.267c-0.359,7.048-0.118,14.077,0.566,21.032c0.087,0.658,0.167,1.291,0.253,1.924
						c0.131,0.94,0.262,1.885,0.396,2.828c0.193,0.936,0.388,1.872,0.584,2.814c1.993,6.561,4.631,12.7,7.531,18.614
						c2.918,5.912,6.055,11.629,9.439,17.539l1.407,1.592c7.985,9.056,17.905,15.986,28.835,21.11
						c0.707,0.256,1.383,0.501,2.056,0.743c4.921,1.596,10.011,2.676,15.167,3.213c5.175,0.458,10.379,0.542,15.588,0.183
						c1.304-0.052,2.604-0.253,3.903-0.361c1.3-0.128,2.601-0.229,3.896-0.458l3.898-0.558c1.28-0.209,2.504-0.516,3.766-0.753
						c1.247-0.276,2.529-0.43,3.762-0.775l3.708-1.005l1.873-0.476c0.61-0.187,1.216-0.414,1.825-0.615l3.693-1.202
						c0.707-0.244,1.372-0.589,2.042-0.923c6.509-2.895,12.545-6.97,18.119-11.591c2.841-2.261,5.393-4.887,7.957-7.469l3.622-4.118
						c1.209-1.361,2.26-2.878,3.38-4.319c0.529-0.602,1.024-1.2,1.508-1.8c10.732-14.182,18.522-30.455,25.458-46.742l0.874-2.074
						c3.163-7.612,5.98-15.415,8.274-23.461c-0.117,0.433-0.117,0.433-0.239,0.866c2.23-7.787,3.098-15.899,4.419-23.903
						c0.136-0.764,0.273-1.504,0.377-2.248c1.117-7.015,1.901-14.084,2.203-20.998c0.137-3.444,0.187-6.883-0.011-10.075
						c-0.329-3.321-0.558-6.735-1.181-10.013l-0.292-2.092c-1.247-7.254-3.469-14.252-6.872-20.61
						c-3.395-6.354-8.066-11.97-13.719-16.445c-0.551-0.47-1.081-0.92-1.612-1.373c-10.197-7.869-23.332-11.753-36.55-11.599
						l-2.133,0.087c-5.679,0.38-11.342,1.563-16.78,3.546l-1.996,0.572l-1.626,0.434l-1.604,0.526l-3.234,0.999l-3.19,1.176
						c-1.074,0.38-2.144,0.775-3.175,1.27l-3.137,1.415c-1.037,0.497-2.025,1.094-3.038,1.652c-2.046,1.082-3.921,2.478-5.79,3.882
						c-0.624,0.402-1.207,0.826-1.775,1.266l-1.727,1.287l-0.912,0.759c-0.612,0.498-1.193,1.037-1.738,1.624l-0.964,0.814
						c-3.008,2.287-5.989,4.148-10.704,2.379c-0.447-0.233-0.868-0.508-1.255-0.816c-1.151-0.937-1.966-2.222-1.982-3.889
						c0.918-2.428,3.142-4.753,4.736-6.953l1.106-1.137l1.391-1.418l1.479-1.324l1.847-1.618c0.625-0.531,1.225-1.095,1.879-1.603
						c4.046-3.555,8.537-6.573,13.407-8.8c2.376-1.229,4.909-2.117,7.392-3.088c1.233-0.5,2.54-0.83,3.8-1.255
						c1.283-0.377,2.529-0.86,3.834-1.157l2.386-0.632c7.322-2.364,14.931-3.664,22.592-3.83c0.853-0.018,1.708-0.032,2.574-0.049
						c14.55-0.353,29.58,4.097,41.718,12.908c0.716,0.512,1.458,0.986,2.122,1.569c7.735,6.094,14.296,13.584,19.047,22.019
						c4.741,8.436,7.828,17.637,9.389,26.964c0.137,0.851,0.271,1.703,0.409,2.565c0.388,1.791,0.465,3.594,0.696,5.393
						c0.201,1.794,0.401,3.588,0.433,5.467c0.163,3.721-0.011,7.267-0.227,10.812c-0.502,7.047-1.526,13.904-2.808,20.69
						l-0.453,2.393c-2.812,17.086-7.113,33.932-13.434,50.146l-0.918,2.309c-2.813,8.179-6.449,16.018-10.487,23.629
						c-4.099,7.598-8.607,14.95-13.279,22.325c-0.834,1.311-1.713,2.594-2.628,3.851c-0.444,0.637-0.967,1.223-1.466,1.819
						c-5.979,6.176-12.299,12.038-19.04,17.424c-6.75,5.372-14.001,10.24-21.891,14.076l-2.304,0.995l-4.154,1.607
						c-1.373,0.552-2.831,0.896-4.236,1.357c-1.42,0.424-2.827,0.898-4.253,1.287l-4.331,0.973
						c-5.765,1.347-11.456,2.023-17.293,2.487c-5.821,0.43-11.711,0.271-17.584-0.277c-5.866-0.671-11.695-1.904-17.367-3.726
						c-0.801-0.289-1.604-0.578-2.409-0.872c-13.275-5.35-25.479-13.794-34.961-24.673l-1.657-1.929
						c-11.147-14.159-18.156-31.042-20.939-48.372c-0.134-0.834-0.268-1.668-0.408-2.529c-1.136-7.983-1.396-16.096-0.814-24.149
						c0.198-2.016,0.346-4.009,0.594-6.042l0.441-3.079l0.553-2.996c0.35-2.009,0.85-3.921,1.269-5.885
						c0.504-1.917,0.965-3.855,1.504-5.755c0.214-0.759,0.433-1.519,0.652-2.289c4.037-10.249,7.707-20.512,11.78-30.706
						c4.105-10.153,12.36-23.281,16.185-31.19c4.502-9.313,9.179-18.507,15.354-26.784c6.184-8.284,13.188-15.945,20.494-23.265
						c0.589-0.59,1.174-1.178,1.771-1.773c5.911-5.962,12.006-11.944,18.763-17.296c21.701-13.868,45.375-21.903,46.754-22.447
						c2.66-1.12,5.482-2.092,8.466-2.66c2.977-0.571,6.134-0.737,9.308-0.176c3.156,0.555,6.37,1.822,9.093,4.244
						c1.345,1.208,2.572,2.71,3.417,4.565c0.839,1.828,1.277,4.12,0.748,6.242c-0.479,2.139-2.051,3.72-3.664,4.148
						C293.922-155.464,287.593-159.566,286.168-159.869z"/>
					<path d="M32.219,41.896c0.064,0.49,0.249,1.102,0.39,1.747c0.073,0.325,0.135,0.655,0.163,0.984
						c-0.361,2.58-1.642,3.862-2.922,5.141c-2.561,1.28-6.401,0-7.799-3.793c-0.117-0.249-0.219-0.508-0.302-0.776
						c-0.098-0.308-2.687-8.74,2.978-10.795c0.337-0.112,0.665-0.185,0.981-0.223c1.579-0.186,2.897,0.514,3.876,1.642
						C29.779,36.051,32.17,41.562,32.219,41.896z"/>
				</g>
			</g>
		</g>
		<circle fill="none" stroke="#B5B5B6" stroke-width="2" stroke-miterlimit="10" cx="70.681" cy="73.554" r="58.75"/>
	</g>
	<g>
		<g>
			<defs>
				<circle id="SVGID_3_" cx="211.904" cy="73.554" r="58.75"/>
			</defs>
			<clipPath id="SVGID_4_">
				<use xlink:href="#SVGID_3_"  overflow="visible"/>
			</clipPath>
			<g clip-path="url(#SVGID_4_)">
				<g>
					<path d="M340.986,170.5c-0.346,0-0.695-0.032-1.049-0.097c-3.115-0.577-5.172-3.57-4.596-6.684c0,0,2.613-23.357,4.479-24.169
						c2.277-0.994,23.182-7,23.182-7c3.033-0.918,6.232,0.801,7.15,3.832c0.914,3.032-0.803,6.232-3.834,7.147
						c0,0-15.566,4.028-16.494,4.98c-0.873,0.894-3.203,17.298-3.203,17.298C346.109,168.57,343.697,170.5,340.986,170.5z"/>
					<path d="M-230.723,252.955c-0.477,0.634-0.461,1.741-0.568,2.092c-0.039,0.611,0.033,0.867,0.166,1.103
						c0.135,0.238,0.498,0.599,1.186,0.957c0.715,0.343,1.678,0.616,2.707,0.822c2.139,0.352,4.58,0.354,7.037,0.106
						c2.463-0.246,4.961-0.739,7.414-1.394c2.453-0.655,4.867-1.475,7.188-2.434c1.158-0.485,2.297-0.997,3.404-1.544
						c1.074-0.527,2.223-1.184,3.373-1.814c4.578-2.551,9.063-5.437,13.625-8.37c0.764-0.648,1.521-1.29,2.279-1.932
						c7.855-6.895,14.855-14.847,21.334-23.177c6.477-8.346,12.463-17.079,18.293-25.917c0.568-0.877,1.121-1.73,1.674-2.583
						c6.875-10.614,13.377-21.563,19.154-32.87c5.76-11.304,10.824-22.977,14.553-34.943l1.018-2.863
						c2.242-6.446,4.289-12.941,5.893-19.478c0.797-3.267,1.488-6.542,1.992-9.803c0.5-3.252,0.816-6.507,0.764-9.595
						c-0.002-1.553-0.166-3.021-0.406-4.382c-0.246-1.359-0.693-2.514-1.17-3.295c-0.508-0.783-0.912-1.088-1.527-1.302
						c-0.357-0.161-0.521-0.138-0.721-0.135c-0.186,0.017-0.408,0.073-0.73,0.25c-0.641,0.352-1.533,1.176-2.322,2.287
						c-0.803,1.091-1.545,2.417-2.215,3.822c-1.34,2.822-2.404,5.976-3.297,9.203c-0.252,0.893-0.49,1.793-0.715,2.701
						c-2.248,9.085-3.449,18.641-4.291,28.181c-0.824,9.558-1.236,19.16-1.475,28.715c-0.014,0.907-0.027,1.782-0.039,2.655
						c-0.027,2.596-0.01,5.207,0.063,7.836c0.619,9.338,1.607,18.477,2.785,27.537c1.191,9.062,2.537,18.044,4.178,27.089
						l0.803,2.778c1.17,3.916,2.518,7.757,4.113,11.424c1.594,3.658,3.426,7.169,5.602,10.254c2.166,3.083,4.693,5.733,7.52,7.411
						c2.814,1.706,5.906,2.379,9.307,2.046c0.861-0.123,1.686-0.285,2.508-0.515c2.973-0.805,5.932-2.193,8.758-3.947
						c2.834-1.74,5.549-3.821,8.15-6.079c5.205-4.537,9.975-9.761,14.473-15.223c8.992-10.968,16.977-22.88,24.824-34.807l1.6-2.652
						c10.057-16.851,18.936-34.567,26.217-52.738c0.436-0.981,0.834-1.939,1.229-2.892c4.479-10.967,8.518-22.096,12.061-33.297
						c3.527-11.195,6.643-22.478,8.777-33.711l0.514-2.843c0.861-5.197,1.473-10.457,1.291-15.438
						c-0.096-2.465-0.432-4.89-1.133-6.779c-0.348-0.927-0.779-1.713-1.225-2.163c-0.443-0.476-0.824-0.689-1.398-0.83
						c0.242,0.058,0.24,0.061,0.453,0.143c-0.232-0.098-0.502-0.164-0.82-0.197c-0.154-0.028-0.346-0.008-0.516-0.027
						c-0.105,0.035-0.195-0.001-0.301,0.048c-0.395,0.077-0.961,0.344-1.604,0.91c-1.299,1.111-2.611,3.04-3.689,5.125
						c-2.191,4.236-3.793,9.153-5.291,14.107c-0.279,0.955-0.549,1.882-0.818,2.812c-2.451,8.827-4.18,17.991-5.625,27.204
						c-1.434,9.224-2.541,18.536-3.484,27.889l-0.313,2.941c-2.113,20.596-3.072,41.255-2.277,62.125
						c0.031,1.049,0.059,2.056,0.086,3.063c0.338,9.281,1.01,18.535,2.162,27.706c1.162,9.162,2.775,18.278,5.277,27.029
						c0.275,0.938,0.572,1.864,0.873,2.787c1.219,3.68,2.633,7.273,4.363,10.587c1.721,3.298,3.779,6.359,6.135,8.586
						c0.543,0.542,1.084,1.066,1.641,1.513c1.813,1.486,3.623,2.351,5.615,2.627c1,0.136,2.064,0.125,3.193-0.048
						c0.619-0.066,1.02-0.239,1.484-0.349c0.115-0.033,0.232-0.049,0.35-0.09l0.354-0.171l0.717-0.317
						c1.932-0.969,3.797-2.7,5.178-4.796c1.396-2.103,2.34-4.574,2.781-7.168c0.096-0.837,0.318-1.625,0.352-2.448
						c0.025-0.821,0.107-1.638,0.113-2.467c-0.045-0.456-0.09-0.913-0.137-1.373l-0.139-1.37l-0.32-1.372
						c-0.084-0.492-0.166-0.981-0.248-1.467c-0.887-4.403-2.406-8.417-0.945-12.144c0.199-0.314,0.43-0.586,0.691-0.797
						c0.793-0.627,1.887-0.708,3.334,0.274c0.529,0.598,1.051,1.283,1.572,2.019c0.498,0.745,0.896,1.597,1.346,2.436
						c0.939,1.66,1.566,3.517,2.297,5.163c0.258,0.663,0.4,1.362,0.559,2.06l0.584,2.619c0.119,0.891,0.205,1.792,0.303,2.69
						c0.16,1.105,0.129,2.232,0.109,3.361l-0.029,1.697c-0.072,0.564-0.143,1.132-0.215,1.701
						c-0.645,7.417-4.557,14.763-11.26,19.123c-1.666,1.097-3.588,1.919-5.643,2.465c-1.934,0.475-3.891,0.674-5.926,0.59
						c-4.066-0.138-8.074-1.74-11.141-4.066c-0.957-0.708-1.842-1.478-2.672-2.278c-3.949-3.692-6.613-8.057-8.783-12.437
						c-2.152-4.405-3.791-8.916-5.148-13.45c-0.305-1.012-0.59-2.025-0.873-3.056c-2.5-8.595-4.1-17.347-5.24-26.124
						c-1.135-8.78-1.789-17.596-2.15-26.412l-0.113-3.112c-0.752-23.216-0.254-46.028,1.953-68.847
						c0.107-1.038,0.215-2.079,0.326-3.131c0.814-8.792,1.93-17.533,3.398-26.216c1.48-8.685,3.287-17.318,5.734-25.88
						c0.287-1.007,0.594-2.012,0.902-3.017c1.586-5.393,3.381-10.773,6.115-16.115c1.416-2.661,3-5.352,5.576-7.914
						c1.311-1.256,2.926-2.528,5.129-3.345c1.105-0.394,2.332-0.653,3.59-0.68c0.592-0.01,1.078,0.018,1.633,0.061
						c0.557,0.08,1.096,0.127,1.664,0.284c1.123,0.239,2.248,0.727,3.285,1.309c1.016,0.62,1.953,1.364,2.701,2.187
						c1.549,1.645,2.443,3.431,3.113,5.113c1.279,3.386,1.66,6.532,1.848,9.563c0.309,6.052-0.307,11.741-1.156,17.34l-0.537,3.18
						c-1.686,11.054-4.617,21.623-7.887,31.99c-3.291,10.365-6.977,20.515-10.646,30.68c-0.645,1.812-1.334,3.605-2.063,5.379
						c-0.359,0.89-0.732,1.774-1.115,2.656c-9.305,18.955-18.66,37.853-29.318,56.188c-0.514,0.871-1.029,1.739-1.545,2.611
						c-7.623,12.178-15.553,24.144-24.725,35.343c-4.609,5.579-9.535,10.968-15.137,15.843c-2.809,2.429-5.793,4.724-9.041,6.764
						c-3.268,2.011-6.789,3.808-10.715,4.976c-1.117,0.336-2.27,0.608-3.449,0.833c-2.461,0.404-5.176,0.535-7.809,0.156
						c-2.65-0.36-5.24-1.203-7.576-2.403c-4.697-2.421-8.27-6.053-11.104-9.848c-2.832-3.831-5.016-7.913-6.861-12.06
						c-1.838-4.152-3.332-8.385-4.617-12.649c-0.297-1.004-0.592-2.01-0.865-3.019c-2.805-10.735-4.486-21.569-5.627-32.395
						c-1.127-10.83-1.656-21.665-1.725-32.478c-0.002-1.041-0.002-2.08-0.004-3.153c0.039-9.93,0.486-19.886,1.441-29.843
						c0.986-9.956,2.396-19.913,4.957-29.824c0.256-0.991,0.531-1.984,0.826-2.988c1.188-3.397,2.484-6.794,4.197-10.171
						c0.863-1.685,1.82-3.369,3.055-5.02c1.227-1.633,2.709-3.306,4.92-4.613c1.105-0.639,2.428-1.15,3.85-1.339
						c1.408-0.193,2.912-0.063,4.137,0.339c0.629,0.19,1.258,0.366,1.852,0.704c0.602,0.305,1.203,0.611,1.715,1.043
						c0.531,0.404,1.064,0.821,1.471,1.307c0.434,0.474,0.879,0.956,1.186,1.466c1.389,2.027,2.127,4.142,2.566,6.131
						c0.137,0.508,0.225,1.002,0.301,1.492c0.076,0.492,0.17,0.99,0.229,1.479c0.082,0.962,0.219,1.948,0.234,2.89
						c0.17,3.812-0.104,7.479-0.561,11.076c-0.463,3.597-1.131,7.117-1.926,10.588c-1.615,6.931-3.75,13.648-6.281,20.154
						l-1.162,2.873c-3.502,12.722-8.588,24.91-14.445,36.654c-5.877,11.745-12.58,23.037-19.676,34.049
						c-0.568,0.881-1.139,1.765-1.719,2.661c-5.742,8.947-11.82,17.834-18.506,26.371c-6.695,8.522-21.324,23.37-24.76,25.973
						c-11.01,8.343-17.896,13.414-33.205,18.338c-3.48,0.763-10.352,1.401-14.113,1.078c-1.867-0.139-3.811-0.538-5.76-1.236
						c-1.932-0.709-3.98-1.8-5.711-3.696c-0.422-0.47-0.809-1.028-1.172-1.55c-0.344-0.553-0.619-1.183-0.877-1.774
						c-0.225-0.616-0.359-1.262-0.49-1.883c-0.09-0.623-0.084-1.238-0.088-1.838c0.145-2.375,1.088-4.183,2.135-5.631
						c2.236-2.793,5.627-7.081,8.275-5.198C-227.781,246.998-227.568,248.751-230.723,252.955z"/>
					<path d="M240.258,51.766c-2.313-0.486-10.578-0.984-22.383,4.522c-8.57,3.998-15.984,8.25-20.877,12.238
						c-4.896,3.992-9.43,8.42-13.996,12.813c-0.445,0.441-0.877,0.872-1.309,1.299c-10.754,10.641-20.887,22.708-27.408,36.632
						l-0.918,1.612c-4.137,7.248-8.064,14.626-11.545,22.251c-3.43,7.628-6.521,15.499-8.625,23.613l-0.451,1.678
						c-0.363,1.397-0.666,2.8-0.994,4.197c-0.258,1.392-0.592,2.8-0.785,4.173l-0.324,2.069l-0.23,2.02
						c-0.131,1.368-0.197,2.792-0.309,4.181c-0.285,5.595-0.094,11.176,0.449,16.698c0.068,0.523,0.133,1.024,0.201,1.527
						c0.104,0.747,0.207,1.497,0.314,2.246c0.152,0.743,0.309,1.486,0.463,2.235c1.582,5.208,3.678,10.083,5.98,14.777
						c2.316,4.694,4.807,9.232,7.492,13.924l1.119,1.264c6.34,7.19,14.215,12.692,22.893,16.76c0.561,0.203,1.098,0.397,1.633,0.59
						c3.906,1.267,7.945,2.124,12.039,2.551c4.109,0.364,8.242,0.431,12.377,0.145c1.035-0.041,2.066-0.2,3.098-0.287
						c1.033-0.101,2.066-0.182,3.094-0.363l3.096-0.443c1.016-0.166,1.986-0.409,2.988-0.597c0.99-0.22,2.008-0.342,2.986-0.616
						l2.945-0.798l1.486-0.377c0.484-0.149,0.965-0.329,1.449-0.489l2.932-0.954c0.563-0.194,1.09-0.468,1.623-0.733
						c5.166-2.298,9.957-5.533,14.385-9.202c2.254-1.794,4.279-3.879,6.316-5.929l2.875-3.271c0.961-1.081,1.795-2.284,2.684-3.429
						c0.42-0.478,0.813-0.953,1.197-1.429c8.521-11.259,14.705-24.179,20.213-37.109l0.691-1.647
						c2.514-6.044,4.75-12.238,6.57-18.626c-0.092,0.343-0.092,0.343-0.189,0.688c1.77-6.183,2.459-12.624,3.508-18.977
						c0.107-0.607,0.217-1.194,0.301-1.786c0.887-5.569,1.508-11.181,1.748-16.67c0.107-2.734,0.148-5.465-0.01-8
						c-0.26-2.637-0.441-5.347-0.936-7.949l-0.232-1.661c-0.99-5.758-2.754-11.314-5.457-16.362
						c-2.695-5.045-6.404-9.503-10.891-13.057c-0.438-0.372-0.857-0.73-1.281-1.09c-8.094-6.247-18.523-9.331-29.018-9.208
						l-1.691,0.069c-4.51,0.301-9.006,1.241-13.322,2.814l-1.584,0.455l-1.293,0.344l-1.273,0.418l-2.566,0.792l-2.533,0.934
						c-0.854,0.301-1.703,0.615-2.52,1.008l-2.492,1.123c-0.822,0.395-1.607,0.869-2.412,1.312
						c-1.623,0.858-3.111,1.967-4.596,3.082c-0.496,0.32-0.959,0.656-1.408,1.004l-1.373,1.022l-0.725,0.603
						c-0.486,0.395-0.945,0.824-1.379,1.289l-0.766,0.647c-2.389,1.815-4.756,3.292-8.498,1.889
						c-0.355-0.186-0.689-0.404-0.996-0.648c-0.914-0.743-1.563-1.763-1.574-3.088c0.729-1.927,2.494-3.773,3.76-5.52l0.879-0.902
						l1.104-1.126l1.176-1.051l1.465-1.285c0.496-0.422,0.973-0.869,1.492-1.273c3.211-2.822,6.777-5.218,10.643-6.986
						c1.887-0.977,3.898-1.681,5.869-2.451c0.979-0.397,2.018-0.66,3.018-0.997c1.02-0.299,2.008-0.683,3.043-0.919l1.895-0.501
						c5.813-1.877,11.854-2.909,17.936-3.041c0.678-0.015,1.357-0.026,2.045-0.039c11.551-0.28,23.484,3.251,33.119,10.247
						c0.568,0.407,1.158,0.784,1.686,1.247c6.141,4.838,11.35,10.784,15.123,17.48c3.762,6.698,6.213,14.003,7.453,21.408
						c0.107,0.675,0.215,1.352,0.324,2.036c0.307,1.421,0.369,2.853,0.553,4.281c0.16,1.424,0.318,2.848,0.342,4.34
						c0.131,2.954-0.006,5.769-0.178,8.583c-0.398,5.594-1.213,11.039-2.23,16.426l-0.359,1.9
						c-2.23,13.564-5.646,26.938-10.664,39.812l-0.729,1.833c-2.234,6.493-5.121,12.716-8.326,18.759
						c-3.254,6.032-6.834,11.869-10.543,17.724c-0.662,1.041-1.359,2.06-2.086,3.058c-0.354,0.505-0.768,0.97-1.164,1.443
						c-4.746,4.903-9.766,9.559-15.117,13.833c-5.359,4.265-11.115,8.13-17.379,11.176l-1.83,0.79l-3.297,1.277
						c-1.09,0.438-2.248,0.712-3.363,1.077c-1.129,0.336-2.244,0.714-3.377,1.021l-3.438,0.773
						c-4.578,1.069-9.096,1.606-13.73,1.975c-4.621,0.34-9.297,0.215-13.959-0.221c-4.658-0.532-9.287-1.512-13.789-2.957
						c-0.635-0.23-1.273-0.459-1.912-0.692c-10.539-4.248-20.229-10.952-27.756-19.589l-1.316-1.531
						c-8.85-11.241-14.416-24.646-16.623-38.404c-0.107-0.661-0.213-1.324-0.324-2.007c-0.902-6.338-1.109-12.779-0.646-19.173
						c0.156-1.6,0.273-3.183,0.471-4.797l0.35-2.445l0.439-2.378c0.277-1.595,0.674-3.113,1.008-4.672
						c0.398-1.522,0.764-3.061,1.193-4.569c0.17-0.602,0.344-1.205,0.518-1.817c3.205-8.136,6.119-16.284,9.352-24.378
						c3.26-8.06,9.814-18.484,12.85-24.763c3.574-7.393,7.287-14.693,12.189-21.264c4.91-6.577,10.471-12.66,16.271-18.47
						c0.467-0.469,0.932-0.936,1.406-1.408c4.693-4.734,9.531-9.483,14.896-13.731c17.229-11.011,36.023-17.39,37.119-17.822
						c2.111-0.889,4.352-1.661,6.721-2.112c2.363-0.453,4.869-0.585,7.389-0.139c2.506,0.441,5.059,1.447,7.219,3.37
						c1.068,0.959,2.043,2.151,2.713,3.624c0.666,1.452,1.014,3.271,0.594,4.956c-0.379,1.699-1.627,2.953-2.908,3.294
						C246.414,55.263,241.389,52.006,240.258,51.766z"/>
				</g>
			</g>
		</g>
		<circle fill="none" stroke="#B5B5B6" stroke-width="2.3818" stroke-miterlimit="10" cx="211.904" cy="73.554" r="58.75"/>
	</g>
	<g>
		<g>
			<defs>
				<circle id="SVGID_5_" cx="353.127" cy="73.554" r="58.75"/>
			</defs>
			<clipPath id="SVGID_6_">
				<use xlink:href="#SVGID_5_"  overflow="visible"/>
			</clipPath>
			<g clip-path="url(#SVGID_6_)">
				<g>
					<path d="M366.035,101.283c-3.241-0.812-23.465-4.815-23.465-4.815c-1.308-0.414-2.738-0.718-3.923-1.296
						c-0.624-0.266-1.239-0.512-1.884-0.798l-0.965-0.421l-0.486-0.211l-0.121-0.054c-0.044-0.016-0.093-0.03-0.065-0.08
						l0.046-0.243l0.732-3.962c0.133-0.679,0.223-1.319,0.418-2.069l0.263-1.096l0.067-0.274l0.032-0.138l0.015-0.075l0.053-0.279
						l0.436-2.225c0.252-1.512,0.59-2.987,0.898-4.499c0.063-0.297,0.125-0.587,0.186-0.875c1.596-7.169,3.404-14.546,3.229-22.02
						l0.093-0.896l0.764-6.719l0.193-1.681l0.046-0.42l0.069-0.732l0.144-1.539c0.169-2.038,0.337-4.078,0.505-6.121
						c3.064,0.027,6.136,0.056,9.215,0.083c1.834,0.014,3.672,0.003,5.52-0.048l0.864-0.013c5.754-0.089,11.571-0.398,17.323,0.185
						c0.273,0.022,0.536,0.044,0.8,0.065c0.783,0.069,1.571,0.131,2.368,0.172c0.93-0.06,1.867-0.097,2.803-0.126
						c0.467-0.013,0.935-0.026,1.4-0.04c0.471-0.003,0.949,0.005,1.422,0.011l0.355,0.008c0.072,0.003,0.088-0.001,0.208,0.008
						l0.323,0.023l1.295,0.096c0.855,0.095,1.703,0.242,2.558,0.369c1.704,0.249,3.413,0.603,5.065,0.969
						c-0.064,1.864-0.17,3.738-0.334,5.559l-0.062,0.682l-0.09,0.641c-0.066,0.419-0.132,0.838-0.198,1.26
						c-0.072,0.409-0.145,0.82-0.216,1.232c-0.075,0.289-0.151,0.505-0.232,0.761l-0.077,0.925
						c-0.486,5.213-1.387,10.354-3.161,15.239c-0.079,0.313-0.153,0.611-0.229,0.907c-1.044,4.298-2.169,8.613-3.733,12.797
						c-1.544,4.182-3.559,8.24-6.283,11.829c-0.165,0.277-0.353,0.545-0.527,0.816c-1.671,2.582-3.504,5.086-5.533,7.475
						c-2.032,2.387-4.26,4.664-6.795,6.729c-0.301,0.197-0.582,0.399-0.858,0.603c-0.397,0.296-0.836,0.549-1.251,0.825
						c-0.421,0.267-0.857,0.557-1.232,0.763l-2.33,1.355c-0.77,0.462-1.568,0.876-2.354,1.315c-0.789,0.431-1.571,0.872-2.378,1.271
						c-3.181,1.675-6.479,3.132-9.85,4.335l-0.858,0.292c-3.154,1.06-6.351,2.016-9.623,2.865c0.176-0.047,0.176-0.047,0.35-0.096
						c-3.146,0.843-6.236,2.132-9.559,2.738c-0.316,0.051-0.625,0.1-0.934,0.149c-5.813,0.965-11.885,1.291-17.906,0.374
						l-0.94-0.168c-6.582-1.279-12.873-3.728-18.749-7.065c-0.285-0.183-0.561-0.358-0.836-0.536
						c-2.547-1.601-4.961-3.399-7.228-5.374c-2.268-1.972-4.398-4.112-6.346-6.433l-0.647-0.731
						c-1.703-1.976-3.337-4.042-4.945-6.237c-0.172-0.275-0.32-0.563-0.475-0.851c-0.991-1.86-1.726-3.858-2.354-5.909
						c-0.63-2.056-1.155-4.155-1.694-6.395c-0.069-0.358-0.111-0.717-0.149-1.076c-0.042-0.355-0.077-0.715-0.093-1.087
						c-0.025-0.201-0.051-0.402-0.075-0.605c-0.041-0.418-0.082-0.838-0.124-1.26c0.007-0.234,0.019-0.468,0.037-0.699
						c0.028-0.507,0.154-1.063,0.311-1.55c0.199-0.522,0.425-0.979,0.801-1.411c0.687-0.823,1.842-1.38,3.218-1.142
						c0.272,0.079,0.536,0.189,0.788,0.321c0.754,0.397,1.414,1.006,1.916,1.523c0.082,0.193,0.145,0.386,0.172,0.555
						c0.048,0.195,0.067,0.378,0.087,0.567c0.034,0.203,0.048,0.391,0.089,0.59c0.047,0.206,0.098,0.399,0.18,0.585l0.057,0.449
						c0.016,0.184,0.055,0.38,0.087,0.572c0.031,0.192,0.059,0.381,0.106,0.579c0.055,0.244,0.086,0.479,0.151,0.726
						c0.06,0.244,0.119,0.488,0.179,0.735c0.623,1.57,1.11,3.167,1.644,4.801c0.534,1.627,1.103,3.286,1.866,4.876l0.364,0.729
						c1.416,2.119,2.901,4.139,4.521,6.035c0.181,0.211,0.36,0.422,0.544,0.637c3.321,3.367,6.835,6.5,10.767,9.113
						c0.227,0.161,0.467,0.298,0.699,0.45c2.621,1.669,5.447,2.952,8.358,3.93c2.91,0.994,5.921,1.638,8.972,2.095
						c0.275,0.042,0.555,0.086,0.836,0.13c4.744,0.41,9.506,0.438,14.284-0.069l0.843-0.09c5.957-1.044,11.766-2.929,17.505-5.075
						l0.821-0.306c2.748-1.333,5.537-2.508,8.271-3.828c2.736-1.282,5.444-2.749,7.9-4.473c0.351-0.293,0.714-0.553,1.092-0.792
						c0.189-0.121,0.371-0.266,0.564-0.388c2.355-1.022,4.551-2.741,6.453-4.79c1.91-2.053,3.55-4.436,5.005-6.947
						c0.146-0.234,0.274-0.483,0.413-0.724c2.173-3.307,3.837-6.966,5.181-10.728c1.36-3.762,2.407-7.635,3.384-11.51
						c0.071-0.277,0.144-0.554,0.215-0.833c1.43-4.59,2.336-9.406,2.856-14.184l0.082-0.842l0.095-0.698l0.031-0.218l0.02-0.121
						l0.073-0.464c0.038-0.222,0.067-0.458,0.089-0.701c-0.195-0.093-0.456-0.138-0.703-0.185c-0.123-0.025-0.263-0.045-0.408-0.063
						l-1.508-0.15c-1.051-0.078-2.103-0.157-3.152-0.234l-3.182-0.173c-0.297-0.013-0.596-0.026-0.904-0.039
						c-5.694-0.246-11.461-0.366-17.23-0.428c-0.289-0.002-0.578-0.004-0.87-0.007c-1.793-0.288-3.597-0.426-5.405-0.48
						l-0.929-0.021c-0.157-0.002-0.314,0-0.47,0.005c-0.307,0.015-0.617,0.025-0.875,0.074l0.035,1.162l0.005,0.266l0.003,0.131
						l-0.023,0.42c-0.029,0.568-0.071,1.135-0.114,1.7c-0.173,2.264-0.449,4.514-0.944,6.728c0,0-1.225,16.292-2.841,23.875
						c-0.063,0.306-0.126,0.611-0.188,0.921c-0.28,1.56-0.561,3.127-0.844,4.701c-0.142,0.79-0.317,1.586-0.473,2.383l-0.061,0.298
						l-0.03,0.149c-0.007,0.04-0.001,0.029-0.004,0.045v0.117c0.003,0.072-0.003,0.153-0.007,0.229l-0.015,0.412l-0.002,0.046
						c0.005,0.011,0.038,0.011,0.056,0.019l0.119,0.032c0.077,0.023,0.154,0.036,0.228,0.05l0.403,0.083
						c0,0,15.427,3.607,26.303,5.769c-0.686,1.144-4.75,6.028-5.527,6.608C366.191,101.304,366.106,101.308,366.035,101.283z"/>
					<path d="M370.992,45.306c-0.275,0-0.556-0.025-0.837-0.077c-2.487-0.46-4.13-2.851-3.67-5.337c0,0,2.086-18.653,3.575-19.301
						c1.818-0.793,18.514-5.589,18.514-5.589c2.422-0.733,4.977,0.639,5.708,3.06c0.731,2.421-0.64,4.977-3.062,5.708
						c0,0-12.43,3.216-13.171,3.977c-0.697,0.714-2.559,13.814-2.559,13.814C375.083,43.765,373.158,45.306,370.992,45.306z"/>
					<path d="M-85.551,111.15c-0.38,0.506-0.367,1.39-0.453,1.671c-0.031,0.488,0.026,0.692,0.132,0.88
						c0.106,0.19,0.397,0.478,0.947,0.764c0.569,0.274,1.339,0.493,2.161,0.658c1.707,0.281,3.658,0.282,5.618,0.084
						c1.968-0.196,3.964-0.59,5.923-1.113c1.958-0.523,3.886-1.177,5.739-1.943c0.925-0.387,1.834-0.796,2.717-1.232
						c0.86-0.421,1.776-0.945,2.693-1.45c3.657-2.036,7.237-4.342,10.881-6.683c0.611-0.517,1.216-1.03,1.821-1.543
						c6.274-5.506,11.863-11.856,17.036-18.508c5.172-6.664,9.953-13.638,14.608-20.696c0.455-0.7,0.896-1.382,1.336-2.063
						C-8.899,51.5-3.707,42.756,0.905,33.728c4.599-9.027,8.644-18.349,11.622-27.904l0.813-2.287
						c1.789-5.147,3.424-10.334,4.707-15.554c0.634-2.608,1.186-5.224,1.588-7.828c0.4-2.598,0.653-5.197,0.611-7.663
						c-0.002-1.239-0.133-2.413-0.325-3.5c-0.197-1.085-0.553-2.007-0.935-2.631c-0.406-0.625-0.728-0.869-1.219-1.04
						c-0.287-0.128-0.417-0.111-0.576-0.108c-0.147,0.013-0.326,0.058-0.583,0.2c-0.511,0.281-1.225,0.938-1.854,1.826
						c-0.642,0.872-1.234,1.931-1.768,3.052c-1.07,2.254-1.921,4.772-2.633,7.349c-0.201,0.714-0.393,1.433-0.572,2.158
						C7.988-12.948,7.027-5.317,6.354,2.302c-0.657,7.632-0.986,15.3-1.178,22.93c-0.01,0.724-0.021,1.423-0.03,2.121
						c-0.021,2.073-0.009,4.157,0.049,6.257C5.691,41.067,6.48,48.365,7.421,55.6c0.95,7.235,2.025,14.409,3.335,21.632l0.641,2.218
						c0.937,3.127,2.013,6.194,3.285,9.123c1.274,2.922,2.735,5.725,4.475,8.188c1.729,2.462,3.746,4.578,6.002,5.918
						c2.25,1.361,4.718,1.899,7.434,1.634c0.688-0.099,1.348-0.228,2.002-0.412c2.375-0.643,4.738-1.751,6.994-3.151
						c2.264-1.39,4.431-3.052,6.51-4.855c4.156-3.623,7.965-7.794,11.558-12.156c7.18-8.758,13.556-18.271,19.822-27.795
						l1.277-2.118c8.03-13.457,15.121-27.604,20.936-42.114c0.348-0.784,0.667-1.548,0.981-2.31
						c3.576-8.758,6.803-17.645,9.632-26.59c2.816-8.94,5.305-17.95,7.009-26.92l0.409-2.271c0.688-4.149,1.177-8.35,1.032-12.327
						c-0.076-1.969-0.346-3.905-0.905-5.413c-0.278-0.741-0.622-1.369-0.979-1.727c-0.354-0.381-0.658-0.551-1.116-0.663
						c0.193,0.046,0.192,0.048,0.361,0.115c-0.186-0.079-0.4-0.131-0.654-0.158c-0.123-0.022-0.276-0.006-0.412-0.021
						c-0.084,0.028-0.155,0-0.24,0.038c-0.314,0.062-0.767,0.275-1.281,0.728c-1.035,0.887-2.084,2.427-2.945,4.093
						c-1.75,3.382-3.028,7.31-4.227,11.265c-0.221,0.762-0.437,1.502-0.652,2.245c-1.957,7.048-3.338,14.366-4.49,21.723
						c-1.146,7.367-2.031,14.802-2.783,22.271l-0.251,2.349c-1.687,16.446-2.452,32.944-1.817,49.61
						c0.023,0.837,0.046,1.641,0.068,2.446c0.269,7.411,0.806,14.801,1.727,22.125c0.928,7.316,2.216,14.596,4.214,21.583
						c0.221,0.75,0.456,1.489,0.697,2.226c0.974,2.938,2.104,5.807,3.484,8.454c1.374,2.634,3.019,5.078,4.898,6.857
						c0.435,0.432,0.866,0.851,1.312,1.208c1.447,1.187,2.893,1.877,4.483,2.098c0.798,0.109,1.648,0.1,2.55-0.038
						c0.494-0.054,0.815-0.191,1.186-0.279c0.092-0.026,0.186-0.039,0.279-0.071l0.281-0.136l0.573-0.254
						c1.542-0.773,3.032-2.156,4.136-3.829c1.114-1.679,1.867-3.654,2.219-5.724c0.077-0.669,0.255-1.298,0.282-1.955
						c0.021-0.656,0.085-1.308,0.09-1.97c-0.036-0.364-0.071-0.729-0.108-1.096l-0.111-1.095l-0.256-1.095
						c-0.066-0.393-0.133-0.784-0.197-1.171c-0.709-3.517-1.922-6.721-0.756-9.698c0.16-0.25,0.344-0.468,0.554-0.636
						c0.633-0.501,1.507-0.566,2.661,0.219c0.423,0.477,0.84,1.024,1.254,1.611c0.4,0.595,0.719,1.275,1.076,1.945
						c0.751,1.326,1.252,2.809,1.834,4.123c0.207,0.529,0.319,1.087,0.446,1.644l0.467,2.092c0.095,0.711,0.163,1.431,0.241,2.147
						c0.129,0.884,0.104,1.783,0.088,2.684l-0.023,1.355c-0.058,0.45-0.113,0.903-0.172,1.357
						c-0.516,5.923-3.638,11.79-8.992,15.271c-1.33,0.876-2.863,1.533-4.504,1.969c-1.546,0.379-3.109,0.538-4.732,0.472
						c-3.248-0.11-6.447-1.391-8.897-3.247c-0.765-0.565-1.472-1.181-2.134-1.82c-3.154-2.948-5.281-6.434-7.014-9.931
						c-1.719-3.518-3.027-7.121-4.111-10.742c-0.242-0.807-0.471-1.617-0.697-2.439c-1.996-6.864-3.273-13.853-4.184-20.861
						c-0.908-7.012-1.429-14.051-1.717-21.092l-0.093-2.484c-0.601-18.54-0.202-36.756,1.561-54.979
						c0.087-0.828,0.173-1.66,0.261-2.5c0.65-7.021,1.541-14.001,2.713-20.936c1.183-6.935,2.625-13.829,4.58-20.667
						c0.229-0.804,0.474-1.606,0.72-2.41c1.267-4.307,2.7-8.602,4.885-12.869c1.13-2.125,2.395-4.273,4.452-6.319
						c1.047-1.003,2.337-2.019,4.096-2.671c0.883-0.314,1.861-0.521,2.867-0.544c0.473-0.007,0.861,0.015,1.304,0.049
						c0.444,0.063,0.875,0.102,1.329,0.227c0.896,0.19,1.795,0.58,2.622,1.045c0.813,0.496,1.561,1.09,2.158,1.746
						c1.236,1.314,1.95,2.74,2.485,4.083c1.021,2.704,1.325,5.216,1.476,7.637c0.246,4.833-0.244,9.376-0.923,13.847l-0.429,2.539
						c-1.347,8.827-3.688,17.268-6.298,25.546c-2.629,8.277-5.572,16.383-8.502,24.5c-0.516,1.447-1.065,2.878-1.646,4.296
						c-0.287,0.711-0.586,1.417-0.892,2.121c-7.431,15.137-14.9,30.228-23.413,44.869c-0.41,0.695-0.821,1.389-1.232,2.085
						c-6.087,9.725-12.42,19.28-19.744,28.223c-3.682,4.455-7.615,8.758-12.088,12.652c-2.242,1.94-4.627,3.773-7.221,5.401
						c-2.608,1.607-5.42,3.042-8.555,3.975c-0.894,0.267-1.813,0.485-2.755,0.666c-1.965,0.323-4.134,0.426-6.235,0.124
						c-2.117-0.287-4.185-0.96-6.049-1.918c-3.752-1.934-6.605-4.834-8.869-7.864c-2.262-3.059-4.004-6.319-5.479-9.63
						c-1.469-3.315-2.662-6.696-3.688-10.102c-0.236-0.802-0.473-1.604-0.691-2.41c-2.24-8.573-3.582-17.224-4.493-25.869
						c-0.899-8.648-1.322-17.3-1.378-25.935C-2.31,27.148-2.31,26.318-2.31,25.46c0.03-7.93,0.387-15.88,1.151-23.832
						c0.787-7.95,1.912-15.9,3.957-23.816c0.205-0.792,0.424-1.584,0.659-2.386C4.405-27.286,5.441-30,6.811-32.695
						c0.689-1.346,1.454-2.691,2.438-4.009c0.98-1.305,2.165-2.64,3.931-3.684c0.883-0.51,1.938-0.918,3.074-1.069
						c1.123-0.153,2.324-0.049,3.302,0.271c0.503,0.151,1.005,0.292,1.479,0.562c0.48,0.244,0.961,0.487,1.369,0.833
						c0.426,0.323,0.85,0.655,1.174,1.044c0.347,0.379,0.703,0.763,0.947,1.17c1.109,1.619,1.699,3.308,2.049,4.896
						c0.11,0.406,0.181,0.801,0.24,1.192c0.061,0.393,0.137,0.791,0.184,1.181c0.065,0.769,0.176,1.556,0.186,2.308
						c0.136,3.044-0.081,5.972-0.445,8.845c-0.371,2.872-0.904,5.684-1.539,8.455c-1.29,5.535-2.996,10.899-5.017,16.094
						l-0.927,2.294C16.46,17.847,12.397,27.58,7.719,36.958C3.025,46.337-2.327,55.355-7.992,64.149
						c-0.454,0.704-0.909,1.409-1.371,2.125c-4.587,7.145-9.439,14.241-14.779,21.059c-5.347,6.806-17.029,18.662-19.772,20.74
						c-8.793,6.663-14.291,10.712-26.517,14.645c-2.779,0.609-8.267,1.119-11.271,0.861c-1.491-0.111-3.043-0.43-4.6-0.987
						c-1.541-0.566-3.178-1.438-4.56-2.952c-0.338-0.375-0.646-0.82-0.935-1.238c-0.276-0.441-0.494-0.945-0.701-1.417
						c-0.179-0.492-0.287-1.008-0.393-1.504c-0.072-0.498-0.066-0.988-0.07-1.467c0.116-1.896,0.87-3.341,1.705-4.498
						c1.786-2.231,4.494-5.654,6.608-4.151C-83.201,106.393-83.032,107.793-85.551,111.15z"/>
					<path d="M139.449,110.292c1.284,1.726,4.619,3.985,5.334,4.474c0.71,0.485,4.212,0.929,4.971,0.958
						c0.75,0.034,1.469-0.126,1.935-0.578l0.096-0.088c0.665-0.604,0.804-1.42,1.496-2.222l0.087-0.121
						c0.085-0.116,0.831-2.885,0.854-4.063c0.002-0.051-0.01-0.201-0.01-0.201c-0.088-1.146-0.273-2.208-0.122-3.445
						c-0.015-0.073-0.035-0.139-0.056-0.204c-0.38-0.949-0.91-1.823-1.446-2.709c-0.51-0.897-0.955-1.829-1.127-3.045l-0.106-0.216
						c-0.683-1.373-1.568-2.726-2.867-3.709c-0.047-0.076-0.104-0.14-0.161-0.2c-1.384-1.373-3.029-2.524-4.341-4.097l-0.164-0.203
						c-0.599-0.739-1.217-1.503-1.915-2.222c0.037,0.038,0.037,0.038,0.073,0.076c-0.674-0.714-1.775-1.042-2.578-1.873l-0.217-0.23
						c-0.331-0.379-0.666-0.739-1-1.189l-0.5-0.689c-0.166-0.265-0.317-0.527-0.503-0.883c-0.185-0.333-0.313-0.687-0.445-1.042
						c-0.138-0.355-0.243-0.717-0.306-1.093c-0.196-0.744-0.104-1.511-0.099-2.271l0.065-0.383c0.039-0.175,0.083-0.391,0.111-0.488
						c0.188-0.712,0.483-1.544,0.867-2.303c0.389-0.754,0.861-1.456,1.426-2.066c0.552-0.624,1.215-1.132,1.914-1.569
						c0.721-0.408,1.484-0.742,2.295-0.958c0.164-0.036,0.326-0.056,0.486-0.077c0.736-0.123,1.486-0.151,2.232-0.112
						c0.742,0.038,1.314,0.134,1.887,0.241c1.131,0.225,2.153,0.544,3.127,0.912l0.323,0.098c2.854,0.901,6.089,3.26,6.711,4.013
						c0.364,0.439,0.314,3.184-1.708,4.163c-1.793,0.868-5.779-0.966-8.059-1.795c-0.564-0.206-1.953-0.482-3.367,0.331
						c-0.104,0.215-0.109,0.377-0.173,0.715l-0.009,0l-0.008,0.017c0.057,0.14,0.113,0.277,0.17,0.415
						c0.006,0.011,0.042,0.093,0.07,0.175l0.159,0.296c0.079,0.194,0.272,0.447,0.395,0.678l0.119,0.175
						c1.091,1.056,2.559,2.127,3.862,3.453l0.187,0.19c4.606,3.904,6.691,7.964,7.852,9.629l0.163,0.239
						c1.125,2.513,2.902,4.766,3.826,7.614l0.082,0.308c0.248,1.767,0.477,3.56,0.499,5.367l-0.005,0.32
						c-0.057,0.562-0.116,1.121-0.227,1.667c-0.102,0.546-0.166,1.103-0.311,1.628c-0.138,0.54-0.232,1.049-0.396,1.611
						c-0.193,0.569-0.318,1.13-0.58,1.698c-0.045,0.109-0.09,0.22-0.139,0.331c-0.416,1.039-1.047,2.063-1.785,3.013
						c-0.779,0.928-1.688,1.804-2.749,2.45l-0.317,0.199c-1.751,0.376-3.221,0.911-4.792,1.224c-1.546,0.31-7.751-0.397-8.968-1.04
						c-1.231-0.645-2.275-1.566-3.283-2.459l-0.252-0.206c-1.732-1.281-3.749-2.604-4.926-4.693c-0.061-0.093-0.105-0.2-0.154-0.303
						c0.73-1.226,0.615-1.845,0.146-2.395c-0.249-0.263-0.565-0.513-0.902-0.776c-0.333-0.262-0.719-0.524-0.991-0.84
						c-0.282-0.309-0.509-0.65-0.595-1.015c-0.068-0.368,0.021-0.765,0.325-1.158c0.594-0.781,2.221-1.583,5.311-1.968
						C137.39,105.913,138.521,109.045,139.449,110.292z"/>
					<path d="M165.451,111.409c0.657,0.355,3.373,2.406,4.164,2.809c0.773,0.405,3.318,1.066,4.447,0.789
						c0.74-0.072,2.056-0.737,2.447-1.27l0.086-0.104c0.156-0.153,0.231-0.391,0.351-0.568c0.069-0.238,0.187-0.405,0.245-0.652
						c0.037-0.114,0.078-0.223,0.129-0.328c0.042-0.115,0.074-0.241,0.126-0.354c0.114-0.217,0.206-0.482,0.364-0.727l0.076-0.141
						c0.068-0.152,0.117-0.359,0.154-0.543c0.182-0.605,0.365-2.163,0.328-3.904c-0.021-0.971-0.094-2.4-0.594-3.519
						c-0.415-0.928-1.442-2.509-2.241-3.592c-1.32-1.826-3.911-4.376-5.45-5.178c-0.064-0.069-0.136-0.127-0.206-0.179
						c-1.704-1.191-3.655-2.214-5.257-3.846l-0.201-0.216c-0.73-0.782-4.467-4.28-4.851-4.829c-0.931-1.328-1.415-2.373-1.815-3.57
						c-0.356-1.232-0.582-2.448-0.455-3.883l0.076-0.463c0.133-0.804,0.426-1.71,0.787-2.489c0.39-0.785,0.857-1.525,1.447-2.157
						c1.15-1.293,2.679-2.186,4.334-2.703c0.173-0.044,0.333-0.069,0.494-0.097c1.477-0.282,2.747-0.243,4.002-0.067
						c1.24,0.181,2.402,0.524,3.5,0.981l0.362,0.127c0.954,0.358,2.773,1.522,3.663,2.135c2.791,1.929,2.815,5.032,1.104,6.88
						c-0.177,0.19-0.677,1.052-2.465,1.026c-0.842-0.011-2.758-1.893-4.133-2.756c-0.535-0.334-1.116-0.444-1.626-0.623l-0.169-0.06
						c-1.043-0.072-2.479-0.332-3.1,0.177c-0.064,0.094-0.09,0.208-0.11,0.313c-0.026,0.111-0.019,0.177-0.044,0.383
						c-0.011,0.027-0.014,0.066-0.015,0.114c-0.021,1.285,0.081,1.911,0.748,2.68c0.844,0.971,2.079,1.934,3.332,3.076
						c0,0,2.478,1.584,4.592,3.41c0.454,0.393,3.206,3.436,4.716,4.842l0.215,0.204c0.836,1.154,1.829,2.153,2.798,3.28
						c0.968,1.109,1.955,2.309,2.653,3.727l0.149,0.303c0.554,1.818,1.091,3.664,1.313,5.557l0.028,0.334
						c0.011,2.377-0.302,4.623-0.787,6.753c-0.031,0.114-0.063,0.229-0.096,0.349c-0.572,2.163-1.69,4.495-3.63,6.199l-0.286,0.255
						c-1.701,0.702-3.131,1.496-4.709,2.045c-1.554,0.54-8.028,0.507-9.351-0.013c-1.338-0.517-2.479-1.383-3.604-2.18l-0.275-0.188
						c-1.901-1.123-4.044-2.295-5.448-4.248c-0.068-0.09-0.131-0.183-0.189-0.284c0.594-1.304,0.398-1.913-0.135-2.403
						c-0.547-0.47-1.416-0.835-2.084-1.36c-0.321-0.266-0.592-0.567-0.725-0.912c-0.122-0.351-0.092-0.752,0.152-1.185
						c0.472-0.857,1.944-1.897,4.927-2.814C160.862,105.702,162.105,109.121,165.451,111.409z"/>
					<path d="M290.555-49.51c-1.848-0.389-8.447-0.787-17.874,3.61c-6.843,3.193-12.764,6.589-16.671,9.772
						c-3.912,3.188-7.531,6.725-11.177,10.232c-0.356,0.353-0.702,0.696-1.046,1.038C235.2-16.36,227.107-6.724,221.9,4.396
						l-0.733,1.287c-3.304,5.787-6.44,11.68-9.218,17.769c-2.741,6.092-5.209,12.377-6.889,18.857l-0.36,1.34
						c-0.29,1.116-0.532,2.236-0.794,3.352c-0.205,1.111-0.473,2.235-0.627,3.333l-0.26,1.652l-0.184,1.613
						c-0.104,1.093-0.157,2.229-0.246,3.339c-0.229,4.468-0.075,8.925,0.359,13.334c0.055,0.417,0.105,0.818,0.16,1.22
						c0.082,0.596,0.166,1.195,0.251,1.793c0.122,0.593,0.246,1.187,0.37,1.784c1.264,4.16,2.936,8.052,4.775,11.801
						c1.85,3.749,3.838,7.373,5.984,11.12l0.892,1.009c5.063,5.741,11.353,10.135,18.281,13.384
						c0.448,0.162,0.877,0.317,1.304,0.471c3.119,1.012,6.346,1.696,9.615,2.037c3.281,0.291,6.58,0.344,9.883,0.116
						c0.826-0.033,1.651-0.161,2.475-0.229c0.824-0.081,1.648-0.145,2.47-0.29l2.472-0.354c0.812-0.133,1.588-0.327,2.387-0.478
						c0.791-0.175,1.604-0.272,2.385-0.492l2.352-0.637l1.188-0.302c0.387-0.118,0.771-0.262,1.157-0.39l2.341-0.762
						c0.449-0.155,0.87-0.373,1.295-0.585c4.127-1.835,7.953-4.418,11.487-7.348c1.802-1.434,3.419-3.099,5.045-4.735l2.296-2.611
						c0.768-0.863,1.434-1.825,2.144-2.738c0.335-0.381,0.649-0.761,0.956-1.141c6.804-8.991,11.742-19.309,16.14-29.634
						l0.554-1.315c2.006-4.826,3.792-9.773,5.246-14.874c-0.074,0.274-0.074,0.274-0.151,0.549
						c1.414-4.937,1.964-10.08,2.802-15.155c0.086-0.484,0.174-0.953,0.238-1.425c0.709-4.447,1.206-8.929,1.397-13.313
						c0.087-2.184,0.118-4.364-0.007-6.388c-0.209-2.105-0.354-4.27-0.748-6.348l-0.186-1.326
						c-0.791-4.599-2.199-9.036-4.357-13.067c-2.152-4.029-5.113-7.589-8.697-10.426c-0.35-0.298-0.686-0.583-1.021-0.871
						c-6.466-4.989-14.793-7.451-23.173-7.353l-1.353,0.055c-3.6,0.241-7.19,0.991-10.639,2.248l-1.266,0.363l-1.03,0.275
						l-1.017,0.333l-2.051,0.633l-2.022,0.746c-0.681,0.241-1.358,0.492-2.013,0.805l-1.988,0.897
						c-0.658,0.315-1.285,0.694-1.927,1.048c-1.297,0.686-2.485,1.571-3.671,2.461c-0.396,0.255-0.766,0.524-1.125,0.802
						l-1.095,0.816l-0.579,0.481c-0.388,0.315-0.756,0.657-1.102,1.029l-0.611,0.517c-1.906,1.45-3.797,2.63-6.786,1.508
						c-0.283-0.148-0.55-0.322-0.796-0.518c-0.729-0.594-1.246-1.409-1.256-2.465c0.582-1.539,1.991-3.014,3.002-4.408l0.701-0.721
						l0.883-0.899l0.938-0.84l1.17-1.026c0.396-0.337,0.776-0.694,1.191-1.016c2.564-2.253,5.412-4.167,8.5-5.579
						c1.506-0.78,3.112-1.342,4.687-1.958c0.782-0.317,1.61-0.526,2.409-0.795c0.813-0.239,1.604-0.545,2.43-0.734l1.514-0.4
						c4.642-1.499,9.465-2.323,14.322-2.428c0.541-0.011,1.083-0.021,1.633-0.031c9.224-0.224,18.753,2.597,26.448,8.184
						c0.454,0.324,0.925,0.625,1.345,0.995c4.904,3.864,9.064,8.612,12.076,13.96c3.006,5.348,4.963,11.181,5.952,17.095
						c0.087,0.539,0.172,1.08,0.26,1.626c0.245,1.135,0.294,2.278,0.441,3.419c0.128,1.137,0.255,2.274,0.274,3.466
						c0.104,2.359-0.008,4.607-0.145,6.854c-0.318,4.467-0.967,8.815-1.779,13.117l-0.287,1.517
						c-1.783,10.832-4.51,21.512-8.518,31.792l-0.582,1.463c-1.783,5.185-4.088,10.155-6.648,14.98
						c-2.599,4.817-5.457,9.479-8.419,14.154c-0.528,0.831-1.086,1.644-1.666,2.441c-0.282,0.404-0.612,0.775-0.929,1.153
						c-3.791,3.916-7.798,7.632-12.072,11.047c-4.279,3.406-8.876,6.492-13.878,8.924l-1.46,0.631l-2.635,1.019
						c-0.87,0.35-1.795,0.568-2.686,0.86c-0.9,0.269-1.792,0.57-2.696,0.816l-2.745,0.617c-3.655,0.854-7.264,1.283-10.965,1.577
						c-3.689,0.272-7.424,0.172-11.147-0.176c-3.72-0.425-7.415-1.208-11.011-2.362c-0.508-0.183-1.017-0.366-1.527-0.553
						c-8.416-3.392-16.154-8.745-22.165-15.643l-1.051-1.223c-7.067-8.977-11.511-19.68-13.275-30.667
						c-0.085-0.529-0.169-1.057-0.259-1.604c-0.72-5.061-0.885-10.205-0.516-15.311c0.125-1.278,0.219-2.542,0.376-3.831l0.28-1.952
						l0.35-1.899c0.223-1.273,0.539-2.486,0.805-3.731c0.319-1.215,0.611-2.444,0.953-3.648c0.136-0.481,0.274-0.963,0.414-1.451
						c2.56-6.498,4.886-13.004,7.469-19.467c2.603-6.437,7.836-14.76,10.261-19.774c2.854-5.904,5.819-11.733,9.733-16.981
						c3.921-5.252,8.361-10.109,12.993-14.75c0.374-0.374,0.745-0.747,1.124-1.125c3.747-3.78,7.611-7.573,11.895-10.965
						c13.759-8.792,28.768-13.887,29.642-14.231c1.687-0.71,3.476-1.326,5.367-1.687c1.888-0.362,3.889-0.467,5.901-0.111
						c2.001,0.352,4.038,1.155,5.765,2.69c0.853,0.766,1.631,1.718,2.166,2.895c0.532,1.159,0.81,2.612,0.475,3.958
						c-0.304,1.356-1.3,2.358-2.323,2.63C295.471-46.717,291.459-49.318,290.555-49.51z"/>
					<path d="M129.554,78.407c0.041,0.311,0.157,0.698,0.247,1.107c0.047,0.206,0.086,0.416,0.104,0.624
						c-0.229,1.636-1.041,2.449-1.853,3.259c-1.624,0.812-4.059,0-4.944-2.405c-0.074-0.158-0.139-0.322-0.191-0.492
						c-0.063-0.195-1.703-5.541,1.888-6.844c0.214-0.071,0.422-0.117,0.622-0.141c1.002-0.118,1.837,0.326,2.457,1.041
						C128.007,74.701,129.522,78.195,129.554,78.407z"/>
				</g>
			</g>
		</g>
		<circle fill="none" stroke="#B5B5B6" stroke-width="1.902" stroke-miterlimit="10" cx="353.127" cy="73.554" r="58.75"/>
	</g>
</g>
</svg>
