<?xml version="1.0" encoding="utf-8"?>
<!-- Generator: Adobe Illustrator 16.0.0, SVG Export Plug-In . SVG Version: 6.00 Build 0)  -->
<!DOCTYPE svg PUBLIC "-//W3C//DTD SVG 1.1//EN" "http://www.w3.org/Graphics/SVG/1.1/DTD/svg11.dtd">
<svg version="1.1" id="圖層_1" xmlns="http://www.w3.org/2000/svg" xmlns:xlink="http://www.w3.org/1999/xlink" x="0px" y="0px"
	 width="3359.055px" height="2239.37px" viewBox="0 0 3359.055 2239.37" enable-background="new 0 0 3359.055 2239.37"
	 xml:space="preserve">
<g>
	<g>
		<path d="M783.273,1585.487c-14.817-39.422-37.053-110.554-55.382-153.06h23.79c12.871,27.751,30.81,74.877,38.225,107.909
			c12.478-28.629,38.222-81.261,50.7-106.582c17.554,27.525,44.854,77.078,59.679,107.907c8.581-27.53,26.131-81.483,34.713-105.489
			h21.453c-11.312,23.566-40.564,109.234-58.509,150.409c-12.872-27.744-42.122-84.999-57.336-108.563
			C824.616,1504.661,801.218,1557.516,783.273,1585.487z"/>
		<path d="M1076.177,1584.165c-95.946,18.274-95.946-73.775-4.685-74.438c0,0-3.509-15.191-8.97-18.497
			c-17.55-10.791-28.083,2.64-28.083,2.64l-10.139-9.023c49.537-19.163,67.869,9.023,68.645,11.45
			c6.633,24.222,7.021,69.368,20.283,90.95L1076.177,1584.165z M1070.322,1520.518c-59.672-3.302-32.371,69.809,5.854,53.295
			C1083.201,1564.342,1079.298,1527.565,1070.322,1520.518z"/>
		<path d="M1205.271,1488.803c-15.602-1.314-23.792-0.879-39.785,1.765l9.747-12.11l31.208,1.542c0,0-8.585-40.519,53.824-46.245
			l4.287,7.923c0,0-31.197-3.964-31.197,38.322c12.087,0.22,33.149-0.22,42.513-1.542l-3.9,11.231l-37.056-2.42
			c-3.121,17.173-1.169,75.09,0,98.656h-30.034C1206.829,1562.801,1208.002,1515.675,1205.271,1488.803z"/>
		<path d="M1369.855,1488.803c-15.599-1.314-23.796-0.879-39.785,1.765l9.75-12.11l31.205,1.542c0,0-8.578-40.519,53.824-46.245
			l4.29,7.923c0,0-31.201-3.964-31.201,38.322c12.087,0.22,33.149-0.22,42.513-1.542l-3.899,11.231l-37.053-2.42
			c-3.124,17.173-1.173,75.09,0,98.656h-30.031C1371.413,1562.801,1372.586,1515.675,1369.855,1488.803z"/>
		<path d="M1507.138,1432.427l26.914-0.656c-2.73,38.319-1.952,115.396,2.342,153.272l-29.256,1.321
			C1508.698,1545.846,1515.719,1446.084,1507.138,1432.427z"/>
		<path d="M1670.168,1585.925c-44.855,0-65.14-22.903-65.14-52.632c0-29.734,28.862-53.953,61.627-53.953
			c32.762,0,60.845,24.662,49.533,57.035c-16.771,3.299-47.197,3.52-78.786,1.978c0,0-4.678,38.762,39.396,38.762
			c23.789,0,39.391-19.599,39.391-19.599l7.8,11.893C1723.988,1569.409,1715.016,1585.925,1670.168,1585.925z M1665.877,1488.148
			c-28.083,0-28.475,40.079-28.475,40.079c17.551,1.322,39.004,1.98,54.216,0
			C1691.618,1528.227,1693.957,1488.148,1665.877,1488.148z"/>
		<path d="M1914.307,1586.145c2.342-41.621,0.391-110.109-3.896-154.374c0,0,129.877-4.41,129.877,76.854
			C2040.287,1596.057,1914.307,1586.145,1914.307,1586.145z M1940.047,1441.241c-2.729,32.371-1.561,100.641,2.343,136.536
			c0,0,68.651,2.423,68.651-69.151C2011.041,1440.798,1940.047,1441.241,1940.047,1441.241z"/>
		<path d="M2106.198,1478.678h27.301v35.014c0,0,19.894-28.627,47.194-35.673l8.973,6.388c0,0-47.585,23.999-53.046,57.035
			c-5.46,33.029-1.169,44.483-1.169,44.483h-31.201C2109.319,1554.653,2109.319,1505.762,2106.198,1478.678z"/>
		<path d="M2262.595,1462.821c0-0.659-15.599-21.799-15.599-21.799h30.422C2277.418,1441.022,2262.595,1463.483,2262.595,1462.821z
			 M2248.553,1585.925h28.472c-2.34-26.868-3.121-80.818,0.781-107.906h-28.471
			C2252.456,1506.202,2250.893,1560.159,2248.553,1585.925z"/>
		<path d="M2346.053,1479.78l36.277,3.744c19.107-8.811,66.302-6.387,69.816,15.852c3.121,20.484,3.121,86.55,3.121,86.55h-27.695
			c2.34-20.923,1.564-59.679-3.899-83.245c1.166-14.756-42.907-22.9-44.852,0c-2.34,25.328-5.069,58.357-0.782,83.245l-29.25-0.665
			C2351.907,1558.837,2351.907,1507.747,2346.053,1479.78z"/>
		<path d="M2526.242,1431.991h28.474c-1.948,23.127-4.29,73.332,0,91.391c14.433-12.332,39.783-37.656,58.115-49.77l12.872,8.152
			c-10.142,7.925-28.475,22.238-42.516,35.892c10.92,21.144,33.935,48.888,47.976,68.27h-29.644
			c-8.585-16.077-22.623-35.233-37.053-48.888c0,0-11.312,4.624-14.041,11.887c-3.513,9.25,2.729,27.312,1.557,37.001h-30.028
			C2528.581,1547.167,2529.747,1482.422,2526.242,1431.991z"/>
		<path d="M1834.81,1528.805c0,8.953-7.26,16.207-16.216,16.207c-8.953,0-16.207-7.254-16.207-16.207
			c0-8.952,7.254-16.215,16.207-16.215C1827.55,1512.59,1834.81,1519.853,1834.81,1528.805z"/>
	</g>
	<g>
		<path d="M2431.779,1275.368c-11.528-2.885-83.468-17.127-83.468-17.127c-4.656-1.47-9.741-2.553-13.958-4.61
			c-2.217-0.946-4.403-1.825-6.701-2.84l-3.431-1.499l-1.732-0.753l-0.43-0.19c-0.154-0.059-0.329-0.104-0.232-0.285l0.162-0.865
			l2.607-14.09c0.472-2.414,0.794-4.695,1.489-7.36l0.934-3.903l0.239-0.973l0.112-0.49l0.056-0.269l0.184-0.989l1.551-7.915
			c0.898-5.38,2.101-10.626,3.195-16.003c0.227-1.057,0.446-2.088,0.663-3.115c5.677-25.504,12.109-51.746,11.485-78.33l0.333-3.186
			l2.711-23.899l0.688-5.98l0.168-1.493l0.245-2.604l0.514-5.477c0.598-7.25,1.195-14.507,1.797-21.773
			c10.895,0.098,21.821,0.201,32.774,0.297c6.523,0.053,13.065,0.014,19.631-0.171l3.076-0.045
			c20.468-0.317,41.162-1.419,61.623,0.655c0.973,0.081,1.906,0.156,2.844,0.232c2.788,0.25,5.596,0.469,8.43,0.611
			c3.305-0.213,6.636-0.346,9.964-0.445c1.667-0.049,3.328-0.094,4.982-0.143c1.673-0.014,3.376,0.02,5.063,0.042l1.26,0.026
			c0.259,0.012,0.317-0.007,0.743,0.025l1.147,0.084l4.607,0.339c3.047,0.339,6.061,0.86,9.098,1.312
			c6.062,0.886,12.143,2.146,18.016,3.447c-0.223,6.631-0.598,13.299-1.183,19.773l-0.223,2.424l-0.316,2.281
			c-0.236,1.489-0.472,2.984-0.708,4.48c-0.258,1.457-0.51,2.922-0.769,4.385c-0.262,1.027-0.536,1.797-0.82,2.707l-0.275,3.287
			c-1.731,18.549-4.934,36.832-11.25,54.208c-0.281,1.114-0.546,2.178-0.811,3.228c-3.713,15.289-7.712,30.636-13.286,45.521
			c-5.485,14.876-12.652,29.308-22.348,42.08c-0.585,0.981-1.251,1.935-1.878,2.901c-5.941,9.186-12.458,18.096-19.679,26.587
			c-7.228,8.491-15.153,16.595-24.171,23.941c-1.069,0.698-2.068,1.419-3.057,2.139c-1.412,1.054-2.973,1.958-4.445,2.94
			c-1.5,0.947-3.051,1.977-4.385,2.711l-8.287,4.82c-2.74,1.641-5.583,3.117-8.372,4.678c-2.808,1.532-5.589,3.1-8.461,4.523
			c-11.312,5.959-23.047,11.138-35.037,15.422l-3.05,1.04c-11.224,3.768-22.594,7.169-34.234,10.19
			c0.627-0.171,0.627-0.171,1.24-0.342c-11.186,2.998-22.181,7.586-33.999,9.737c-1.124,0.181-2.226,0.353-3.321,0.53
			c-20.682,3.432-42.276,4.594-63.691,1.328l-3.351-0.598c-23.414-4.55-45.792-13.26-66.689-25.131
			c-1.021-0.652-1.997-1.275-2.976-1.906c-9.06-5.695-17.65-12.09-25.709-19.117c-8.07-7.015-15.647-14.627-22.577-22.881
			l-2.301-2.602c-6.058-7.027-11.87-14.381-17.589-22.184c-0.614-0.982-1.145-2.006-1.693-3.027
			c-3.521-6.617-6.139-13.725-8.371-21.021c-2.242-7.312-4.113-14.778-6.032-22.745c-0.246-1.273-0.392-2.55-0.527-3.829
			c-0.151-1.264-0.274-2.546-0.332-3.868c-0.091-0.713-0.182-1.431-0.269-2.151c-0.146-1.486-0.291-2.981-0.439-4.484
			c0.022-0.833,0.068-1.664,0.126-2.485c0.106-1.805,0.556-3.779,1.111-5.515c0.711-1.857,1.513-3.483,2.847-5.021
			c2.446-2.924,6.556-4.911,11.447-4.062c0.97,0.281,1.906,0.672,2.801,1.144c2.682,1.408,5.031,3.576,6.814,5.418
			c0.297,0.682,0.521,1.371,0.617,1.975c0.168,0.695,0.235,1.344,0.307,2.016c0.123,0.718,0.175,1.393,0.313,2.098
			c0.168,0.733,0.353,1.425,0.64,2.084l0.204,1.6c0.055,0.652,0.196,1.354,0.307,2.031c0.113,0.686,0.21,1.357,0.378,2.062
			c0.194,0.866,0.311,1.703,0.543,2.579c0.213,0.869,0.423,1.738,0.633,2.617c2.217,5.586,3.952,11.269,5.849,17.078
			c1.899,5.789,3.919,11.689,6.64,17.344l1.295,2.598c5.034,7.534,10.32,14.72,16.084,21.463c0.637,0.753,1.276,1.502,1.932,2.268
			c11.813,11.978,24.31,23.121,38.3,32.42c0.808,0.572,1.657,1.063,2.484,1.6c9.325,5.938,19.376,10.5,29.731,13.979
			c10.352,3.532,21.065,5.829,31.912,7.454c0.981,0.148,1.977,0.304,2.979,0.462c16.875,1.457,33.812,1.554,50.81-0.249l2.998-0.32
			c21.192-3.719,41.854-10.419,62.273-18.054l2.918-1.089c9.773-4.74,19.698-8.92,29.424-13.615
			c9.731-4.563,19.369-9.777,28.103-15.916c1.247-1.037,2.543-1.964,3.884-2.813c0.672-0.427,1.324-0.946,2.01-1.38
			c8.377-3.638,16.184-9.751,22.952-17.037c6.795-7.301,12.63-15.783,17.806-24.709c0.521-0.838,0.979-1.717,1.47-2.576
			c7.729-11.76,13.647-24.777,18.427-38.164c4.84-13.382,8.562-27.155,12.038-40.941c0.255-0.982,0.511-1.971,0.766-2.96
			c5.086-16.329,8.31-33.462,10.158-50.458l0.294-2.994l0.336-2.481l0.11-0.775l0.07-0.43l0.259-1.651
			c0.139-0.788,0.242-1.629,0.32-2.494c-0.691-0.33-1.622-0.488-2.505-0.656c-0.438-0.094-0.934-0.158-1.45-0.226l-5.363-0.536
			c-3.741-0.278-7.479-0.557-11.215-0.834l-11.314-0.611c-1.057-0.048-2.119-0.093-3.215-0.142
			c-20.258-0.872-40.771-1.302-61.294-1.524c-1.03-0.007-2.059-0.014-3.099-0.02c-6.378-1.027-12.794-1.516-19.23-1.709
			l-3.302-0.074c-0.56-0.01-1.118,0-1.671,0.016c-1.092,0.052-2.193,0.088-3.107,0.266l0.122,4.132l0.017,0.946l0.01,0.463
			l-0.084,1.495c-0.106,2.022-0.249,4.036-0.404,6.048c-0.613,8.053-1.6,16.055-3.356,23.932c0,0-4.358,57.951-10.11,84.929
			c-0.226,1.089-0.445,2.171-0.668,3.272c-0.999,5.551-1.997,11.128-3.002,16.727c-0.504,2.809-1.131,5.642-1.687,8.473l-0.21,1.063
			l-0.11,0.533c-0.022,0.143-0.003,0.1-0.013,0.158v0.414c0.013,0.254-0.01,0.545-0.022,0.82l-0.052,1.463l-0.01,0.165
			c0.022,0.042,0.136,0.042,0.197,0.067l0.427,0.113c0.274,0.081,0.549,0.129,0.808,0.178l1.435,0.295
			c0,0,54.874,12.83,93.567,20.516c-2.442,4.071-16.897,21.443-19.663,23.508
			C2432.338,1275.446,2432.034,1275.456,2431.779,1275.368z"/>
		<path d="M2449.414,1076.246c-0.982,0-1.978-0.087-2.979-0.274c-8.853-1.639-14.691-10.139-13.053-18.984
			c0,0,7.418-66.352,12.717-68.661c6.469-2.817,65.856-19.876,65.856-19.876c8.613-2.607,17.702,2.271,20.306,10.881
			c2.598,8.613-2.277,17.703-10.888,20.303c0,0-44.219,11.445-46.855,14.148c-2.481,2.537-9.102,49.14-9.102,49.14
			C2463.966,1070.766,2457.116,1076.246,2449.414,1076.246z"/>
		<path d="M825.392,1310.469c-1.354,1.803-1.306,4.946-1.612,5.948c-0.113,1.735,0.094,2.455,0.466,3.13
			c0.381,0.673,1.418,1.7,3.373,2.718c2.025,0.973,4.762,1.751,7.686,2.339c6.074,0.999,13.015,0.999,19.987,0.298
			c7.001-0.698,14.1-2.101,21.065-3.958c6.973-1.864,13.822-4.19,20.42-6.918c3.289-1.373,6.52-2.83,9.666-4.381
			c3.057-1.499,6.317-3.359,9.577-5.156c13.011-7.244,25.747-15.443,38.706-23.773c2.175-1.842,4.33-3.664,6.479-5.489
			c22.315-19.589,42.199-42.173,60.6-65.837c18.399-23.709,35.407-48.516,51.969-73.623c1.616-2.488,3.183-4.914,4.75-7.338
			c19.534-30.15,38.002-61.252,54.412-93.367c16.361-32.109,30.749-65.271,41.343-99.261l2.889-8.136
			c6.368-18.313,12.181-36.758,16.739-55.329c2.262-9.276,4.223-18.585,5.654-27.848c1.425-9.233,2.323-18.487,2.175-27.257
			c-0.007-4.406-0.472-8.58-1.157-12.448c-0.701-3.86-1.968-7.138-3.324-9.36c-1.444-2.223-2.588-3.092-4.336-3.699
			c-1.018-0.452-1.483-0.391-2.049-0.381c-0.523,0.042-1.163,0.207-2.074,0.707c-1.822,1.002-4.358,3.342-6.594,6.498
			c-2.288,3.102-4.392,6.865-6.291,10.853c-3.81,8.022-6.83,16.976-9.363,26.145c-0.721,2.54-1.399,5.095-2.035,7.677
			c-6.385,25.806-9.803,52.949-12.194,80.05c-2.339,27.153-3.505,54.429-4.187,81.567c-0.039,2.579-0.078,5.063-0.11,7.548
			c-0.077,7.373-0.029,14.785,0.175,22.255c1.761,26.525,4.571,52.49,7.916,78.228c3.386,25.734,7.204,51.252,11.863,76.944
			l2.281,7.894c3.328,11.124,7.156,22.034,11.684,32.451c4.532,10.394,9.731,20.368,15.915,29.127
			c6.151,8.759,13.331,16.287,21.356,21.056c8,4.84,16.781,6.753,26.438,5.81c2.446-0.349,4.792-0.812,7.125-1.467
			c8.442-2.284,16.853-6.229,24.878-11.212c8.052-4.939,15.761-10.852,23.152-17.266c14.788-12.889,28.339-27.729,41.117-43.246
			c25.537-31.152,48.219-64.99,70.512-98.873l4.543-7.531c28.567-47.866,53.788-98.191,74.473-149.813
			c1.237-2.787,2.372-5.505,3.493-8.213c12.72-31.155,24.196-62.77,34.261-94.585c10.016-31.802,18.872-63.85,24.93-95.759
			l1.457-8.077c2.446-14.763,4.188-29.708,3.671-43.854c-0.269-7.005-1.229-13.89-3.219-19.257
			c-0.988-2.633-2.216-4.868-3.479-6.141c-1.26-1.354-2.346-1.962-3.971-2.359c0.688,0.165,0.685,0.172,1.282,0.407
			c-0.655-0.278-1.421-0.462-2.326-0.562c-0.439-0.078-0.981-0.02-1.467-0.078c-0.3,0.1-0.549,0-0.853,0.136
			c-1.121,0.223-2.728,0.979-4.556,2.588c-3.687,3.157-7.418,8.633-10.479,14.562c-6.223,12.029-10.774,26-15.033,40.07
			c-0.788,2.711-1.554,5.348-2.323,7.983c-6.962,25.079-11.873,51.106-15.974,77.278c-4.077,26.205-7.225,52.654-9.902,79.225
			l-0.889,8.355c-6,58.502-8.727,117.189-6.469,176.474c0.091,2.982,0.162,5.839,0.242,8.704
			c0.957,26.361,2.869,52.648,6.146,78.702c3.299,26.025,7.881,51.921,14.988,76.776c0.785,2.666,1.625,5.299,2.481,7.92
			c3.464,10.451,7.483,20.658,12.394,30.07c4.892,9.373,10.74,18.064,17.428,24.393c1.538,1.539,3.076,3.027,4.662,4.298
			c5.147,4.223,10.291,6.675,15.951,7.466c2.837,0.385,5.861,0.355,9.069-0.139c1.758-0.189,2.898-0.678,4.22-0.991
			c0.326-0.091,0.656-0.14,0.992-0.255l0.998-0.485l2.039-0.901c5.486-2.75,10.788-7.67,14.714-13.621
			c3.964-5.971,6.643-12.995,7.893-20.361c0.271-2.379,0.908-4.617,1.005-6.957c0.071-2.329,0.298-4.648,0.316-7.001
			c-0.129-1.296-0.255-2.595-0.384-3.903l-0.397-3.896l-0.911-3.893c-0.232-1.399-0.472-2.789-0.698-4.165
			c-2.52-12.511-6.837-23.909-2.688-34.5c0.562-0.892,1.221-1.664,1.967-2.262c2.252-1.786,5.357-2.017,9.467,0.778
			c1.503,1.697,2.985,3.642,4.462,5.729c1.419,2.119,2.556,4.539,3.825,6.921c2.673,4.718,4.453,9.997,6.527,14.669
			c0.736,1.88,1.131,3.867,1.586,5.848l1.657,7.441c0.336,2.529,0.582,5.088,0.859,7.637c0.459,3.145,0.368,6.343,0.311,9.551
			l-0.084,4.818c-0.204,1.602-0.4,3.217-0.607,4.833c-1.832,21.065-12.943,41.938-31.986,54.318
			c-4.733,3.121-10.19,5.454-16.025,7.005c-5.499,1.348-11.057,1.912-16.833,1.677c-11.554-0.392-22.934-4.946-31.65-11.554
			c-2.717-2.007-5.234-4.197-7.586-6.469c-11.225-10.49-18.791-22.888-24.953-35.327c-6.112-12.513-10.769-25.333-14.623-38.212
			c-0.862-2.873-1.674-5.751-2.484-8.678c-7.102-24.414-11.641-49.279-14.879-74.212c-3.23-24.939-5.082-49.979-6.109-75.025
			l-0.326-8.84c-2.136-65.95-0.724-130.746,5.551-195.568c0.307-2.946,0.61-5.906,0.927-8.892
			c2.313-24.981,5.48-49.805,9.651-74.477c4.207-24.671,9.341-49.193,16.294-73.517c0.811-2.859,1.683-5.712,2.559-8.571
			c4.507-15.318,9.603-30.6,17.372-45.773c4.023-7.56,8.521-15.201,15.842-22.483c3.726-3.567,8.31-7.179,14.571-9.499
			c3.141-1.121,6.617-1.854,10.197-1.936c1.68-0.029,3.063,0.055,4.636,0.172c1.58,0.229,3.111,0.361,4.728,0.808
			c3.188,0.679,6.388,2.064,9.331,3.722c2.888,1.762,5.547,3.877,7.676,6.21c4.395,4.675,6.938,9.745,8.84,14.522
			c3.632,9.619,4.711,18.559,5.247,27.163c0.876,17.198-0.869,33.353-3.282,49.259l-1.525,9.033
			c-4.788,31.398-13.117,61.427-22.403,90.873c-9.35,29.444-19.818,58.28-30.241,87.152c-1.832,5.143-3.793,10.234-5.857,15.281
			c-1.024,2.527-2.084,5.041-3.173,7.545c-26.429,53.844-53.004,107.521-83.284,159.604c-1.46,2.472-2.92,4.943-4.384,7.419
			c-21.654,34.596-44.184,68.582-70.234,100.397c-13.095,15.845-27.088,31.155-43,45.004c-7.975,6.901-16.455,13.421-25.683,19.214
			c-9.283,5.719-19.286,10.824-30.433,14.139c-3.179,0.95-6.449,1.726-9.803,2.365c-6.988,1.15-14.7,1.519-22.181,0.439
			c-7.527-1.021-14.885-3.412-21.518-6.82c-13.347-6.883-23.495-17.199-31.547-27.977c-8.042-10.883-14.238-22.479-19.485-34.255
			c-5.225-11.796-9.467-23.821-13.118-35.935c-0.84-2.855-1.683-5.709-2.462-8.574c-7.964-30.497-12.742-61.271-15.98-92.021
			c-3.205-30.765-4.704-61.54-4.904-92.259c0-2.957,0-5.906-0.003-8.96c0.106-28.202,1.38-56.486,4.097-84.772
			c2.795-28.281,6.801-56.564,14.077-84.719c0.73-2.814,1.506-5.639,2.343-8.488c3.373-9.65,7.06-19.301,11.925-28.891
			c2.452-4.788,5.176-9.57,8.679-14.262c3.486-4.639,7.696-9.393,13.977-13.104c3.144-1.815,6.892-3.263,10.934-3.803
			c4-0.546,8.271-0.175,11.748,0.966c1.79,0.537,3.576,1.034,5.267,2c1.706,0.869,3.418,1.732,4.865,2.967
			c1.516,1.146,3.024,2.329,4.181,3.712c1.234,1.347,2.501,2.714,3.367,4.161c3.948,5.758,6.045,11.764,7.292,17.418
			c0.388,1.438,0.637,2.844,0.85,4.236c0.22,1.402,0.488,2.814,0.652,4.203c0.236,2.73,0.627,5.531,0.663,8.21
			c0.484,10.827-0.288,21.243-1.587,31.463c-1.318,10.213-3.215,20.219-5.473,30.077c-4.588,19.688-10.656,38.771-17.842,57.248
			l-3.302,8.162c-9.944,36.137-24.394,70.757-41.036,104.119c-16.697,33.359-35.737,65.443-55.886,96.725
			c-1.621,2.501-3.237,5.012-4.885,7.557c-16.313,25.418-33.576,50.662-52.57,74.913c-19.021,24.21-60.574,66.386-70.334,73.774
			c-31.279,23.703-50.836,38.106-94.324,52.096c-9.887,2.168-29.404,3.979-40.09,3.061c-5.305-0.391-10.826-1.525-16.361-3.51
			c-5.486-2.012-11.308-5.113-16.226-10.5c-1.202-1.334-2.297-2.918-3.324-4.4c-0.979-1.573-1.758-3.36-2.491-5.043
			c-0.637-1.748-1.021-3.587-1.396-5.348c-0.259-1.771-0.236-3.516-0.252-5.221c0.413-6.744,3.095-11.884,6.064-15.997
			c6.354-7.938,15.989-20.112,23.508-14.765C833.747,1293.545,834.351,1298.528,825.392,1310.469z"/>
		<path d="M1625.765,1307.417c4.565,6.135,16.433,14.174,18.976,15.915c2.523,1.722,14.979,3.302,17.68,3.409
			c2.669,0.119,5.225-0.449,6.879-2.059l0.346-0.311c2.364-2.145,2.859-5.05,5.321-7.902l0.307-0.427
			c0.304-0.413,2.956-10.265,3.034-14.455c0.01-0.178-0.029-0.718-0.029-0.718c-0.316-4.077-0.979-7.851-0.437-12.252
			c-0.052-0.262-0.123-0.494-0.2-0.727c-1.351-3.376-3.237-6.484-5.144-9.635c-1.815-3.191-3.396-6.51-4.007-10.83l-0.381-0.771
			c-2.427-4.879-5.576-9.693-10.197-13.192c-0.171-0.274-0.368-0.497-0.574-0.708c-4.921-4.885-10.775-8.981-15.441-14.578
			l-0.584-0.72c-2.126-2.63-4.33-5.347-6.812-7.906c0.133,0.136,0.133,0.136,0.262,0.269c-2.397-2.537-6.316-3.706-9.172-6.659
			l-0.776-0.821c-1.176-1.347-2.364-2.626-3.554-4.229l-1.773-2.453c-0.592-0.943-1.134-1.873-1.793-3.14
			c-0.656-1.187-1.115-2.442-1.584-3.71c-0.487-1.266-0.865-2.552-1.092-3.887c-0.694-2.646-0.365-5.375-0.346-8.08l0.232-1.363
			c0.14-0.621,0.294-1.387,0.397-1.734c0.666-2.533,1.716-5.493,3.083-8.191c1.383-2.685,3.063-5.182,5.072-7.347
			c1.961-2.224,4.323-4.026,6.811-5.583c2.565-1.454,5.279-2.637,8.158-3.408c0.585-0.127,1.163-0.197,1.735-0.275
			c2.617-0.433,5.285-0.536,7.938-0.395c2.64,0.133,4.678,0.476,6.71,0.859c4.022,0.795,7.661,1.933,11.124,3.241l1.15,0.349
			c10.155,3.205,21.664,11.596,23.874,14.271c1.295,1.563,1.117,11.328-6.081,14.807c-6.378,3.09-20.552-3.434-28.658-6.381
			c-2.017-0.73-6.953-1.712-11.983,1.176c-0.368,0.766-0.388,1.345-0.611,2.547h-0.035l-0.025,0.061
			c0.2,0.498,0.403,0.986,0.604,1.477c0.02,0.039,0.148,0.33,0.249,0.621l0.568,1.053c0.281,0.691,0.97,1.594,1.399,2.414l0.43,0.62
			c3.874,3.757,9.102,7.567,13.738,12.284l0.662,0.675c16.384,13.887,23.802,28.332,27.928,34.255l0.582,0.853
			c4,8.937,10.326,16.952,13.611,27.081l0.291,1.1c0.886,6.283,1.696,12.665,1.773,19.088l-0.016,1.137
			c-0.204,2-0.417,3.988-0.808,5.936c-0.358,1.941-0.592,3.92-1.105,5.787c-0.487,1.919-0.823,3.734-1.408,5.731
			c-0.688,2.026-1.134,4.02-2.062,6.038c-0.158,0.392-0.323,0.785-0.494,1.18c-1.479,3.696-3.723,7.334-6.353,10.717
			c-2.769,3.306-5.999,6.42-9.776,8.717l-1.131,0.708c-6.227,1.338-11.454,3.241-17.047,4.355
			c-5.499,1.099-27.565-1.415-31.896-3.702c-4.384-2.288-8.097-5.57-11.683-8.746l-0.898-0.734
			c-6.158-4.555-13.334-9.266-17.519-16.697c-0.216-0.329-0.378-0.707-0.549-1.072c2.598-4.361,2.188-6.565,0.517-8.52
			c-0.889-0.934-2.01-1.826-3.211-2.764c-1.183-0.934-2.56-1.86-3.528-2.984c-1.002-1.102-1.81-2.313-2.113-3.612
			c-0.242-1.309,0.071-2.724,1.16-4.12c2.113-2.778,7.896-5.628,18.891-6.998C1618.438,1291.836,1622.463,1302.98,1625.765,1307.417
			z"/>
		<path d="M1718.26,1311.39c2.34,1.263,11.997,8.559,14.808,9.989c2.756,1.441,11.809,3.793,15.822,2.805
			c2.636-0.255,7.312-2.62,8.704-4.514l0.31-0.371c0.56-0.546,0.821-1.389,1.244-2.02c0.249-0.85,0.665-1.444,0.872-2.322
			c0.133-0.404,0.278-0.793,0.459-1.167c0.152-0.41,0.265-0.856,0.449-1.261c0.41-0.775,0.736-1.719,1.296-2.584l0.268-0.504
			c0.246-0.54,0.42-1.276,0.55-1.93c0.649-2.151,1.305-7.695,1.173-13.886c-0.074-3.458-0.333-8.543-2.113-12.521
			c-1.477-3.302-5.134-8.927-7.974-12.777c-4.695-6.498-13.916-15.567-19.39-18.42c-0.229-0.249-0.481-0.449-0.729-0.637
			c-6.062-4.236-13.005-7.873-18.704-13.68l-0.714-0.77c-2.598-2.781-15.89-15.224-17.253-17.176
			c-3.313-4.723-5.034-8.438-6.459-12.697c-1.267-4.384-2.071-8.711-1.619-13.814l0.269-1.648c0.475-2.855,1.516-6.08,2.805-8.853
			c1.383-2.792,3.05-5.429,5.146-7.674c4.091-4.604,9.524-7.773,15.418-9.615c0.614-0.158,1.183-0.245,1.755-0.349
			c5.25-0.998,9.773-0.863,14.235-0.236c4.416,0.643,8.552,1.867,12.448,3.493l1.293,0.448c3.396,1.277,9.863,5.412,13.026,7.6
			c9.929,6.855,10.017,17.896,3.926,24.471c-0.627,0.676-2.407,3.742-8.766,3.651c-2.995-0.038-9.809-6.733-14.703-9.803
			c-1.897-1.188-3.968-1.583-5.78-2.216l-0.602-0.217c-3.709-0.256-8.813-1.18-11.023,0.63c-0.232,0.336-0.323,0.739-0.395,1.114
			c-0.091,0.398-0.064,0.631-0.158,1.361c-0.035,0.096-0.049,0.238-0.055,0.41c-0.071,4.568,0.291,6.795,2.669,9.531
			c2.998,3.453,7.389,6.881,11.848,10.943c0,0,8.813,5.631,16.335,12.129c1.612,1.395,11.405,12.219,16.775,17.224l0.759,0.728
			c2.977,4.1,6.514,7.656,9.958,11.666c3.444,3.948,6.953,8.21,9.438,13.254l0.533,1.078c1.971,6.469,3.877,13.034,4.669,19.771
			l0.104,1.187c0.035,8.455-1.076,16.441-2.802,24.021c-0.109,0.406-0.226,0.814-0.339,1.237
			c-2.039,7.696-6.02,15.993-12.914,22.052l-1.021,0.907c-6.051,2.497-11.137,5.321-16.749,7.276
			c-5.527,1.919-28.555,1.806-33.259-0.049c-4.763-1.835-8.824-4.92-12.82-7.754l-0.982-0.669
			c-6.759-3.993-14.381-8.161-19.376-15.108c-0.245-0.319-0.472-0.652-0.679-1.011c2.11-4.64,1.419-6.802-0.475-8.546
			c-1.948-1.674-5.04-2.976-7.418-4.844c-1.141-0.946-2.101-2.016-2.578-3.24c-0.43-1.247-0.323-2.678,0.542-4.217
			c1.681-3.047,6.915-6.746,17.528-10.009C1701.934,1291.086,1706.357,1303.249,1718.26,1311.39z"/>
		<path d="M2163.282,738.965c-6.571-1.386-30.054-2.798-63.585,12.844c-24.345,11.359-45.404,23.437-59.304,34.762
			c-13.916,11.344-26.791,23.921-39.757,36.398c-1.267,1.258-2.494,2.479-3.719,3.693c-30.548,30.226-59.333,64.502-77.855,104.059
			l-2.61,4.575c-11.755,20.587-22.911,41.55-32.788,63.21c-9.754,21.67-18.529,44.025-24.507,67.074l-1.282,4.771
			c-1.027,3.969-1.894,7.951-2.82,11.92c-0.733,3.954-1.684,7.954-2.232,11.857l-0.925,5.877l-0.652,5.734
			c-0.371,3.891-0.563,7.932-0.879,11.877c-0.811,15.893-0.265,31.748,1.279,47.434c0.197,1.482,0.378,2.911,0.572,4.34
			c0.294,2.122,0.591,4.248,0.895,6.377c0.434,2.109,0.873,4.223,1.315,6.346c4.494,14.798,10.445,28.646,16.985,41.982
			c6.581,13.331,13.653,26.227,21.288,39.553l3.17,3.594c18.012,20.42,40.383,36.051,65.032,47.604
			c1.596,0.578,3.121,1.131,4.633,1.68c11.102,3.597,22.581,6.032,34.209,7.244c11.67,1.03,23.408,1.222,35.156,0.41
			c2.937-0.113,5.87-0.569,8.798-0.813c2.934-0.288,5.867-0.518,8.788-1.031l8.794-1.26c2.883-0.473,5.645-1.164,8.491-1.697
			c2.811-0.626,5.706-0.969,8.484-1.748l8.358-2.268l4.227-1.072c1.379-0.42,2.743-0.934,4.119-1.387l8.329-2.713
			c1.593-0.55,3.089-1.325,4.601-2.078c14.682-6.529,28.294-15.722,40.865-26.145c6.407-5.096,12.161-11.021,17.944-16.844
			l8.168-9.285c2.728-3.069,5.099-6.49,7.622-9.741c1.192-1.356,2.313-2.708,3.402-4.058
			c24.202-31.983,41.772-68.684,57.413-105.416l1.971-4.678c7.135-17.17,13.486-34.766,18.662-52.91
			c-0.265,0.973-0.265,0.973-0.543,1.951c5.031-17.561,6.989-35.854,9.971-53.904c0.304-1.723,0.614-3.393,0.85-5.07
			c2.518-15.821,4.284-31.763,4.967-47.355c0.31-7.77,0.42-15.524-0.026-22.723c-0.74-7.49-1.254-15.189-2.659-22.582l-0.662-4.717
			c-2.808-16.357-7.822-32.141-15.495-46.482c-7.654-14.33-18.19-26.992-30.939-37.088c-1.241-1.057-2.439-2.074-3.639-3.096
			c-22.997-17.748-52.619-26.504-82.424-26.158l-4.812,0.194c-12.807,0.859-25.579,3.528-37.847,7.999l-4.501,1.29l-3.664,0.979
			l-3.615,1.187l-7.295,2.255l-7.199,2.652c-2.423,0.853-4.83,1.748-7.156,2.862l-7.075,3.189c-2.336,1.124-4.565,2.465-6.854,3.725
			c-4.61,2.439-8.84,5.59-13.056,8.76c-1.409,0.904-2.721,1.861-4.003,2.853l-3.894,2.901l-2.059,1.709
			c-1.383,1.125-2.691,2.34-3.919,3.664l-2.178,1.838c-6.781,5.16-13.505,9.357-24.138,5.367c-1.009-0.529-1.958-1.146-2.831-1.842
			c-2.594-2.116-4.433-5.014-4.472-8.771c2.071-5.474,7.089-10.721,10.682-15.68l2.498-2.566l3.137-3.195l3.335-2.988l4.161-3.65
			c1.408-1.199,2.763-2.465,4.239-3.612c9.124-8.017,19.25-14.827,30.238-19.848c5.354-2.769,11.069-4.775,16.668-6.963
			c2.782-1.128,5.729-1.874,8.568-2.827c2.896-0.853,5.706-1.945,8.646-2.613l5.379-1.422c16.514-5.334,33.677-8.265,50.952-8.64
			c1.922-0.038,3.854-0.074,5.806-0.11c32.813-0.795,66.709,9.238,94.085,29.111c1.612,1.156,3.286,2.227,4.782,3.537
			c17.446,13.745,32.244,30.637,42.955,49.66c10.697,19.023,17.657,39.775,21.176,60.81c0.307,1.919,0.61,3.839,0.924,5.786
			c0.872,4.039,1.05,8.106,1.566,12.162c0.456,4.041,0.908,8.093,0.979,12.328c0.365,8.391-0.026,16.385-0.511,24.381
			c-1.134,15.893-3.444,31.356-6.336,46.664l-1.021,5.396c-6.34,38.531-16.042,76.524-30.297,113.092l-2.071,5.205
			c-6.339,18.442-14.542,36.125-23.646,53.291c-9.244,17.134-19.412,33.712-29.948,50.345c-1.88,2.956-3.864,5.851-5.929,8.688
			c-1.001,1.434-2.181,2.756-3.305,4.1c-13.482,13.928-27.734,27.152-42.939,39.295c-15.224,12.115-31.576,23.094-49.368,31.746
			l-5.195,2.246l-9.37,3.625c-3.095,1.24-6.385,2.02-9.554,3.06c-3.202,0.956-6.378,2.026-9.593,2.905l-9.764,2.193
			c-13.005,3.033-25.841,4.563-39.001,5.605c-13.13,0.97-26.413,0.614-39.656-0.623c-13.23-1.512-26.374-4.297-39.169-8.4
			c-1.803-0.652-3.615-1.306-5.435-1.971c-29.938-12.064-57.458-31.107-78.844-55.641l-3.735-4.352
			c-25.143-31.932-40.948-70.005-47.227-109.09c-0.304-1.88-0.601-3.76-0.917-5.702c-2.565-18.007-3.15-36.3-1.839-54.468
			c0.446-4.545,0.778-9.036,1.341-13.621l0.995-6.946l1.247-6.756c0.788-4.53,1.913-8.843,2.856-13.272
			c1.137-4.323,2.178-8.698,3.393-12.976c0.484-1.716,0.979-3.429,1.473-5.163c9.105-23.117,17.38-46.261,26.568-69.252
			c9.257-22.897,27.873-52.506,36.497-70.341c10.154-21.001,20.703-41.74,34.625-60.409c13.945-18.678,29.741-35.959,46.222-52.463
			c1.328-1.332,2.646-2.656,3.994-4c13.334-13.447,27.075-26.939,42.315-39.008c48.942-31.275,102.333-49.395,105.441-50.625
			c6-2.523,12.364-4.717,19.092-6c6.71-1.285,13.835-1.66,20.991-0.395c7.121,1.251,14.364,4.11,20.507,9.57
			c3.033,2.727,5.8,6.113,7.706,10.301c1.89,4.122,2.882,9.289,1.687,14.076c-1.079,4.824-4.624,8.385-8.262,9.354
			C2180.768,748.901,2166.494,739.647,2163.282,738.965z"/>
		<path d="M1590.563,1193.995c0.146,1.104,0.56,2.484,0.876,3.941c0.168,0.732,0.307,1.477,0.371,2.219
			c-0.813,5.819-3.705,8.711-6.588,11.594c-5.776,2.888-14.438,0-17.589-8.553c-0.265-0.565-0.494-1.146-0.685-1.754
			c-0.22-0.691-6.055-19.709,6.72-24.346c0.756-0.249,1.496-0.414,2.21-0.501c3.564-0.42,6.536,1.157,8.743,3.702
			C1585.062,1180.809,1590.454,1193.241,1590.563,1193.995z"/>
	</g>
</g>
<rect fill="none" stroke="#000000" stroke-width="150" stroke-miterlimit="10" width="3359.055" height="2239.37"/>
</svg>
