<?xml version="1.0" encoding="utf-8"?>
<!-- Generator: Adobe Illustrator 16.0.0, SVG Export Plug-In . SVG Version: 6.00 Build 0)  -->
<!DOCTYPE svg PUBLIC "-//W3C//DTD SVG 1.1//EN" "http://www.w3.org/Graphics/SVG/1.1/DTD/svg11.dtd">
<svg version="1.1" id="圖層_1" xmlns="http://www.w3.org/2000/svg" xmlns:xlink="http://www.w3.org/1999/xlink" x="0px" y="0px"
	 width="939.313px" height="170.255px" viewBox="0 0 939.313 170.255" enable-background="new 0 0 939.313 170.255"
	 xml:space="preserve">
<g>
	<g>
		<path d="M65.305,118.552c-6.571-17.479-16.43-49.02-24.557-67.866h10.549c5.706,12.305,13.662,33.2,16.948,47.848
			c5.533-12.693,16.948-36.031,22.481-47.261c7.783,12.206,19.891,34.178,26.462,47.848c3.805-12.207,11.588-36.13,15.393-46.774
			h9.512c-5.016,10.449-17.985,48.436-25.942,66.693c-5.707-12.303-18.678-37.69-25.424-48.14
			C83.637,82.715,73.261,106.15,65.305,118.552z"/>
		<path d="M195.182,117.966c-42.545,8.104-42.545-32.712-2.076-33.006c0,0-1.557-6.736-3.979-8.201
			c-7.782-4.784-12.451,1.171-12.451,1.171l-4.496-4.003c21.964-8.495,30.094,4.003,30.438,5.078
			c2.94,10.74,3.113,30.758,8.994,40.328L195.182,117.966z M192.586,89.745c-26.46-1.464-14.354,30.954,2.596,23.632
			C198.295,109.178,196.564,92.871,192.586,89.745z"/>
		<path d="M252.424,75.684c-6.918-0.585-10.551-0.391-17.642,0.781l4.323-5.37l13.836,0.684c0,0-3.806-17.967,23.866-20.506
			l1.903,3.515c0,0-13.835-1.758-13.835,16.991c5.359,0.098,14.7-0.097,18.85-0.684l-1.729,4.98l-16.431-1.074
			c-1.383,7.615-0.52,33.298,0,43.747H252.25C253.115,108.493,253.634,87.598,252.424,75.684z"/>
		<path d="M325.401,75.684c-6.916-0.585-10.55-0.391-17.641,0.781l4.323-5.37l13.837,0.684c0,0-3.805-17.967,23.866-20.506
			l1.902,3.515c0,0-13.835-1.758-13.835,16.991c5.359,0.098,14.7-0.097,18.851-0.684l-1.729,4.98l-16.43-1.074
			c-1.384,7.615-0.52,33.298,0,43.747h-13.316C326.093,108.493,326.613,87.598,325.401,75.684z"/>
		<path d="M386.275,50.686l11.934-0.292c-1.212,16.99-0.865,51.168,1.038,67.963l-12.972,0.586
			C386.966,100.976,390.079,56.74,386.275,50.686z"/>
		<path d="M458.563,118.748c-19.889,0-28.882-10.156-28.882-23.339s12.797-23.924,27.326-23.924
			c14.525,0,26.979,10.936,21.962,25.291c-7.437,1.464-20.927,1.562-34.936,0.878c0,0-2.074,17.187,17.469,17.187
			c10.55,0,17.467-8.69,17.467-8.69l3.46,5.272C482.43,111.423,478.45,118.748,458.563,118.748z M456.661,75.392
			c-12.453,0-12.627,17.771-12.627,17.771c7.784,0.586,17.296,0.879,24.041,0C468.075,93.163,469.112,75.392,456.661,75.392z"/>
		<path d="M566.818,118.845c1.038-18.455,0.174-48.823-1.729-68.451c0,0,57.59-1.954,57.59,34.079
			C622.68,123.239,566.818,118.845,566.818,118.845z M578.232,54.593c-1.211,14.354-0.691,44.625,1.039,60.541
			c0,0,30.438,1.074,30.438-30.661C609.71,54.396,578.232,54.593,578.232,54.593z"/>
		<path d="M651.905,71.192h12.105v15.525c0,0,8.82-12.693,20.927-15.818l3.978,2.833c0,0-21.1,10.643-23.521,25.29
			c-2.42,14.646-0.518,19.726-0.518,19.726H651.04C653.288,104.88,653.288,83.203,651.905,71.192z"/>
		<path d="M721.253,64.161c0-0.293-6.917-9.666-6.917-9.666h13.489C727.825,54.495,721.253,64.454,721.253,64.161z M715.026,118.748
			h12.625c-1.037-11.914-1.384-35.837,0.346-47.849h-12.625C716.757,83.398,716.064,107.321,715.026,118.748z"/>
		<path d="M758.26,71.682l16.085,1.659c8.474-3.906,29.399-2.832,30.957,7.03c1.385,9.081,1.385,38.377,1.385,38.377h-12.28
			c1.036-9.277,0.692-26.464-1.729-36.912c0.518-6.543-19.024-10.154-19.889,0c-1.037,11.229-2.248,25.877-0.345,36.912
			l-12.972-0.295C760.854,106.736,760.854,84.082,758.26,71.682z"/>
		<path d="M838.157,50.491h12.626c-0.864,10.254-1.902,32.517,0,40.523c6.399-5.468,17.64-16.697,25.769-22.068l5.707,3.613
			c-4.496,3.516-12.625,9.861-18.852,15.916c4.843,9.375,15.047,21.679,21.273,30.272h-13.145
			c-3.806-7.13-10.031-15.624-16.43-21.679c0,0-5.016,2.051-6.226,5.271c-1.558,4.102,1.21,12.109,0.691,16.407h-13.317
			C839.195,101.562,839.713,72.853,838.157,50.491z"/>
		<circle cx="524.379" cy="93.42" r="7.188"/>
	</g>
</g>
</svg>
