<?xml version="1.0" encoding="utf-8"?>
<!-- Generator: Adobe Illustrator 16.0.0, SVG Export Plug-In . SVG Version: 6.00 Build 0)  -->
<!DOCTYPE svg PUBLIC "-//W3C//DTD SVG 1.1//EN" "http://www.w3.org/Graphics/SVG/1.1/DTD/svg11.dtd">
<svg version="1.1" id="圖層_1" xmlns="http://www.w3.org/2000/svg" xmlns:xlink="http://www.w3.org/1999/xlink" x="0px" y="0px"
	 width="916px" height="559.782px" viewBox="0 0 916 559.782" enable-background="new 0 0 916 559.782" xml:space="preserve">
<g>
	<g>
		<path d="M60.423,487.001c-6.571-17.479-16.43-49.02-24.557-67.866h10.549c5.707,12.305,13.662,33.2,16.949,47.848
			c5.533-12.693,16.949-36.031,22.482-47.261c7.783,12.206,19.89,34.178,26.461,47.848c3.805-12.207,11.588-36.13,15.393-46.774
			h9.512c-5.016,10.449-17.986,48.436-25.943,66.693c-5.707-12.303-18.677-37.69-25.423-48.14
			C78.755,451.164,68.379,474.6,60.423,487.001z"/>
		<path d="M190.3,486.415c-42.544,8.104-42.544-32.712-2.076-33.006c0,0-1.557-6.736-3.978-8.201
			c-7.783-4.784-12.452,1.171-12.452,1.171l-4.497-4.003c21.964-8.495,30.094,4.003,30.438,5.078
			c2.941,10.74,3.114,30.758,8.994,40.328L190.3,486.415z M187.705,458.194c-26.46-1.464-14.355,30.954,2.595,23.632
			C193.414,477.627,191.683,461.32,187.705,458.194z"/>
		<path d="M247.542,444.133c-6.917-0.585-10.55-0.391-17.641,0.781l4.323-5.37l13.836,0.684c0,0-3.806-17.967,23.866-20.506
			l1.903,3.515c0,0-13.835-1.758-13.835,16.991c5.359,0.098,14.7-0.097,18.85-0.684l-1.729,4.98l-16.43-1.074
			c-1.383,7.615-0.52,33.298,0,43.747h-13.317C248.233,476.942,248.752,456.047,247.542,444.133z"/>
		<path d="M320.52,444.133c-6.916-0.585-10.55-0.391-17.641,0.781l4.323-5.37l13.837,0.684c0,0-3.805-17.967,23.866-20.506
			l1.902,3.515c0,0-13.835-1.758-13.835,16.991c5.359,0.098,14.7-0.097,18.851-0.684l-1.729,4.98l-16.43-1.074
			c-1.384,7.615-0.52,33.298,0,43.747h-13.316C321.211,476.942,321.731,456.047,320.52,444.133z"/>
		<path d="M381.394,419.135l11.934-0.292c-1.212,16.99-0.865,51.168,1.038,67.963l-12.972,0.586
			C382.084,469.425,385.197,425.189,381.394,419.135z"/>
		<path d="M453.682,487.197c-19.889,0-28.882-10.156-28.882-23.339s12.797-23.924,27.326-23.924
			c14.525,0,26.979,10.936,21.962,25.291c-7.437,1.464-20.927,1.562-34.936,0.878c0,0-2.074,17.187,17.469,17.187
			c10.55,0,17.467-8.69,17.467-8.69l3.46,5.272C477.548,479.872,473.568,487.197,453.682,487.197z M451.779,443.841
			c-12.453,0-12.627,17.771-12.627,17.771c7.784,0.586,17.296,0.879,24.041,0C463.193,461.612,464.23,443.841,451.779,443.841z"/>
		<path d="M561.937,487.294c1.038-18.455,0.174-48.823-1.729-68.451c0,0,57.59-1.954,57.59,34.079
			C617.798,491.688,561.937,487.294,561.937,487.294z M573.351,423.042c-1.211,14.354-0.691,44.625,1.039,60.541
			c0,0,30.438,1.074,30.438-30.661C604.828,422.846,573.351,423.042,573.351,423.042z"/>
		<path d="M647.023,439.642h12.105v15.525c0,0,8.82-12.693,20.927-15.818l3.978,2.833c0,0-21.1,10.643-23.521,25.29
			c-2.42,14.646-0.518,19.726-0.518,19.726h-13.836C648.406,473.329,648.406,451.652,647.023,439.642z"/>
		<path d="M716.371,432.61c0-0.293-6.917-9.666-6.917-9.666h13.489C722.943,422.944,716.371,432.903,716.371,432.61z
			 M710.145,487.197h12.625c-1.037-11.914-1.384-35.837,0.346-47.849H710.49C711.875,451.848,711.183,475.771,710.145,487.197z"/>
		<path d="M753.378,440.131l16.085,1.659c8.474-3.906,29.399-2.832,30.957,7.03c1.385,9.081,1.385,38.377,1.385,38.377h-12.28
			c1.036-9.277,0.692-26.464-1.729-36.912c0.518-6.543-19.024-10.154-19.889,0c-1.037,11.229-2.248,25.877-0.345,36.912
			l-12.972-0.295C755.973,475.186,755.973,452.531,753.378,440.131z"/>
		<path d="M833.275,418.94h12.626c-0.864,10.254-1.902,32.517,0,40.523c6.399-5.468,17.64-16.697,25.769-22.068l5.707,3.613
			c-4.496,3.516-12.625,9.861-18.852,15.916c4.843,9.375,15.047,21.679,21.273,30.272h-13.145
			c-3.806-7.13-10.031-15.624-16.43-21.679c0,0-5.016,2.051-6.226,5.271c-1.558,4.102,1.21,12.109,0.691,16.407h-13.317
			C834.313,470.011,834.831,441.302,833.275,418.94z"/>
		<circle cx="519.497" cy="461.869" r="7.188"/>
	</g>
	<g>
		<path d="M791.389,349.492c-5.111-1.28-37.01-7.595-37.01-7.595c-2.063-0.652-4.319-1.133-6.188-2.045
			c-0.983-0.42-1.954-0.808-2.972-1.259l-1.521-0.665l-0.767-0.333l-0.191-0.085c-0.069-0.025-0.146-0.047-0.104-0.126l0.072-0.383
			l1.156-6.249c0.209-1.07,0.351-2.081,0.659-3.264l0.414-1.729l0.105-0.433l0.052-0.217l0.022-0.119l0.083-0.439l0.688-3.509
			c0.397-2.385,0.931-4.712,1.418-7.097c0.1-0.469,0.196-0.926,0.292-1.381c2.518-11.308,5.37-22.944,5.094-34.732l0.146-1.412
			l1.204-10.598l0.305-2.651l0.073-0.662l0.109-1.155l0.227-2.428c0.266-3.215,0.531-6.433,0.797-9.654
			c4.832,0.043,9.677,0.088,14.534,0.132c2.892,0.022,5.792,0.005,8.705-0.076l1.363-0.021c9.076-0.141,18.251-0.629,27.324,0.291
			c0.431,0.035,0.846,0.069,1.262,0.104c1.235,0.109,2.479,0.207,3.735,0.271c1.467-0.095,2.944-0.152,4.421-0.198
			c0.737-0.021,1.475-0.041,2.209-0.063c0.742-0.005,1.496,0.008,2.243,0.018l0.56,0.013c0.115,0.005,0.14-0.003,0.329,0.012
			l0.509,0.036l2.043,0.151c1.351,0.149,2.687,0.381,4.034,0.582c2.688,0.393,5.383,0.951,7.989,1.528
			c-0.101,2.94-0.267,5.896-0.525,8.768l-0.098,1.075l-0.142,1.011c-0.104,0.66-0.209,1.322-0.313,1.987
			c-0.114,0.646-0.228,1.294-0.34,1.943c-0.118,0.456-0.238,0.797-0.366,1.2l-0.121,1.458c-0.768,8.224-2.188,16.331-4.987,24.037
			c-0.125,0.493-0.242,0.964-0.36,1.431c-1.646,6.779-3.42,13.585-5.89,20.185c-2.435,6.596-5.612,12.996-9.91,18.657
			c-0.26,0.437-0.556,0.859-0.832,1.288c-2.635,4.072-5.526,8.022-8.728,11.789c-3.205,3.765-6.719,7.356-10.716,10.614
			c-0.475,0.311-0.919,0.63-1.355,0.95c-0.627,0.467-1.318,0.866-1.973,1.302c-0.664,0.421-1.353,0.878-1.943,1.203l-3.675,2.137
			c-1.214,0.729-2.476,1.383-3.713,2.074c-1.244,0.68-2.479,1.376-3.751,2.006c-5.017,2.643-10.219,4.939-15.536,6.838l-1.354,0.462
			c-4.977,1.672-10.018,3.179-15.179,4.519c0.276-0.075,0.276-0.075,0.551-0.152c-4.962,1.33-9.836,3.363-15.076,4.318
			c-0.499,0.08-0.986,0.157-1.474,0.235c-9.169,1.521-18.746,2.036-28.242,0.59l-1.484-0.266
			c-10.382-2.018-20.305-5.88-29.572-11.144c-0.451-0.289-0.885-0.565-1.318-0.845c-4.018-2.525-7.825-5.362-11.4-8.477
			c-3.577-3.111-6.938-6.486-10.01-10.146l-1.021-1.153c-2.686-3.116-5.263-6.376-7.799-9.838c-0.271-0.435-0.507-0.889-0.75-1.342
			c-1.563-2.934-2.722-6.085-3.713-9.319c-0.994-3.243-1.823-6.554-2.673-10.087c-0.109-0.564-0.175-1.131-0.235-1.697
			c-0.066-0.56-0.121-1.128-0.146-1.715c-0.041-0.316-0.08-0.635-0.119-0.954c-0.064-0.659-0.129-1.322-0.194-1.988
			c0.01-0.369,0.028-0.738,0.057-1.103c0.046-0.8,0.245-1.676,0.491-2.445c0.314-0.824,0.67-1.545,1.262-2.226
			c1.084-1.298,2.906-2.178,5.076-1.801c0.43,0.124,0.846,0.298,1.243,0.507c1.189,0.626,2.23,1.587,3.021,2.402
			c0.13,0.304,0.229,0.608,0.272,0.875c0.075,0.309,0.105,0.597,0.137,0.895c0.055,0.319,0.076,0.617,0.14,0.931
			c0.074,0.324,0.155,0.63,0.283,0.923l0.089,0.709c0.025,0.29,0.088,0.6,0.138,0.901c0.05,0.304,0.093,0.602,0.168,0.914
			c0.086,0.385,0.137,0.756,0.239,1.145c0.095,0.384,0.188,0.77,0.282,1.159c0.982,2.477,1.751,4.996,2.592,7.573
			c0.843,2.567,1.738,5.184,2.944,7.691l0.574,1.149c2.233,3.342,4.576,6.528,7.131,9.519c0.284,0.333,0.567,0.666,0.857,1.005
			c5.238,5.312,10.78,10.253,16.982,14.375c0.357,0.254,0.735,0.471,1.103,0.71c4.135,2.633,8.592,4.656,13.184,6.198
			c4.59,1.567,9.339,2.584,14.15,3.305c0.436,0.067,0.876,0.136,1.319,0.205c7.482,0.646,14.993,0.69,22.53-0.109l1.329-0.143
			c9.396-1.647,18.559-4.62,27.611-8.005l1.295-0.482c4.334-2.103,8.734-3.956,13.048-6.038c4.314-2.022,8.587-4.335,12.461-7.056
			c0.553-0.462,1.126-0.872,1.723-1.248c0.297-0.19,0.585-0.42,0.89-0.612c3.716-1.613,7.177-4.324,10.178-7.555
			c3.013-3.238,5.6-6.997,7.895-10.957c0.23-0.37,0.434-0.762,0.652-1.142c3.427-5.216,6.052-10.987,8.171-16.922
			c2.146-5.934,3.797-12.042,5.338-18.154c0.112-0.437,0.226-0.874,0.339-1.313c2.254-7.24,3.685-14.837,4.505-22.372l0.13-1.328
			l0.149-1.101l0.048-0.344l0.032-0.19l0.115-0.732c0.06-0.351,0.106-0.722,0.141-1.106c-0.308-0.146-0.72-0.217-1.11-0.291
			c-0.194-0.04-0.414-0.07-0.643-0.1l-2.379-0.237c-1.658-0.123-3.316-0.247-4.973-0.369l-5.018-0.272
			c-0.469-0.021-0.939-0.041-1.426-0.062c-8.982-0.388-18.078-0.578-27.178-0.676c-0.456-0.004-0.912-0.007-1.373-0.011
			c-2.828-0.454-5.673-0.672-8.526-0.757l-1.465-0.034c-0.248-0.004-0.496,0-0.74,0.008c-0.484,0.023-0.974,0.039-1.38,0.117
			l0.055,1.832l0.008,0.42l0.004,0.206l-0.036,0.663c-0.047,0.896-0.112,1.79-0.181,2.682c-0.271,3.57-0.708,7.119-1.488,10.611
			c0,0-1.932,25.696-4.481,37.658c-0.1,0.482-0.198,0.964-0.298,1.452c-0.442,2.461-0.885,4.933-1.33,7.415
			c-0.224,1.246-0.501,2.502-0.747,3.759l-0.094,0.471l-0.049,0.235c-0.011,0.063-0.002,0.046-0.006,0.071v0.184
			c0.005,0.113-0.004,0.241-0.011,0.362l-0.023,0.649l-0.003,0.073c0.009,0.018,0.061,0.018,0.087,0.029l0.189,0.051
			c0.121,0.036,0.243,0.057,0.358,0.078l0.637,0.131c0,0,24.332,5.689,41.487,9.099c-1.082,1.805-7.492,9.508-8.718,10.423
			C791.637,349.526,791.502,349.531,791.389,349.492z"/>
		<path d="M799.209,261.199c-0.436,0-0.877-0.04-1.321-0.122c-3.924-0.727-6.515-4.496-5.788-8.418c0,0,3.29-29.421,5.64-30.444
			c2.868-1.251,29.201-8.815,29.201-8.815c3.819-1.156,7.85,1.009,9.004,4.826c1.152,3.819-1.01,7.851-4.829,9.003
			c0,0-19.605,5.073-20.775,6.272c-1.1,1.126-4.035,21.789-4.035,21.789C805.661,258.769,802.624,261.199,799.209,261.199z"/>
		<path d="M79.099,365.057c-0.6,0.799-0.58,2.192-0.716,2.636c-0.049,0.77,0.042,1.091,0.208,1.389
			c0.168,0.3,0.627,0.754,1.495,1.205c0.898,0.433,2.112,0.777,3.409,1.037c2.692,0.443,5.77,0.444,8.862,0.133
			c3.104-0.31,6.251-0.931,9.34-1.756c3.09-0.825,6.13-1.857,9.054-3.065c1.458-0.61,2.892-1.256,4.286-1.944
			c1.356-0.664,2.801-1.49,4.248-2.286c5.768-3.212,11.416-6.849,17.163-10.542c0.963-0.815,1.918-1.624,2.872-2.434
			c9.896-8.685,18.713-18.701,26.871-29.193c8.159-10.511,15.699-21.512,23.043-32.644c0.717-1.104,1.412-2.18,2.107-3.254
			c8.661-13.369,16.85-27.16,24.126-41.401c7.254-14.238,13.634-28.941,18.332-44.014l1.281-3.606
			c2.823-8.119,5.4-16.3,7.423-24.533c1.001-4.114,1.872-8.24,2.507-12.348c0.631-4.097,1.03-8.197,0.964-12.086
			c-0.003-1.955-0.21-3.806-0.513-5.521c-0.312-1.712-0.873-3.166-1.474-4.15c-0.641-0.986-1.148-1.371-1.924-1.64
			c-0.451-0.202-0.657-0.175-0.907-0.171c-0.233,0.021-0.516,0.092-0.92,0.315c-0.807,0.442-1.932,1.48-2.925,2.88
			c-1.013,1.375-1.947,3.045-2.789,4.813c-1.689,3.556-3.03,7.527-4.153,11.592c-0.318,1.126-0.619,2.26-0.902,3.403
			c-2.83,11.443-4.345,23.479-5.405,35.496c-1.037,12.039-1.556,24.134-1.857,36.168c-0.016,1.143-0.033,2.245-0.049,3.346
			c-0.034,3.27-0.013,6.557,0.078,9.869c0.781,11.762,2.027,23.273,3.509,34.686c1.501,11.412,3.195,22.728,5.261,34.12l1.011,3.499
			c1.477,4.933,3.173,9.771,5.182,14.39c2.009,4.608,4.314,9.03,7.056,12.916c2.729,3.883,5.911,7.221,9.47,9.335
			c3.547,2.147,7.44,2.995,11.723,2.577c1.085-0.155,2.126-0.359,3.159-0.65c3.744-1.014,7.472-2.762,11.031-4.971
			c3.57-2.191,6.988-4.813,10.268-7.657c6.556-5.715,12.563-12.294,18.229-19.175c11.325-13.814,21.382-28.819,31.267-43.842
			l2.015-3.34c12.666-21.226,23.851-43.54,33.021-66.428c0.549-1.236,1.052-2.442,1.549-3.643
			c5.641-13.814,10.729-27.832,15.191-41.94c4.442-14.102,8.367-28.313,11.056-42.461l0.646-3.582
			c1.085-6.545,1.856-13.171,1.627-19.444c-0.119-3.105-0.545-6.159-1.427-8.538c-0.438-1.168-0.982-2.159-1.544-2.724
			c-0.559-0.6-1.038-0.869-1.76-1.045c0.305,0.072,0.303,0.075,0.568,0.18c-0.291-0.124-0.631-0.206-1.031-0.25
			c-0.194-0.035-0.436-0.009-0.649-0.034c-0.134,0.044-0.245-0.001-0.38,0.059c-0.495,0.098-1.209,0.435-2.02,1.148
			c-1.634,1.399-3.288,3.828-4.646,6.456c-2.76,5.335-4.776,11.529-6.666,17.769c-0.35,1.202-0.689,2.37-1.029,3.541
			c-3.087,11.118-5.265,22.66-7.083,34.265c-1.808,11.619-3.203,23.348-4.391,35.129l-0.395,3.705
			c-2.66,25.941-3.869,51.964-2.867,78.251c0.038,1.321,0.072,2.589,0.107,3.858c0.424,11.689,1.271,23.346,2.724,34.898
			c1.463,11.539,3.495,23.022,6.646,34.044c0.349,1.182,0.721,2.349,1.101,3.511c1.535,4.635,3.317,9.16,5.495,13.335
			c2.168,4.155,4.762,8.009,7.727,10.815c0.685,0.682,1.366,1.343,2.068,1.905c2.282,1.872,4.563,2.961,7.072,3.31
			c1.259,0.172,2.6,0.158,4.022-0.06c0.779-0.084,1.285-0.302,1.87-0.44c0.145-0.041,0.291-0.062,0.439-0.112l0.444-0.215l0.903-0.4
			c2.433-1.22,4.784-3.4,6.523-6.04c1.758-2.648,2.946-5.763,3.501-9.028c0.121-1.056,0.401-2.048,0.444-3.084
			c0.032-1.034,0.134-2.063,0.142-3.106c-0.057-0.574-0.113-1.15-0.171-1.729l-0.175-1.727l-0.404-1.728
			c-0.104-0.62-0.209-1.236-0.312-1.848c-1.117-5.547-3.03-10.602-1.191-15.297c0.251-0.396,0.541-0.738,0.873-1.004
			c0.998-0.79,2.376-0.893,4.197,0.346c0.667,0.753,1.324,1.615,1.979,2.542c0.63,0.938,1.133,2.012,1.696,3.068
			c1.185,2.091,1.975,4.431,2.894,6.503c0.326,0.835,0.503,1.716,0.703,2.594l0.736,3.299c0.149,1.122,0.258,2.257,0.381,3.388
			c0.203,1.394,0.162,2.813,0.138,4.233l-0.037,2.138c-0.09,0.71-0.179,1.425-0.27,2.142c-0.813,9.343-5.738,18.596-14.184,24.086
			c-2.099,1.383-4.518,2.418-7.105,3.105c-2.438,0.599-4.903,0.849-7.464,0.744c-5.123-0.174-10.17-2.193-14.034-5.122
			c-1.206-0.892-2.32-1.862-3.364-2.87c-4.977-4.65-8.332-10.148-11.064-15.664c-2.711-5.549-4.775-11.231-6.484-16.943
			c-0.383-1.272-0.742-2.551-1.101-3.848c-3.148-10.826-5.162-21.851-6.599-32.905c-1.431-11.06-2.253-22.163-2.708-33.269
			l-0.146-3.919c-0.946-29.242-0.319-57.976,2.462-86.718c0.136-1.307,0.271-2.619,0.411-3.943
			c1.025-11.075,2.43-22.084,4.279-33.022c1.865-10.939,4.141-21.813,7.225-32.598c0.359-1.269,0.746-2.534,1.135-3.801
			c1.998-6.793,4.259-13.568,7.704-20.297c1.782-3.352,3.777-6.74,7.023-9.968c1.651-1.583,3.686-3.184,6.46-4.214
			c1.393-0.496,2.936-0.822,4.521-0.857c0.747-0.012,1.359,0.024,2.057,0.077c0.701,0.101,1.38,0.16,2.096,0.358
			c1.414,0.301,2.832,0.915,4.137,1.649c1.281,0.781,2.462,1.718,3.404,2.754c1.95,2.072,3.076,4.321,3.921,6.44
			c1.611,4.265,2.09,8.228,2.326,12.045c0.389,7.624-0.385,14.789-1.455,21.842l-0.677,4.005
			c-2.123,13.923-5.815,27.236-9.934,40.294c-4.146,13.056-8.788,25.841-13.41,38.644c-0.813,2.282-1.681,4.54-2.597,6.776
			c-0.453,1.121-0.925,2.235-1.406,3.345c-11.72,23.875-23.503,47.678-36.93,70.772c-0.646,1.096-1.296,2.19-1.943,3.289
			c-9.602,15.339-19.592,30.41-31.143,44.517c-5.808,7.026-12.012,13.814-19.067,19.956c-3.536,3.061-7.297,5.951-11.389,8.52
			c-4.115,2.534-8.55,4.798-13.494,6.269c-1.409,0.422-2.859,0.766-4.345,1.05c-3.1,0.51-6.52,0.673-9.836,0.195
			c-3.338-0.453-6.6-1.515-9.542-3.026c-5.918-3.05-10.418-7.625-13.989-12.404c-3.566-4.825-6.314-9.967-8.64-15.189
			c-2.317-5.229-4.198-10.562-5.817-15.934c-0.373-1.266-0.746-2.531-1.09-3.802c-3.533-13.522-5.651-27.168-7.087-40.803
			c-1.419-13.642-2.086-27.288-2.173-40.908c-0.001-1.311-0.001-2.62-0.002-3.973c0.048-12.507,0.611-25.048,1.816-37.59
			c1.241-12.54,3.016-25.08,6.242-37.565c0.324-1.248,0.669-2.499,1.04-3.764c1.495-4.278,3.129-8.559,5.287-12.811
			c1.088-2.123,2.294-4.244,3.847-6.323c1.547-2.058,3.415-4.164,6.199-5.811c1.393-0.805,3.056-1.448,4.849-1.687
			c1.772-0.242,3.667-0.078,5.209,0.428c0.793,0.239,1.585,0.46,2.333,0.887c0.758,0.385,1.516,0.769,2.159,1.314
			c0.671,0.51,1.341,1.033,1.853,1.646c0.547,0.598,1.109,1.203,1.494,1.847c1.75,2.553,2.68,5.217,3.232,7.722
			c0.172,0.64,0.284,1.263,0.378,1.88c0.096,0.62,0.216,1.247,0.289,1.862c0.104,1.212,0.277,2.454,0.293,3.641
			c0.215,4.802-0.128,9.42-0.704,13.951c-0.583,4.53-1.425,8.965-2.426,13.337c-2.035,8.729-4.725,17.19-7.913,25.385l-1.462,3.618
			c-4.41,16.024-10.817,31.376-18.196,46.169c-7.404,14.793-15.846,29.018-24.781,42.888c-0.718,1.109-1.435,2.223-2.165,3.353
			c-7.233,11.269-14.889,22.463-23.31,33.216c-8.434,10.734-26.86,29.436-31.188,32.714c-13.869,10.51-22.541,16.896-41.824,23.099
			c-4.384,0.961-13.039,1.765-17.777,1.358c-2.353-0.175-4.8-0.678-7.255-1.557c-2.431-0.894-5.013-2.268-7.192-4.656
			c-0.533-0.592-1.02-1.294-1.475-1.952c-0.435-0.696-0.779-1.49-1.105-2.235c-0.282-0.775-0.453-1.59-0.619-2.372
			c-0.114-0.784-0.105-1.559-0.111-2.313c0.183-2.991,1.372-5.271,2.689-7.094c2.818-3.52,7.089-8.919,10.424-6.548
			C82.804,357.553,83.07,359.762,79.099,365.057z"/>
		<path d="M433.993,363.702c2.025,2.722,7.286,6.286,8.413,7.057c1.12,0.765,6.644,1.465,7.84,1.512
			c1.184,0.054,2.317-0.199,3.052-0.911l0.151-0.139c1.049-0.952,1.268-2.239,2.359-3.504l0.137-0.19
			c0.135-0.184,1.312-4.551,1.347-6.408c0.003-0.08-0.015-0.317-0.015-0.317c-0.14-1.809-0.433-3.483-0.193-5.434
			c-0.023-0.115-0.055-0.219-0.087-0.322c-0.6-1.497-1.436-2.875-2.282-4.272c-0.804-1.415-1.506-2.886-1.777-4.803l-0.167-0.341
			c-1.077-2.165-2.474-4.3-4.522-5.851c-0.075-0.12-0.163-0.22-0.255-0.314c-2.182-2.166-4.778-3.981-6.847-6.463l-0.26-0.32
			c-0.943-1.165-1.919-2.371-3.02-3.505c0.059,0.06,0.059,0.06,0.116,0.119c-1.063-1.126-2.801-1.644-4.066-2.953l-0.344-0.363
			c-0.521-0.598-1.05-1.165-1.577-1.875l-0.787-1.088c-0.262-0.418-0.501-0.831-0.794-1.393c-0.291-0.526-0.494-1.083-0.702-1.645
			c-0.217-0.561-0.385-1.131-0.483-1.724c-0.309-1.173-0.162-2.384-0.154-3.583l0.104-0.604c0.062-0.276,0.13-0.616,0.176-0.77
			c0.294-1.124,0.762-2.437,1.366-3.633c0.614-1.189,1.358-2.297,2.25-3.259c0.87-0.983,1.916-1.785,3.02-2.475
			c1.137-0.644,2.34-1.17,3.618-1.511c0.26-0.058,0.515-0.088,0.769-0.121c1.161-0.193,2.344-0.239,3.521-0.177
			c1.17,0.06,2.073,0.211,2.976,0.381c1.784,0.354,3.396,0.858,4.932,1.438l0.511,0.154c4.503,1.422,9.604,5.143,10.585,6.329
			c0.574,0.693,0.496,5.022-2.694,6.566c-2.828,1.369-9.114-1.523-12.71-2.831c-0.892-0.324-3.082-0.76-5.313,0.522
			c-0.163,0.34-0.172,0.595-0.271,1.128l-0.015,0.001l-0.013,0.027c0.091,0.221,0.181,0.437,0.269,0.653
			c0.01,0.018,0.066,0.146,0.11,0.276l0.252,0.467c0.126,0.306,0.43,0.706,0.622,1.069l0.188,0.276
			c1.72,1.665,4.035,3.355,6.092,5.446l0.294,0.3c7.266,6.158,10.555,12.563,12.385,15.188l0.258,0.378
			c1.773,3.963,4.578,7.517,6.035,12.01l0.128,0.486c0.393,2.787,0.753,5.614,0.788,8.465l-0.009,0.504
			c-0.089,0.887-0.183,1.768-0.356,2.63c-0.161,0.861-0.262,1.739-0.49,2.567c-0.217,0.852-0.365,1.655-0.626,2.541
			c-0.305,0.897-0.501,1.783-0.913,2.678c-0.071,0.173-0.144,0.347-0.22,0.522c-0.656,1.639-1.65,3.253-2.815,4.753
			c-1.229,1.464-2.661,2.846-4.336,3.864l-0.5,0.314c-2.763,0.593-5.08,1.437-7.56,1.93c-2.438,0.488-12.225-0.626-14.145-1.64
			c-1.942-1.017-3.589-2.471-5.179-3.879l-0.398-0.325c-2.731-2.021-5.912-4.108-7.769-7.403c-0.096-0.146-0.167-0.314-0.244-0.478
			c1.152-1.933,0.971-2.909,0.23-3.777c-0.394-0.414-0.892-0.809-1.424-1.224c-0.525-0.414-1.134-0.827-1.563-1.325
			c-0.445-0.487-0.803-1.024-0.938-1.601c-0.108-0.58,0.031-1.207,0.514-1.827c0.937-1.231,3.502-2.496,8.376-3.104
			C430.744,356.795,432.53,361.735,433.993,363.702z"/>
		<path d="M475.007,365.464c1.036,0.561,5.32,3.795,6.566,4.43c1.222,0.64,5.235,1.683,7.016,1.245
			c1.168-0.114,3.242-1.162,3.859-2.003l0.136-0.164c0.248-0.241,0.365-0.617,0.554-0.896c0.108-0.376,0.295-0.64,0.387-1.028
			c0.059-0.18,0.123-0.353,0.203-0.518c0.066-0.182,0.116-0.38,0.198-0.56c0.182-0.343,0.326-0.761,0.575-1.146l0.119-0.223
			c0.109-0.24,0.186-0.566,0.244-0.856c0.287-0.955,0.577-3.412,0.519-6.158c-0.033-1.532-0.148-3.786-0.938-5.551
			c-0.654-1.464-2.275-3.958-3.535-5.666c-2.082-2.88-6.17-6.902-8.597-8.167c-0.102-0.109-0.214-0.2-0.325-0.282
			c-2.688-1.879-5.766-3.492-8.292-6.066l-0.316-0.341c-1.152-1.233-7.045-6.751-7.651-7.616c-1.468-2.094-2.231-3.742-2.862-5.631
			c-0.563-1.943-0.919-3.861-0.719-6.125l0.119-0.729c0.211-1.269,0.672-2.698,1.243-3.927c0.614-1.237,1.352-2.405,2.282-3.402
			c1.814-2.04,4.225-3.447,6.837-4.264c0.271-0.069,0.524-0.109,0.778-0.153c2.328-0.444,4.333-0.384,6.313-0.105
			c1.956,0.285,3.79,0.827,5.52,1.548l0.572,0.2c1.506,0.565,4.375,2.4,5.777,3.368c4.402,3.042,4.441,7.937,1.74,10.852
			c-0.277,0.3-1.066,1.659-3.888,1.619c-1.327-0.018-4.349-2.986-6.519-4.348c-0.843-0.527-1.76-0.7-2.563-0.982l-0.267-0.095
			c-1.646-0.113-3.909-0.523-4.889,0.279c-0.103,0.147-0.143,0.327-0.175,0.493c-0.041,0.176-0.029,0.279-0.07,0.604
			c-0.016,0.043-0.021,0.104-0.022,0.181c-0.033,2.026,0.129,3.014,1.181,4.227c1.33,1.532,3.278,3.051,5.255,4.853
			c0,0,3.907,2.498,7.243,5.378c0.716,0.619,5.057,5.419,7.438,7.637l0.338,0.322c1.318,1.819,2.886,3.396,4.414,5.174
			c1.526,1.75,3.084,3.642,4.185,5.878l0.236,0.479c0.874,2.867,1.72,5.778,2.07,8.765l0.045,0.526
			c0.017,3.75-0.477,7.291-1.241,10.651c-0.05,0.181-0.1,0.362-0.151,0.55c-0.903,3.412-2.667,7.091-5.726,9.777l-0.452,0.402
			c-2.684,1.106-4.938,2.359-7.427,3.227c-2.451,0.852-12.663,0.8-14.749-0.021c-2.11-0.814-3.912-2.182-5.684-3.438l-0.435-0.298
			c-2.999-1.771-6.378-3.619-8.593-6.699c-0.108-0.142-0.208-0.288-0.3-0.448c0.936-2.057,0.629-3.017-0.212-3.79
			c-0.863-0.741-2.234-1.317-3.288-2.146c-0.507-0.42-0.933-0.895-1.144-1.438c-0.191-0.553-0.144-1.187,0.24-1.868
			c0.745-1.352,3.067-2.992,7.772-4.439C467.769,356.463,469.729,361.855,475.007,365.464z"/>
		<path d="M672.334,111.645c-2.914-0.613-13.325-1.24-28.193,5.695c-10.794,5.036-20.133,10.393-26.296,15.414
			c-6.17,5.028-11.879,10.606-17.629,16.14c-0.562,0.557-1.106,1.098-1.649,1.637c-13.544,13.403-26.309,28.603-34.521,46.141
			l-1.157,2.03c-5.211,9.128-10.158,18.423-14.54,28.026c-4.323,9.609-8.215,19.522-10.865,29.743l-0.568,2.114
			c-0.457,1.76-0.839,3.526-1.252,5.286c-0.324,1.753-0.745,3.526-0.989,5.257l-0.409,2.605l-0.29,2.544
			c-0.165,1.724-0.248,3.517-0.389,5.267c-0.359,7.048-0.118,14.077,0.566,21.032c0.087,0.658,0.167,1.291,0.253,1.924
			c0.131,0.94,0.262,1.885,0.396,2.828c0.193,0.936,0.388,1.872,0.584,2.814c1.993,6.561,4.631,12.7,7.531,18.614
			c2.918,5.912,6.055,11.629,9.439,17.539l1.407,1.592c7.985,9.056,17.905,15.986,28.835,21.11c0.707,0.256,1.383,0.501,2.056,0.743
			c4.921,1.596,10.011,2.676,15.167,3.213c5.175,0.458,10.379,0.542,15.588,0.183c1.304-0.052,2.604-0.253,3.903-0.361
			c1.3-0.128,2.601-0.229,3.896-0.458l3.898-0.558c1.28-0.209,2.504-0.516,3.766-0.753c1.247-0.276,2.529-0.43,3.762-0.775
			l3.708-1.005l1.873-0.476c0.61-0.187,1.216-0.414,1.825-0.615l3.693-1.202c0.707-0.244,1.372-0.589,2.042-0.923
			c6.509-2.895,12.545-6.97,18.119-11.591c2.841-2.261,5.393-4.887,7.957-7.469l3.622-4.118c1.209-1.361,2.26-2.878,3.38-4.319
			c0.529-0.602,1.024-1.2,1.508-1.8c10.732-14.182,18.522-30.455,25.458-46.742l0.874-2.074c3.163-7.612,5.98-15.415,8.274-23.461
			c-0.117,0.433-0.117,0.433-0.239,0.866c2.23-7.787,3.098-15.899,4.419-23.903c0.136-0.764,0.273-1.504,0.377-2.248
			c1.117-7.015,1.901-14.084,2.203-20.998c0.137-3.444,0.187-6.883-0.011-10.075c-0.329-3.321-0.558-6.735-1.181-10.013
			l-0.292-2.092c-1.247-7.254-3.469-14.252-6.872-20.61c-3.395-6.354-8.066-11.97-13.719-16.445c-0.551-0.47-1.081-0.92-1.612-1.373
			c-10.197-7.869-23.332-11.753-36.55-11.599l-2.133,0.087c-5.679,0.38-11.342,1.563-16.78,3.546l-1.996,0.572l-1.626,0.434
			l-1.604,0.526l-3.234,0.999l-3.19,1.176c-1.074,0.38-2.144,0.775-3.175,1.27l-3.137,1.415c-1.037,0.497-2.025,1.094-3.038,1.652
			c-2.046,1.082-3.921,2.478-5.79,3.882c-0.624,0.402-1.207,0.826-1.775,1.266l-1.727,1.287l-0.912,0.759
			c-0.612,0.498-1.193,1.037-1.738,1.624l-0.964,0.814c-3.008,2.287-5.989,4.148-10.704,2.379c-0.447-0.233-0.868-0.508-1.255-0.816
			c-1.151-0.937-1.966-2.222-1.982-3.889c0.918-2.428,3.142-4.753,4.736-6.953l1.106-1.137l1.391-1.418l1.479-1.324l1.847-1.618
			c0.625-0.531,1.225-1.095,1.879-1.603c4.046-3.555,8.537-6.573,13.407-8.8c2.376-1.229,4.909-2.117,7.392-3.088
			c1.233-0.5,2.54-0.83,3.8-1.255c1.283-0.377,2.529-0.86,3.834-1.157l2.386-0.632c7.322-2.364,14.931-3.664,22.592-3.83
			c0.853-0.018,1.708-0.032,2.574-0.049c14.55-0.353,29.58,4.097,41.718,12.908c0.716,0.512,1.458,0.986,2.122,1.569
			c7.735,6.094,14.296,13.584,19.047,22.019c4.741,8.436,7.828,17.637,9.389,26.964c0.137,0.851,0.271,1.703,0.409,2.565
			c0.388,1.791,0.465,3.594,0.696,5.393c0.201,1.794,0.401,3.588,0.433,5.467c0.163,3.721-0.011,7.267-0.227,10.812
			c-0.502,7.047-1.526,13.904-2.808,20.69l-0.453,2.393c-2.812,17.086-7.113,33.932-13.434,50.146l-0.918,2.309
			c-2.813,8.179-6.449,16.018-10.487,23.629c-4.099,7.598-8.607,14.95-13.279,22.325c-0.834,1.311-1.713,2.594-2.628,3.851
			c-0.444,0.637-0.967,1.223-1.466,1.819c-5.979,6.176-12.299,12.038-19.04,17.424c-6.75,5.372-14.001,10.24-21.891,14.076
			l-2.304,0.995l-4.154,1.607c-1.373,0.552-2.831,0.896-4.236,1.357c-1.42,0.424-2.827,0.898-4.253,1.287l-4.331,0.973
			c-5.765,1.347-11.456,2.023-17.293,2.487c-5.821,0.43-11.711,0.271-17.584-0.277c-5.866-0.671-11.695-1.904-17.367-3.726
			c-0.801-0.289-1.604-0.578-2.409-0.872c-13.275-5.35-25.479-13.794-34.961-24.673l-1.657-1.929
			c-11.147-14.159-18.156-31.042-20.939-48.372c-0.134-0.834-0.268-1.668-0.408-2.529c-1.136-7.983-1.396-16.096-0.814-24.149
			c0.198-2.016,0.346-4.009,0.594-6.042l0.441-3.079l0.553-2.996c0.35-2.009,0.85-3.921,1.269-5.885
			c0.504-1.917,0.965-3.855,1.504-5.755c0.214-0.759,0.433-1.519,0.652-2.289c4.037-10.249,7.707-20.512,11.78-30.706
			c4.105-10.153,12.36-23.281,16.185-31.19c4.502-9.313,9.179-18.507,15.354-26.784c6.184-8.284,13.188-15.945,20.494-23.265
			c0.589-0.59,1.174-1.178,1.771-1.773c5.911-5.962,12.006-11.944,18.763-17.296c21.701-13.868,45.375-21.903,46.754-22.447
			c2.66-1.12,5.482-2.092,8.466-2.66c2.977-0.571,6.134-0.737,9.308-0.176c3.156,0.555,6.37,1.822,9.093,4.244
			c1.345,1.208,2.572,2.71,3.417,4.565c0.839,1.828,1.277,4.12,0.748,6.242c-0.479,2.139-2.051,3.72-3.664,4.148
			C680.088,116.05,673.759,111.947,672.334,111.645z"/>
		<path d="M418.385,313.41c0.064,0.49,0.249,1.102,0.39,1.747c0.073,0.325,0.135,0.655,0.163,0.984
			c-0.361,2.58-1.642,3.862-2.922,5.141c-2.561,1.28-6.401,0-7.799-3.793c-0.117-0.249-0.219-0.508-0.302-0.776
			c-0.098-0.308-2.687-8.74,2.978-10.795c0.337-0.112,0.665-0.185,0.981-0.223c1.579-0.186,2.897,0.514,3.876,1.642
			C415.945,307.564,418.336,313.075,418.385,313.41z"/>
	</g>
</g>
</svg>
