<?xml version="1.0" encoding="utf-8"?>
<!-- Generator: Adobe Illustrator 16.0.0, SVG Export Plug-In . SVG Version: 6.00 Build 0)  -->
<!DOCTYPE svg PUBLIC "-//W3C//DTD SVG 1.1//EN" "http://www.w3.org/Graphics/SVG/1.1/DTD/svg11.dtd">
<svg version="1.1" id="圖層_1" xmlns="http://www.w3.org/2000/svg" xmlns:xlink="http://www.w3.org/1999/xlink" x="0px" y="0px"
	 width="496.24px" height="452.436px" viewBox="0 0 496.24 452.436" enable-background="new 0 0 496.24 452.436"
	 xml:space="preserve">
<g>
	<g>
		<path d="M361.44,335.064c-5.111-1.28-37.01-7.595-37.01-7.595c-2.063-0.652-4.319-1.133-6.188-2.045
			c-0.983-0.42-1.954-0.808-2.972-1.259l-1.521-0.665l-0.767-0.333l-0.191-0.085c-0.069-0.025-0.146-0.047-0.104-0.126l0.072-0.383
			l1.156-6.249c0.209-1.07,0.351-2.081,0.659-3.264l0.414-1.729l0.105-0.433l0.052-0.217l0.022-0.119l0.083-0.439l0.688-3.509
			c0.397-2.385,0.931-4.712,1.418-7.097c0.1-0.469,0.196-0.926,0.292-1.381c2.518-11.308,5.37-22.944,5.094-34.732l0.146-1.412
			l1.204-10.598l0.305-2.651l0.073-0.662l0.109-1.155l0.227-2.428c0.266-3.215,0.531-6.433,0.797-9.654
			c4.832,0.043,9.677,0.088,14.534,0.132c2.892,0.022,5.792,0.005,8.705-0.076l1.363-0.021c9.076-0.141,18.251-0.629,27.324,0.291
			c0.431,0.035,0.846,0.069,1.262,0.104c1.235,0.109,2.479,0.207,3.735,0.271c1.467-0.095,2.944-0.152,4.421-0.198
			c0.737-0.021,1.475-0.041,2.209-0.063c0.742-0.005,1.496,0.008,2.243,0.018l0.56,0.013c0.115,0.005,0.14-0.003,0.329,0.012
			l0.509,0.036l2.043,0.151c1.351,0.149,2.687,0.381,4.034,0.582c2.688,0.393,5.383,0.951,7.989,1.528
			c-0.101,2.94-0.267,5.896-0.525,8.768l-0.098,1.075l-0.142,1.011c-0.104,0.66-0.209,1.322-0.313,1.987
			c-0.114,0.646-0.228,1.294-0.34,1.943c-0.118,0.456-0.238,0.797-0.366,1.2l-0.121,1.458c-0.768,8.224-2.188,16.331-4.987,24.037
			c-0.125,0.493-0.242,0.964-0.36,1.431c-1.646,6.779-3.42,13.585-5.89,20.185c-2.435,6.596-5.612,12.996-9.91,18.657
			c-0.26,0.437-0.556,0.859-0.832,1.288c-2.635,4.072-5.526,8.022-8.728,11.789c-3.205,3.765-6.719,7.356-10.716,10.614
			c-0.475,0.311-0.919,0.63-1.355,0.95c-0.627,0.467-1.318,0.866-1.973,1.302c-0.664,0.421-1.353,0.878-1.943,1.203l-3.675,2.137
			c-1.214,0.729-2.476,1.383-3.713,2.074c-1.244,0.68-2.479,1.376-3.751,2.006c-5.017,2.643-10.219,4.939-15.536,6.838l-1.354,0.462
			c-4.977,1.672-10.018,3.179-15.179,4.519c0.276-0.075,0.276-0.075,0.551-0.152c-4.962,1.33-9.836,3.363-15.076,4.318
			c-0.499,0.08-0.986,0.157-1.474,0.235c-9.169,1.521-18.746,2.036-28.242,0.59l-1.484-0.266
			c-10.382-2.018-20.305-5.88-29.572-11.144c-0.451-0.289-0.885-0.565-1.318-0.845c-4.018-2.525-7.825-5.362-11.4-8.477
			c-3.577-3.111-6.938-6.486-10.01-10.146l-1.021-1.153c-2.686-3.116-5.263-6.376-7.799-9.838c-0.271-0.435-0.507-0.889-0.75-1.342
			c-1.563-2.934-2.722-6.085-3.713-9.319c-0.994-3.243-1.823-6.554-2.673-10.087c-0.109-0.564-0.175-1.131-0.235-1.697
			c-0.066-0.56-0.121-1.128-0.146-1.715c-0.041-0.316-0.08-0.635-0.119-0.954c-0.064-0.659-0.129-1.322-0.194-1.988
			c0.01-0.369,0.028-0.738,0.057-1.103c0.046-0.8,0.245-1.676,0.491-2.445c0.314-0.824,0.67-1.545,1.262-2.226
			c1.084-1.298,2.906-2.178,5.076-1.801c0.43,0.124,0.846,0.298,1.243,0.507c1.189,0.626,2.23,1.587,3.021,2.402
			c0.13,0.304,0.229,0.608,0.272,0.875c0.075,0.309,0.105,0.597,0.137,0.895c0.055,0.319,0.076,0.617,0.14,0.931
			c0.074,0.324,0.155,0.63,0.283,0.923l0.089,0.709c0.025,0.29,0.088,0.6,0.138,0.901c0.05,0.304,0.093,0.602,0.168,0.914
			c0.086,0.385,0.137,0.756,0.239,1.145c0.095,0.384,0.188,0.77,0.282,1.159c0.982,2.477,1.751,4.996,2.592,7.573
			c0.843,2.567,1.738,5.184,2.944,7.691l0.574,1.149c2.233,3.342,4.576,6.528,7.131,9.519c0.284,0.333,0.567,0.666,0.857,1.005
			c5.238,5.312,10.78,10.253,16.982,14.375c0.357,0.254,0.735,0.471,1.103,0.71c4.135,2.633,8.592,4.656,13.184,6.198
			c4.59,1.567,9.339,2.584,14.15,3.305c0.436,0.067,0.876,0.136,1.319,0.205c7.482,0.646,14.993,0.69,22.53-0.109l1.329-0.143
			c9.396-1.647,18.559-4.62,27.611-8.005l1.295-0.482c4.334-2.103,8.734-3.956,13.048-6.038c4.314-2.022,8.587-4.335,12.461-7.056
			c0.553-0.462,1.126-0.872,1.723-1.248c0.297-0.19,0.585-0.42,0.89-0.612c3.716-1.613,7.177-4.324,10.178-7.555
			c3.013-3.238,5.6-6.997,7.895-10.957c0.23-0.37,0.434-0.762,0.652-1.142c3.427-5.216,6.052-10.987,8.171-16.922
			c2.146-5.934,3.797-12.042,5.338-18.154c0.112-0.437,0.226-0.874,0.339-1.313c2.254-7.24,3.685-14.837,4.505-22.372l0.13-1.328
			l0.149-1.101l0.048-0.344l0.032-0.19l0.115-0.732c0.06-0.351,0.106-0.722,0.141-1.106c-0.308-0.146-0.72-0.217-1.11-0.291
			c-0.194-0.04-0.414-0.07-0.643-0.1l-2.379-0.237c-1.658-0.123-3.316-0.247-4.973-0.369l-5.018-0.272
			c-0.469-0.021-0.939-0.041-1.426-0.062c-8.982-0.388-18.078-0.578-27.178-0.676c-0.456-0.004-0.912-0.007-1.373-0.011
			c-2.828-0.454-5.673-0.672-8.526-0.757l-1.465-0.034c-0.248-0.004-0.496,0-0.74,0.008c-0.484,0.023-0.974,0.039-1.38,0.117
			l0.055,1.832l0.008,0.42l0.004,0.206l-0.036,0.663c-0.047,0.896-0.112,1.79-0.181,2.682c-0.271,3.57-0.708,7.119-1.488,10.611
			c0,0-1.932,25.696-4.481,37.658c-0.1,0.482-0.198,0.964-0.298,1.452c-0.442,2.461-0.885,4.933-1.33,7.415
			c-0.224,1.246-0.501,2.502-0.747,3.759l-0.094,0.471l-0.049,0.235c-0.011,0.063-0.002,0.046-0.006,0.071v0.184
			c0.005,0.113-0.004,0.241-0.011,0.362l-0.023,0.649l-0.003,0.073c0.009,0.018,0.061,0.018,0.087,0.029l0.189,0.051
			c0.121,0.036,0.243,0.057,0.358,0.078l0.637,0.131c0,0,24.332,5.689,41.487,9.099c-1.082,1.805-7.492,9.508-8.718,10.423
			C361.688,335.099,361.554,335.104,361.44,335.064z"/>
		<path d="M369.261,246.771c-0.436,0-0.877-0.04-1.321-0.122c-3.924-0.727-6.515-4.496-5.788-8.418c0,0,3.29-29.421,5.64-30.444
			c2.868-1.251,29.201-8.815,29.201-8.815c3.819-1.156,7.85,1.009,9.004,4.826c1.152,3.819-1.01,7.851-4.829,9.003
			c0,0-19.605,5.073-20.775,6.272c-1.1,1.126-4.035,21.789-4.035,21.789C375.713,244.341,372.676,246.771,369.261,246.771z"/>
		<path d="M242.386,97.217c-2.914-0.613-13.325-1.24-28.193,5.695c-10.794,5.036-20.133,10.393-26.296,15.414
			c-6.17,5.028-11.879,10.606-17.629,16.14c-0.562,0.557-1.106,1.098-1.649,1.637c-13.544,13.403-26.309,28.603-34.521,46.141
			l-1.157,2.03c-5.211,9.128-10.158,18.423-14.54,28.026c-4.323,9.609-8.215,19.522-10.865,29.743l-0.568,2.114
			c-0.457,1.76-0.839,3.526-1.252,5.286c-0.324,1.753-0.745,3.526-0.989,5.257l-0.409,2.605l-0.29,2.544
			c-0.165,1.724-0.248,3.517-0.389,5.267c-0.359,7.048-0.118,14.077,0.566,21.032c0.087,0.658,0.167,1.291,0.253,1.924
			c0.131,0.94,0.262,1.885,0.396,2.828c0.193,0.936,0.388,1.872,0.584,2.814c1.993,6.561,4.631,12.7,7.531,18.614
			c2.918,5.912,6.055,11.629,9.439,17.539l1.407,1.592c7.985,9.056,17.905,15.986,28.835,21.11c0.707,0.256,1.383,0.501,2.056,0.743
			c4.921,1.596,10.011,2.676,15.167,3.213c5.175,0.458,10.379,0.542,15.588,0.183c1.304-0.052,2.604-0.253,3.903-0.361
			c1.3-0.128,2.601-0.229,3.896-0.458l3.898-0.558c1.28-0.209,2.504-0.516,3.766-0.753c1.247-0.276,2.529-0.43,3.762-0.775
			l3.708-1.005l1.873-0.476c0.61-0.187,1.216-0.414,1.825-0.615l3.693-1.202c0.707-0.244,1.372-0.589,2.042-0.923
			c6.509-2.895,12.545-6.97,18.119-11.591c2.841-2.261,5.393-4.887,7.957-7.469l3.622-4.118c1.209-1.361,2.26-2.878,3.38-4.319
			c0.529-0.602,1.024-1.2,1.508-1.8c10.732-14.182,18.522-30.455,25.458-46.742l0.874-2.074c3.163-7.612,5.98-15.415,8.274-23.461
			c-0.117,0.433-0.117,0.433-0.239,0.866c2.23-7.787,3.098-15.899,4.419-23.903c0.136-0.764,0.273-1.504,0.377-2.248
			c1.117-7.015,1.901-14.084,2.203-20.998c0.137-3.444,0.187-6.883-0.011-10.075c-0.329-3.321-0.558-6.735-1.181-10.013
			l-0.292-2.092c-1.247-7.254-3.469-14.252-6.872-20.61c-3.395-6.354-8.066-11.97-13.719-16.445c-0.551-0.47-1.081-0.92-1.612-1.373
			c-10.197-7.869-23.332-11.753-36.55-11.599l-2.133,0.087c-5.679,0.38-11.342,1.563-16.78,3.546l-1.996,0.572l-1.626,0.434
			l-1.604,0.526l-3.234,0.999l-3.19,1.176c-1.074,0.38-2.144,0.775-3.175,1.27l-3.137,1.415c-1.037,0.497-2.025,1.094-3.038,1.652
			c-2.046,1.082-3.921,2.478-5.79,3.882c-0.624,0.402-1.207,0.826-1.775,1.266l-1.727,1.287l-0.912,0.759
			c-0.612,0.498-1.193,1.037-1.738,1.624l-0.964,0.814c-3.008,2.287-5.989,4.148-10.704,2.379c-0.447-0.233-0.868-0.508-1.255-0.816
			c-1.151-0.937-1.966-2.222-1.982-3.889c0.918-2.428,3.142-4.753,4.736-6.953l1.106-1.137l1.391-1.418l1.479-1.324l1.847-1.618
			c0.625-0.531,1.225-1.095,1.879-1.603c4.046-3.555,8.537-6.573,13.407-8.8c2.376-1.229,4.909-2.117,7.392-3.088
			c1.233-0.5,2.54-0.83,3.8-1.255c1.283-0.377,2.529-0.86,3.834-1.157l2.386-0.632c7.322-2.364,14.931-3.664,22.592-3.83
			c0.853-0.018,1.708-0.032,2.574-0.049c14.55-0.353,29.58,4.097,41.718,12.908c0.716,0.512,1.458,0.986,2.122,1.569
			c7.735,6.094,14.296,13.584,19.047,22.019c4.741,8.436,7.828,17.637,9.389,26.964c0.137,0.851,0.271,1.703,0.409,2.565
			c0.388,1.791,0.465,3.594,0.696,5.393c0.201,1.794,0.401,3.588,0.433,5.467c0.163,3.721-0.011,7.267-0.227,10.812
			c-0.502,7.047-1.526,13.904-2.808,20.69l-0.453,2.393c-2.812,17.086-7.113,33.932-13.434,50.146l-0.918,2.309
			c-2.813,8.179-6.449,16.018-10.487,23.629c-4.099,7.598-8.607,14.95-13.279,22.325c-0.834,1.311-1.713,2.594-2.628,3.851
			c-0.444,0.637-0.967,1.223-1.466,1.819c-5.979,6.176-12.299,12.038-19.04,17.424c-6.75,5.372-14.001,10.24-21.891,14.076
			l-2.304,0.995l-4.154,1.607c-1.373,0.552-2.831,0.896-4.236,1.357c-1.42,0.424-2.827,0.898-4.253,1.287l-4.331,0.973
			c-5.765,1.347-11.456,2.023-17.293,2.487c-5.821,0.43-11.711,0.271-17.584-0.277c-5.866-0.671-11.695-1.904-17.367-3.726
			c-0.801-0.289-1.604-0.578-2.409-0.872c-13.275-5.35-25.479-13.794-34.961-24.673l-1.657-1.929
			c-11.147-14.159-18.156-31.042-20.939-48.372c-0.134-0.834-0.268-1.668-0.408-2.529c-1.136-7.983-1.396-16.096-0.814-24.149
			c0.198-2.016,0.346-4.009,0.594-6.042l0.441-3.079l0.553-2.996c0.35-2.009,0.85-3.921,1.269-5.885
			c0.504-1.917,0.965-3.855,1.504-5.755c0.214-0.759,0.433-1.519,0.652-2.289c4.037-10.249,7.707-20.512,11.78-30.706
			c4.105-10.153,12.36-23.281,16.185-31.19c4.502-9.313,9.179-18.507,15.354-26.784c6.184-8.284,13.188-15.945,20.494-23.265
			c0.589-0.59,1.174-1.178,1.771-1.773c5.911-5.962,12.006-11.944,18.763-17.296c21.701-13.868,45.375-21.903,46.754-22.447
			c2.66-1.12,5.482-2.092,8.466-2.66c2.977-0.571,6.134-0.737,9.308-0.176c3.156,0.555,6.37,1.822,9.093,4.244
			c1.345,1.208,2.572,2.71,3.417,4.565c0.839,1.828,1.277,4.12,0.748,6.242c-0.479,2.139-2.051,3.72-3.664,4.148
			C250.14,101.622,243.811,97.52,242.386,97.217z"/>
	</g>
</g>
</svg>
