<?xml version="1.0" encoding="utf-8"?>
<!-- Generator: Adobe Illustrator 16.0.0, SVG Export Plug-In . SVG Version: 6.00 Build 0)  -->
<!DOCTYPE svg PUBLIC "-//W3C//DTD SVG 1.1//EN" "http://www.w3.org/Graphics/SVG/1.1/DTD/svg11.dtd">
<svg version="1.1" id="圖層_1" xmlns="http://www.w3.org/2000/svg" xmlns:xlink="http://www.w3.org/1999/xlink" x="0px" y="0px"
	 width="584px" height="436px" viewBox="0 0 584 436" enable-background="new 0 0 584 436" xml:space="preserve">
<path d="M105.868,354.832c-0.601,0.799-0.579,2.192-0.716,2.636c-0.049,0.77,0.041,1.091,0.208,1.389
	c0.169,0.3,0.628,0.754,1.495,1.205c0.898,0.433,2.111,0.777,3.408,1.037c2.693,0.443,5.771,0.444,8.863,0.133
	c3.104-0.31,6.25-0.931,9.34-1.756s6.13-1.857,9.054-3.065c1.458-0.61,2.892-1.256,4.286-1.944c1.355-0.664,2.801-1.49,4.248-2.286
	c5.768-3.212,11.416-6.849,17.162-10.542c0.963-0.815,1.918-1.624,2.872-2.434c9.896-8.685,18.713-18.701,26.87-29.193
	c8.16-10.511,15.699-21.512,23.043-32.644c0.717-1.104,1.412-2.18,2.107-3.254c8.661-13.369,16.85-27.16,24.127-41.401
	c7.254-14.238,13.633-28.941,18.332-44.014l1.281-3.606c2.822-8.119,5.4-16.3,7.422-24.533c1.002-4.114,1.873-8.24,2.508-12.348
	c0.631-4.097,1.029-8.197,0.964-12.086c-0.003-1.955-0.21-3.806-0.513-5.521c-0.313-1.712-0.873-3.166-1.475-4.15
	c-0.641-0.986-1.148-1.371-1.924-1.64c-0.451-0.202-0.656-0.175-0.907-0.171c-0.233,0.021-0.516,0.092-0.92,0.315
	c-0.807,0.442-1.933,1.48-2.925,2.88c-1.013,1.375-1.947,3.045-2.789,4.813c-1.688,3.556-3.029,7.527-4.152,11.592
	c-0.318,1.126-0.619,2.26-0.902,3.403c-2.83,11.443-4.346,23.479-5.405,35.496c-1.037,12.039-1.556,24.134-1.857,36.168
	c-0.017,1.143-0.033,2.245-0.049,3.346c-0.034,3.27-0.013,6.557,0.078,9.869c0.78,11.762,2.027,23.273,3.509,34.686
	c1.502,11.412,3.195,22.728,5.262,34.12l1.011,3.499c1.477,4.933,3.173,9.771,5.182,14.39c2.009,4.608,4.314,9.03,7.056,12.916
	c2.729,3.883,5.912,7.221,9.471,9.335c3.547,2.147,7.439,2.995,11.723,2.577c1.085-0.155,2.126-0.359,3.159-0.65
	c3.744-1.014,7.472-2.762,11.031-4.971c3.569-2.191,6.988-4.813,10.268-7.657c6.556-5.715,12.563-12.294,18.229-19.175
	c11.325-13.814,21.382-28.819,31.267-43.842l2.015-3.34c12.666-21.226,23.851-43.54,33.021-66.428
	c0.549-1.236,1.052-2.442,1.549-3.643c5.641-13.814,10.729-27.832,15.191-41.94c4.442-14.102,8.367-28.313,11.056-42.461
	l0.646-3.582c1.085-6.545,1.856-13.171,1.627-19.444c-0.119-3.105-0.545-6.159-1.427-8.538c-0.438-1.168-0.982-2.158-1.544-2.724
	c-0.559-0.601-1.038-0.869-1.76-1.046c0.305,0.072,0.303,0.076,0.568,0.181c-0.291-0.124-0.631-0.206-1.031-0.249
	c-0.194-0.035-0.436-0.01-0.649-0.034c-0.134,0.044-0.245-0.001-0.38,0.06c-0.495,0.098-1.209,0.434-2.02,1.147
	c-1.634,1.399-3.288,3.828-4.646,6.456c-2.76,5.335-4.776,11.529-6.666,17.769c-0.35,1.202-0.689,2.37-1.029,3.541
	c-3.087,11.118-5.265,22.66-7.083,34.265c-1.808,11.619-3.203,23.348-4.391,35.129l-0.395,3.705
	c-2.66,25.941-3.869,51.964-2.867,78.251c0.038,1.321,0.072,2.589,0.107,3.858c0.424,11.689,1.271,23.346,2.724,34.898
	c1.463,11.539,3.495,23.022,6.646,34.044c0.349,1.182,0.721,2.349,1.101,3.511c1.535,4.635,3.317,9.16,5.495,13.335
	c2.168,4.155,4.762,8.009,7.727,10.815c0.685,0.682,1.366,1.343,2.068,1.905c2.282,1.872,4.563,2.961,7.072,3.31
	c1.259,0.172,2.6,0.158,4.022-0.06c0.779-0.084,1.285-0.302,1.87-0.44c0.145-0.041,0.291-0.062,0.439-0.112l0.444-0.215l0.903-0.4
	c2.433-1.22,4.784-3.4,6.523-6.04c1.758-2.648,2.946-5.763,3.501-9.028c0.121-1.056,0.401-2.048,0.444-3.084
	c0.032-1.034,0.134-2.063,0.142-3.106c-0.057-0.574-0.113-1.15-0.171-1.729l-0.175-1.727l-0.404-1.728
	c-0.104-0.62-0.209-1.236-0.312-1.848c-1.117-5.547-3.03-10.602-1.191-15.297c0.251-0.396,0.541-0.738,0.873-1.004
	c0.998-0.79,2.376-0.893,4.197,0.346c0.667,0.753,1.324,1.615,1.979,2.542c0.63,0.938,1.133,2.012,1.696,3.068
	c1.185,2.091,1.975,4.431,2.894,6.503c0.326,0.835,0.503,1.716,0.703,2.594l0.736,3.299c0.149,1.122,0.258,2.257,0.381,3.388
	c0.203,1.394,0.162,2.813,0.138,4.233l-0.037,2.138c-0.09,0.71-0.179,1.425-0.27,2.142c-0.813,9.343-5.738,18.596-14.184,24.086
	c-2.099,1.383-4.518,2.418-7.105,3.105c-2.438,0.599-4.903,0.849-7.464,0.744c-5.123-0.174-10.17-2.193-14.034-5.122
	c-1.206-0.892-2.32-1.862-3.364-2.87c-4.977-4.65-8.332-10.148-11.064-15.664c-2.711-5.549-4.775-11.231-6.484-16.943
	c-0.383-1.272-0.742-2.551-1.101-3.848c-3.148-10.826-5.162-21.851-6.599-32.905c-1.431-11.06-2.253-22.163-2.708-33.269
	l-0.146-3.919c-0.946-29.242-0.319-57.976,2.462-86.718c0.136-1.307,0.271-2.619,0.411-3.943c1.025-11.075,2.43-22.084,4.279-33.022
	c1.865-10.939,4.141-21.813,7.225-32.598c0.359-1.269,0.746-2.534,1.135-3.801c1.998-6.793,4.259-13.568,7.704-20.298
	c1.782-3.352,3.777-6.74,7.023-9.968c1.651-1.583,3.686-3.185,6.46-4.214c1.393-0.496,2.936-0.822,4.521-0.857
	c0.747-0.012,1.359,0.023,2.057,0.077c0.701,0.101,1.38,0.16,2.096,0.358c1.414,0.301,2.832,0.914,4.137,1.648
	c1.281,0.781,2.462,1.719,3.404,2.754c1.95,2.072,3.076,4.322,3.921,6.44c1.611,4.265,2.09,8.228,2.326,12.045
	c0.389,7.624-0.385,14.789-1.455,21.842l-0.677,4.005c-2.123,13.923-5.815,27.236-9.934,40.294
	c-4.146,13.056-8.788,25.841-13.41,38.644c-0.813,2.282-1.681,4.54-2.597,6.776c-0.453,1.121-0.925,2.235-1.406,3.345
	c-11.72,23.875-23.503,47.678-36.93,70.772c-0.646,1.096-1.296,2.19-1.943,3.289c-9.602,15.339-19.592,30.41-31.143,44.517
	c-5.808,7.026-12.012,13.814-19.067,19.956c-3.536,3.061-7.297,5.951-11.389,8.52c-4.115,2.534-8.55,4.798-13.494,6.269
	c-1.408,0.422-2.859,0.766-4.345,1.05c-3.101,0.51-6.521,0.673-9.836,0.195c-3.338-0.453-6.6-1.515-9.542-3.026
	c-5.918-3.05-10.418-7.625-13.988-12.404c-3.566-4.825-6.314-9.967-8.641-15.189c-2.316-5.229-4.197-10.562-5.816-15.934
	c-0.373-1.266-0.746-2.531-1.09-3.802c-3.533-13.522-5.651-27.168-7.088-40.803c-1.42-13.642-2.086-27.288-2.173-40.908
	c-0.001-1.311-0.001-2.62-0.003-3.973c0.049-12.507,0.611-25.048,1.816-37.59c1.241-12.54,3.017-25.08,6.242-37.565
	c0.324-1.248,0.669-2.499,1.04-3.764c1.495-4.278,3.13-8.559,5.286-12.811c1.089-2.123,2.295-4.244,3.848-6.323
	c1.547-2.058,3.415-4.164,6.199-5.811c1.393-0.805,3.056-1.448,4.849-1.687c1.772-0.242,3.667-0.078,5.209,0.428
	c0.793,0.239,1.585,0.46,2.333,0.887c0.758,0.385,1.516,0.769,2.159,1.314c0.671,0.51,1.341,1.033,1.853,1.646
	c0.547,0.598,1.109,1.203,1.494,1.847c1.75,2.553,2.68,5.217,3.232,7.722c0.172,0.64,0.283,1.263,0.378,1.88
	c0.097,0.62,0.216,1.247,0.289,1.862c0.104,1.212,0.277,2.454,0.294,3.641c0.215,4.802-0.129,9.42-0.705,13.951
	c-0.583,4.53-1.424,8.965-2.426,13.337c-2.035,8.729-4.725,17.19-7.912,25.385l-1.463,3.618
	c-4.41,16.024-10.816,31.376-18.195,46.169c-7.404,14.793-15.847,29.018-24.781,42.888c-0.719,1.109-1.436,2.223-2.166,3.353
	c-7.232,11.269-14.889,22.463-23.31,33.216c-8.435,10.734-26.86,29.436-31.188,32.714c-13.869,10.51-22.54,16.896-41.824,23.099
	c-4.384,0.961-13.038,1.765-17.776,1.358c-2.354-0.175-4.801-0.678-7.256-1.557c-2.432-0.894-5.014-2.268-7.192-4.656
	c-0.533-0.592-1.02-1.294-1.476-1.952c-0.434-0.696-0.779-1.49-1.104-2.235c-0.282-0.775-0.452-1.59-0.618-2.372
	c-0.114-0.784-0.105-1.559-0.111-2.313c0.183-2.991,1.371-5.271,2.688-7.094c2.817-3.52,7.089-8.919,10.424-6.548
	C109.573,347.328,109.84,349.537,105.868,354.832z"/>
</svg>
