<?xml version="1.0" encoding="utf-8"?>
<!-- Generator: Adobe Illustrator 16.0.0, SVG Export Plug-In . SVG Version: 6.00 Build 0)  -->
<!DOCTYPE svg PUBLIC "-//W3C//DTD SVG 1.1//EN" "http://www.w3.org/Graphics/SVG/1.1/DTD/svg11.dtd">
<svg version="1.1" id="圖層_1" xmlns="http://www.w3.org/2000/svg" xmlns:xlink="http://www.w3.org/1999/xlink" x="0px" y="0px"
	 width="3030.338px" height="737.976px" viewBox="0 0 3030.338 737.976" enable-background="new 0 0 3030.338 737.976"
	 xml:space="preserve">
<g>
	<defs>
		<rect id="SVGID_19_" y="0" width="3030.338" height="737.976"/>
	</defs>
	<clipPath id="SVGID_2_">
		<use xlink:href="#SVGID_19_"  overflow="visible"/>
	</clipPath>
	<rect y="557.976" clip-path="url(#SVGID_2_)" fill="#35BBEA" width="3030.338" height="180"/>
	<rect y="197.976" clip-path="url(#SVGID_2_)" fill="#00A7E3" width="3030.338" height="360"/>
	<rect y="0" clip-path="url(#SVGID_2_)" fill="#65C6E5" width="3030.338" height="197.976"/>
	<g clip-path="url(#SVGID_2_)">
		<g>
			<g>
				<g>
					<g>
						<path fill="#006087" d="M-740.532,540.701l-0.385,2.046l-0.201,0.458l-0.354-0.23l1.259-0.861l13.673,0.438l13.653,1.48
							l13.678-1.128l13.687,0.41l13.697,0.301l13.631-1.151l0.429-0.776l9.246-12.314l1.355,1.467l1.223,2.053l15.919-0.549
							l15.855-0.153l15.858-1.07l1.067,0.359v-0.586l0.529,1.443l0.254-2.1l0.058,0.135l9.191-11.928l8.381-12.437l7.582-13.053
							l12.572-8.1l13.7-5.427l0.444,0.847l15.025-0.041l13.961,0.596l-10.854,7.758l-10.245,10.007l-9.133,10.936l-8.405,11.691
							l-6.047,13.186l-1.915,14.378l-1.71,14.29l0.565,14.788l4.015,14.246l5.888,13.494l7.548,12.636l10.428,10.34l10.431,10.306
							l12.592,7.582l13.443,5.996l14.398,3.056l14.639,0.373l14.706,0.041l14.127-4.109l13.514-5.627l12.382-7.789l10.882-9.727
							l10.489-10.322l6.975-12.965l5.519-13.538l4.323-14.066l0.407-14.713l-0.298-14.521l-4.435-13.825l-4.194-13.935
							l-8.459-11.833l-8.206-12.088l-11.43-9.1l-12.332-7.605l17.677-0.092l-0.291-0.146l0.897-0.566l15.919,1.755l15.167,5.055
							l8.676,9.103l7.287,10.207l6.417,10.99l5.411,11.664l8.52,9.771l0.769,0.597l1.921-0.193l0.498-0.583l-0.308-0.125
							l15.461-0.021l15.442,0.671l15.455-1.047l15.459,1.809l15.455-0.816l15.449-0.549l15.458,0.874l15.367-0.108l15.367-0.755
							l15.366,0.671l15.364-0.746l15.364,0.993l15.359-0.21l15.357-0.444l14.469-1.101l14.467,0.39l14.455,1.446l14.463,0.248
							l14.477-0.884l14.469-0.437l14.459,1.779l14.473-0.362l14.47-0.403l14.462-1.227L37.479,538l14.456-0.823l14.492,1.389
							l14.457-0.775l14.438-1.027l0.475,0.319l2.023,0.623l7.585-12.681l5.278-13.748l5.478-13.616l5.448-13.612l7.48-12.552
							l7.75-12.338l11.732-8.507l12.416-8.053l0.902,0.833l15.566,2.429l15.639,0.552l15.658-0.816l15.601-1.25l15.54-1.318
							l-0.096,1.918l16.275,3.391l13.917,11.021l-0.515,0.996l1.043-0.799l8.107,12.413l7.457,12.816l5.261,13.887l5.285,13.721
							l3.849,14.022l5.563,13.561l10.19,9.513l0.929,0.227l16.309,1.433l16.369-0.647l16.333-0.661l16.356,0.559l13.406-1.166
							l13.389,0.67l13.388-0.139l13.382,0.169l13.385-0.261l0.99-0.552l-0.566-0.884l2.813,0.075l-0.604-0.027l-0.328-1.033
							l1.697-4.804l12.697-0.431l12.688-0.989l18.873-9.635l-0.646,0.851l0.223-1.623l1.061-15.668l-3.783-14.584l-8.176-8.483
							l-12-1.616l-0.355,1.769l13.311,4.807l9.687,10.075l-0.573,11.79l1.6,12.033l-13.305,6.193l-13.713,3.202l-12.881,0.156
							l-12.792-0.61l-0.878,0.935l-0.301-0.962l0.67-0.491l0.299-0.318l0.457-0.752l-7.053-14.934l5.133-14.967l0.995-0.759
							l18.162-2.558l12.69-3.171l-1.49-10.167l-5.123-2.551l-0.145,0.772l-1.193-0.633l3.365-16.004l0.752-16.217l0.443-16.218
							l-0.353-16.248l0.39-12.176l1.426-0.183l-0.656-15.561l-0.783-15.56l-2.639-15.371l-3.916-15.068l-2.755-15.266l-4.468-14.855
							l-6.059-14.263l-6.297-14.32l5.911,0.867l0.383-1.074l-0.528,0.41l-1.017-15.201l-8.89-12.708l-13.568-6.962l-1.043-1.877
							l-5.939,4.729l-0.711,0.979l1.471,0.366l5.914-4.523l5.072,4.126l-5.546,0.637l0.118-0.399l14.02,8.513l3.473,16.136
							l-3.842-7.511l-0.354,0.054l4.367,9.198l-1.182-1.795l-0.546,0.684l-14.331-8.463l-0.559,1.108l-7.697-18.261l-8.297-13.175
							l-6.816-13.921l-7.832-13.368l-7.111-13.842l-10.045-11.979l-8.937-14.066l-7.751-14.853l-9.939-13.398l0.521,0.644
							l-1.354-1.264l0.719-0.45l-0.383-0.447l-1.221-0.055l0.458,0.038l-0.407-1.501l-11.721-7.081l-11.313-7.548l-12.928-4.316
							l-12.641-5.447l-13.699-1.284l-13.396-2.612l-14.039-2.615l-14.153-1.843l-14.232-1.054l-14.276-0.464l-14.083-2.825
							l-14.397,1.047l-14.138-1.989l-15.392-2.517l-15.549-0.525l-15.561-0.322l-15.489-1.297l-15.432-2.216l-15.642,1.101
							l-15.418-2.551l-15.241-0.66l-15.283-0.237l-15.265-0.491L8.153,99.822l-15.275-0.105l-15.244-1.66l-15.307,1.67l-0.668-0.718
							l-13.893-0.976l-13.907-0.081l-13.907-0.251l-13.91,0.105l-13.906,0.671l-13.908-0.597l-13.902,0.86l-13.911-0.613
							l-13.903,1.131l-14.662-0.606l-14.666-0.349l-14.662-0.037l-14.663,0.454l-14.665-0.003l-14.666-1.24l-14.663,1.494
							l-14.666,0.217l-14.663-1.643l-14.666,0.989l-14.663,0.531l-14.666,0.427l-14.662-1.589l-14.663,0.925l-14.662,0.501
							l-14.663-1.924l-14.672,1.477l-14.666,0.125l-14.652-1.908l-14.672,0.813l-14.669,0.579l-14.669,0.427l-14.663-1.013
							l-14.669-0.302l-14.669-0.027l-14.666,0.017l-14.656,1.304l-14.652,0.569l-14.666-0.037l-14.69-0.688l-0.708,0.464
							l0.742-0.166l13.87,1.626l13.927-1.107l13.89,1.799l13.91,0.39l13.907-1.948l13.907,0.095l13.91,0.556l13.908-1.077
							l13.903,1.199l14.663-0.318l14.666,0.877l14.663-0.633l14.662,1.003h14.666l14.666-0.993l14.662-0.352l14.666,0.583
							l14.662,0.396l14.666,0.237l14.666-0.312l14.662-1.562l14.663,2.077l14.666-1.657l14.663,0.79l14.551,0.03l14.55,0.081
							l14.558-0.653l14.547,0.806l14.558-0.688L-171,100.75l14.554-0.691l14.551,0.857l14.555-0.095l14.55,0.024l14.551-0.461
							l14.562,1.317l14.553-0.244l14.551-0.403l14.545-1.013l0.439,0.363l14.896,2.351l15.104-1.186l14.997,0.468l14.931,2.432
							l15.055-0.874l14.978,1.257l14.937,1.714l14.781-0.298l14.662,1.667l14.687,1.25l14.74,0.464l14.774,0.034l14.672,1.463
							l14.73,0.712l14.076,2.588l14.209,0.959l14.297-0.064l14.079,2.473l14.272,0.356l14.104,2.1l14.256,0.711l14.564,3.625
							l15.045,1l13.975,5.563l14.209,4.61l13.148,7.104l11.918,8.896l1.287-0.048l-3.949,7.172l-2.69-1.734l-0.83-1.213
							l-15.499,0.369l-15.476-1.182l-15.493,0.308l-15.488-0.437l-15.479,1.626l-15.496-1.115l-15.486,0.068l-15.482,1.061
							l-15.484,0.515l-13.941-1.981l-13.934-0.018l-13.938,1.81l-13.934-1.23l-13.941,0.292l-13.253,0.43l-13.252,0.125
							l-13.244-1.582l-13.229,2.056l-13.277-0.965l-0.281,1.291l-14.899-1.717l-14.927,0.325l-14.923-0.671l-14.924,1.138
							l-14.919,0.6l-14.924,0.047l-14.924,0.115l-14.926-1.077l-14.924,0.159l-13.622-0.407l-13.622-0.037l-13.619-0.633
							l-13.615,1.287l-13.609,0.224l-15.933,0.464l-15.913-0.067l-15.926-1.965l-15.882,1.738l-0.65-1.742l-14.419,0.214
							l-14.425,1.649l-14.409-0.081l-14.408-1.599l-14.411-0.403l-14.412,0.237l-14.415,1.189l-14.412-0.952l-14.415-0.197
							l-14.412,1l-14.412,0.041l-14.412,0.136l-14.419-1.565l-14.412,0.438l-14.409,1.924l-14.411-0.261l-14.415,0.312
							l-14.409-1.704l-14.408-0.609l-14.408-0.146l-14.425,2.158l-14.405-1.44l-14.418,1.108l-14.409-1.419l-14.415-0.254
							l-14.415,0.064l-14.415,0.128l-14.405,1.369l-14.416-0.383l-14.408,0.501l-14.436-1.264l-14.395,1.128l-0.576,1.074
							l-0.941-0.661l4.734-13.233l5.171-13.199l9.205-10.838l10.648-9.472l12.758-6.383l13.511-4.567l0.488,0.024l-0.495-0.484
							l-14.141,4.085l-12.985,6.864l-12.413,8.395l-9.29,11.875l-6.426,13.649l-2.853,14.696l-6.234,13.955l-8.624,12.854
							l-5.493,14.371l-4.003,14.845l-3.218,14.964l-4.516,14.683l-2.625,15.137l-0.908,15.147l-4.14,10.129l4.791,9.479
							l-0.139,1.247l-0.528-0.715l0.149-0.075l-2.527,11.952l-1.148,13.802l-1.445,13.934l-2.683,13.775l-0.606,14.042
							l-2.751,13.765l-0.24,14.066l-0.393,0.43l-6.325,12.596l0.207,14.371l-0.063,4.435l2.299,14.313l0.02,14.412l-2.268,14.313
							l0.495,14.392l1.852,0.579l-0.515,0.085l1.043,1.846l-0.29,4.726l0.147,6.172l-20.279,5.068l-0.288,1.047l-9.784,12.156
							l-1.296,15.574L-740.532,540.701z M-593.805,434.73l-11.071-10.811l12.26-11.62l0.366,0.512l9.069,11.159L-593.805,434.73z
							 M-152.367,169.777l13.304,1.297l13.305,0.539l13.303,0.061l13.305-1.257l13.304-0.115l12.478,1.271l12.504-1.006l0.803,0.657
							l-0.017,0.671l15.595-0.427l15.61-0.823l15.584,1.443l15.604,0.353l15.611,0.135l15.584-1.223l15.6-0.329l0.783-1.87
							l13.995,12.146l0.03,15.306l-1.552,15.276l2.257,15.248l-0.844,14.944l-0.888,14.944l0.077,14.692l-11.711,10.37l-0.221-1.9
							l-14.045,1l-13.985-0.993l-14.009,0.403l-14.002-1.332l-14.002,1.5l-13.995,0.8l-14.005,0.067l-14.008-1.118l-14.002-0.593
							l-13.998,1.43l-13.999-0.661l-13.995-0.671l-14.005,0.471l-14.002,0.143l-14.002-0.281l-14.001,1.159l-14.002-1.033
							l-13.999,0.25l-14.005-0.149l-13.988,0.759l-1.213,0.545l-5.115-17.23l-0.495-0.481l0.067-2.171l-0.014-0.816l-0.406-0.44
							l1.704-15.689l-0.685-15.73l-0.172-15.716l0.63-15.736l-1.233-15.689l0.803-0.003l4.902-9.943l11.007-1.541l0.386-1.111
							l13.203,2.307l13.341-0.417l13.317-0.21l13.321,0.399L-152.367,169.777z M109.11,354.646l-4.076-10.461l1.108-1.061
							l-1.017,0.884l18.273,0.6l18.203,0.522v0.62l2.422,3.441l-2.145-0.186l0.861,0.478l-1.979-0.841l0.044,1.423l-13.815,0.597
							l-10.726,1.206L109.11,354.646z M140.407,351.109l-12.359,6.958l-12.077-3.364l11.454-0.65L140.407,351.109z M326.188,181.404
							l4.885,15.543l6.274,15.032l6.77,14.781l8.438,14.239l6.39,15.269l0.49,16.248l-9.99,11.918l-0.453-0.393l0.176-0.783
							l-16.96,0.044l-17.061,0.799l0.257-3.598l0.289-0.061l-0.045-1.369l-1.572,0.227l-0.287,0.522l-0.288-0.007l1.314-15.242
							l0.498-15.275l1.66-15.292l0.546,1.437l-1.129,0.25l0.197-2.774l0.416-0.027l-1.9-3.245l0.759,1.443l0.854-1.45l-10.594-6.261
							l-0.166,0.525l-0.207-1.366l-10.329,1.284l0.495,0.2l-0.003,0.59l-3.449,16.35l-1.02,16.763l2.348,16.651l-0.797-0.017
							l-0.034,1.769l0.628-0.556l0.535-0.23l1.358,0.241l4.695,3.218l-2.744,0.786l-0.343,0.237l-0.688,0.193l0.112,3.663
							l-14.46,0.914l-14.414-1.026l-14.395,0.837l-14.402,0.058l-14.141,0.152l-14.137,0.332l-14.141-1.253l-14.141,0.874
							l-14.158-0.02l-14.131-1.067l-14.12,0.932l-14.151,0.078l-0.847-0.258l0.749-0.793l-10.211-3.855l-4.14-10.675l-1.162-0.217
							l0.501-13.602l0.949-13.609l0.047-13.636l-1.091-13.622l-0.152-13.622l-0.979-13.66l10.469-10.241l0.176-0.152l14.039,0.254
							l14.012,1.589l14.047,0.051l14.042-0.156l14.013-1.585l14.031,0.139l14.025-0.261l15.578-0.45l15.563,0.623l15.581-0.911
							l15.563,1.921l15.563-0.925l15.54-1.084l0.353,1.087l13.364,4.496L326.188,181.404z M306.636,224.672l8.775,5.031
							l-2.562,16.275l-0.976,16.546l0.891,16.837l-10.23-4.37l0.881-0.498l-1.071-0.21l1.806-16.163l1.854-16.174l0.44-16.265
							L306.636,224.672z M305.79,225.021l-3.342,16.566l-1.445,16.346l0.166,16.421l0.863,0.62l-6.582-0.112l0.148-1.321
							l-0.623,0.837l-0.366-0.048l0.569-16.484l0.051-16.499l-0.058-16.892L305.79,225.021z M309.103,287.977l-1.951,0.982
							l0.43,0.159l0.892-1.897l-0.146-0.596L309.103,287.977z M303.391,296.196l-1.095-0.44l0.566,0.613l-0.746,0.244
							L303.391,296.196z M305.058,285.734l0.904,1.175l-1.098,1.013l1.434,0.095l-1.609-0.996L305.058,285.734z M305.856,298.828
							l-1.842,0.695l0.23,0.098l1.162-2.029L305.856,298.828z M301.575,299.435l0.627-1.155l0.578,0.082l-0.789-0.058l0.65-1.067
							l1.285-3.049l0.524,0.911l0.491-0.495l-2.639,4.072L301.575,299.435z M299.403,288.431l1.304-0.522l-0.762,1.02l1.548-0.146
							L299.403,288.431z M301.646,286.273l1.867,0.762l-0.789-0.325l-0.789,2.71l0.361,0.162l-0.463-0.593L301.646,286.273z
							 M307.493,297.73l0.701-1.301l-0.244-0.183l-0.396,0.413l1.213,0.274L307.493,297.73z M309.116,280.541l1.979,1.206
							l-1.246,1.044l0.586-0.576l-1.268,0.698l-0.237-0.37l1.125-0.017L309.116,280.541z M309.712,285.816l0.315,1.02l-0.427,0.047
							l1.223,0.078L309.712,285.816z M314.36,286.588l-0.891,2.382l-0.187-0.783l0.464,0.034l-1.142-0.007L314.36,286.588z
							 M315.021,297.239l-1.297,0.576l0.41-7.138l-1.223-0.505l1.398,4.126L315.021,297.239z M296.909,279.768l3.687,1.376
							l0.6,2.249l0.536,0.143l0.559-0.434l-0.38,0.793l-1.66-1.22l-0.468,0.637l-1.931-0.349l-0.738,0.172l0.851-0.02l-1.07,0.396
							L296.909,279.768z M300.511,280.554l-3.27-4.885l4.994,0.42l-0.362,0.051l10.709,3.632l-0.217,1.321L300.511,280.554z
							 M314.354,284.213l-2.429-1.02l1.142-0.708h-0.413l1.551-0.996L314.354,284.213z M314.665,298.781l-1.223,2.276l-0.922-0.081
							l1.25,0.556l-1.179-0.593l0.048-0.634L314.665,298.781z M312.765,302.988l-1.958-0.257l1.342,0.067L312.765,302.988z
							 M90.048,311.173l-1.023,0.051l-0.248-0.085L90.048,311.173z M-408.942,169.116l14.503,1.321l14.493,0.63l14.5,0.179
							l14.513-1.148l14.5-0.058l14.51,1.196l14.49-1.294l14.513,0.288l14.53,0.142l0.108-0.766l7.836,6.928l-1.551,15.936
							l-0.512,15.849l-0.447,15.841l0.644,15.858l-0.64,15.838l0.037,15.899l-4.339,2.954l-0.284,1.155l-15.191-1.782l-15.174,2.036
							l-15.16-0.793l-15.164-0.894l-15.167-0.454l-15.157,1.819l-15.174-1.826l-15.157,1.521l-15.167-0.65l-15.161,0.583
							l-15.015-1.312l-15.028,1.376l-15.025,0.583l-15.018-0.193l-15.004-1.372l-15.018-0.79l-15.028,1.338l-15.019-0.617
							l-15.028-0.474l-15.001,0.816l-6.423-6.918l-0.403-0.519l0.169-13.836l2.562-13.605l2.033-13.649l3.686-13.287l4.957-14.455
							l6.867-13.799l11.573-10.143l14.147-5.722l0.816,0.6l14.486,0.427h14.493l14.486,1.379l14.497-0.895l14.497-0.244l14.52,0.718
							l14.493-0.955l14.506,0.637L-408.942,169.116z M-423.486,614.893l-13.578,8.92l-14.879,5.807l-15.719,2.348l-16.092-0.248
							l-15.377-5.132l-12.789-9.293l-12.058-10.194l-7.927-13.676l-4.214-15.062l-1.559-15.55l1.904-15.957l7.534-14.181
							l9.567-12.62l12.023-10.211l13.528-8.3l0.572-0.183l6.705-3.422l0.583,0.217l15.683-0.959l15.096,4.188l15.323,3.706
							l12.741,9.313l10.129,11.871l7.375,13.541l5.628,12.349l-0.857,13.558l-0.318,13.487l-4.959,12.569l-6.071,12.054
							L-423.486,614.893z M457.366,443.386l-2.191-18.04l-0.071,0.248l0.646,8.344l0.874,0.39l0.654,0.495l0.553,8.049
							L457.366,443.386z M456.919,419.376l1.088,0.315l1.142,0.061l-0.251,3.659l-1.511,0.759L456.919,419.376z M456.747,425.346
							l2.676,0.169l-0.261,5.82l-0.206,1.07L456.747,425.346z M456.913,401.485l2.019,1.585l-2.3,6.464l0.104,0.169L456.913,401.485
							z M458.054,411.266l2.551,1.142l-1.164,4.428l-0.447,0.183L458.054,411.266z M460.771,418.909l2.728,0.576l-0.562,2.676
							l-0.763,0.674L460.771,418.909z M470.938,418.678l-0.715-0.972l0.487-0.095l0.081-0.237l-1.044,0.135l-0.493,0.83
							l-2.656-1.348l-0.285-2.572l4.025,3.347l-0.993-0.193L470.938,418.678z M461.618,412.371l2.412,1.402l-0.834,3.134l-0.5,0.054
							L461.618,412.371z M470.111,418.943l-4.13,2.073l0.475-1.176L470.111,418.943z M459.847,403.688l2.327,2.104l-1.649,4.533
							l-0.424-0.193L459.847,403.688z M462.749,406.438l1.682,1.717l0.02,0.549l-0.566,2.968l-1.555-0.207L462.749,406.438z
							 M467.384,410.074l1.887,5.519l-2.15-2.646L467.384,410.074z M469.841,421.453l-3.92,3.919l0.646-1.863l2.906-2.3
							L469.841,421.453z M464.894,428.269l-3.215,1.766l0.465-4.676l0.871-0.542L464.894,428.269z M457.194,417.591l-2.088-0.41
							l0.682-0.552l0.646-5.441l1.051,0.058L457.194,417.591z M459.796,394.073l1.873,2.145l-2.486,4.642l-0.018-0.305
							L459.796,394.073z M462.262,396.685l1.988,3.012l-1.737,3.526l-0.406-0.877L462.262,396.685z M464.829,400.076l1.627,3.557
							l-1.081,2.317l-0.358-1.108L464.829,400.076z M468.532,405.361l0.719,6.86l-1.295-3.96L468.532,405.361z M469.143,424.638
							l-2.958,5.397l0.654-2.036L469.143,424.638z M465.785,433.927l-3.452,3.703l0.037-5.123l1.398-1.704L465.785,433.927z
							 M462.153,439.479l-2.375,1.789l-0.65-6.863l0.225-0.688L462.153,439.479z M453.86,419.017l1.904,0.41l-0.678,4.533
							l0.613-0.02L453.86,419.017z M463.112,387.572l1.457,3.411l-0.572-0.338l-1.823,3.395l-1.368-0.732L463.112,387.572z
							 M467.509,394.937l-1.307,0.281l-1.027,1.85l-0.762-1.352l0.725-4.249L467.509,394.937z M469.118,399.988l-1.5,1.301
							l-0.895-2.558l-0.254-1.725L469.118,399.988z M470.606,406.821l-2.037-3.584l-0.664-0.749L470.606,406.821z M471.555,419.583
							l-4.472,17.403l0.416-2.73l3.453-13.927l-1.236-0.187l0.26-1.132L471.555,419.583z M467.378,439.978l-5.855,9.744
							l-2.232-6.488l-1.236,0.783l1.494-0.749l-0.094,0.061l0.934,0.25l1.24-2.473l0.203,2.357l2.155-0.518l-1.108-2.47l2.324-4.655
							L467.378,439.978z M438.307,520.662l-0.938,2.178l0.793-0.552L438.307,520.662z M-714.753,399.995l1.448,0.413l3.691-1.972
							l-0.615,1.847l1.098,0.285l-5.139,4.265L-714.753,399.995z M-714.738,467.575l1.589,0.251l4.168-3.839l-1.308,2.392
							l-3.075,3.778l-0.972-0.135L-714.738,467.575z M-715.041,405.012l5.888-2.92l-0.422,3.235l-4.793,4.015L-715.041,405.012z
							 M-706.691,438.002l-5.981,4.211l0.661-6.765l0.276,0.891l4.245-4.384L-706.691,438.002z M-713.902,429.211l6.103-3.392
							l-0.491,4.791l-4.997,3.686l0.08,0.691L-713.902,429.211z M-707.657,438.338l-0.342,5.698l-2.157,1.48l-2.229,2.558
							l-0.823-4.275l0.366-0.522L-707.657,438.338z M-708.099,445.225l-0.178,5.062l-4.856,4.425l1.052-4.499l-0.617-0.505
							L-708.099,445.225z M-708.075,461.789l-5.511,4.536l1.017-5.742l0.229-4.194l-0.51-0.427l4.567-4.394l-0.771,4.072
							l-3.799,4.865l-0.646,0.041l1.425,1.196l3.442-3.561L-708.075,461.789z M-714.451,424.048l1.226,0.061l5.236-4.258
							l-0.508,3.866l-4.31,5.152l-0.867-1.612L-714.451,424.048z M-714.919,416.47l6.532-3.822l-0.368,4.167l-4.826,4.692
							L-714.919,416.47z M-713.972,416.653l-0.149-5.336l0.503,0.718l5.105-3.889l0.453,2.727l-0.092,0.481L-713.972,416.653z
							 M-715.165,478.588l1.576-8.222l0.963,1.002l2.309-2.3l0.213,3.919l-2.72,1.203l0.293,1.088l2.199-1.552l-0.96,2.975
							l-0.517,0.325l-0.444,2.357l-0.204,0.908l-0.488-2.154L-715.165,478.588z M-709.584,390.055l-0.434,6.216l-3.074,1.745
							l1.516-2.774l-0.888-0.691l1.198-1.26l-0.586-0.627l-0.401,0.83L-709.584,390.055z M349.262,161.425l-0.295,16.225
							l4.144,14.896l6.819,13.074l-6.904-13.087l-4.645-14.778L349.262,161.425z M359.106,161.412l-4.764-4.692l-1.822,1.412
							l9.974,13.771l10.749,13.253l9.514,14.137l8.223,15.97l8.648,12.989l6.813,14.012l6.586,14.117l7.752,13.514l8.246,13.233
							l0.324,1.284l-0.206,0.701l0.999,0.969l3.592,0.237l-17.064-2.195l-12.274-0.278l-11.2-4.905l-0.223-0.438l-2.701-9.909
							l-1.947,0.803l-4.551-12.362l-4.617-12.359l-4.982-12.186l-6.867-11.359l-4.049-13.605l-6.911-12.345l-3.729-13.582
							l-2.409-13.836l3.485-12.701L359.106,161.412z M439.679,283.539l-7.938-1.01l-0.184,1.484l10.974,4.672l-2.405-0.661
							l-9.357-3.5l0.061-2.456l-1.039,0.2l-0.6-2.215L439.679,283.539z M447.108,291.71l0.287-1.369l-0.273-0.877l-3.033-19.426
							l5.4,10.103l3.1,11.667L447.108,291.71z M465.778,356.753l-4.004-0.176l-3.229-4.462l-1.108-7.951l-3.937-16.478l4.51-0.678
							l2.773,15.086L465.778,356.753z M470.972,398.965l-1.084-0.772l0.525-0.146l-0.105-0.437l-1.172,0.488l-5.303-10.834
							l4.046-6.528l2.151,12.752L470.972,398.965z M469.481,435.729l0.146,11.922l-0.816,10.573l-5.296-6.83l-1.016,0.183
							L469.481,435.729z M162.702,443.979l0.213-1.05l1.342-0.637L162.702,443.979z M-741.396,541.656l-1.567-15.032l3.157-13.833
							l6.937-12.162l9.066-5.071l9.586-1.718l-6.52,6.796l1.004,0.495l-0.875,0.318l-0.75,0.596l0.62-0.196l0.617,1.714
							l-1.153,0.129l1.223,2.338l17.949,0.708l17.889-1.104l16.206,0.257l16.168-1.277l0.766,0.325l7.328,13.429l-2.503,1.108
							l-2.28,7.809l-9.371,14.165l-13.959-1.379l-13.767-0.898l-13.807,1.535l-13.785-1.894l-13.756,1.721L-741.396,541.656z"/>
					</g>
				</g>
				<g>
					<g>
						<path fill="#006087" d="M161.3,570.371l-0.58-0.051l1.897,3.571l-0.759-3.797L161.3,570.371z M161.757,571.438l0.074,0.505
							L161.757,571.438z"/>
					</g>
				</g>
				<g>
					<g>
						<polygon fill="#006087" points="161.632,560.387 162.645,560.106 163.204,560.512 163.579,560.485 164.772,560.665 						"/>
					</g>
				</g>
				<g>
					<g>
						<polygon fill="#006087" points="164.851,546.955 165.022,545.284 166.29,545.284 166.47,546.955 						"/>
					</g>
				</g>
				<g>
					<g>
						<polygon fill="#006087" points="166.317,584.082 164.925,582.408 165.862,581.469 167.536,582.862 						"/>
					</g>
				</g>
				<g>
					<g>
						<polygon fill="#006087" points="172.12,537.302 171.08,536.262 172.805,534.562 173.845,535.907 						"/>
					</g>
				</g>
				<g>
					<g>
						<polygon fill="#006087" points="172.858,596.498 174.505,593.073 174.505,594.394 174.353,595.082 174.834,594.496 
							176.304,594.671 						"/>
					</g>
				</g>
				<g>
					<g>
						<polygon fill="#006087" points="181.955,602.5 183.829,599.743 184.212,600.6 184.942,601.261 						"/>
					</g>
				</g>
				<g>
					<g>
						<path fill="#006087" d="M183.397,529.798v-1.619V529.798z"/>
					</g>
				</g>
				<g>
					<g>
						<polygon fill="#006087" points="193.812,526.685 191.864,526.376 192.142,524.808 192.851,524.835 192.877,524.835 
							192.952,524.808 193.104,524.757 193.988,524.937 194.345,525.77 						"/>
					</g>
				</g>
				<g>
					<g>
						<polygon fill="#006087" points="196.526,607.674 194.978,608.203 194.267,607.01 195.536,605.973 197.081,605.465 
							197.742,606.607 						"/>
					</g>
				</g>
				<g>
					<g>
						<path fill="#006087" d="M205.7,525.516l3.371,1.118l-0.102-0.864l0.148-0.633L205.7,525.516z M207.624,525.821l0.176,0.024
							L207.624,525.821z"/>
					</g>
				</g>
				<g>
					<g>
						<polygon fill="#006087" points="210.006,604.984 210.769,605.641 211.554,606.38 208.712,607.776 						"/>
					</g>
				</g>
				<g>
					<g>
						<polygon fill="#006087" points="221.003,530.256 220.653,530.889 220.295,531.929 217.354,529.419 						"/>
					</g>
				</g>
				<g>
					<g>
						<polygon fill="#006087" points="222.043,599.712 222.755,601.593 222.271,601.617 221.132,601.867 						"/>
					</g>
				</g>
				<g>
					<g>
						<polygon fill="#006087" points="229.896,534.69 230.912,535.707 229.392,537.251 228.351,536.211 						"/>
					</g>
				</g>
				<g>
					<g>
						<polygon fill="#006087" points="229.923,589.678 230.963,589.681 231.593,590.342 232.253,590.694 231.444,593.255 
							230.306,594.069 229.469,593.025 229.469,592.998 						"/>
					</g>
				</g>
				<g>
					<g>
						<polygon fill="#006087" points="236.187,541.259 237.932,541.48 238.308,544.674 237.881,546.165 237.169,546.067 
							237.021,546.196 235.679,544.854 						"/>
					</g>
				</g>
				<g>
					<g>
						<polygon fill="#006087" points="238.667,580.734 238.663,582.431 237.095,582.431 237.122,580.734 						"/>
					</g>
				</g>
				<g>
					<g>
						<polygon fill="#006087" points="240.313,568.799 241.048,568.952 241.072,568.952 242.291,569.178 239.575,570.421 
							239.578,569.381 						"/>
					</g>
				</g>
				<g>
					<g>
						<polygon fill="#006087" points="240.587,558.639 240.208,555.522 241.529,555.167 242.214,558.409 						"/>
					</g>
				</g>
				<g>
					<g>
						<path fill="#006087" d="M108.595,563.074l1.133,14.692l3.435,14.334l5.79,13.541l7.521,12.67l9.611,11.187l11.207,9.581
							l12.593,7.66l13.581,5.726l14.327,3.513l14.713,0.979l14.7-1.061l14.331-3.473l13.658-5.56l12.396-7.968l11.299-9.442
							l9.672-11.129l7.541-12.664l5.715-13.575l3.267-14.351l1.48-14.662l-1.206-14.707l-3.537-14.313l-5.512-13.676l-7.935-12.426
							l-9.397-11.356l-11.225-9.577l-12.551-7.754l-13.69-5.475l-14.323-3.425l-14.684-1.213l-14.658,1.365l-14.382,3.171
							l-13.629,5.634l-12.559,7.734l-11.247,9.547l-9.463,11.309l-7.643,12.586l-5.746,13.558l-3.384,14.337L108.595,563.074z
							 M248.153,614.118l-12.705,9.862l-14.781,6.335l-15.889,2.581l-16-1.725l-15.222-5.163l-13.429-8.243l-11.337-10.953
							l-8.37-13.348l-4.838-14.967l-1.121-15.706l2.977-15.692l6.309-14.669l9.496-12.833l11.837-10.74l14.175-7.406l0.531-0.274
							l6.864-3.005l0.549,0.342l15.601-0.769l15.334,2.9l14.537,5.58l13.066,8.49l10.664,11.349l8.101,13.311l3.737,12.955
							l1.036,13.423l-1.799,13.345l-4.109,12.846l-6.565,11.806L248.153,614.118z"/>
					</g>
				</g>
			</g>
		</g>
	</g>
	<g clip-path="url(#SVGID_2_)">
		<g>
			<g>
				<g>
					<g>
						<path fill="#006087" d="M2470.726,540.701l-0.385,2.046l-0.201,0.458l-0.354-0.23l1.259-0.861l13.673,0.438l13.653,1.48
							l13.678-1.128l13.687,0.41l13.697,0.301l13.631-1.151l0.429-0.776l9.245-12.314l1.355,1.467l1.223,2.053l15.919-0.549
							l15.855-0.153l15.858-1.07l1.066,0.359v-0.586l0.529,1.443l0.254-2.1l0.058,0.135l9.191-11.928l8.381-12.437l7.582-13.053
							l12.572-8.1l13.7-5.427l0.443,0.847l15.025-0.041l13.961,0.596l-10.854,7.758l-10.245,10.007l-9.133,10.936l-8.405,11.691
							l-6.047,13.186l-1.915,14.378l-1.71,14.29l0.565,14.788l4.015,14.246l5.888,13.494l7.548,12.636l10.428,10.34l10.432,10.306
							l12.592,7.582l13.443,5.996l14.397,3.056l14.64,0.373l14.706,0.041l14.127-4.109l13.514-5.627l12.383-7.789l10.882-9.727
							l10.488-10.322l6.976-12.965l5.519-13.538l4.323-14.066l0.406-14.713l-0.298-14.521l-4.435-13.825l-4.194-13.935
							l-8.459-11.833l-8.206-12.088l-11.43-9.1l-12.332-7.605l17.678-0.092l-0.291-0.146l0.897-0.566l15.919,1.755l15.167,5.055
							l8.677,9.103l7.287,10.207l6.416,10.99l5.411,11.664l8.52,9.771l0.77,0.597l1.921-0.193l0.498-0.583l-0.309-0.125
							l15.462-0.021l15.441,0.671l15.455-1.047l15.459,1.809l15.455-0.816l15.448-0.549l15.459,0.874l15.367-0.108l15.367-0.755
							l15.366,0.671l15.364-0.746l15.363,0.993l15.36-0.21l15.357-0.444l14.469-1.101l14.466,0.39l14.456,1.446l14.463,0.248
							l14.476-0.884l14.47-0.437l14.459,1.779l14.473-0.362l14.47-0.403l14.462-1.227l14.47,0.627l14.456-0.823l14.492,1.389
							l14.456-0.775l14.438-1.027l0.475,0.319l2.022,0.623l7.586-12.681l5.277-13.748l5.479-13.616l5.447-13.612l7.48-12.552
							l7.751-12.338l11.732-8.507l12.416-8.053l0.901,0.833l15.567,2.429l15.638,0.552l15.658-0.816l15.602-1.25l15.539-1.318
							l-0.095,1.918l16.275,3.391l13.917,11.021l-0.515,0.996l1.043-0.799l8.107,12.413l7.456,12.816l5.262,13.887l5.285,13.721
							l3.848,14.022l5.563,13.561l10.19,9.513l0.928,0.227l16.31,1.433l16.369-0.647l16.333-0.661l16.356,0.559l13.405-1.166
							l13.389,0.67l13.389-0.139l13.382,0.169l13.385-0.261l0.989-0.552l-0.565-0.884l2.812,0.075l-0.603-0.027l-0.329-1.033
							l1.697-4.804l12.698-0.431l12.687-0.989l18.874-9.635l-0.647,0.851l0.224-1.623l1.061-15.668l-3.784-14.584l-8.175-8.483
							l-12-1.616l-0.355,1.769l13.311,4.807l9.687,10.075l-0.573,11.79l1.6,12.033l-13.305,6.193l-13.714,3.202l-12.88,0.156
							l-12.792-0.61l-0.878,0.935l-0.302-0.962l0.671-0.491l0.298-0.318l0.458-0.752l-7.054-14.934l5.133-14.967l0.996-0.759
							l18.162-2.558l12.69-3.171l-1.49-10.167l-5.123-2.551l-0.146,0.772l-1.192-0.633l3.364-16.004l0.752-16.217l0.443-16.218
							l-0.352-16.248l0.39-12.176l1.426-0.183l-0.657-15.561l-0.782-15.56l-2.64-15.371l-3.916-15.068l-2.754-15.266l-4.469-14.855
							l-6.058-14.263l-6.298-14.32l5.912,0.867l0.383-1.074l-0.529,0.41l-1.016-15.201l-8.89-12.708l-13.568-6.962l-1.043-1.877
							l-5.939,4.729l-0.711,0.979l1.47,0.366l5.915-4.523l5.072,4.126l-5.546,0.637l0.118-0.399l14.019,8.513l3.473,16.136
							l-3.842-7.511l-0.353,0.054l4.367,9.198l-1.183-1.795l-0.545,0.684l-14.331-8.463l-0.559,1.108l-7.697-18.261l-8.297-13.175
							l-6.816-13.921l-7.832-13.368l-7.111-13.842l-10.045-11.979l-8.937-14.066l-7.752-14.853l-9.939-13.398l0.521,0.644
							l-1.354-1.264l0.718-0.45l-0.383-0.447l-1.22-0.055l0.458,0.038l-0.407-1.501l-11.722-7.081l-11.312-7.548l-12.928-4.316
							l-12.641-5.447l-13.7-1.284l-13.396-2.612l-14.039-2.615l-14.153-1.843l-14.232-1.054l-14.276-0.464l-14.083-2.825
							l-14.398,1.047l-14.137-1.989l-15.392-2.517l-15.55-0.525l-15.56-0.322l-15.489-1.297l-15.432-2.216l-15.642,1.101
							l-15.418-2.551l-15.241-0.66l-15.283-0.237l-15.265-0.491l-15.205-1.646l-15.275-0.105l-15.245-1.66l-15.306,1.67
							l-0.668-0.718l-13.894-0.976l-13.906-0.081l-13.907-0.251l-13.91,0.105l-13.907,0.671l-13.907-0.597l-13.903,0.86
							l-13.91-0.613l-13.903,1.131l-14.663-0.606l-14.665-0.349l-14.663-0.037l-14.662,0.454l-14.666-0.003l-14.666-1.24
							l-14.662,1.494l-14.666,0.217l-14.662-1.643l-14.666,0.989l-14.662,0.531l-14.666,0.427l-14.662-1.589l-14.663,0.925
							l-14.662,0.501l-14.662-1.924l-14.673,1.477l-14.666,0.125l-14.652-1.908l-14.672,0.813l-14.67,0.579l-14.669,0.427
							l-14.662-1.013l-14.669-0.302l-14.67-0.027l-14.665,0.017l-14.656,1.304l-14.652,0.569l-14.665-0.037l-14.69-0.688
							l-0.708,0.464l0.742-0.166l13.87,1.626l13.927-1.107l13.891,1.799l13.91,0.39l13.906-1.948l13.907,0.095l13.91,0.556
							l13.907-1.077l13.903,1.199l14.663-0.318l14.665,0.877l14.663-0.633l14.662,1.003h14.666l14.666-0.993l14.662-0.352
							l14.666,0.583l14.662,0.396l14.666,0.237l14.666-0.312l14.662-1.562l14.662,2.077l14.666-1.657l14.662,0.79l14.551,0.03
							l14.551,0.081l14.558-0.653l14.547,0.806l14.558-0.688l14.551,0.464l14.554-0.691l14.551,0.857l14.554-0.095l14.551,0.024
							l14.551-0.461l14.561,1.317l14.554-0.244l14.551-0.403l14.544-1.013l0.44,0.363l14.896,2.351l15.103-1.186l14.998,0.468
							l14.93,2.432l15.056-0.874l14.978,1.257l14.937,1.714l14.781-0.298l14.662,1.667l14.687,1.25l14.74,0.464l14.774,0.034
							l14.672,1.463l14.73,0.712l14.076,2.588l14.209,0.959l14.296-0.064l14.08,2.473l14.272,0.356l14.104,2.1l14.256,0.711
							l14.564,3.625l15.045,1l13.975,5.563l14.209,4.61l13.147,7.104l11.919,8.896l1.287-0.048l-3.95,7.172l-2.689-1.734
							l-0.83-1.213l-15.499,0.369l-15.476-1.182l-15.493,0.308l-15.488-0.437l-15.479,1.626l-15.496-1.115l-15.485,0.068
							l-15.482,1.061l-15.485,0.515l-13.94-1.981l-13.935-0.018l-13.938,1.81l-13.934-1.23l-13.941,0.292l-13.253,0.43
							l-13.253,0.125l-13.243-1.582l-13.229,2.056l-13.276-0.965l-0.281,1.291l-14.899-1.717l-14.927,0.325l-14.923-0.671
							l-14.924,1.138l-14.92,0.6l-14.923,0.047l-14.924,0.115l-14.927-1.077l-14.923,0.159l-13.622-0.407l-13.623-0.037
							l-13.618-0.633l-13.616,1.287l-13.608,0.224l-15.933,0.464l-15.913-0.067l-15.926-1.965l-15.882,1.738l-0.65-1.742
							l-14.419,0.214l-14.425,1.649l-14.409-0.081l-14.408-1.599l-14.411-0.403l-14.412,0.237l-14.415,1.189l-14.412-0.952
							l-14.415-0.197l-14.411,1l-14.412,0.041l-14.411,0.136l-14.419-1.565l-14.412,0.438l-14.408,1.924l-14.411-0.261
							l-14.415,0.312l-14.409-1.704l-14.408-0.609l-14.408-0.146l-14.425,2.158l-14.405-1.44l-14.418,1.108l-14.409-1.419
							l-14.415-0.254l-14.415,0.064l-14.415,0.128l-14.404,1.369l-14.416-0.383l-14.408,0.501l-14.436-1.264l-14.395,1.128
							l-0.576,1.074l-0.941-0.661l4.734-13.233l5.172-13.199l9.204-10.838l10.648-9.472l12.758-6.383l13.511-4.567l0.488,0.024
							l-0.495-0.484l-14.141,4.085l-12.985,6.864l-12.413,8.395l-9.289,11.875l-6.427,13.649l-2.853,14.696l-6.233,13.955
							l-8.624,12.854l-5.493,14.371l-4.003,14.845l-3.218,14.964l-4.517,14.683l-2.625,15.137l-0.908,15.147l-4.14,10.129
							l4.79,9.479l-0.139,1.247l-0.528-0.715l0.148-0.075l-2.527,11.952l-1.148,13.802l-1.444,13.934l-2.684,13.775l-0.606,14.042
							l-2.751,13.765l-0.24,14.066l-0.393,0.43l-6.325,12.596l0.206,14.371l-0.063,4.435l2.299,14.313l0.021,14.412l-2.269,14.313
							l0.495,14.392l1.852,0.579l-0.516,0.085l1.044,1.846l-0.29,4.726l0.147,6.172l-20.279,5.068l-0.288,1.047l-9.784,12.156
							l-1.296,15.574L2470.726,540.701z M2617.453,434.73l-11.071-10.811l12.26-11.62l0.366,0.512l9.069,11.159L2617.453,434.73z
							 M3058.891,169.777l13.304,1.297l13.304,0.539l13.304,0.061l13.305-1.257l13.304-0.115l12.478,1.271l12.504-1.006l0.803,0.657
							l-0.017,0.671l15.594-0.427l15.611-0.823l15.584,1.443l15.604,0.353l15.611,0.135l15.584-1.223l15.601-0.329l0.783-1.87
							l13.995,12.146l0.03,15.306l-1.552,15.276l2.256,15.248l-0.843,14.944l-0.888,14.944l0.077,14.692l-11.711,10.37l-0.221-1.9
							l-14.046,1l-13.984-0.993l-14.009,0.403l-14.002-1.332l-14.002,1.5l-13.995,0.8l-14.005,0.067l-14.009-1.118l-14.001-0.593
							l-13.999,1.43l-13.998-0.661l-13.995-0.671l-14.005,0.471l-14.002,0.143l-14.002-0.281l-14.002,1.159l-14.002-1.033
							l-13.998,0.25l-14.005-0.149l-13.988,0.759l-1.213,0.545l-5.116-17.23l-0.494-0.481l0.067-2.171l-0.014-0.816l-0.406-0.44
							l1.704-15.689l-0.685-15.73l-0.173-15.716l0.631-15.736l-1.233-15.689l0.803-0.003l4.902-9.943l11.007-1.541l0.386-1.111
							l13.203,2.307l13.341-0.417l13.317-0.21l13.321,0.399L3058.891,169.777z M3320.368,354.646l-4.076-10.461l1.108-1.061
							l-1.017,0.884l18.273,0.6l18.203,0.522v0.62l2.422,3.441l-2.145-0.186l0.861,0.478l-1.979-0.841l0.044,1.423l-13.815,0.597
							l-10.726,1.206L3320.368,354.646z M3351.664,351.109l-12.358,6.958l-12.077-3.364l11.454-0.65L3351.664,351.109z
							 M3537.445,181.404l4.885,15.543l6.274,15.032l6.769,14.781l8.439,14.239l6.389,15.269l0.491,16.248l-9.99,11.918
							l-0.454-0.393l0.177-0.783l-16.96,0.044l-17.061,0.799l0.257-3.598l0.288-0.061l-0.044-1.369l-1.572,0.227l-0.287,0.522
							l-0.288-0.007l1.314-15.242l0.498-15.275l1.66-15.292l0.545,1.437l-1.128,0.25l0.196-2.774l0.417-0.027l-1.9-3.245
							l0.759,1.443l0.854-1.45l-10.594-6.261l-0.166,0.525l-0.207-1.366l-10.329,1.284l0.495,0.2l-0.004,0.59l-3.448,16.35
							l-1.021,16.763l2.348,16.651l-0.796-0.017l-0.034,1.769l0.627-0.556l0.535-0.23l1.359,0.241l4.695,3.218l-2.744,0.786
							l-0.343,0.237l-0.688,0.193l0.112,3.663l-14.46,0.914l-14.415-1.026l-14.395,0.837l-14.401,0.058l-14.141,0.152l-14.138,0.332
							l-14.141-1.253l-14.141,0.874l-14.157-0.02l-14.131-1.067l-14.12,0.932l-14.151,0.078l-0.847-0.258l0.749-0.793l-10.211-3.855
							l-4.14-10.675l-1.162-0.217l0.501-13.602l0.948-13.609l0.048-13.636l-1.091-13.622l-0.152-13.622l-0.979-13.66l10.469-10.241
							l0.176-0.152l14.039,0.254l14.012,1.589l14.046,0.051l14.043-0.156l14.012-1.585l14.032,0.139l14.025-0.261l15.577-0.45
							l15.563,0.623l15.581-0.911l15.563,1.921l15.563-0.925l15.54-1.084l0.353,1.087l13.364,4.496L3537.445,181.404z
							 M3517.894,224.672l8.774,5.031l-2.561,16.275l-0.976,16.546l0.891,16.837l-10.231-4.37l0.881-0.498l-1.07-0.21l1.806-16.163
							l1.854-16.174l0.44-16.265L3517.894,224.672z M3517.047,225.021l-3.341,16.566l-1.446,16.346l0.166,16.421l0.864,0.62
							l-6.583-0.112l0.149-1.321l-0.623,0.837l-0.366-0.048l0.569-16.484l0.051-16.499l-0.058-16.892L3517.047,225.021z
							 M3520.36,287.977l-1.951,0.982l0.43,0.159l0.892-1.897l-0.146-0.596L3520.36,287.977z M3514.648,296.196l-1.095-0.44
							l0.566,0.613l-0.746,0.244L3514.648,296.196z M3516.315,285.734l0.904,1.175l-1.098,1.013l1.433,0.095l-1.608-0.996
							L3516.315,285.734z M3517.114,298.828l-1.843,0.695l0.23,0.098l1.162-2.029L3517.114,298.828z M3512.832,299.435l0.627-1.155
							l0.579,0.082l-0.789-0.058l0.65-1.067l1.284-3.049l0.525,0.911l0.491-0.495l-2.64,4.072L3512.832,299.435z M3510.661,288.431
							l1.304-0.522l-0.762,1.02l1.548-0.146L3510.661,288.431z M3512.903,286.273l1.867,0.762l-0.79-0.325l-0.789,2.71l0.362,0.162
							l-0.464-0.593L3512.903,286.273z M3518.751,297.73l0.701-1.301l-0.244-0.183l-0.396,0.413l1.213,0.274L3518.751,297.73z
							 M3520.374,280.541l1.979,1.206l-1.247,1.044l0.586-0.576l-1.267,0.698l-0.237-0.37l1.125-0.017L3520.374,280.541z
							 M3520.97,285.816l0.315,1.02l-0.427,0.047l1.223,0.078L3520.97,285.816z M3525.618,286.588l-0.892,2.382l-0.186-0.783
							l0.464,0.034l-1.142-0.007L3525.618,286.588z M3526.278,297.239l-1.297,0.576l0.409-7.138l-1.223-0.505l1.399,4.126
							L3526.278,297.239z M3508.167,279.768l3.687,1.376l0.6,2.249l0.535,0.143l0.559-0.434l-0.379,0.793l-1.66-1.22l-0.468,0.637
							l-1.931-0.349l-0.738,0.172l0.85-0.02l-1.07,0.396L3508.167,279.768z M3511.769,280.554l-3.27-4.885l4.994,0.42l-0.362,0.051
							l10.709,3.632l-0.217,1.321L3511.769,280.554z M3525.611,284.213l-2.429-1.02l1.142-0.708h-0.414l1.552-0.996
							L3525.611,284.213z M3525.923,298.781l-1.223,2.276l-0.922-0.081l1.25,0.556l-1.179-0.593l0.048-0.634L3525.923,298.781z
							 M3524.022,302.988l-1.958-0.257l1.342,0.067L3524.022,302.988z M3301.305,311.173l-1.023,0.051l-0.247-0.085
							L3301.305,311.173z M2802.315,169.116l14.503,1.321l14.493,0.63l14.5,0.179l14.513-1.148l14.5-0.058l14.51,1.196l14.49-1.294
							l14.513,0.288l14.53,0.142l0.108-0.766l7.836,6.928l-1.551,15.936l-0.512,15.849l-0.447,15.841l0.644,15.858l-0.641,15.838
							l0.037,15.899l-4.34,2.954l-0.284,1.155l-15.19-1.782l-15.175,2.036l-15.16-0.793l-15.164-0.894l-15.167-0.454l-15.157,1.819
							l-15.174-1.826l-15.157,1.521l-15.167-0.65l-15.16,0.583l-15.015-1.312l-15.028,1.376l-15.025,0.583l-15.018-0.193
							l-15.005-1.372l-15.018-0.79l-15.028,1.338l-15.019-0.617l-15.028-0.474l-15.001,0.816l-6.424-6.918l-0.402-0.519
							l0.169-13.836l2.562-13.605l2.032-13.649l3.686-13.287l4.957-14.455l6.867-13.799l11.572-10.143l14.147-5.722l0.816,0.6
							l14.486,0.427h14.493l14.486,1.379l14.496-0.895l14.497-0.244l14.52,0.718l14.493-0.955l14.507,0.637L2802.315,169.116z
							 M2787.771,614.893l-13.578,8.92l-14.88,5.807l-15.719,2.348l-16.093-0.248l-15.377-5.132l-12.789-9.293l-12.058-10.194
							l-7.927-13.676l-4.215-15.062l-1.559-15.55l1.904-15.957l7.534-14.181l9.567-12.62l12.023-10.211l13.527-8.3l0.572-0.183
							l6.705-3.422l0.582,0.217l15.683-0.959l15.096,4.188l15.323,3.706l12.741,9.313l10.13,11.871l7.375,13.541l5.628,12.349
							l-0.857,13.558l-0.318,13.487l-4.96,12.569l-6.071,12.054L2787.771,614.893z M3668.624,443.386l-2.192-18.04l-0.07,0.248
							l0.646,8.344l0.874,0.39l0.654,0.495l0.552,8.049L3668.624,443.386z M3668.177,419.376l1.088,0.315l1.142,0.061l-0.251,3.659
							l-1.511,0.759L3668.177,419.376z M3668.004,425.346l2.677,0.169l-0.261,5.82l-0.207,1.07L3668.004,425.346z M3668.17,401.485
							l2.02,1.585l-2.301,6.464l0.105,0.169L3668.17,401.485z M3669.312,411.266l2.551,1.142l-1.165,4.428l-0.447,0.183
							L3669.312,411.266z M3672.028,418.909l2.728,0.576l-0.563,2.676l-0.762,0.674L3672.028,418.909z M3682.195,418.678
							l-0.715-0.972l0.488-0.095l0.081-0.237l-1.044,0.135l-0.494,0.83l-2.656-1.348l-0.284-2.572l4.024,3.347l-0.992-0.193
							L3682.195,418.678z M3672.876,412.371l2.412,1.402l-0.834,3.134l-0.501,0.054L3672.876,412.371z M3681.369,418.943
							l-4.13,2.073l0.474-1.176L3681.369,418.943z M3671.104,403.688l2.328,2.104l-1.65,4.533l-0.424-0.193L3671.104,403.688z
							 M3674.007,406.438l1.681,1.717l0.021,0.549l-0.566,2.968l-1.555-0.207L3674.007,406.438z M3678.642,410.074l1.887,5.519
							l-2.151-2.646L3678.642,410.074z M3681.098,421.453l-3.92,3.919l0.647-1.863l2.906-2.3L3681.098,421.453z M3676.151,428.269
							l-3.215,1.766l0.464-4.676l0.871-0.542L3676.151,428.269z M3668.451,417.591l-2.087-0.41l0.681-0.552l0.647-5.441l1.05,0.058
							L3668.451,417.591z M3671.053,394.073l1.874,2.145l-2.487,4.642l-0.017-0.305L3671.053,394.073z M3673.52,396.685l1.988,3.012
							l-1.738,3.526l-0.406-0.877L3673.52,396.685z M3676.087,400.076l1.626,3.557l-1.08,2.317l-0.359-1.108L3676.087,400.076z
							 M3679.79,405.361l0.719,6.86l-1.295-3.96L3679.79,405.361z M3680.4,424.638l-2.958,5.397l0.654-2.036L3680.4,424.638z
							 M3677.043,433.927l-3.452,3.703l0.037-5.123l1.398-1.704L3677.043,433.927z M3673.411,439.479l-2.375,1.789l-0.65-6.863
							l0.224-0.688L3673.411,439.479z M3665.117,419.017l1.904,0.41l-0.678,4.533l0.613-0.02L3665.117,419.017z M3674.369,387.572
							l1.457,3.411l-0.572-0.338l-1.822,3.395l-1.369-0.732L3674.369,387.572z M3678.767,394.937l-1.308,0.281l-1.026,1.85
							l-0.762-1.352l0.725-4.249L3678.767,394.937z M3680.376,399.988l-1.501,1.301l-0.894-2.558l-0.255-1.725L3680.376,399.988z
							 M3681.863,406.821l-2.036-3.584l-0.664-0.749L3681.863,406.821z M3682.813,419.583l-4.473,17.403l0.417-2.73l3.452-13.927
							l-1.236-0.187l0.261-1.132L3682.813,419.583z M3678.635,439.978l-5.854,9.744l-2.232-6.488l-1.236,0.783l1.494-0.749
							l-0.095,0.061l0.935,0.25l1.24-2.473l0.203,2.357l2.155-0.518l-1.108-2.47l2.324-4.655L3678.635,439.978z M3649.564,520.662
							l-0.938,2.178l0.793-0.552L3649.564,520.662z M2496.505,399.995l1.448,0.413l3.691-1.972l-0.615,1.847l1.098,0.285
							l-5.14,4.265L2496.505,399.995z M2496.52,467.575l1.59,0.251l4.168-3.839l-1.308,2.392l-3.074,3.778l-0.973-0.135
							L2496.52,467.575z M2496.217,405.012l5.888-2.92l-0.422,3.235l-4.793,4.015L2496.217,405.012z M2504.566,438.002l-5.981,4.211
							l0.66-6.765l0.276,0.891l4.245-4.384L2504.566,438.002z M2497.355,429.211l6.103-3.392l-0.491,4.791l-4.997,3.686l0.08,0.691
							L2497.355,429.211z M2503.601,438.338l-0.342,5.698l-2.157,1.48l-2.229,2.558l-0.823-4.275l0.365-0.522L2503.601,438.338z
							 M2503.158,445.225l-0.178,5.062l-4.856,4.425l1.052-4.499l-0.616-0.505L2503.158,445.225z M2503.183,461.789l-5.511,4.536
							l1.017-5.742l0.229-4.194l-0.51-0.427l4.566-4.394l-0.771,4.072l-3.8,4.865l-0.646,0.041l1.425,1.196l3.442-3.561
							L2503.183,461.789z M2496.807,424.048l1.226,0.061l5.236-4.258l-0.508,3.866l-4.31,5.152l-0.867-1.612L2496.807,424.048z
							 M2496.339,416.47l6.531-3.822l-0.367,4.167l-4.826,4.692L2496.339,416.47z M2497.286,416.653l-0.149-5.336l0.503,0.718
							l5.105-3.889l0.452,2.727l-0.092,0.481L2497.286,416.653z M2496.093,478.588l1.576-8.222l0.963,1.002l2.31-2.3l0.213,3.919
							l-2.72,1.203l0.293,1.088l2.198-1.552l-0.96,2.975l-0.517,0.325l-0.444,2.357l-0.203,0.908l-0.488-2.154L2496.093,478.588z
							 M2501.673,390.055l-0.434,6.216l-3.074,1.745l1.516-2.774l-0.888-0.691l1.198-1.26l-0.587-0.627l-0.401,0.83
							L2501.673,390.055z M3560.52,161.425l-0.295,16.225l4.144,14.896l6.819,13.074l-6.904-13.087l-4.645-14.778L3560.52,161.425z
							 M3570.364,161.412l-4.764-4.692l-1.822,1.412l9.974,13.771l10.749,13.253l9.514,14.137l8.222,15.97l8.649,12.989
							l6.813,14.012l6.586,14.117l7.752,13.514l8.245,13.233l0.325,1.284l-0.206,0.701l0.999,0.969l3.591,0.237l-17.063-2.195
							l-12.274-0.278l-11.2-4.905l-0.224-0.438l-2.7-9.909l-1.947,0.803l-4.551-12.362l-4.617-12.359l-4.983-12.186l-6.867-11.359
							l-4.048-13.605l-6.911-12.345l-3.73-13.582l-2.408-13.836l3.485-12.701L3570.364,161.412z M3650.937,283.539l-7.938-1.01
							l-0.184,1.484l10.974,4.672l-2.405-0.661l-9.357-3.5l0.061-2.456l-1.04,0.2l-0.6-2.215L3650.937,283.539z M3658.365,291.71
							l0.288-1.369l-0.274-0.877l-3.032-19.426l5.4,10.103l3.1,11.667L3658.365,291.71z M3677.036,356.753l-4.005-0.176
							l-3.229-4.462l-1.107-7.951l-3.937-16.478l4.509-0.678l2.774,15.086L3677.036,356.753z M3682.229,398.965l-1.084-0.772
							l0.524-0.146l-0.104-0.437l-1.172,0.488l-5.303-10.834l4.046-6.528l2.15,12.752L3682.229,398.965z M3680.738,435.729
							l0.146,11.922l-0.816,10.573l-5.296-6.83l-1.016,0.183L3680.738,435.729z M3373.96,443.979l0.213-1.05l1.342-0.637
							L3373.96,443.979z M2469.861,541.656l-1.566-15.032l3.157-13.833l6.937-12.162l9.065-5.071l9.586-1.718l-6.52,6.796
							l1.004,0.495l-0.875,0.318l-0.751,0.596l0.62-0.196l0.616,1.714l-1.153,0.129l1.223,2.338l17.949,0.708l17.889-1.104
							l16.206,0.257l16.168-1.277l0.766,0.325l7.328,13.429l-2.504,1.108l-2.279,7.809l-9.371,14.165l-13.959-1.379l-13.767-0.898
							l-13.808,1.535l-13.784-1.894l-13.757,1.721L2469.861,541.656z"/>
					</g>
				</g>
				<g>
					<g>
						<path fill="#006087" d="M2700.143,570.368l-0.583-0.048l1.877,3.574l-0.735-3.798L2700.143,570.368z M2700.6,571.438
							l0.074,0.505L2700.6,571.438z"/>
					</g>
				</g>
				<g>
					<g>
						<polygon fill="#006087" points="2700.475,560.387 2701.487,560.109 2702.02,560.512 2702.426,560.489 2703.615,560.665 						
							"/>
					</g>
				</g>
				<g>
					<g>
						<polygon fill="#006087" points="2703.689,546.955 2703.845,545.284 2705.136,545.284 2705.288,546.955 						"/>
					</g>
				</g>
				<g>
					<g>
						<polygon fill="#006087" points="2705.159,584.082 2703.74,582.408 2704.702,581.473 2706.376,582.865 						"/>
					</g>
				</g>
				<g>
					<g>
						<polygon fill="#006087" points="2710.967,537.302 2709.923,536.262 2711.65,534.565 2712.688,535.907 						"/>
					</g>
				</g>
				<g>
					<g>
						<polygon fill="#006087" points="2711.694,596.501 2713.345,593.076 2713.345,594.397 2713.195,595.078 2713.673,594.496 
							2715.146,594.671 						"/>
					</g>
				</g>
				<g>
					<g>
						<polygon fill="#006087" points="2720.794,602.504 2722.671,599.74 2723.051,600.6 2723.786,601.261 						"/>
					</g>
				</g>
				<g>
					<g>
						<path fill="#006087" d="M2722.241,529.798v-1.623V529.798z"/>
					</g>
				</g>
				<g>
					<g>
						<polygon fill="#006087" points="2730.677,526.38 2730.981,524.805 2731.693,524.832 2731.717,524.835 2731.744,524.805 
							2731.791,524.781 2731.92,524.754 2732.831,524.937 2733.163,525.77 2732.655,526.682 						"/>
					</g>
				</g>
				<g>
					<g>
						<polygon fill="#006087" points="2735.342,607.674 2733.82,608.203 2733.112,607.01 2734.355,605.973 2735.924,605.472 
							2736.585,606.607 						"/>
					</g>
				</g>
				<g>
					<g>
						<path fill="#006087" d="M2744.516,525.516l3.367,1.115l-0.074-0.833l0.156-0.66L2744.516,525.516z M2746.467,525.821
							l0.152,0.027L2746.467,525.821z"/>
					</g>
				</g>
				<g>
					<g>
						<polygon fill="#006087" points="2748.849,604.987 2749.607,605.645 2750.397,606.38 2747.558,607.772 						"/>
					</g>
				</g>
				<g>
					<g>
						<polygon fill="#006087" points="2759.849,530.256 2759.47,530.893 2759.47,530.913 2759.138,531.929 2756.193,529.419 						
							"/>
					</g>
				</g>
				<g>
					<g>
						<polygon fill="#006087" points="2760.886,599.712 2761.594,601.589 2761.089,601.593 2759.975,601.867 						"/>
					</g>
				</g>
				<g>
					<g>
						<polygon fill="#006087" points="2768.742,534.694 2769.758,535.707 2768.233,537.251 2767.193,536.211 						"/>
					</g>
				</g>
				<g>
					<g>
						<polygon fill="#006087" points="2768.766,589.681 2769.803,589.685 2770.439,590.338 2771.097,590.694 2770.338,593.228 
							2769.146,594.062 2768.284,593.001 						"/>
					</g>
				</g>
				<g>
					<g>
						<polygon fill="#006087" points="2775.026,541.256 2776.774,541.483 2777.15,544.674 2776.696,546.165 2776.016,546.067 
							2775.863,546.199 2774.515,544.854 						"/>
					</g>
				</g>
				<g>
					<g>
						<polygon fill="#006087" points="2777.482,580.734 2777.51,582.431 2775.938,582.435 2775.938,580.734 						"/>
					</g>
				</g>
				<g>
					<g>
						<polygon fill="#006087" points="2779.156,568.802 2779.892,568.952 2779.918,568.955 2781.107,569.178 2778.421,570.421 
							2778.421,569.381 						"/>
					</g>
				</g>
				<g>
					<g>
						<polygon fill="#006087" points="2779.434,558.639 2779.058,555.522 2780.349,555.167 2781.057,558.409 						"/>
					</g>
				</g>
			</g>
		</g>
	</g>
	<g clip-path="url(#SVGID_2_)">
		<g>
			<path fill="#FFFFFF" d="M1441.234,331.398h16.843v62.914h0.582c3.484-5.035,6.968-9.678,10.259-13.938l39.876-48.977h20.904
				l-47.231,55.362l50.91,75.108h-19.938l-42.782-64.075l-12.58,14.328v49.747h-16.843V331.398z"/>
			<path fill="#FFFFFF" d="M1617.818,420.831l-13.552,41.038h-17.419l44.328-130.471h20.327l44.522,130.471h-18.003l-13.937-41.038
				H1617.818z M1660.599,407.671l-12.969-37.557c-2.709-8.518-4.645-16.257-6.581-23.809h-0.58
				c-1.745,7.552-3.873,15.678-6.388,23.614l-12.778,37.751H1660.599z"/>
			<path fill="#FFFFFF" d="M1764.014,331.398v54.591h63.107v-54.591h17.033v130.471h-17.033v-61.166h-63.107v61.166h-17.036V331.398
				H1764.014z"/>
			<path fill="#FFFFFF" d="M1918.626,331.398v77.43c0,29.041,12.97,41.429,30.392,41.429c19.164,0,31.746-12.778,31.746-41.429
				v-77.43h17.036v76.272c0,40.07-21.102,56.331-49.363,56.331c-26.714,0-46.845-15.101-46.845-55.752v-76.852H1918.626z"/>
			<path fill="#FFFFFF" d="M2054.852,461.869V331.398h18.582l41.621,66.011c9.487,15.292,17.229,28.843,23.23,42.394l0.579-0.192
				c-1.55-17.424-1.934-33.295-1.934-53.429v-54.783h15.872v130.471h-17.036l-41.423-66.201
				c-9.098-14.521-17.811-29.421-24.198-43.557l-0.582,0.194c0.967,16.453,1.161,32.135,1.161,53.817v55.746H2054.852z"/>
			<path fill="#FFFFFF" d="M2234.333,420.831l-13.553,41.038h-17.42l44.327-130.471h20.327l44.522,130.471h-18.004l-13.937-41.038
				H2234.333z M2277.11,407.671l-12.967-37.557c-2.712-8.518-4.645-16.257-6.58-23.809h-0.582
				c-1.744,7.552-3.873,15.678-6.388,23.614l-12.778,37.751H2277.11z"/>
		</g>
		<g>
			<path fill="#FFFFFF" d="M914.468,319.196h-48.664v-17.568h118.458v17.568h-48.904V461.63h-20.89V319.196z"/>
			<path fill="#FFFFFF" d="M1023.619,293.086h20.89v71.69h0.474c3.326-5.937,8.548-11.395,14.955-14.719
				c6.174-3.799,13.535-5.937,21.367-5.937c15.429,0,40.118,9.495,40.118,49.139v68.37h-20.893v-65.994
				c0-18.753-6.884-34.185-26.585-34.185c-13.532,0-23.977,9.495-28.012,20.889c-1.188,2.852-1.425,5.937-1.425,9.972v69.318h-20.89
				V293.086z"/>
			<path fill="#FFFFFF" d="M1189.505,407.743c0.475,28.25,18.278,39.883,39.167,39.883c14.958,0,24.217-2.611,31.813-5.697
				l3.795,14.719c-7.358,3.319-20.177,7.354-38.454,7.354c-35.136,0-56.5-23.502-56.5-57.921c0-34.894,20.654-62.194,54.124-62.194
				c37.509,0,47.242,32.996,47.242,54.121c0,4.273-0.239,7.6-0.714,9.97L1189.505,407.743z M1250.514,392.786
				c0.236-13.058-5.462-33.946-28.726-33.946c-21.364,0-30.385,19.467-32.045,33.946H1250.514z"/>
		</g>
	</g>
	<g clip-path="url(#SVGID_2_)">
		<path fill="#E2D869" d="M1806.954,582.236c3.873,2.485,9.436,4.37,15.395,4.37c8.839,0,14.004-4.567,14.004-11.421
			c0-6.159-3.576-9.833-12.613-13.211c-10.925-3.969-17.679-9.729-17.679-19.068c0-10.425,8.64-18.171,21.65-18.171
			c6.754,0,11.82,1.588,14.699,3.274l-2.383,7.052c-2.086-1.292-6.557-3.177-12.613-3.177c-9.139,0-12.615,5.464-12.615,10.03
			c0,6.257,4.074,9.334,13.31,12.91c11.321,4.472,16.983,9.833,16.983,19.665c0,10.331-7.549,19.369-23.34,19.369
			c-6.455,0-13.506-1.987-17.082-4.374L1806.954,582.236z"/>
		<path fill="#E2D869" d="M1865.661,525.824v39.726c0,14.901,6.654,21.257,15.593,21.257c9.832,0,16.287-6.558,16.287-21.257
			v-39.726h8.74v39.133c0,20.558-10.826,28.901-25.326,28.901c-13.705,0-24.033-7.746-24.033-28.605v-39.429H1865.661z"/>
		<path fill="#E2D869" d="M1921.291,526.821c4.371-0.897,10.729-1.489,16.586-1.489c9.238,0,15.297,1.785,19.466,5.558
			c3.278,2.879,5.265,7.45,5.265,12.711c0,8.743-5.662,14.602-12.612,16.984v0.3c5.064,1.785,8.144,6.554,9.834,13.506
			c2.185,9.334,3.771,15.79,5.063,18.374h-8.938c-1.094-1.888-2.582-7.648-4.371-15.991c-1.984-9.236-5.66-12.713-13.507-13.008
			h-8.144v29h-8.642V526.821z M1929.932,557.21h8.84c9.236,0,15.098-5.068,15.098-12.712c0-8.643-6.259-12.416-15.396-12.416
			c-4.172,0-7.051,0.398-8.541,0.793V557.21z"/>
		<path fill="#E2D869" d="M1974.636,525.824h36.051v7.25h-27.311v22.248h25.226v7.15h-25.226v30.292h-8.74V525.824z"/>
		<path fill="#E2D869" d="M2031.754,525.824v66.94h-8.741v-66.94H2031.754z"/>
		<path fill="#E2D869" d="M2046.854,592.764v-66.94h9.534l21.354,33.867c4.866,7.846,8.84,14.798,11.919,21.751l0.295-0.099
			c-0.793-8.94-0.991-17.083-0.991-27.412v-28.107h8.145v66.94h-8.741l-21.252-33.966c-4.668-7.451-9.139-15.094-12.414-22.347
			l-0.299,0.098c0.495,8.442,0.595,16.489,0.595,27.61v28.604H2046.854z"/>
		<path fill="#E2D869" d="M2163.267,589.785c-3.873,1.489-11.619,3.674-20.658,3.674c-10.129,0-18.472-2.583-25.025-8.841
			c-5.762-5.558-9.337-14.498-9.337-24.927c0-19.96,13.805-34.562,36.25-34.562c7.747,0,13.904,1.691,16.785,3.081l-2.187,7.052
			c-3.573-1.691-8.044-2.88-14.797-2.88c-16.288,0-26.914,10.129-26.914,26.914c0,16.983,10.13,27.013,25.821,27.013
			c5.661,0,9.535-0.794,11.521-1.79v-19.961h-13.506v-6.953h22.047V589.785z"/>
		<path fill="#E2D869" d="M2206.09,533.177h-20.358v-7.353h49.559v7.353h-20.461v59.587h-8.74V533.177z"/>
		<path fill="#E2D869" d="M2277.313,561.382h-25.922v24.133h29v7.249h-37.74v-66.94h36.252v7.25h-27.512v21.153h25.922V561.382z"/>
		<path fill="#E2D869" d="M2302.449,571.708l-6.953,21.056h-8.939l22.744-66.94h10.428l22.844,66.94h-9.238l-7.148-21.056H2302.449z
			 M2324.398,564.958l-6.656-19.271c-1.391-4.369-2.381-8.339-3.375-12.214h-0.299c-0.895,3.875-1.986,8.043-3.277,12.116
			l-6.555,19.369H2324.398z"/>
		<path fill="#E2D869" d="M2408.83,563.365c-0.496-9.334-1.094-20.657-1.094-28.9h-0.199c-2.381,7.746-5.064,16.188-8.439,25.424
			l-11.818,32.477h-6.555l-10.924-31.88c-3.178-9.532-5.764-18.073-7.648-26.021h-0.201c-0.197,8.343-0.695,19.467-1.287,29.595
			l-1.789,28.704h-8.246l4.672-66.94h11.021l11.422,32.378c2.781,8.244,4.967,15.592,6.754,22.545h0.199
			c1.787-6.755,4.172-14.103,7.15-22.545l11.918-32.378h11.023l4.172,66.94h-8.541L2408.83,563.365z"/>
	</g>
	<g clip-path="url(#SVGID_2_)">
		<polygon fill="#006087" points="629.3,138.643 600.31,182.729 578.431,230.826 564.588,281.853 557.217,334.183 554.311,387.057 
			558.803,439.865 566.909,492.241 580.164,543.577 596.333,593.299 629.3,576.119 662.243,594.069 678.188,543.519 692.345,492.39 
			699.181,439.787 705.049,387.07 701.856,334.134 695.206,281.593 680.519,230.698 658.107,182.832 		"/>
	</g>
</g>
</svg>
