<?xml version="1.0" encoding="utf-8"?>
<!-- Generator: Adobe Illustrator 16.0.0, SVG Export Plug-In . SVG Version: 6.00 Build 0)  -->
<!DOCTYPE svg PUBLIC "-//W3C//DTD SVG 1.1//EN" "http://www.w3.org/Graphics/SVG/1.1/DTD/svg11.dtd">
<svg version="1.1" id="圖層_1" xmlns="http://www.w3.org/2000/svg" xmlns:xlink="http://www.w3.org/1999/xlink" x="0px" y="0px"
	 width="167px" height="334px" viewBox="0 0 167 334" enable-background="new 0 0 167 334" xml:space="preserve">
<g>
	<g>
		<g>
			<path d="M79.577,206.117c0.354-0.399,0.629-0.944,0.83-1.633h-0.961v4.228c0,0.56-0.098,0.934-0.289,1.117
				c-0.184,0.192-0.553,0.288-1.105,0.288h-0.863l-0.289-1.166L77.933,209c0.264,0,0.396-0.132,0.396-0.396v-4.132h-1.803v-0.984
				h2.57c-0.439-0.473-1.02-1.061-1.74-1.766l0.686-0.696c0.295,0.249,0.57,0.496,0.828,0.745c0.367-0.441,0.654-0.878,0.863-1.31
				h-2.965v-0.997h4.094v0.89c-0.303,0.761-0.717,1.439-1.236,2.041l0.48,0.48l-0.602,0.612h1.861v0.84
				c-0.15,0.986-0.465,1.798-0.936,2.438L79.577,206.117z M84.093,208.556c-0.832,0.721-1.721,1.28-2.664,1.682l-0.723-0.95
				c0.873-0.319,1.742-0.808,2.607-1.464L84.093,208.556z M81.751,201.229h2.006c0.129-0.304,0.229-0.601,0.301-0.889h-2.738v-0.985
				h6.414v0.985h-2.559c-0.096,0.4-0.191,0.696-0.289,0.889h2.463v6.51h-5.598V201.229z M86.255,202.178h-3.41v0.853h3.41V202.178z
				 M82.845,204.88h3.41v-0.948h-3.41V204.88z M82.845,206.79h3.41v-1.021h-3.41V206.79z M87.276,210.237
				c-0.816-0.608-1.648-1.134-2.498-1.574l0.744-0.793c0.801,0.362,1.576,0.801,2.33,1.321L87.276,210.237z"/>
			<path d="M97.112,200.354c-0.152-0.434-0.324-0.853-0.516-1.263l1.104-0.144c0.193,0.329,0.373,0.797,0.541,1.406h1.777v1.068
				h-5.057v-1.068H97.112z M95.431,202.155h4.215v1.021h-4.215V202.155z M95.431,203.955h4.252v1.021h-4.252V203.955z
				 M95.431,205.865h4.252v4.167h-1.129v-0.648h-2.006v0.769h-1.117V205.865z M98.554,206.874h-2.006v1.513h2.006V206.874z
				 M104.366,208.483c0,0.593-0.113,1.013-0.336,1.262c-0.232,0.247-0.654,0.372-1.262,0.372h-1.332l-0.289-1.249l1.381,0.072
				c0.416,0,0.625-0.213,0.625-0.637v-7.494h-2.666v-1.154h5.813v1.154h-1.922L104.366,208.483z"/>
			<path d="M123.161,204.869c0.361,0.319,0.785,0.752,1.273,1.297l-0.77,0.648l-0.408-0.456c-0.078,0-0.176,0-0.287,0
				c-0.096,0-0.186,0-0.266,0c-0.23,0.007-0.42,0.012-0.564,0.012v0.745h2.607v0.937h-2.607v0.875c0,0.85-0.387,1.274-1.164,1.274
				h-1.297l-0.252-1.069l1.213,0.06c0.24,0,0.361-0.119,0.361-0.36v-0.779h-7.58v-0.937h7.58v-0.697
				c-0.986,0.032-2.039,0.052-3.16,0.06c-1.305,0.008-2.563,0.024-3.771,0.048l-0.252-1.032c1.082,0.032,2.15,0.048,3.207,0.048
				c0.594,0,1.076-0.005,1.453-0.013v-0.659h-4.072v-3.808h4.072v-0.577h-4.938v-0.925h4.938v-0.623h1.094v0.623h5.018v0.925h-5.018
				v0.577h4.082v3.808H123.161z M118.478,202.538v-0.648h-2.99v0.648H118.478z M118.478,204.039v-0.731h-2.99v0.731H118.478z
				 M118.478,209.119l-0.83,0.89c-0.639-0.48-1.316-0.905-2.027-1.273l0.816-0.673C117.036,208.278,117.718,208.631,118.478,209.119
				z M122.573,202.538v-0.648h-3.002v0.648H122.573z M122.573,204.039v-0.731h-3.002v0.731H122.573z M119.571,204.869v0.647
				c0.512,0,1.012-0.004,1.502-0.011c0.52-0.009,0.986-0.02,1.404-0.036l-0.277-0.277l0.578-0.323H119.571z"/>
			<path d="M133.454,206.946c-0.072,1.225-0.248,2.217-0.529,2.979l-0.996-0.288c0.271-0.729,0.465-1.649,0.576-2.763
				L133.454,206.946z M136.372,201.373c-0.641,1.603-1.404,2.883-2.295,3.844h0.014c0.615-0.072,0.969-0.12,1.057-0.146
				c-0.049-0.222-0.133-0.456-0.252-0.695l0.816-0.18c0.217,0.408,0.432,1.056,0.648,1.945l-0.938,0.217
				c-0.008-0.049-0.02-0.125-0.035-0.229c-0.023-0.128-0.039-0.192-0.049-0.192c-0.207,0.04-1.209,0.16-3.002,0.359l-0.24-0.983
				c0.168-0.009,0.309-0.017,0.42-0.025c0.16-0.008,0.293-0.02,0.396-0.036c0.488-0.52,0.992-1.248,1.514-2.185
				c-0.672,0.111-1.4,0.2-2.186,0.265l-0.145-0.95h0.24c0.072-0.007,0.148-0.012,0.229-0.012c0.703-1.088,1.229-2.213,1.574-3.375
				l1.045,0.241c-0.297,0.824-0.803,1.861-1.514,3.109c0.094-0.022,0.23-0.047,0.406-0.072c0.186-0.016,0.438-0.046,0.758-0.096
				c0.184-0.335,0.359-0.72,0.529-1.152L136.372,201.373z M133.946,209.421c0.016-0.226,0.023-0.486,0.023-0.781
				c0-0.488-0.031-1.072-0.096-1.754l0.9-0.048c0.145,0.721,0.225,1.565,0.24,2.534L133.946,209.421z M135.556,208.507
				c-0.152-0.801-0.297-1.381-0.434-1.741l0.854-0.228c0.088,0.208,0.172,0.464,0.254,0.768c0.088,0.289,0.174,0.589,0.262,0.901
				L135.556,208.507z M136.444,205.108h2.318v0.974c-0.258,1.265-1.041,2.521-2.355,3.771l-0.779-0.805
				c1.105-0.809,1.809-1.793,2.113-2.954h-1.297V205.108z M140.19,206.082v2.617c0,0.553-0.088,0.925-0.264,1.117
				c-0.184,0.2-0.537,0.301-1.057,0.301h-0.852l-0.301-1.105l1.031,0.048c0.273,0,0.41-0.128,0.41-0.384v-4.359h-2.463v-4.384h1.945
				c0.232-0.248,0.422-0.577,0.564-0.985l1.178,0.24c-0.096,0.232-0.236,0.48-0.422,0.745h2.596v4.384h-2.354
				c0.375,0.769,0.691,1.353,0.949,1.754c0.408-0.346,0.791-0.793,1.152-1.346l0.779,0.804c-0.576,0.649-1.057,1.13-1.439,1.441
				c0,0.257,0.516,0.857,1.549,1.802l-0.674,1.058C141.521,208.739,140.745,207.491,140.19,206.082z M137.729,201.65h3.783v-0.805
				h-3.783V201.65z M137.729,203.403h3.783v-0.913h-3.783V203.403z"/>
		</g>
		<g>
			<path d="M109.14,264.288c-0.432-1.185-1.115-2.174-2.23-2.799c-0.563-0.316-1.066,0.548-0.504,0.863
				c0.568,0.319,0.984,0.76,1.309,1.276c-9.221,0.738-21.973,1.169-31.219,0.93c-9.689-0.25-33.029,0.295-42.73,0.521
				c0.02-0.068,0.035-0.136,0.068-0.207c0.311-0.652,0.779-1.229,1.115-1.872c0.297-0.57-0.566-1.076-0.863-0.504
				c-0.441,0.845-1.188,1.641-1.371,2.595c-0.197,1.02,0.609,1.868,1.281,2.511c0.467,0.445,1.174-0.261,0.707-0.707
				c-0.264-0.253-0.547-0.521-0.744-0.817c9.633-0.212,32.916-0.811,42.537-0.52c9.24,0.28,22.012-0.189,31.227-0.93
				c-0.625,0.605-1.262,1.194-1.982,1.693c-0.527,0.364-0.027,1.231,0.504,0.863c1.014-0.702,1.896-1.542,2.768-2.411
				C109.13,264.656,109.2,264.451,109.14,264.288z"/>
			<g>
				<path d="M58.179,260.063c0.549,0.424,1.168,0.636,1.857,0.636c0.553,0,0.988-0.135,1.313-0.405
					c0.322-0.271,0.482-0.634,0.482-1.09c0-1.014-0.727-1.521-2.178-1.521h-0.668v-0.839h0.637c1.287,0,1.93-0.476,1.93-1.428
					c0-0.88-0.49-1.319-1.475-1.319c-0.563,0-1.092,0.189-1.588,0.569v-0.957c0.523-0.304,1.137-0.455,1.836-0.455
					c0.684,0,1.232,0.178,1.646,0.535c0.414,0.356,0.621,0.82,0.621,1.389c0,1.049-0.535,1.724-1.605,2.023v0.021
					c0.58,0.063,1.039,0.267,1.375,0.613s0.504,0.778,0.504,1.296c0,0.721-0.26,1.303-0.779,1.744
					c-0.518,0.441-1.209,0.662-2.072,0.662c-0.758,0-1.371-0.142-1.836-0.425V260.063z"/>
				<path d="M64.124,257.554c0-1.414,0.234-2.484,0.703-3.21c0.469-0.727,1.148-1.089,2.039-1.089c1.697,0,2.545,1.369,2.545,4.107
					c0,1.353-0.238,2.387-0.717,3.102c-0.477,0.716-1.146,1.074-2.01,1.074c-0.814,0-1.443-0.34-1.891-1.02
					S64.124,258.851,64.124,257.554z M65.159,257.508c0,2.128,0.539,3.191,1.619,3.191c1.063,0,1.594-1.081,1.594-3.243
					c0-2.239-0.521-3.358-1.563-3.358C65.708,254.098,65.159,255.234,65.159,257.508z"/>
				<path d="M79.009,261.403h-1.014v-3.285c0-0.621-0.098-1.065-0.289-1.333c-0.193-0.267-0.512-0.4-0.953-0.4
					c-0.373,0-0.691,0.174-0.957,0.522s-0.398,0.761-0.398,1.236v3.26h-1.014v-3.389c0-1.087-0.42-1.63-1.258-1.63
					c-0.387,0-0.705,0.165-0.959,0.497c-0.254,0.331-0.381,0.753-0.381,1.268v3.254h-1.014v-5.723h1.014v0.906h0.021
					c0.406-0.693,1.002-1.04,1.785-1.04c0.383,0,0.721,0.104,1.014,0.315c0.293,0.21,0.496,0.495,0.609,0.854
					c0.426-0.779,1.059-1.169,1.904-1.169c1.26,0,1.889,0.775,1.889,2.328V261.403z"/>
			</g>
			<g>
				<path d="M48.866,269.695h4.385v-1.104h0.801v1.104h4.277v0.693h-4.277v0.996h3.74v5.537c0,0.762-0.377,1.146-1.133,1.152
					c-0.43,0.007-0.967-0.003-1.611-0.029c-0.039-0.241-0.088-0.508-0.146-0.801c0.645,0.039,1.137,0.059,1.475,0.059
					c0.43,0,0.645-0.188,0.645-0.566v-4.668h-6.758v6.045h-0.771v-6.729h3.76v-0.996h-4.385V269.695z M50.644,275.389h2.617v-1.064
					h-2.305v-0.645h3.066c0.313-0.469,0.629-0.983,0.947-1.543l0.723,0.4c-0.318,0.437-0.607,0.817-0.869,1.143h1.504v0.645h-2.305
					v1.064h2.617v0.645h-2.617v1.875h-0.762v-1.875h-2.617V275.389z M51.601,272.527l0.576-0.391
					c0.332,0.384,0.635,0.759,0.908,1.123l-0.645,0.4C52.181,273.282,51.901,272.905,51.601,272.527z"/>
				<path d="M63.739,271.766l0.42-0.547c0.488,0.378,0.957,0.788,1.406,1.23l-0.469,0.615
					C64.544,272.505,64.091,272.071,63.739,271.766z M63.905,269.236l0.439-0.488c0.293,0.261,0.752,0.71,1.377,1.348l-0.498,0.547
					C64.651,270.005,64.212,269.536,63.905,269.236z M63.925,277.801c0.352-0.996,0.711-2.249,1.074-3.76
					c0.248,0.137,0.473,0.251,0.674,0.342c-0.344,1.296-0.68,2.536-1.006,3.721L63.925,277.801z M66.044,272.039l0.43,0.107
					c-0.078,0.488-0.162,0.95-0.254,1.387l-0.498-0.117C65.839,273.032,65.946,272.573,66.044,272.039z M66.366,269.939
					c0.273-0.02,0.555-0.042,0.84-0.068c0.17-0.202,0.355-0.427,0.557-0.674l0.43,0.273c-0.578,0.677-1.133,1.27-1.66,1.777
					c0.346-0.02,0.723-0.042,1.133-0.068c-0.07-0.183-0.146-0.381-0.225-0.596l0.41-0.176c0.203,0.462,0.371,0.898,0.508,1.309
					l-0.449,0.205c-0.025-0.091-0.055-0.186-0.088-0.283c-1.055,0.052-1.67,0.104-1.846,0.156l-0.107-0.518
					c0.229-0.183,0.545-0.501,0.947-0.957c-0.357,0.046-0.656,0.088-0.898,0.127l-0.098-0.479c0.346-0.403,0.682-0.889,1.006-1.455
					l0.469,0.273C66.97,269.21,66.659,269.595,66.366,269.939z M66.415,273.768h6.162v1.797h-0.684v-0.195h-4.59l-0.107,0.615h5.752
					c-0.012,0.3-0.031,0.603-0.059,0.908c-0.059,0.742-0.539,1.113-1.445,1.113c-0.729,0-1.334-0.007-1.816-0.02
					c-0.012-0.183-0.051-0.403-0.117-0.664c0.605,0.046,1.244,0.068,1.914,0.068c0.541,0,0.811-0.303,0.811-0.908h-5.83l0.293-1.611
					h5.195v-0.605h-5.479V273.768z M67.401,273.348l-0.508,0.059c-0.025-0.417-0.059-0.847-0.098-1.289l0.449-0.059
					C67.304,272.456,67.356,272.886,67.401,273.348z M68.036,271.961c0.125,0.495,0.225,0.901,0.303,1.221l-0.488,0.107
					c-0.07-0.442-0.148-0.856-0.234-1.24L68.036,271.961z M68.271,269.031h1.123c-0.039-0.144-0.088-0.29-0.146-0.439l0.557-0.107
					c0.059,0.188,0.111,0.371,0.156,0.547h1.006v0.488h-2.695V269.031z M68.495,269.939h2.246v0.479h-2.246V269.939z
					 M68.495,270.828h2.246v0.488h-2.246V270.828z M68.495,271.727h2.246v1.758h-0.498v-0.254h-1.25v0.254h-0.498V271.727z
					 M70.243,272.771v-0.586h-1.25v0.586H70.243z M71.2,272.039l0.449,0.107c-0.09,0.476-0.182,0.938-0.273,1.387l-0.508-0.117
					C70.993,272.979,71.103,272.521,71.2,272.039z M71.571,269.91c0.242-0.02,0.518-0.039,0.83-0.059
					c0.176-0.208,0.361-0.437,0.557-0.684l0.391,0.293c-0.572,0.703-1.125,1.309-1.66,1.816c0.32-0.02,0.697-0.046,1.133-0.078
					c-0.07-0.195-0.146-0.394-0.225-0.596l0.42-0.166c0.176,0.41,0.342,0.837,0.498,1.279l-0.459,0.205l-0.078-0.273
					c-0.943,0.065-1.553,0.124-1.826,0.176l-0.127-0.547c0.287-0.234,0.613-0.557,0.977-0.967c-0.371,0.032-0.68,0.068-0.928,0.107
					l-0.098-0.449c0.352-0.364,0.697-0.847,1.035-1.445l0.508,0.244C72.187,269.21,71.872,269.591,71.571,269.91z M72.538,273.357
					l-0.508,0.068c-0.025-0.41-0.059-0.843-0.098-1.299l0.449-0.059C72.435,272.466,72.487,272.896,72.538,273.357z M73.183,272
					c0.105,0.378,0.205,0.788,0.303,1.23l-0.498,0.107c-0.078-0.462-0.156-0.876-0.234-1.24L73.183,272z"/>
				<path d="M79.364,273.035h0.645v3.608c0.264-0.039,0.535-0.08,0.811-0.122v-4.463h-0.781v0.322h-0.703v-3.311h3.203v2.988h-1.035
					v1.65h1.016v0.664h-1.016v2.046c0.408-0.065,0.824-0.135,1.25-0.21c-0.012,0.222-0.02,0.459-0.02,0.713
					c-1.27,0.215-2.525,0.43-3.77,0.645l-0.195-0.762c0.195-0.022,0.395-0.047,0.596-0.073V273.035z M81.835,271.395v-1.66h-1.797
					v1.66H81.835z M82.636,271.453c0.684-0.84,1.277-1.846,1.777-3.018l0.723,0.264c-0.139,0.293-0.279,0.573-0.42,0.84h3.086v0.654
					c-0.426,0.804-0.99,1.546-1.693,2.227c0.641,0.439,1.43,0.769,2.367,0.986c-0.129,0.286-0.236,0.557-0.322,0.811
					c-1.021-0.349-1.889-0.786-2.602-1.313c-0.711,0.55-1.57,1.04-2.584,1.47c-0.064-0.13-0.195-0.361-0.391-0.693
					c0.883-0.315,1.682-0.739,2.398-1.27c-0.395-0.391-0.75-0.881-1.064-1.47c-0.264,0.407-0.525,0.77-0.787,1.089
					C82.968,271.821,82.806,271.629,82.636,271.453z M83.358,274.334h4.248v3.799h-0.732v-0.469h-2.783v0.469h-0.732V274.334z
					 M86.874,275.018h-2.783v1.963h2.783V275.018z M86.962,270.203h-2.607c-0.02,0.032-0.039,0.065-0.059,0.098
					c0.33,0.661,0.74,1.214,1.23,1.66C86.112,271.437,86.591,270.851,86.962,270.203z"/>
			</g>
			<g>
				<g>
					<path fill-rule="evenodd" clip-rule="evenodd" d="M30.505,261.805c-0.492,0.192-0.975,0.409-1.334,0.813
						c-0.34,0.381-0.586,0.818-0.705,1.318c-0.043,0.174-0.121,0.229-0.301,0.226c-0.928-0.009-1.854-0.003-2.787-0.003
						c0.357-1.062,0.891-2.013,1.631-2.862c0.76-0.872,1.654-1.548,2.686-2.052c0.223-0.108,0.459-0.193,0.688-0.287
						c0.125,0.065,0.127,0.18,0.125,0.301C30.505,260.109,30.505,260.956,30.505,261.805z"/>
					<path fill-rule="evenodd" clip-rule="evenodd" d="M29.517,259.081c-0.766,0.396-1.469,0.878-2.123,1.448
						c-0.361,0.317-0.619,0.716-0.973,1.029c-1.252,0-2.504-0.001-3.752,0.003c-0.09,0-0.207-0.067-0.273,0.06
						c-0.07-0.011-0.064-0.058-0.064-0.112c0.002-0.814,0.002-1.627,0-2.439c0-0.055-0.006-0.101,0.064-0.111
						c0.078,0.131,0.205,0.057,0.305,0.057c2.17,0.007,4.34,0.004,6.51,0.01C29.31,259.024,29.435,258.948,29.517,259.081z"/>
					<path fill-rule="evenodd" clip-rule="evenodd" d="M24.874,267.689c0.039-0.251,0.086-0.502,0.119-0.754
						c0.016-0.115,0.008-0.231,0.127-0.301c0.064,0.126,0.18,0.059,0.271,0.059c0.857,0.007,1.719,0.004,2.576,0.004
						c0.098,0.123,0.098,0.248,0,0.372c0-0.021-0.004-0.042-0.004-0.063c-0.004-0.045-0.053-0.029-0.053-0.021
						c0.02,0.11-0.072,0.239,0.057,0.329c-0.033,0.186,0.066,0.386-0.063,0.559c-0.127,0.065-0.057,0.181-0.057,0.271
						c-0.012,0.612,0,1.225-0.01,1.838c-0.982,0.003-1.963-0.021-2.943,0.013c-0.055-0.385-0.01-0.771-0.021-1.156
						c-0.039-0.154,0.068-0.329-0.064-0.469c0.039-0.101-0.078-0.231,0.064-0.311C24.97,267.936,24.97,267.812,24.874,267.689z"/>
					<path fill-rule="evenodd" clip-rule="evenodd" d="M30.011,266.446c0-0.464-0.002-0.916,0-1.369
						c0.002-0.119-0.002-0.237-0.158-0.235c-0.156,0.004-0.152,0.122-0.152,0.241c0.002,0.443,0,0.887,0,1.35
						c-0.141-0.07-0.311-0.09-0.42-0.036c-0.225,0.111-0.201-0.004-0.199-0.154c0.004-0.536-0.002-1.072,0.006-1.608
						c0.002-0.095-0.082-0.264,0.066-0.277c0.172-0.016,0.4-0.108,0.52,0.069c0.105,0.156,0.162,0.113,0.268,0.024
						c0.16-0.134,0.363-0.156,0.535-0.084c0.176,0.073,0.215,0.271,0.215,0.457c0,0.466,0,0.93,0,1.394
						c0,0.14,0.018,0.243-0.203,0.179C30.353,266.356,30.169,266.34,30.011,266.446z"/>
					<path fill-rule="evenodd" clip-rule="evenodd" d="M25.862,265.954c0.16,0.371,0.096,0.495-0.258,0.496
						c-0.195,0-0.393-0.012-0.588,0.003c-0.191,0.013-0.275-0.043-0.271-0.253c0.01-0.557,0.006-1.112,0-1.668
						c-0.004-0.136,0.01-0.203,0.176-0.191c0.275,0.017,0.557,0.022,0.832-0.002c0.219-0.02,0.168,0.112,0.172,0.227
						c0.004,0.126,0.021,0.232-0.18,0.225c-0.094-0.005-0.303-0.162-0.32,0.123c-0.016,0.219,0.023,0.348,0.283,0.301
						c0.117-0.021,0.236-0.031,0.225,0.175c-0.01,0.158-0.047,0.229-0.205,0.192c-0.363-0.083-0.299,0.168-0.299,0.373
						C25.573,266.058,25.716,266.058,25.862,265.954z"/>
					<path fill-rule="evenodd" clip-rule="evenodd" d="M26.173,265.025c-0.135-0.175-0.023-0.396-0.121-0.583
						c-0.031-0.063,0.023-0.09,0.102-0.101c0.414-0.062,0.561,0.042,0.568,0.472c0,0.138,0.098,0.244,0.068,0.378
						c-0.025,0.126,0.037,0.227,0.102,0.335c0.07-0.338,0.178-0.668,0.197-1.003c0.016-0.262,0.168-0.171,0.285-0.176
						c0.154-0.006,0.184,0.112,0.158,0.231c-0.1,0.474-0.203,0.947-0.311,1.418c-0.02,0.089,0.08,0.206-0.059,0.268
						c0-0.031-0.002-0.061-0.014-0.09c-0.24,0.262-0.508,0.175-0.779,0.066c0,0-0.014,0.054-0.014,0.084
						c-0.154-0.14-0.049-0.34-0.104-0.511c-0.051-0.158-0.084-0.356-0.08-0.542c0.111-0.083,0.066-0.185,0.029-0.285
						c-0.006,0.004-0.016,0.007-0.02,0.012C26.177,265.006,26.175,265.017,26.173,265.025z"/>
					<path fill-rule="evenodd" clip-rule="evenodd" d="M23.261,265.272c0.135,0.054,0.031,0.169,0.063,0.248
						c-0.162,0.038-0.346-0.079-0.496,0.063c-0.098,0.123-0.098,0.248,0,0.371c0.131,0.129,0.291,0.033,0.434,0.061
						c0.035,0.102-0.07,0.229,0.063,0.311c-0.004,0.059,0.012,0.131-0.084,0.13c-0.309-0.002-0.617,0.001-0.926-0.008
						c-0.105-0.001-0.129-0.024-0.119-0.175c0.037-0.638,0.018-1.277,0.018-1.929c0.219,0,0.488,0.027,0.75-0.007
						c0.322-0.04,0.416,0.086,0.361,0.378c-0.162,0.037-0.346-0.078-0.496,0.063c0,0.02,0,0.04,0,0.062
						c-0.102,0.103-0.102,0.207,0,0.31c0,0.021,0,0.042,0,0.061C22.958,265.339,23.118,265.246,23.261,265.272z"/>
					<path fill-rule="evenodd" clip-rule="evenodd" d="M24.19,264.344c0.117,0.022,0.059,0.113,0.061,0.171
						c0.002,0.479,0.002,0.96,0.002,1.439c0.082,0.132,0.207,0.029,0.309,0.061c-0.01,0.109,0.021,0.221-0.023,0.325
						c-0.305,0.007-0.609-0.087-0.906,0.048c-0.102-0.682-0.102-1.362,0-2.044c-0.01,0.174,0.092,0.064,0.15,0.06
						c0.336-0.028,0.346-0.022,0.346,0.309c0.002,0.401-0.004,0.802,0.063,1.204C24.19,265.392,24.19,264.867,24.19,264.344z"/>
					<path fill-rule="evenodd" clip-rule="evenodd" d="M30.505,261.805c0-0.853-0.002-1.707,0.006-2.562
						c0-0.128-0.031-0.215-0.129-0.285c0.184-0.082,0.26-0.061,0.256,0.18c-0.018,0.789-0.01,1.579-0.01,2.368
						C30.628,261.621,30.673,261.759,30.505,261.805z"/>
					<path fill-rule="evenodd" clip-rule="evenodd" d="M27.72,266.388c0-0.615,0.004-1.23-0.004-1.846
						c-0.004-0.152,0.025-0.213,0.195-0.201c0.287,0.017,0.574,0.003,0.861,0.003c-0.002,0.045-0.023,0.071-0.066,0.082
						c-0.01-0.006-0.018-0.012-0.027-0.012c-0.287-0.003-0.648-0.12-0.84,0.039c-0.18,0.152-0.043,0.522-0.055,0.796
						c-0.012,0.287,0.01,0.576-0.008,0.864c-0.01,0.185,0.059,0.228,0.225,0.216c0.176-0.014,0.354-0.02,0.525,0
						c0.217,0.027,0.277-0.062,0.246-0.254c0-0.021,0-0.039,0-0.061c0.131,0.107,0.027,0.253,0.061,0.373
						C28.464,266.388,28.091,266.388,27.72,266.388z"/>
					<path fill-rule="evenodd" clip-rule="evenodd" d="M22.396,261.621c0.061-0.143,0.178-0.058,0.264-0.058
						c1.252-0.008,2.508-0.005,3.762-0.005c-0.061,0.143-0.182,0.058-0.266,0.058C24.901,261.622,23.649,261.621,22.396,261.621z"/>
					<path fill-rule="evenodd" clip-rule="evenodd" d="M27.968,266.697c-0.871,0-1.744,0.003-2.615-0.005
						c-0.074,0-0.186,0.079-0.232-0.058c0.871,0,1.742-0.002,2.613,0.006C27.808,266.641,27.919,266.563,27.968,266.697z"/>
					<path fill-rule="evenodd" clip-rule="evenodd" d="M24.19,264.344c0,0.532,0,1.062,0,1.593
						c-0.021,0.001-0.041,0.001-0.063,0.001c0-0.384,0-0.765,0-1.146c0-0.431,0-0.435-0.42-0.354
						c-0.125,0.025-0.053-0.06-0.076-0.094C23.817,264.344,24.005,264.344,24.19,264.344z"/>
					<path fill-rule="evenodd" clip-rule="evenodd" d="M27.905,269.978c-0.021,0-0.041,0-0.063,0c0-0.632-0.002-1.267,0.006-1.901
						c0-0.065-0.074-0.169,0.057-0.202C27.905,268.575,27.905,269.277,27.905,269.978z"/>
					<path fill-rule="evenodd" clip-rule="evenodd" d="M24.874,269.978c0,0.021,0,0.043,0,0.063
						c-0.139-0.145-0.047-0.318-0.061-0.477c-0.018-0.252-0.004-0.508-0.004-0.762c0.021,0,0.041,0,0.064,0
						C24.874,269.193,24.874,269.586,24.874,269.978z"/>
					<path fill-rule="evenodd" clip-rule="evenodd" d="M26.356,266.325c0.01-0.041,0.027-0.138,0.049-0.107
						c0.172,0.253,0.414,0.043,0.613,0.105c0.115,0.035,0.063-0.09,0.08-0.147c0.016-0.051,0.049-0.017,0.055-0.001
						c0.01,0.027,0.008,0.059,0.01,0.09c-0.01,0.037-0.02,0.109-0.025,0.109C26.878,266.359,26.608,266.466,26.356,266.325z"/>
					<path fill-rule="evenodd" clip-rule="evenodd" d="M27.72,266.388c0.371,0,0.744,0,1.113,0
						C28.464,266.49,28.091,266.49,27.72,266.388z"/>
					<path fill-rule="evenodd" clip-rule="evenodd" d="M23.632,266.388c0.303-0.146,0.621-0.021,0.93-0.063c0,0.021,0,0.042,0,0.063
						C24.253,266.388,23.942,266.388,23.632,266.388z"/>
					<path fill-rule="evenodd" clip-rule="evenodd" d="M28.772,264.406c0-0.02,0-0.041,0-0.063c0.148,0.341,0.102,0.433-0.219,0.435
						c-0.072,0-0.143,0-0.215,0c0.006-0.018,0.012-0.031,0.016-0.048c0.039-0.021,0.08-0.021,0.119-0.015
						C28.737,264.77,28.817,264.65,28.772,264.406z"/>
					<path fill-rule="evenodd" clip-rule="evenodd" d="M28.339,265.21c0.082,0,0.164,0,0.246,0.001
						c0.291,0.002,0.32,0.064,0.188,0.372c0-0.032,0-0.063,0-0.094c0.004-0.125,0.027-0.256-0.18-0.22
						c-0.076,0.013-0.16,0.026-0.238-0.014C28.349,265.24,28.343,265.227,28.339,265.21z"/>
					<path fill-rule="evenodd" clip-rule="evenodd" d="M22.827,265.583c0.15-0.145,0.334-0.021,0.496-0.063
						C23.175,265.666,22.991,265.544,22.827,265.583z"/>
					<path fill-rule="evenodd" clip-rule="evenodd" d="M22.827,264.778c0.15-0.146,0.334-0.023,0.496-0.063
						C23.175,264.859,22.991,264.738,22.827,264.778z"/>
					<path fill-rule="evenodd" clip-rule="evenodd" d="M28.772,265.521c0,0.021,0,0.042,0,0.063c-0.145,0-0.289,0-0.434,0
						c0.004-0.016,0.008-0.029,0.014-0.045C28.491,265.498,28.634,265.533,28.772,265.521z"/>
					<path fill-rule="evenodd" clip-rule="evenodd" d="M23.261,266.015c-0.143-0.026-0.303,0.065-0.434-0.061
						C22.972,265.982,23.132,265.889,23.261,266.015z"/>
					<path fill-rule="evenodd" clip-rule="evenodd" d="M25.862,265.954c-0.146,0.105-0.289,0.105-0.434,0
						C25.573,265.954,25.716,265.954,25.862,265.954z"/>
					<path fill-rule="evenodd" clip-rule="evenodd" d="M28.339,265.954c0.143,0.028,0.303-0.065,0.434,0.061
						c-0.139-0.009-0.279,0.025-0.418-0.017C28.349,265.985,28.343,265.969,28.339,265.954z"/>
					<path fill-rule="evenodd" clip-rule="evenodd" d="M24.562,266.388c0-0.021,0-0.041,0-0.063c0-0.104,0-0.206,0-0.311
						c0.125,0.126,0.045,0.278,0.051,0.419c0,0-0.023,0.005-0.027,0C24.575,266.422,24.569,266.402,24.562,266.388z"/>
					<path fill-rule="evenodd" clip-rule="evenodd" d="M24.874,268.803c-0.023,0-0.043,0-0.064,0c0-0.145,0-0.29,0-0.433
						C24.937,268.498,24.843,268.659,24.874,268.803z"/>
					<path fill-rule="evenodd" clip-rule="evenodd" d="M28.339,264.778c0,0.144,0,0.288,0,0.432
						C28.235,265.066,28.235,264.922,28.339,264.778z"/>
					<path fill-rule="evenodd" clip-rule="evenodd" d="M23.261,265.272c-0.143-0.026-0.303,0.065-0.434-0.063
						C22.972,265.239,23.132,265.146,23.261,265.272z"/>
					<path fill-rule="evenodd" clip-rule="evenodd" d="M27.968,267.315c-0.145-0.091-0.037-0.227-0.057-0.34
						c-0.01-0.043,0.045-0.009,0.049,0.005c0.01,0.026,0.004,0.059,0.008,0.089C27.968,267.151,27.968,267.233,27.968,267.315z"/>
					<path fill-rule="evenodd" clip-rule="evenodd" d="M28.339,265.583c0,0.123,0,0.248,0,0.371
						C28.241,265.831,28.241,265.706,28.339,265.583z"/>
					<path fill-rule="evenodd" clip-rule="evenodd" d="M22.827,265.954c-0.098-0.123-0.098-0.248,0-0.371
						C22.827,265.706,22.827,265.831,22.827,265.954z"/>
					<path fill-rule="evenodd" clip-rule="evenodd" d="M24.874,267.689c0.096,0.122,0.096,0.246,0,0.37
						C24.874,267.936,24.874,267.812,24.874,267.689z"/>
					<path fill-rule="evenodd" clip-rule="evenodd" d="M23.323,266.325c-0.141-0.078-0.023-0.209-0.063-0.311
						C23.401,266.095,23.284,266.226,23.323,266.325z"/>
					<path fill-rule="evenodd" clip-rule="evenodd" d="M22.827,265.149c-0.105-0.103-0.105-0.207,0-0.31
						C22.827,264.942,22.827,265.047,22.827,265.149z"/>
					<path fill-rule="evenodd" clip-rule="evenodd" d="M26.173,265.025c0.016-0.017,0.033-0.031,0.049-0.049
						c-0.014,0.098,0.084,0.219-0.049,0.296C26.173,265.191,26.173,265.109,26.173,265.025z"/>
					<path fill-rule="evenodd" clip-rule="evenodd" d="M24.562,266.015c-0.098-0.037-0.23,0.08-0.309-0.061
						C24.353,265.994,24.483,265.875,24.562,266.015z"/>
					<path fill-rule="evenodd" clip-rule="evenodd" d="M28.339,265.583c-0.098,0.123-0.098,0.248,0,0.371
						c0.129,0.126,0.291,0.034,0.434,0.061c0.043,0.24-0.023,0.355-0.295,0.316c-0.221-0.03-0.527,0.073-0.648-0.04
						c-0.146-0.134-0.041-0.44-0.047-0.673c-0.006-0.349,0.006-0.696-0.006-1.046c-0.002-0.129,0.025-0.176,0.166-0.17
						c0.275,0.013,0.553,0.004,0.83,0.004c0.045,0.236-0.023,0.367-0.293,0.313c-0.053-0.011-0.127-0.038-0.141,0.06
						c-0.104,0.144-0.104,0.288,0,0.432c0.033,0.131,0.143,0.066,0.201,0.057c0.219-0.034,0.256,0.077,0.232,0.254
						C28.63,265.55,28.468,265.456,28.339,265.583z"/>
				</g>
			</g>
			<g>
				<g>
					<path d="M142.282,268.023c-0.221-0.052-1.582-0.323-1.582-0.323c-0.088-0.028-0.186-0.048-0.268-0.088
						c-0.039-0.019-0.082-0.034-0.125-0.054l-0.064-0.028l-0.033-0.015l-0.008-0.003c-0.004,0-0.006-0.002-0.006-0.007l0.004-0.015
						l0.051-0.268c0.008-0.047,0.014-0.089,0.025-0.141l0.018-0.074l0.004-0.018l0.004-0.011l0.002-0.004l0.002-0.019l0.031-0.149
						c0.016-0.102,0.041-0.204,0.061-0.304c0.004-0.022,0.008-0.042,0.014-0.059c0.105-0.483,0.227-0.983,0.217-1.486l0.006-0.061
						l0.053-0.452l0.012-0.115l0.004-0.028l0.004-0.05l0.008-0.104c0.012-0.137,0.023-0.274,0.035-0.409
						c0.209,0,0.414,0,0.623,0.003c0.125,0.002,0.248,0,0.373-0.003h0.059c0.387-0.008,0.779-0.027,1.168,0.012
						c0.02,0,0.037,0.002,0.053,0.005c0.055,0.004,0.107,0.008,0.16,0.01c0.061-0.002,0.125-0.006,0.189-0.008
						c0.031,0,0.063-0.002,0.094-0.002s0.064,0,0.094,0h0.025c0.006,0,0.008,0,0.016,0.002l0.023,0.002l0.084,0.006
						c0.057,0.007,0.117,0.014,0.174,0.024c0.115,0.016,0.23,0.039,0.342,0.065c-0.004,0.124-0.014,0.253-0.023,0.378l-0.002,0.044
						l-0.006,0.041c-0.008,0.03-0.01,0.057-0.014,0.087c-0.006,0.026-0.012,0.055-0.016,0.083c-0.004,0.018-0.012,0.034-0.016,0.052
						l-0.004,0.063c-0.035,0.351-0.094,0.698-0.215,1.026c-0.008,0.022-0.012,0.042-0.016,0.063
						c-0.072,0.288-0.148,0.582-0.252,0.862c-0.105,0.281-0.24,0.556-0.424,0.799c-0.01,0.019-0.023,0.038-0.033,0.056
						c-0.115,0.176-0.24,0.344-0.377,0.504c-0.137,0.161-0.285,0.315-0.459,0.454c-0.018,0.012-0.037,0.028-0.055,0.039
						c-0.029,0.021-0.059,0.039-0.086,0.057c-0.029,0.018-0.057,0.038-0.082,0.055l-0.158,0.087
						c-0.053,0.033-0.105,0.061-0.158,0.089c-0.055,0.03-0.105,0.061-0.162,0.087c-0.213,0.113-0.436,0.211-0.662,0.292
						l-0.061,0.019c-0.213,0.072-0.428,0.138-0.648,0.194c0.012-0.002,0.012-0.002,0.025-0.006
						c-0.213,0.056-0.422,0.145-0.646,0.185c-0.021,0.002-0.043,0.006-0.063,0.01c-0.391,0.065-0.801,0.089-1.209,0.026
						l-0.063-0.013c-0.443-0.088-0.869-0.252-1.264-0.477c-0.023-0.011-0.039-0.024-0.059-0.034
						c-0.172-0.108-0.332-0.23-0.486-0.363c-0.154-0.135-0.299-0.276-0.428-0.433l-0.045-0.051
						c-0.117-0.135-0.227-0.273-0.332-0.421c-0.014-0.021-0.023-0.039-0.035-0.057c-0.064-0.128-0.115-0.261-0.156-0.398
						c-0.045-0.141-0.078-0.28-0.115-0.433c-0.006-0.023-0.008-0.048-0.01-0.071c-0.004-0.026-0.006-0.05-0.008-0.074
						c-0.002-0.013-0.004-0.028-0.004-0.041c-0.004-0.03-0.006-0.058-0.008-0.085c0-0.018,0-0.03,0.002-0.047
						c0.002-0.036,0.01-0.072,0.021-0.104c0.01-0.036,0.027-0.066,0.053-0.094c0.049-0.059,0.125-0.097,0.217-0.079
						c0.02,0.005,0.039,0.013,0.055,0.022c0.049,0.026,0.094,0.066,0.129,0.1c0.008,0.015,0.01,0.028,0.012,0.039
						c0.002,0.014,0.006,0.024,0.006,0.04c0.002,0.012,0.002,0.025,0.006,0.04c0.004,0.012,0.008,0.026,0.012,0.038l0.004,0.03
						c0.002,0.013,0.004,0.023,0.006,0.038c0.004,0.014,0.004,0.026,0.006,0.04c0.006,0.015,0.008,0.032,0.01,0.05
						c0.004,0.015,0.01,0.032,0.014,0.048c0.043,0.104,0.074,0.215,0.111,0.326c0.037,0.108,0.076,0.22,0.127,0.326l0.023,0.05
						c0.096,0.146,0.195,0.281,0.305,0.408c0.012,0.012,0.023,0.027,0.035,0.044c0.225,0.225,0.463,0.438,0.729,0.613
						c0.014,0.011,0.031,0.021,0.049,0.03c0.176,0.113,0.365,0.2,0.561,0.266c0.197,0.067,0.4,0.11,0.607,0.142
						c0.018,0.002,0.035,0.004,0.057,0.01c0.318,0.026,0.641,0.028,0.963-0.008l0.055-0.003c0.406-0.071,0.797-0.199,1.182-0.344
						l0.057-0.021c0.186-0.091,0.373-0.167,0.559-0.258c0.186-0.086,0.367-0.186,0.531-0.301c0.025-0.02,0.051-0.039,0.074-0.054
						c0.014-0.01,0.027-0.019,0.037-0.028c0.162-0.066,0.311-0.183,0.438-0.32c0.129-0.141,0.24-0.302,0.338-0.47
						c0.01-0.017,0.02-0.032,0.027-0.049c0.146-0.225,0.26-0.469,0.35-0.725c0.092-0.254,0.16-0.515,0.227-0.778
						c0.006-0.016,0.012-0.035,0.018-0.054c0.094-0.312,0.154-0.636,0.193-0.959l0.004-0.056l0.006-0.049l0.002-0.012l0.002-0.008
						l0.006-0.032c0.002-0.017,0.002-0.029,0.004-0.049c-0.014-0.005-0.027-0.007-0.045-0.013c-0.012,0-0.02-0.003-0.027-0.005
						l-0.102-0.01c-0.072-0.003-0.143-0.01-0.213-0.014l-0.217-0.013c-0.02,0-0.041,0-0.061,0c-0.385-0.018-0.773-0.026-1.162-0.03
						c-0.02-0.001-0.037-0.001-0.061-0.001c-0.121-0.019-0.238-0.028-0.363-0.03l-0.063-0.002c-0.01-0.002-0.02,0-0.029,0
						c-0.021,0.002-0.043,0.002-0.061,0.004v0.076v0.02v0.011v0.027c-0.004,0.036-0.004,0.077-0.006,0.114
						c-0.016,0.152-0.031,0.305-0.066,0.454c0,0-0.08,1.099-0.191,1.611c-0.006,0.021-0.008,0.041-0.012,0.062
						c-0.018,0.106-0.039,0.21-0.057,0.316c-0.01,0.053-0.021,0.109-0.031,0.161l-0.008,0.02v0.011c0,0.003,0,0.003,0,0.003v0.007
						c0,0.006,0,0.012,0,0.019v0.026v0.003l0,0l0.01,0.004c0.008,0,0.014,0,0.016,0.002l0.027,0.009c0,0,1.041,0.242,1.775,0.387
						c-0.045,0.076-0.32,0.405-0.373,0.445C142.292,268.025,142.286,268.028,142.282,268.023z"/>
					<path d="M142.616,264.248c-0.018,0-0.037,0-0.057-0.007c-0.166-0.029-0.277-0.189-0.246-0.358c0,0,0.143-1.258,0.242-1.305
						c0.119-0.052,1.248-0.374,1.248-0.374c0.164-0.051,0.334,0.041,0.383,0.204c0.053,0.165-0.041,0.337-0.205,0.385
						c0,0-0.838,0.22-0.889,0.27c-0.047,0.05-0.172,0.933-0.172,0.933C142.894,264.144,142.763,264.248,142.616,264.248z"/>
					<path d="M111.813,268.689c-0.027,0.034-0.025,0.096-0.029,0.112c-0.002,0.032,0,0.046,0.006,0.061
						c0.008,0.012,0.027,0.031,0.063,0.053c0.041,0.02,0.092,0.031,0.148,0.044c0.115,0.02,0.248,0.02,0.379,0.004
						c0.135-0.013,0.268-0.037,0.4-0.075c0.133-0.033,0.262-0.077,0.387-0.13c0.063-0.025,0.125-0.054,0.182-0.084
						c0.061-0.028,0.121-0.064,0.184-0.099c0.248-0.134,0.488-0.291,0.736-0.449c0.037-0.034,0.08-0.068,0.121-0.103
						c0.422-0.373,0.799-0.8,1.146-1.25c0.352-0.451,0.674-0.921,0.988-1.396c0.029-0.048,0.061-0.095,0.092-0.141
						c0.369-0.572,0.721-1.159,1.031-1.772c0.309-0.609,0.58-1.237,0.783-1.881l0.055-0.154c0.121-0.348,0.23-0.697,0.316-1.05
						c0.043-0.174,0.08-0.353,0.109-0.53c0.027-0.172,0.043-0.349,0.041-0.515c0-0.082-0.01-0.162-0.023-0.237
						c-0.012-0.074-0.037-0.134-0.063-0.177c-0.027-0.041-0.049-0.058-0.082-0.069c-0.018-0.009-0.027-0.009-0.037-0.009
						c-0.01,0.002-0.023,0.005-0.043,0.013c-0.033,0.02-0.082,0.065-0.125,0.124c-0.041,0.059-0.082,0.131-0.117,0.207
						c-0.074,0.152-0.131,0.321-0.178,0.498c-0.016,0.048-0.027,0.092-0.039,0.144c-0.121,0.489-0.186,1.004-0.232,1.519
						c-0.045,0.514-0.064,1.031-0.078,1.547c0,0.048-0.002,0.097-0.002,0.143c0,0.138,0,0.279,0.006,0.424
						c0.029,0.501,0.084,0.994,0.148,1.48c0.061,0.491,0.135,0.973,0.225,1.46l0.043,0.15c0.063,0.213,0.135,0.417,0.221,0.616
						c0.088,0.196,0.186,0.387,0.301,0.552c0.117,0.166,0.256,0.31,0.406,0.398c0.154,0.094,0.318,0.129,0.502,0.113
						c0.045-0.009,0.09-0.018,0.135-0.028c0.16-0.044,0.32-0.118,0.473-0.213c0.152-0.094,0.299-0.207,0.438-0.328
						c0.281-0.246,0.539-0.526,0.781-0.821c0.484-0.59,0.916-1.231,1.338-1.875l0.084-0.144c0.541-0.906,1.021-1.861,1.416-2.839
						c0.021-0.054,0.041-0.106,0.064-0.158c0.24-0.59,0.461-1.189,0.648-1.793c0.189-0.604,0.361-1.21,0.475-1.816l0.027-0.154
						c0.049-0.278,0.08-0.562,0.07-0.83c-0.008-0.134-0.021-0.263-0.063-0.365c-0.02-0.051-0.041-0.095-0.066-0.116
						c-0.023-0.026-0.041-0.039-0.076-0.046c0.016,0.002,0.016,0.002,0.025,0.007c-0.012-0.005-0.027-0.009-0.043-0.009
						c-0.01-0.002-0.018,0-0.027-0.002c-0.006,0.002-0.012,0-0.016,0.002c-0.021,0.004-0.053,0.02-0.09,0.048
						c-0.066,0.061-0.139,0.167-0.197,0.276c-0.117,0.23-0.205,0.493-0.283,0.761c-0.02,0.052-0.031,0.103-0.047,0.15
						c-0.131,0.478-0.225,0.972-0.303,1.469c-0.076,0.496-0.137,0.997-0.188,1.501l-0.018,0.158
						c-0.111,1.111-0.164,2.223-0.119,3.349c0,0.056,0,0.11,0.004,0.163c0.016,0.502,0.051,1,0.115,1.493
						c0.063,0.496,0.148,0.985,0.283,1.457c0.014,0.052,0.033,0.102,0.049,0.15c0.066,0.199,0.143,0.391,0.234,0.571
						c0.092,0.177,0.205,0.343,0.33,0.463c0.031,0.026,0.059,0.057,0.09,0.081c0.096,0.08,0.193,0.126,0.301,0.143
						c0.055,0.005,0.111,0.004,0.174-0.004c0.031-0.002,0.055-0.013,0.08-0.018c0.006-0.003,0.012-0.005,0.02-0.007l0.018-0.011
						l0.039-0.013c0.104-0.053,0.203-0.147,0.277-0.259c0.078-0.115,0.129-0.25,0.15-0.388c0.006-0.047,0.018-0.089,0.02-0.132
						c0-0.043,0.006-0.089,0.006-0.133c-0.002-0.024-0.006-0.05-0.006-0.074l-0.01-0.074l-0.018-0.073
						c-0.004-0.025-0.006-0.054-0.012-0.08c-0.047-0.236-0.131-0.455-0.051-0.653c0.01-0.019,0.023-0.032,0.035-0.043
						c0.045-0.033,0.104-0.037,0.182,0.015c0.027,0.032,0.057,0.068,0.084,0.109c0.027,0.039,0.049,0.083,0.072,0.129
						c0.051,0.091,0.084,0.191,0.125,0.279c0.014,0.036,0.02,0.074,0.029,0.111l0.031,0.14c0.008,0.05,0.012,0.098,0.018,0.146
						c0.008,0.061,0.006,0.121,0.006,0.183l-0.002,0.091c-0.004,0.03-0.008,0.061-0.012,0.09c-0.035,0.401-0.244,0.797-0.607,1.032
						c-0.09,0.058-0.191,0.102-0.303,0.133c-0.105,0.025-0.209,0.035-0.32,0.031c-0.221-0.008-0.436-0.095-0.6-0.219
						c-0.053-0.038-0.102-0.08-0.146-0.122c-0.211-0.201-0.355-0.434-0.473-0.671c-0.115-0.237-0.203-0.479-0.275-0.724
						c-0.016-0.057-0.033-0.109-0.049-0.166c-0.135-0.462-0.221-0.935-0.281-1.408c-0.061-0.472-0.098-0.945-0.115-1.423
						l-0.006-0.167c-0.043-1.252-0.014-2.479,0.105-3.709c0.004-0.057,0.01-0.112,0.018-0.169c0.045-0.475,0.104-0.944,0.182-1.414
						c0.08-0.467,0.176-0.931,0.309-1.393c0.016-0.055,0.033-0.109,0.049-0.164c0.086-0.291,0.182-0.582,0.33-0.869
						c0.076-0.142,0.164-0.287,0.299-0.424c0.07-0.069,0.158-0.137,0.277-0.181c0.061-0.023,0.127-0.037,0.193-0.039
						c0.033,0,0.057,0.002,0.088,0.004c0.031,0.007,0.061,0.009,0.09,0.016c0.063,0.015,0.121,0.041,0.178,0.071
						c0.055,0.033,0.107,0.074,0.143,0.12c0.088,0.089,0.135,0.183,0.172,0.272c0.068,0.183,0.088,0.354,0.098,0.517
						c0.018,0.326-0.016,0.633-0.063,0.933l-0.027,0.172c-0.092,0.596-0.25,1.166-0.426,1.724c-0.176,0.56-0.375,1.107-0.576,1.653
						c-0.031,0.098-0.066,0.193-0.107,0.291c-0.02,0.046-0.041,0.096-0.061,0.142c-0.5,1.023-1.006,2.041-1.582,3.03
						c-0.025,0.043-0.053,0.092-0.08,0.14c-0.412,0.654-0.84,1.3-1.332,1.904c-0.25,0.298-0.516,0.591-0.816,0.852
						c-0.152,0.133-0.314,0.255-0.488,0.365c-0.174,0.111-0.365,0.207-0.576,0.268c-0.061,0.02-0.123,0.032-0.188,0.048
						c-0.131,0.02-0.277,0.026-0.42,0.006c-0.141-0.019-0.283-0.064-0.408-0.13c-0.254-0.128-0.445-0.325-0.6-0.53
						c-0.152-0.206-0.268-0.427-0.369-0.649c-0.098-0.223-0.178-0.452-0.248-0.681c-0.016-0.055-0.033-0.109-0.045-0.164
						c-0.152-0.58-0.242-1.162-0.305-1.745c-0.063-0.582-0.088-1.168-0.092-1.75c0-0.057,0-0.11,0-0.17
						c0.002-0.534,0.025-1.071,0.076-1.609c0.055-0.536,0.131-1.071,0.27-1.605c0.01-0.051,0.027-0.105,0.043-0.161
						c0.063-0.181,0.133-0.365,0.225-0.546c0.049-0.093,0.1-0.183,0.166-0.273c0.064-0.086,0.145-0.177,0.264-0.246
						c0.061-0.037,0.133-0.061,0.209-0.072c0.074-0.011,0.156-0.002,0.223,0.018c0.033,0.011,0.066,0.018,0.1,0.035
						c0.031,0.02,0.064,0.035,0.092,0.059c0.029,0.022,0.059,0.043,0.078,0.071c0.025,0.026,0.047,0.052,0.066,0.078
						c0.074,0.107,0.115,0.225,0.137,0.331c0.008,0.028,0.014,0.054,0.016,0.08c0.004,0.028,0.01,0.054,0.014,0.078
						c0.006,0.052,0.012,0.106,0.014,0.159c0.006,0.204-0.006,0.4-0.029,0.596c-0.025,0.191-0.064,0.381-0.107,0.569
						c-0.084,0.37-0.201,0.733-0.338,1.087l-0.059,0.154c-0.191,0.685-0.467,1.342-0.781,1.975
						c-0.316,0.633-0.676,1.241-1.059,1.833c-0.033,0.048-0.063,0.097-0.096,0.146c-0.309,0.48-0.637,0.961-0.996,1.42
						c-0.361,0.461-1.15,1.258-1.334,1.399c-0.592,0.452-0.965,0.723-1.789,0.987c-0.188,0.042-0.559,0.076-0.76,0.059
						c-0.102-0.006-0.207-0.028-0.313-0.066s-0.213-0.097-0.307-0.201c-0.021-0.021-0.045-0.054-0.064-0.082
						c-0.018-0.028-0.031-0.063-0.047-0.094c-0.01-0.032-0.02-0.07-0.027-0.103c-0.002-0.034-0.002-0.066-0.002-0.098
						c0.006-0.129,0.059-0.228,0.113-0.306c0.121-0.148,0.305-0.381,0.447-0.279C111.972,268.368,111.983,268.465,111.813,268.689z"
						/>
					<path d="M126.995,268.631c0.086,0.117,0.309,0.271,0.357,0.304c0.051,0.032,0.287,0.063,0.34,0.065
						c0.047,0.002,0.098-0.009,0.127-0.041l0.008-0.005c0.043-0.039,0.053-0.096,0.102-0.147l0.006-0.011
						c0.004-0.009,0.055-0.194,0.057-0.274c0-0.002-0.002-0.015-0.002-0.015c-0.004-0.076-0.02-0.148-0.006-0.23
						c-0.002-0.007-0.002-0.012-0.004-0.014c-0.027-0.064-0.063-0.125-0.1-0.183c-0.033-0.063-0.064-0.125-0.074-0.204l-0.008-0.02
						c-0.047-0.09-0.105-0.183-0.193-0.248c-0.004-0.002-0.006-0.008-0.012-0.015c-0.092-0.092-0.203-0.168-0.293-0.274
						l-0.012-0.015c-0.037-0.05-0.082-0.103-0.127-0.15c0,0.005,0,0.005,0.002,0.007c-0.043-0.048-0.117-0.07-0.172-0.127
						l-0.014-0.017c-0.023-0.026-0.049-0.05-0.07-0.079l-0.033-0.047c-0.01-0.02-0.021-0.035-0.033-0.06
						c-0.012-0.021-0.021-0.046-0.029-0.071c-0.008-0.021-0.016-0.048-0.02-0.073c-0.016-0.048-0.01-0.101-0.01-0.152l0.006-0.028
						c0.004-0.01,0.008-0.024,0.008-0.03c0.012-0.048,0.033-0.103,0.059-0.154c0.025-0.053,0.057-0.099,0.096-0.14
						c0.037-0.043,0.082-0.076,0.131-0.106c0.047-0.028,0.098-0.051,0.154-0.065c0.008-0.002,0.021-0.002,0.033-0.007
						c0.049-0.007,0.1-0.011,0.148-0.007c0.053,0.005,0.088,0.012,0.129,0.016c0.074,0.019,0.146,0.039,0.211,0.063l0.021,0.007
						c0.191,0.059,0.41,0.222,0.453,0.271c0.023,0.028,0.021,0.215-0.115,0.28c-0.121,0.059-0.391-0.063-0.545-0.124
						c-0.039-0.013-0.133-0.03-0.227,0.026c-0.008,0.013-0.008,0.021-0.012,0.046l0,0l-0.002,0.002
						c0.004,0.011,0.01,0.018,0.012,0.028c0.002,0,0.004,0.006,0.006,0.013l0.01,0.02c0.006,0.014,0.018,0.028,0.027,0.046
						l0.008,0.011c0.076,0.071,0.174,0.144,0.26,0.234l0.014,0.012c0.311,0.265,0.451,0.537,0.529,0.649l0.012,0.017
						c0.076,0.168,0.197,0.323,0.256,0.514l0.006,0.02c0.018,0.118,0.033,0.241,0.037,0.361v0.022
						c-0.006,0.04-0.01,0.076-0.018,0.114c-0.006,0.035-0.012,0.074-0.021,0.108c-0.01,0.038-0.016,0.07-0.025,0.108
						c-0.014,0.04-0.021,0.076-0.037,0.116c-0.006,0.006-0.01,0.013-0.014,0.021c-0.025,0.069-0.07,0.139-0.119,0.203
						c-0.053,0.064-0.113,0.121-0.186,0.167l-0.021,0.01c-0.119,0.027-0.219,0.062-0.324,0.084
						c-0.102,0.022-0.521-0.026-0.605-0.068c-0.082-0.044-0.152-0.106-0.221-0.169l-0.016-0.012
						c-0.119-0.086-0.254-0.176-0.334-0.319c-0.004-0.004-0.004-0.011-0.01-0.018c0.049-0.084,0.043-0.124,0.008-0.162
						c-0.016-0.016-0.037-0.036-0.057-0.053c-0.023-0.018-0.051-0.035-0.068-0.056c-0.021-0.021-0.037-0.046-0.041-0.068
						c-0.004-0.026,0.002-0.054,0.021-0.08c0.041-0.053,0.15-0.104,0.357-0.133C126.854,268.337,126.929,268.55,126.995,268.631z"/>
					<path d="M128.749,268.706c0.045,0.026,0.227,0.164,0.281,0.189c0.051,0.03,0.225,0.072,0.299,0.055
						c0.049-0.006,0.139-0.05,0.166-0.087l0.006-0.005c0.01-0.011,0.014-0.028,0.023-0.039c0.002-0.018,0.012-0.025,0.016-0.043
						c0.004-0.009,0.006-0.018,0.01-0.022c0.002-0.008,0.006-0.017,0.008-0.026c0.01-0.012,0.014-0.032,0.023-0.048l0.006-0.008
						c0.004-0.011,0.01-0.026,0.014-0.037c0.01-0.041,0.021-0.147,0.021-0.267c-0.002-0.062-0.006-0.16-0.043-0.233
						c-0.027-0.065-0.096-0.17-0.15-0.243c-0.09-0.122-0.266-0.298-0.367-0.35c-0.006-0.006-0.01-0.008-0.014-0.012
						c-0.117-0.082-0.246-0.15-0.355-0.259l-0.012-0.017c-0.051-0.054-0.303-0.289-0.328-0.324
						c-0.063-0.091-0.098-0.161-0.123-0.243c-0.021-0.083-0.041-0.164-0.029-0.261l0.002-0.03c0.012-0.054,0.029-0.116,0.053-0.168
						c0.029-0.053,0.061-0.104,0.102-0.146c0.074-0.089,0.178-0.147,0.289-0.181c0.014-0.004,0.023-0.006,0.035-0.008
						c0.098-0.021,0.184-0.018,0.27-0.005c0.084,0.013,0.162,0.035,0.236,0.066l0.023,0.008c0.066,0.026,0.189,0.103,0.25,0.146
						c0.186,0.13,0.188,0.338,0.074,0.463c-0.012,0.012-0.049,0.072-0.168,0.07c-0.055-0.002-0.186-0.131-0.281-0.188
						c-0.033-0.021-0.076-0.027-0.107-0.043l-0.01-0.003c-0.07-0.004-0.17-0.021-0.211,0.014c-0.004,0.005-0.006,0.013-0.008,0.021
						c-0.002,0.007-0.002,0.009-0.002,0.023c0,0.005,0,0.007,0,0.008c-0.002,0.089,0.006,0.13,0.049,0.181
						c0.057,0.066,0.139,0.132,0.227,0.208c0,0,0.164,0.106,0.309,0.231c0.031,0.026,0.217,0.23,0.316,0.325l0.016,0.014
						c0.055,0.079,0.125,0.146,0.189,0.223c0.064,0.074,0.133,0.154,0.18,0.251l0.01,0.021c0.037,0.124,0.074,0.246,0.088,0.375
						l0.004,0.023c0,0.159-0.02,0.312-0.055,0.454c-0.002,0.01-0.006,0.016-0.008,0.026c-0.039,0.144-0.115,0.3-0.244,0.417
						l-0.018,0.016c-0.117,0.048-0.213,0.103-0.318,0.137c-0.104,0.037-0.541,0.035-0.633,0c-0.088-0.034-0.168-0.093-0.242-0.147
						l-0.02-0.011c-0.127-0.076-0.273-0.155-0.367-0.287c-0.004-0.005-0.008-0.013-0.01-0.021c0.035-0.086,0.023-0.128-0.012-0.162
						c-0.037-0.03-0.096-0.055-0.141-0.091c-0.021-0.018-0.039-0.038-0.051-0.06c-0.006-0.024-0.004-0.052,0.012-0.08
						c0.033-0.059,0.131-0.129,0.334-0.191C128.438,268.324,128.522,268.553,128.749,268.706z"/>
					<path d="M137.188,257.849c-0.125-0.025-0.568-0.052-1.205,0.246c-0.461,0.215-0.861,0.443-1.125,0.656
						c-0.264,0.217-0.508,0.457-0.756,0.694c-0.021,0.021-0.045,0.044-0.066,0.066c-0.58,0.575-1.127,1.226-1.477,1.977
						l-0.051,0.087c-0.225,0.39-0.436,0.787-0.621,1.198c-0.188,0.411-0.354,0.835-0.467,1.27l-0.023,0.093
						c-0.018,0.076-0.037,0.15-0.055,0.225c-0.016,0.076-0.029,0.152-0.043,0.227l-0.018,0.11l-0.01,0.11
						c-0.008,0.072-0.012,0.15-0.02,0.223c-0.012,0.305-0.004,0.604,0.023,0.902c0.006,0.028,0.008,0.055,0.014,0.08
						c0.004,0.043,0.01,0.081,0.016,0.122c0.01,0.041,0.018,0.08,0.027,0.121c0.084,0.281,0.195,0.542,0.32,0.797
						c0.125,0.252,0.262,0.497,0.404,0.75l0.061,0.068c0.34,0.388,0.766,0.684,1.232,0.9c0.031,0.014,0.061,0.022,0.09,0.035
						c0.211,0.065,0.428,0.113,0.648,0.136c0.221,0.021,0.441,0.024,0.664,0.008c0.057-0.002,0.113-0.012,0.172-0.016
						c0.053-0.004,0.109-0.009,0.162-0.019l0.168-0.024c0.055-0.009,0.107-0.021,0.162-0.033c0.053-0.011,0.107-0.017,0.16-0.032
						l0.158-0.042l0.082-0.021c0.025-0.01,0.051-0.018,0.078-0.028l0.156-0.05c0.031-0.012,0.059-0.028,0.088-0.04
						c0.277-0.124,0.535-0.297,0.777-0.498c0.119-0.096,0.227-0.206,0.338-0.316l0.154-0.177c0.053-0.061,0.098-0.122,0.145-0.185
						c0.023-0.026,0.045-0.052,0.064-0.078c0.459-0.605,0.793-1.303,1.09-1.998l0.037-0.09c0.137-0.325,0.256-0.66,0.352-1.004
						c-0.004,0.02-0.004,0.02-0.006,0.037c0.092-0.332,0.131-0.681,0.186-1.021c0.008-0.033,0.012-0.066,0.018-0.097
						c0.047-0.302,0.082-0.602,0.094-0.899c0.006-0.146,0.01-0.292,0-0.431c-0.014-0.141-0.023-0.287-0.053-0.428l-0.01-0.088
						c-0.053-0.311-0.148-0.612-0.293-0.883c-0.146-0.271-0.346-0.513-0.59-0.704c-0.021-0.02-0.045-0.041-0.068-0.059
						c-0.438-0.337-0.996-0.503-1.563-0.495l-0.092,0.002c-0.242,0.019-0.484,0.071-0.717,0.152l-0.084,0.024l-0.072,0.021
						l-0.068,0.021l-0.137,0.044l-0.139,0.048c-0.045,0.017-0.09,0.035-0.135,0.055l-0.133,0.063
						c-0.047,0.022-0.086,0.044-0.131,0.07c-0.09,0.044-0.168,0.106-0.248,0.164c-0.027,0.019-0.051,0.038-0.074,0.057l-0.076,0.053
						l-0.039,0.033c-0.025,0.02-0.051,0.045-0.074,0.068l-0.041,0.036c-0.129,0.098-0.256,0.178-0.459,0.102
						c-0.02-0.009-0.035-0.02-0.053-0.035c-0.047-0.039-0.084-0.095-0.084-0.167c0.039-0.104,0.133-0.202,0.201-0.298l0.049-0.048
						l0.059-0.06l0.064-0.058l0.078-0.068c0.027-0.024,0.051-0.049,0.078-0.068c0.176-0.152,0.367-0.281,0.576-0.377
						c0.1-0.052,0.209-0.091,0.316-0.135c0.053-0.018,0.107-0.032,0.162-0.052c0.055-0.015,0.105-0.035,0.164-0.048l0.104-0.028
						c0.311-0.101,0.639-0.154,0.963-0.163c0.039-0.002,0.076-0.002,0.113-0.002c0.619-0.014,1.264,0.174,1.783,0.552
						c0.029,0.022,0.063,0.042,0.09,0.068c0.334,0.258,0.613,0.58,0.818,0.94c0.201,0.361,0.332,0.755,0.398,1.154
						c0.006,0.033,0.012,0.074,0.02,0.107c0.014,0.077,0.02,0.154,0.027,0.233c0.01,0.074,0.02,0.152,0.02,0.233
						c0.008,0.157,0,0.311-0.01,0.463c-0.023,0.301-0.068,0.594-0.119,0.883l-0.02,0.104c-0.121,0.731-0.305,1.45-0.576,2.142
						l-0.039,0.101c-0.119,0.352-0.275,0.687-0.449,1.011c-0.174,0.325-0.367,0.641-0.566,0.956
						c-0.037,0.055-0.074,0.111-0.113,0.163c-0.02,0.028-0.041,0.053-0.063,0.079c-0.254,0.265-0.525,0.515-0.814,0.746
						s-0.6,0.438-0.936,0.602l-0.1,0.043l-0.178,0.069c-0.059,0.022-0.123,0.037-0.18,0.057c-0.061,0.02-0.121,0.04-0.184,0.054
						l-0.186,0.042c-0.248,0.059-0.488,0.087-0.74,0.106c-0.248,0.018-0.5,0.013-0.75-0.009c-0.252-0.03-0.502-0.083-0.744-0.161
						c-0.033-0.013-0.07-0.026-0.104-0.036c-0.568-0.23-1.088-0.592-1.494-1.058l-0.074-0.082c-0.477-0.604-0.773-1.328-0.893-2.068
						c-0.006-0.036-0.014-0.072-0.016-0.108c-0.053-0.343-0.061-0.688-0.035-1.034c0.006-0.085,0.012-0.172,0.023-0.258l0.018-0.132
						l0.027-0.128c0.012-0.087,0.033-0.167,0.051-0.25c0.025-0.084,0.041-0.167,0.066-0.248c0.008-0.032,0.018-0.064,0.027-0.099
						c0.172-0.438,0.328-0.877,0.502-1.313c0.178-0.433,0.529-0.997,0.693-1.334c0.191-0.398,0.395-0.792,0.658-1.146
						c0.262-0.353,0.564-0.682,0.877-0.994c0.025-0.026,0.051-0.053,0.074-0.076c0.252-0.256,0.514-0.513,0.803-0.741
						c0.93-0.596,1.941-0.937,2.002-0.961c0.113-0.048,0.234-0.088,0.361-0.114c0.125-0.022,0.262-0.032,0.396-0.008
						c0.137,0.026,0.273,0.08,0.389,0.185c0.059,0.05,0.113,0.116,0.146,0.194c0.035,0.078,0.057,0.175,0.033,0.267
						c-0.021,0.091-0.088,0.161-0.156,0.177C137.521,258.039,137.251,257.862,137.188,257.849z"/>
					<path d="M126.325,266.48c0.002,0.022,0.012,0.048,0.018,0.074c0.004,0.017,0.008,0.028,0.008,0.043
						c-0.018,0.109-0.072,0.166-0.125,0.22c-0.111,0.055-0.273,0-0.336-0.162c-0.004-0.01-0.008-0.021-0.01-0.034
						c-0.006-0.015-0.117-0.371,0.125-0.459c0.016-0.006,0.029-0.01,0.043-0.01c0.066-0.011,0.123,0.02,0.168,0.069
						C126.224,266.232,126.323,266.467,126.325,266.48z"/>
				</g>
			</g>
			<g>
				<path d="M140.595,286.988c-1.232,1.045-1.166,2.299-2.953,2.84c-1.688,0.51-3.678-0.008-3.885-2.021
					c-0.088-0.863,0.119-1.771,0.26-2.616c0.064-0.394-0.309-0.764-0.699-0.537c-1.955,1.134-3.275,3.004-5.102,4.3
					c-1.711,1.213-3.736,0.661-5.215-0.646c-1.574-1.391-0.834-3.64,0.025-5.145c0.275-0.483-0.35-0.93-0.748-0.576
					c-2.969,2.648-6.342,4.772-10.018,6.3c-1.193,0.497-2.533,0.853-3.814,1.007c-3.025,0.363-2.664-2.622-2.379-4.584
					c0.08-0.544-0.535-0.807-0.869-0.366c-2.02,2.667-4.854,4.419-8.061,5.298c-1.654,0.452-3.373,0.452-5.043,0.125
					c-1.932-0.38-2.34-1.801-1.984-3.197c0.506-0.624,0.902-1.313,1.092-2.098c0.104-0.429-0.475-0.852-0.795-0.462
					c-0.57,0.691-0.98,1.425-1.195,2.211c-1.83,2.146-5.379,3.418-7.705,4.111c-2.289,0.683-4.734,0.82-7.049,0.215
					c-2.693-0.705-2.643-3.154-1.098-4.604c0.455-0.286,0.9-0.565,1.33-0.83c0.441-0.272,0.148-1.081-0.367-0.87
					c-0.039,0.017-0.07,0.037-0.109,0.055c-0.002-0.002-0.002-0.004-0.004-0.006c-0.018,0.011-0.037,0.023-0.057,0.034
					c-0.551,0.244-1.018,0.533-1.398,0.855c-2.566,1.557-5.18,3.019-8.031,4.001c-1.891,0.651-3.875,0.907-5.844,0.506
					c-2.846-0.58-0.375-3.557,0.402-4.627c0.281-0.39-0.268-0.903-0.65-0.65c-2.889,1.892-5.521,4.228-8.789,5.464
					c-1.963,0.743-4.045,0.664-6.037,0.102c-3.016-0.854-2.33-3.566-0.936-5.51c0.277-0.387-0.266-0.913-0.65-0.65
					c-3.977,2.703-7.598,6.003-12.494,6.85c-0.604,0.104-0.348,1.021,0.254,0.918c4.303-0.746,7.646-3.336,11.09-5.804
					c-0.986,2.662,0.445,4.764,3.879,5.446c4.637,0.922,8.482-1.97,12.098-4.562c-0.398,0.747-0.65,1.534-0.424,2.223
					c0.504,1.527,2.045,1.796,3.486,1.948c3.887,0.41,7.9-1.634,11.41-3.755c-0.539,2.084,1.066,4.371,4.189,4.702
					c3.434,0.364,6.656-0.537,9.756-1.957c1.182-0.541,2.496-1.252,3.584-2.169c0.01,0.266,0.033,0.536,0.088,0.814
					c0.371,1.879,2.574,2.24,4.127,2.438c4.26,0.542,8.688-1.675,11.623-4.757c-0.133,1.05-0.129,2.093,0.467,3.021
					c0.754,1.174,2.563,1.21,3.762,0.989c4.51-0.832,8.736-3.298,12.309-6.202c-0.658,2.522,0.438,4.717,3.326,5.839
					c3.338,1.296,5.779-2.386,8.172-4.308c-0.23,1.783-0.232,3.975,1.701,4.594c1.316,0.421,2.572,0.271,3.879-0.125
					c1.66-0.501,1.574-1.891,2.766-2.9C141.735,287.264,141.058,286.595,140.595,286.988z"/>
				<path d="M137.501,296.939c-2.314,2.278-9.857,4.636-9.652-0.774c0.02-0.539-0.805-0.645-0.936-0.126
					c-0.938,3.731-4.934,5.204-8.443,5.049c-2.42-0.107-4.854-1.458-4.434-4.185c0.203-1.321,0.676-2.57,0.809-3.909
					c0.043-0.417-0.545-0.625-0.813-0.336c-3.031,3.296-6.502,6.087-11.08,6.679c-1.949,0.252-7.512,0.244-6.518-2.887
					c0.172-0.541-0.576-0.789-0.869-0.365c-2.447,3.538-6.705,5.038-10.881,4.952c-1.51-0.032-3.871-0.234-4.725-1.7
					c-0.568-0.975-0.635-2.387-0.967-3.456c-0.104-0.329-0.543-0.481-0.797-0.21c-3.428,3.688-7.389,5.328-12.414,5.026
					c-3.486-0.209-11.451-2.131-7.367-6.891c0.389-0.466-0.271-1.142-0.674-0.673c-2.857,3.421-6.477,5.701-10.842,6.658
					c-2.184,0.479-4.48,0.479-6.672,0.084c-1.121-0.2-2.234-0.604-2.938-1.568c-0.955-1.314,1.01-3.564,1.695-4.598
					c0.271-0.409-0.254-0.88-0.65-0.65c-2.906,1.673-5.428,3.654-8.896,3.95c-1.404,0.121-6.621,0.813-7.215-0.971
					c-0.193-0.579-1.111-0.331-0.918,0.253c0.734,2.203,4.68,1.816,6.434,1.769c1.574-0.044,3.119-0.192,4.635-0.638
					c1.65-0.487,3.139-1.451,4.605-2.399c-0.789,1.325-1.262,2.731-0.209,4.178c1.113,1.53,3.584,1.704,5.291,1.88
					c5.256,0.541,10.453-1.659,14.305-5.154c-0.271,2.732,3.064,4.493,6.25,5.271c5.924,1.448,11.436-0.083,15.67-4.263
					c0.275,1.179,0.467,2.448,1.199,3.397c1.004,1.305,3.088,1.438,4.576,1.612c4.115,0.483,8.541-1.109,11.342-4.16
					c0.477,2.089,3.754,2.49,5.813,2.55c4.975,0.145,9.039-2.512,12.41-5.883c-0.391,1.632-0.955,3.262-0.34,4.89
					c0.637,1.679,3.035,2.478,4.648,2.643c3.49,0.356,7.457-0.92,9.209-3.996c1.383,4.063,8.432,2.181,11.031-0.376
					C138.612,297.181,137.938,296.509,137.501,296.939z"/>
			</g>
		</g>
		<g>
			<path d="M21.421,221.938c0-1.594,0.271-2.803,0.816-3.627s1.336-1.236,2.371-1.236c1.973,0,2.959,1.549,2.959,4.646
				c0,1.516-0.27,2.684-0.809,3.504s-1.32,1.23-2.344,1.23c-0.988,0-1.734-0.387-2.238-1.16S21.421,223.403,21.421,221.938z
				 M22.821,221.886c0,2.313,0.561,3.469,1.682,3.469c1.105,0,1.658-1.18,1.658-3.539c0-2.422-0.541-3.633-1.623-3.633
				C23.394,218.183,22.821,219.417,22.821,221.886z"/>
			<path d="M34.759,224.909c0.504,0.297,1.053,0.445,1.646,0.445c0.793,0,1.402-0.301,1.828-0.902s0.639-1.445,0.639-2.531
				c-0.012,0-0.021-0.002-0.029-0.006c-0.395,0.711-1.047,1.066-1.957,1.066c-0.77,0-1.398-0.268-1.889-0.803
				s-0.736-1.205-0.736-2.01c0-0.906,0.279-1.648,0.836-2.227s1.281-0.867,2.176-0.867c0.941,0,1.672,0.363,2.189,1.09
				s0.775,1.758,0.775,3.094c0,1.625-0.326,2.897-0.979,3.817s-1.586,1.38-2.801,1.38c-0.652,0-1.219-0.105-1.699-0.316V224.909z
				 M35.632,220.017c0,0.563,0.145,1.011,0.432,1.345s0.684,0.501,1.191,0.501c0.441,0,0.811-0.152,1.105-0.457
				s0.441-0.678,0.441-1.119c0-0.582-0.145-1.078-0.436-1.488s-0.684-0.615-1.176-0.615c-0.457,0-0.83,0.178-1.121,0.533
				S35.632,219.505,35.632,220.017z"/>
			<path d="M52.933,226.304h-5.344v-1.148h1.986v-6.557l-2.039,0.551v-1.207l3.416-0.896v8.109h1.98V226.304z"/>
			<path d="M61.784,221.534c-1.074-0.48-1.611-1.199-1.611-2.156c0-0.691,0.268-1.248,0.803-1.67s1.197-0.633,1.986-0.633
				c0.738,0,1.357,0.197,1.859,0.592s0.754,0.92,0.754,1.576c0,1-0.566,1.762-1.699,2.285v0.023c1.313,0.469,1.969,1.27,1.969,2.402
				c0,0.797-0.287,1.413-0.861,1.849s-1.342,0.653-2.303,0.653c-0.813,0-1.484-0.219-2.016-0.656s-0.797-1.02-0.797-1.746
				c0-1.137,0.639-1.969,1.916-2.496V221.534z M62.792,222.149c-1.051,0.418-1.576,1.029-1.576,1.834
				c0,0.422,0.156,0.761,0.469,1.017s0.711,0.384,1.195,0.384c0.473,0,0.859-0.125,1.162-0.375s0.455-0.586,0.455-1.008
				C64.497,223.169,63.929,222.552,62.792,222.149z M64.222,219.384c0-0.379-0.121-0.679-0.361-0.899s-0.561-0.331-0.963-0.331
				c-0.383,0-0.707,0.117-0.971,0.352s-0.395,0.525-0.395,0.873c0,0.711,0.445,1.248,1.336,1.611
				C63.771,220.614,64.222,220.079,64.222,219.384z"/>
			<path d="M78.509,226.304h-5.344v-1.148h1.986v-6.557l-2.039,0.551v-1.207l3.416-0.896v8.109h1.98V226.304z"/>
			<path d="M91.433,217.767l-3.463,8.537h-1.436l3.34-7.893h-4.453v-1.184h6.012V217.767z"/>
			<path d="M104.222,217.767l-3.463,8.537h-1.436l3.34-7.893H98.21v-1.184h6.012V217.767z"/>
			<path d="M111.491,224.909c0.504,0.297,1.053,0.445,1.646,0.445c0.793,0,1.402-0.301,1.828-0.902s0.639-1.445,0.639-2.531
				c-0.012,0-0.021-0.002-0.029-0.006c-0.395,0.711-1.047,1.066-1.957,1.066c-0.77,0-1.4-0.268-1.891-0.803s-0.734-1.205-0.734-2.01
				c0-0.906,0.277-1.648,0.834-2.227s1.283-0.867,2.178-0.867c0.941,0,1.67,0.363,2.188,1.09s0.777,1.758,0.777,3.094
				c0,1.625-0.326,2.897-0.979,3.817s-1.586,1.38-2.801,1.38c-0.652,0-1.219-0.105-1.699-0.316V224.909z M112.364,220.017
				c0,0.563,0.143,1.011,0.43,1.345s0.686,0.501,1.193,0.501c0.441,0,0.809-0.152,1.104-0.457s0.443-0.678,0.443-1.119
				c0-0.582-0.146-1.078-0.438-1.488s-0.682-0.615-1.174-0.615c-0.457,0-0.832,0.178-1.123,0.533S112.364,219.505,112.364,220.017z"
				/>
			<path d="M129.499,226.304h-5.643v-1.148l2.631-2.59c0.586-0.574,1.02-1.07,1.299-1.488s0.418-0.873,0.418-1.365
				c0-1.004-0.531-1.506-1.594-1.506c-0.797,0-1.563,0.334-2.297,1.002v-1.324c0.738-0.539,1.586-0.809,2.543-0.809
				c0.832,0,1.496,0.222,1.99,0.665s0.74,1.05,0.74,1.819c0,0.555-0.156,1.106-0.469,1.655s-0.857,1.198-1.635,1.948l-2.016,1.922
				v0.029h4.031V226.304z"/>
			<path d="M142.587,217.767l-3.463,8.537h-1.436l3.34-7.893h-4.453v-1.184h6.012V217.767z"/>
		</g>
		<g>
			<path d="M21.421,236.688c0-1.594,0.271-2.803,0.816-3.627s1.336-1.236,2.371-1.236c1.973,0,2.959,1.549,2.959,4.646
				c0,1.516-0.27,2.684-0.809,3.504s-1.32,1.23-2.344,1.23c-0.988,0-1.734-0.387-2.238-1.16S21.421,238.153,21.421,236.688z
				 M22.821,236.636c0,2.313,0.561,3.469,1.682,3.469c1.105,0,1.658-1.18,1.658-3.539c0-2.422-0.541-3.633-1.623-3.633
				C23.394,232.933,22.821,234.167,22.821,236.636z"/>
			<path d="M34.759,239.659c0.504,0.297,1.053,0.445,1.646,0.445c0.793,0,1.402-0.301,1.828-0.902s0.639-1.445,0.639-2.531
				c-0.012,0-0.021-0.002-0.029-0.006c-0.395,0.711-1.047,1.066-1.957,1.066c-0.77,0-1.398-0.268-1.889-0.803
				s-0.736-1.205-0.736-2.01c0-0.906,0.279-1.648,0.836-2.227s1.281-0.867,2.176-0.867c0.941,0,1.672,0.363,2.189,1.09
				s0.775,1.758,0.775,3.094c0,1.625-0.326,2.897-0.979,3.817s-1.586,1.38-2.801,1.38c-0.652,0-1.219-0.105-1.699-0.316V239.659z
				 M35.632,234.767c0,0.563,0.145,1.011,0.432,1.345s0.684,0.501,1.191,0.501c0.441,0,0.811-0.152,1.105-0.457
				s0.441-0.678,0.441-1.119c0-0.582-0.145-1.078-0.436-1.488s-0.684-0.615-1.176-0.615c-0.457,0-0.83,0.178-1.121,0.533
				S35.632,234.255,35.632,234.767z"/>
			<path d="M53.067,232.517l-3.463,8.537h-1.436l3.34-7.893h-4.453v-1.184h6.012V232.517z"/>
			<path d="M65.353,233.308c-0.461-0.25-0.957-0.375-1.488-0.375c-0.781,0-1.398,0.331-1.85,0.993s-0.674,1.517-0.67,2.563h0.029
				c0.426-0.777,1.098-1.166,2.016-1.166c0.781,0,1.402,0.259,1.863,0.776s0.691,1.194,0.691,2.03c0,0.883-0.277,1.616-0.83,2.2
				s-1.26,0.876-2.123,0.876c-0.98,0-1.732-0.37-2.256-1.11s-0.785-1.759-0.785-3.056c0-1.535,0.34-2.788,1.02-3.759
				s1.625-1.456,2.836-1.456c0.652,0,1.168,0.086,1.547,0.258V233.308z M61.409,238.077c0,0.566,0.148,1.046,0.445,1.438
				s0.684,0.589,1.16,0.589c0.473,0,0.848-0.178,1.127-0.533s0.42-0.795,0.42-1.318c0-0.59-0.133-1.044-0.398-1.362
				s-0.652-0.478-1.16-0.478c-0.453,0-0.832,0.16-1.137,0.48S61.409,237.608,61.409,238.077z"/>
			<path d="M72.573,236.688c0-1.594,0.273-2.803,0.818-3.627s1.334-1.236,2.369-1.236c1.973,0,2.959,1.549,2.959,4.646
				c0,1.516-0.27,2.684-0.809,3.504s-1.32,1.23-2.344,1.23c-0.988,0-1.734-0.387-2.238-1.16S72.573,238.153,72.573,236.688z
				 M73.974,236.636c0,2.313,0.561,3.469,1.682,3.469c1.105,0,1.658-1.18,1.658-3.539c0-2.422-0.541-3.633-1.623-3.633
				C74.546,232.933,73.974,234.167,73.974,236.636z"/>
			<path d="M90.929,233.308c-0.461-0.25-0.957-0.375-1.488-0.375c-0.781,0-1.396,0.331-1.848,0.993s-0.676,1.517-0.672,2.563h0.029
				c0.426-0.777,1.098-1.166,2.016-1.166c0.781,0,1.402,0.259,1.863,0.776s0.691,1.194,0.691,2.03c0,0.883-0.275,1.616-0.828,2.2
				s-1.262,0.876-2.125,0.876c-0.98,0-1.732-0.37-2.256-1.11s-0.785-1.759-0.785-3.056c0-1.535,0.34-2.788,1.02-3.759
				s1.625-1.456,2.836-1.456c0.652,0,1.168,0.086,1.547,0.258V233.308z M86.985,238.077c0,0.566,0.148,1.046,0.445,1.438
				s0.684,0.589,1.16,0.589c0.473,0,0.85-0.178,1.129-0.533s0.418-0.795,0.418-1.318c0-0.59-0.133-1.044-0.398-1.362
				s-0.652-0.478-1.16-0.478c-0.453,0-0.832,0.16-1.137,0.48S86.985,237.608,86.985,238.077z"/>
			<path d="M104.087,241.054h-5.344v-1.148h1.986v-6.557l-2.039,0.551v-1.207l3.416-0.896v8.109h1.98V241.054z"/>
			<path d="M116.507,233.308c-0.461-0.25-0.957-0.375-1.488-0.375c-0.781,0-1.398,0.331-1.85,0.993s-0.674,1.517-0.67,2.563h0.029
				c0.426-0.777,1.098-1.166,2.016-1.166c0.781,0,1.402,0.259,1.863,0.776s0.691,1.194,0.691,2.03c0,0.883-0.277,1.616-0.83,2.2
				s-1.26,0.876-2.123,0.876c-0.98,0-1.732-0.37-2.256-1.11s-0.785-1.759-0.785-3.056c0-1.535,0.34-2.788,1.02-3.759
				s1.625-1.456,2.836-1.456c0.652,0,1.168,0.086,1.547,0.258V233.308z M112.563,238.077c0,0.566,0.148,1.046,0.445,1.438
				s0.684,0.589,1.16,0.589c0.473,0,0.848-0.178,1.127-0.533s0.42-0.795,0.42-1.318c0-0.59-0.133-1.044-0.398-1.362
				s-0.652-0.478-1.16-0.478c-0.453,0-0.832,0.16-1.137,0.48S112.563,237.608,112.563,238.077z"/>
			<path d="M124.085,239.396c0.621,0.473,1.324,0.709,2.109,0.709c0.582,0,1.047-0.142,1.395-0.425s0.521-0.667,0.521-1.151
				c0-1.066-0.777-1.6-2.332-1.6h-0.773v-1.107h0.727c1.387,0,2.08-0.498,2.08-1.494c0-0.93-0.529-1.395-1.588-1.395
				c-0.625,0-1.223,0.211-1.793,0.633v-1.23c0.598-0.34,1.305-0.51,2.121-0.51c0.781,0,1.422,0.198,1.92,0.595
				s0.746,0.931,0.746,1.603c0,1.191-0.605,1.951-1.816,2.279v0.023c0.641,0.063,1.154,0.292,1.541,0.688s0.58,0.884,0.58,1.462
				c0,0.844-0.305,1.51-0.916,1.998s-1.408,0.732-2.389,0.732c-0.887,0-1.598-0.158-2.133-0.475V239.396z"/>
			<path d="M137.044,239.513c0.625,0.395,1.266,0.592,1.922,0.592c0.586,0,1.063-0.16,1.43-0.48s0.551-0.754,0.551-1.301
				c0-1.133-0.727-1.699-2.18-1.699c-0.344,0-0.826,0.029-1.447,0.088v-4.734h4.611v1.184h-3.375v2.361
				c0.34-0.02,0.596-0.029,0.768-0.029c0.93,0,1.666,0.24,2.209,0.721s0.814,1.148,0.814,2.004c0,0.91-0.301,1.636-0.902,2.177
				s-1.404,0.812-2.408,0.812c-0.859,0-1.523-0.127-1.992-0.381V239.513z"/>
		</g>
	</g>
	
		<rect x="4.899" y="170.537" fill="none" stroke="#9FA0A0" stroke-width="2" stroke-miterlimit="10" width="155.906" height="155.905"/>
</g>
<g>
	<g>
		<g>
			<path d="M28.837,108.961c-0.869-2.31-2.172-6.479-3.246-8.97h1.395c0.754,1.628,1.807,4.389,2.24,6.324
				c0.73-1.677,2.238-4.763,2.971-6.247c1.029,1.615,2.629,4.519,3.498,6.325c0.502-1.614,1.531-4.774,2.035-6.184h1.256
				c-0.662,1.382-2.377,6.402-3.43,8.815c-0.754-1.625-2.467-4.98-3.359-6.362C31.259,104.225,29.888,107.322,28.837,108.961z"/>
			<path d="M46.003,108.885c-5.623,1.07-5.623-4.324-0.275-4.363c0,0-0.205-0.89-0.525-1.083c-1.029-0.634-1.645,0.153-1.645,0.153
				l-0.596-0.527c2.902-1.124,3.977,0.527,4.023,0.669c0.389,1.421,0.412,4.065,1.189,5.332L46.003,108.885z M45.659,105.154
				c-3.496-0.194-1.896,4.092,0.344,3.123C46.413,107.723,46.185,105.566,45.659,105.154z"/>
			<path d="M53.567,103.296c-0.914-0.077-1.393-0.052-2.332,0.103l0.572-0.708l1.828,0.089c0,0-0.502-2.375,3.154-2.711l0.252,0.466
				c0,0-1.828-0.232-1.828,2.245c0.709,0.014,1.943-0.014,2.492-0.089l-0.229,0.657l-2.174-0.143c-0.182,1.008-0.068,4.4,0,5.782
				h-1.758C53.659,107.631,53.728,104.871,53.567,103.296z"/>
			<path d="M63.214,103.296c-0.914-0.077-1.395-0.052-2.332,0.103l0.57-0.708l1.83,0.089c0,0-0.504-2.375,3.154-2.711l0.252,0.466
				c0,0-1.83-0.232-1.83,2.245c0.709,0.014,1.943-0.014,2.492-0.089l-0.229,0.657l-2.172-0.143c-0.182,1.008-0.068,4.4,0,5.782
				h-1.76C63.304,107.631,63.374,104.871,63.214,103.296z"/>
			<path d="M71.259,99.991l1.578-0.038c-0.16,2.246-0.115,6.764,0.137,8.982l-1.715,0.077
				C71.351,106.638,71.763,100.792,71.259,99.991z"/>
			<path d="M80.813,108.987c-2.629,0-3.816-1.343-3.816-3.085c0-1.741,1.689-3.162,3.611-3.162c1.92,0,3.566,1.446,2.902,3.343
				c-0.982,0.193-2.766,0.207-4.617,0.117c0,0-0.275,2.271,2.309,2.271c1.395,0,2.309-1.148,2.309-1.148l0.457,0.696
				C83.968,108.019,83.442,108.987,80.813,108.987z M80.562,103.257c-1.646,0-1.668,2.349-1.668,2.349
				c1.029,0.078,2.285,0.117,3.176,0C82.069,105.605,82.208,103.257,80.562,103.257z"/>
			<path d="M95.122,109.001c0.137-2.439,0.023-6.453-0.229-9.048c0,0,7.611-0.259,7.611,4.504
				C102.505,109.582,95.122,109.001,95.122,109.001z M96.63,100.508c-0.16,1.896-0.09,5.898,0.137,8.002
				c0,0,4.023,0.142,4.023-4.053C100.79,100.482,96.63,100.508,96.63,100.508z"/>
			<path d="M106.368,102.702h1.598v2.052c0,0,1.168-1.678,2.768-2.091l0.527,0.375c0,0-2.791,1.406-3.111,3.343
				c-0.318,1.936-0.066,2.606-0.066,2.606h-1.83C106.55,107.154,106.55,104.289,106.368,102.702z"/>
			<path d="M115.532,101.772c0-0.039-0.914-1.278-0.914-1.278h1.783C116.401,100.494,115.532,101.812,115.532,101.772z
				 M114.712,108.987h1.668c-0.139-1.574-0.184-4.736,0.045-6.324h-1.668C114.938,104.315,114.847,107.478,114.712,108.987z"/>
			<path d="M120.425,102.766l2.125,0.22c1.121-0.515,3.887-0.374,4.094,0.93c0.182,1.2,0.182,5.072,0.182,5.072h-1.623
				c0.137-1.227,0.092-3.497-0.229-4.879c0.068-0.864-2.514-1.343-2.629,0c-0.137,1.483-0.297,3.421-0.047,4.879l-1.713-0.039
				C120.767,107.4,120.767,104.404,120.425,102.766z"/>
			<path d="M130.985,99.966h1.668c-0.115,1.354-0.252,4.297,0,5.356c0.846-0.724,2.332-2.208,3.406-2.918l0.754,0.479
				c-0.594,0.465-1.668,1.304-2.492,2.104c0.641,1.238,1.99,2.865,2.813,4h-1.736c-0.504-0.942-1.328-2.065-2.172-2.865
				c0,0-0.664,0.271-0.824,0.696c-0.205,0.543,0.16,1.602,0.092,2.169h-1.76C131.12,106.717,131.19,102.921,130.985,99.966z"/>
			<circle cx="89.512" cy="105.639" r="0.95"/>
		</g>
		<g>
			<path d="M125.448,90.787c-0.676-0.17-4.891-1.004-4.891-1.004c-0.273-0.086-0.572-0.149-0.818-0.271
				c-0.131-0.056-0.26-0.107-0.393-0.166l-0.201-0.089l-0.102-0.043l-0.025-0.011c-0.01-0.004-0.02-0.008-0.014-0.019l0.01-0.05
				l0.152-0.826c0.027-0.142,0.045-0.274,0.088-0.431l0.055-0.229l0.014-0.058l0.006-0.028l0.004-0.015l0.01-0.059l0.092-0.464
				c0.053-0.314,0.123-0.623,0.188-0.938c0.014-0.063,0.027-0.124,0.039-0.184c0.332-1.494,0.709-3.032,0.672-4.59l0.02-0.188
				l0.16-1.401l0.041-0.35l0.008-0.088l0.016-0.152l0.029-0.321c0.035-0.424,0.07-0.851,0.105-1.275
				c0.639,0.006,1.279,0.011,1.92,0.018c0.385,0.003,0.768,0,1.152-0.012l0.18-0.001c1.199-0.019,2.412-0.083,3.611,0.038
				c0.057,0.005,0.111,0.01,0.166,0.015c0.164,0.015,0.328,0.026,0.494,0.035c0.193-0.014,0.391-0.021,0.584-0.027
				c0.098-0.001,0.195-0.005,0.293-0.008c0.098,0,0.197,0.002,0.295,0.003l0.074,0.001c0.016,0.002,0.02,0,0.045,0.003l0.066,0.004
				l0.27,0.021c0.18,0.02,0.355,0.05,0.535,0.076c0.354,0.052,0.709,0.125,1.055,0.201c-0.014,0.39-0.035,0.779-0.068,1.161
				l-0.014,0.14l-0.02,0.135c-0.014,0.087-0.027,0.175-0.039,0.263c-0.016,0.086-0.033,0.171-0.049,0.257
				c-0.014,0.06-0.029,0.105-0.047,0.159l-0.016,0.192c-0.102,1.087-0.289,2.159-0.658,3.177c-0.018,0.064-0.033,0.127-0.049,0.189
				c-0.217,0.896-0.451,1.795-0.777,2.668c-0.322,0.87-0.742,1.717-1.311,2.466c-0.033,0.058-0.074,0.112-0.109,0.17
				c-0.35,0.539-0.73,1.061-1.154,1.558c-0.424,0.498-0.889,0.972-1.416,1.403c-0.063,0.041-0.121,0.083-0.18,0.125
				c-0.082,0.063-0.174,0.114-0.26,0.173c-0.088,0.056-0.18,0.116-0.258,0.159l-0.484,0.281c-0.16,0.099-0.328,0.185-0.492,0.274
				s-0.328,0.183-0.496,0.266c-0.662,0.35-1.35,0.653-2.053,0.903l-0.18,0.062c-0.656,0.222-1.324,0.42-2.006,0.597
				c0.037-0.009,0.037-0.009,0.074-0.02c-0.656,0.175-1.301,0.444-1.992,0.571c-0.066,0.011-0.131,0.021-0.197,0.03
				c-1.211,0.2-2.477,0.269-3.732,0.078l-0.195-0.035c-1.371-0.267-2.684-0.777-3.908-1.474c-0.061-0.038-0.117-0.073-0.174-0.11
				c-0.531-0.334-1.035-0.71-1.508-1.12c-0.473-0.411-0.916-0.857-1.322-1.342l-0.137-0.152c-0.354-0.412-0.693-0.843-1.029-1.3
				c-0.037-0.058-0.066-0.119-0.1-0.178c-0.205-0.388-0.359-0.805-0.49-1.231c-0.131-0.43-0.24-0.867-0.354-1.334
				c-0.016-0.074-0.023-0.149-0.031-0.224s-0.016-0.15-0.02-0.227c-0.006-0.042-0.012-0.084-0.016-0.127
				c-0.01-0.087-0.016-0.175-0.025-0.262c0.002-0.05,0.004-0.099,0.008-0.147c0.006-0.104,0.031-0.22,0.064-0.322
				c0.041-0.108,0.088-0.204,0.168-0.293c0.143-0.173,0.383-0.289,0.67-0.238c0.057,0.016,0.113,0.038,0.164,0.067
				c0.156,0.081,0.295,0.208,0.4,0.316c0.016,0.04,0.029,0.08,0.035,0.115c0.01,0.041,0.014,0.079,0.018,0.118
				c0.008,0.042,0.01,0.082,0.018,0.124c0.012,0.042,0.021,0.082,0.039,0.122l0.012,0.093c0.004,0.038,0.012,0.079,0.018,0.12
				c0.008,0.039,0.012,0.079,0.023,0.12c0.012,0.05,0.018,0.1,0.031,0.151c0.012,0.051,0.025,0.103,0.037,0.152
				c0.131,0.329,0.23,0.661,0.342,1.002c0.111,0.339,0.23,0.686,0.389,1.017l0.076,0.151c0.297,0.441,0.605,0.863,0.943,1.258
				c0.037,0.045,0.074,0.089,0.113,0.133c0.693,0.702,1.424,1.356,2.244,1.901c0.047,0.032,0.098,0.062,0.146,0.093
				c0.547,0.348,1.135,0.615,1.742,0.819c0.605,0.207,1.234,0.341,1.871,0.438c0.057,0.008,0.115,0.019,0.174,0.027
				c0.988,0.084,1.98,0.09,2.977-0.017l0.176-0.018c1.242-0.217,2.453-0.61,3.65-1.058l0.172-0.064
				c0.572-0.277,1.152-0.521,1.725-0.798c0.568-0.268,1.135-0.572,1.645-0.933c0.074-0.06,0.15-0.115,0.229-0.164
				c0.039-0.026,0.078-0.057,0.119-0.082c0.49-0.213,0.947-0.571,1.344-0.998c0.398-0.428,0.742-0.925,1.043-1.448
				c0.031-0.05,0.059-0.101,0.088-0.15c0.451-0.691,0.799-1.452,1.08-2.237c0.281-0.784,0.5-1.592,0.705-2.398
				c0.016-0.06,0.029-0.117,0.043-0.174c0.299-0.957,0.488-1.96,0.598-2.957l0.016-0.176l0.02-0.146l0.008-0.045l0.004-0.025
				l0.016-0.096c0.008-0.048,0.012-0.097,0.018-0.148c-0.041-0.02-0.094-0.029-0.146-0.039c-0.025-0.004-0.055-0.007-0.084-0.012
				l-0.314-0.032c-0.221-0.016-0.439-0.032-0.658-0.048l-0.664-0.036c-0.061-0.003-0.123-0.006-0.188-0.009
				c-1.188-0.052-2.389-0.075-3.592-0.088c-0.061-0.001-0.121-0.002-0.182-0.002c-0.375-0.062-0.75-0.09-1.127-0.102l-0.193-0.003
				c-0.033-0.001-0.066,0-0.098,0c-0.064,0.003-0.129,0.006-0.184,0.015l0.008,0.243l0.002,0.057v0.026l-0.004,0.087
				c-0.008,0.118-0.016,0.237-0.025,0.355c-0.035,0.472-0.094,0.94-0.195,1.401c0,0-0.256,3.397-0.594,4.978
				c-0.014,0.064-0.025,0.129-0.039,0.193c-0.059,0.325-0.117,0.651-0.176,0.979c-0.029,0.165-0.066,0.331-0.098,0.498l-0.014,0.063
				l-0.006,0.029c-0.002,0.009-0.002,0.008-0.002,0.01v0.024c0,0.015,0,0.033,0,0.048l-0.004,0.087v0.009
				c0,0.002,0.008,0.002,0.012,0.005l0.025,0.006c0.016,0.005,0.033,0.009,0.047,0.011l0.084,0.018c0,0,3.215,0.751,5.484,1.202
				c-0.143,0.238-0.992,1.257-1.154,1.378C125.481,90.791,125.464,90.792,125.448,90.787z"/>
			<path d="M126.481,79.117c-0.057,0-0.115-0.005-0.174-0.017c-0.52-0.095-0.859-0.594-0.766-1.111c0,0,0.436-3.889,0.746-4.025
				c0.377-0.164,3.859-1.164,3.859-1.164c0.504-0.153,1.037,0.133,1.189,0.639c0.154,0.503-0.133,1.037-0.637,1.189
				c0,0-2.592,0.67-2.746,0.828c-0.146,0.149-0.535,2.88-0.535,2.88C127.335,78.796,126.933,79.117,126.481,79.117z"/>
			<path d="M31.306,92.844c-0.08,0.106-0.078,0.291-0.096,0.349c-0.006,0.103,0.006,0.144,0.027,0.184
				c0.023,0.04,0.084,0.1,0.197,0.159c0.119,0.058,0.281,0.103,0.451,0.137c0.355,0.059,0.764,0.059,1.17,0.018
				c0.412-0.041,0.828-0.122,1.236-0.232c0.408-0.107,0.811-0.245,1.197-0.404c0.193-0.08,0.381-0.166,0.566-0.257
				c0.18-0.089,0.371-0.196,0.561-0.303c0.762-0.423,1.51-0.904,2.27-1.392c0.127-0.109,0.254-0.216,0.379-0.323
				c1.307-1.147,2.473-2.471,3.551-3.859s2.074-2.842,3.045-4.313c0.096-0.146,0.188-0.289,0.279-0.432
				c1.145-1.767,2.227-3.588,3.189-5.471c0.959-1.882,1.801-3.826,2.424-5.818l0.168-0.477c0.373-1.073,0.713-2.154,0.98-3.241
				c0.133-0.545,0.248-1.09,0.332-1.633c0.084-0.542,0.137-1.083,0.127-1.598c0-0.258-0.027-0.502-0.068-0.729
				c-0.041-0.227-0.115-0.419-0.193-0.549c-0.086-0.13-0.152-0.181-0.254-0.216c-0.061-0.027-0.088-0.023-0.121-0.023
				c-0.029,0.003-0.068,0.014-0.121,0.041c-0.105,0.06-0.256,0.196-0.387,0.382c-0.133,0.182-0.258,0.403-0.369,0.637
				c-0.223,0.469-0.398,0.994-0.549,1.53c-0.041,0.149-0.082,0.3-0.119,0.45c-0.373,1.514-0.574,3.104-0.713,4.692
				c-0.139,1.591-0.207,3.189-0.246,4.781c-0.002,0.15-0.006,0.296-0.008,0.44c-0.004,0.433-0.002,0.867,0.012,1.304
				c0.104,1.556,0.268,3.078,0.463,4.586c0.199,1.508,0.422,3.004,0.695,4.51l0.133,0.461c0.197,0.653,0.42,1.292,0.686,1.903
				c0.266,0.609,0.57,1.192,0.934,1.707c0.359,0.513,0.781,0.955,1.25,1.232c0.471,0.286,0.984,0.396,1.551,0.342
				c0.143-0.021,0.279-0.048,0.418-0.087c0.494-0.134,0.988-0.364,1.457-0.656c0.473-0.289,0.924-0.638,1.357-1.013
				c0.867-0.755,1.66-1.625,2.408-2.534c1.498-1.826,2.826-3.808,4.135-5.794l0.266-0.441c1.672-2.806,3.152-5.755,4.363-8.78
				c0.074-0.163,0.139-0.322,0.207-0.481c0.744-1.825,1.416-3.678,2.006-5.543c0.588-1.863,1.105-3.741,1.461-5.611l0.086-0.475
				c0.145-0.863,0.246-1.741,0.215-2.569c-0.016-0.41-0.07-0.813-0.189-1.128c-0.057-0.153-0.129-0.286-0.203-0.36
				c-0.074-0.079-0.137-0.115-0.232-0.139c0.039,0.011,0.039,0.012,0.074,0.024c-0.039-0.017-0.082-0.027-0.135-0.033
				c-0.025-0.005-0.059-0.003-0.086-0.005c-0.018,0.007-0.033,0-0.051,0.009c-0.064,0.012-0.158,0.057-0.268,0.151
				c-0.215,0.185-0.434,0.506-0.613,0.854c-0.365,0.704-0.633,1.523-0.881,2.348c-0.047,0.159-0.092,0.313-0.137,0.469
				c-0.408,1.469-0.695,2.993-0.936,4.528s-0.424,3.086-0.58,4.644l-0.053,0.489c-0.352,3.428-0.51,6.868-0.379,10.342
				c0.004,0.175,0.01,0.342,0.016,0.51c0.055,1.546,0.166,3.086,0.359,4.614c0.193,1.524,0.461,3.043,0.877,4.499
				c0.047,0.155,0.096,0.31,0.146,0.464c0.203,0.612,0.438,1.21,0.727,1.763c0.285,0.549,0.629,1.058,1.02,1.43
				c0.092,0.089,0.182,0.177,0.275,0.251c0.301,0.247,0.604,0.391,0.934,0.438c0.168,0.023,0.344,0.022,0.531-0.009
				c0.104-0.011,0.172-0.039,0.248-0.057c0.02-0.007,0.039-0.009,0.059-0.017l0.059-0.026l0.119-0.054
				c0.32-0.161,0.633-0.449,0.863-0.797c0.23-0.352,0.387-0.764,0.461-1.194c0.018-0.14,0.053-0.271,0.059-0.407
				s0.018-0.273,0.02-0.412c-0.008-0.074-0.014-0.152-0.021-0.228l-0.023-0.229l-0.055-0.228c-0.014-0.082-0.027-0.164-0.041-0.245
				c-0.146-0.732-0.4-1.401-0.158-2.021c0.033-0.053,0.072-0.097,0.115-0.134c0.133-0.104,0.316-0.116,0.557,0.047
				c0.086,0.1,0.174,0.214,0.26,0.336c0.084,0.125,0.15,0.267,0.225,0.405c0.156,0.276,0.26,0.586,0.383,0.859
				c0.043,0.11,0.066,0.228,0.094,0.343l0.098,0.436c0.02,0.149,0.033,0.299,0.049,0.448c0.027,0.185,0.021,0.371,0.02,0.56
				l-0.006,0.283c-0.012,0.093-0.023,0.188-0.035,0.282c-0.107,1.234-0.758,2.459-1.875,3.185c-0.277,0.182-0.598,0.318-0.939,0.409
				c-0.322,0.079-0.646,0.112-0.986,0.099c-0.676-0.023-1.344-0.291-1.855-0.677c-0.158-0.118-0.307-0.247-0.443-0.38
				c-0.658-0.613-1.102-1.34-1.463-2.069c-0.359-0.734-0.631-1.485-0.857-2.24c-0.049-0.168-0.098-0.337-0.145-0.508
				c-0.416-1.431-0.682-2.889-0.873-4.35c-0.189-1.463-0.299-2.929-0.357-4.397l-0.02-0.518c-0.127-3.865-0.043-7.662,0.326-11.461
				c0.018-0.174,0.037-0.347,0.053-0.522c0.137-1.463,0.322-2.917,0.566-4.364c0.246-1.445,0.547-2.883,0.955-4.308
				c0.047-0.168,0.098-0.334,0.148-0.503c0.266-0.896,0.564-1.794,1.02-2.683c0.236-0.442,0.5-0.89,0.928-1.317
				c0.219-0.209,0.488-0.421,0.854-0.556c0.186-0.067,0.389-0.11,0.598-0.115c0.1-0.001,0.18,0.004,0.273,0.011
				c0.092,0.014,0.182,0.022,0.277,0.048c0.186,0.039,0.373,0.12,0.545,0.218c0.17,0.104,0.326,0.227,0.451,0.364
				c0.258,0.273,0.406,0.57,0.518,0.852c0.213,0.563,0.275,1.086,0.307,1.592c0.053,1.008-0.049,1.955-0.191,2.886l-0.09,0.53
				c-0.279,1.84-0.768,3.6-1.313,5.325c-0.547,1.726-1.162,3.415-1.773,5.107c-0.107,0.301-0.221,0.6-0.342,0.896
				c-0.061,0.148-0.121,0.296-0.188,0.442c-1.547,3.156-3.105,6.301-4.879,9.354c-0.086,0.145-0.172,0.289-0.258,0.435
				c-1.27,2.026-2.59,4.02-4.117,5.884c-0.766,0.929-1.586,1.827-2.518,2.639c-0.469,0.404-0.967,0.786-1.506,1.125
				c-0.543,0.335-1.131,0.635-1.785,0.829c-0.186,0.056-0.377,0.102-0.574,0.14c-0.408,0.065-0.861,0.088-1.299,0.024
				c-0.441-0.06-0.873-0.2-1.262-0.399c-0.783-0.404-1.377-1.008-1.85-1.639c-0.471-0.639-0.834-1.318-1.141-2.009
				s-0.557-1.396-0.77-2.105c-0.049-0.167-0.098-0.334-0.143-0.502c-0.469-1.788-0.748-3.592-0.938-5.393
				c-0.188-1.805-0.275-3.608-0.287-5.408c0-0.173,0-0.346,0-0.523c0.006-1.653,0.08-3.312,0.238-4.97
				c0.164-1.657,0.4-3.314,0.826-4.965c0.043-0.166,0.088-0.331,0.139-0.497c0.195-0.566,0.412-1.132,0.697-1.693
				c0.145-0.28,0.303-0.562,0.51-0.837c0.203-0.271,0.449-0.549,0.818-0.768c0.184-0.106,0.404-0.19,0.641-0.222
				c0.234-0.032,0.484-0.011,0.689,0.056c0.104,0.03,0.209,0.061,0.307,0.117c0.102,0.051,0.201,0.103,0.285,0.173
				c0.09,0.068,0.18,0.138,0.246,0.218c0.072,0.081,0.146,0.159,0.197,0.244c0.232,0.338,0.354,0.69,0.428,1.021
				c0.021,0.086,0.037,0.168,0.049,0.249c0.014,0.082,0.029,0.164,0.039,0.246c0.014,0.16,0.037,0.325,0.039,0.482
				c0.027,0.634-0.018,1.244-0.092,1.844c-0.08,0.599-0.191,1.184-0.322,1.762c-0.27,1.153-0.625,2.271-1.045,3.356l-0.193,0.478
				c-0.584,2.117-1.432,4.146-2.406,6.102c-0.979,1.955-2.094,3.835-3.273,5.668c-0.096,0.148-0.191,0.295-0.287,0.443
				c-0.957,1.489-1.969,2.969-3.082,4.391c-1.113,1.419-3.551,3.891-4.121,4.324c-1.834,1.389-2.98,2.231-5.529,3.053
				c-0.58,0.127-1.723,0.233-2.348,0.18c-0.313-0.022-0.635-0.091-0.961-0.206c-0.32-0.118-0.662-0.3-0.949-0.615
				c-0.072-0.078-0.137-0.171-0.195-0.258c-0.059-0.092-0.104-0.198-0.146-0.296c-0.037-0.103-0.061-0.21-0.082-0.313
				c-0.014-0.104-0.014-0.208-0.014-0.307c0.023-0.396,0.182-0.696,0.355-0.938c0.373-0.467,0.938-1.179,1.377-0.866
				C31.794,91.853,31.829,92.145,31.306,92.844z"/>
			<path d="M78.212,92.665c0.268,0.359,0.963,0.831,1.111,0.933s0.879,0.194,1.037,0.199c0.156,0.009,0.307-0.025,0.402-0.12
				l0.02-0.018c0.139-0.126,0.168-0.296,0.313-0.464l0.018-0.024c0.018-0.024,0.174-0.603,0.178-0.847
				c0.002-0.012-0.002-0.043-0.002-0.043c-0.018-0.239-0.057-0.46-0.025-0.718c-0.002-0.015-0.006-0.03-0.012-0.043
				c-0.078-0.196-0.189-0.38-0.301-0.564c-0.107-0.188-0.199-0.382-0.234-0.634l-0.023-0.047c-0.141-0.284-0.326-0.568-0.596-0.772
				c-0.012-0.016-0.023-0.03-0.033-0.041c-0.289-0.287-0.633-0.526-0.906-0.854l-0.035-0.042c-0.125-0.154-0.254-0.314-0.398-0.464
				c0.008,0.008,0.008,0.008,0.016,0.017c-0.141-0.149-0.369-0.218-0.537-0.392l-0.045-0.047c-0.07-0.079-0.141-0.154-0.209-0.249
				l-0.104-0.143c-0.037-0.056-0.068-0.109-0.107-0.185c-0.037-0.069-0.064-0.143-0.092-0.219c-0.027-0.073-0.051-0.147-0.063-0.226
				c-0.043-0.155-0.023-0.315-0.021-0.475l0.014-0.08c0.008-0.035,0.018-0.081,0.023-0.101c0.037-0.15,0.1-0.322,0.18-0.481
				c0.082-0.156,0.182-0.303,0.299-0.43c0.113-0.13,0.252-0.235,0.398-0.327c0.15-0.086,0.309-0.155,0.479-0.199
				c0.033-0.009,0.066-0.012,0.102-0.018c0.152-0.025,0.309-0.03,0.465-0.023c0.154,0.008,0.275,0.029,0.393,0.052
				c0.234,0.047,0.449,0.112,0.652,0.189l0.068,0.021c0.594,0.188,1.27,0.68,1.398,0.837c0.076,0.092,0.064,0.664-0.355,0.867
				c-0.375,0.182-1.205-0.201-1.68-0.375c-0.119-0.041-0.408-0.1-0.703,0.07c-0.021,0.045-0.021,0.079-0.037,0.148l0,0l-0.002,0.004
				c0.012,0.029,0.023,0.058,0.035,0.087c0.002,0.002,0.01,0.02,0.016,0.036l0.031,0.062c0.018,0.042,0.059,0.094,0.082,0.142
				l0.025,0.037c0.227,0.219,0.535,0.443,0.805,0.719l0.041,0.04c0.959,0.813,1.395,1.66,1.635,2.007l0.035,0.052
				c0.234,0.522,0.605,0.993,0.799,1.586l0.016,0.065c0.053,0.367,0.1,0.74,0.105,1.118l-0.002,0.066
				c-0.012,0.117-0.025,0.233-0.047,0.348c-0.023,0.114-0.035,0.229-0.064,0.34c-0.029,0.112-0.051,0.218-0.082,0.336
				c-0.043,0.118-0.068,0.234-0.121,0.354c-0.01,0.022-0.02,0.045-0.031,0.068c-0.086,0.217-0.217,0.43-0.371,0.629
				c-0.162,0.193-0.352,0.375-0.574,0.511l-0.064,0.041c-0.365,0.079-0.672,0.189-1,0.255c-0.322,0.064-1.615-0.082-1.869-0.217
				c-0.258-0.134-0.475-0.325-0.686-0.513l-0.051-0.043c-0.361-0.267-0.781-0.542-1.029-0.978c-0.012-0.02-0.021-0.043-0.031-0.063
				c0.152-0.257,0.129-0.385,0.031-0.5c-0.053-0.054-0.119-0.107-0.188-0.161c-0.07-0.055-0.15-0.109-0.207-0.175
				c-0.061-0.064-0.107-0.137-0.123-0.212c-0.016-0.076,0.004-0.16,0.066-0.241c0.125-0.162,0.463-0.33,1.107-0.41
				C77.782,91.753,78.017,92.405,78.212,92.665z"/>
			<path d="M83.632,92.897c0.137,0.075,0.703,0.502,0.867,0.587c0.162,0.085,0.693,0.221,0.928,0.163
				c0.154-0.016,0.428-0.152,0.51-0.264l0.02-0.022c0.033-0.031,0.047-0.081,0.072-0.118c0.016-0.05,0.039-0.084,0.051-0.137
				c0.01-0.023,0.016-0.045,0.027-0.067c0.01-0.024,0.016-0.05,0.027-0.074c0.023-0.045,0.041-0.102,0.074-0.15l0.016-0.03
				c0.016-0.031,0.025-0.076,0.033-0.112c0.039-0.127,0.074-0.451,0.068-0.815c-0.004-0.202-0.02-0.5-0.123-0.731
				c-0.086-0.194-0.301-0.525-0.469-0.75c-0.275-0.381-0.814-0.913-1.135-1.08c-0.014-0.015-0.029-0.027-0.043-0.037
				c-0.355-0.248-0.762-0.462-1.096-0.802l-0.043-0.046c-0.152-0.162-0.932-0.892-1.012-1.007c-0.193-0.276-0.293-0.494-0.377-0.744
				c-0.074-0.257-0.121-0.51-0.096-0.809l0.016-0.096c0.027-0.168,0.09-0.357,0.164-0.521c0.082-0.162,0.18-0.317,0.301-0.449
				c0.242-0.27,0.561-0.456,0.904-0.563c0.037-0.01,0.07-0.015,0.104-0.021c0.309-0.059,0.572-0.051,0.834-0.014
				c0.26,0.038,0.5,0.108,0.729,0.204l0.076,0.026c0.199,0.076,0.578,0.318,0.764,0.446c0.582,0.402,0.588,1.049,0.23,1.434
				c-0.035,0.04-0.143,0.22-0.514,0.214c-0.176-0.002-0.574-0.396-0.861-0.574c-0.111-0.07-0.232-0.092-0.338-0.131l-0.035-0.012
				c-0.219-0.016-0.518-0.069-0.646,0.037c-0.016,0.02-0.02,0.043-0.023,0.065c-0.006,0.023-0.004,0.037-0.01,0.079
				c-0.002,0.007-0.004,0.015-0.004,0.023c-0.004,0.27,0.018,0.4,0.156,0.559c0.178,0.203,0.434,0.404,0.695,0.643
				c0,0,0.516,0.33,0.957,0.71c0.094,0.082,0.67,0.718,0.982,1.01l0.045,0.042c0.174,0.241,0.383,0.449,0.584,0.685
				c0.201,0.231,0.408,0.481,0.553,0.776l0.031,0.064c0.117,0.379,0.229,0.764,0.275,1.157l0.004,0.069
				c0.002,0.496-0.063,0.964-0.162,1.408c-0.008,0.025-0.016,0.048-0.021,0.072c-0.119,0.452-0.354,0.938-0.756,1.293l-0.061,0.053
				c-0.355,0.146-0.652,0.312-0.982,0.426c-0.322,0.113-1.674,0.106-1.947-0.002c-0.281-0.107-0.52-0.288-0.752-0.453l-0.057-0.04
				c-0.396-0.234-0.844-0.479-1.137-0.887c-0.016-0.018-0.027-0.038-0.039-0.059c0.121-0.271,0.082-0.399-0.029-0.501
				c-0.113-0.098-0.295-0.174-0.434-0.283c-0.068-0.056-0.123-0.119-0.152-0.19c-0.023-0.073-0.018-0.156,0.031-0.247
				c0.1-0.178,0.406-0.396,1.029-0.586C82.677,91.709,82.935,92.421,83.632,92.897z"/>
			<path d="M109.714,59.351c-0.385-0.081-1.762-0.165-3.727,0.753c-1.428,0.665-2.662,1.373-3.477,2.036
				c-0.814,0.665-1.57,1.403-2.328,2.134c-0.074,0.074-0.148,0.146-0.219,0.216c-1.791,1.771-3.477,3.78-4.564,6.1l-0.15,0.269
				c-0.689,1.206-1.344,2.434-1.922,3.704c-0.572,1.27-1.088,2.58-1.438,3.931l-0.074,0.279c-0.061,0.233-0.111,0.465-0.166,0.7
				c-0.045,0.23-0.1,0.465-0.131,0.693l-0.055,0.345l-0.039,0.336c-0.021,0.228-0.033,0.465-0.051,0.696
				c-0.047,0.932-0.014,1.861,0.074,2.78c0.012,0.086,0.023,0.171,0.035,0.255c0.016,0.123,0.033,0.248,0.051,0.372
				c0.027,0.124,0.053,0.247,0.078,0.373c0.264,0.866,0.613,1.679,0.994,2.46c0.387,0.78,0.803,1.537,1.25,2.317l0.186,0.212
				c1.055,1.196,2.365,2.112,3.811,2.79c0.092,0.033,0.184,0.064,0.271,0.098c0.65,0.211,1.324,0.354,2.004,0.424
				c0.686,0.062,1.373,0.071,2.061,0.024c0.172-0.006,0.346-0.033,0.518-0.048c0.17-0.017,0.342-0.029,0.514-0.06l0.514-0.074
				c0.17-0.027,0.332-0.068,0.5-0.1c0.164-0.036,0.334-0.057,0.496-0.104l0.49-0.132l0.248-0.063c0.08-0.025,0.16-0.055,0.242-0.083
				l0.486-0.157c0.094-0.032,0.182-0.078,0.271-0.121c0.859-0.383,1.658-0.923,2.395-1.533c0.375-0.298,0.711-0.646,1.051-0.987
				l0.48-0.544c0.158-0.18,0.297-0.38,0.445-0.571c0.07-0.079,0.135-0.159,0.199-0.237c1.42-1.874,2.447-4.026,3.365-6.179
				l0.115-0.273c0.42-1.007,0.791-2.037,1.092-3.1c-0.014,0.056-0.014,0.056-0.029,0.113c0.295-1.029,0.408-2.102,0.582-3.159
				c0.02-0.102,0.037-0.199,0.051-0.298c0.148-0.927,0.252-1.861,0.291-2.775c0.02-0.454,0.025-0.909,0-1.332
				c-0.043-0.438-0.074-0.889-0.156-1.323l-0.039-0.275c-0.164-0.958-0.459-1.885-0.908-2.725s-1.066-1.583-1.814-2.174
				c-0.072-0.062-0.143-0.121-0.213-0.181c-1.348-1.041-3.082-1.555-4.83-1.533l-0.281,0.011c-0.75,0.05-1.5,0.208-2.217,0.469
				l-0.266,0.076l-0.215,0.058l-0.213,0.069l-0.426,0.132l-0.424,0.155c-0.141,0.05-0.281,0.103-0.418,0.168l-0.414,0.188
				c-0.137,0.064-0.268,0.145-0.402,0.219c-0.271,0.142-0.518,0.326-0.766,0.512c-0.082,0.054-0.16,0.11-0.234,0.168l-0.229,0.171
				l-0.121,0.1c-0.078,0.065-0.156,0.137-0.229,0.214l-0.127,0.107c-0.398,0.302-0.791,0.55-1.416,0.315
				c-0.059-0.031-0.113-0.067-0.166-0.108c-0.15-0.123-0.26-0.294-0.262-0.514c0.121-0.321,0.416-0.628,0.627-0.92l0.146-0.15
				l0.184-0.187l0.195-0.175l0.244-0.214c0.082-0.07,0.16-0.146,0.248-0.213c0.535-0.469,1.129-0.867,1.771-1.161
				c0.314-0.163,0.648-0.281,0.977-0.41c0.164-0.064,0.338-0.108,0.504-0.166c0.168-0.049,0.334-0.111,0.508-0.151l0.313-0.083
				c0.969-0.313,1.975-0.485,2.986-0.507c0.113-0.003,0.227-0.005,0.342-0.007c1.922-0.047,3.908,0.541,5.512,1.706
				c0.096,0.068,0.195,0.131,0.281,0.208c1.023,0.805,1.891,1.795,2.518,2.909c0.627,1.116,1.035,2.332,1.242,3.564
				c0.018,0.111,0.035,0.226,0.053,0.339c0.053,0.237,0.063,0.476,0.092,0.714c0.027,0.235,0.053,0.473,0.057,0.722
				c0.021,0.491,0,0.96-0.029,1.429c-0.066,0.932-0.201,1.839-0.371,2.734l-0.061,0.316c-0.371,2.259-0.939,4.484-1.775,6.628
				l-0.119,0.306c-0.373,1.08-0.854,2.117-1.387,3.123c-0.543,1.004-1.139,1.977-1.756,2.951c-0.109,0.172-0.227,0.343-0.348,0.509
				c-0.059,0.083-0.127,0.161-0.193,0.239c-0.791,0.816-1.627,1.591-2.518,2.305c-0.891,0.71-1.85,1.353-2.891,1.859l-0.307,0.132
				l-0.549,0.213c-0.182,0.071-0.373,0.117-0.561,0.178c-0.188,0.057-0.371,0.12-0.561,0.172l-0.572,0.128
				c-0.764,0.177-1.514,0.268-2.287,0.328c-0.768,0.057-1.547,0.036-2.322-0.036c-0.777-0.089-1.547-0.252-2.297-0.492
				c-0.105-0.039-0.211-0.077-0.318-0.116c-1.754-0.707-3.367-1.822-4.619-3.261l-0.221-0.255c-1.473-1.87-2.4-4.104-2.768-6.395
				c-0.018-0.109-0.035-0.219-0.053-0.333c-0.15-1.055-0.186-2.128-0.107-3.192c0.025-0.266,0.045-0.528,0.078-0.799l0.057-0.406
				l0.074-0.396c0.045-0.266,0.113-0.518,0.168-0.776c0.066-0.255,0.127-0.51,0.197-0.762c0.029-0.1,0.059-0.201,0.088-0.302
				c0.533-1.354,1.018-2.711,1.557-4.06c0.541-1.341,1.635-3.077,2.139-4.123c0.596-1.229,1.215-2.445,2.031-3.538
				c0.814-1.096,1.74-2.108,2.707-3.076c0.078-0.077,0.154-0.155,0.234-0.233c0.781-0.788,1.588-1.579,2.48-2.286
				c2.869-1.833,5.996-2.896,6.178-2.968c0.352-0.147,0.725-0.276,1.119-0.352c0.393-0.075,0.813-0.097,1.23-0.023
				c0.418,0.074,0.842,0.241,1.201,0.562c0.178,0.159,0.342,0.358,0.453,0.603c0.109,0.242,0.17,0.545,0.098,0.826
				c-0.063,0.282-0.271,0.491-0.482,0.549C110.739,59.933,109.901,59.39,109.714,59.351z"/>
			<path d="M76.147,86.019c0.01,0.063,0.033,0.146,0.053,0.23c0.01,0.043,0.018,0.086,0.021,0.13c-0.049,0.34-0.217,0.51-0.387,0.68
				c-0.338,0.17-0.846,0-1.031-0.501c-0.014-0.034-0.027-0.068-0.039-0.104c-0.012-0.04-0.355-1.154,0.395-1.426
				c0.043-0.016,0.086-0.024,0.129-0.03c0.209-0.023,0.383,0.067,0.512,0.218C75.827,85.245,76.142,85.974,76.147,86.019z"/>
		</g>
	</g>
	
		<rect x="4.899" y="7.71" fill="none" stroke="#9FA0A0" stroke-width="2" stroke-miterlimit="10" width="155.906" height="155.905"/>
</g>
</svg>
