<?xml version="1.0" encoding="utf-8"?>
<!-- Generator: Adobe Illustrator 16.0.0, SVG Export Plug-In . SVG Version: 6.00 Build 0)  -->
<!DOCTYPE svg PUBLIC "-//W3C//DTD SVG 1.1//EN" "http://www.w3.org/Graphics/SVG/1.1/DTD/svg11.dtd">
<svg version="1.1" id="圖層_1" xmlns="http://www.w3.org/2000/svg" xmlns:xlink="http://www.w3.org/1999/xlink" x="0px" y="0px"
	 width="1516px" height="1417.32px" viewBox="0 0 1516 1417.32" enable-background="new 0 0 1516 1417.32" xml:space="preserve">
<g>
	<g>
		<path d="M763.982,1346.455c-86.096,0-169.624-16.865-248.264-50.127c-75.95-32.124-144.157-78.109-202.727-136.679
			c-58.568-58.569-104.555-126.776-136.678-202.726c-33.263-78.641-50.128-162.168-50.128-248.264
			c0-86.095,16.865-169.624,50.128-248.263c32.123-75.95,78.109-144.157,136.678-202.726
			c58.569-58.57,126.776-104.555,202.727-136.679c78.64-33.262,162.168-50.127,248.264-50.127s169.623,16.865,248.263,50.127
			c75.95,32.125,144.157,78.109,202.727,136.679c58.568,58.569,104.555,126.776,136.678,202.726
			c33.263,78.64,50.128,162.168,50.128,248.263c0,86.096-16.865,169.623-50.128,248.264
			c-32.123,75.949-78.109,144.156-136.678,202.726c-58.569,58.569-126.776,104.555-202.727,136.679
			C933.605,1329.59,850.078,1346.455,763.982,1346.455z M763.982,99.901c-335.671,0-608.76,273.088-608.76,608.759
			s273.089,608.759,608.76,608.759s608.759-273.088,608.759-608.759S1099.653,99.901,763.982,99.901z"/>
	</g>
	<path d="M805.698,742.445c-0.697-1.582-2.444-4.275-3.812-6.102c-2.23-3.096-6.624-7.426-9.229-8.783
		c-0.111-0.12-0.238-0.223-0.352-0.303c-2.89-2.017-6.193-3.757-8.911-6.521l-0.349-0.372c-1.231-1.318-7.569-7.252-8.221-8.188
		c-1.572-2.25-2.391-4.02-3.073-6.054c-0.314-1.098-0.563-2.191-0.705-3.33c-0.493,0.789-1.184,1.497-2.147,1.963
		c-3.049,1.478-9.809-1.635-13.67-3.05c-0.96-0.333-3.319-0.81-5.71,0.572c-0.185,0.366-0.185,0.645-0.305,1.208h-0.006
		l-0.017,0.032c0.104,0.238,0.199,0.468,0.287,0.707c0.016,0.015,0.079,0.158,0.127,0.292l0.262,0.501
		c0.135,0.342,0.469,0.762,0.667,1.152l0.206,0.302c1.844,1.779,4.347,3.605,6.547,5.845l0.324,0.326
		c7.809,6.617,11.342,13.503,13.306,16.323l0.285,0.419c1.905,4.251,4.917,8.078,6.489,12.901l0.125,0.529
		c0.373,2.594,0.702,5.222,0.812,7.88c1.468,1.905,3.391,4.266,6.173,6.166c1.112,0.611,5.719,4.082,7.051,4.771
		c1.321,0.693,5.633,1.796,7.549,1.326c1.253-0.125,3.478-1.238,4.146-2.144l0.149-0.182c0.272-0.253,0.39-0.659,0.596-0.961
		c0.12-0.405,0.31-0.685,0.405-1.112c0.082-0.19,0.138-0.365,0.225-0.549c0.078-0.199,0.127-0.404,0.22-0.604
		c0.191-0.365,0.343-0.825,0.612-1.224l0.128-0.246c0.119-0.253,0.197-0.618,0.269-0.912c0.312-1.032,0.604-3.669,0.557-6.633
		C806.668,746.75,806.551,744.326,805.698,742.445z"/>
	<path d="M704.352,455.317c0.041,0.015,0.094,0.034,0.155,0.056C704.458,455.354,704.403,455.335,704.352,455.317z"/>
	<path d="M678.36,583.898c6.051-14.846,11.524-29.914,16.322-45.084c4.772-15.155,8.991-30.428,11.875-45.639l0.699-3.861
		c1.175-7.021,2.001-14.161,1.745-20.897c-0.125-3.335-0.57-6.616-1.533-9.174c-0.459-1.248-1.048-2.327-1.65-2.931
		c-0.441-0.464-0.832-0.743-1.307-0.936c-0.127-0.053-0.263-0.095-0.403-0.133c-0.033-0.01-0.063-0.021-0.098-0.03
		c-0.178-0.043-0.369-0.077-0.582-0.1c-0.208-0.039-0.478-0.023-0.701-0.039c-0.143,0.055-0.262,0-0.411,0.071
		c-0.524,0.095-1.288,0.461-2.169,1.232c-1.757,1.5-3.534,4.113-4.996,6.941c-2.964,5.727-5.139,12.391-7.164,19.095
		c-0.383,1.294-0.748,2.549-1.105,3.813c-3.319,11.945-5.662,24.345-7.615,36.831c-1.955,12.486-3.441,25.101-4.718,37.769
		l-0.422,3.979c-1.214,11.836-2.125,23.693-2.713,35.579c1.811-4.172,3.584-8.357,5.271-12.568
		C677.28,586.487,677.812,585.192,678.36,583.898z"/>
	<path d="M890.521,818.762c-1.31,15.424-0.74,47.973,1.111,65.081c0,0,32.725,1.151,32.725-32.962
		C924.357,818.552,890.521,818.762,890.521,818.762z"/>
	<path d="M772.094,860.221c0,0,1.121-19.104-12.264-19.104c-13.392,0-13.566,19.104-13.566,19.104
		C754.627,860.855,764.841,861.175,772.094,860.221z"/>
	<path d="M475.952,856.55c-28.443-1.579-15.433,33.28,2.787,25.403C482.085,877.441,480.227,859.903,475.952,856.55z"/>
	<path d="M525.508,577.829l1.375-3.875c3.025-8.729,5.798-17.522,7.975-26.362c1.079-4.433,2.008-8.864,2.698-13.28
		c0.677-4.409,1.115-8.809,1.026-12.995c0-2.097-0.215-4.083-0.548-5.934c-0.334-1.843-0.938-3.407-1.58-4.464
		c-0.692-1.056-1.232-1.469-2.067-1.754c-0.491-0.224-0.707-0.191-0.977-0.191c-0.245,0.023-0.563,0.111-0.983,0.333
		c-0.865,0.485-2.091,1.597-3.154,3.107c-1.08,1.477-2.088,3.28-2.994,5.177c-1.817,3.813-3.249,8.086-4.465,12.447
		c-0.341,1.216-0.666,2.438-0.978,3.662c-3.034,12.311-4.668,25.242-5.796,38.166c-1.109,12.707-1.654,25.476-1.98,38.194
		C517.848,599.516,522.093,588.763,525.508,577.829z"/>
	<path d="M1075.618,771.243c0.004-0.002,0.009-0.003,0.009-0.003c0.01-0.003,0.013-0.003,0.018-0.005
		C1075.636,771.237,1075.627,771.24,1075.618,771.243z"/>
	<path d="M1075.049,771.396c0.089-0.022,0.148-0.037,0.2-0.05c0.123-0.033,0.246-0.071,0.369-0.104
		C1075.428,771.293,1075.239,771.346,1075.049,771.396z"/>
	<path d="M1156.63,646.956l-2.558-0.262c-1.787-0.127-3.568-0.263-5.345-0.389l-5.403-0.295c-0.49-0.024-1.007-0.048-1.525-0.072
		c-9.666-0.42-19.434-0.611-29.221-0.714c-0.483-0.008-0.975-0.016-1.477-0.016c-3.049-0.5-6.092-0.73-9.158-0.826l-1.58-0.025
		c-0.262-0.007-0.53,0-0.798,0c-0.513,0.025-1.044,0.049-1.482,0.12l0.055,1.979l0.018,0.459v0.214l-0.031,0.708
		c-0.057,0.96-0.131,1.929-0.207,2.891c-0.287,3.837-0.755,7.649-1.588,11.397c0,0-2.083,27.633-4.83,40.485
		c-0.113,0.525-0.207,1.048-0.31,1.572c-0.477,2.646-0.955,5.299-1.438,7.959c-0.231,1.342-0.531,2.693-0.794,4.051l-0.113,0.509
		l-0.038,0.237c-0.023,0.071-0.016,0.063-0.023,0.081v0.197c0.008,0.12,0,0.271,0,0.39l-0.033,0.706v0.07
		c0,0.018,0.073,0.018,0.095,0.041l0.208,0.048c0.128,0.041,0.27,0.072,0.38,0.088l0.684,0.145c0,0,21.978,5.131,39.852,8.813
		c2.797-3.202,5.266-6.797,7.448-10.586c0.256-0.403,0.47-0.818,0.71-1.223c3.674-5.625,6.494-11.811,8.782-18.197
		c2.296-6.379,4.073-12.947,5.735-19.508c0.129-0.484,0.245-0.953,0.356-1.413c2.423-7.784,3.974-15.942,4.854-24.051l0.133-1.431
		l0.16-1.183l0.057-0.366l0.031-0.207l0.128-0.778c0.061-0.388,0.104-0.786,0.15-1.207c-0.333-0.159-0.771-0.239-1.199-0.317
		C1157.109,647.02,1156.875,646.996,1156.63,646.956z"/>
	<path d="M802.627,1176.657c-1.99-1.72-4.293-2.489-6.907-2.308c-2.636,0.182-4.821,1.262-6.556,3.238s-2.513,4.262-2.334,6.849
		c0.176,2.544,1.26,4.671,3.248,6.379c1.99,1.711,4.303,2.472,6.939,2.29c2.635-0.182,4.815-1.256,6.54-3.221
		c1.725-1.966,2.499-4.221,2.323-6.767C805.702,1180.531,804.617,1178.376,802.627,1176.657z"/>
	<path d="M706.309,1155.967c-3.64-0.471-6.688,1.051-9.146,4.563c-2.077,2.947-3.415,6.737-4.015,11.372s-0.272,8.651,0.984,12.05
		c1.481,4.022,4.043,6.271,7.681,6.74c3.64,0.472,6.688-1.05,9.146-4.562c2.08-2.969,3.419-6.771,4.019-11.405
		c0.601-4.633,0.271-8.639-0.987-12.017C712.507,1158.686,709.947,1156.437,706.309,1155.967z"/>
	<path d="M875.073,1167.814c-1.908-0.914-4.118-1.084-6.632-0.517l-7.412,1.676l3.263,14.439c0.405-0.09,1.067-0.229,1.989-0.414
		c1-0.226,1.768-0.399,2.301-0.521c3.514-0.794,6.078-1.777,7.694-2.947c2.369-1.699,3.229-3.986,2.579-6.863
		C878.346,1170.411,877.085,1168.794,875.073,1167.814z"/>
	<path d="M864.491,1160.668c5.56-1.257,7.921-3.736,7.083-7.444c-0.342-1.512-1.176-2.677-2.503-3.496s-2.757-1.057-4.29-0.71
		l-7.86,1.777l2.448,10.83c0.366-0.061,1.15-0.203,2.354-0.431C862.865,1161.003,863.789,1160.827,864.491,1160.668z"/>
	<path d="M1092.992,1039.738c0.092-2.424-0.688-4.492-2.341-6.205c-1.666-1.731-3.721-2.596-6.16-2.594
		c-2.44,0.002-4.564,0.858-6.372,2.57l-5.448,5.25l12.047,12.5l5.448-5.251C1091.959,1044.251,1092.901,1042.16,1092.992,1039.738z"
		/>
	<path d="M1035.104,1069.023c-2.148,1.648-2.552,3.351-1.209,5.099c0.97,1.265,2.997,2.187,6.083,2.765
		c0.485-1.912,0.742-3.266,0.768-4.058c0.076-1.516-0.285-2.794-1.082-3.833C1038.549,1067.541,1037.028,1067.551,1035.104,1069.023
		z"/>
	<path d="M1003.009,1098.164c-4.723-1.227-9.224-0.609-13.501,1.852c-4.278,2.46-7.074,6.041-8.391,10.739
		c-1.315,4.699-0.774,9.131,1.62,13.294c2.396,4.166,5.947,6.847,10.654,8.043c4.706,1.197,9.198,0.567,13.477-1.895
		c4.277-2.46,7.083-6.025,8.414-10.697c1.331-4.67,0.8-9.089-1.596-13.252C1011.291,1102.084,1007.732,1099.39,1003.009,1098.164z"
		/>
	<path d="M1046.739,1097.708c0.891,1.159,2.125,1.811,3.703,1.947c1.578,0.14,2.982-0.264,4.213-1.208
		c2.339-1.793,3.946-5.008,4.823-9.643l-13.07-3.102C1045.034,1091.626,1045.145,1095.627,1046.739,1097.708z"/>
	<path d="M763.982,165.646c-299.9,0-543.015,243.115-543.015,543.014c0,299.898,243.114,543.014,543.015,543.014
		c299.897,0,543.014-243.115,543.014-543.014C1306.996,408.761,1063.88,165.646,763.982,165.646z M724.355,702.786
		c0.073,0.35,0.146,0.7,0.169,1.057c-0.397,2.764-1.763,4.146-3.139,5.529c-2.756,1.382-6.878,0-8.388-4.075
		c-0.119-0.278-0.229-0.557-0.324-0.842c-0.096-0.326-2.885-9.388,3.208-11.596c0.358-0.128,0.708-0.198,1.055-0.247
		c1.693-0.191,3.106,0.548,4.164,1.771c0.213,0.239,2.779,6.165,2.828,6.529C723.998,701.428,724.189,702.094,724.355,702.786z
		 M366.452,836.289c-7.624,12.699-18.775,37.895-27.33,51.224c-7.063-18.786-17.665-52.694-26.403-72.956h11.343
		c6.132,13.242,14.695,35.695,18.222,51.438c5.939-13.639,18.212-38.736,24.169-50.81c8.364,13.139,21.383,36.753,28.444,51.444
		c4.09-13.129,12.453-38.83,16.552-50.294h10.222c-5.392,11.242-19.332,52.072-27.895,71.702
		C387.645,874.82,373.705,847.528,366.452,836.289z M423.523,1048.014c-3.227,3.008-6.888,4.093-10.983,3.254
		c-3.62-0.743-6.979-2.777-10.077-6.098c-3.366-3.609-5.582-8.755-6.646-15.435l7.721-1.471c0.625,4.705,2.137,8.536,4.536,11.493
		c3.843,4.119,7.161,4.877,9.956,2.27c2.075-1.936,1.933-5.146-0.429-9.633c-0.52-1.038-1.203-2.28-2.048-3.733
		c-1.748-3.058-2.671-6.063-2.769-9.019c-0.165-4.116,1.357-7.672,4.567-10.664c2.827-2.636,6.308-3.881,10.443-3.738
		c4.613,0.178,8.699,2.174,12.26,5.991c1.354,1.451,2.604,3.303,3.745,5.554c2.196,4.371,2.676,8.358,1.438,11.961l-7.667-0.777
		c0.245-1.272,0.319-2.522,0.224-3.746c-0.285-2.93-1.446-5.505-3.486-7.723c-1.339-1.469-3.072-2.464-5.202-2.986
		c-2.543-0.614-4.63-0.16-6.258,1.357c-2.748,2.562-2.826,6.113-0.232,10.653c1.426,2.489,2.421,4.342,2.98,5.55
		c0.977,2.136,1.609,4.127,1.901,5.977C428.153,1041.276,426.829,1044.93,423.523,1048.014z M472.227,842.595
		c-8.362-5.155-13.375,1.249-13.375,1.249l-4.846-4.291c23.614-9.141,32.353,4.291,32.725,5.442
		c3.163,11.555,3.354,33.064,9.675,43.366l-17.666-1.47c-45.734,8.706-45.734-35.17-2.237-35.486
		C476.502,851.405,474.833,844.168,472.227,842.595z M428.982,1069.906l32.483-35.678l5.957,5.425l-32.482,35.677L428.982,1069.906z
		 M475.618,1068.189l-19.277,25.465l-6.425-4.865l31.188-41.2l5.77,47.191l18.601-24.571l6.477,4.904l-30.525,40.323
		L475.618,1068.189z M541.881,1101.222c-4.272-2.472-8.76-3.121-13.464-1.943c-4.705,1.175-8.255,3.833-10.65,7.971
		c-2.396,4.14-2.929,8.536-1.599,13.19c1.33,4.656,4.131,8.221,8.402,10.692c3.818,2.21,8.104,2.912,12.86,2.106l2.176,7.617
		c-6.949,1.327-13.269,0.344-18.957-2.949c-6.199-3.587-10.259-8.77-12.179-15.543c-1.92-6.775-1.146-13.159,2.321-19.15
		c3.479-6.01,8.63-9.866,15.456-11.567s13.338-0.759,19.537,2.83c5.689,3.293,9.694,8.271,12.018,14.94l-7.689,1.906
		C548.442,1106.799,545.697,1103.432,541.881,1101.222z M566.484,815.185l2.042,3.79c0,0-14.859-1.893-14.859,18.261
		c5.758,0.111,15.796-0.111,20.26-0.724l-1.857,5.346l-17.675-1.161c-1.484,8.198-0.555,35.792,0,47.03h-14.304
		c0.922-11.032,1.484-33.479,0.183-46.29c-7.441-0.628-11.334-0.42-18.967,0.834l4.646-5.759l14.878,0.724
		C540.831,837.235,536.738,817.916,566.484,815.185z M598.689,1129.838l-21.831-9.512l-6.332,14.533l17.776,7.746l-3.112,7.146
		l-17.778-7.744l-3.598,8.258l21.831,9.513l-3.113,7.145l-29.219-12.729l19.271-44.234l29.22,12.73L598.689,1129.838z
		 M618.725,841.437c-7.425-0.628-11.333-0.42-18.96,0.834l4.639-5.759l14.887,0.724c0,0-4.101-19.319,25.646-22.051l2.049,3.79
		c0,0-14.876-1.893-14.876,18.261c5.767,0.111,15.807-0.111,20.261-0.724l-1.849,5.346l-17.668-1.161
		c-1.484,8.198-0.554,35.792,0,47.03h-14.318C619.465,876.694,620.028,854.247,618.725,841.437z M670.191,1158.038
		c-0.611,2.526-3.158,6.178-7.641,10.959c-3.462,3.722-7.125,7.161-10.988,10.313l13.912,3.367l-2.064,8.532l-30.627-7.413
		c6.591-4.674,12.365-9.172,17.321-13.501c7.282-6.324,11.305-11.059,12.064-14.199c0.406-1.676,0.156-3.271-0.746-4.779
		c-0.904-1.512-2.195-2.47-3.871-2.877c-1.783-0.433-3.403-0.049-4.861,1.149c-1.622,1.314-2.816,3.464-3.583,6.446
		c-1.031-2.608-3.05-5.267-6.057-7.972c1.762-3.011,4.145-5.197,7.148-6.559c3.003-1.363,6.086-1.662,9.249-0.897
		c3.926,0.952,6.928,3.145,9.006,6.579C670.532,1150.623,671.111,1154.24,670.191,1158.038z M684.157,814.557l12.837-0.31
		c-1.295,18.27-0.93,55.013,1.118,73.058l-13.955,0.628C684.904,868.616,688.256,821.069,684.157,814.557z M723.099,1175.777
		c-0.913,7.06-3.39,12.674-7.431,16.841c-4.146,4.308-9.078,6.092-14.796,5.351c-5.695-0.737-10.011-3.718-12.945-8.941
		c-2.825-5.055-3.78-11.113-2.867-18.174s3.377-12.652,7.39-16.779c4.139-4.243,9.066-5.994,14.783-5.254
		c5.717,0.738,10.037,3.688,12.96,8.845C723.043,1162.679,724.013,1168.718,723.099,1175.777z M756.983,1201.344l-8.055-0.193
		l1.002-41.522l-8.906-0.215l0.162-6.714l16.963,0.411L756.983,1201.344z M761.878,887.727c-21.381,0-31.047-10.922-31.047-25.093
		c0-14.161,13.748-25.718,29.373-25.718c15.624,0,29.007,11.763,23.615,27.188c-7.991,1.572-22.505,1.684-37.556,0.952
		c0,0-2.239,18.471,18.769,18.471c11.352,0,18.787-9.344,18.787-9.344l3.708,5.663C787.527,879.847,783.262,887.727,761.878,887.727
		z M809.422,1194.912c-3.123,3.582-7.081,5.542-11.875,5.872c-4.901,0.339-9.133-1.03-12.694-4.108
		c-3.562-3.08-5.507-6.979-5.833-11.706c-0.324-4.7,0.826-10.534,3.452-17.498c2.367-6.287,5.229-11.769,8.583-16.44l6.51,3.917
		c-2.669,3.839-4.917,8.056-6.744,12.646c1.627-0.527,3.083-0.837,4.369-0.925c4.793-0.332,8.982,1.074,12.57,4.217
		c3.589,3.141,5.543,7.039,5.866,11.697C813.945,1187.221,812.545,1191.33,809.422,1194.912z M818.235,758.694
		c-0.064,0.208-0.121,0.39-0.175,0.59c-0.97,3.675-2.87,7.625-6.148,10.514l-0.493,0.431c-2.885,1.193-5.307,2.533-7.991,3.463
		c-2.62,0.922-13.604,0.867-15.837-0.018c-2.289-0.873-4.218-2.341-6.108-3.684l-0.47-0.327c-1.947-1.15-4.042-2.339-5.923-3.825
		c-0.626,1.197-1.394,2.367-2.258,3.485c-1.32,1.572-2.853,3.05-4.663,4.153l-0.523,0.334c-2.979,0.643-5.464,1.543-8.142,2.074
		c-2.62,0.524-13.136-0.669-15.203-1.765c-2.089-1.089-3.852-2.646-5.566-4.169l-0.422-0.35c-2.363-1.743-5.022-3.546-7.021-6.021
		c-2.303,3.131-5.167,5.903-8.562,8.108c-2.256,1.479-4.861,2.591-7.644,3.328c-2.611,0.645-5.257,0.914-8.021,0.803
		c-5.496-0.19-10.931-2.367-15.084-5.504c-1.294-0.962-2.492-2.011-3.613-3.091c-5.353-4.987-8.96-10.896-11.898-16.83
		c-2.915-5.975-5.123-12.081-6.966-18.221c-0.405-1.367-0.795-2.741-1.185-4.131c-3.383-11.635-5.543-23.495-7.093-35.377
		c-1.541-11.899-2.437-23.821-2.915-35.766l-0.123-3.465c-2.559,4.639-5.149,9.263-7.819,13.854
		c-0.69,1.175-1.398,2.351-2.089,3.534c-10.326,16.482-21.072,32.694-33.488,47.857c-6.234,7.552-12.906,14.859-20.484,21.46
		c-3.812,3.287-7.855,6.396-12.247,9.152c-4.416,2.724-9.191,5.162-14.512,6.741c-1.51,0.453-3.065,0.827-4.67,1.138
		c-3.327,0.53-7.014,0.713-10.572,0.197c-3.581-0.483-7.1-1.628-10.255-3.247c-6.369-3.289-11.197-8.199-15.044-13.329
		c-3.835-5.195-6.781-10.724-9.284-16.338c-2.485-5.618-4.519-11.352-6.251-17.126c-0.405-1.358-0.803-2.716-1.167-4.082
		c-3.804-14.542-6.084-29.214-7.627-43.86c-0.06-0.572-0.109-1.144-0.166-1.715c-3.812,6.429-7.752,12.778-11.794,19.054
		c-0.779,1.207-1.558,2.399-2.335,3.606c-7.777,12.113-16.014,24.147-25.061,35.709c-9.062,11.543-28.88,31.646-33.526,35.172
		c-14.908,11.296-24.233,18.15-44.963,24.829c-4.719,1.035-14.021,1.898-19.104,1.463c-2.541-0.183-5.162-0.741-7.808-1.678
		c-2.614-0.96-5.385-2.436-7.728-5.003c-0.58-0.635-1.104-1.391-1.589-2.099c-0.468-0.745-0.834-1.611-1.184-2.405
		c-0.302-0.833-0.492-1.708-0.675-2.542c-0.111-0.843-0.104-1.691-0.111-2.493c0.199-3.226,1.477-5.662,2.891-7.626
		c3.034-3.797,7.625-9.586,11.199-7.046c2.454,1.748,2.741,4.124-1.517,9.811c-0.659,0.867-0.635,2.367-0.778,2.834
		c-0.057,0.835,0.039,1.168,0.223,1.496c0.183,0.323,0.674,0.81,1.605,1.294c0.968,0.467,2.279,0.834,3.669,1.111
		c2.89,0.478,6.202,0.478,9.515,0.144c3.345-0.333,6.728-0.992,10.047-1.892c3.321-0.872,6.601-1.995,9.738-3.287
		c1.573-0.651,3.106-1.351,4.607-2.09c1.461-0.722,3.019-1.597,4.56-2.463c6.203-3.438,12.279-7.353,18.458-11.317
		c1.041-0.89,2.066-1.756,3.089-2.63c10.63-9.333,20.113-20.095,28.875-31.389c8.776-11.295,16.877-23.114,24.772-35.076
		c0.778-1.192,1.525-2.352,2.272-3.512c7.393-11.421,14.46-23.128,20.986-35.14c-0.291-6.374-0.459-12.745-0.503-19.109
		c0-1.406,0-2.813,0-4.257c0.047-13.447,0.659-26.935,1.945-40.422c1.336-13.478,3.25-26.958,6.713-40.381
		c0.349-1.35,0.723-2.691,1.128-4.042c1.596-4.607,3.351-9.206,5.671-13.774c1.175-2.279,2.471-4.566,4.146-6.806
		c1.659-2.2,3.661-4.464,6.655-6.243c1.502-0.865,3.297-1.548,5.22-1.803c1.904-0.262,3.931-0.087,5.598,0.453
		c0.853,0.245,1.7,0.492,2.503,0.953c0.818,0.413,1.637,0.834,2.319,1.407c0.724,0.555,1.455,1.12,1.994,1.771
		c0.588,0.659,1.19,1.295,1.604,1.986c1.891,2.748,2.884,5.615,3.479,8.3c0.174,0.699,0.308,1.366,0.405,2.025
		c0.103,0.667,0.237,1.334,0.315,2.001c0.112,1.303,0.296,2.645,0.311,3.923c0.224,5.156-0.135,10.12-0.747,14.996
		c-0.644,4.87-1.549,9.626-2.621,14.33c-2.184,9.381-5.073,18.475-8.497,27.299l-1.573,3.884
		c-4.75,17.22-11.645,33.726-19.563,49.626c-1.082,2.16-2.187,4.307-3.308,6.445c0.769,8.472,1.716,16.851,2.798,25.167
		c1.614,12.264,3.432,24.432,5.647,36.679l1.081,3.75c1.604,5.313,3.423,10.509,5.584,15.479c2.159,4.957,4.63,9.698,7.584,13.886
		c2.932,4.169,6.355,7.767,10.175,10.022c3.822,2.326,8.008,3.216,12.613,2.78c1.161-0.166,2.271-0.391,3.399-0.705
		c4.02-1.09,8.031-2.964,11.844-5.34c3.845-2.35,7.514-5.186,11.04-8.236c7.054-6.139,13.502-13.216,19.596-20.612
		c12.184-14.852,22.985-30.968,33.622-47.124l2.16-3.591c5.822-9.763,11.334-19.75,16.532-29.898
		c-0.107-23.438,0.837-46.643,3.086-69.857c0.144-1.412,0.303-2.818,0.438-4.249c1.104-11.898,2.613-23.725,4.607-35.495
		c1.992-11.756,4.446-23.448,7.761-35.036c0.389-1.366,0.801-2.717,1.214-4.091c2.159-7.292,4.583-14.591,8.293-21.819
		c1.913-3.598,4.059-7.236,7.546-10.715c1.771-1.7,3.963-3.423,6.94-4.52c1.502-0.548,3.161-0.897,4.861-0.938
		c0.803-0.008,1.462,0.032,2.217,0.086c0.755,0.112,1.479,0.183,2.257,0.39c1.508,0.317,3.041,0.977,4.438,1.771
		c1.381,0.842,2.653,1.843,3.662,2.962c2.105,2.226,3.305,4.64,4.217,6.928c1.732,4.575,2.241,8.832,2.495,12.946
		c0.42,8.197-0.404,15.902-1.564,23.471l-0.723,4.314c-2.28,14.964-6.243,29.276-10.678,43.311
		c-4.453,14.035-9.451,27.778-14.422,41.542c-0.873,2.445-1.795,4.876-2.781,7.283c-0.498,1.208-0.993,2.408-1.525,3.599
		c-6.363,12.976-12.748,25.927-19.37,38.771c0.012,6.299,0.116,12.608,0.356,18.933c0.031,1.421,0.07,2.78,0.119,4.145
		c0.446,12.575,1.351,25.1,2.923,37.53c1.571,12.399,3.756,24.75,7.141,36.594c0.383,1.263,0.778,2.518,1.184,3.772
		c1.652,4.979,3.558,9.841,5.909,14.337c2.327,4.463,5.124,8.601,8.301,11.626c0.746,0.723,1.469,1.439,2.232,2.044
		c2.454,2.009,4.908,3.178,7.601,3.557c1.358,0.191,2.789,0.184,4.322-0.07c0.833-0.09,1.388-0.316,2.008-0.461
		c0.158-0.057,0.318-0.07,0.478-0.136l0.482-0.214l0.962-0.438c2.613-1.311,5.146-3.652,7.021-6.481
		c1.883-2.858,3.156-6.21,3.758-9.714c0.135-1.135,0.422-2.201,0.477-3.313c0.04-1.111,0.144-2.225,0.158-3.351
		c-0.071-0.605-0.118-1.241-0.182-1.854l-0.19-1.857l-0.443-1.85c-0.112-0.668-0.216-1.335-0.328-1.994
		c-1.19-5.958-3.263-11.399-1.285-16.442c0.268-0.428,0.587-0.786,0.937-1.088c1.08-0.841,2.564-0.945,4.52,0.382
		c0.707,0.81,1.414,1.741,2.121,2.733c0.682,1.017,1.222,2.168,1.826,3.296c1.271,2.247,2.114,4.766,3.114,6.988
		c0.349,0.899,0.54,1.853,0.755,2.788l0.794,3.544c0.158,1.214,0.27,2.43,0.403,3.645c0.215,1.502,0.17,3.017,0.152,4.552
		l-0.04,2.304c-0.104,0.754-0.189,1.532-0.295,2.295c-0.104,1.191-0.273,2.381-0.501,3.564c1.156,1.794,2.259,4.314,3.232,5.618
		c2.178,2.922,7.833,6.76,9.048,7.583c1.2,0.827,7.149,1.583,8.431,1.622c1.27,0.07,2.49-0.208,3.278-0.978l0.159-0.142
		c1.126-1.025,1.359-2.408,2.534-3.772l0.15-0.2c0.135-0.196,1.406-4.898,1.446-6.886c0.008-0.097-0.017-0.35-0.017-0.35
		c-0.144-1.944-0.468-3.74-0.206-5.839c-0.024-0.118-0.056-0.245-0.095-0.349c-0.637-1.597-1.542-3.089-2.454-4.592
		c-0.867-1.532-1.62-3.104-1.908-5.154l-0.183-0.382c-1.151-2.312-2.66-4.621-4.853-6.281c-0.096-0.127-0.181-0.246-0.271-0.334
		c-2.352-2.336-5.146-4.28-7.371-6.95l-0.278-0.342c-0.989-1.221-2.019-2.484-3.15-3.672c-1.146-1.19-2.988-1.751-4.34-3.15
		l-0.363-0.384c-0.574-0.641-1.145-1.253-1.702-2.021l-0.84-1.162c-0.295-0.451-0.549-0.89-0.866-1.501
		c-0.303-0.563-0.524-1.158-0.749-1.778c-0.229-0.596-0.411-1.201-0.516-1.835c-0.341-1.263-0.19-2.566-0.175-3.86l0.121-0.651
		c0.054-0.285,0.143-0.659,0.183-0.818c0.31-1.223,0.818-2.621,1.468-3.917c0.661-1.27,1.473-2.461,2.425-3.494
		c0.927-1.057,2.057-1.914,3.247-2.661c1.216-0.698,2.51-1.263,3.883-1.62c0.279-0.072,0.55-0.096,0.828-0.143
		c1.245-0.208,2.518-0.247,3.779-0.191c1.265,0.064,2.242,0.238,3.202,0.421c1.907,0.381,3.654,0.914,5.299,1.541l0.556,0.167
		c4.431,1.406,9.412,4.879,11.021,6.431c0.261-0.951,0.605-1.919,1.004-2.793c0.674-1.318,1.461-2.582,2.455-3.653
		c1.96-2.193,4.552-3.71,7.354-4.584c0.295-0.08,0.563-0.12,0.835-0.166c2.51-0.477,4.653-0.413,6.783-0.112
		c2.113,0.311,4.073,0.882,5.932,1.661l0.613,0.214c1.628,0.62,4.71,2.589,6.22,3.629c4.732,3.273,4.783,8.531,1.874,11.66
		c-0.294,0.326-1.161,1.788-4.186,1.739c-1.431-0.015-4.673-3.217-6.998-4.669c-0.905-0.572-1.897-0.747-2.757-1.063l-0.287-0.097
		c-1.77-0.127-4.209-0.564-5.257,0.301c-0.118,0.16-0.158,0.351-0.191,0.534c-0.048,0.19-0.032,0.301-0.081,0.642
		c-0.012,0.056-0.021,0.12-0.021,0.192c-0.031,2.19,0.144,3.256,1.271,4.542c1.438,1.652,3.525,3.289,5.647,5.226
		c0,0,4.2,2.686,7.783,5.775c0.771,0.666,5.448,5.839,7.998,8.213l0.368,0.341c1.404,1.964,3.104,3.655,4.74,5.567
		c1.635,1.884,3.321,3.917,4.504,6.315l0.246,0.524c0.954,3.082,1.857,6.212,2.24,9.412l0.038,0.563
		C819.576,751.277,819.044,755.081,818.235,758.694z M835.612,1203.772l-3.458-2.103l0.196-5.162l-0.98-6.609l7.421-1.1l1.018,6.868
		L835.612,1203.772z M832.626,868.22c-4.272,0-7.727-3.448-7.727-7.729c0-4.258,3.454-7.712,7.727-7.712
		c4.264,0,7.729,3.454,7.729,7.712C840.355,864.771,836.89,868.22,832.626,868.22z M883.926,1182.469
		c-2.479,3.293-6.011,5.456-10.59,6.492l-15.271,3.45l-10.635-47.061l15.72-3.555c3.599-0.812,6.946-0.265,10.042,1.645
		c3.095,1.908,5.038,4.608,5.828,8.104c0.678,3.002,0.195,6.066-1.449,9.191c4.756,2.127,7.667,5.544,8.73,10.251
		C887.263,1175.245,886.471,1179.074,883.926,1182.469z M923.657,1174.67l-7.677,2.555l-7.236-21.758l-25.052-18.353l9.301-3.092
		l17.052,12.611l6.174-20.336l9.215-3.064l-9.012,29.68L923.657,1174.67z M878.249,887.838c1.112-19.842,0.191-52.484-1.851-73.591
		c0,0,61.897-2.104,61.897,36.634C938.296,892.564,878.249,887.838,878.249,887.838z M969.72,836.605h13.001v16.689
		c0,0,9.5-13.646,22.511-17.006l4.282,3.05c0,0-22.701,11.438-25.298,27.19c-2.599,15.74-0.55,21.197-0.55,21.197H968.79
		C971.196,872.817,971.196,849.514,969.72,836.605z M1025.453,1136.889c-5.063,0.218-10,1.709-14.808,4.475
		c-3.028,1.742-5.47,4.594-7.322,8.558l-5.699-4.393c0.761-1.699,1.827-3.457,3.198-5.279c-5.435,0.406-10.359-0.458-14.773-2.591
		c-4.414-2.136-7.847-5.331-10.296-9.593c-3.473-6.036-4.246-12.45-2.319-19.24s5.995-11.968,12.204-15.539
		c6.208-3.57,12.727-4.479,19.554-2.728c6.828,1.754,11.979,5.651,15.452,11.688c2.525,4.393,3.566,9.104,3.121,14.133
		c-0.444,5.03-2.335,9.813-5.669,14.353c2.401-0.249,4.793-0.491,7.176-0.728c2.394-0.396,4.771-1.322,7.131-2.779l0.931,7.136
		C1030.51,1135.933,1027.883,1136.777,1025.453,1136.889z M1076.406,1090.477l-8.935-0.99c-2.108,7.369-5.156,12.58-9.142,15.637
		c-2.756,2.112-5.927,3.074-9.515,2.881c-3.741-0.213-6.635-1.654-8.681-4.322c-3.469-4.522-4.112-11.033-1.934-19.529
		c-4.89-0.708-8.431-2.49-10.624-5.351c-2.021-2.634-2.659-5.403-1.917-8.313c0.679-2.667,2.379-5.043,5.099-7.13
		c2.582-1.979,5.313-2.903,8.192-2.774c3.05,0.139,5.531,1.455,7.445,3.95c2.299,2.997,2.737,7.407,1.315,13.229l13.511,3.141
		c-0.025-2.652-0.378-5.697-1.062-9.135l7.437-1.66c0.867,4.645,1.222,8.563,1.065,11.765l9.245,1.124L1076.406,1090.477z
		 M1051.148,887.727h-13.568c1.106-12.279,1.847-37.998,0.368-51.438h13.566C1049.656,849.201,1050.029,874.923,1051.148,887.727z
		 M1044.261,829.047c0-0.32-7.434-10.399-7.434-10.399h14.504C1051.331,818.647,1044.261,829.363,1044.261,829.047z
		 M1095.168,1073.715l-33.481-34.74l11.273-10.866c3.302-3.183,7.22-4.758,11.752-4.727c4.532,0.029,8.344,1.648,11.436,4.855
		c3.091,3.207,4.563,7.071,4.418,11.595c-0.145,4.521-1.892,8.365-5.239,11.531l-5.448,5.251l11.092,11.508L1095.168,1073.715z
		 M1121.055,848.044c0.548-7.027-20.453-10.92-21.392,0c-1.11,12.063-2.413,27.823-0.373,39.683l-13.933-0.318
		c1.48-12.588,1.48-36.957-1.302-50.284l17.275,1.787c9.127-4.187,31.613-3.044,33.298,7.561c1.483,9.761,1.483,41.255,1.483,41.255
		h-13.209C1124.023,877.749,1123.65,859.282,1121.055,848.044z M1149.376,1015.854l-15.922-4.563l-10.713,12.646l7.147,14.927
		l-5.656,6.679l-25.382-52.743l56.204,16.349L1149.376,1015.854z M1165.946,681.078c-1.77,7.284-3.677,14.599-6.33,21.7
		c-2.622,7.078-6.038,13.966-10.651,20.057c-0.278,0.468-0.601,0.913-0.898,1.381c-2.833,4.384-5.938,8.628-9.388,12.667
		c-3.438,4.054-7.226,7.904-11.517,11.417c-0.507,0.334-0.983,0.674-1.455,1.016c-0.675,0.509-1.422,0.932-2.119,1.404
		c-0.708,0.454-1.453,0.947-2.089,1.298l-3.946,2.287c-1.305,0.803-2.668,1.501-3.995,2.231c-1.336,0.73-2.67,1.485-4.046,2.159
		c-5.376,2.846-10.969,5.313-16.697,7.35l-1.45,0.496c-5.157,1.742-10.392,3.3-15.732,4.699c-0.194,0.059-0.261,0.078-0.383,0.107
		c-5.202,1.425-10.322,3.529-15.807,4.538c-0.542,0.085-1.064,0.165-1.599,0.246c-9.848,1.628-20.151,2.184-30.356,0.633
		l-1.597-0.284c-11.152-2.168-21.827-6.322-31.785-11.985c-0.495-0.312-0.947-0.596-1.416-0.899
		c-1.336-0.839-2.643-1.723-3.934-2.625c-4.253,2.826-8.68,5.422-13.318,7.679l-2.492,1.071l-4.465,1.732
		c-1.47,0.578-3.035,0.955-4.552,1.444c-1.525,0.463-3.027,0.977-4.565,1.398l-4.656,1.039c-6.204,1.439-12.312,2.179-18.594,2.671
		c-6.252,0.46-12.588,0.294-18.896-0.294c-6.313-0.723-12.582-2.049-18.673-4.005c-0.859-0.314-1.724-0.626-2.598-0.944
		c-14.257-5.751-27.387-14.82-37.568-26.521l-1.798-2.072c-11.977-15.21-19.521-33.375-22.502-52.01
		c-0.142-0.889-0.292-1.779-0.435-2.708c-1.223-8.578-1.503-17.306-0.874-25.965c0.206-2.16,0.373-4.297,0.635-6.497l0.469-3.304
		l0.604-3.225c0.366-2.161,0.914-4.209,1.36-6.315c0.538-2.072,1.03-4.146,1.609-6.195c0.229-0.81,0.47-1.637,0.707-2.454
		c4.337-11.017,8.277-22.049,12.661-33.018c4.41-10.906,13.297-25.028,17.396-33.534c4.844-10.001,9.879-19.89,16.521-28.778
		c6.629-8.912,14.152-17.148,22.023-25.02c0.63-0.627,1.257-1.263,1.9-1.898c6.352-6.41,12.915-12.844,20.171-18.593
		c23.337-14.91,48.778-23.551,50.257-24.139c2.858-1.198,5.893-2.248,9.104-2.859c3.191-0.61,6.6-0.786,10.007-0.191
		c3.4,0.604,6.838,1.963,9.77,4.568c1.438,1.294,2.772,2.915,3.679,4.9c0.888,1.97,1.38,4.431,0.803,6.719
		c-0.512,2.296-2.21,3.996-3.933,4.464c-3.243,0.628-10.049-3.789-11.582-4.106c-3.13-0.659-14.329-1.342-30.31,6.124
		c-11.604,5.41-21.651,11.167-28.268,16.561c-6.632,5.409-12.773,11.413-18.945,17.355c-0.603,0.604-1.198,1.183-1.777,1.755
		c-14.568,14.408-28.277,30.746-37.117,49.611l-1.233,2.185c-5.605,9.809-10.929,19.793-15.63,30.126
		c-4.655,10.326-8.841,20.986-11.685,31.97l-0.611,2.271c-0.493,1.899-0.896,3.781-1.351,5.696c-0.355,1.874-0.801,3.78-1.063,5.639
		l-0.446,2.804l-0.31,2.732c-0.175,1.851-0.271,3.781-0.413,5.663c-0.389,7.579-0.116,15.14,0.604,22.614
		c0.088,0.698,0.184,1.39,0.278,2.072c0.128,1,0.278,2.018,0.422,3.026c0.213,1.01,0.419,2.011,0.635,3.036
		c2.145,7.045,4.981,13.652,8.086,20.006c3.136,6.349,6.521,12.503,10.16,18.851l1.508,1.723
		c8.586,9.731,19.246,17.181,30.992,22.692c0.755,0.271,1.495,0.523,2.21,0.795c5.296,1.715,10.769,2.874,16.296,3.447
		c5.576,0.499,11.177,0.58,16.762,0.196c1.405-0.046,2.812-0.268,4.209-0.388c1.39-0.135,2.787-0.238,4.178-0.484l4.186-0.604
		c1.382-0.222,2.701-0.557,4.067-0.812c1.326-0.291,2.707-0.46,4.034-0.841l3.987-1.071l2.011-0.511
		c0.659-0.205,1.303-0.444,1.97-0.673l3.962-1.28c0.756-0.262,1.47-0.635,2.201-0.983c2.353-1.048,4.645-2.252,6.884-3.562
		c-2.726-2.567-5.312-5.288-7.743-8.179l-1.102-1.238c-2.875-3.354-5.647-6.854-8.381-10.575c-0.294-0.466-0.541-0.967-0.803-1.443
		c-1.676-3.152-2.922-6.544-3.993-10.015c-1.067-3.496-1.955-7.055-2.869-10.851c-0.125-0.604-0.191-1.215-0.261-1.818
		c-0.064-0.604-0.129-1.224-0.162-1.843c-0.038-0.341-0.085-0.683-0.116-1.033c-0.081-0.707-0.135-1.422-0.208-2.129
		c0.009-0.405,0.033-0.802,0.065-1.199c0.045-0.851,0.255-1.788,0.523-2.622c0.324-0.881,0.714-1.659,1.357-2.382
		c1.159-1.405,3.122-2.352,5.456-1.939c0.462,0.128,0.913,0.311,1.338,0.549c1.269,0.658,2.389,1.691,3.245,2.573
		c0.137,0.325,0.239,0.651,0.295,0.938c0.071,0.333,0.111,0.644,0.144,0.96c0.056,0.341,0.08,0.667,0.143,1.009
		c0.087,0.341,0.174,0.666,0.311,0.993l0.103,0.754c0.024,0.31,0.087,0.644,0.144,0.977c0.056,0.317,0.095,0.644,0.182,0.977
		c0.095,0.405,0.153,0.81,0.263,1.231c0.095,0.413,0.198,0.834,0.293,1.24c1.063,2.676,1.885,5.375,2.79,8.149
		c0.896,2.755,1.872,5.574,3.151,8.268l0.628,1.231c2.405,3.591,4.918,7.022,7.665,10.23c0.31,0.364,0.604,0.723,0.922,1.08
		c2.7,2.737,5.478,5.379,8.365,7.88c0.282-0.229,0.567-0.451,0.847-0.684c3.051-2.423,5.79-5.257,8.556-8.03l3.898-4.425
		c1.289-1.461,2.424-3.09,3.625-4.646c0.57-0.645,1.103-1.295,1.619-1.931c11.549-15.242,19.912-32.748,27.372-50.255l0.934-2.224
		c3.41-8.167,6.42-16.524,8.871-25.144c2.222-8.112,3.148-16.53,4.514-24.84c0.159-0.826,0.296-1.621,0.406-2.423
		c1.205-7.538,2.057-15.139,2.374-22.573c0.152-3.694,0.206-7.395-0.008-10.834c-0.35-3.566-0.604-7.228-1.271-10.763l-0.319-2.241
		c-1.334-7.791-3.731-15.33-7.386-22.159c-3.655-6.832-8.665-12.876-14.749-17.682c-0.596-0.5-1.161-0.984-1.739-1.469
		c-10.952-8.467-25.068-12.645-39.277-12.47l-2.295,0.087c-6.102,0.405-12.193,1.692-18.033,3.813l-2.149,0.619l-1.756,0.469
		l-1.726,0.564l-3.47,1.072l-3.439,1.262c-1.142,0.406-2.294,0.834-3.408,1.366l-3.366,1.524c-1.113,0.525-2.178,1.176-3.272,1.78
		c-2.201,1.152-4.21,2.653-6.221,4.162c-0.667,0.437-1.309,0.897-1.906,1.367l-1.858,1.39l-0.983,0.81
		c-0.646,0.533-1.279,1.112-1.868,1.74l-1.032,0.875c-3.23,2.453-6.432,4.471-11.511,2.565c-0.482-0.254-0.928-0.547-1.349-0.882
		c-1.229-1.001-2.119-2.39-2.136-4.177c0.991-2.614,3.383-5.107,5.099-7.483l1.192-1.223l1.492-1.517l1.589-1.422l1.993-1.739
		c0.668-0.573,1.304-1.184,2.009-1.732c4.354-3.812,9.184-7.053,14.41-9.444c2.564-1.326,5.275-2.287,7.951-3.335
		c1.333-0.524,2.739-0.881,4.089-1.351c1.375-0.397,2.718-0.905,4.131-1.231l2.55-0.674c7.872-2.542,16.061-3.947,24.288-4.124
		c0.922-0.022,1.835-0.039,2.772-0.055c15.631-0.381,31.786,4.4,44.837,13.876c0.771,0.556,1.581,1.064,2.29,1.691
		c8.315,6.545,15.368,14.599,20.468,23.662c5.106,9.078,8.418,18.968,10.104,28.992c0.144,0.905,0.291,1.835,0.428,2.756
		c0.429,1.93,0.51,3.868,0.747,5.805c0.222,1.915,0.437,3.845,0.468,5.871c0.174,3.994,0,7.807-0.234,11.62
		c-0.542,7.576-1.646,14.957-3.022,22.239l-0.492,2.574c-3.018,18.372-7.64,36.474-14.447,53.908l-0.97,2.486
		c-3.033,8.786-6.94,17.22-11.271,25.402c-4.423,8.164-9.261,16.075-14.29,24.001c-0.892,1.398-1.841,2.788-2.828,4.139
		c-0.475,0.677-1.032,1.312-1.57,1.945c-5.918,6.117-12.17,11.923-18.775,17.34c4.331,2.702,8.975,4.8,13.764,6.409
		c4.925,1.685,10.031,2.773,15.211,3.56c0.459,0.063,0.936,0.151,1.411,0.224c8.039,0.682,16.115,0.729,24.221-0.136l1.421-0.144
		c10.109-1.764,19.959-4.965,29.689-8.602l1.396-0.525c4.654-2.256,9.373-4.24,14.031-6.489c4.629-2.176,9.229-4.652,13.382-7.585
		c0.423-0.345,0.864-0.665,1.312-0.97c-11.953-2.49-31.359-6.329-31.359-6.329c-2.225-0.699-4.653-1.216-6.658-2.2
		c-1.057-0.452-2.104-0.873-3.192-1.349l-1.636-0.725l-0.825-0.35l-0.206-0.086c-0.073-0.032-0.159-0.063-0.112-0.151l0.08-0.406
		l1.247-6.72c0.214-1.151,0.366-2.231,0.707-3.504l0.444-1.857l0.118-0.47l0.04-0.229l0.031-0.117l0.087-0.479l0.74-3.773
		c0.429-2.557,1-5.067,1.524-7.625c0.111-0.508,0.223-1.009,0.317-1.494c2.702-12.151,5.767-24.662,5.473-37.329l0.159-1.527
		l1.295-11.397l0.335-2.844l0.071-0.715l0.118-1.239l0.245-2.612c0.287-3.448,0.563-6.917,0.859-10.374
		c5.188,0.048,10.396,0.087,15.614,0.143c3.123,0.023,6.234,0,9.365-0.095l1.465-0.008c4.418-0.068,8.856-0.208,13.296-0.255
		c1.036-8.471,3.628-28.009,5.604-28.879c3.074-1.334,31.391-9.467,31.391-9.467c4.106-1.247,8.443,1.079,9.676,5.193
		c1.255,4.091-1.08,8.436-5.181,9.675c0,0-21.072,5.45-22.336,6.736c-0.775,0.796-2.399,10.609-3.427,17.278
		c0.117,0.012,0.235,0.018,0.353,0.029c0.462,0.04,0.905,0.08,1.344,0.12c1.341,0.118,2.677,0.214,4.026,0.285
		c1.576-0.111,3.17-0.167,4.75-0.221c0.798-0.008,1.58-0.04,2.378-0.064c0.8,0,1.611,0.016,2.405,0.024l0.603,0.008
		c0.127,0.016,0.15,0,0.357,0.024l0.55,0.03l2.181,0.167c1.464,0.159,2.901,0.405,4.354,0.619c2.885,0.421,5.777,1.017,8.585,1.636
		c-0.109,3.169-0.285,6.339-0.563,9.444l-0.111,1.136l-0.15,1.096c-0.117,0.706-0.23,1.421-0.324,2.136
		c-0.126,0.699-0.265,1.39-0.392,2.088c-0.109,0.485-0.244,0.859-0.389,1.295l-0.118,1.565c-0.831,8.84-2.35,17.562-5.361,25.838
		C1166.195,680.061,1166.073,680.57,1165.946,681.078z M1188.171,864.421c0,0-5.401,2.208-6.713,5.665
		c-1.668,4.416,1.312,13.026,0.755,17.641h-14.322c3.154-18.467,3.719-49.342,2.051-73.376h13.567
		c-0.931,11.018-2.051,34.948,0,43.567c6.886-5.888,18.967-17.961,27.702-23.732l6.133,3.89
		c-4.828,3.782-13.567,10.604-20.263,17.117c5.203,10.072,16.18,23.304,22.876,32.534h-14.131
		C1201.73,880.061,1195.031,870.929,1188.171,864.421z"/>
	<polygon points="1119.018,1016.275 1125.28,1008.879 1113.863,1005.49 	"/>
</g>
</svg>
