<?xml version="1.0" encoding="utf-8"?>
<!-- Generator: Adobe Illustrator 16.0.0, SVG Export Plug-In . SVG Version: 6.00 Build 0)  -->
<!DOCTYPE svg PUBLIC "-//W3C//DTD SVG 1.1//EN" "http://www.w3.org/Graphics/SVG/1.1/DTD/svg11.dtd">
<svg version="1.1" id="圖層_1" xmlns="http://www.w3.org/2000/svg" xmlns:xlink="http://www.w3.org/1999/xlink" x="0px" y="0px"
	 width="370px" height="502px" viewBox="0 0 370 502" enable-background="new 0 0 370 502" xml:space="preserve">
<g>
	<g>
		<g>
			<g>
				<path fill="#ED73C5" d="M171.118,134.749c1.735,10.146,2.324,16.969,3.231,28.92c0.594,6.354,0.578,26.424-7.065,42.668
					c-6.815,17.023-20.898,25.736-20.978,25.23c0-0.035-3.357,2.201-9.19,3.691c-5.523,1.461-15.015,1.742-20.522-3.887
					c-5.667-5.676-0.768-15.535,4.025-21.035c4.945-5.971,10.285-9.762,12.872-11.604c9.936-6.492,15.913-9.732,25.65-13.059
					c-10.283,0.436-17.686,2.48-28.22,9.301c-2.775,1.955-8.423,5.926-13.83,12.455c-2.664,3.273-5.345,7.182-6.803,12.004
					c-1.586,4.658-1.061,11.176,2.932,15.063c7.939,7.707,18.625,6.67,24.96,5.18c6.644-1.693,10.368-4.193,10.368-4.131
					c0.08,0.625,15.908-9.482,22.911-27.344c8.109-17.258,8.069-38.211,7.424-44.805
					C177.894,150.97,175.635,144.017,171.118,134.749z"/>
			</g>
			<g>
				<path fill="#ED73C5" d="M111.15,134.46c-3.601-18.01,6.107-28.277,21.149-41.861c4.261-3.895,13.233-10.453,24.758-19.154
					c5.493-4.77,10.76-10.996,14.083-18.697c3.402-7.352,3.924-18.18-2.813-24.816c-6.425-6.428-14.973-8.127-22.157-9.012
					c-7.274-1.287-14.78,0.504-19.982,2.385c-10.984,3.973-16.65,9.252-16.701,9.111c0.146,0.09-6.449,4.238-12.917,13.98
					c-6.622,9.619-11.307,25.104-10.967,41.463c0.717,16.365,6.548,32.945,15.407,44.584c8.823,11.83,20.521,17.16,26.171,18.695
					c10.644,3.217,19.693,2.838,27.596,0.611c7.545-2.23,15.743-7.615,16.343-17c-2.213,9.02-10.118,12.271-17.165,13.762
					c-7.381,1.324-15.669,1.273-25.41-1.725c-5.206-1.436-15.709-6.195-23.889-17.117c-8.207-10.705-13.819-26.652-14.473-41.961
					c-0.314-15.398,4.116-30.006,10.2-38.814c5.95-8.984,12.021-12.787,11.906-12.877c0.02,0.148,5.261-4.748,15.413-8.402
					c5.242-1.766,10.951-3.342,17.955-2.174c6.745,0.783,14.449,2.602,19.352,7.645c5.077,4.982,4.866,13.199,1.92,19.896
					c-2.934,6.807-7.771,12.605-12.854,16.988c-10.884,8.209-20.531,15.281-24.745,19.186c-8.042,7.143-13.926,13.635-17.456,21.123
					C108.194,117.634,107.722,126.239,111.15,134.46z"/>
			</g>
			<g>
				<path fill="#ED73C5" d="M209.893,134.749c-4.499,9.268-6.754,16.221-7.755,28.648c-0.634,6.594-0.69,27.547,7.432,44.805
					c6.983,17.861,22.832,27.969,22.905,27.344c0-0.063,3.719,2.438,10.363,4.131c6.334,1.49,17.026,2.527,24.969-5.18
					c3.997-3.887,4.528-10.404,2.931-15.063c-1.46-4.822-4.139-8.73-6.792-12.004c-5.412-6.529-11.074-10.5-13.844-12.455
					c-10.543-6.82-17.929-8.865-28.23-9.301c9.75,3.326,15.725,6.566,25.668,13.059c2.584,1.842,7.927,5.633,12.872,11.604
					c4.797,5.5,9.683,15.359,4.039,21.035c-5.524,5.629-15.017,5.348-20.53,3.887c-5.858-1.49-9.217-3.727-9.195-3.691
					c-0.085,0.506-14.171-8.207-20.961-25.23c-7.66-16.244-7.679-36.314-7.078-42.648
					C207.575,151.718,208.173,144.896,209.893,134.749z"/>
			</g>
			<g>
				<path fill="#ED73C5" d="M269.883,134.46c3.422-8.221,2.943-16.826-0.723-24.182c-3.554-7.488-9.412-13.98-17.456-21.123
					c-4.233-3.887-13.859-10.977-24.736-19.186c-5.097-4.383-9.92-10.182-12.86-16.988c-2.965-6.697-3.164-14.914,1.914-19.896
					c4.902-5.043,12.601-6.861,19.355-7.645c7.003-1.168,12.703,0.408,17.957,2.174c10.149,3.66,15.391,8.551,15.401,8.402
					c-0.116,0.09,5.948,3.893,11.902,12.877c6.096,8.809,10.543,23.416,10.204,38.814c-0.625,15.309-6.255,31.256-14.464,41.961
					c-8.181,10.922-18.692,15.682-23.892,17.117c-9.721,2.998-18.031,3.049-25.39,1.725c-7.072-1.49-14.974-4.742-17.202-13.762
					c0.622,9.385,8.817,14.77,16.374,17c7.891,2.227,16.943,2.605,27.569-0.611c5.652-1.535,17.357-6.865,26.174-18.695
					c8.872-11.639,14.704-28.219,15.409-44.584c0.367-16.359-4.335-31.844-10.957-41.463c-6.472-9.742-13.067-13.891-12.93-13.98
					c-0.047,0.141-5.705-5.139-16.688-9.111c-5.204-1.881-12.691-3.672-19.98-2.385c-7.206,0.885-15.743,2.584-22.163,9.012
					c-6.74,6.637-6.214,17.465-2.813,24.816c3.345,7.701,8.574,13.928,14.088,18.697c11.529,8.701,20.486,15.26,24.752,19.154
					C263.775,106.183,273.48,116.45,269.883,134.46z"/>
			</g>
			<g>
				<path fill="#ED73C5" d="M219.726,221.31c-1.437-2.885-2.638-4.889-5.645-7.381c-1.606-1.377-6.947-5.025-12.594-6.617
					c-5.609-1.768-10.993-1.594-10.977-1.672c0.024,0.078-5.364-0.096-10.967,1.672c-5.65,1.592-11.006,5.24-12.596,6.617
					c-3.014,2.492-4.225,4.496-5.646,7.381c2.578-2.002,4.208-3.287,7.076-5.607c1.494-1.268,6.524-4.703,11.835-6.197
					c5.247-1.662,10.323-1.521,10.299-1.598c-0.016,0.076,5.047-0.064,10.309,1.598c5.301,1.494,10.324,4.93,11.842,6.197
					C215.518,218.022,217.151,219.308,219.726,221.31z"/>
			</g>
		</g>
		<g>
			<g>
				<path fill="#ED73C5" d="M209.91,356.259c-1.737-10.145-2.328-16.965-3.233-28.92c-0.598-6.354-0.578-26.414,7.062-42.668
					c6.823-17.02,20.896-25.732,20.976-25.229c0,0.035,3.365-2.193,9.195-3.686c5.523-1.463,15.017-1.742,20.524,3.875
					c5.661,5.682,0.765,15.543-4.027,21.041c-4.951,5.973-10.288,9.764-12.877,11.602c-9.932,6.492-15.908,9.734-25.643,13.063
					c10.277-0.436,17.684-2.48,28.216-9.301c2.775-1.949,8.426-5.928,13.833-12.457c2.664-3.275,5.343-7.18,6.803-12.006
					c1.586-4.652,1.055-11.174-2.931-15.061c-7.943-7.703-18.628-6.672-24.969-5.182c-6.637,1.693-10.363,4.195-10.363,4.137
					c-0.084-0.629-15.909,9.479-22.911,27.34c-8.117,17.264-8.066,38.213-7.426,44.809
					C203.134,340.04,205.389,346.993,209.91,356.259z"/>
			</g>
			<g>
				<path fill="#ED73C5" d="M269.877,356.552c3.603,18.012-6.107,28.273-21.149,41.859c-4.262,3.896-13.233,10.455-24.758,19.152
					c-5.493,4.771-10.758,11.004-14.09,18.699c-3.393,7.352-3.919,18.182,2.813,24.822c6.433,6.426,14.979,8.119,22.159,9.006
					c7.274,1.295,14.782-0.502,19.991-2.385c10.973-3.975,16.645-9.254,16.694-9.113c-0.143-0.082,6.452-4.229,12.924-13.977
					c6.617-9.621,11.302-25.113,10.962-41.463c-0.716-16.365-6.546-32.947-15.407-44.582c-8.825-11.836-20.524-17.166-26.171-18.697
					c-10.642-3.217-19.694-2.838-27.594-0.611c-7.549,2.23-15.743,7.613-16.343,16.996c2.211-9.023,10.113-12.27,17.163-13.76
					c7.381-1.32,15.669-1.271,25.412,1.725c5.2,1.443,15.711,6.199,23.881,17.117c8.214,10.703,13.828,26.654,14.486,41.963
					c0.307,15.4-4.129,30.006-10.204,38.813c-5.959,8.986-12.017,12.789-11.913,12.879c-0.02-0.15-5.263,4.748-15.413,8.4
					c-5.232,1.766-10.946,3.346-17.951,2.178c-6.749-0.787-14.453-2.605-19.35-7.643c-5.077-4.988-4.871-13.201-1.92-19.898
					c2.932-6.805,7.77-12.611,12.855-16.99c10.877-8.203,20.522-15.279,24.742-19.186c8.044-7.141,13.923-13.637,17.452-21.127
					C272.826,373.376,273.305,364.771,269.877,356.552z"/>
			</g>
			<g>
				<path fill="#ED73C5" d="M171.13,356.259c4.503-9.266,6.758-16.219,7.757-28.643c0.64-6.596,0.687-27.545-7.43-44.809
					c-6.989-17.861-22.83-27.969-22.909-27.34c0,0.059-3.717-2.443-10.362-4.137c-6.335-1.49-17.03-2.521-24.967,5.182
					c-3.995,3.887-4.526,10.408-2.934,15.061c1.461,4.826,4.138,8.73,6.803,12.006c5.406,6.529,11.067,10.508,13.837,12.457
					c10.541,6.82,17.929,8.865,28.234,9.301c-9.753-3.328-15.73-6.57-25.67-13.063c-2.587-1.838-7.929-5.629-12.872-11.602
					c-4.795-5.498-9.685-15.359-4.039-21.041c5.524-5.617,15.01-5.338,20.528-3.875c5.858,1.492,9.217,3.721,9.197,3.686
					c0.082-0.504,14.166,8.209,20.96,25.229c7.659,16.254,7.681,36.314,7.076,42.656
					C173.447,339.294,172.847,346.114,171.13,356.259z"/>
			</g>
			<g>
				<path fill="#ED73C5" d="M111.145,356.552c-3.428,8.219-2.949,16.824,0.725,24.178c3.549,7.49,9.408,13.986,17.453,21.127
					c4.235,3.885,13.86,10.982,24.732,19.186c5.104,4.379,9.922,10.186,12.865,16.99c2.959,6.697,3.166,14.91-1.912,19.898
					c-4.908,5.037-12.608,6.855-19.359,7.643c-7.003,1.168-12.708-0.412-17.955-2.178c-10.146-3.656-15.389-8.551-15.409-8.4
					c0.123-0.09-5.948-3.893-11.902-12.879c-6.085-8.807-10.541-23.412-10.202-38.813c0.631-15.309,6.259-31.26,14.47-41.963
					c8.181-10.918,18.69-15.674,23.892-17.117c9.719-2.996,18.023-3.045,25.388-1.725c7.07,1.49,14.973,4.736,17.199,13.76
					c-0.618-9.383-8.815-14.766-16.372-16.996c-7.889-2.227-16.947-2.605-27.566,0.611c-5.655,1.531-17.362,6.861-26.178,18.697
					c-8.872,11.635-14.702,28.217-15.409,44.582c-0.361,16.35,4.334,31.842,10.957,41.463c6.469,9.748,13.067,13.895,12.926,13.977
					c0.047-0.141,5.708,5.139,16.697,9.113c5.2,1.883,12.686,3.68,19.977,2.385c7.206-0.887,15.749-2.58,22.158-9.006
					c6.74-6.641,6.221-17.471,2.819-24.822c-3.35-7.695-8.576-13.928-14.088-18.699c-11.524-8.697-20.486-15.256-24.752-19.152
					C117.246,384.825,107.543,374.563,111.145,356.552z"/>
			</g>
			<g>
				<path fill="#ED73C5" d="M161.296,269.696c1.438,2.889,2.638,4.891,5.652,7.385c1.601,1.381,6.942,5.025,12.59,6.623
					c5.603,1.764,10.993,1.592,10.975,1.666c-0.025-0.074,5.365,0.098,10.971-1.666c5.65-1.598,10.999-5.242,12.59-6.623
					c3.025-2.494,4.228-4.496,5.652-7.385c-2.58,2.006-4.208,3.295-7.079,5.613c-1.496,1.266-6.521,4.701-11.832,6.195
					c-5.25,1.664-10.328,1.523-10.303,1.598c0.018-0.074-5.048,0.066-10.306-1.598c-5.305-1.494-10.328-4.93-11.839-6.195
					C165.509,272.991,163.874,271.702,161.296,269.696z"/>
			</g>
		</g>
	</g>
</g>
</svg>
