<?xml version="1.0" encoding="utf-8"?>
<!-- Generator: Adobe Illustrator 16.0.0, SVG Export Plug-In . SVG Version: 6.00 Build 0)  -->
<!DOCTYPE svg PUBLIC "-//W3C//DTD SVG 1.1//EN" "http://www.w3.org/Graphics/SVG/1.1/DTD/svg11.dtd">
<svg version="1.1" id="圖層_1" xmlns="http://www.w3.org/2000/svg" xmlns:xlink="http://www.w3.org/1999/xlink" x="0px" y="0px"
	 width="230.988px" height="240.563px" viewBox="0 0 230.988 240.563" enable-background="new 0 0 230.988 240.563"
	 xml:space="preserve">
<g>
	<g>
		<path fill="#ED73C5" d="M96.101,124.427c1.734,10.146,2.324,16.969,3.23,28.92c0.595,6.354,0.578,26.424-7.064,42.668
			c-6.815,17.023-20.898,25.736-20.978,25.23c0-0.035-3.357,2.201-9.19,3.691c-5.523,1.461-15.014,1.742-20.522-3.887
			c-5.667-5.676-0.768-15.535,4.026-21.035c4.945-5.971,10.285-9.762,12.872-11.604c9.937-6.492,15.913-9.732,25.65-13.059
			c-10.282,0.436-17.686,2.48-28.22,9.301c-2.775,1.955-8.424,5.926-13.83,12.455c-2.664,3.273-5.345,7.182-6.803,12.004
			c-1.586,4.658-1.061,11.176,2.932,15.063c7.94,7.707,18.626,6.67,24.96,5.18c6.645-1.693,10.368-4.193,10.368-4.131
			c0.079,0.625,15.907-9.482,22.911-27.344c8.109-17.258,8.069-38.211,7.424-44.805C102.876,140.647,100.618,133.694,96.101,124.427
			z"/>
	</g>
	<g>
		<path fill="#ED73C5" d="M36.132,124.138c-3.601-18.01,6.107-28.277,21.15-41.861c4.261-3.895,13.233-10.453,24.758-19.154
			c5.492-4.77,10.76-10.996,14.082-18.697c3.402-7.352,3.925-18.18-2.813-24.816c-6.426-6.428-14.974-8.127-22.158-9.012
			c-7.273-1.287-14.779,0.504-19.982,2.385c-10.984,3.973-16.65,9.252-16.701,9.111c0.146,0.09-6.449,4.238-12.917,13.98
			c-6.622,9.619-11.307,25.104-10.967,41.463c0.717,16.365,6.548,32.945,15.407,44.584c8.823,11.83,20.521,17.16,26.171,18.695
			c10.645,3.217,19.693,2.838,27.597,0.611c7.546-2.23,15.743-7.615,16.343-17c-2.213,9.02-10.118,12.271-17.165,13.762
			c-7.381,1.324-15.669,1.273-25.409-1.725c-5.206-1.436-15.71-6.195-23.89-17.117c-8.207-10.705-13.819-26.652-14.473-41.961
			c-0.314-15.398,4.116-30.006,10.2-38.814c5.95-8.984,12.021-12.787,11.906-12.877c0.02,0.148,5.261-4.748,15.414-8.402
			c5.241-1.766,10.951-3.342,17.954-2.174c6.745,0.783,14.449,2.602,19.352,7.645c5.077,4.982,4.866,13.199,1.921,19.896
			c-2.935,6.807-7.771,12.605-12.854,16.988C68.171,67.856,58.523,74.929,54.31,78.833c-8.042,7.143-13.926,13.635-17.456,21.123
			C33.176,107.312,32.705,115.917,36.132,124.138z"/>
	</g>
	<g>
		<path fill="#ED73C5" d="M134.876,124.427c-4.499,9.268-6.754,16.221-7.755,28.648c-0.634,6.594-0.69,27.547,7.432,44.805
			c6.983,17.861,22.831,27.969,22.905,27.344c0-0.063,3.719,2.438,10.363,4.131c6.334,1.49,17.025,2.527,24.969-5.18
			c3.996-3.887,4.527-10.404,2.93-15.063c-1.459-4.822-4.139-8.73-6.791-12.004c-5.412-6.529-11.074-10.5-13.845-12.455
			c-10.543-6.82-17.929-8.865-28.229-9.301c9.749,3.326,15.725,6.566,25.668,13.059c2.584,1.842,7.926,5.633,12.871,11.604
			c4.798,5.5,9.684,15.359,4.039,21.035c-5.523,5.629-15.018,5.348-20.529,3.887c-5.858-1.49-9.217-3.727-9.195-3.691
			c-0.085,0.506-14.172-8.207-20.961-25.23c-7.66-16.244-7.68-36.314-7.078-42.648C132.558,141.396,133.155,134.573,134.876,124.427
			z"/>
	</g>
	<g>
		<path fill="#ED73C5" d="M194.866,124.138c3.422-8.221,2.943-16.826-0.723-24.182c-3.555-7.488-9.412-13.98-17.457-21.123
			c-4.232-3.887-13.858-10.977-24.735-19.186c-5.097-4.383-9.92-10.182-12.86-16.988c-2.965-6.697-3.163-14.914,1.914-19.896
			c4.902-5.043,12.602-6.861,19.355-7.645c7.003-1.168,12.702,0.408,17.957,2.174c10.148,3.66,15.391,8.551,15.4,8.402
			c-0.115,0.09,5.949,3.893,11.902,12.877c6.096,8.809,10.543,23.416,10.203,38.814c-0.625,15.309-6.255,31.256-14.464,41.961
			c-8.181,10.922-18.692,15.682-23.892,17.117c-9.721,2.998-18.031,3.049-25.391,1.725c-7.072-1.49-14.973-4.742-17.201-13.762
			c0.621,9.385,8.817,14.77,16.374,17c7.891,2.227,16.942,2.605,27.569-0.611c5.651-1.535,17.356-6.865,26.174-18.695
			c8.871-11.639,14.704-28.219,15.409-44.584c0.366-16.359-4.335-31.844-10.957-41.463c-6.472-9.742-13.067-13.891-12.93-13.98
			c-0.048,0.141-5.704-5.139-16.688-9.111c-5.203-1.881-12.691-3.672-19.98-2.385c-7.205,0.885-15.743,2.584-22.162,9.012
			c-6.74,6.637-6.215,17.465-2.814,24.816c3.346,7.701,8.574,13.928,14.089,18.697c11.529,8.701,20.485,15.26,24.752,19.154
			C188.759,95.86,198.464,106.128,194.866,124.138z"/>
	</g>
	<g>
		<path fill="#ED73C5" d="M144.709,210.987c-1.437-2.885-2.638-4.889-5.645-7.381c-1.606-1.377-6.947-5.025-12.594-6.617
			c-5.608-1.768-10.993-1.594-10.978-1.672c0.024,0.078-5.363-0.096-10.967,1.672c-5.65,1.592-11.006,5.24-12.596,6.617
			c-3.014,2.492-4.225,4.496-5.646,7.381c2.578-2.002,4.208-3.287,7.076-5.607c1.494-1.268,6.523-4.703,11.834-6.197
			c5.248-1.662,10.323-1.521,10.299-1.598c-0.016,0.076,5.047-0.064,10.309,1.598c5.302,1.494,10.324,4.93,11.842,6.197
			C140.501,207.7,142.134,208.985,144.709,210.987z"/>
	</g>
</g>
</svg>
