<?xml version="1.0" encoding="utf-8"?>
<!-- Generator: Adobe Illustrator 16.0.0, SVG Export Plug-In . SVG Version: 6.00 Build 0)  -->
<!DOCTYPE svg PUBLIC "-//W3C//DTD SVG 1.1//EN" "http://www.w3.org/Graphics/SVG/1.1/DTD/svg11.dtd">
<svg version="1.1" id="圖層_1" xmlns="http://www.w3.org/2000/svg" xmlns:xlink="http://www.w3.org/1999/xlink" x="0px" y="0px"
	 width="1652px" height="461.281px" viewBox="0 0 1652 461.281" enable-background="new 0 0 1652 461.281" xml:space="preserve">
<g>
	<g>
		<path fill="#91A51F" d="M189.563,195.773c-20.846,3.482-40.805,6.832-59.874,10.061c1.571,2.979,3.243,6.33,5.017,10.059
			c3.537,6.955,6.287,13.039,8.255,18.256c0.786,3.23,0.487,6.459-0.884,9.686c-2.757,5.717-4.719,9.314-5.897,10.807
			c-1.38,0.994-2.168,0.619-2.361-1.121c-0.198-0.492-0.296-1.609-0.296-3.354c-0.787-7.945-2.654-19.867-5.604-35.764
			c-0.986-2.98-1.576-5.713-1.768-8.199c-5.313,0.254-12.389,1.492-21.239,3.729c-5.505,1.244-11.501-1.119-17.991-7.078
			c-0.982-0.99-1.18-1.865-0.591-2.607c0.392-0.99,1.279-1.492,2.658-1.492c8.06-0.244,23.888-2.234,47.484-5.961
			c8.851-1.734,17.696-3.104,26.544-4.098v-0.373c-0.395-0.99-0.689-1.986-0.885-2.98c-3.539-15.146-7.08-26.824-10.617-35.021
			c-0.396-0.494-0.589-1.24-0.589-2.234c-0.197-1.24,0-1.986,0.589-2.236c0.591-0.244,1.277,0,2.063,0.746
			c8.851,11.428,14.159,18.754,15.927,21.982c1.572,2.732,0.59,9.314-2.948,19.744c9.042-1.986,18.087-3.727,27.134-5.215
			c8.453-1.492,16.321-3.104,23.596-4.846c11.21-3.225,17.107-4.844,17.698-4.844c2.752,0,5.897,3.484,9.438,10.436
			c0.981,1.488,1.182,2.607,0.591,3.35c-0.984,0.746-1.87,1.119-2.654,1.119c-20.844,2.234-37.559,4.6-50.143,7.078
			c1.375,1.492,4.23,5.963,8.555,13.412c0.98,1.742,1.078,3.352,0.295,4.844c-4.525,6.955-10.326,21.236-17.402,42.846
			c18.48-3.729,29.496-5.59,33.034-5.59c19.468-4.469,38.733-8.691,57.809-12.666c2.556,0.742,5.901,4.471,10.028,11.178
			c0.98,1.74,1.08,2.98,0.297,3.725c-0.791,0.746-1.576,1.244-2.36,1.492c-17.896,1.242-34.612,2.977-50.142,5.215
			c-112.078,17.137-168.22,26.078-168.411,26.824c-2.362-0.244-6.886-3.354-13.567-9.314c-0.986-1.24-1.182-2.236-0.592-2.98
			c0.193-0.746,42.865-6.334,128.006-16.768C185.626,230.795,189.563,210.18,189.563,195.773z M135.587,134.676
			c1.182,22.35,1.477,34.646,0.886,36.881c-0.589,3.23-1.767,3.605-3.54,1.119c-0.589-0.744-1.178-1.49-1.768-2.236
			c-2.361-3.725-3.541-15.275-3.541-34.646c-0.787,0-1.281,0-1.473,0c-34.021,3.23-52.014,6.33-53.979,9.313
			c-2.357-0.246-6.883-3.354-13.565-9.313c-0.988-1.242-1.179-2.238-0.589-2.984c0.589-0.988,1.57-1.486,2.949-1.486
			c8.848-0.248,30.673-2.609,65.477-7.082c0.393-0.244,0.688-0.244,0.885,0c-1.77-23.844-3.244-38.494-4.424-43.963
			c-0.988-3.723-1.768-6.826-2.358-9.313c-0.396-2.98,0.388-3.971,2.358-2.98c1.18,0.502,4.719,3.48,10.617,8.943
			c2.361,2.234,3.145,4.842,2.361,7.824c-1.178,6.955-1.381,19.746-0.59,38.373c21.43-2.98,43.159-6.084,65.184-9.314
			c3.34-25.334,4.717-41.355,4.129-48.061c-0.197-1.984-0.295-3.475-0.295-4.473c0.391-2.234,1.275-2.85,2.654-1.863
			c1.178,0.746,4.813,5.719,10.913,14.904c1.57,2.98,1.667,5.715,0.292,8.197c-1.967,3.23-4.818,13.037-8.551,29.432
			c11.598-1.49,22.808-3.354,33.623-5.588c15.531-4.469,23.596-6.707,24.186-6.707c2.551,0.744,5.898,4.471,10.027,11.178
			c0.982,1.74,1.079,2.98,0.297,3.725c-0.789,0.746-1.576,1.246-2.361,1.49c-17.894,0.996-40.803,3.727-68.723,8.195
			c-6.291,25.836-11.206,40.984-14.744,45.453c-1.577,0.746-2.463,0.375-2.656-1.115c-0.395-1.242-0.294-2.73,0.295-4.471
			c3.538-13.658,6.488-26.455,8.85-38.377C176.78,128.467,155.839,131.449,135.587,134.676z M116.415,401.055
			c-0.785,5.463-2.165,6.205-4.127,2.236c-0.988-2.236-3.246-7.58-6.785-16.021c-1.18-3.229-1.18-6.459,0-9.686
			c3.145-10.926,2.951-36.885-0.591-77.865c-0.196-2.729,0.098-4.592,0.886-5.59c1.375-0.99,2.457-0.371,3.244,1.865
			c2.752,8.939,4.721,13.912,5.898,14.9c4.721-0.988,9.736-1.861,15.042-2.607c16.714-2.729,31.952-5.336,45.719-7.822
			c6.487-1.492,12.976-2.73,19.466-3.729c9.439-2.477,15.338-5.959,17.695-10.432c1.771-2.477,3.342-2.85,4.723-1.115
			c2.357,2.734,4.424,5.342,6.191,7.822c1.771,2.982,1.771,5.344,0,7.078c-3.346,3.482-5.309,7.453-5.897,11.924
			c-3.149,19.127-5.708,34.777-7.671,46.943c0.787,0,1.867,0.5,3.244,1.488c2.555,2.738,4.719,5.346,6.49,7.822
			c1.572,2.74,1.18,4.227-1.182,4.475c-56.629,5.959-90.545,10.803-101.754,14.527C116.808,391.744,116.611,396.334,116.415,401.055
			z M200.181,363.428c1.373-8.943,4.229-27.199,8.552-54.768c0.197-1.736-0.882-2.479-3.241-2.234l-89.961,15.273
			c0,1.49,0.1,3.109,0.295,4.844c0.395,15.896,0.689,32.041,0.887,48.432c32.637-3.967,59.676-7.574,81.111-10.803
			C198.603,363.926,199.395,363.678,200.181,363.428z"/>
	</g>
	<g>
		<path fill="#91A51F" d="M643.019,371.621c-51.318,12.168-82.978,22.729-94.97,31.67c-2.167,1.49-3.937,1.361-5.311-0.371
			c-3.147-3.727-5.115-6.463-5.897-8.197c-1.182-2.486,1.18-4.844,7.078-7.08c18.48-14.65,31.95-32.412,40.406-53.275
			c-54.078,8.445-82.097,13.414-84.059,14.902c-1.576-0.244-5.707-3.354-12.387-9.313c-0.988-1.242-1.182-2.236-0.589-2.982
			c0.589-0.99,1.57-1.492,2.947-1.492c2.161,0,5.015,0,8.554,0c87.895-12.414,147.178-21.979,177.854-28.686
			c15.137-5.217,23.395-7.697,24.771-7.451c2.555,0.744,5.901,4.473,10.028,11.176c0.983,1.742,1.183,2.982,0.593,3.727
			c-0.986,0.996-1.871,1.49-2.656,1.49c-27.136,2.486-66.658,8.326-118.566,17.512c0.782,1.988,1.77,4.842,2.949,8.57
			c0.783,2.732,0.296,4.596-1.475,5.586c-1.968,1.49-3.938,3.48-5.9,5.961c-7.666,10.188-16.809,20.248-27.43,30.178
			c-0.787,0.744-1.084,1.238-0.883,1.49c0.78,0.748,1.866,0.99,3.243,0.748c29.888-7.703,57.61-15.773,83.175-24.219
			c-6.488-7.695-12.785-15.025-18.878-21.982c-0.396-1.49,0.098-2.232,1.475-2.232c0.392,0,0.69,0,0.888,0
			c8.646,5.713,18.383,13.039,29.196,21.979c0.197,0.25,0.589,0.502,1.183,0.746c10.416,8.447,15.729,14.658,15.925,18.627
			c0.392,5.961,0.296,11.551-0.292,16.766c-0.987,2.73-2.362,2.48-4.131-0.744c-5.309-9.688-11.208-18.012-17.698-24.961
			C649.017,370.262,645.97,370.877,643.019,371.621z M579.605,109.713c1.182,13.912,1.476,22.727,0.884,26.449
			c-0.784,2.486-1.867,2.861-3.242,1.121c-3.738-4.719-5.311-9.314-4.719-13.785c0.391-2.982,0.488-7.203,0.295-12.668
			c-31.461,4.719-52.014,8.568-61.646,11.547c-5.897,1.492-12.091-1.115-18.581-7.822c-0.787-0.99-1.083-1.863-0.885-2.607
			c0.785-0.99,1.865-1.49,3.246-1.49c8.848-0.494,30.379-3.477,64.596-8.941c4.127-0.99,8.351-1.613,12.68-1.863
			c-2.164-18.871-3.348-29.061-3.539-30.549c-0.986-2.982-1.576-5.59-1.773-7.826c-0.392-2.477,0.299-3.354,2.067-2.605
			c0.784,0.498,3.638,2.979,8.554,7.449c0.593,0.25,0.981,0.746,1.182,1.49c0.189,0.5,0.293,10.805,0.293,30.926
			c14.549-2.984,29.493-5.713,44.834-8.199c3.932-20.613,5.897-32.785,5.897-36.51c-0.198-1.492-0.198-2.732,0-3.725
			c0.193-1.988,0.884-2.482,2.063-1.49c0.782,0.742,3.541,5.342,8.259,13.783c1.181,2.234,1.077,4.471-0.294,6.707
			c-1.576,1.99-4.131,8.566-7.67,19.744c2.95-0.99,5.994-1.611,9.145-1.863c11.799-1.982,23.102-4.221,33.918-6.707
			c15.336-4.713,23.301-7.076,23.891-7.076c2.357-0.244,5.7,3.354,10.027,10.805c0.981,1.74,1.18,2.979,0.592,3.725
			c-0.987,0.994-1.873,1.492-2.654,1.492c-18.288,1.988-44.536,5.961-78.753,11.922c-8.063,24.838-13.667,38.746-16.812,41.725
			c-1.178,0.746-1.869,0.373-2.063-1.117c0-0.988,0.094-2.236,0.293-3.727c4.52-12.168,8.259-23.965,11.209-35.393
			C606.542,104.867,592.778,107.232,579.605,109.713z M538.61,198.754c0.588,1.742,1.178,3.727,1.768,5.963
			c0.594,2.232,0.195,3.852-1.18,4.84c-2.754,1.74-5.409,4.1-7.965,7.082c-9.437,10.68-20.939,20.617-34.507,29.805
			c-0.986,0.744-1.769,0.623-2.358-0.373c-0.198-0.99,0.096-1.988,0.885-2.98c14.939-13.656,25.953-26.451,33.031-38.373
			c0.785-1.736,1.573-3.104,2.361-4.1c-8.26,0.746-15.043,2.236-20.352,4.471c-7.275,1.246-12.785-0.494-16.518-5.217
			c-0.788-0.744-1.081-1.49-0.883-2.234c0.59-0.988,3.833-1.49,9.73-1.49c30.479-6.951,47.289-10.553,50.439-10.805
			c0-7.947,0-15.023,0-21.234c-12.197,2.232-20.057,4.096-23.597,5.586c-4.918,1.248-9.735-0.121-14.452-4.1
			c-1.969-2.477-1.475-3.723,1.474-3.723c7.472-0.99,14.454-2.238,20.941-3.727c4.913-1.734,10.126-3.102,15.634-4.098
			c-0.201-9.438-1.184-19.371-2.949-29.807c0-1.238,0.293-1.982,0.881-2.232c0.395-0.246,1.182,0,2.36,0.744
			c6.686,8.195,9.735,13.166,9.145,14.9c-0.985,3.727-1.476,8.326-1.476,13.787c-0.199,0.25-0.293,0.5-0.293,0.744
			c3.537-1.49,7.666-2.607,12.387-3.354c10.029-2.73,15.336-3.725,15.926-2.98c1.572,1.49,3.047,3.109,4.424,4.844
			c2.361,2.486,1.772,4.1-1.768,4.844c-16.516,2.98-26.943,5.344-31.266,7.078c-0.591,6.463-0.986,13.412-1.18,20.863
			c2.361-0.99,4.818-1.613,7.375-1.863c5.502-1.236,10.713-2.607,15.632-4.098c7.079-2.979,11.206-4.471,12.388-4.471
			c2.555,0.502,5.309,3.354,8.258,8.568c0.982,1.74,1.182,2.736,0.589,2.98c-0.589,0.746-1.279,1.119-2.063,1.119
			c-15.337,2.234-23.298,3.854-23.891,4.842c12.583,9.193,19.173,15.402,19.762,18.631c0.981,5.717,1.178,9.813,0.59,12.293
			c-0.398,1.74-1.281,1.74-2.653,0c-14.554-18.627-23.304-28.438-26.252-29.432C558.37,194.037,548.24,196.275,538.61,198.754z
			 M552.767,240.109c-7.08,1.244-12.781,2.607-17.107,4.098c-4.524,0.996-8.653,0.25-12.389-2.234
			c-2.166-3.227-2.262-4.967-0.292-5.217c14.351-3.971,24.28-5.961,29.788-5.961c0-12.668-0.59-21.607-1.771-26.824
			c-0.393-0.99-0.588-1.984-0.588-2.982c0-1.732,0.588-2.234,1.77-1.488c7.667,5.961,10.914,10.432,9.732,13.41
			c-0.984,3.729-1.475,8.945-1.475,15.648c15.73-5.217,24.188-7.078,25.367-5.588c1.769,2.234,2.95,3.854,3.539,4.846
			c0.59,1.988,0.193,3.105-1.178,3.35c-1.773,0.996-3.35,1.619-4.723,1.863c-4.917,0.252-12.783,1.992-23.597,5.217
			c-0.196,7.703-0.396,15.404-0.589,23.098c22.809-8.691,34.51-12.91,35.098-12.666c1.179,0,1.67,0.873,1.477,2.609
			c-0.398,0.744-0.986,1.242-1.769,1.486c-31.073,14.662-51.718,24.219-61.939,28.689c-5.115,1.742-9.54,3.852-13.272,6.334
			c-2.36,1.246-4.525,0.994-6.487-0.746c-3.349-3.725-5.71-6.455-7.081-8.195c-0.787-1.49-0.591-2.357,0.591-2.607
			c1.179-0.746,3.636-1.24,7.374-1.49c14.748-3.727,27.822-7.574,39.227-11.549C552.665,262.219,552.767,254.518,552.767,240.109z
			 M626.503,216.264c-3.146-3.723-6.192-7.076-9.141-10.061c-0.201-1.236-0.201-1.982,0-2.232c0.392-0.244,0.98-0.244,1.765,0
			c2.95,1.49,5.997,3.48,9.145,5.961c1.964-9.686,3.835-19.002,5.606-27.943c-10.428,2.236-16.028,3.23-16.814,2.98
			c-1.768-1.24-3.052-2.607-3.834-4.098c-0.984-2.48-0.49-3.846,1.477-4.1c5.309-1.734,12.095-3.475,20.351-5.215
			c1.769-20.863,1.474-37.256-0.888-49.18c-0.392-0.744-0.291-1.488,0.299-2.232c0.392-0.496,1.178-0.373,2.357,0.371
			c2.163,1.246,5.406,4.469,9.734,9.686c0.193,0.254,0.392,0.502,0.588,0.746c0,0.252-1.277,13.039-3.832,38.375
			c4.72-1.734,10.126-3.475,16.223-5.215c2.551-0.746,4.814-2.73,6.781-5.963c1.375-2.729,2.95-3.225,4.721-1.49
			c2.359,1.49,4.521,3.482,6.49,5.961c1.371,2.486,1.371,4.598,0,6.332c-2.951,3.232-4.526,7.08-4.723,11.553
			c0,38.746,6.197,63.707,18.582,74.883c4.914,4.721,8.553,7.082,10.914,7.082c1.18-0.498,1.77-1.615,1.77-3.354
			c0.782-7.201,1.182-17.637,1.182-31.295c0.393-2.732,0.98-4.102,1.77-4.102c1.18-0.242,1.863,0.748,2.063,2.98
			c0.783,17.387,2.358,33.906,4.72,49.553c0.392,1.488,0.193,2.607-0.589,3.354c-0.397,0.994-1.285,1.367-2.654,1.117
			c-6.297,0-14.451-5.59-24.479-16.768c-2.559-2.98-4.526-5.709-5.901-8.193c-8.457-12.668-13.566-38.498-15.336-77.496
			c0-2.479-0.692-3.846-2.067-4.098c-3.146-0.99-10.028,0.744-20.646,5.217c-2.754,14.656-5.309,26.453-7.666,35.393
			c0.589,0.252,0.98,0.5,1.178,0.744c10.814,8.197,16.223,14.531,16.223,19.002c-0.59,7.453-1.181,11.307-1.77,11.551
			c-0.788,0.498-1.281,0.373-1.475-0.375c-5.704-7.695-11.206-15.271-16.518-22.725c-1.768,3.979-3.344,8.195-4.717,12.668
			c-4.527,10.682-10.428,21.609-17.699,32.785c-5.309,6.461-10.422,12.795-15.338,19.002c30.869-6.207,51.32-11.178,61.35-14.904
			c0.98-0.244,2.063-0.373,3.246-0.373c2.359,0.502,5.307,3.727,8.845,9.688c0.981,1.74,1.184,2.734,0.593,2.98
			c-0.787,0.742-1.576,1.246-2.357,1.488c-7.477,0.746-40.411,6.336-98.809,16.768c-5.899,0.746-11.208,1.861-15.928,3.354
			c-5.897-0.496-10.914-2.729-15.044-6.707c-0.986-0.988-1.179-1.861-0.589-2.607c0.589-1.242,18.287-4.1,53.093-8.568
			C609.789,261.967,622.374,237.873,626.503,216.264z"/>
	</g>
	<g>
		<path fill="#91A51F" d="M1022.544,102.367c0,1.246,0.096,2.734,0.293,4.471c0.392,8.941,0.487,14.285,0.296,16.021
			c-0.789,2.486-1.871,2.855-3.246,1.115c-2.951-3.969-4.426-10.803-4.426-20.49c-27.135,3.479-48.66,7.207-64.59,11.176
			c-5.508,1.248-11.502-1.115-17.99-7.076c-0.988-0.99-1.179-1.863-0.59-2.609c0.393-0.988,1.271-1.49,2.652-1.49
			c11.01-0.494,34.309-3.354,69.9-8.57c3.146-0.742,6.488-1.117,10.028-1.117c-1.373-14.154-2.458-23.846-3.241-29.061
			c-1.178-2.979-1.874-5.586-2.064-7.82c-0.398-1.986,0.291-2.855,2.064-2.609c0.783,0.5,3.633,2.98,8.553,7.451
			c1.963,1.992,2.653,4.227,2.064,6.707c-0.792,5.713-0.886,13.785-0.299,24.215c17.5-3.475,35.492-6.457,53.979-8.941
			c1.768-15.146,2.553-25.334,2.361-30.551c-0.202-1.486-0.298-2.607-0.298-3.352c0.196-2.236,0.981-2.854,2.361-1.863
			c0.981,0.744,3.933,4.971,8.845,12.668c1.578,2.234,1.672,4.471,0.299,6.703c-2.754,4.725-4.428,9.689-5.015,14.906
			c3.14-0.99,6.584-1.613,10.324-1.863c12.776-1.988,25.166-4.221,37.163-6.707c15.924-5.215,24.476-7.695,25.659-7.451
			c2.748,0,5.895,3.479,9.439,10.43c0.982,1.492,1.178,2.609,0.589,3.354c-0.986,0.746-1.872,1.117-2.658,1.117
			c-35.391,3.484-63.115,7.453-83.171,11.924c-5.708,20.369-9.438,31.049-11.21,32.039c-1.375,0.502-2.166,0.254-2.355-0.742
			c0-0.99,0.094-2.357,0.291-4.098c2.753-9.189,4.723-17.885,5.898-26.08C1056.557,96.656,1039.254,99.387,1022.544,102.367z
			 M969.744,365.768c0.596,9.932,0.785,18.752,0.596,26.453c-0.398,3.723-1.873,3.598-4.427-0.373
			c-5.708-10.682-7.672-19.502-5.899-26.453c0.59-5.457,0.886-51.785,0.886-138.965c-0.2-49.924-0.886-80.473-2.063-91.65
			c-0.201-1.24-0.201-2.605,0-4.098c0.389-1.49,1.178-1.49,2.355,0c1.576,2.486,3.045,5.961,4.426,10.432
			c1.184,3.23,2.457,5.344,3.836,6.334c8.452-3.477,23.103-6.455,43.944-8.941c4.324-1.49,7.965-4.471,10.913-8.939
			c1.375-1.988,2.652-2.482,3.836-1.494c2.16,1.992,4.129,4.102,5.902,6.334c1.57,2.236,1.666,4.227,0.291,5.961
			c-2.754,3.232-4.229,6.836-4.426,10.807c-1.375,17.387-2.463,31.295-3.241,41.727c1.375,0,3.54,2.236,6.488,6.707
			c1.375,1.988,1.077,3.107-0.886,3.354c-8.85,1.486-17.207,2.977-25.07,4.469c-10.813,2.484-21.93,4.842-33.327,7.078
			c-1.968,0.25-3.538,0.746-4.724,1.49C969.352,309.885,969.549,359.809,969.744,365.768z M1019.297,195.137
			c0.393-6.707,1.477-21.984,3.247-45.828c-0.2-1.984-1.474-2.479-3.836-1.488c-4.919,0.744-21.335,3.725-49.255,8.939
			c-0.201,5.719-0.299,12.426-0.299,20.119c19.469-3.971,31.656-6.703,36.575-8.197c1.964-0.988,3.636-0.744,5.014,0.746
			c2.362,2.486,3.836,4.102,4.425,4.844c1.178,2.484,0.59,3.854-1.771,4.098c-5.704,0.746-11.604,1.619-17.696,2.607
			c-17.505,3.977-26.35,5.963-26.547,5.963c0,6.209,0,12.668,0,19.373c6.094-1.734,14.848-3.475,26.256-5.215
			c6.68-1.242,13.365-2.611,20.051-4.1C1016.834,196.01,1018.119,195.387,1019.297,195.137z M1011.332,308.395
			c-0.195,1.988-0.291,3.854-0.291,5.586c-0.396,4.475-1.475,5.094-3.248,1.865c-4.324-9.688-5.899-15.771-4.717-18.256
			c2.362-13.164,2.064-28.314-0.885-45.451c-0.197-1.988,0.094-3.354,0.885-4.1c1.179-0.746,1.869-0.371,2.064,1.117
			c1.178,3.729,2.361,7.207,3.539,10.432c11.207-2.479,22.514-4.594,33.92-6.334c0-5.459,0-10.928,0-16.391
			c-6.688,0.992-19.174,3.354-37.459,7.076c-5.9,1.248-11.207-0.371-15.928-4.842c-0.399-1.242-0.494-1.986-0.293-2.234
			c0.389-0.746,3.338-1.117,8.845-1.117c20.647-4.475,35.684-7.205,45.117-8.197c-0.191-11.178-0.874-20.615-2.052-28.316
			c-0.59-3.969,0.369-4.842,2.896-2.609c2.074,1.492,4.35,3.857,6.833,7.082c1.772,2.482,2.361,4.598,1.772,6.332
			c-1.381,3.48-2.361,8.941-2.951,16.393c6.294-1.984,12.683-3.475,19.172-4.471c7.076-1.49,16.32-4.098,27.729-7.822
			c1.178-0.246,2.159-0.375,2.943-0.375c2.361,0.746,4.819,3.482,7.376,8.197c0.588,1.49,0.785,2.365,0.588,2.609
			c-0.588,0.498-1.277,0.744-2.063,0.744c-15.93,2.236-34.51,5.588-55.746,10.059c0,5.717,0,11.176,0,16.393
			c9.834-2.232,20.059-4.471,30.676-6.707c1.182-0.494,2.949-2.355,5.311-5.586c1.57-2.238,3.046-2.482,4.425-0.748
			c4.718,5.217,6.192,9.316,4.419,12.295c-3.342,2.982-5.603,13.041-6.779,30.178c1.177-0.742,2.158-0.615,2.949,0.375
			c2.159,1.74,3.932,3.725,5.307,5.961c1.373,1.99,1.082,3.107-0.882,3.354c-19.275,2.979-34.504,5.961-45.704,8.939
			c-0.191,46.699-0.664,72.279-1.417,76.748c-0.944,4.471-2.356,4.471-4.241,0c-3.904-7.701-5.268-13.16-4.09-16.391
			c2.158-7.453,3.246-23.223,3.246-47.316c-21.434,23.602-41.984,40.236-61.643,49.924c-0.791,0.5-1.477,0.248-2.064-0.748
			c-0.398-1.236,0-2.232,1.178-2.979c25.166-18.379,44.537-37.258,58.105-56.629
			C1023.818,304.918,1014.872,306.904,1011.332,308.395z M1020.773,265.922c-4.331,0.746-7.77,1.619-10.32,2.609
			c0.191,7.447,0.387,17.508,0.588,30.176c7.27-1.49,17.791-3.475,31.559-5.961c0-10.674,0-21.236,0-31.668
			c-7.672,1.246-13.963,2.607-18.877,4.1c4.128,5.215,6.781,9.686,7.964,13.41c0.981,1.74,1.077,3.484,0.293,5.215
			c-0.786,2.486-1.577,4.6-2.356,6.338c-0.398,0.498-0.887,0.744-1.477,0.744c-0.396-0.246-0.695-0.496-0.885-0.744
			c0-0.498-0.102-1.121-0.299-1.863c-1.178-4.221-2.164-8.32-2.944-12.299C1023.031,272.256,1021.949,268.902,1020.773,265.922z
			 M1064.127,256.607c-5.502,0.996-10.42,1.99-14.746,2.98c0,10.684,0,21.363,0,32.039c3.54-1.238,6.49-1.861,8.852-1.861
			c3.141-9.93,5.11-19,5.895-27.197C1064.127,260.334,1064.127,258.348,1064.127,256.607z M1088.608,325.902
			c2.167,1.994,3.247,8.945,3.247,20.865c-0.398,1.246-0.986,1.738-1.771,1.49c-0.785-0.744-2.064-2.234-3.83-4.471
			c-3.742-5.961-8.559-12.293-14.455-19c-9.634-10.676-14.453-16.889-14.453-18.629c-0.197-1.984,0.686-2.479,2.654-1.49
			C1065.311,307.648,1074.846,314.727,1088.608,325.902z M1124.004,194.762c-35.004,8.199-53.387,12.668-55.154,13.414
			c-0.196,2.979-0.297,5.342-0.297,7.078c-0.787,4.471-2.165,4.721-4.129,0.744c-3.347-8.197-4.33-13.037-2.949-14.529
			c2.551-18.873,2.652-43.713,0.297-74.512c-0.203-0.988,0.096-1.611,0.885-1.865c0.982,0,1.768,0.502,2.356,1.49
			c1.964,5.963,3.249,9.314,3.837,10.061c2.36-0.496,5.406-1.119,9.142-1.863c12.784-2.729,25.659-5.338,38.638-7.822
			c4.323-2.982,7.965-6.082,10.915-9.314c1.373-1.734,2.748-1.863,4.127-0.375c1.772,1.74,3.539,3.482,5.313,5.217
			c1.569,1.992,1.665,3.854,0.292,5.588c-1.767,2.486-2.654,3.854-2.654,4.102c-0.589,1.244-0.885,65.941-0.885,194.105
			c0,40.73-2.065,64.078-6.192,70.041c-0.589,0.744-1.184,0.988-1.772,0.744c-0.589-0.998-1.178-1.992-1.768-2.98
			c-5.115-10.934-12.49-22.107-22.121-33.533c-1.182-1.984-1.475-3.354-0.885-4.096c0.785-0.988,1.57-0.988,2.361,0
			c6.488,6.459,12.485,11.67,17.987,15.648c0.98,0,1.575-0.127,1.772-0.375c0.587-0.746,0.885-1.99,0.885-3.725
			c0.981-15.146,1.477-72.771,1.477-172.867C1124.689,194.889,1124.195,194.762,1124.004,194.762z M1062.656,288.646
			c4.909-1.49,10.024-2.729,15.335-3.723c0.589-0.244,1.279-0.498,2.065-0.746c0.589-5.713,1.771-15.396,3.537-29.061
			c0-1.24-0.689-1.734-2.063-1.49c-4.719,0.744-9.143,1.49-13.27,2.234c1.767,2.736,3.044,4.6,3.83,5.59
			c0.784,1.74,0.784,3.109,0,4.098c-0.589,0.994-1.768,3.48-3.539,7.453C1065.406,280.951,1063.438,286.168,1062.656,288.646z
			 M1069.439,177.998c-0.197,9.189-0.299,15.646-0.299,19.371c1.773-0.746,18.879-4.842,51.324-12.293
			c1.571-0.746,3.241-1.24,5.016-1.49c0-15.148,0-30.18,0-45.08c0-2.48-1.285-3.598-3.838-3.354
			c-34.609,7.451-52.008,11.178-52.203,11.178c0,7.451,0,14.656,0,21.607c21.826-5.459,34.8-9.063,38.934-10.803
			c1.962-0.99,3.636-0.746,5.014,0.742c2.356,2.236,3.831,3.729,4.42,4.475c1.375,2.484,0.786,3.852-1.767,4.096
			c-11.604,2.484-24.481,5.588-38.638,9.314C1073.862,176.506,1071.21,177.252,1069.439,177.998z"/>
	</g>
	<g>
		<path fill="#91A51F" d="M1428.285,190.293c-20.259,4.971-31.561,8.324-33.922,10.059c-1.575,0-5.311-2.236-11.206-6.707
			c-2.17-3.227-1.677-4.844,1.477-4.844c9.039-1.238,17.201-2.98,24.476-5.215c6.096-1.986,12.485-3.727,19.176-5.217
			c0.589-75.006-0.298-117.107-2.659-126.299c-0.784-2.73-1.277-5.213-1.475-7.451c-0.195-1.488,0.102-2.357,0.885-2.607
			c0.786-0.746,1.869-0.371,3.249,1.119c5.11,5.217,9.143,9.439,12.092,12.666c0.981,1.49,0.882,5.215-0.296,11.178
			c-1.97,6.209-2.951,42.471-2.951,108.787c8.452-2.48,12.979-3.727,13.567-3.727c10.813-4.221,16.909-5.588,18.289-4.098
			c2.159,1.994,3.933,3.854,5.306,5.592c3.147,2.977,2.553,4.969-1.766,5.957c-14.555,1.992-26.354,4.844-35.396,8.568
			c0,28.072,0,57.504,0,88.299c27.134-20.119,41.683-30.176,43.652-30.176c1.772-0.244,2.551,0.498,2.361,2.232
			c-0.399,1.49-0.988,2.363-1.772,2.607c-36.181,30.057-60.462,49.68-72.851,58.867c-6.294,3.975-11.505,8.322-15.632,13.041
			c-2.361,2.232-4.817,2.607-7.375,1.115c-4.716-2.729-7.96-4.967-9.732-6.707c-1.378-1.238-1.474-2.355-0.296-3.354
			c1.373-1.238,4.228-2.729,8.554-4.469c9.634-5.461,19.563-11.299,29.791-17.512c4.129-3.225,8.948-6.455,14.455-9.684
			C1428.285,249.531,1428.285,218.855,1428.285,190.293z M1512.05,265.922c-14.75,50.422-43.759,93.641-87.014,129.652
			c-0.783,0.746-1.474,0.369-2.063-1.117c-0.398-0.998-0.195-1.992,0.589-2.982c14.156-13.662,26.053-26.574,35.688-38.746
			c1.771-2.73,3.538-5.215,5.311-7.451c3.932-5.961,13.371-23.098,28.312-51.414c21.432-53.891,30.281-99.971,26.547-138.219
			c-13.567,1.988-23.993,4.098-31.263,6.332c-5.312,0.994-11.206-1.238-17.696-6.707c-0.789-0.99-1.082-1.863-0.885-2.609
			c0.589-0.988,1.569-1.486,2.95-1.486c70.585-11.178,114.438-20.492,131.545-27.945c1.178-0.244,2.457-0.369,3.831-0.369
			c3.146,0.992,6.293,4.469,9.438,10.43c0.981,1.49,1.184,2.607,0.589,3.354c-0.784,0.746-1.575,1.117-2.355,1.117
			c-20.454,2.982-50.242,8.57-89.368,16.768c2.159,2.482,4.521,5.713,7.078,9.686c1.767,2.979,1.964,5.719,0.589,8.195
			c-2.557,4.227-5.604,18.629-9.141,43.217c6.091-2.234,18.972-5.217,38.638-8.941c6.488-1.982,11.889-5.586,16.219-10.805
			c1.571-2.234,3.248-2.479,5.016-0.742c1.57,1.486,3.633,4.096,6.19,7.824c1.772,2.977,1.673,5.342-0.291,7.076
			c-2.951,2.98-5.115,8.195-6.488,15.648c-9.637,50.918-16.327,85.688-20.057,104.316c-6.49,29.807-13.276,49.301-20.354,58.494
			c-0.98,1.49-1.767,2.105-2.355,1.861c-0.79-0.25-1.576-1.246-2.362-2.98c-8.255-16.395-17.105-32.164-26.546-47.314
			c-1.766-2.982-2.259-4.967-1.475-5.961c0.982-0.99,3.54,1.117,7.668,6.332c14.353,15.9,22.221,23.846,23.595,23.846
			c0.786,0,1.575-0.867,2.361-2.607c13.37-36.262,23.691-84.199,30.972-143.811c-0.987-2.48-2.76-2.854-5.313-1.117
			c-30.674,6.461-46.603,9.814-47.779,10.059C1519.223,239.471,1515.781,252.51,1512.05,265.922z M1546.556,88.211
			c1.771,4.469,0.885,12.795-2.654,24.961c-0.59,1.488-1.277,1.74-2.063,0.742c-0.792-0.492-1.285-1.115-1.477-1.861
			c-0.589-1.488-1.176-3.102-1.771-4.842c-2.754-9.438-6.592-19.496-11.504-30.178c-7.667-17.139-11.402-26.574-11.207-28.316
			c0.197-2.98,1.279-3.225,3.247-0.744C1530.138,61.885,1539.281,75.299,1546.556,88.211z"/>
	</g>
</g>
</svg>
