<?xml version="1.0" encoding="utf-8"?>
<!-- Generator: Adobe Illustrator 16.0.0, SVG Export Plug-In . SVG Version: 6.00 Build 0)  -->
<!DOCTYPE svg PUBLIC "-//W3C//DTD SVG 1.1//EN" "http://www.w3.org/Graphics/SVG/1.1/DTD/svg11.dtd">
<svg version="1.1" id="圖層_1" xmlns="http://www.w3.org/2000/svg" xmlns:xlink="http://www.w3.org/1999/xlink" x="0px" y="0px"
	 width="2596.535px" height="1587.401px" viewBox="0 0 2596.535 1587.401" enable-background="new 0 0 2596.535 1587.401"
	 xml:space="preserve">
<g>
	<g>
		<g>
			<g>
				<path fill="#ED73C5" d="M1267.118,682.943c1.735,10.146,2.324,16.969,3.231,28.92c0.594,6.354,0.578,26.424-7.065,42.668
					c-6.815,17.023-20.898,25.736-20.978,25.23c0-0.035-3.357,2.201-9.19,3.691c-5.523,1.461-15.015,1.742-20.522-3.887
					c-5.667-5.676-0.768-15.535,4.025-21.035c4.945-5.971,10.285-9.762,12.872-11.604c9.936-6.492,15.913-9.732,25.65-13.059
					c-10.283,0.436-17.686,2.48-28.22,9.301c-2.775,1.955-8.423,5.926-13.83,12.455c-2.664,3.273-5.345,7.182-6.803,12.004
					c-1.586,4.658-1.061,11.176,2.932,15.063c7.939,7.707,18.625,6.67,24.96,5.18c6.644-1.693,10.368-4.193,10.368-4.131
					c0.08,0.625,15.908-9.482,22.911-27.344c8.109-17.258,8.069-38.211,7.424-44.805
					C1273.894,699.164,1271.635,692.211,1267.118,682.943z"/>
			</g>
			<g>
				<path fill="#ED73C5" d="M1207.15,682.654c-3.601-18.01,6.107-28.277,21.149-41.861c4.261-3.895,13.233-10.453,24.758-19.154
					c5.493-4.77,10.76-10.996,14.083-18.697c3.402-7.352,3.924-18.18-2.813-24.816c-6.425-6.428-14.973-8.127-22.157-9.012
					c-7.274-1.287-14.78,0.504-19.982,2.385c-10.984,3.973-16.65,9.252-16.701,9.111c0.146,0.09-6.449,4.238-12.917,13.98
					c-6.622,9.619-11.307,25.104-10.967,41.463c0.717,16.365,6.548,32.945,15.407,44.584c8.823,11.83,20.521,17.16,26.171,18.695
					c10.644,3.217,19.693,2.838,27.596,0.611c7.545-2.23,15.743-7.615,16.343-17c-2.213,9.02-10.118,12.271-17.165,13.762
					c-7.381,1.324-15.669,1.273-25.41-1.725c-5.206-1.436-15.709-6.195-23.889-17.117c-8.207-10.705-13.819-26.652-14.473-41.961
					c-0.314-15.398,4.116-30.006,10.2-38.814c5.95-8.984,12.021-12.787,11.906-12.877c0.02,0.148,5.261-4.748,15.413-8.402
					c5.242-1.766,10.951-3.342,17.955-2.174c6.745,0.783,14.449,2.602,19.352,7.645c5.077,4.982,4.866,13.199,1.92,19.896
					c-2.934,6.807-7.771,12.605-12.854,16.988c-10.884,8.209-20.531,15.281-24.745,19.186c-8.042,7.143-13.926,13.635-17.456,21.123
					C1204.194,665.828,1203.722,674.434,1207.15,682.654z"/>
			</g>
			<g>
				<path fill="#ED73C5" d="M1305.893,682.943c-4.499,9.268-6.754,16.221-7.755,28.648c-0.634,6.594-0.69,27.547,7.432,44.805
					c6.983,17.861,22.832,27.969,22.905,27.344c0-0.063,3.719,2.438,10.363,4.131c6.334,1.49,17.026,2.527,24.969-5.18
					c3.997-3.887,4.528-10.404,2.931-15.063c-1.46-4.822-4.139-8.73-6.792-12.004c-5.412-6.529-11.074-10.5-13.844-12.455
					c-10.543-6.82-17.929-8.865-28.23-9.301c9.75,3.326,15.725,6.566,25.668,13.059c2.584,1.842,7.927,5.633,12.872,11.604
					c4.797,5.5,9.683,15.359,4.039,21.035c-5.524,5.629-15.017,5.348-20.53,3.887c-5.858-1.49-9.217-3.727-9.195-3.691
					c-0.085,0.506-14.171-8.207-20.961-25.23c-7.66-16.244-7.679-36.314-7.078-42.648
					C1303.575,699.912,1304.173,693.09,1305.893,682.943z"/>
			</g>
			<g>
				<path fill="#ED73C5" d="M1365.883,682.654c3.422-8.221,2.943-16.826-0.723-24.182c-3.554-7.488-9.412-13.98-17.456-21.123
					c-4.233-3.887-13.859-10.977-24.736-19.186c-5.097-4.383-9.92-10.182-12.86-16.988c-2.965-6.697-3.164-14.914,1.914-19.896
					c4.902-5.043,12.601-6.861,19.355-7.645c7.003-1.168,12.703,0.408,17.957,2.174c10.149,3.66,15.391,8.551,15.401,8.402
					c-0.116,0.09,5.948,3.893,11.902,12.877c6.096,8.809,10.543,23.416,10.204,38.814c-0.625,15.309-6.255,31.256-14.464,41.961
					c-8.181,10.922-18.692,15.682-23.892,17.117c-9.721,2.998-18.031,3.049-25.39,1.725c-7.072-1.49-14.974-4.742-17.202-13.762
					c0.622,9.385,8.817,14.77,16.374,17c7.891,2.227,16.943,2.605,27.569-0.611c5.652-1.535,17.357-6.865,26.174-18.695
					c8.872-11.639,14.704-28.219,15.409-44.584c0.367-16.359-4.335-31.844-10.957-41.463c-6.472-9.742-13.067-13.891-12.93-13.98
					c-0.047,0.141-5.705-5.139-16.688-9.111c-5.204-1.881-12.691-3.672-19.98-2.385c-7.206,0.885-15.743,2.584-22.163,9.012
					c-6.74,6.637-6.214,17.465-2.813,24.816c3.345,7.701,8.574,13.928,14.088,18.697c11.529,8.701,20.486,15.26,24.752,19.154
					C1359.775,654.377,1369.48,664.645,1365.883,682.654z"/>
			</g>
			<g>
				<path fill="#ED73C5" d="M1315.726,769.504c-1.437-2.885-2.638-4.889-5.645-7.381c-1.606-1.377-6.947-5.025-12.594-6.617
					c-5.609-1.768-10.993-1.594-10.977-1.672c0.024,0.078-5.364-0.096-10.967,1.672c-5.65,1.592-11.006,5.24-12.596,6.617
					c-3.014,2.492-4.225,4.496-5.646,7.381c2.578-2.002,4.208-3.287,7.076-5.607c1.494-1.268,6.524-4.703,11.835-6.197
					c5.247-1.662,10.323-1.521,10.299-1.598c-0.016,0.076,5.047-0.064,10.309,1.598c5.301,1.494,10.324,4.93,11.842,6.197
					C1311.518,766.217,1313.151,767.502,1315.726,769.504z"/>
			</g>
		</g>
		<g>
			<g>
				<path fill="#ED73C5" d="M1305.91,904.453c-1.737-10.145-2.328-16.965-3.233-28.92c-0.598-6.354-0.578-26.414,7.062-42.668
					c6.823-17.02,20.896-25.732,20.976-25.229c0,0.035,3.365-2.193,9.195-3.686c5.523-1.463,15.017-1.742,20.524,3.875
					c5.661,5.682,0.765,15.543-4.027,21.041c-4.951,5.973-10.288,9.764-12.877,11.602c-9.932,6.492-15.908,9.734-25.643,13.063
					c10.277-0.436,17.684-2.48,28.216-9.301c2.775-1.949,8.426-5.928,13.833-12.457c2.664-3.275,5.343-7.18,6.803-12.006
					c1.586-4.652,1.055-11.174-2.931-15.061c-7.943-7.703-18.628-6.672-24.969-5.182c-6.637,1.693-10.363,4.195-10.363,4.137
					c-0.084-0.629-15.909,9.479-22.911,27.34c-8.117,17.264-8.066,38.213-7.426,44.809
					C1299.134,888.234,1301.389,895.188,1305.91,904.453z"/>
			</g>
			<g>
				<path fill="#ED73C5" d="M1365.877,904.746c3.603,18.012-6.107,28.273-21.149,41.859c-4.262,3.896-13.233,10.455-24.758,19.152
					c-5.493,4.771-10.758,11.004-14.09,18.699c-3.393,7.352-3.919,18.182,2.813,24.822c6.433,6.426,14.979,8.119,22.159,9.006
					c7.274,1.295,14.782-0.502,19.991-2.385c10.973-3.975,16.645-9.254,16.694-9.113c-0.143-0.082,6.452-4.229,12.924-13.977
					c6.617-9.621,11.302-25.113,10.962-41.463c-0.716-16.365-6.546-32.947-15.407-44.582c-8.825-11.836-20.524-17.166-26.171-18.697
					c-10.642-3.217-19.694-2.838-27.594-0.611c-7.549,2.23-15.743,7.613-16.343,16.996c2.211-9.023,10.113-12.27,17.163-13.76
					c7.381-1.32,15.669-1.271,25.412,1.725c5.2,1.443,15.711,6.199,23.881,17.117c8.214,10.703,13.828,26.654,14.486,41.963
					c0.307,15.4-4.129,30.006-10.204,38.813c-5.959,8.986-12.017,12.789-11.913,12.879c-0.02-0.15-5.263,4.748-15.413,8.4
					c-5.232,1.766-10.946,3.346-17.951,2.178c-6.749-0.787-14.453-2.605-19.35-7.643c-5.077-4.988-4.871-13.201-1.92-19.898
					c2.932-6.805,7.77-12.611,12.855-16.99c10.877-8.203,20.522-15.279,24.742-19.186c8.044-7.141,13.923-13.637,17.452-21.127
					C1368.826,921.57,1369.305,912.965,1365.877,904.746z"/>
			</g>
			<g>
				<path fill="#ED73C5" d="M1267.13,904.453c4.503-9.266,6.758-16.219,7.757-28.643c0.64-6.596,0.687-27.545-7.43-44.809
					c-6.989-17.861-22.83-27.969-22.909-27.34c0,0.059-3.717-2.443-10.362-4.137c-6.335-1.49-17.03-2.521-24.967,5.182
					c-3.995,3.887-4.526,10.408-2.934,15.061c1.461,4.826,4.138,8.73,6.803,12.006c5.406,6.529,11.067,10.508,13.837,12.457
					c10.541,6.82,17.929,8.865,28.234,9.301c-9.753-3.328-15.73-6.57-25.67-13.063c-2.587-1.838-7.929-5.629-12.872-11.602
					c-4.795-5.498-9.685-15.359-4.039-21.041c5.524-5.617,15.01-5.338,20.528-3.875c5.858,1.492,9.217,3.721,9.197,3.686
					c0.082-0.504,14.166,8.209,20.96,25.229c7.659,16.254,7.681,36.314,7.076,42.656
					C1269.447,887.488,1268.847,894.309,1267.13,904.453z"/>
			</g>
			<g>
				<path fill="#ED73C5" d="M1207.145,904.746c-3.428,8.219-2.949,16.824,0.725,24.178c3.549,7.49,9.408,13.986,17.453,21.127
					c4.235,3.885,13.86,10.982,24.732,19.186c5.104,4.379,9.922,10.186,12.865,16.99c2.959,6.697,3.166,14.91-1.912,19.898
					c-4.908,5.037-12.608,6.855-19.359,7.643c-7.003,1.168-12.708-0.412-17.955-2.178c-10.146-3.656-15.389-8.551-15.409-8.4
					c0.123-0.09-5.948-3.893-11.902-12.879c-6.085-8.807-10.541-23.412-10.202-38.813c0.631-15.309,6.259-31.26,14.47-41.963
					c8.181-10.918,18.69-15.674,23.892-17.117c9.719-2.996,18.023-3.045,25.388-1.725c7.07,1.49,14.973,4.736,17.199,13.76
					c-0.618-9.383-8.815-14.766-16.372-16.996c-7.889-2.227-16.947-2.605-27.566,0.611c-5.655,1.531-17.362,6.861-26.178,18.697
					c-8.872,11.635-14.702,28.217-15.409,44.582c-0.361,16.35,4.334,31.842,10.957,41.463c6.469,9.748,13.067,13.895,12.926,13.977
					c0.047-0.141,5.708,5.139,16.697,9.113c5.2,1.883,12.686,3.68,19.977,2.385c7.206-0.887,15.749-2.58,22.158-9.006
					c6.74-6.641,6.221-17.471,2.819-24.822c-3.35-7.695-8.576-13.928-14.088-18.699c-11.524-8.697-20.486-15.256-24.752-19.152
					C1213.246,933.02,1203.543,922.758,1207.145,904.746z"/>
			</g>
			<g>
				<path fill="#ED73C5" d="M1257.296,817.891c1.438,2.889,2.638,4.891,5.652,7.385c1.601,1.381,6.942,5.025,12.59,6.623
					c5.603,1.764,10.993,1.592,10.975,1.666c-0.025-0.074,5.365,0.098,10.971-1.666c5.65-1.598,10.999-5.242,12.59-6.623
					c3.025-2.494,4.228-4.496,5.652-7.385c-2.58,2.006-4.208,3.295-7.079,5.613c-1.496,1.266-6.521,4.701-11.832,6.195
					c-5.25,1.664-10.328,1.523-10.303,1.598c0.018-0.074-5.048,0.066-10.306-1.598c-5.305-1.494-10.328-4.93-11.839-6.195
					C1261.509,821.186,1259.874,819.896,1257.296,817.891z"/>
			</g>
		</g>
	</g>
	<g>
		<path fill="#91A51F" d="M446.276,758.066c-20.846,3.482-40.804,6.832-59.874,10.061c1.572,2.979,3.244,6.33,5.016,10.059
			c3.538,6.955,6.288,13.039,8.255,18.256c0.786,3.23,0.488,6.459-0.883,9.686c-2.757,5.717-4.72,9.314-5.898,10.807
			c-1.38,0.994-2.168,0.619-2.361-1.121c-0.199-0.492-0.296-1.609-0.296-3.354c-0.786-7.945-2.654-19.867-5.603-35.764
			c-0.987-2.98-1.576-5.713-1.767-8.199c-5.313,0.254-12.39,1.492-21.24,3.729c-5.505,1.244-11.5-1.119-17.991-7.078
			c-0.983-0.99-1.18-1.865-0.591-2.607c0.392-0.99,1.279-1.492,2.658-1.492c8.06-0.244,23.888-2.234,47.484-5.961
			c8.85-1.734,17.696-3.104,26.544-4.098v-0.373c-0.396-0.99-0.69-1.986-0.885-2.98c-3.54-15.146-7.08-26.824-10.617-35.021
			c-0.396-0.494-0.589-1.24-0.589-2.234c-0.197-1.24,0-1.986,0.589-2.236c0.591-0.244,1.277,0,2.063,0.746
			c8.85,11.428,14.159,18.754,15.927,21.982c1.572,2.732,0.589,9.314-2.949,19.744c9.042-1.986,18.087-3.727,27.134-5.215
			c8.453-1.492,16.321-3.104,23.596-4.846c11.21-3.225,17.107-4.844,17.698-4.844c2.752,0,5.898,3.484,9.438,10.436
			c0.981,1.488,1.182,2.607,0.591,3.35c-0.985,0.746-1.87,1.119-2.654,1.119c-20.844,2.234-37.559,4.6-50.142,7.078
			c1.375,1.492,4.229,5.963,8.554,13.412c0.981,1.742,1.078,3.352,0.296,4.844c-4.526,6.955-10.326,21.236-17.403,42.846
			c18.48-3.729,29.497-5.59,33.035-5.59c19.467-4.469,38.734-8.691,57.809-12.666c2.555,0.742,5.901,4.471,10.028,11.178
			c0.981,1.74,1.081,2.98,0.296,3.725c-0.79,0.746-1.576,1.244-2.36,1.492c-17.895,1.242-34.612,2.977-50.142,5.215
			c-112.078,17.137-168.219,26.078-168.411,26.824c-2.362-0.244-6.886-3.354-13.568-9.314c-0.986-1.24-1.182-2.236-0.591-2.98
			c0.193-0.746,42.864-6.334,128.005-16.768C442.339,793.088,446.276,772.473,446.276,758.066z M392.3,696.969
			c1.182,22.35,1.476,34.646,0.885,36.881c-0.589,3.23-1.767,3.605-3.54,1.119c-0.589-0.744-1.178-1.49-1.768-2.236
			c-2.361-3.725-3.541-15.275-3.541-34.646c-0.788,0-1.281,0-1.473,0c-34.021,3.23-52.014,6.33-53.979,9.313
			c-2.358-0.246-6.884-3.354-13.566-9.313c-0.988-1.242-1.178-2.238-0.589-2.984c0.589-0.988,1.57-1.486,2.949-1.486
			c8.848-0.248,30.673-2.609,65.477-7.082c0.392-0.244,0.688-0.244,0.885,0c-1.771-23.844-3.245-38.494-4.425-43.963
			c-0.988-3.723-1.767-6.826-2.358-9.313c-0.396-2.98,0.388-3.971,2.358-2.98c1.18,0.502,4.72,3.48,10.617,8.943
			c2.361,2.234,3.146,4.842,2.361,7.824c-1.178,6.955-1.38,19.746-0.589,38.373c21.43-2.98,43.159-6.084,65.183-9.314
			c3.341-25.334,4.718-41.355,4.129-48.061c-0.197-1.984-0.295-3.475-0.295-4.473c0.391-2.234,1.276-2.85,2.654-1.863
			c1.178,0.746,4.813,5.719,10.914,14.904c1.57,2.98,1.667,5.715,0.292,8.197c-1.967,3.23-4.818,13.037-8.552,29.432
			c11.599-1.49,22.808-3.354,33.624-5.588c15.53-4.469,23.596-6.707,24.185-6.707c2.552,0.744,5.899,4.471,10.028,11.178
			c0.981,1.74,1.079,2.98,0.296,3.725c-0.79,0.746-1.576,1.246-2.362,1.49c-17.893,0.996-40.802,3.727-68.722,8.195
			c-6.292,25.836-11.207,40.984-14.744,45.453c-1.578,0.746-2.463,0.375-2.656-1.115c-0.396-1.242-0.294-2.73,0.294-4.471
			c3.538-13.658,6.489-26.455,8.85-38.377C433.493,690.76,412.551,693.742,392.3,696.969z M373.127,963.348
			c-0.784,5.463-2.165,6.205-4.127,2.236c-0.988-2.236-3.245-7.58-6.785-16.021c-1.18-3.229-1.18-6.459,0-9.686
			c3.144-10.926,2.951-36.885-0.591-77.865c-0.197-2.729,0.098-4.592,0.885-5.59c1.375-0.99,2.458-0.371,3.245,1.865
			c2.752,8.939,4.72,13.912,5.897,14.9c4.722-0.988,9.737-1.861,15.042-2.607c16.713-2.729,31.953-5.336,45.719-7.822
			c6.487-1.492,12.975-2.73,19.465-3.729c9.439-2.477,15.339-5.959,17.696-10.432c1.771-2.477,3.341-2.85,4.722-1.115
			c2.358,2.734,4.425,5.342,6.192,7.822c1.771,2.982,1.771,5.344,0,7.078c-3.346,3.482-5.309,7.453-5.897,11.924
			c-3.149,19.127-5.708,34.777-7.67,46.943c0.786,0,1.867,0.5,3.244,1.488c2.555,2.738,4.719,5.346,6.49,7.822
			c1.572,2.74,1.18,4.227-1.182,4.475c-56.629,5.959-90.545,10.803-101.753,14.527C373.521,954.037,373.324,958.627,373.127,963.348
			z M456.894,925.721c1.374-8.943,4.228-27.199,8.552-54.768c0.197-1.736-0.881-2.479-3.241-2.234l-89.96,15.273
			c0,1.49,0.1,3.109,0.295,4.844c0.394,15.896,0.688,32.041,0.887,48.432c32.636-3.967,59.676-7.574,81.11-10.803
			C455.316,926.219,456.107,925.971,456.894,925.721z"/>
	</g>
	<g>
		<path fill="#91A51F" d="M899.732,933.914c-51.318,12.168-82.978,22.729-94.97,31.67c-2.167,1.49-3.937,1.361-5.311-0.371
			c-3.147-3.727-5.115-6.463-5.897-8.197c-1.182-2.486,1.18-4.844,7.078-7.08c18.48-14.65,31.951-32.412,40.407-53.275
			c-54.078,8.445-82.097,13.414-84.059,14.902c-1.575-0.244-5.706-3.354-12.386-9.313c-0.988-1.242-1.182-2.236-0.589-2.982
			c0.589-0.99,1.57-1.492,2.947-1.492c2.161,0,5.014,0,8.554,0c87.895-12.414,147.178-21.979,177.853-28.686
			c15.138-5.217,23.395-7.697,24.772-7.451c2.555,0.744,5.901,4.473,10.028,11.176c0.983,1.742,1.183,2.982,0.592,3.727
			c-0.986,0.996-1.87,1.49-2.656,1.49c-27.136,2.486-66.659,8.326-118.566,17.512c0.782,1.988,1.769,4.842,2.949,8.57
			c0.784,2.732,0.296,4.596-1.475,5.586c-1.967,1.49-3.937,3.48-5.899,5.961c-7.666,10.188-16.809,20.248-27.43,30.178
			c-0.788,0.744-1.084,1.238-0.884,1.49c0.781,0.748,1.867,0.99,3.244,0.748c29.887-7.703,57.61-15.773,83.175-24.219
			c-6.489-7.695-12.786-15.025-18.878-21.982c-0.396-1.49,0.098-2.232,1.475-2.232c0.392,0,0.69,0,0.887,0
			c8.647,5.713,18.383,13.039,29.197,21.979c0.197,0.25,0.589,0.502,1.182,0.746c10.417,8.447,15.729,14.658,15.925,18.627
			c0.392,5.961,0.296,11.551-0.292,16.766c-0.987,2.73-2.362,2.48-4.13-0.744c-5.309-9.688-11.208-18.012-17.698-24.961
			C905.729,932.555,902.683,933.17,899.732,933.914z M836.318,672.006c1.182,13.912,1.476,22.727,0.884,26.449
			c-0.784,2.486-1.867,2.861-3.242,1.121c-3.738-4.719-5.311-9.314-4.72-13.785c0.391-2.982,0.488-7.203,0.295-12.668
			c-31.461,4.719-52.013,8.568-61.645,11.547c-5.897,1.492-12.091-1.115-18.582-7.822c-0.786-0.99-1.083-1.863-0.884-2.607
			c0.784-0.99,1.865-1.49,3.245-1.49c8.849-0.494,30.379-3.477,64.596-8.941c4.127-0.99,8.351-1.613,12.681-1.863
			c-2.165-18.871-3.349-29.061-3.54-30.549c-0.986-2.982-1.575-5.59-1.772-7.826c-0.392-2.477,0.298-3.354,2.067-2.605
			c0.784,0.498,3.637,2.979,8.554,7.449c0.593,0.25,0.981,0.746,1.182,1.49c0.189,0.5,0.292,10.805,0.292,30.926
			c14.549-2.984,29.493-5.713,44.833-8.199c3.932-20.613,5.898-32.785,5.898-36.51c-0.199-1.492-0.199-2.732,0-3.725
			c0.193-1.988,0.883-2.482,2.063-1.49c0.783,0.742,3.542,5.342,8.259,13.783c1.18,2.234,1.077,4.471-0.294,6.707
			c-1.576,1.99-4.13,8.566-7.67,19.744c2.951-0.99,5.995-1.611,9.145-1.863c11.799-1.982,23.103-4.221,33.918-6.707
			c15.336-4.713,23.301-7.076,23.89-7.076c2.358-0.244,5.701,3.354,10.028,10.805c0.981,1.74,1.18,2.979,0.591,3.725
			c-0.987,0.994-1.872,1.492-2.654,1.492c-18.288,1.988-44.536,5.961-78.752,11.922c-8.064,24.838-13.667,38.746-16.811,41.725
			c-1.178,0.746-1.87,0.373-2.063-1.117c0-0.988,0.094-2.236,0.293-3.727c4.521-12.168,8.259-23.965,11.209-35.393
			C863.255,667.16,849.491,669.525,836.318,672.006z M795.323,761.047c0.589,1.742,1.178,3.727,1.769,5.963
			c0.593,2.232,0.195,3.852-1.18,4.84c-2.754,1.74-5.41,4.1-7.965,7.082c-9.437,10.68-20.939,20.617-34.507,29.805
			c-0.986,0.744-1.769,0.623-2.358-0.373c-0.199-0.99,0.096-1.988,0.884-2.98c14.94-13.656,25.954-26.451,33.031-38.373
			c0.786-1.736,1.574-3.104,2.361-4.1c-8.259,0.746-15.042,2.236-20.351,4.471c-7.276,1.246-12.785-0.494-16.519-5.217
			c-0.788-0.744-1.081-1.49-0.882-2.234c0.589-0.988,3.833-1.49,9.73-1.49c30.479-6.951,47.29-10.553,50.439-10.805
			c0-7.947,0-15.023,0-21.234c-12.196,2.232-20.057,4.096-23.596,5.586c-4.918,1.248-9.735-0.121-14.453-4.1
			c-1.968-2.477-1.475-3.723,1.474-3.723c7.471-0.99,14.455-2.238,20.941-3.727c4.913-1.734,10.125-3.102,15.633-4.098
			c-0.201-9.438-1.184-19.371-2.949-29.807c0-1.238,0.293-1.982,0.882-2.232c0.394-0.246,1.182,0,2.36,0.744
			c6.686,8.195,9.735,13.166,9.145,14.9c-0.985,3.727-1.476,8.326-1.476,13.787c-0.199,0.25-0.293,0.5-0.293,0.744
			c3.538-1.49,7.667-2.607,12.388-3.354c10.028-2.73,15.335-3.725,15.926-2.98c1.572,1.49,3.046,3.109,4.423,4.844
			c2.362,2.486,1.772,4.1-1.767,4.844c-16.517,2.98-26.944,5.344-31.266,7.078c-0.591,6.463-0.987,13.412-1.18,20.863
			c2.362-0.99,4.819-1.613,7.375-1.863c5.502-1.236,10.713-2.607,15.631-4.098c7.079-2.979,11.206-4.471,12.388-4.471
			c2.555,0.502,5.309,3.354,8.257,8.568c0.983,1.74,1.182,2.736,0.589,2.98c-0.589,0.746-1.279,1.119-2.063,1.119
			c-15.337,2.234-23.298,3.854-23.891,4.842c12.583,9.193,19.173,15.402,19.762,18.631c0.981,5.717,1.178,9.813,0.589,12.293
			c-0.398,1.74-1.281,1.74-2.653,0c-14.554-18.627-23.303-28.438-26.252-29.432C815.083,756.33,804.953,758.568,795.323,761.047z
			 M809.479,802.402c-7.08,1.244-12.782,2.607-17.107,4.098c-4.524,0.996-8.653,0.25-12.388-2.234
			c-2.166-3.227-2.262-4.967-0.292-5.217c14.35-3.971,24.281-5.961,29.788-5.961c0-12.668-0.589-21.607-1.771-26.824
			c-0.394-0.99-0.589-1.984-0.589-2.982c0-1.732,0.589-2.234,1.771-1.488c7.667,5.961,10.914,10.432,9.732,13.41
			c-0.985,3.729-1.474,8.945-1.474,15.648c15.73-5.217,24.187-7.078,25.366-5.588c1.769,2.234,2.951,3.854,3.54,4.846
			c0.589,1.988,0.193,3.105-1.178,3.35c-1.772,0.996-3.35,1.619-4.723,1.863c-4.917,0.252-12.782,1.992-23.596,5.217
			c-0.197,7.703-0.396,15.404-0.589,23.098c22.808-8.691,34.509-12.91,35.098-12.666c1.178,0,1.67,0.873,1.477,2.609
			c-0.399,0.744-0.987,1.242-1.769,1.486c-31.073,14.662-51.718,24.219-61.939,28.689c-5.115,1.742-9.54,3.852-13.273,6.334
			c-2.36,1.246-4.524,0.994-6.487-0.746c-3.348-3.725-5.709-6.455-7.081-8.195c-0.788-1.49-0.591-2.357,0.591-2.607
			c1.178-0.746,3.635-1.24,7.374-1.49c14.748-3.727,27.822-7.574,39.227-11.549C809.378,824.512,809.479,816.811,809.479,802.402z
			 M883.216,778.557c-3.146-3.723-6.192-7.076-9.141-10.061c-0.201-1.236-0.201-1.982,0-2.232c0.392-0.244,0.981-0.244,1.765,0
			c2.951,1.49,5.997,3.48,9.145,5.961c1.964-9.686,3.834-19.002,5.607-27.943c-10.428,2.236-16.029,3.23-16.815,2.98
			c-1.767-1.24-3.052-2.607-3.834-4.098c-0.985-2.48-0.49-3.846,1.476-4.1c5.309-1.734,12.095-3.475,20.351-5.215
			c1.769-20.863,1.474-37.256-0.887-49.18c-0.392-0.744-0.291-1.488,0.298-2.232c0.392-0.496,1.178-0.373,2.358,0.371
			c2.163,1.246,5.406,4.469,9.734,9.686c0.193,0.254,0.392,0.502,0.589,0.746c0,0.252-1.277,13.039-3.833,38.375
			c4.72-1.734,10.126-3.475,16.222-5.215c2.551-0.746,4.815-2.73,6.781-5.963c1.375-2.729,2.951-3.225,4.721-1.49
			c2.36,1.49,4.521,3.482,6.49,5.961c1.372,2.486,1.372,4.598,0,6.332c-2.951,3.232-4.526,7.08-4.723,11.553
			c0,38.746,6.198,63.707,18.582,74.883c4.915,4.721,8.554,7.082,10.915,7.082c1.18-0.498,1.769-1.615,1.769-3.354
			c0.782-7.201,1.182-17.637,1.182-31.295c0.392-2.732,0.981-4.102,1.769-4.102c1.18-0.242,1.864,0.748,2.063,2.98
			c0.782,17.387,2.358,33.906,4.719,49.553c0.392,1.488,0.193,2.607-0.589,3.354c-0.397,0.994-1.285,1.367-2.654,1.117
			c-6.297,0-14.451-5.59-24.479-16.768c-2.559-2.98-4.526-5.709-5.901-8.193c-8.458-12.668-13.566-38.498-15.336-77.496
			c0-2.479-0.692-3.846-2.067-4.098c-3.146-0.99-10.028,0.744-20.646,5.217c-2.753,14.656-5.309,26.453-7.667,35.393
			c0.589,0.252,0.981,0.5,1.178,0.744c10.814,8.197,16.222,14.531,16.222,19.002c-0.589,7.453-1.18,11.307-1.769,11.551
			c-0.788,0.498-1.281,0.373-1.475-0.375c-5.704-7.695-11.206-15.271-16.518-22.725c-1.767,3.979-3.343,8.195-4.716,12.668
			c-4.528,10.682-10.427,21.609-17.7,32.785c-5.309,6.461-10.422,12.795-15.337,19.002c30.869-6.207,51.32-11.178,61.349-14.904
			c0.981-0.244,2.063-0.373,3.247-0.373c2.359,0.502,5.307,3.727,8.844,9.688c0.981,1.74,1.184,2.734,0.593,2.98
			c-0.788,0.742-1.576,1.246-2.358,1.488c-7.477,0.746-40.411,6.336-98.808,16.768c-5.899,0.746-11.208,1.861-15.928,3.354
			c-5.897-0.496-10.914-2.729-15.044-6.707c-0.986-0.988-1.178-1.861-0.589-2.607c0.589-1.242,18.287-4.1,53.093-8.568
			C866.502,824.26,879.087,800.166,883.216,778.557z"/>
	</g>
	<g>
		<path fill="#91A51F" d="M1694.676,664.66c0,1.246,0.096,2.734,0.293,4.471c0.392,8.941,0.488,14.285,0.296,16.021
			c-0.79,2.486-1.872,2.855-3.247,1.115c-2.951-3.969-4.425-10.803-4.425-20.49c-27.135,3.479-48.661,7.207-64.59,11.176
			c-5.507,1.248-11.502-1.115-17.991-7.076c-0.988-0.99-1.178-1.863-0.589-2.609c0.392-0.988,1.272-1.49,2.653-1.49
			c11.009-0.494,34.309-3.354,69.9-8.57c3.146-0.742,6.489-1.117,10.028-1.117c-1.373-14.154-2.458-23.846-3.242-29.061
			c-1.178-2.979-1.874-5.586-2.063-7.82c-0.399-1.986,0.291-2.855,2.063-2.609c0.784,0.5,3.634,2.98,8.554,7.451
			c1.962,1.992,2.653,4.227,2.063,6.707c-0.792,5.713-0.885,13.785-0.298,24.215c17.499-3.475,35.492-6.457,53.978-8.941
			c1.767-15.146,2.553-25.334,2.362-30.551c-0.203-1.486-0.298-2.607-0.298-3.352c0.197-2.236,0.981-2.854,2.361-1.863
			c0.981,0.744,3.932,4.971,8.845,12.668c1.578,2.234,1.671,4.471,0.298,6.703c-2.754,4.725-4.427,9.689-5.014,14.906
			c3.14-0.99,6.584-1.613,10.324-1.863c12.776-1.988,25.166-4.221,37.163-6.707c15.924-5.215,24.476-7.695,25.659-7.451
			c2.748,0,5.895,3.479,9.439,10.43c0.982,1.492,1.178,2.609,0.589,3.354c-0.986,0.746-1.872,1.117-2.658,1.117
			c-35.391,3.484-63.115,7.453-83.171,11.924c-5.708,20.369-9.439,31.049-11.21,32.039c-1.375,0.502-2.167,0.254-2.356-0.742
			c0-0.99,0.094-2.357,0.291-4.098c2.753-9.189,4.723-17.885,5.899-26.08C1728.688,658.949,1711.386,661.68,1694.676,664.66z
			 M1641.875,928.061c0.597,9.932,0.786,18.752,0.597,26.453c-0.399,3.723-1.874,3.598-4.427-0.373
			c-5.708-10.682-7.672-19.502-5.899-26.453c0.589-5.457,0.886-51.785,0.886-138.965c-0.201-49.924-0.886-80.473-2.063-91.65
			c-0.201-1.24-0.201-2.605,0-4.098c0.388-1.49,1.178-1.49,2.356,0c1.576,2.486,3.044,5.961,4.425,10.432
			c1.184,3.23,2.458,5.344,3.836,6.334c8.452-3.477,23.103-6.455,43.944-8.941c4.324-1.49,7.965-4.471,10.914-8.939
			c1.375-1.988,2.652-2.482,3.836-1.494c2.159,1.992,4.129,4.102,5.901,6.334c1.57,2.236,1.666,4.227,0.291,5.961
			c-2.754,3.232-4.228,6.836-4.425,10.807c-1.375,17.387-2.462,31.295-3.241,41.727c1.375,0,3.54,2.236,6.488,6.707
			c1.375,1.988,1.077,3.107-0.885,3.354c-8.85,1.486-17.207,2.977-25.07,4.469c-10.814,2.484-21.93,4.842-33.328,7.078
			c-1.968,0.25-3.538,0.746-4.723,1.49C1641.483,872.178,1641.681,922.102,1641.875,928.061z M1691.429,757.43
			c0.392-6.707,1.477-21.984,3.247-45.828c-0.201-1.984-1.474-2.479-3.836-1.488c-4.918,0.744-21.335,3.725-49.255,8.939
			c-0.201,5.719-0.298,12.426-0.298,20.119c19.469-3.971,31.656-6.703,36.575-8.197c1.964-0.988,3.635-0.744,5.014,0.746
			c2.362,2.486,3.836,4.102,4.425,4.844c1.178,2.484,0.589,3.854-1.771,4.098c-5.704,0.746-11.604,1.619-17.696,2.607
			c-17.505,3.977-26.35,5.963-26.546,5.963c0,6.209,0,12.668,0,19.373c6.093-1.734,14.847-3.475,26.255-5.215
			c6.68-1.242,13.366-2.611,20.051-4.1C1688.966,758.303,1690.251,757.68,1691.429,757.43z M1683.464,870.688
			c-0.195,1.988-0.291,3.854-0.291,5.586c-0.397,4.475-1.475,5.094-3.249,1.865c-4.324-9.688-5.899-15.771-4.716-18.256
			c2.362-13.164,2.063-28.314-0.885-45.451c-0.197-1.988,0.094-3.354,0.885-4.1c1.178-0.746,1.869-0.371,2.063,1.117
			c1.178,3.729,2.362,7.207,3.54,10.432c11.206-2.479,22.513-4.594,33.92-6.334c0-5.459,0-10.928,0-16.391
			c-6.689,0.992-19.174,3.354-37.46,7.076c-5.899,1.248-11.206-0.371-15.927-4.842c-0.399-1.242-0.494-1.986-0.293-2.234
			c0.389-0.746,3.337-1.117,8.845-1.117c20.647-4.475,35.684-7.205,45.117-8.197c-0.191-11.178-0.875-20.615-2.052-28.316
			c-0.589-3.969,0.37-4.842,2.896-2.609c2.074,1.492,4.351,3.857,6.833,7.082c1.772,2.482,2.361,4.598,1.772,6.332
			c-1.38,3.48-2.362,8.941-2.951,16.393c6.293-1.984,12.682-3.475,19.171-4.471c7.077-1.49,16.321-4.098,27.73-7.822
			c1.178-0.246,2.159-0.375,2.943-0.375c2.361,0.746,4.819,3.482,7.375,8.197c0.589,1.49,0.786,2.365,0.589,2.609
			c-0.589,0.498-1.277,0.744-2.063,0.744c-15.929,2.236-34.509,5.588-55.745,10.059c0,5.717,0,11.176,0,16.393
			c9.833-2.232,20.058-4.471,30.675-6.707c1.182-0.494,2.949-2.355,5.31-5.586c1.57-2.238,3.046-2.482,4.425-0.748
			c4.717,5.217,6.192,9.316,4.419,12.295c-3.343,2.982-5.603,13.041-6.779,30.178c1.176-0.742,2.157-0.615,2.949,0.375
			c2.159,1.74,3.932,3.725,5.307,5.961c1.374,1.99,1.083,3.107-0.882,3.354c-19.275,2.979-34.504,5.961-45.705,8.939
			c-0.191,46.699-0.663,72.279-1.417,76.748c-0.945,4.471-2.356,4.471-4.241,0c-3.904-7.701-5.269-13.16-4.091-16.391
			c2.159-7.453,3.247-23.223,3.247-47.316c-21.435,23.602-41.984,40.236-61.643,49.924c-0.791,0.5-1.476,0.248-2.065-0.748
			c-0.397-1.236,0-2.232,1.178-2.979c25.166-18.379,44.538-37.258,58.105-56.629C1695.95,867.211,1687.004,869.197,1683.464,870.688
			z M1692.905,828.215c-4.331,0.746-7.77,1.619-10.321,2.609c0.191,7.447,0.387,17.508,0.589,30.176
			c7.269-1.49,17.791-3.475,31.559-5.961c0-10.674,0-21.236,0-31.668c-7.672,1.246-13.963,2.607-18.878,4.1
			c4.128,5.215,6.781,9.686,7.964,13.41c0.981,1.74,1.077,3.484,0.293,5.215c-0.786,2.486-1.578,4.6-2.356,6.338
			c-0.399,0.498-0.887,0.744-1.476,0.744c-0.397-0.246-0.695-0.496-0.885-0.744c0-0.498-0.101-1.121-0.298-1.863
			c-1.178-4.221-2.165-8.32-2.945-12.299C1695.164,834.549,1694.082,831.195,1692.905,828.215z M1736.259,818.9
			c-5.502,0.996-10.42,1.99-14.746,2.98c0,10.684,0,21.363,0,32.039c3.54-1.238,6.49-1.861,8.852-1.861
			c3.141-9.93,5.11-19,5.894-27.197C1736.259,822.627,1736.259,820.641,1736.259,818.9z M1760.74,888.195
			c2.167,1.994,3.247,8.945,3.247,20.865c-0.397,1.246-0.986,1.738-1.771,1.49c-0.786-0.744-2.065-2.234-3.831-4.471
			c-3.742-5.961-8.559-12.293-14.455-19c-9.634-10.676-14.453-16.889-14.453-18.629c-0.197-1.984,0.685-2.479,2.654-1.49
			C1737.442,869.941,1746.977,877.02,1760.74,888.195z M1796.136,757.055c-35.003,8.199-53.387,12.668-55.154,13.414
			c-0.197,2.979-0.298,5.342-0.298,7.078c-0.786,4.471-2.165,4.721-4.129,0.744c-3.346-8.197-4.329-13.037-2.949-14.529
			c2.551-18.873,2.652-43.713,0.296-74.512c-0.202-0.988,0.096-1.611,0.885-1.865c0.983,0,1.767,0.502,2.356,1.49
			c1.964,5.963,3.249,9.314,3.837,10.061c2.36-0.496,5.406-1.119,9.141-1.863c12.784-2.729,25.659-5.338,38.638-7.822
			c4.323-2.982,7.965-6.082,10.915-9.314c1.373-1.734,2.748-1.863,4.127-0.375c1.772,1.74,3.539,3.482,5.313,5.217
			c1.569,1.992,1.665,3.854,0.292,5.588c-1.767,2.486-2.654,3.854-2.654,4.102c-0.589,1.244-0.885,65.941-0.885,194.105
			c0,40.73-2.065,64.078-6.192,70.041c-0.589,0.744-1.184,0.988-1.772,0.744c-0.589-0.998-1.178-1.992-1.768-2.98
			c-5.115-10.934-12.49-22.107-22.121-33.533c-1.182-1.984-1.475-3.354-0.885-4.096c0.786-0.988,1.57-0.988,2.361,0
			c6.488,6.459,12.485,11.67,17.987,15.648c0.98,0,1.575-0.127,1.772-0.375c0.587-0.746,0.885-1.99,0.885-3.725
			c0.981-15.146,1.477-72.771,1.477-172.867C1796.821,757.182,1796.327,757.055,1796.136,757.055z M1734.788,850.939
			c4.909-1.49,10.024-2.729,15.335-3.723c0.589-0.244,1.279-0.498,2.065-0.746c0.589-5.713,1.771-15.396,3.538-29.061
			c0-1.24-0.69-1.734-2.063-1.49c-4.718,0.744-9.143,1.49-13.27,2.234c1.767,2.736,3.044,4.6,3.831,5.59
			c0.784,1.74,0.784,3.109,0,4.098c-0.589,0.994-1.767,3.48-3.54,7.453C1737.538,843.244,1735.569,848.461,1734.788,850.939z
			 M1741.571,740.291c-0.197,9.189-0.298,15.646-0.298,19.371c1.772-0.746,18.878-4.842,51.324-12.293
			c1.571-0.746,3.241-1.24,5.016-1.49c0-15.148,0-30.18,0-45.08c0-2.48-1.285-3.598-3.838-3.354
			c-34.61,7.451-52.008,11.178-52.203,11.178c0,7.451,0,14.656,0,21.607c21.827-5.459,34.8-9.063,38.934-10.803
			c1.962-0.99,3.636-0.746,5.014,0.742c2.356,2.236,3.831,3.729,4.42,4.475c1.375,2.484,0.786,3.852-1.767,4.096
			c-11.604,2.484-24.481,5.588-38.638,9.314C1745.994,738.799,1743.342,739.545,1741.571,740.291z"/>
	</g>
	<g>
		<path fill="#91A51F" d="M2100.417,752.586c-20.259,4.971-31.561,8.324-33.922,10.059c-1.575,0-5.311-2.236-11.206-6.707
			c-2.17-3.227-1.677-4.844,1.477-4.844c9.039-1.238,17.201-2.98,24.476-5.215c6.096-1.986,12.485-3.727,19.176-5.217
			c0.589-75.006-0.298-117.107-2.659-126.299c-0.784-2.73-1.277-5.213-1.475-7.451c-0.195-1.488,0.102-2.357,0.885-2.607
			c0.786-0.746,1.869-0.371,3.249,1.119c5.11,5.217,9.143,9.439,12.092,12.666c0.981,1.49,0.882,5.215-0.296,11.178
			c-1.97,6.209-2.951,42.471-2.951,108.787c8.452-2.48,12.979-3.727,13.567-3.727c10.813-4.221,16.909-5.588,18.289-4.098
			c2.159,1.994,3.933,3.854,5.306,5.592c3.147,2.977,2.553,4.969-1.766,5.957c-14.555,1.992-26.354,4.844-35.396,8.568
			c0,28.072,0,57.504,0,88.299c27.134-20.119,41.683-30.176,43.652-30.176c1.772-0.244,2.551,0.498,2.361,2.232
			c-0.399,1.49-0.988,2.363-1.772,2.607c-36.181,30.057-60.462,49.68-72.851,58.867c-6.294,3.975-11.505,8.322-15.632,13.041
			c-2.361,2.232-4.817,2.607-7.375,1.115c-4.716-2.729-7.96-4.967-9.732-6.707c-1.378-1.238-1.474-2.355-0.296-3.354
			c1.373-1.238,4.228-2.729,8.554-4.469c9.634-5.461,19.563-11.299,29.791-17.512c4.129-3.225,8.948-6.455,14.455-9.684
			C2100.417,811.824,2100.417,781.148,2100.417,752.586z M2184.182,828.215c-14.75,50.422-43.759,93.641-87.014,129.652
			c-0.783,0.746-1.474,0.369-2.063-1.117c-0.398-0.998-0.195-1.992,0.589-2.982c14.156-13.662,26.053-26.574,35.688-38.746
			c1.771-2.73,3.538-5.215,5.311-7.451c3.932-5.961,13.371-23.098,28.312-51.414c21.432-53.891,30.281-99.971,26.547-138.219
			c-13.567,1.988-23.993,4.098-31.263,6.332c-5.312,0.994-11.206-1.238-17.696-6.707c-0.789-0.99-1.082-1.863-0.885-2.609
			c0.589-0.988,1.569-1.486,2.95-1.486c70.585-11.178,114.438-20.492,131.545-27.945c1.178-0.244,2.457-0.369,3.831-0.369
			c3.146,0.992,6.293,4.469,9.438,10.43c0.981,1.49,1.184,2.607,0.589,3.354c-0.784,0.746-1.575,1.117-2.355,1.117
			c-20.454,2.982-50.242,8.57-89.368,16.768c2.159,2.482,4.521,5.713,7.078,9.686c1.767,2.979,1.964,5.719,0.589,8.195
			c-2.557,4.227-5.604,18.629-9.141,43.217c6.091-2.234,18.972-5.217,38.638-8.941c6.488-1.982,11.889-5.586,16.219-10.805
			c1.571-2.234,3.248-2.479,5.016-0.742c1.57,1.486,3.633,4.096,6.19,7.824c1.772,2.977,1.673,5.342-0.291,7.076
			c-2.951,2.98-5.115,8.195-6.488,15.648c-9.637,50.918-16.327,85.688-20.057,104.316c-6.49,29.807-13.276,49.301-20.354,58.494
			c-0.98,1.49-1.767,2.105-2.355,1.861c-0.79-0.25-1.576-1.246-2.362-2.98c-8.255-16.395-17.105-32.164-26.546-47.314
			c-1.766-2.982-2.259-4.967-1.475-5.961c0.982-0.99,3.54,1.117,7.668,6.332c14.353,15.9,22.221,23.846,23.595,23.846
			c0.786,0,1.575-0.867,2.361-2.607c13.37-36.262,23.691-84.199,30.972-143.811c-0.987-2.48-2.76-2.854-5.313-1.117
			c-30.674,6.461-46.603,9.814-47.779,10.059C2191.354,801.764,2187.913,814.803,2184.182,828.215z M2218.688,650.504
			c1.771,4.469,0.885,12.795-2.654,24.961c-0.59,1.488-1.277,1.74-2.063,0.742c-0.792-0.492-1.285-1.115-1.477-1.861
			c-0.589-1.488-1.176-3.102-1.771-4.842c-2.754-9.438-6.592-19.496-11.504-30.178c-7.667-17.139-11.402-26.574-11.207-28.316
			c0.197-2.98,1.279-3.225,3.247-0.744C2202.27,624.178,2211.413,637.592,2218.688,650.504z"/>
	</g>
</g>
</svg>
