<?xml version="1.0" encoding="utf-8"?>
<!-- Generator: Adobe Illustrator 16.0.0, SVG Export Plug-In . SVG Version: 6.00 Build 0)  -->
<!DOCTYPE svg PUBLIC "-//W3C//DTD SVG 1.1//EN" "http://www.w3.org/Graphics/SVG/1.1/DTD/svg11.dtd">
<svg version="1.1" id="圖層_1" xmlns="http://www.w3.org/2000/svg" xmlns:xlink="http://www.w3.org/1999/xlink" x="0px" y="0px"
	 width="1527.874px" height="1017.638px" viewBox="0 0 1527.874 1017.638" enable-background="new 0 0 1527.874 1017.638"
	 xml:space="preserve">
<g>
	<g>
		<g>
			<path fill="#ED73C5" d="M747.102,448.957c0.938,5.483,1.256,9.171,1.746,15.631c0.321,3.434,0.313,14.281-3.818,23.061
				c-3.684,9.2-11.295,13.91-11.338,13.637c0-0.02-1.814,1.189-4.967,1.995c-2.985,0.789-8.115,0.941-11.092-2.101
				c-3.063-3.068-0.415-8.396,2.176-11.369c2.673-3.228,5.559-5.276,6.957-6.271c5.37-3.509,8.601-5.261,13.863-7.058
				c-5.558,0.235-9.559,1.34-15.252,5.026c-1.5,1.057-4.553,3.203-7.475,6.731c-1.439,1.77-2.889,3.882-3.677,6.488
				c-0.857,2.518-0.573,6.04,1.585,8.141c4.291,4.165,10.066,3.605,13.49,2.8c3.591-0.915,5.604-2.267,5.604-2.233
				c0.043,0.338,8.598-5.124,12.383-14.778c4.383-9.327,4.361-20.651,4.013-24.216C750.764,457.724,749.543,453.966,747.102,448.957
				z"/>
		</g>
		<g>
			<path fill="#ED73C5" d="M714.69,448.801c-1.946-9.734,3.301-15.283,11.431-22.625c2.303-2.104,7.152-5.649,13.381-10.353
				c2.969-2.578,5.815-5.943,7.611-10.105c1.839-3.974,2.121-9.825-1.521-13.412c-3.473-3.475-8.093-4.393-11.976-4.871
				c-3.932-0.695-7.988,0.272-10.8,1.289c-5.937,2.147-8.999,5.001-9.026,4.925c0.079,0.048-3.485,2.29-6.981,7.556
				c-3.579,5.199-6.111,13.568-5.928,22.409c0.388,8.846,3.539,17.807,8.327,24.097c4.769,6.395,11.091,9.274,14.145,10.104
				c5.753,1.739,10.644,1.534,14.915,0.33c4.078-1.205,8.509-4.115,8.833-9.188c-1.196,4.875-5.469,6.632-9.277,7.438
				c-3.989,0.716-8.469,0.688-13.733-0.932c-2.813-0.776-8.49-3.349-12.911-9.252c-4.436-5.785-7.469-14.404-7.822-22.679
				c-0.17-8.322,2.225-16.217,5.513-20.978c3.216-4.856,6.497-6.911,6.435-6.96c0.011,0.08,2.844-2.566,8.33-4.541
				c2.833-0.955,5.919-1.807,9.704-1.175c3.646,0.423,7.81,1.405,10.459,4.131c2.744,2.693,2.63,7.134,1.038,10.754
				c-1.586,3.679-4.2,6.813-6.947,9.182c-5.883,4.437-11.097,8.259-13.374,10.369c-4.347,3.86-7.526,7.369-9.435,11.417
				C713.093,439.707,712.838,444.357,714.69,448.801z"/>
		</g>
		<g>
			<path fill="#ED73C5" d="M768.059,448.957c-2.432,5.009-3.65,8.767-4.191,15.483c-0.343,3.564-0.373,14.889,4.017,24.216
				c3.774,9.654,12.34,15.116,12.38,14.778c0-0.033,2.01,1.318,5.601,2.233c3.424,0.806,9.202,1.365,13.495-2.8
				c2.16-2.101,2.447-5.623,1.584-8.141c-0.789-2.606-2.237-4.719-3.671-6.488c-2.925-3.528-5.985-5.675-7.482-6.731
				c-5.698-3.687-9.69-4.791-15.258-5.026c5.27,1.797,8.499,3.549,13.873,7.058c1.396,0.995,4.284,3.044,6.957,6.271
				c2.593,2.973,5.233,8.301,2.183,11.369c-2.985,3.042-8.116,2.89-11.096,2.101c-3.166-0.806-4.981-2.015-4.97-1.995
				c-0.046,0.273-7.659-4.437-11.329-13.637c-4.14-8.779-4.15-19.627-3.825-23.051C766.806,458.128,767.129,454.44,768.059,448.957z
				"/>
		</g>
		<g>
			<path fill="#ED73C5" d="M800.481,448.801c1.85-4.443,1.591-9.094-0.391-13.069c-1.921-4.048-5.087-7.557-9.435-11.417
				c-2.288-2.101-7.49-5.933-13.369-10.369c-2.755-2.369-5.361-5.503-6.95-9.182c-1.603-3.62-1.71-8.061,1.034-10.754
				c2.649-2.726,6.811-3.708,10.461-4.131c3.785-0.632,6.865,0.22,9.705,1.175c5.485,1.978,8.318,4.621,8.324,4.541
				c-0.063,0.049,3.215,2.104,6.433,6.96c3.295,4.761,5.698,12.655,5.515,20.978c-0.338,8.274-3.381,16.894-7.817,22.679
				c-4.422,5.903-10.103,8.476-12.913,9.252c-5.254,1.62-9.745,1.647-13.723,0.932c-3.822-0.806-8.093-2.563-9.297-7.438
				c0.336,5.072,4.766,7.982,8.85,9.188c4.265,1.204,9.157,1.409,14.9-0.33c3.055-0.83,9.381-3.71,14.146-10.104
				c4.795-6.29,7.947-15.251,8.328-24.097c0.198-8.841-2.343-17.21-5.922-22.409c-3.498-5.266-7.063-7.508-6.988-7.556
				c-0.025,0.076-3.083-2.777-9.02-4.925c-2.813-1.017-6.859-1.984-10.799-1.289c-3.895,0.479-8.509,1.396-11.979,4.871
				c-3.643,3.587-3.358,9.438-1.521,13.412c1.808,4.162,4.634,7.527,7.614,10.105c6.231,4.703,11.072,8.248,13.378,10.353
				C797.181,433.518,802.426,439.066,800.481,448.801z"/>
		</g>
		<g>
			<path fill="#ED73C5" d="M773.373,495.741c-0.776-1.56-1.426-2.643-3.051-3.989c-0.868-0.745-3.755-2.717-6.807-3.577
				c-3.031-0.955-5.941-0.861-5.933-0.903c0.013,0.042-2.899-0.052-5.928,0.903c-3.054,0.86-5.948,2.832-6.808,3.577
				c-1.629,1.347-2.283,2.43-3.052,3.989c1.394-1.082,2.274-1.777,3.824-3.031c0.808-0.686,3.526-2.542,6.396-3.35
				c2.836-0.898,5.579-0.822,5.566-0.863c-0.009,0.041,2.728-0.035,5.571,0.863c2.865,0.808,5.58,2.664,6.4,3.35
				C771.099,493.964,771.981,494.659,773.373,495.741z"/>
		</g>
	</g>
	<g>
		<g>
			<path fill="#ED73C5" d="M768.067,568.678c-0.938-5.483-1.258-9.17-1.747-15.631c-0.323-3.434-0.313-14.276,3.816-23.061
				c3.688-9.199,11.294-13.908,11.337-13.636c0,0.019,1.818-1.186,4.97-1.992c2.985-0.79,8.116-0.941,11.093,2.095
				c3.06,3.07,0.413,8.4-2.177,11.372c-2.676,3.228-5.561,5.277-6.96,6.271c-5.368,3.509-8.598,5.261-13.859,7.06
				c5.555-0.235,9.558-1.341,15.25-5.026c1.5-1.054,4.554-3.204,7.477-6.733c1.439-1.77,2.888-3.88,3.677-6.488
				c0.857-2.515,0.57-6.039-1.584-8.14c-4.293-4.164-10.068-3.606-13.495-2.801c-3.587,0.915-5.601,2.268-5.601,2.235
				c-0.046-0.34-8.599,5.123-12.383,14.776c-4.387,9.331-4.359,20.653-4.014,24.218
				C764.405,559.911,765.624,563.669,768.067,568.678z"/>
		</g>
		<g>
			<path fill="#ED73C5" d="M800.479,568.836c1.947,9.734-3.301,15.28-11.431,22.623c-2.304,2.106-7.152,5.651-13.381,10.352
				c-2.969,2.579-5.814,5.947-7.615,10.106c-1.834,3.974-2.118,9.827,1.521,13.416c3.477,3.473,8.096,4.389,11.977,4.867
				c3.932,0.7,7.989-0.271,10.805-1.288c5.931-2.148,8.996-5.002,9.022-4.926c-0.077-0.045,3.487-2.285,6.985-7.555
				c3.576-5.199,6.108-13.572,5.925-22.409c-0.387-8.845-3.538-17.807-8.327-24.096c-4.77-6.396-11.093-9.277-14.145-10.105
				c-5.752-1.738-10.645-1.533-14.914-0.33c-4.08,1.206-8.509,4.115-8.833,9.187c1.195-4.877,5.466-6.632,9.276-7.438
				c3.989-0.714,8.469-0.687,13.734,0.933c2.811,0.779,8.491,3.351,12.907,9.251c4.439,5.785,7.474,14.406,7.829,22.68
				c0.166,8.324-2.231,16.218-5.515,20.978c-3.221,4.856-6.495,6.912-6.438,6.961c-0.011-0.082-2.845,2.565-8.33,4.54
				c-2.828,0.954-5.916,1.808-9.702,1.177c-3.647-0.426-7.812-1.408-10.458-4.131c-2.744-2.695-2.633-7.135-1.038-10.754
				c1.585-3.678,4.199-6.816,6.948-9.183c5.879-4.435,11.092-8.259,13.372-10.37c4.348-3.859,7.525-7.37,9.433-11.418
				C802.072,577.929,802.331,573.277,800.479,568.836z"/>
		</g>
		<g>
			<path fill="#ED73C5" d="M747.108,568.678c2.434-5.009,3.652-8.767,4.192-15.481c0.346-3.564,0.371-14.887-4.016-24.218
				c-3.777-9.653-12.339-15.116-12.382-14.776c0,0.032-2.009-1.32-5.601-2.235c-3.424-0.806-9.204-1.363-13.494,2.801
				c-2.159,2.101-2.446,5.625-1.586,8.14c0.79,2.608,2.236,4.719,3.677,6.488c2.922,3.529,5.981,5.68,7.479,6.733
				c5.697,3.686,9.69,4.791,15.26,5.026c-5.271-1.799-8.502-3.551-13.874-7.06c-1.398-0.993-4.285-3.043-6.957-6.271
				c-2.592-2.972-5.234-8.302-2.183-11.372c2.985-3.036,8.112-2.885,11.095-2.095c3.166,0.807,4.981,2.011,4.971,1.992
				c0.044-0.272,7.656,4.437,11.328,13.636c4.14,8.784,4.151,19.627,3.824,23.054C748.36,559.508,748.036,563.194,747.108,568.678z"
				/>
		</g>
		<g>
			<path fill="#ED73C5" d="M714.688,568.836c-1.853,4.441-1.594,9.093,0.392,13.067c1.918,4.048,5.085,7.559,9.433,11.418
				c2.289,2.1,7.491,5.936,13.367,10.37c2.759,2.366,5.362,5.505,6.953,9.183c1.6,3.619,1.711,8.059-1.033,10.754
				c-2.652,2.723-6.814,3.705-10.463,4.131c-3.785,0.631-6.868-0.223-9.704-1.177c-5.483-1.977-8.317-4.622-8.328-4.54
				c0.066-0.049-3.215-2.104-6.433-6.961c-3.289-4.76-5.697-12.653-5.514-20.978c0.341-8.273,3.383-16.895,7.82-22.68
				c4.422-5.9,10.102-8.472,12.913-9.251c5.253-1.619,9.741-1.646,13.722-0.933c3.821,0.806,8.093,2.561,9.296,7.438
				c-0.334-5.071-4.765-7.98-8.849-9.187c-4.264-1.203-9.159-1.408-14.898,0.33c-3.057,0.828-9.384,3.709-14.148,10.105
				c-4.795,6.289-7.946,15.251-8.328,24.096c-0.195,8.837,2.343,17.21,5.922,22.409c3.496,5.27,7.063,7.51,6.986,7.555
				c0.025-0.076,3.085,2.777,9.024,4.926c2.811,1.018,6.856,1.988,10.797,1.288c3.895-0.479,8.512-1.395,11.976-4.867
				c3.643-3.589,3.362-9.442,1.523-13.416c-1.811-4.159-4.635-7.527-7.614-10.106c-6.229-4.7-11.072-8.245-13.378-10.352
				C717.985,584.116,712.741,578.57,714.688,568.836z"/>
		</g>
		<g>
			<path fill="#ED73C5" d="M741.793,521.893c0.777,1.562,1.426,2.644,3.055,3.991c0.865,0.746,3.752,2.716,6.805,3.579
				c3.028,0.954,5.941,0.86,5.932,0.9c-0.014-0.04,2.899,0.054,5.93-0.9c3.054-0.863,5.944-2.833,6.805-3.579
				c1.635-1.348,2.285-2.43,3.055-3.991c-1.395,1.084-2.274,1.78-3.826,3.034c-0.809,0.684-3.524,2.54-6.395,3.348
				c-2.838,0.899-5.582,0.823-5.568,0.863c0.01-0.04-2.729,0.036-5.57-0.863c-2.867-0.808-5.582-2.664-6.398-3.348
				C744.07,523.673,743.187,522.977,741.793,521.893z"/>
		</g>
	</g>
</g>
<g>
	<path fill="#91A51F" d="M303.458,489.559c-11.267,1.883-22.054,3.693-32.36,5.438c0.85,1.61,1.753,3.422,2.711,5.437
		c1.912,3.76,3.398,7.048,4.462,9.867c0.425,1.746,0.264,3.491-0.478,5.234c-1.49,3.09-2.551,5.034-3.188,5.841
		c-0.746,0.537-1.172,0.335-1.276-0.605c-0.107-0.267-0.16-0.87-0.16-1.813c-0.425-4.294-1.435-10.738-3.028-19.33
		c-0.533-1.61-0.852-3.087-0.955-4.431c-2.871,0.137-6.696,0.806-11.479,2.015c-2.976,0.673-6.216-0.604-9.724-3.825
		c-0.531-0.535-0.638-1.008-0.319-1.409c0.212-0.535,0.691-0.807,1.437-0.807c4.356-0.132,12.911-1.208,25.664-3.222
		c4.783-0.938,9.564-1.678,14.347-2.215v-0.201c-0.214-0.535-0.373-1.074-0.479-1.611c-1.913-8.187-3.826-14.498-5.738-18.928
		c-0.214-0.268-0.318-0.671-0.318-1.208c-0.106-0.67,0-1.073,0.318-1.209c0.319-0.132,0.69,0,1.115,0.403
		c4.783,6.177,7.652,10.137,8.608,11.881c0.85,1.478,0.318,5.034-1.594,10.672c4.887-1.074,9.775-2.015,14.665-2.819
		c4.568-0.806,8.821-1.677,12.753-2.618c6.059-1.743,9.246-2.618,9.565-2.618c1.487,0,3.188,1.883,5.101,5.64
		c0.53,0.805,0.639,1.409,0.319,1.811c-0.532,0.403-1.011,0.605-1.435,0.605c-11.266,1.207-20.3,2.485-27.101,3.825
		c0.743,0.807,2.286,3.223,4.623,7.249c0.53,0.941,0.583,1.812,0.16,2.618c-2.446,3.759-5.581,11.478-9.406,23.156
		c9.988-2.015,15.942-3.021,17.854-3.021c10.521-2.416,20.935-4.697,31.244-6.846c1.381,0.401,3.189,2.416,5.42,6.041
		c0.53,0.94,0.584,1.61,0.16,2.013c-0.427,0.403-0.852,0.673-1.275,0.807c-9.672,0.672-18.707,1.609-27.101,2.818
		c-60.575,9.263-90.918,14.095-91.021,14.498c-1.276-0.132-3.722-1.813-7.333-5.034c-0.533-0.67-0.639-1.209-0.319-1.61
		c0.104-0.403,23.167-3.424,69.184-9.063C301.33,508.487,303.458,497.346,303.458,489.559z M274.285,456.537
		c0.639,12.08,0.798,18.726,0.479,19.934c-0.318,1.746-0.955,1.948-1.913,0.604c-0.318-0.402-0.637-0.806-0.955-1.209
		c-1.276-2.013-1.914-8.256-1.914-18.726c-0.426,0-0.692,0-0.796,0c-18.388,1.746-28.112,3.422-29.174,5.034
		c-1.274-0.134-3.721-1.813-7.332-5.034c-0.534-0.671-0.637-1.209-0.318-1.612c0.318-0.534,0.849-0.804,1.594-0.804
		c4.782-0.134,16.578-1.41,35.389-3.827c0.212-0.132,0.372-0.132,0.479,0c-0.957-12.887-1.754-20.806-2.392-23.761
		c-0.534-2.013-0.955-3.689-1.274-5.033c-0.214-1.611,0.21-2.146,1.274-1.611c0.638,0.271,2.551,1.881,5.738,4.834
		c1.276,1.207,1.7,2.616,1.276,4.229c-0.637,3.759-0.746,10.672-0.318,20.739c11.582-1.61,23.326-3.288,35.229-5.034
		c1.806-13.692,2.55-22.352,2.231-25.975c-0.106-1.073-0.159-1.879-0.159-2.418c0.211-1.207,0.689-1.54,1.435-1.007
		c0.637,0.403,2.602,3.091,5.898,8.056c0.849,1.61,0.901,3.089,0.158,4.43c-1.063,1.746-2.604,7.047-4.622,15.907
		c6.269-0.806,12.327-1.813,18.173-3.02c8.394-2.416,12.753-3.625,13.071-3.625c1.379,0.402,3.188,2.416,5.42,6.041
		c0.53,0.94,0.583,1.61,0.16,2.013c-0.427,0.403-0.852,0.674-1.276,0.806c-9.671,0.538-22.053,2.014-37.143,4.43
		c-3.4,13.964-6.057,22.15-7.969,24.566c-0.853,0.402-1.331,0.202-1.436-0.604c-0.214-0.671-0.159-1.476,0.159-2.416
		c1.912-7.382,3.507-14.298,4.783-20.741C296.549,453.182,285.23,454.793,274.285,456.537z M263.923,600.508
		c-0.424,2.953-1.17,3.354-2.23,1.209c-0.534-1.209-1.754-4.097-3.667-8.659c-0.638-1.745-0.638-3.491,0-5.234
		c1.699-5.905,1.595-19.936-0.319-42.084c-0.106-1.476,0.053-2.482,0.479-3.021c0.743-0.535,1.328-0.201,1.754,1.008
		c1.487,4.832,2.551,7.52,3.188,8.054c2.552-0.534,5.263-1.006,8.13-1.409c9.033-1.476,17.27-2.885,24.71-4.229
		c3.506-0.806,7.013-1.476,10.521-2.015c5.102-1.339,8.29-3.221,9.564-5.638c0.957-1.339,1.806-1.541,2.552-0.604
		c1.274,1.479,2.392,2.888,3.347,4.229c0.957,1.611,0.957,2.888,0,3.825c-1.809,1.882-2.869,4.028-3.188,6.444
		c-1.702,10.338-3.085,18.796-4.146,25.372c0.425,0,1.009,0.27,1.753,0.804c1.381,1.48,2.551,2.89,3.508,4.229
		c0.85,1.48,0.638,2.284-0.639,2.418c-30.606,3.221-48.938,5.839-54.995,7.852C264.136,595.476,264.029,597.957,263.923,600.508z
		 M309.196,580.172c0.742-4.834,2.285-14.7,4.622-29.601c0.106-0.938-0.477-1.34-1.752-1.208l-48.621,8.255
		c0,0.806,0.054,1.681,0.159,2.618c0.213,8.592,0.372,17.317,0.479,26.177c17.639-2.145,32.253-4.094,43.838-5.839
		C308.344,580.441,308.771,580.307,309.196,580.172z"/>
</g>
<g>
	<path fill="#91A51F" d="M548.539,584.601c-27.736,6.576-44.848,12.284-51.329,17.116c-1.171,0.806-2.128,0.735-2.87-0.2
		c-1.701-2.015-2.765-3.493-3.188-4.431c-0.639-1.344,0.638-2.618,3.825-3.826c9.988-7.919,17.269-17.519,21.839-28.795
		c-29.228,4.565-44.371,7.25-45.432,8.055c-0.852-0.132-3.084-1.813-6.694-5.033c-0.534-0.671-0.639-1.209-0.318-1.611
		c0.318-0.535,0.849-0.807,1.593-0.807c1.168,0,2.71,0,4.623,0c47.505-6.71,79.546-11.879,96.125-15.504
		c8.182-2.819,12.645-4.16,13.389-4.027c1.381,0.402,3.189,2.417,5.42,6.04c0.531,0.941,0.64,1.612,0.32,2.015
		c-0.533,0.538-1.011,0.805-1.436,0.805c-14.666,1.344-36.027,4.5-64.082,9.465c0.423,1.075,0.956,2.617,1.594,4.632
		c0.424,1.478,0.16,2.484-0.797,3.02c-1.063,0.806-2.128,1.881-3.188,3.222c-4.144,5.506-9.085,10.943-14.825,16.311
		c-0.426,0.402-0.586,0.669-0.478,0.806c0.422,0.403,1.009,0.535,1.753,0.403c16.153-4.163,31.137-8.524,44.954-13.089
		c-3.507-4.159-6.91-8.121-10.203-11.881c-0.214-0.806,0.053-1.207,0.797-1.207c0.212,0,0.373,0,0.479,0
		c4.674,3.088,9.936,7.047,15.78,11.879c0.106,0.135,0.318,0.271,0.639,0.403c5.63,4.565,8.501,7.922,8.607,10.067
		c0.212,3.222,0.16,6.243-0.158,9.062c-0.533,1.476-1.276,1.341-2.232-0.402c-2.869-5.235-6.058-9.735-9.565-13.491
		C551.78,583.865,550.134,584.198,548.539,584.601z M514.266,443.046c0.639,7.519,0.798,12.282,0.478,14.295
		c-0.424,1.344-1.009,1.546-1.752,0.605c-2.021-2.55-2.87-5.034-2.551-7.45c0.211-1.612,0.264-3.894,0.159-6.847
		c-17.004,2.551-28.111,4.631-33.317,6.241c-3.188,0.806-6.535-0.604-10.043-4.229c-0.425-0.535-0.585-1.007-0.478-1.409
		c0.424-0.535,1.008-0.806,1.754-0.806c4.782-0.267,16.419-1.879,34.912-4.832c2.23-0.535,4.514-0.872,6.854-1.007
		c-1.17-10.2-1.81-15.707-1.913-16.511c-0.533-1.612-0.852-3.021-0.958-4.23c-0.212-1.339,0.161-1.813,1.117-1.408
		c0.424,0.27,1.966,1.61,4.623,4.026c0.32,0.135,0.53,0.403,0.639,0.806c0.103,0.27,0.158,5.839,0.158,16.714
		c7.863-1.612,15.94-3.087,24.231-4.431c2.125-11.142,3.188-17.72,3.188-19.733c-0.107-0.806-0.107-1.477,0-2.013
		c0.104-1.074,0.478-1.342,1.115-0.806c0.423,0.401,1.914,2.888,4.464,7.45c0.638,1.207,0.582,2.416-0.159,3.625
		c-0.852,1.075-2.232,4.63-4.146,10.671c1.595-0.535,3.24-0.871,4.942-1.007c6.377-1.072,12.486-2.281,18.332-3.625
		c8.289-2.548,12.594-3.825,12.912-3.825c1.274-0.132,3.081,1.813,5.42,5.84c0.53,0.94,0.638,1.61,0.319,2.013
		c-0.533,0.538-1.012,0.807-1.435,0.807c-9.884,1.075-24.07,3.222-42.563,6.443c-4.358,13.425-7.387,20.941-9.086,22.552
		c-0.637,0.403-1.011,0.201-1.115-0.604c0-0.535,0.051-1.209,0.158-2.015c2.443-6.576,4.464-12.952,6.059-19.129
		C528.824,440.427,521.385,441.705,514.266,443.046z M492.108,491.17c0.318,0.941,0.637,2.014,0.956,3.223
		c0.32,1.207,0.105,2.082-0.638,2.616c-1.488,0.94-2.924,2.216-4.305,3.827c-5.101,5.772-11.317,11.144-18.65,16.108
		c-0.533,0.402-0.956,0.337-1.274-0.201c-0.107-0.535,0.052-1.074,0.478-1.611c8.075-7.38,14.027-14.296,17.853-20.739
		c0.425-0.938,0.851-1.678,1.276-2.216c-4.464,0.403-8.13,1.209-10.999,2.416c-3.933,0.674-6.91-0.267-8.928-2.819
		c-0.426-0.402-0.584-0.806-0.477-1.207c0.318-0.534,2.071-0.806,5.259-0.806c16.473-3.757,25.559-5.704,27.261-5.84
		c0-4.295,0-8.12,0-11.477c-6.592,1.207-10.84,2.214-12.753,3.02c-2.658,0.674-5.262-0.066-7.812-2.216
		c-1.063-1.339-0.797-2.013,0.797-2.013c4.038-0.535,7.813-1.209,11.318-2.014c2.655-0.938,5.473-1.677,8.449-2.215
		c-0.108-5.101-0.64-10.47-1.594-16.109c0-0.67,0.158-1.072,0.477-1.207c0.213-0.133,0.639,0,1.275,0.402
		c3.613,4.43,5.262,7.116,4.942,8.054c-0.532,2.014-0.798,4.5-0.798,7.451c-0.107,0.135-0.158,0.271-0.158,0.402
		c1.912-0.806,4.144-1.409,6.695-1.813c5.42-1.476,8.288-2.013,8.607-1.611c0.85,0.806,1.646,1.681,2.391,2.618
		c1.276,1.344,0.958,2.216-0.955,2.618c-8.927,1.61-14.563,2.888-16.898,3.825c-0.319,3.493-0.533,7.249-0.638,11.276
		c1.276-0.535,2.604-0.872,3.986-1.007c2.974-0.669,5.79-1.409,8.448-2.215c3.826-1.61,6.057-2.416,6.695-2.416
		c1.381,0.271,2.869,1.813,4.463,4.631c0.531,0.94,0.639,1.479,0.318,1.61c-0.318,0.403-0.691,0.605-1.115,0.605
		c-8.289,1.207-12.592,2.082-12.912,2.616c6.801,4.969,10.362,8.325,10.681,10.069c0.53,3.09,0.637,5.304,0.318,6.645
		c-0.215,0.94-0.692,0.94-1.434,0c-7.866-10.067-12.595-15.37-14.188-15.907C502.788,488.621,497.313,489.83,492.108,491.17z
		 M499.76,513.521c-3.826,0.672-6.908,1.409-9.246,2.215c-2.445,0.538-4.677,0.135-6.695-1.208
		c-1.171-1.744-1.223-2.685-0.158-2.819c7.756-2.146,13.123-3.222,16.1-3.222c0-6.847-0.318-11.679-0.957-14.498
		c-0.213-0.535-0.318-1.072-0.318-1.611c0-0.937,0.318-1.208,0.957-0.805c4.144,3.222,5.898,5.638,5.26,7.248
		c-0.532,2.015-0.797,4.834-0.797,8.457c8.502-2.819,13.072-3.825,13.71-3.02c0.956,1.207,1.595,2.082,1.913,2.618
		c0.318,1.075,0.104,1.679-0.637,1.811c-0.958,0.539-1.811,0.875-2.553,1.008c-2.657,0.136-6.908,1.076-12.753,2.819
		c-0.106,4.163-0.214,8.325-0.318,12.483c12.327-4.697,18.651-6.978,18.97-6.846c0.637,0,0.902,0.472,0.798,1.41
		c-0.216,0.402-0.533,0.672-0.956,0.804c-16.794,7.924-27.952,13.09-33.477,15.506c-2.765,0.941-5.156,2.082-7.174,3.423
		c-1.275,0.674-2.445,0.538-3.506-0.402c-1.81-2.014-3.086-3.489-3.827-4.43c-0.426-0.806-0.319-1.274,0.319-1.409
		c0.637-0.403,1.965-0.671,3.985-0.806c7.971-2.014,15.037-4.094,21.201-6.242C499.705,525.471,499.76,521.309,499.76,513.521z
		 M539.612,500.634c-1.7-2.013-3.347-3.825-4.94-5.438c-0.108-0.669-0.108-1.072,0-1.207c0.212-0.132,0.53-0.132,0.954,0
		c1.595,0.806,3.241,1.881,4.942,3.222c1.062-5.234,2.072-10.27,3.03-15.103c-5.636,1.209-8.663,1.746-9.088,1.611
		c-0.955-0.671-1.649-1.409-2.072-2.215c-0.532-1.341-0.265-2.079,0.798-2.216c2.869-0.938,6.537-1.878,10.999-2.818
		c0.956-11.276,0.797-20.136-0.479-26.58c-0.212-0.402-0.157-0.805,0.161-1.207c0.212-0.269,0.637-0.202,1.274,0.2
		c1.169,0.674,2.922,2.416,5.261,5.235c0.104,0.137,0.212,0.271,0.318,0.403c0,0.136-0.69,7.047-2.071,20.74
		c2.551-0.938,5.473-1.878,8.768-2.818c1.379-0.403,2.603-1.476,3.665-3.223c0.743-1.475,1.595-1.743,2.552-0.806
		c1.275,0.806,2.443,1.882,3.508,3.222c0.741,1.344,0.741,2.485,0,3.423c-1.595,1.747-2.446,3.826-2.553,6.243
		c0,20.941,3.35,34.433,10.043,40.473c2.656,2.552,4.623,3.827,5.899,3.827c0.638-0.269,0.956-0.872,0.956-1.813
		c0.423-3.892,0.639-9.531,0.639-16.914c0.212-1.477,0.53-2.216,0.956-2.216c0.638-0.132,1.008,0.403,1.115,1.61
		c0.423,9.397,1.274,18.325,2.551,26.782c0.212,0.804,0.104,1.409-0.318,1.813c-0.215,0.537-0.694,0.738-1.435,0.604
		c-3.403,0-7.811-3.021-13.23-9.063c-1.383-1.61-2.446-3.085-3.189-4.429c-4.571-6.847-7.332-20.807-8.289-41.884
		c0-1.34-0.374-2.079-1.117-2.215c-1.7-0.535-5.42,0.402-11.158,2.819c-1.488,7.922-2.869,14.297-4.144,19.129
		c0.318,0.136,0.53,0.271,0.637,0.402c5.845,4.431,8.768,7.854,8.768,10.27c-0.318,4.028-0.638,6.111-0.956,6.243
		c-0.426,0.27-0.692,0.201-0.797-0.202c-3.083-4.159-6.057-8.255-8.928-12.282c-0.955,2.149-1.807,4.429-2.549,6.847
		c-2.447,5.772-5.636,11.679-9.566,17.72c-2.869,3.491-5.633,6.915-8.289,10.27c16.684-3.354,27.737-6.041,33.157-8.056
		c0.53-0.132,1.115-0.201,1.755-0.201c1.275,0.271,2.868,2.014,4.78,5.235c0.53,0.94,0.64,1.479,0.32,1.611
		c-0.426,0.401-0.852,0.673-1.274,0.805c-4.041,0.403-21.841,3.424-53.403,9.062c-3.188,0.403-6.058,1.007-8.608,1.813
		c-3.188-0.268-5.898-1.475-8.131-3.624c-0.533-0.535-0.637-1.007-0.318-1.41c0.318-0.671,9.884-2.215,28.695-4.631
		C530.579,525.335,537.381,512.313,539.612,500.634z"/>
</g>
<g>
	<path fill="#91A51F" d="M978.186,439.075c0,0.674,0.052,1.479,0.158,2.416c0.212,4.833,0.264,7.722,0.16,8.659
		c-0.427,1.344-1.012,1.544-1.755,0.604c-1.595-2.146-2.392-5.839-2.392-11.075c-14.666,1.881-26.3,3.896-34.909,6.041
		c-2.977,0.674-6.217-0.604-9.724-3.825c-0.534-0.535-0.637-1.007-0.318-1.41c0.212-0.534,0.688-0.806,1.434-0.806
		c5.95-0.267,18.543-1.813,37.779-4.632c1.7-0.401,3.507-0.604,5.42-0.604c-0.742-7.65-1.328-12.888-1.752-15.706
		c-0.637-1.61-1.013-3.02-1.115-4.228c-0.216-1.073,0.157-1.543,1.115-1.41c0.424,0.271,1.964,1.611,4.623,4.027
		c1.061,1.077,1.434,2.284,1.115,3.625c-0.428,3.088-0.479,7.45-0.161,13.088c9.458-1.878,19.183-3.49,29.174-4.833
		c0.955-8.187,1.38-13.692,1.276-16.512c-0.109-0.804-0.161-1.409-0.161-1.812c0.106-1.209,0.53-1.542,1.276-1.007
		c0.53,0.402,2.125,2.687,4.78,6.847c0.853,1.207,0.903,2.416,0.161,3.623c-1.488,2.553-2.393,5.236-2.71,8.056
		c1.697-0.535,3.559-0.872,5.58-1.007c6.905-1.074,13.602-2.281,20.086-3.625c8.606-2.818,13.229-4.159,13.868-4.027
		c1.485,0,3.186,1.881,5.102,5.638c0.531,0.806,0.637,1.41,0.318,1.813c-0.533,0.403-1.012,0.604-1.437,0.604
		c-19.128,1.883-34.112,4.028-44.952,6.444c-3.085,11.009-5.102,16.781-6.059,17.316c-0.743,0.271-1.171,0.137-1.273-0.401
		c0-0.535,0.051-1.274,0.157-2.215c1.488-4.966,2.553-9.666,3.188-14.096C996.568,435.988,987.217,437.465,978.186,439.075z
		 M949.648,581.437c0.322,5.368,0.425,10.135,0.322,14.297c-0.216,2.013-1.013,1.944-2.393-0.201
		c-3.085-5.773-4.146-10.54-3.188-14.297c0.318-2.95,0.479-27.989,0.479-75.107c-0.108-26.982-0.479-43.493-1.115-49.534
		c-0.108-0.671-0.108-1.409,0-2.215c0.21-0.806,0.637-0.806,1.273,0c0.852,1.344,1.646,3.222,2.392,5.638
		c0.64,1.746,1.328,2.888,2.073,3.423c4.568-1.879,12.486-3.488,23.751-4.832c2.337-0.806,4.305-2.416,5.898-4.832
		c0.743-1.074,1.434-1.341,2.073-0.807c1.167,1.076,2.231,2.216,3.189,3.423c0.849,1.209,0.9,2.284,0.157,3.222
		c-1.488,1.747-2.285,3.694-2.392,5.841c-0.743,9.397-1.331,16.914-1.752,22.552c0.743,0,1.913,1.209,3.507,3.625
		c0.743,1.075,0.582,1.68-0.479,1.813c-4.783,0.804-9.3,1.609-13.55,2.416c-5.845,1.343-11.853,2.616-18.013,3.825
		c-1.063,0.135-1.912,0.403-2.553,0.806C949.437,551.233,949.543,578.216,949.648,581.437z M976.431,489.215
		c0.212-3.625,0.798-11.882,1.755-24.769c-0.108-1.073-0.797-1.34-2.073-0.805c-2.658,0.402-11.531,2.013-26.621,4.832
		c-0.108,3.09-0.161,6.715-0.161,10.873c10.522-2.146,17.109-3.623,19.768-4.43c1.062-0.534,1.965-0.402,2.71,0.403
		c1.276,1.344,2.073,2.216,2.392,2.617c0.637,1.343,0.318,2.083-0.957,2.215c-3.083,0.403-6.271,0.875-9.564,1.409
		c-9.461,2.149-14.241,3.223-14.348,3.223c0,3.356,0,6.847,0,10.471c3.293-0.938,8.024-1.878,14.19-2.818
		c3.61-0.671,7.224-1.411,10.837-2.216C975.1,489.687,975.794,489.35,976.431,489.215z M972.126,550.428
		c-0.105,1.075-0.157,2.083-0.157,3.02c-0.215,2.418-0.797,2.753-1.756,1.008c-2.337-5.236-3.188-8.524-2.549-9.867
		c1.276-7.114,1.115-15.303-0.479-24.565c-0.106-1.074,0.051-1.813,0.479-2.215c0.637-0.403,1.01-0.201,1.115,0.604
		c0.637,2.015,1.276,3.896,1.913,5.638c6.057-1.339,12.168-2.482,18.333-3.423c0-2.951,0-5.906,0-8.859
		c-3.615,0.537-10.363,1.813-20.246,3.825c-3.188,0.674-6.057-0.201-8.608-2.617c-0.216-0.671-0.267-1.073-0.158-1.208
		c0.21-0.403,1.804-0.604,4.78-0.604c11.159-2.418,19.286-3.894,24.385-4.431c-0.104-6.041-0.473-11.142-1.109-15.304
		c-0.318-2.146,0.2-2.617,1.565-1.41c1.121,0.806,2.352,2.084,3.693,3.827c0.958,1.342,1.276,2.485,0.958,3.423
		c-0.746,1.881-1.276,4.832-1.595,8.859c3.401-1.072,6.854-1.878,10.361-2.416c3.825-0.806,8.821-2.215,14.987-4.229
		c0.637-0.133,1.167-0.202,1.591-0.202c1.276,0.403,2.604,1.882,3.986,4.431c0.318,0.805,0.425,1.278,0.318,1.41
		c-0.318,0.27-0.69,0.402-1.115,0.402c-8.609,1.208-18.651,3.02-30.129,5.437c0,3.09,0,6.04,0,8.859
		c5.314-1.207,10.841-2.416,16.579-3.625c0.639-0.267,1.594-1.273,2.87-3.02c0.849-1.209,1.646-1.341,2.392-0.403
		c2.55,2.819,3.347,5.035,2.389,6.645c-1.807,1.612-3.028,7.049-3.664,16.311c0.636-0.401,1.166-0.333,1.594,0.202
		c1.167,0.94,2.125,2.014,2.868,3.222c0.742,1.076,0.585,1.68-0.477,1.813c-10.418,1.61-18.648,3.222-24.702,4.832
		c-0.104,25.239-0.358,39.064-0.766,41.48c-0.511,2.416-1.273,2.416-2.292,0c-2.11-4.162-2.848-7.113-2.211-8.859
		c1.167-4.028,1.755-12.551,1.755-25.573c-11.585,12.756-22.691,21.747-33.316,26.982c-0.428,0.271-0.798,0.135-1.116-0.403
		c-0.215-0.669,0-1.207,0.637-1.61c13.602-9.934,24.071-20.137,31.404-30.606C978.874,548.549,974.039,549.622,972.126,550.428z
		 M977.229,527.473c-2.341,0.403-4.199,0.875-5.578,1.41c0.104,4.025,0.209,9.463,0.318,16.31c3.929-0.806,9.615-1.878,17.057-3.222
		c0-5.77,0-11.479,0-17.116c-4.146,0.674-7.547,1.409-10.203,2.216c2.231,2.818,3.665,5.234,4.305,7.248
		c0.53,0.94,0.582,1.883,0.158,2.818c-0.425,1.344-0.853,2.486-1.273,3.425c-0.216,0.27-0.479,0.402-0.798,0.402
		c-0.215-0.133-0.376-0.268-0.479-0.402c0-0.269-0.055-0.605-0.161-1.007c-0.637-2.281-1.17-4.497-1.592-6.646
		C978.449,530.896,977.864,529.083,977.229,527.473z M1000.66,522.438c-2.974,0.538-5.632,1.075-7.97,1.61
		c0,5.774,0,11.547,0,17.316c1.913-0.669,3.508-1.006,4.784-1.006c1.697-5.367,2.762-10.27,3.186-14.699
		C1000.66,524.452,1000.66,523.379,1000.66,522.438z M1013.892,559.891c1.171,1.077,1.755,4.834,1.755,11.276
		c-0.215,0.674-0.533,0.94-0.957,0.806c-0.425-0.402-1.116-1.207-2.07-2.416c-2.022-3.222-4.626-6.645-7.813-10.27
		c-5.207-5.77-7.812-9.128-7.812-10.068c-0.106-1.072,0.37-1.339,1.435-0.805C1001.3,550.024,1006.453,553.851,1013.892,559.891z
		 M1033.022,489.013c-18.919,4.431-28.854,6.847-29.81,7.249c-0.106,1.61-0.161,2.888-0.161,3.826
		c-0.425,2.416-1.17,2.551-2.231,0.402c-1.809-4.431-2.34-7.047-1.594-7.854c1.379-10.2,1.434-23.625,0.16-40.271
		c-0.109-0.534,0.052-0.871,0.479-1.008c0.531,0,0.955,0.271,1.273,0.806c1.062,3.223,1.756,5.034,2.074,5.438
		c1.275-0.269,2.922-0.605,4.94-1.007c6.909-1.476,13.868-2.886,20.883-4.229c2.337-1.611,4.305-3.287,5.899-5.034
		c0.742-0.938,1.485-1.007,2.23-0.202c0.958,0.94,1.913,1.882,2.871,2.819c0.849,1.077,0.9,2.083,0.158,3.021
		c-0.955,1.344-1.435,2.082-1.435,2.216c-0.318,0.673-0.479,35.64-0.479,104.909c0,22.014-1.116,34.633-3.347,37.855
		c-0.318,0.402-0.64,0.534-0.958,0.402c-0.318-0.539-0.637-1.077-0.955-1.611c-2.765-5.909-6.751-11.948-11.956-18.123
		c-0.639-1.072-0.797-1.813-0.479-2.214c0.425-0.534,0.849-0.534,1.276,0c3.507,3.491,6.748,6.308,9.722,8.457
		c0.53,0,0.852-0.068,0.958-0.202c0.317-0.403,0.479-1.075,0.479-2.013c0.53-8.187,0.798-39.331,0.798-93.431
		C1033.393,489.081,1033.126,489.013,1033.022,489.013z M999.865,539.755c2.653-0.806,5.418-1.475,8.288-2.013
		c0.318-0.132,0.691-0.269,1.116-0.403c0.318-3.087,0.957-8.321,1.912-15.706c0-0.67-0.373-0.938-1.115-0.806
		c-2.55,0.402-4.941,0.806-7.172,1.208c0.955,1.479,1.646,2.485,2.07,3.021c0.424,0.941,0.424,1.681,0,2.215
		c-0.318,0.538-0.955,1.882-1.913,4.028C1001.352,535.596,1000.287,538.415,999.865,539.755z M1003.531,479.952
		c-0.106,4.967-0.161,8.456-0.161,10.47c0.958-0.403,10.203-2.617,27.739-6.645c0.85-0.403,1.752-0.67,2.711-0.806
		c0-8.187,0-16.311,0-24.364c0-1.341-0.694-1.944-2.074-1.813c-18.706,4.027-28.109,6.041-28.215,6.041c0,4.027,0,7.922,0,11.679
		c11.797-2.951,18.809-4.898,21.043-5.839c1.061-0.535,1.965-0.403,2.71,0.401c1.273,1.209,2.07,2.015,2.389,2.418
		c0.743,1.343,0.425,2.082-0.955,2.214c-6.271,1.343-13.231,3.021-20.883,5.034C1005.922,479.146,1004.488,479.549,1003.531,479.952
		z"/>
</g>
<g>
	<path fill="#91A51F" d="M1197.479,486.597c-10.949,2.687-17.058,4.499-18.334,5.437c-0.852,0-2.87-1.209-6.057-3.625
		c-1.173-1.743-0.906-2.618,0.798-2.618c4.886-0.669,9.297-1.61,13.229-2.818c3.295-1.073,6.748-2.014,10.364-2.819
		c0.318-40.539-0.161-63.294-1.438-68.261c-0.424-1.477-0.69-2.818-0.797-4.027c-0.105-0.805,0.055-1.274,0.479-1.409
		c0.425-0.403,1.01-0.201,1.756,0.604c2.762,2.819,4.941,5.102,6.535,6.846c0.53,0.806,0.477,2.818-0.16,6.041
		c-1.064,3.356-1.595,22.954-1.595,58.797c4.568-1.341,7.015-2.014,7.333-2.014c5.844-2.281,9.139-3.021,9.885-2.215
		c1.167,1.077,2.125,2.083,2.867,3.021c1.701,1.609,1.38,2.686-0.954,3.22c-7.866,1.077-14.244,2.618-19.131,4.632
		c0,15.172,0,31.079,0,47.723c14.665-10.874,22.528-16.31,23.593-16.31c0.958-0.132,1.379,0.27,1.276,1.207
		c-0.216,0.806-0.534,1.277-0.958,1.409c-19.555,16.245-32.678,26.851-39.374,31.816c-3.401,2.148-6.218,4.498-8.448,7.048
		c-1.276,1.207-2.604,1.409-3.986,0.604c-2.549-1.476-4.302-2.685-5.26-3.625c-0.745-0.67-0.797-1.273-0.16-1.813
		c0.742-0.67,2.285-1.476,4.623-2.416c5.207-2.951,10.573-6.106,16.102-9.464c2.231-1.743,4.836-3.489,7.813-5.234
		C1197.479,518.613,1197.479,502.034,1197.479,486.597z M1242.751,527.473c-7.972,27.252-23.65,50.61-47.028,70.073
		c-0.424,0.403-0.797,0.2-1.115-0.604c-0.215-0.539-0.105-1.077,0.318-1.612c7.651-7.384,14.081-14.362,19.289-20.941
		c0.957-1.476,1.912-2.818,2.87-4.026c2.125-3.222,7.227-12.484,15.302-27.788c11.583-29.127,16.366-54.031,14.348-74.704
		c-7.333,1.075-12.968,2.215-16.896,3.423c-2.871,0.537-6.057-0.67-9.564-3.625c-0.427-0.535-0.585-1.007-0.479-1.41
		c0.318-0.534,0.849-0.804,1.595-0.804c38.149-6.041,61.851-11.075,71.097-15.104c0.637-0.132,1.328-0.2,2.07-0.2
		c1.7,0.537,3.401,2.416,5.102,5.638c0.53,0.806,0.64,1.409,0.318,1.813c-0.424,0.403-0.852,0.604-1.273,0.604
		c-11.055,1.612-27.154,4.632-48.301,9.063c1.167,1.342,2.443,3.088,3.825,5.234c0.955,1.61,1.062,3.091,0.318,4.43
		c-1.382,2.284-3.028,10.068-4.94,23.357c3.292-1.207,10.254-2.819,20.883-4.832c3.507-1.072,6.426-3.02,8.766-5.84
		c0.85-1.208,1.756-1.34,2.711-0.401c0.849,0.804,1.964,2.214,3.346,4.229c0.958,1.609,0.904,2.888-0.157,3.825
		c-1.595,1.61-2.765,4.429-3.507,8.457c-5.208,27.52-8.824,46.313-10.84,56.381c-3.508,16.109-7.176,26.646-11.001,31.614
		c-0.53,0.806-0.955,1.138-1.273,1.006c-0.427-0.135-0.852-0.674-1.276-1.611c-4.462-8.86-9.245-17.383-14.348-25.571
		c-0.954-1.612-1.221-2.685-0.797-3.223c0.531-0.534,1.913,0.604,4.145,3.423c7.757,8.594,12.01,12.888,12.752,12.888
		c0.425,0,0.852-0.469,1.276-1.409c7.227-19.599,12.805-45.508,16.739-77.726c-0.533-1.341-1.491-1.542-2.871-0.604
		c-16.578,3.491-25.188,5.304-25.823,5.436C1246.628,513.176,1244.768,520.224,1242.751,527.473z M1261.4,431.424
		c0.957,2.416,0.479,6.916-1.435,13.491c-0.318,0.805-0.69,0.94-1.115,0.401c-0.428-0.267-0.694-0.604-0.798-1.006
		c-0.318-0.805-0.636-1.677-0.957-2.617c-1.488-5.101-3.563-10.537-6.218-16.311c-4.144-9.263-6.162-14.362-6.057-15.304
		c0.106-1.611,0.691-1.743,1.755-0.402C1252.527,417.195,1257.469,424.445,1261.4,431.424z"/>
</g>
<rect fill="none" stroke="#ED73C5" stroke-width="60" stroke-miterlimit="10" width="1527.874" height="1017.638"/>
</svg>
