<?xml version="1.0" encoding="utf-8"?>
<!-- Generator: Adobe Illustrator 16.0.0, SVG Export Plug-In . SVG Version: 6.00 Build 0)  -->
<!DOCTYPE svg PUBLIC "-//W3C//DTD SVG 1.1//EN" "http://www.w3.org/Graphics/SVG/1.1/DTD/svg11.dtd">
<svg version="1.1" id="圖層_1" xmlns="http://www.w3.org/2000/svg" xmlns:xlink="http://www.w3.org/1999/xlink" x="0px" y="0px"
	 width="709.219px" height="362px" viewBox="0 0 709.219 362" enable-background="new 0 0 709.219 362" xml:space="preserve">
<g>
	<path d="M30.726,112.773v-1.255h32.063c9.371,0,16.008,0.396,19.912,1.172c3.906,0.787,7.654,2.276,11.223,4.479
		c3.561,2.207,6.607,5.388,9.117,9.54c2.51,4.16,3.768,8.888,3.768,14.186c0,10.434-5.143,18.664-15.402,24.688
		c8.863,1.509,15.566,5.178,20.092,11.008c4.518,5.831,6.779,12.899,6.779,21.212c0,7.757-1.939,14.814-5.824,21.178
		c-3.885,6.357-8.313,10.586-13.305,12.676c-4.992,2.091-11.97,3.139-20.964,3.139H30.562v-1.258c3.803,0,6.237-0.76,7.282-2.3
		c1.059-1.534,1.595-5.446,1.595-11.748v-92.83c0-4.459-0.125-7.502-0.378-9.114c-0.249-1.623-1.072-2.819-2.469-3.596
		C35.203,113.171,33.25,112.773,30.726,112.773z M53.666,114.117v54.144h14.982c10.149,0,16.887-2.895,20.202-8.701
		c3.32-5.803,4.984-11.575,4.984-17.327c0-6.191-1.279-11.362-3.852-15.522c-2.564-4.152-6.311-7.291-11.256-9.416
		c-4.936-2.114-12.204-3.177-21.803-3.177H53.666z M63.291,170.856h-9.625v39.083c0,5.414,0.213,8.928,0.625,10.547
		c0.42,1.619,1.367,3.317,2.84,5.103c1.484,1.787,3.871,3.221,7.164,4.308c3.293,1.093,8.031,1.636,14.226,1.636
		c9.592,0,16.372-2.221,20.333-6.655c3.96-4.436,5.947-11.005,5.947-19.71c0-9.034-1.76-16.398-5.273-22.092
		c-3.514-5.689-7.488-9.148-11.93-10.379C83.162,171.471,75.062,170.856,63.291,170.856z"/>
	<path d="M206.548,234.805h-11.153v-9.069c-5.666,6.315-12.423,9.472-20.283,9.472c-5.824,0-10.451-1.637-13.875-4.913
		c-3.412-3.279-5.123-7.808-5.123-13.59v-35.249c0-2.128-0.254-3.482-0.77-4.061c-0.502-0.57-1.686-0.855-3.549-0.855v-0.602h15.621
		v0.602c-1.648,0-2.811,0.261-3.492,0.78c-0.68,0.516-1.018,1.753-1.018,3.692v32.337c0,6.77,1.574,11.596,4.758,14.487
		c3.164,2.892,6.766,4.335,10.809,4.335c6.361,0,11.998-2.863,16.921-8.591v-39.85c0-3.485-0.302-5.559-0.914-6.216
		c-0.611-0.649-1.582-0.976-2.881-0.976h-0.557v-0.602h15.504v0.602c-1.918,0.106-3.121,0.426-3.623,0.959
		c-0.488,0.529-0.737,1.547-0.737,3.035v47.929c0,1.887,0.104,3.125,0.29,3.709c0.18,0.588,0.557,1.073,1.129,1.461
		c0.576,0.386,1.561,0.578,2.941,0.578V234.805z"/>
	<path d="M274.468,174.503l2.902,7.629l-0.496,0.086c0-0.027-0.77-0.842-2.311-2.447c-1.525-1.603-3.285-2.84-5.259-3.71
		c-1.98-0.869-4.207-1.307-6.697-1.307c-4.174,0-7.48,1.197-9.928,3.586c-2.441,2.39-3.672,5.274-3.672,8.646
		c0,2.238,0.57,4.194,1.719,5.865c1.148,1.678,3.549,3.231,7.199,4.683c6.271,2.114,10.554,3.702,12.857,4.765
		c2.311,1.063,4.545,2.864,6.684,5.408c2.145,2.537,3.225,5.793,3.225,9.773c0,1.657-0.199,3.235-0.578,4.741
		c-0.391,1.506-1.018,2.957-1.877,4.349c-0.846,1.396-1.883,2.668-3.086,3.813c-1.197,1.145-2.422,2.015-3.672,2.609
		c-1.238,0.595-3.206,1.041-5.879,1.344c-2.689,0.306-4.449,0.457-5.309,0.457h-16.303v-17.75h0.625
		c0.057,5.893,1.438,9.998,4.154,12.318c2.709,2.32,6.916,3.482,12.637,3.482c5.199,0,9.145-1.228,11.834-3.688
		c2.701-2.462,4.049-5.418,4.049-8.877c0-2.097-0.467-3.885-1.416-5.366c-0.936-1.479-2.248-2.778-3.932-3.899
		c-1.685-1.12-4.875-2.485-9.572-4.098c-4.668-1.64-7.955-3.077-9.854-4.304c-1.883-1.228-3.473-3.077-4.75-5.553
		c-1.266-2.472-1.912-4.988-1.912-7.56c0-4.724,1.628-8.685,4.875-11.889c3.246-3.204,7.508-4.807,12.796-4.807
		c2.041,0,4.248,0.234,6.627,0.705c2.387,0.471,3.713,0.773,3.982,0.911C274.242,174.48,274.359,174.503,274.468,174.503z"/>
	<path d="M338.902,173.716v0.623c-0.805-0.083-1.699,0.041-2.674,0.374c-0.971,0.33-1.555,0.812-1.74,1.451
		c-0.18,0.636-0.268,2.142-0.268,4.514v46.866c0,2.537,0.096,4.094,0.309,4.658c0.213,0.567,0.605,1.034,1.203,1.409
		c0.592,0.375,1.65,0.561,3.17,0.561v0.622h-16.295v-0.622c2.049,0,3.32-0.392,3.814-1.183c0.502-0.784,0.744-2.575,0.744-5.363
		v-46.408c0-2.901-0.27-4.803-0.826-5.696c-0.557-0.901-1.795-1.293-3.732-1.183v-0.623H338.902z"/>
	<path d="M432.318,173.716h11.826v0.623c-1.809,0.055-3.047,0.437-3.734,1.141c-0.695,0.701-1.039,2.19-1.039,4.456v55.604
		l-48.715-51.878v45.167c0,1.438,0.111,2.496,0.33,3.188c0.213,0.69,0.537,1.158,0.949,1.409c0.412,0.248,1.451,0.499,3.115,0.746
		v0.622h-11.739v-0.622c2.098,0,3.405-0.375,3.92-1.121c0.51-0.746,0.764-2.526,0.764-5.342v-41.311c0-3.623-0.502-6.576-1.514-8.87
		c-1.004-2.296-3.334-3.354-6.984-3.189v-0.623h11.488l45.773,48.746v-43.107c0-2.32-0.414-3.737-1.252-4.249
		c-0.824-0.509-1.885-0.767-3.189-0.767V173.716z"/>
	<path d="M482.167,174.421v-0.705h40.422v8.416h-0.652c-0.874-3.121-1.609-4.957-2.201-5.511s-2.063-0.832-4.393-0.832h-21.219
		v27.411h19.699c1.938,0,3.176-0.176,3.705-0.52c0.523-0.348,0.799-0.853,0.832-1.517h0.646v5.766h-0.646
		c-0.15-0.801-0.488-1.341-1.023-1.615c-0.545-0.279-1.541-0.416-2.998-0.416h-20.215v18.867c0,2.847,0.273,4.898,0.832,6.157
		c0.549,1.258,1.43,2.045,2.633,2.361c1.211,0.32,3.025,0.479,5.48,0.479h11.33c3.604,0,5.914-0.117,6.91-0.351
		c1.003-0.234,1.85-0.698,2.551-1.403c0.695-0.697,1.238-2.228,1.617-4.59h0.652v8.375h-43.963v-0.622
		c1.478-0.082,2.605-0.354,3.375-0.808c0.769-0.457,1.162-1.637,1.162-3.541V180.51c0-2.235-0.199-3.81-0.611-4.721
		S484.375,174.421,482.167,174.421z"/>
	<path d="M597.488,172.757l2.984,7.853l-0.502,0.082c0-0.023-0.797-0.862-2.379-2.517c-1.574-1.646-3.383-2.922-5.412-3.819
		c-2.027-0.894-4.338-1.341-6.896-1.341c-4.289,0-7.707,1.23-10.217,3.689c-2.516,2.461-3.781,5.428-3.781,8.896
		c0,2.304,0.592,4.315,1.773,6.037c1.184,1.723,3.652,3.325,7.398,4.813c6.457,2.176,10.863,3.813,13.242,4.906
		c2.387,1.093,4.676,2.949,6.869,5.563c2.207,2.616,3.314,5.965,3.314,10.059c0,1.706-0.191,3.328-0.592,4.879
		c-0.398,1.551-1.037,3.039-1.918,4.476c-0.879,1.438-1.938,2.744-3.176,3.923c-1.244,1.176-2.504,2.073-3.775,2.686
		c-1.279,0.611-3.301,1.072-6.064,1.385c-2.758,0.313-4.578,0.468-5.459,0.468h-16.764v-18.262h0.633
		c0.055,6.058,1.471,10.282,4.277,12.672c2.783,2.39,7.115,3.586,13.002,3.586c5.355,0,9.406-1.266,12.183-3.799
		c2.764-2.53,4.161-5.573,4.161-9.128c0-2.162-0.488-4.005-1.452-5.524c-0.968-1.523-2.316-2.86-4.056-4.016
		c-1.732-1.148-5.012-2.558-9.84-4.215c-4.82-1.688-8.189-3.163-10.141-4.432c-1.939-1.259-3.584-3.163-4.889-5.71
		c-1.307-2.541-1.961-5.133-1.961-7.777c0-4.861,1.658-8.938,5.006-12.235c3.35-3.297,7.736-4.947,13.168-4.947
		c2.104,0,4.378,0.244,6.828,0.726c2.439,0.488,3.814,0.798,4.09,0.942C597.255,172.733,597.378,172.757,597.488,172.757z"/>
	<path d="M672.269,172.757l2.984,7.853l-0.508,0.082c0-0.023-0.791-0.862-2.379-2.517c-1.574-1.646-3.391-2.922-5.418-3.819
		c-2.035-0.894-4.332-1.341-6.883-1.341c-4.299,0-7.709,1.23-10.225,3.689c-2.518,2.461-3.781,5.428-3.781,8.896
		c0,2.304,0.59,4.315,1.773,6.037c1.182,1.723,3.65,3.325,7.398,4.813c6.463,2.176,10.863,3.813,13.242,4.906
		c2.387,1.093,4.676,2.949,6.869,5.563c2.215,2.616,3.314,5.965,3.314,10.059c0,1.706-0.186,3.328-0.592,4.879
		c-0.398,1.551-1.037,3.039-1.918,4.476c-0.881,1.438-1.939,2.744-3.178,3.923c-1.236,1.176-2.502,2.073-3.781,2.686
		c-1.271,0.611-3.293,1.072-6.057,1.385c-2.758,0.313-4.572,0.468-5.459,0.468H640.91v-18.262h0.633
		c0.061,6.058,1.484,10.282,4.275,12.672c2.785,2.39,7.117,3.586,13.01,3.586c5.342,0,9.398-1.266,12.178-3.799
		c2.777-2.53,4.16-5.573,4.16-9.128c0-2.162-0.475-4.005-1.445-5.524c-0.977-1.523-2.325-2.86-4.063-4.016
		c-1.732-1.148-5.014-2.558-9.854-4.215c-4.793-1.688-8.176-3.163-10.129-4.432c-1.938-1.259-3.582-3.163-4.881-5.71
		c-1.307-2.541-1.967-5.133-1.967-7.777c0-4.861,1.67-8.938,5.006-12.235c3.348-3.297,7.734-4.947,13.166-4.947
		c2.111,0,4.387,0.244,6.828,0.726c2.455,0.488,3.816,0.798,4.092,0.942C672.037,172.733,672.154,172.757,672.269,172.757z"/>
</g>
</svg>
