<?xml version="1.0" encoding="utf-8"?>
<!-- Generator: Adobe Illustrator 16.0.0, SVG Export Plug-In . SVG Version: 6.00 Build 0)  -->
<!DOCTYPE svg PUBLIC "-//W3C//DTD SVG 1.1//EN" "http://www.w3.org/Graphics/SVG/1.1/DTD/svg11.dtd">
<svg version="1.1" id="圖層_1" xmlns="http://www.w3.org/2000/svg" xmlns:xlink="http://www.w3.org/1999/xlink" x="0px" y="0px"
	 width="798px" height="133px" viewBox="0 0 798 133" enable-background="new 0 0 798 133" xml:space="preserve">
<g>
	<g opacity="0.5">
		<g>
			<g>
				<polygon points="127.648,58.148 97.689,35.224 67.742,58.148 66.625,56.689 97.689,32.912 128.766,56.689 				"/>
			</g>
		</g>
		<g>
			<g>
				<path d="M116.793,87.933H78.871V56.25l18.838-14.418l19.084,14.414V87.933z M80.705,86.103h34.252V57.16L97.719,44.136
					L80.705,57.154V86.103z"/>
			</g>
		</g>
	</g>
	<g>
		<g>
			<g>
				<polygon points="425.729,80.746 388.387,80.746 374.701,42.97 357.277,42.97 357.277,41.136 375.992,41.136 389.677,78.912 
					425.729,78.912 				"/>
			</g>
		</g>
		<g>
			<g>
				<path d="M422.754,73.626h-29.533l-10.59-29.242h48.334L422.754,73.626z M394.51,71.791h26.854l7.185-25.576H385.25
					L394.51,71.791z"/>
			</g>
		</g>
		<g>
			<g>
				<g>
					<path d="M415.236,88.662c-3.081,0-5.59-2.506-5.59-5.586c0-1.449,0.563-2.828,1.586-3.887l0.277-0.277h7.446l0.276,0.277
						c1.023,1.059,1.592,2.438,1.592,3.887C420.824,86.156,418.312,88.662,415.236,88.662z M412.309,80.746
						c-0.541,0.668-0.832,1.482-0.832,2.33c0,2.07,1.686,3.752,3.76,3.752c2.066,0,3.754-1.682,3.754-3.752
						c0-0.848-0.291-1.662-0.832-2.33H412.309z"/>
				</g>
			</g>
		</g>
		<g>
			<g>
				<g>
					<path d="M398.303,88.662c-3.076,0-5.579-2.506-5.579-5.586c0-1.459,0.564-2.84,1.591-3.889l0.271-0.275h7.441l0.27,0.275
						c1.03,1.049,1.594,2.43,1.594,3.889C403.891,86.156,401.383,88.662,398.303,88.662z M395.385,80.746
						c-0.541,0.66-0.832,1.475-0.832,2.33c0,2.07,1.688,3.752,3.75,3.752c2.072,0,3.754-1.682,3.754-3.752
						c0-0.855-0.291-1.67-0.826-2.33H395.385z"/>
				</g>
			</g>
		</g>
	</g>
	<g>
		<g>
			<g>
				<path d="M684.303,83.146c-5.941-5.938-9.219-13.836-9.219-22.236c0.006-8.398,3.277-16.297,9.219-22.234l1.295,1.295
					c-5.594,5.594-8.674,13.029-8.674,20.939s3.076,15.346,8.674,20.939L684.303,83.146z"/>
			</g>
		</g>
		<g>
			<g>
				<path d="M703.834,82.662c-5.813,0-11.271-2.264-15.375-6.369c-4.112-4.109-6.373-9.57-6.373-15.381
					c0-5.813,2.261-11.271,6.373-15.383c4.107-4.107,9.572-6.375,15.385-6.375c5.809,0,11.268,2.264,15.375,6.371
					c8.479,8.488,8.475,22.287-0.004,30.768C715.107,80.398,709.646,82.662,703.834,82.662z M703.844,40.988
					c-5.326,0-10.326,2.078-14.09,5.84c-3.76,3.762-5.838,8.764-5.838,14.084s2.078,10.324,5.838,14.084
					c3.759,3.766,8.76,5.834,14.08,5.834s10.322-2.068,14.082-5.834c7.77-7.764,7.775-20.404,0.01-28.174
					C714.166,43.064,709.16,40.988,703.844,40.988z"/>
			</g>
		</g>
		<g>
			<g>
				<polygon points="731.377,89.746 717.926,76.291 719.219,74.99 732.67,88.447 				"/>
			</g>
		</g>
	</g>
	<g>
		<g>
			<rect x="21.912" y="13.102" width="758.723" height="2.569"/>
		</g>
	</g>
	<g>
		<g>
			<g>
				<g>
					<g>
						<rect x="233.385" y="46.679" fill="#231815" width="42.941" height="3.672"/>
					</g>
				</g>
			</g>
		</g>
		<g>
			<g>
				<g>
					<g>
						<rect x="233.385" y="86.568" fill="#231815" width="42.941" height="3.666"/>
					</g>
				</g>
			</g>
		</g>
		<g>
			<g>
				<g>
					<g>
						<rect x="233.385" y="59.976" fill="#231815" width="42.941" height="3.666"/>
					</g>
				</g>
			</g>
		</g>
		<g>
			<g>
				<g>
					<g>
						<rect x="233.385" y="73.271" fill="#231815" width="42.941" height="3.668"/>
					</g>
				</g>
			</g>
		</g>
	</g>
	<g>
		<g>
			<g>
				<path d="M552.431,67.011c-8.312,0-15.075-6.766-15.075-15.074c0-8.318,6.764-15.078,15.075-15.078
					c8.311,0,15.075,6.76,15.075,15.078C567.506,60.246,560.741,67.011,552.431,67.011z M552.431,38.693
					c-7.304,0-13.241,5.939-13.241,13.244c0,7.301,5.938,13.238,13.241,13.238c7.303,0,13.239-5.938,13.239-13.238
					C565.67,44.632,559.733,38.693,552.431,38.693z"/>
			</g>
		</g>
		<g>
			<g>
				
					<rect x="537.774" y="62.394" transform="matrix(0.8907 0.4547 -0.4547 0.8907 93.3962 -236.6201)" width="1.834" height="26.981"/>
			</g>
		</g>
		<g>
			<g>
				
					<rect x="552.678" y="74.967" transform="matrix(0.4548 0.8906 -0.8906 0.4548 376.268 -462.8588)" width="26.983" height="1.834"/>
			</g>
		</g>
		<g>
			<g>
				<polygon points="573.79,88.775 531.08,88.775 544.01,63.453 545.643,64.285 534.074,86.943 570.797,86.943 559.217,64.285 
					560.852,63.453 				"/>
			</g>
		</g>
	</g>
	<g>
		<g>
			<path fill="#FF6687" d="M454.604,48.513c0,10-8.111,18.105-18.104,18.105c-10.002,0-18.107-8.105-18.107-18.105
				c0-9.996,8.105-18.105,18.107-18.105C446.492,30.408,454.604,38.517,454.604,48.513z"/>
		</g>
	</g>
	<g>
		<g>
			<path fill="#FFFFFF" d="M435.627,56.994h-9.354v-1.605h3.783V42.3l-3.873,1.172v-1.729l5.674-1.773v15.418h3.77V56.994z"/>
		</g>
		<g>
			<path fill="#FFFFFF" d="M448.063,56.994h-9.968v-1.625l4.849-4.879c1.608-1.619,2.589-2.793,2.962-3.52
				c0.366-0.729,0.547-1.498,0.547-2.316c0-0.982-0.275-1.736-0.825-2.266c-0.563-0.529-1.356-0.797-2.394-0.797
				c-1.484,0-2.912,0.641-4.279,1.922v-1.91c1.285-1.027,2.79-1.537,4.514-1.537c1.434,0,2.58,0.396,3.449,1.191
				c0.859,0.795,1.295,1.873,1.295,3.238c0,1.043-0.287,2.072-0.851,3.086c-0.573,1.016-1.653,2.314-3.234,3.896l-3.878,3.836v0.045
				h7.813V56.994z"/>
		</g>
	</g>
</g>
</svg>
