<?xml version="1.0" encoding="utf-8"?>
<!-- Generator: Adobe Illustrator 16.0.0, SVG Export Plug-In . SVG Version: 6.00 Build 0)  -->
<!DOCTYPE svg PUBLIC "-//W3C//DTD SVG 1.1//EN" "http://www.w3.org/Graphics/SVG/1.1/DTD/svg11.dtd">
<svg version="1.1" id="圖層_1" xmlns="http://www.w3.org/2000/svg" xmlns:xlink="http://www.w3.org/1999/xlink" x="0px" y="0px"
	 width="1867.485px" height="231.42px" viewBox="0 0 1867.485 231.42" enable-background="new 0 0 1867.485 231.42"
	 xml:space="preserve">
<g>
	<g>
		<path d="M1272.246,59.598V191.1h104.117l36.802,38.779l11.745-38.779h33.134V59.598H1272.246z M1344.538,133.588h-19.866v-19.83
			h19.866V133.588z M1375.063,133.588h-19.835v-19.83h19.835V133.588z M1405.585,133.588h-19.835v-19.83h19.835V133.588z"/>
	</g>
	<g>
		<g>
			<rect x="422.741" y="91.268" width="177.469" height="116.914"/>
			<path d="M604.386,212.359H418.566V87.092h185.819V212.359z M426.918,204.006h169.116V95.443H426.918V204.006z"/>
		</g>
		<g>
			<path d="M474.994,122.529l-8.114-1.979c1.66-6.814,16.24-66.668,17.035-69.254c5.905-18.998,14.919-28.232,27.561-28.232
				c12.628,0,21.621,9.234,27.493,28.229c0.832,2.484,14.365,58.133,17.069,69.262l-8.114,1.973
				c-6.401-26.34-16.188-66.375-16.913-68.707c-6.213-20.086-14.123-22.402-19.536-22.402c-5.426,0-13.356,2.316-19.582,22.346
				C491.273,55.846,481.446,96.031,474.994,122.529z"/>
		</g>
	</g>
	<g>
		<g>
			<rect x="3.802" y="42.098" width="161.529" height="62.063"/>
			<path d="M169.132,107.961H0V38.297h169.132V107.961z M7.602,100.357H161.53V45.898H7.602V100.357z"/>
		</g>
		<g>
			<rect x="3.802" y="124.121" width="68.4" height="81.217"/>
			<path d="M76,209.141H0v-88.82h76V209.141z M7.602,201.537h60.797v-73.615H7.602V201.537z"/>
		</g>
		<g>
			<rect x="91.697" y="120.631" width="77.586" height="10.641"/>
		</g>
		<g>
			<rect x="91.697" y="146.32" width="77.586" height="10.641"/>
		</g>
		<g>
			<rect x="91.697" y="171.982" width="77.586" height="10.641"/>
		</g>
		<g>
			<rect x="91.697" y="197.641" width="77.586" height="10.641"/>
		</g>
	</g>
	<g>
		<g>
			<polygon points="1003.063,62.533 1002.522,24.1 1043.926,26.193 1043.416,36.244 1012.732,34.688 1013.124,62.393 			"/>
		</g>
		<g>
			<path d="M938.33,231.42c-63.808,0-115.722-51.916-115.722-115.729C822.608,51.9,874.521,0,938.33,0
				c18.785,0,37.427,4.598,53.909,13.297l-4.694,8.898c-15.041-7.936-32.059-12.131-49.214-12.131
				c-58.261,0-105.659,47.385-105.659,105.627c0,58.264,47.398,105.664,105.659,105.664c58.239,0,105.62-47.4,105.62-105.664
				c0-32.107-14.39-62.137-39.481-82.381l6.316-7.832c27.473,22.164,43.228,55.047,43.228,90.213
				C1054.013,179.504,1002.116,231.42,938.33,231.42z"/>
		</g>
		<g>
			<g>
				<polygon points="920.089,60.254 890.167,60.254 913.851,80.445 943.734,80.445 				"/>
			</g>
			<g>
				<polygon points="880.13,142.391 905.764,164.32 905.764,89.035 880.13,67.123 				"/>
			</g>
			<g>
				<polygon points="917.581,92.221 917.581,171.209 996.528,171.209 996.528,92.221 980.838,92.221 				"/>
			</g>
			<g>
				<polygon points="938.198,60.254 961.84,80.445 980.838,80.445 986.453,80.445 962.811,60.254 				"/>
			</g>
		</g>
	</g>
	<g>
		<path d="M1716.474,48.209v151.02h151.011V48.209H1716.474z M1751.898,146.369h-25.024v-45.301h8.121v37.574h16.903V146.369z
			 M1772.503,108.633h-4.131v30.188h4.131v7.549h-16.264v-7.549h4.088v-30.188h-4.088v-7.564h16.264V108.633z M1818.442,146.369
			h-8.507l-20.318-31.438v31.438h-8.123v-45.301h8.828l19.965,31.4v-31.4h8.155V146.369z M1856.973,146.369h-25.474v-45.301h24.561
			v7.727h-16.407v10.689h15.173v7.742h-15.173v11.416h17.32V146.369z"/>
	</g>
</g>
</svg>
