<?xml version="1.0" encoding="utf-8"?>
<!-- Generator: Adobe Illustrator 16.0.0, SVG Export Plug-In . SVG Version: 6.00 Build 0)  -->
<!DOCTYPE svg PUBLIC "-//W3C//DTD SVG 1.1//EN" "http://www.w3.org/Graphics/SVG/1.1/DTD/svg11.dtd">
<svg version="1.1" id="圖層_1" xmlns="http://www.w3.org/2000/svg" xmlns:xlink="http://www.w3.org/1999/xlink" x="0px" y="0px"
	 width="600.693px" height="73.092px" viewBox="0 0 600.693 73.092" enable-background="new 0 0 600.693 73.092"
	 xml:space="preserve">
<rect width="600.693" height="73.092"/>
<path fill="#C6C6C6" d="M292.8,34.646h-18.185v18.74h-2.025v-4.426c-5.387,0.846-10.305,1.457-14.75,1.826l-0.775-1.945
	c0.635-0.027,1.88-0.133,3.732-0.316V34.646h-3.334v-1.945H292.8V34.646z M287.521,30.535h-2.086v-9.709h-20.606v9.709h-2.086
	V18.842h24.778V30.535z M272.59,37.289v-2.643h-9.746v2.643H272.59z M272.59,42.211v-2.92h-9.746v2.92H272.59z M272.59,46.857v-2.74
	h-9.746v4.107C266.957,47.777,270.209,47.32,272.59,46.857z M282.876,25.256h-15.605V23.27h15.605V25.256z M282.876,29.723h-15.605
	v-1.945h15.605V29.723z M292.959,51.82l-1.052,1.746c-2.712-1.02-5.181-2.402-7.405-4.148c-2.436,1.826-4.862,3.15-7.286,3.969
	l-1.408-1.486c2.488-0.848,4.845-2.1,7.068-3.752c-2.53-2.584-4.481-5.508-5.859-8.777h-0.772v-2.006h14.93
	c-0.822,4.475-2.527,8.041-5.123,10.703C287.852,49.498,290.152,50.746,292.959,51.82z M288.692,39.371h-9.431
	c1.311,2.898,3.043,5.369,5.2,7.406C286.314,44.963,287.727,42.494,288.692,39.371z"/>
<path fill="#C6C6C6" d="M312.388,41.854c-1.271,3.23-2.81,6.01-4.623,8.338l-1.788-1.23c1.521-1.826,3.037-4.506,4.546-8.041
	L312.388,41.854z M324.797,38.598h-8.219v14.928h-2.025V38.598h-8.298V36.65h8.298v-3.988h-7.84v-2.027h4.96
	c-0.236-1.271-0.944-3.279-2.123-6.035l1.43-0.973h-3.991v-2.104h7.485c-0.396-0.939-0.966-1.92-1.709-2.939l1.948-0.854
	c0.647,0.887,1.344,2.152,2.083,3.793h7.108v2.104h-3.256l1.51,0.934c-0.49,1.496-1.332,3.521-2.521,6.074h4.725v2.027h-7.783v3.988
	h8.219V38.598z M320.032,23.627h-8.458c1.086,2.648,1.859,4.982,2.322,7.008h3.414C318.465,28.357,319.369,26.023,320.032,23.627z
	 M323.588,46.398l-1.887,1.133c-0.623-1.654-1.555-3.574-2.801-5.758l1.709-0.973C321.747,42.521,322.738,44.387,323.588,46.398z
	 M341.436,33.059h-4.39v20.508h-2.083V33.059h-6.056c0,9.068-1.722,15.941-5.163,20.627l-1.705-1.311
	c1.758-2.619,3.012-5.295,3.761-8.021c0.749-2.725,1.122-6.326,1.122-10.799V21.363c5.121-0.699,9.293-1.859,12.508-3.473
	l1.589,1.666c-3.602,1.668-7.623,2.854-12.071,3.555v7.922h12.488V33.059z"/>
<polygon fill="#E29E44" points="39.752,54.494 21.469,36.545 39.752,18.596 42.801,21.705 27.684,36.545 42.801,51.387 "/>
<polygon fill="#FFFFFF" points="575.391,49.465 545.823,49.465 534.994,19.559 521.195,19.559 521.195,18.107 536.013,18.107 
	546.842,48.014 575.391,48.014 "/>
<path fill="#FFFFFF" d="M573.039,43.826h-23.387l-8.387-23.148h38.266L573.039,43.826z M550.67,42.377h21.268l5.68-20.248h-34.28
	L550.67,42.377z"/>
<path fill="#FFFFFF" d="M567.076,55.736c-2.438,0-4.418-1.984-4.418-4.426c0-1.148,0.447-2.24,1.26-3.076l0.214-0.221h5.896
	l0.214,0.221c0.813,0.836,1.261,1.928,1.261,3.076C571.502,53.752,569.518,55.736,567.076,55.736z M564.766,49.465
	c-0.426,0.529-0.656,1.174-0.656,1.846c0,1.641,1.33,2.975,2.967,2.975c1.641,0,2.975-1.334,2.975-2.975
	c0-0.672-0.231-1.316-0.656-1.846H564.766z"/>
<path fill="#FFFFFF" d="M553.677,55.736c-2.437,0-4.419-1.984-4.419-4.426c0-1.148,0.447-2.24,1.261-3.076l0.214-0.221h5.896
	l0.214,0.221c0.813,0.836,1.26,1.928,1.26,3.076C558.102,53.752,556.117,55.736,553.677,55.736z M551.365,49.465
	c-0.425,0.529-0.656,1.174-0.656,1.846c0,1.641,1.331,2.975,2.968,2.975c1.64,0,2.974-1.334,2.974-2.975
	c0-0.672-0.23-1.316-0.656-1.846H551.365z"/>
<path fill="#FF6687" d="M590.005,18.686c0,4.709-3.816,8.525-8.522,8.525c-4.712,0-8.527-3.816-8.527-8.525s3.815-8.525,8.527-8.525
	C586.188,10.16,590.005,13.977,590.005,18.686z"/>
</svg>
