<?xml version="1.0" encoding="utf-8"?>
<!-- Generator: Adobe Illustrator 16.0.0, SVG Export Plug-In . SVG Version: 6.00 Build 0)  -->
<!DOCTYPE svg PUBLIC "-//W3C//DTD SVG 1.1//EN" "http://www.w3.org/Graphics/SVG/1.1/DTD/svg11.dtd">
<svg version="1.1" id="圖層_1" xmlns="http://www.w3.org/2000/svg" xmlns:xlink="http://www.w3.org/1999/xlink" x="0px" y="0px"
	 width="1225.845px" height="400.592px" viewBox="0 0 1225.845 400.592" enable-background="new 0 0 1225.845 400.592"
	 xml:space="preserve">
<g>
	<rect y="-0.009" width="1225.845" height="400.592"/>
	<g>
		<polygon fill="#FFFFFF" points="238.694,163.313 155.464,99.613 72.245,163.313 69.14,159.262 155.464,93.191 241.798,159.262 		
			"/>
		<path fill="#FFFFFF" d="M208.534,246.076H103.167v-88.041l52.346-40.064l53.021,40.051V246.076z M108.259,240.984h95.182v-80.422
			l-47.904-36.186l-47.277,36.172V240.984z"/>
	</g>
	<g>
		<polygon fill="#FFFFFF" points="706.755,226.1 602.997,226.1 564.97,121.137 516.563,121.137 516.563,116.039 568.554,116.039 
			606.579,221.006 706.755,221.006 		"/>
		<path fill="#FFFFFF" d="M698.497,206.318h-82.064l-29.426-81.254H721.31L698.497,206.318z M620.015,201.221h74.617l19.953-71.064
			H594.272L620.015,201.221z"/>
		<path fill="#FFFFFF" d="M677.601,248.1c-8.564,0-15.533-6.963-15.533-15.521c0-4.025,1.57-7.859,4.416-10.805l0.761-0.768h20.7
			l0.759,0.768c2.85,2.945,4.418,6.779,4.418,10.805C693.122,241.137,686.153,248.1,677.601,248.1z M669.466,226.1
			c-1.498,1.859-2.307,4.121-2.307,6.479c0,5.748,4.688,10.424,10.441,10.424c5.744,0,10.432-4.676,10.432-10.424
			c0-2.357-0.811-4.619-2.309-6.479H669.466z"/>
		<path fill="#FFFFFF" d="M630.556,248.1c-8.553,0-15.51-6.963-15.51-15.521c0-4.055,1.57-7.889,4.43-10.811l0.748-0.762h20.678
			l0.748,0.762c2.857,2.922,4.429,6.756,4.429,10.811C646.079,241.137,639.108,248.1,630.556,248.1z M622.444,226.1
			c-1.496,1.84-2.307,4.104-2.307,6.479c0,5.748,4.674,10.424,10.418,10.424c5.756,0,10.432-4.676,10.432-10.424
			c0-2.375-0.813-4.639-2.295-6.479H622.444z"/>
	</g>
	<g>
		<path fill="#FFFFFF" d="M1028.009,232.768c-16.516-16.496-25.607-38.441-25.607-61.781c0.012-23.34,9.104-45.285,25.607-61.781
			l3.596,3.602c-15.535,15.539-24.1,36.197-24.1,58.18s8.553,42.641,24.1,58.18L1028.009,232.768z"/>
		<path fill="#FFFFFF" d="M1082.282,231.432c-16.148,0-31.328-6.289-42.727-17.701c-11.424-11.418-17.707-26.596-17.707-42.738
			c0-16.148,6.283-31.32,17.707-42.738c11.41-11.424,26.602-17.717,42.75-17.717c16.135,0,31.314,6.287,42.727,17.705
			c23.559,23.578,23.547,61.922-0.012,85.488C1113.608,225.143,1098.429,231.432,1082.282,231.432z M1082.306,115.635
			c-14.797,0-28.689,5.766-39.154,16.227c-10.443,10.449-16.211,24.346-16.211,39.131c0,14.779,5.768,28.682,16.211,39.137
			c10.441,10.455,24.344,16.203,39.131,16.203c14.785,0,28.676-5.748,39.129-16.203c21.584-21.576,21.596-56.695,0.025-78.285
			C1110.981,121.396,1097.079,115.635,1082.306,115.635z"/>
		<polygon fill="#FFFFFF" points="1158.8,251.113 1121.437,213.719 1125.032,210.117 1162.407,247.506 		"/>
	</g>
	<g>
		<rect x="327.543" y="131.445" fill="#FFFFFF" width="119.32" height="10.197"/>
		<rect x="327.543" y="242.277" fill="#FFFFFF" width="119.32" height="10.191"/>
		<rect x="327.543" y="168.391" fill="#FFFFFF" width="119.32" height="10.191"/>
		<rect x="327.543" y="205.332" fill="#FFFFFF" width="119.32" height="10.189"/>
	</g>
	<g>
		<path fill="#FFFFFF" d="M850.665,187.938c-23.094,0-41.893-18.791-41.893-41.891s18.799-41.893,41.893-41.893
			s41.879,18.793,41.879,41.893S873.759,187.938,850.665,187.938z M850.665,109.254c-20.295,0-36.799,16.504-36.799,36.793
			s16.504,36.793,36.799,36.793c20.283,0,36.787-16.504,36.787-36.793S870.948,109.254,850.665,109.254z"/>
		
			<rect x="809.936" y="175.106" transform="matrix(0.8906 0.4547 -0.4547 0.8906 185.5193 -346.1932)" fill="#FFFFFF" width="5.099" height="74.973"/>
		
			<rect x="851.346" y="210.043" transform="matrix(0.4548 0.8906 -0.8906 0.4548 673.9005 -675.6773)" fill="#FFFFFF" width="74.973" height="5.099"/>
		<polygon fill="#FFFFFF" points="910.004,248.42 791.337,248.42 827.265,178.049 831.804,180.367 799.657,243.32 901.687,243.32 
			869.513,180.367 874.054,178.049 		"/>
	</g>
</g>
</svg>
