<?xml version="1.0" encoding="utf-8"?>
<!-- Generator: Adobe Illustrator 16.0.0, SVG Export Plug-In . SVG Version: 6.00 Build 0)  -->
<!DOCTYPE svg PUBLIC "-//W3C//DTD SVG 1.1//EN" "http://www.w3.org/Graphics/SVG/1.1/DTD/svg11.dtd">
<svg version="1.1" id="line_x5F_icon_xA0_影像_1_"
	 xmlns="http://www.w3.org/2000/svg" xmlns:xlink="http://www.w3.org/1999/xlink" x="0px" y="0px" width="32.6px" height="32.6px"
	 viewBox="0 0 32.6 32.6" enable-background="new 0 0 32.6 32.6" xml:space="preserve">
<g>
	<path fill-rule="evenodd" clip-rule="evenodd" fill="#17ADE9" d="M31.28,12.148c-0.459-2.031-1.453-3.77-2.873-5.274
		c-1.638-1.735-3.62-2.946-5.848-3.766c-2.008-0.738-4.088-1.082-6.227-1.084c-1.043-0.001-2.08,0.083-3.108,0.257
		c-1.558,0.265-3.058,0.72-4.489,1.395C6.754,4.611,5.017,5.87,3.632,7.583c-1.699,2.101-2.586,4.487-2.485,7.211
		c0.037,1.018,0.228,2.008,0.565,2.968c0.708,2.015,1.926,3.676,3.532,5.063c1.676,1.447,3.6,2.444,5.71,3.09
		c0.872,0.267,1.76,0.468,2.664,0.591c0.265,0.036,0.522,0.101,0.767,0.212c0.08,0.036,0.121,0.083,0.125,0.177
		c0.008,0.176,0.017,0.35,0,0.524c-0.048,0.531-0.154,1.054-0.251,1.577c-0.191,1.034,0.608,1.856,1.648,1.687
		c0.434-0.07,0.826-0.252,1.213-0.446c1.075-0.542,2.098-1.176,3.106-1.832c2.106-1.37,4.155-2.818,6.048-4.479
		c0.677-0.594,1.323-1.217,1.919-1.895c0.128-0.145,0.203-0.321,0.336-0.464c0.241-0.259,0.444-0.549,0.606-0.865
		c0.023-0.046,0.035-0.099,0.067-0.143c0.403-0.558,0.774-1.134,1.106-1.737C31.468,16.718,31.812,14.498,31.28,12.148z
		 M28.597,18.923c-0.498,0.799-1.096,1.518-1.733,2.207c-1.002,1.083-2.122,2.034-3.281,2.94c-2.04,1.595-4.187,3.031-6.431,4.321
		c-0.357,0.205-0.717,0.406-1.093,0.576c-0.051,0.023-0.102,0.056-0.175,0.045c0.061-0.358,0.123-0.713,0.18-1.069
		c0.079-0.49,0.137-0.979,0.023-1.475c-0.144-0.627-0.549-1.006-1.12-1.246c-0.41-0.173-0.84-0.257-1.278-0.322
		c-1.813-0.274-3.537-0.827-5.145-1.715c-1.756-0.97-3.24-2.245-4.337-3.941c-0.745-1.152-1.228-2.406-1.402-3.77
		c-0.236-1.85,0.11-3.596,0.983-5.238c0.785-1.475,1.883-2.679,3.216-3.672c1.838-1.37,3.904-2.213,6.148-2.644
		c1.236-0.237,2.483-0.332,3.74-0.288c2.647,0.093,5.147,0.734,7.45,2.068c1.706,0.988,3.138,2.274,4.19,3.957
		c0.722,1.152,1.184,2.4,1.335,3.754C30.091,15.396,29.649,17.23,28.597,18.923z"/>
	<path fill-rule="evenodd" clip-rule="evenodd" fill="#17ADE9" d="M18.725,15.391c0-0.049,0-0.092,0-0.136
		c0-0.975-0.003-1.95,0.001-2.925c0.003-0.595,0.604-0.98,1.137-0.728c0.303,0.144,0.458,0.395,0.461,0.729
		c0.005,0.708,0.002,1.417,0.002,2.125c0,1.15,0.001,2.3-0.001,3.45c-0.001,0.49-0.373,0.846-0.858,0.817
		c-0.268-0.016-0.466-0.153-0.62-0.37c-0.513-0.724-1.03-1.444-1.545-2.166c-0.303-0.423-0.605-0.847-0.908-1.271
		c-0.014-0.02-0.03-0.038-0.067-0.083c0,0.07,0,0.113,0,0.156c0,0.975,0.001,1.95-0.001,2.925c-0.002,0.45-0.346,0.803-0.782,0.811
		c-0.445,0.007-0.811-0.342-0.816-0.787c-0.005-0.404-0.002-0.809-0.002-1.213c0-1.462-0.001-2.925,0.001-4.387
		c0.001-0.489,0.377-0.841,0.864-0.811c0.269,0.017,0.465,0.16,0.618,0.375c0.352,0.496,0.707,0.99,1.061,1.484
		c0.46,0.644,0.919,1.288,1.38,1.931C18.665,15.343,18.676,15.376,18.725,15.391z"/>
	<path fill-rule="evenodd" clip-rule="evenodd" fill="#17ADE9" d="M21.125,15.124c0-0.913-0.001-1.825,0-2.737
		c0-0.526,0.331-0.861,0.854-0.861c1.05-0.001,2.1-0.003,3.149,0.002c0.329,0.001,0.574,0.16,0.716,0.458
		c0.143,0.298,0.102,0.586-0.102,0.843c-0.159,0.201-0.376,0.297-0.633,0.297c-0.75,0-1.5,0.002-2.25-0.002
		c-0.104,0-0.146,0.016-0.139,0.133c0.012,0.187,0.008,0.375,0.001,0.562c-0.004,0.09,0.026,0.109,0.112,0.109
		c0.766-0.003,1.532-0.005,2.299,0c0.444,0.003,0.791,0.36,0.79,0.799c0,0.443-0.354,0.796-0.806,0.798
		c-0.754,0.003-1.508,0.004-2.262-0.002c-0.114-0.001-0.136,0.032-0.135,0.139c0.007,0.45,0.006,0.899,0.001,1.35
		c-0.001,0.092,0.021,0.118,0.116,0.117c0.766-0.004,1.532-0.005,2.299,0c0.447,0.003,0.794,0.37,0.786,0.815
		c-0.007,0.419-0.353,0.778-0.772,0.78c-1.083,0.005-2.166,0.005-3.249,0c-0.434-0.002-0.775-0.358-0.776-0.8
		C21.123,16.989,21.125,16.057,21.125,15.124z"/>
	<path fill-rule="evenodd" clip-rule="evenodd" fill="#17ADE9" d="M6.725,15.121c0-0.933-0.003-1.866,0.002-2.799
		c0.002-0.333,0.163-0.583,0.468-0.722c0.305-0.139,0.596-0.093,0.852,0.121c0.197,0.165,0.279,0.386,0.279,0.642
		c-0.001,1.52,0,3.041,0,4.561c0,0.201,0,0.201,0.204,0.201c0.733,0,1.466-0.003,2.199,0.001c0.461,0.003,0.812,0.374,0.796,0.831
		c-0.014,0.407-0.354,0.763-0.762,0.765c-1.091,0.007-2.183,0.007-3.274,0c-0.425-0.003-0.761-0.363-0.762-0.802
		C6.723,16.987,6.725,16.054,6.725,15.121z"/>
	<path fill-rule="evenodd" clip-rule="evenodd" fill="#17ADE9" d="M13.925,15.131c0,0.929,0.002,1.857-0.001,2.786
		c-0.001,0.449-0.348,0.802-0.784,0.808c-0.444,0.006-0.81-0.343-0.814-0.789c-0.005-0.546-0.001-1.091-0.001-1.637
		c0-1.32-0.001-2.64,0.001-3.96c0-0.452,0.342-0.805,0.777-0.813c0.458-0.007,0.819,0.343,0.821,0.807
		C13.927,13.266,13.925,14.198,13.925,15.131z"/>
</g>
</svg>
