<?xml version="1.0" encoding="utf-8"?>
<!-- Generator: Adobe Illustrator 16.0.0, SVG Export Plug-In . SVG Version: 6.00 Build 0)  -->
<!DOCTYPE svg PUBLIC "-//W3C//DTD SVG 1.1//EN" "http://www.w3.org/Graphics/SVG/1.1/DTD/svg11.dtd">
<svg version="1.1" id="圖層_1" xmlns="http://www.w3.org/2000/svg" xmlns:xlink="http://www.w3.org/1999/xlink" x="0px" y="0px"
	 width="498.429px" height="449.11px" viewBox="0 0 498.429 449.11" enable-background="new 0 0 498.429 449.11"
	 xml:space="preserve">
<g>
	<g>
		<path fill="#2A2929" d="M497.381,345.502c0.7,0,0.811,0.26,0.348,0.754c-0.462,0.505-0.348,0.856,0.353,1.058
			c0.226,0.399,0.288,0.705,0.173,0.899c-0.118,0.206-0.063,0.506,0.175,0.906c-0.467,1.004-0.522,1.557-0.175,1.652
			c0.348,0.104,0.053,0.656-0.873,1.658c0.232,1.004,0.348,2.253,0.348,3.759c0,1.507-0.115,2.763-0.348,3.765
			c-2.561-0.202-5.288-0.402-8.19-0.6c-2.906-0.203-5.983-0.307-9.239-0.307c-4.881,0.205-9.88,0.405-14.984,0.604
			c-5.119,0.2-9.997,0.302-14.646,0.302c-3.955,0.199-7.961,0.298-12.023,0.298c-4.071,0-8.082,0.207-12.032,0.605
			c-8.138,0.401-16.096,0.401-23.877,0c-7.789-0.398-15.395-1.105-22.828-2.109c-0.471,0-0.648,0.3-0.524,0.904
			c0.114,0.6-0.063,0.9-0.525,0.9c-0.695,0-1.049-0.599-1.049-1.805c-2.785-0.601-5.521-0.8-8.19-0.601
			c-2.677,0.2-5.521,0.405-8.539,0.601c0.695,2.814,1.567,5.873,2.616,9.181c1.041,3.309,1.567,6.47,1.567,9.48
			c0.7,1.197,1.272,2.558,1.743,4.063c0.462,1.505,1.047,2.963,1.739,4.36c0.233,0.206,0.351,0.354,0.351,0.455
			c0,0.104,0.229,0.251,0.7,0.451c1.619,3.609,3.138,7.072,4.528,10.38c1.395,3.311,3.484,6.372,6.275,9.182
			c2.553,1.806,5.346,3.362,8.369,4.662c3.016,1.311,6.038,2.662,9.062,4.067c0.694,0.2,1.514,0.2,2.438,0
			c0.232,0.4,0.817,1.004,1.743,1.804c6.046,1.406,11.969,1.806,17.783,1.207c5.803-0.604,11.03-1.606,15.688-3.011
			c3.247-0.199,6.796-0.653,10.629-1.359c3.833-0.697,7.025-1.956,9.586-3.759c2.554-2.205,5.059-4.364,7.497-6.474
			c2.438-2.104,4.011-4.761,4.706-7.969c0.7-0.607,1.162-1.462,1.395-2.563c0.229-1.101,0.695-1.853,1.396-2.261
			c0.462-1.803,0.632-3.408,0.525-4.813c-0.123-1.397-0.178-2.604-0.178-3.607c1.857-1.407,4.063-1.905,6.623-1.505
			c2.553,0.404,5.108,0.705,7.667,0.899c2.322,0.205,4.473,0,6.448-0.6c1.975-0.602,3.778-0.501,5.406,0.299
			c0,0.405,0.114,0.604,0.347,0.604c0,0.802-0.169,1.555-0.524,2.257c-0.349,0.707-0.408,1.459-0.171,2.257
			c-0.933,1.606-1.518,3.311-1.741,5.116c-0.238,1.804-0.815,3.514-1.743,5.114c-0.7,1.203-1.573,2.361-2.613,3.46
			c-1.051,1.105-2.035,2.365-2.963,3.762c-0.703,1.008-1.28,2.012-1.742,3.011c-0.471,1.006-1.171,2.01-2.099,3.012
			c-0.926,0.805-1.743,1.557-2.438,2.257c-0.692,0.704-1.51,1.557-2.438,2.556c-0.7,1.01-1.455,1.91-2.268,2.712
			c-0.815,0.804-1.57,1.608-2.266,2.407c-1.628,1.605-2.963,2.81-4.011,3.608c-1.04,0.807-2.497,1.806-4.355,3.012
			c-1.86,1.004-3.488,2.063-4.884,3.16c-1.387,1.1-3.133,1.154-5.229,0.148c-7.437,3.208-16.149,5.118-26.144,5.721
			c-9.998,0.604-19.521,0-28.585-1.806c-0.468,0.199-0.87,0.398-1.218,0.599c-0.347,0.199-0.646,0.307-0.87,0.307
			c-0.703-0.205-1.05-0.452-1.05-0.752c0-0.308-0.115-0.657-0.348-1.06c-5.113-1.198-10.405-2.303-15.862-3.308
			c-5.461-1.002-9.472-3.311-12.025-6.919c-1.397-0.799-2.675-1.605-3.832-2.41c-1.166-0.8-2.091-1.806-2.793-3.01
			c-5.806-3.608-10.109-8.429-12.895-14.448c-0.471,0.205-0.7,0.153-0.7-0.147c0-0.299-0.233-0.553-0.696-0.753
			c0.23-0.604,0.115-1.151-0.347-1.658c-0.471-0.497-0.933-0.945-1.398-1.351c0-2.205-0.637-3.962-1.918-5.268
			c-1.279-1.305-1.69-2.754-1.217-4.366c-1.166-2.205-1.916-4.41-2.268-6.621c-0.349-2.202-0.988-4.713-1.914-7.522
			c0-0.399,0.053-0.646,0.167-0.753c0.119-0.099,0.178-0.345,0.178-0.752c0-0.4-0.119-0.698-0.345-0.903
			c-0.24-0.197-0.35-0.402-0.35-0.602c0-0.799,0.109-1.506,0.35-2.104c0.226-0.604,0.226-1.203,0-1.809
			c0-0.799-0.125-1.554-0.35-2.257c-0.238-0.7-0.353-1.352-0.353-1.95c-0.229-1.606-0.229-3.863,0-6.774
			c0.232-2.908-0.577-5.264-2.438-7.077c-0.468-3.609-0.468-7.019,0-10.228c0.462,0.199,0.694-0.098,0.694-0.906
			c0-0.798,0.233-1.305,0.7-1.504c0-0.399-0.123-0.646-0.347-0.753c-0.238-0.098-0.238-0.345,0-0.752
			c0.462-0.599,0.813-1.1,1.042-1.505c0.232-0.399,0.232-0.999,0-1.806c1.165-2.202,1.798-4.161,1.921-5.871
			c0.115-1.699,0.749-3.655,1.912-5.866c0.7-1.397,1.398-2.656,2.099-3.762c0.694-1.1,1.272-2.358,1.743-3.762
			c0.462-0.6,0.631-1.206,0.517-1.806c-0.117-0.604,0.175-1.101,0.873-1.504c0-0.8,0.114-1.205,0.352-1.205
			c0.226,0,0.11-0.199-0.352-0.599c0.924-0.802,1.51-1.903,1.743-3.315c0.229-1.398,1.047-2.307,2.442-2.707
			c0-0.798,0.115-1.402,0.348-1.808c2.09-2,4.295-3.857,6.623-5.567c2.323-1.699,4.884-3.356,7.67-4.965
			c0.229-0.403,0.522-0.702,0.869-0.901c0.348-0.199,0.755-0.607,1.221-1.206c0.462,0.199,0.7,0.199,0.7,0s0.224-0.299,0.694-0.299
			c5.344-3.811,10.109-7.378,14.29-10.686c4.188-3.311,9.642-5.866,16.388-7.672c2.323-0.2,4.299-0.354,5.927-0.451
			c1.628-0.102,3.601-0.348,5.928-0.755c1.157,0.407,2.314,0.553,3.488,0.453c1.155-0.102,2.668-0.046,4.525,0.148
			c0.463,0.404,0.58,0.404,0.348,0c-0.232-0.399-0.115-0.602,0.355-0.602c0.925,0.602,1.853,0.807,2.785,0.602
			c0.925-0.194,1.858-0.194,2.791,0c0.691,0,1.272,0.104,1.742,0.298c0.463,0.206,0.925,0.405,1.396,0.605h1.041
			c0.463,0,0.811-0.048,1.049-0.151c0.224-0.101,0.462-0.147,0.694-0.147c1.861,0.4,3.485,0.952,4.881,1.653
			c1.396,0.705,3.255,1.156,5.576,1.355c0.232,0.4,0.64,0.706,1.221,0.901c0.577,0.204,1.102,0.503,1.572,0.902
			c1.857,0.807,3.139,1.308,3.833,1.507c4.88,2.811,9.989,5.673,15.34,8.575c5.344,2.91,10.109,6.372,14.29,10.383
			c0.927,0.405,1.742,0.804,2.438,1.203c-0.229,0.604-0.229,1.054,0,1.357c0.232,0.301,0.462,0.654,0.7,1.054
			c1.398-0.2,2.671,0,3.833,0.599c0,0.405-0.12,0.706-0.345,0.905c-0.238,0.2-0.471,0.498-0.703,0.9
			c2.561,2.208,4.536,5.267,5.932,9.183c1.395,3.914,2.322,7.276,2.784,10.078c1.396,3.816,2.206,7.932,2.443,12.339
			C496.91,336.381,497.148,340.895,497.381,345.502z M364.564,320.525c0-0.199-0.12-0.298-0.348-0.298
			c-3.953,3.809-7.841,7.57-11.674,11.286c-3.842,3.715-7.737,7.477-11.686,11.284c-0.231,0.4-0.292,0.952-0.169,1.653
			c0.115,0.706,0.401,1.157,0.872,1.357c4.178-4.015,8.189-8.077,12.021-12.191C357.416,329.508,361.082,325.141,364.564,320.525z
			 M343.648,347.613c-0.229,0.2-0.815,0.301-1.743,0.301c-0.229,0.601-0.229,1.155,0,1.656c0.233,0.501,0.233,0.952,0,1.351
			c1.16-0.398,1.976-0.998,2.438-1.802c0.462-0.8,1.165-1.606,2.099-2.41c2.313-2.406,4.642-4.761,6.971-7.073
			c2.314-2.304,3.951-5.067,4.875-8.275c-2.561,2.609-4.935,5.372-7.141,8.275C348.934,342.547,346.442,345.204,343.648,347.613z
			 M344.344,328.05c-0.463,1.605-0.871,3.211-1.218,4.814c-0.348,1.611-0.755,3.116-1.221,4.515
			c0.928,0.199,1.514,0.055,1.743-0.451c0.232-0.501,0.58-0.854,1.051-1.054c-0.471-0.799-0.7-1.505-0.7-2.104
			c3.716-4.017,7.549-7.978,11.505-11.894c3.95-3.906,7.783-7.871,11.499-11.884v-1.505c1.628-1.604,3.14-3.357,4.535-5.268
			c1.396-1.903,2.9-3.66,4.533-5.266c0.225,0,0.348-0.102,0.348-0.302c0-0.199-0.123-0.304-0.348-0.304
			c-5.813,4.618-11.22,9.587-16.21,14.9C354.857,317.568,349.689,322.838,344.344,328.05z M343.301,355.138
			c0.225-0.399,0.58-0.8,1.043-1.207c0.462-0.399,0.579-0.799,0.355-1.203c-0.238,0.404-0.7,0.804-1.398,1.203
			C342.601,354.338,342.601,354.738,343.301,355.138z M343.301,361.156c0,1.007-0.061,1.957-0.175,2.856
			c-0.115,0.906,0.056,1.56,0.522,1.959c0.695-0.802,1.274-1.505,1.745-2.104c0.463-0.607,1.157-1.105,2.088-1.508
			c0,0.2-0.115,0.402-0.348,0.602c-0.229,0.199-0.12,0.405,0.348,0.6c1.86-1.601,3.018-2.906,3.488-3.91
			c-0.232,0-0.58-0.199-1.042-0.604c0.462-1.601,1.22-2.752,2.26-3.458c1.048-0.703,1.921-1.658,2.615-2.861
			c-2.322,1.203-4.243,2.662-5.748,4.366C347.539,358.801,345.623,360.152,343.301,361.156z M343.999,372.59
			c0.229,0.405,0.229,0.656,0,0.75c-0.233,0.106-0.351,0.353-0.351,0.752c0.466,0,0.928-0.191,1.398-0.599
			c0.462-0.4,0.462-0.8,0-1.205C344.806,372.894,344.461,372.995,343.999,372.59z M346.789,378.007
			c-0.702,0.599-1.166,1.105-1.396,1.505c-0.232,0.405-0.122,1.105,0.345,2.106c1.861-1.6,3.604-3.409,5.231-5.414
			c1.625-2.006,3.015-3.812,4.186-5.42c-1.171,0.804-2.561,1.956-4.186,3.461C349.342,375.75,347.946,377.008,346.789,378.007z
			 M351.314,316.313c-0.925,0.405-1.625,0.506-2.088,0.299c-0.694,1.006-1.221,1.958-1.567,2.864
			c-0.345,0.899-0.755,1.756-1.217,2.556c3.247-2.206,6.324-4.813,9.23-7.825c2.908-3.01,5.524-5.919,7.844-8.729
			c-2.558,1.606-4.767,3.311-6.618,5.114C355.032,312.397,353.176,314.307,351.314,316.313z M352.018,371.689
			c-0.238-1.006,0.694-1.907,2.785-2.711c2.096-0.799,3.37-1.803,3.839-3.007c0.462-1.807-0.354-3.209-2.443-4.216
			c-1.858,2.21-3.546,4.416-5.051,6.623c-1.521,2.211-3.086,4.416-4.705,6.619c1.157-0.399,2.09-0.952,2.784-1.658
			C349.928,372.642,350.853,372.095,352.018,371.689z M347.832,387.94c0-0.399,0.174-0.705,0.522-0.904
			c0.347-0.197,0.524-0.499,0.524-0.906c-0.47-0.192-0.873-0.047-1.22,0.454C347.314,387.09,347.366,387.541,347.832,387.94z
			 M352.712,393.656c1.164-1.001,2.443-2.104,3.833-3.31c1.396-1.205,2.668-2.406,3.839-3.609c1.39-1.606,2.093-2.957,2.093-4.063
			c0-1.104-0.347-2.758-1.05-4.967c-0.468-1.604-0.818-3.009-1.043-4.215c-0.238-1.205-0.583-2.304-1.048-3.309
			c-2.091,2.003-4.181,4.014-6.275,6.02c-2.091,2.005-3.834,4.413-5.229,7.223c2.558-1.004,4.588-2.408,6.101-4.213
			c1.511-1.806,3.193-3.511,5.056-5.122c0.225,0.407,0.466,0.607,0.695,0.607c0.232,0,0.348,0.199,0.348,0.6
			c-1.39,2.409-3.133,4.72-5.229,6.925c-2.091,2.21-3.604,4.514-4.527,6.918c1.619-1.201,3.018-2.558,4.18-4.063
			c1.166-1.505,2.554-2.957,4.187-4.36c0.462-0.201,0.75-0.102,0.872,0.3c0.109,0.405,0.402,0.704,0.87,0.903
			c-1.171,2.211-2.503,4.263-4.008,6.166C354.857,389.998,353.638,391.851,352.712,393.656z M348.879,348.818
			c1.396-1.604,2.9-3.161,4.534-4.668c1.619-1.505,2.899-3.057,3.832-4.667c-1.624,1.205-3.261,2.664-4.88,4.368
			C350.737,345.556,349.575,347.214,348.879,348.818z M350.622,313.601c0.926-0.998,2.03-1.903,3.311-2.708
			c1.277-0.802,1.918-1.903,1.918-3.311c-1.163,0.607-2.269,1.505-3.308,2.712C351.492,311.497,350.853,312.603,350.622,313.601z
			 M353.413,305.779c3.247-2.205,6.271-4.616,9.063-7.226c2.785-2.604,5.576-5.313,8.367-8.123c0.224,0,0.348-0.049,0.348-0.152
			c0-0.102-0.238-0.148-0.701-0.148c-3.256,2.405-6.565,4.616-9.935,6.621C357.187,298.759,354.803,301.769,353.413,305.779z
			 M355.504,359.354c0.464-0.402,0.694-0.854,0.694-1.36c0-0.501,0.462-0.645,1.396-0.453c0-0.8-0.349-1.199-1.049-1.199
			c-0.232,0.399-0.694,0.854-1.39,1.354C354.455,358.199,354.57,358.747,355.504,359.354z M358.988,344.303
			c-0.468,1.008-1.162,1.905-2.09,2.707c-0.931,0.804-1.633,1.709-2.096,2.708c1.625-0.999,3.253-2.053,4.881-3.157
			c1.628-1.105,3.138-2.258,4.533-3.461c-0.93-0.202-1.688,0.052-2.266,0.752C361.366,344.556,360.384,344.703,358.988,344.303z
			 M354.803,397.869c2.323-0.798,4.125-1.955,5.406-3.46c1.272-1.505,2.73-2.959,4.355-4.364c0.466,0,0.75,0.055,0.873,0.156
			c0.117,0.098,0.401,0.146,0.872,0.146c-0.471-1.804-1.165-3.111-2.093-3.911c-1.863,1.807-3.546,3.609-5.056,5.415
			C357.648,393.656,356.198,395.664,354.803,397.869z M355.155,325.342c1.157-0.999,2.317-2.058,3.486-3.163
			c1.159-1.101,2.556-2.15,4.18-3.158c0.233-0.399,0.349-0.65,0.349-0.752c0-0.099,0.117-0.348,0.347-0.753
			c0.7-0.398,1.335-0.85,1.921-1.356c0.579-0.495,1.221-0.946,1.921-1.352c0.462-0.602,0.979-1.207,1.563-1.806
			c0.581-0.604,0.75-1.1,0.526-1.505c-2.561,2.211-5.114,4.515-7.675,6.919C359.213,320.826,357.009,323.136,355.155,325.342z
			 M356.898,400.581c0.695,0,1.097-0.199,1.221-0.6c0.114-0.401,0.401-0.705,0.869-0.905
			C357.594,398.676,356.898,399.181,356.898,400.581z M359.336,351.523c2.553-1.201,4.998-2.506,7.322-3.91
			c2.319-1.405,4.647-2.81,6.97-4.215c-0.933-0.4-1.914-0.601-2.963-0.601c-1.048,0-2.149,0-3.307,0
			c-0.7,2.006-1.921,3.563-3.664,4.663C361.951,348.566,360.493,349.923,359.336,351.523z M359.684,354.837
			c0.925,0.199,1.574,0.255,1.921,0.147c0.347-0.099,0.987-0.147,1.912-0.147c1.398-1.604,2.845-3.057,4.358-4.367
			c1.513-1.299,3.078-2.656,4.711-4.063c-2.328,1.206-4.766,2.457-7.324,3.765C362.701,351.474,360.849,353.028,359.684,354.837z
			 M366.658,398.775c-0.233,0.199-0.695,0.705-1.396,1.505c-0.697,0.807-1.452,1.652-2.263,2.558
			c-0.817,0.902-1.518,1.804-2.095,2.708c-0.58,0.9-0.873,1.459-0.873,1.652c0,1.01,0.462,1.765,1.396,2.258
			c0.927,0.506,1.628,1.157,2.09,1.956c1.398-0.799,2.73-1.751,4.011-2.856c1.272-1.1,2.145-2.257,2.615-3.461
			c-0.933,0.405-1.627,0.805-2.09,1.204c-0.471,0.407-1.165,0.804-2.09,1.207c-0.701-0.8-0.933-1.606-0.701-2.411
			c0.23-0.802,0.701-1.605,1.396-2.41c0.7-0.799,1.331-1.598,1.917-2.404c0.58-0.8,0.75-1.604,0.524-2.411
			c0.226,0.605,0,0.807-0.702,0.605C367.705,398.277,367.12,398.376,366.658,398.775z M362.13,399.076
			c1.157-1.001,2.146-1.959,2.959-2.859c0.811-0.903,1.799-1.854,2.964-2.861c-0.694-0.999-1.165-1.606-1.395-1.804
			c-0.471,1.404-1.221,2.761-2.27,4.061C363.348,396.923,362.592,398.075,362.13,399.076z M408.837,292.233
			c-2.561,1.611-5.285,2.911-8.191,3.915c-2.908,1.007-5.638,2.307-8.191,3.909c-3.256,2.012-6.161,3.418-8.717,4.217
			c-1.862,1.608-3.485,3.261-4.881,4.966c-1.396,1.704-2.905,3.463-4.527,5.267c-2.097,3.817-4.187,7.724-6.276,11.739
			c-2.09,4.015-3.488,8.322-4.181,12.938c11.847,1.004,23.354,1.658,34.505,1.957c11.16,0.3,21.965,0.052,32.424-0.754
			c0.462,0,0.749,0.107,0.869,0.301c0.118,0.206,0.402,0.299,0.873,0.299c6.038-0.799,12.487-1.198,19.352-1.198
			c6.848,0,13.996,0.199,21.434,0.599c-0.233-2.604-0.521-4.965-0.874-7.068c-0.345-2.113-0.984-4.164-1.912-6.172
			c-0.7-4.617-2.268-8.68-4.706-12.188c-2.443-3.51-5.528-6.673-9.238-9.482c-2.328-1.805-4.597-3.463-6.802-4.967
			c-2.205-1.503-4.937-2.458-8.191-2.857c-0.229-0.399-0.229-0.705,0-0.902c0.232-0.203,0.232-0.501,0-0.908
			c-4.651-1.598-9.816-2.902-15.511-3.906C420.396,290.931,414.643,291.03,408.837,292.233z M365.615,413.822
			c1.852,2.21,3.833,4.263,5.923,6.167c2.09,1.912,4.533,3.567,7.318,4.968c1.163-1.001,2.269-1.903,3.315-2.711
			c1.043-0.799,2.027-1.698,2.964-2.702c-1.628,0.199-2.854,0.65-3.664,1.351c-0.817,0.706-2.035,1.157-3.657,1.352
			c-0.238-0.194-0.354-0.445-0.354-0.753c0-0.3-0.114-0.645-0.347-1.05c2.556-1.605,4.533-3.611,5.932-6.02
			c-1.866,0.405-3.435,0.958-4.714,1.656c-1.281,0.706-2.729,1.354-4.355,1.959c0-0.4-0.171-0.654-0.518-0.752
			c-0.355-0.102-0.648-0.354-0.873-0.754c1.853-1.605,3.485-3.315,4.875-5.121c-1.628,0.408-2.907,1.007-3.833,1.806
			c-0.933,0.805-2.322,1.412-4.18,1.811c-0.7-0.398-0.933-1.006-0.7-1.811c1.162-0.799,2.266-1.699,3.315-2.703
			c1.04-1.006,1.564-2.111,1.564-3.316c-1.857,0.806-3.37,1.812-4.528,3.011C367.929,411.412,366.772,412.618,365.615,413.822z
			 M368.748,352.728c2.558-1.398,5.11-2.805,7.671-4.213c2.553-1.402,4.881-3.106,6.974-5.116c-0.933-0.2-1.745-0.247-2.445-0.154
			c-0.695,0.106-1.628,0.154-2.783,0.154c-1.165,1.806-2.793,3.414-4.883,4.814C371.191,349.62,369.672,351.121,368.748,352.728z
			 M370.143,354.837c0.463-0.2,0.756-0.2,0.871,0c0.117,0.199,0.401,0.301,0.872,0.301c0.229-0.604,0.7-1.151,1.396-1.658
			c0.695-0.497,0.811-0.947,0.347-1.352c-0.47,0.404-1.042,0.805-1.742,1.204C371.191,353.734,370.605,354.231,370.143,354.837z
			 M378.856,301.563c-0.692,0.604-1.564,1.258-2.612,1.959c-1.042,0.702-1.344,1.557-0.873,2.556c0.7,0,1.218-0.399,1.573-1.204
			c0.348-0.799,0.979-1.398,1.912-1.806c0.463-1.204,1.272-2.257,2.443-3.158c1.16-0.902,1.97-1.857,2.438-2.861
			c-0.691,0.805-1.455,1.557-2.266,2.257C380.654,300.012,379.784,300.765,378.856,301.563z M376.419,409.01
			c0-0.203,0.225-0.306,0.695-0.306c0.462,0,0.577-0.194,0.347-0.6c-0.232,0-0.347-0.046-0.347-0.152
			c0-0.094-0.23-0.149-0.695-0.149c0.225,0.405,0.17,0.707-0.175,0.901C375.896,408.908,375.951,409.01,376.419,409.01z
			 M377.114,355.438c1.396,0.197,2.556,0.053,3.485-0.454c0.925-0.501,1.743-1.151,2.446-1.956c0.691-0.802,1.331-1.601,1.912-2.404
			c0.58-0.8,1.335-1.407,2.268-1.806c0-0.399-0.232-0.605-0.694-0.605c-1.396,1.407-3.023,2.559-4.884,3.461
			C379.784,352.579,378.28,353.833,377.114,355.438z M391.759,275.682c-0.467,0.199-0.353,0.354,0.349,0.451
			c0.694,0.102,0.809,0.455,0.347,1.054c-2.09,2.211-4.535,4.166-7.318,5.866c-2.793,1.71-4.884,3.668-6.279,5.873
			c0.463-0.399,0.874-0.348,1.221,0.146c0.353,0.506,0.755,0.756,1.223,0.756c1.853-1.201,3.54-2.452,5.054-3.766
			c1.513-1.299,3.193-2.656,5.053-4.061c1.857-1.4,3.485-2.804,4.881-4.215c1.396-1.398,3.139-2.504,5.229-3.308
			c0.928,0.403,1.398,0.804,1.398,1.203c-4.184,3.414-8.487,6.771-12.898,10.081c-4.418,3.309-7.902,7.479-10.456,12.489
			c11.151-8.62,21.378-17.755,30.672-27.383c-3.718,0.405-7.267,0.805-10.628,1.203
			C396.227,272.473,393.611,273.676,391.759,275.682z M379.56,413.218c0.692,0,1.333-0.147,1.912-0.446
			c0.578-0.306,1.104-0.553,1.574-0.752c-0.471-0.199-0.818-0.451-1.048-0.752c-0.233-0.307-0.698-0.454-1.398-0.454
			c0,0.599-0.229,1.007-0.695,1.206C379.437,412.219,379.319,412.618,379.56,413.218z M380.252,293.44
			c0.465-0.4,0.873-0.854,1.22-1.356c0.349-0.496,0.756-0.947,1.218-1.354c-0.462,0.201-1.042,0.599-1.742,1.207
			C380.252,292.535,380.02,293.04,380.252,293.44z M387.574,343.699c-1.166,1.203-2.324,2.257-3.488,3.162
			c-1.164,0.897-2.321,1.957-3.486,3.155c1.86-0.999,3.664-1.998,5.405-3.007c1.743-1.002,3.427-2.107,5.054-3.311H387.574z
			 M381.3,426.161c1.39,1.007,2.84,1.054,4.358,0.153c1.505-0.905,2.725-1.658,3.655-2.257c1.165-1.004,2.556-1.959,4.188-2.864
			c1.623-0.897,2.553-1.851,2.785-2.856c-3.023,0.807-5.809,1.806-8.368,3.013C385.36,422.553,383.152,424.159,381.3,426.161z
			 M382.689,355.736c0.463-0.193,0.872-0.399,1.226-0.599c0.349-0.199,0.75-0.399,1.221-0.604c-0.238-0.195-0.238-0.495,0-0.9
			c0.225-0.399,0.114-0.604-0.348-0.604c-0.471,0.405-0.933,0.752-1.396,1.056C382.922,354.386,382.689,354.938,382.689,355.736z
			 M395.244,293.742c0.696-0.403,1.336-0.906,1.916-1.509c0.577-0.599,1.447-1.097,2.612-1.504c2.791-2.811,5.693-5.366,8.716-7.677
			c3.016-2.305,6.154-4.663,9.415-7.07c0.462-0.402,0.873-0.854,1.221-1.352c0.347-0.501,0.986-0.854,1.912-1.053
			c0.232,0.399,0.462,0.65,0.703,0.752c0.225,0.099,0.459,0.353,0.692,0.753c-2.09,2.21-4.305,4.262-6.624,6.166
			c-2.322,1.91-4.413,3.967-6.271,6.172c3.485-2.41,6.793-4.969,9.934-7.677c3.139-2.71,6.332-5.461,9.587-8.275
			c-0.694,0.205-1.341,0.15-1.921-0.148c-0.579-0.307-1.102-0.451-1.564-0.451c-1.165-0.202-3.023-0.348-5.579-0.454
			c-2.558-0.099-4.418,0.053-5.575,0.454c-1.396,0.405-2.914,1.456-4.533,3.154c-1.628,1.713-3.023,3.064-4.181,4.068
			c-3.724,3.409-7.56,7.022-11.507,10.834c-3.956,3.814-7.442,7.524-10.46,11.132c2.323-1.205,4.235-2.604,5.754-4.215
			c1.504-1.598,3.311-3.007,5.4-4.208c2.096-2.61,4.413-4.966,6.972-7.078c2.561-2.104,5.113-4.254,7.674-6.465
			c0.926-1.004,1.857-1.959,2.785-2.861c0.925-0.9,2.096-1.555,3.485-1.959c0.229,0,0.58,0.404,1.048,1.207
			c-3.485,3.414-7.203,6.623-11.151,9.632C401.748,287.12,398.263,290.33,395.244,293.742z M385.136,416.832
			c0.695-0.399,1.45-0.698,2.266-0.906c0.813-0.193,1.567-0.497,2.263-0.897c-1.39-0.798-2.561-1.305-3.486-1.504
			c-0.232,0.398-0.52,0.951-0.873,1.653C384.958,415.88,384.897,416.433,385.136,416.832z M395.94,343.999
			c-1.166,1.01-2.383,1.957-3.664,2.862c-1.281,0.897-2.498,1.957-3.655,3.155c1.857-0.8,3.486-1.697,4.881-2.703
			c1.39-1.004,2.785-2.003,4.181-3.011C397.453,344.104,396.867,343.999,395.94,343.999z M391.759,356.79
			c0.928-0.302,1.743-0.7,2.438-1.201c0.694-0.497,1.335-1.056,1.921-1.658c0.571-0.599,1.093-0.998,1.564-1.203l0.694-0.6
			l0.703-0.604c0.692-1.001,1.68-1.652,2.961-1.953c1.272-0.304,1.921-0.952,1.921-1.957c-2.562,1.604-5.231,3.011-8.021,4.217
			c-2.792,1.198-5.114,2.703-6.972,4.511C389.894,356.94,390.826,357.094,391.759,356.79z M399.08,421.647
			c-1.869,1.004-3.666,1.959-5.408,2.856c-1.743,0.905-3.308,1.958-4.703,3.163c0.229,0,0.402,0.054,0.522,0.152
			c0.118,0.099,0.402,0.147,0.873,0.147c1.157-0.998,2.784-2.052,4.88-3.157C397.335,423.704,398.607,422.651,399.08,421.647z
			 M390.711,418.337c0.463-0.399,0.988-0.651,1.565-0.753c0.579-0.098,0.987-0.345,1.226-0.752c-0.471-0.199-0.7-0.345-0.7-0.451
			c0-0.099-0.232-0.153-0.694-0.153c0,0.405-0.293,0.752-0.874,1.06C390.65,417.584,390.479,417.938,390.711,418.337z
			 M392.802,351.523c2.323-1.201,4.82-2.353,7.496-3.458c2.667-1.105,4.589-2.457,5.754-4.066c-3.265-0.401-5.754,0.351-7.497,2.257
			C396.813,348.166,394.892,349.923,392.802,351.523z M393.85,428.873c1.395,0.404,2.84,0.052,4.358-1.054
			c1.505-1.105,2.145-1.857,1.912-2.257c-1.162,0.599-2.26,1.105-3.308,1.504C395.762,427.466,394.774,428.074,393.85,428.873z
			 M397.683,357.241c0.694,0,1.397,0.205,2.09,0.604c0.703,0.402,1.396,0.402,2.091,0c2.322-2.21,4.711-4.161,7.149-5.871
			c2.437-1.699,4.937-3.655,7.495-5.866c-3.261,1.404-6.569,3.063-9.934,4.967C403.198,352.982,400.235,355.036,397.683,357.241z
			 M399.426,430.076c0.232,0,0.579,0.199,1.05,0.6c2.554-0.6,4.524-1.604,5.921-3.009c1.397-1.398,2.902-2.71,4.535-3.915
			c0-0.4-0.122-0.601-0.355-0.601c-1.857,1.207-3.829,2.258-5.921,3.163C402.563,427.215,400.82,428.47,399.426,430.076z
			 M400.12,292.233c2.096-0.197,3.54-0.999,4.357-2.406c0.819-1.402,1.688-2.507,2.616-3.311c-1.166,1.004-2.322,1.955-3.488,2.861
			C402.443,290.278,401.282,291.234,400.12,292.233z M412.675,343.999c-1.171,1.01-2.327,1.91-3.484,2.71
			c-1.171,0.804-2.329,1.71-3.486,2.708c-0.471,0-0.995,0.153-1.573,0.454c-0.579,0.301-0.64,0.651-0.169,1.05
			c1.387-1.203,3.247-2.303,5.575-3.308c2.32-1.006,4.412-2.205,6.271-3.614H412.675z M406.052,358.146
			c2.323-0.398,4.235-1.356,5.753-2.861c1.505-1.505,2.723-2.451,3.655-2.855c-1.628,1.004-3.192,1.956-4.706,2.855
			C409.244,356.188,407.671,357.143,406.052,358.146z M406.052,430.978c0.695,0,1.042,0.098,1.042,0.297
			c0.7-0.398,1.332-0.798,1.919-1.198c0.579-0.399,1.102-0.905,1.563-1.505C408.257,429.371,406.747,430.175,406.052,430.978z
			 M413.022,351.223c-0.237,0.205-0.7,0.405-1.396,0.607c-0.695,0.196-0.695,0.396,0,0.6c1.858-1.402,4.236-2.759,7.149-4.063
			c2.899-1.306,5.4-2.759,7.488-4.368c-3.716,0-6.271,0.903-7.666,2.71C417.203,348.515,415.346,350.017,413.022,351.223z
			 M427.659,423.752c0-0.4-0.229-0.601-0.691-0.601c-2.561,1.611-5.292,2.964-8.191,4.063c-2.913,1.105-5.291,2.764-7.149,4.966
			c2.091,0,3.486,0.101,4.181,0.301c1.86-1.806,3.839-3.311,5.932-4.515C423.826,426.761,425.803,425.362,427.659,423.752z
			 M412.675,288.626h3.833c0.225-0.201,0.348-0.4,0.348-0.605c0-0.194,0.115-0.399,0.348-0.6c1.86-1.405,3.663-2.864,5.406-4.368
			c1.743-1.505,3.655-2.75,5.754-3.762c0-0.4,0.224-0.8,0.694-1.199c0.462-0.398,0.462-0.799,0-1.203
			c-2.793,1.802-5.639,3.608-8.538,5.411C417.605,284.11,414.989,286.215,412.675,288.626z M414.418,424.058
			c0.695-0.607,1.619-1.105,2.785-1.505c1.162-0.399,1.743-0.905,1.743-1.505c-1.163,0-2.323,0.399-3.486,1.198
			C414.295,423.054,413.949,423.658,414.418,424.058z M414.766,357.54c0.925,0.208,1.683-0.094,2.269-0.897
			c0.571-0.799,1.331-1.407,2.259-1.806c-0.928,0.398-1.797,0.799-2.615,1.2C415.863,356.442,415.228,356.94,414.766,357.54z
			 M429.058,287.72c-0.694-0.199-1.165-0.6-1.398-1.203c2.094-2.007,4.537-3.609,7.321-4.816c2.791-1.203,4.882-3.209,6.279-6.019
			c-4.184,1.611-7.847,3.562-10.984,5.866c-3.139,2.312-6.332,4.568-9.587,6.771c1.86,0.208,3.833,0.455,5.932,0.753
			c2.09,0.307,3.833,0.561,5.228,0.756c1.623-1.602,3.54-3.106,5.746-4.516c2.208-1.4,3.896-2.905,5.061-4.517
			c-2.792,0.808-5.112,1.913-6.973,3.315C433.815,285.518,431.61,286.721,429.058,287.72z M422.084,357.54
			c1.396,0.208,2.384,0.26,2.963,0.155c0.578-0.102,1.45-0.249,2.612-0.454c0.466-1.605,1.339-2.855,2.616-3.762
			c1.274-0.9,2.383-1.956,3.315-3.157c-2.099,1.007-4.134,2.058-6.099,3.157C425.509,354.585,423.703,355.942,422.084,357.54z
			 M439.862,417.435c-2.559,0-4.997,0.404-7.319,1.203c-2.328,0.805-4.884,1.305-7.666,1.505c-0.237,0.805-0.763,1.458-1.573,1.956
			c-0.817,0.5-1.22,0.955-1.22,1.352c1.619-0.799,3.141-1.604,4.536-2.402c1.39-0.802,3.362-1.305,5.923-1.504
			c0.695,0.398,1.048,0.899,1.048,1.504c1.161-0.399,2.378-0.905,3.655-1.504C438.521,418.936,439.392,418.238,439.862,417.435z
			 M425.225,349.119c0.225-0.201,0.633-0.4,1.218-0.604c0.579-0.195,0.64-0.496,0.178-0.901c-0.238,0.405-0.648,0.652-1.227,0.754
			C424.817,348.467,424.754,348.719,425.225,349.119z M427.659,347.313c2.323-0.8,4.651-2.003,6.974-3.614
			c-1.628-0.4-2.907-0.102-3.832,0.905C429.868,345.608,428.825,346.514,427.659,347.313z M431.147,356.94
			c1.163,0.202,2.791,0.301,4.882,0.301c0.694-2.006,1.975-3.608,3.833-4.812c1.859-1.207,3.018-2.605,3.485-4.217
			c-2.088,1.407-4.181,2.814-6.271,4.217C434.98,353.833,433.005,355.337,431.147,356.94z M431.848,431.274
			c2.091,0,3.889-0.398,5.398-1.198c1.513-0.799,2.908-1.811,4.189-3.01c1.271-1.203,2.438-2.41,3.484-3.616
			c1.043-1.204,2.261-2.304,3.655-3.308c-3.021,1.611-5.983,3.308-8.883,5.113C436.779,427.066,434.163,429.072,431.848,431.274z
			 M432.543,273.271c1.157,0.404,1.567,1.105,1.217,2.111c-0.347,1.005-0.521,1.804-0.521,2.403c2.096-1.198,3.948-2.504,5.581-3.91
			c-0.7-0.399-1.743-0.851-3.138-1.357C434.286,272.026,433.238,272.273,432.543,273.271z M432.891,348.515
			c1.628-0.802,3.256-1.602,4.881-2.406c1.62-0.798,3.138-1.704,4.536-2.71c-2.328,0.407-4.134,1.105-5.406,2.104
			C435.621,346.514,434.286,347.513,432.891,348.515z M434.98,290.729c1.166,0.407,2.206,0.407,3.139,0
			c0.928-0.399,1.797-0.952,2.615-1.658c0.81-0.698,1.573-1.45,2.265-2.258c0.696-0.798,1.514-1.397,2.441-1.803
			c0-0.399-0.117-0.599-0.348-0.599c-1.86,1.004-3.718,1.909-5.579,2.708C437.651,287.919,436.146,289.125,434.98,290.729z
			 M439.862,422.851c0.462-0.396,0.986-0.752,1.573-1.05c0.571-0.308,0.749-0.654,0.517-1.06c-0.23,0.405-0.755,0.752-1.565,1.06
			C439.569,422.099,439.392,422.454,439.862,422.851z M440.909,292.535c0.466,0.405,1.043,0.752,1.745,1.051
			c0.693,0.306,1.505,0.453,2.438,0.453c1.395-1.203,2.791-2.358,4.187-3.46c1.39-1.101,2.552-2.454,3.484-4.063
			c0.225,0,0.349-0.05,0.349-0.149c0-0.098-0.124-0.152-0.349-0.152c-2.095,1.007-4.188,1.959-6.276,2.856
			C444.396,289.977,442.531,291.137,440.909,292.535z M440.909,356.643c0.928-0.2,1.745-0.651,2.438-1.357
			c0.703-0.7,1.048-1.247,1.048-1.652c-0.7,0.405-1.341,0.805-1.919,1.204C441.9,355.235,441.375,355.844,440.909,356.643z
			 M441.952,429.771c1.86-0.999,4.011-2.305,6.456-3.907c2.436-1.606,4.355-3.212,5.746-4.815c-1.861,1.604-3.951,3.056-6.271,4.361
			C445.555,426.714,443.58,428.172,441.952,429.771z M454.854,288.626c1.158-0.8,2.209-1.459,3.139-1.957
			c0.928-0.501,1.855-1.151,2.786-1.958c-2.559-1.606-5.175-3.057-7.844-4.362c-2.677-1.305-5.521-2.655-8.539-4.068
			c-0.469,0.206-0.7,0.405-0.7,0.608c0,0.199-0.23,0.497-0.696,0.897c1.86-0.8,3.019-0.6,3.488,0.604
			c0.464,1.207,0.23,2.313-0.694,3.311c1.853-0.399,3.016,0,3.486,1.207c0.462,1.203,0.108,2.207-1.049,3.009
			c1.621-0.398,2.963-1.006,4.011-1.806c1.04-0.798,2.49-1.105,4.356-0.904c1.156,1.004,1.156,1.958,0,2.855
			C455.435,286.968,454.854,287.826,454.854,288.626z M453.459,343.398c-1.866,1.405-3.663,2.763-5.406,4.063
			c-1.743,1.31-3.431,2.763-5.054,4.369c0.696,0,1.16-0.255,1.396-0.755c0.227-0.499,0.928-0.753,2.092-0.753
			c1.158-1.604,2.792-2.81,4.882-3.613c2.09-0.8,3.833-1.905,5.229-3.311H453.459z M445.793,344.604
			c0.225-0.2,0.632-0.348,1.219-0.454c0.579-0.099,0.634-0.345,0.169-0.752c-0.229,0.199-0.641,0.407-1.218,0.601
			C445.383,344.205,445.323,344.404,445.793,344.604z M447.181,356.94c0.927,0.202,1.69,0.153,2.268-0.15
			c0.581-0.302,1.105-0.648,1.573-1.054c0.695-0.599,1.335-1.351,1.913-2.257c0.579-0.9,0.986-1.551,1.22-1.956
			c-1.166,1.009-2.438,1.809-3.834,2.407C448.926,354.533,447.884,355.543,447.181,356.94z M447.536,295.843
			c0.224,0.407,0.462,0.607,0.694,0.607c0.229,0,0.345,0.199,0.345,0.599c1.86-0.998,3.666-2.15,5.409-3.463
			c1.74-1.298,2.961-2.75,3.655-4.359c-1.628,1.204-3.431,2.257-5.398,3.161C450.258,293.287,448.693,294.444,447.536,295.843z
			 M451.021,427.066c3.948-1.004,6.971-2.563,9.062-4.667c2.093-2.104,4.413-4.263,6.974-6.474c0.225,0,0.347-0.046,0.347-0.145
			c0-0.101-0.122-0.152-0.347-0.152c-2.561,1.806-5.292,3.607-8.191,5.419C455.952,422.851,453.336,424.856,451.021,427.066z
			 M452.063,297.955c0.463,0.804,1.626,1.605,3.485,2.404c1.858-1.4,3.719-2.706,5.576-3.909c1.857-1.207,3.485-2.605,4.884-4.217
			c-2.785,0.603-5.23,1.459-7.321,2.559C456.598,295.897,454.387,296.948,452.063,297.955z M453.112,414.723
			c0.462,0.405,1.097,0.306,1.914-0.299c0.815-0.602,1.571-0.7,2.266-0.3c0.232-0.8,0.525-1.401,0.873-1.806
			c0.345-0.4,0.755-0.8,1.217-1.205c-1.162,0.405-2.205,0.953-3.132,1.658C455.317,413.478,454.27,414.124,453.112,414.723z
			 M456.598,347.613c1.156-0.604,2.322-1.206,3.485-1.805c1.159-0.604,2.208-1.404,3.141-2.41c-1.398,0-2.616,0.505-3.664,1.504
			C458.51,345.909,457.524,346.813,456.598,347.613z M457.992,301.563c0.466,0.404,0.695,0.753,0.695,1.053
			c0,0.307,0.232,0.452,0.694,0.452c1.86-0.999,3.664-2.206,5.407-3.609c1.742-1.406,3.54-2.708,5.406-3.915
			c0-0.399-0.238-0.599-0.704-0.599c-1.854,1.004-3.775,2.058-5.751,3.157C461.765,299.205,459.848,300.359,457.992,301.563z
			 M458.688,292.535c1.62-0.399,3.255-1.052,4.883-1.956c1.62-0.901,3.363-0.947,5.229-0.148c-1.628-2.006-3.486-3.411-5.576-4.216
			c-0.703,1.206-1.521,2.257-2.445,3.163C459.848,290.278,459.15,291.328,458.688,292.535z M458.688,350.624
			c1.86-1.004,3.719-1.96,5.576-2.865c1.86-0.897,3.373-2.15,4.536-3.76c-2.561,0-4.419,0.856-5.576,2.562
			C462.05,348.266,460.548,349.62,458.688,350.624z M462.176,423.752c1.154,0,1.973-0.494,2.435-1.506
			c0.465-0.998,0.818-1.698,1.048-2.104c-0.468,0.599-1.048,1.157-1.743,1.658C463.224,422.298,462.638,422.952,462.176,423.752z
			 M462.521,305.779c0.927,0,1.743-0.501,2.446-1.505c0.462-0.401,1.272-0.908,2.437-1.507c1.158-0.601,1.511-1.098,1.049-1.503
			c-0.7,1.004-1.866,1.757-3.485,2.258C463.33,304.028,462.521,304.777,462.521,305.779z M463.57,411.113
			c1.396-1.604,2.961-3.161,4.704-4.667c1.743-1.505,2.962-3.157,3.663-4.963c-1.396,1.606-2.969,3.213-4.712,4.815
			C465.484,407.904,464.264,409.509,463.57,411.113z M464.967,308.189c1.852-0.607,3.54-1.606,5.051-3.009
			c1.512-1.407,2.847-2.712,4.011-3.916c-1.396,1.204-3.024,2.211-4.882,3.01C467.281,305.079,465.891,306.379,464.967,308.189z
			 M466.009,350.322c1.163-1.004,2.443-1.903,3.833-2.709c1.395-0.801,2.559-1.805,3.486-3.009
			C470.071,345.809,467.637,347.713,466.009,350.322z M467.403,310.294c0.233,0.805,0.811,1.803,1.743,3.009
			c4.411-3.608,8.591-7.523,12.548-11.739C476.58,303.974,471.814,306.885,467.403,310.294z M468.8,292.535
			c0.925,0,1.619-0.302,2.09-0.9c-0.471-0.199-0.759-0.452-0.872-0.752c-0.121-0.304-0.408-0.452-0.871-0.452
			C469.842,291.436,469.725,292.136,468.8,292.535z M469.146,355.438c1.157-0.203,1.921-0.7,2.266-1.508
			c0.347-0.799,1.097-1.302,2.268-1.501c-0.237-0.6-0.122-0.956,0.349-1.054c0.462-0.099,0.347-0.255-0.349-0.455
			c-0.471,1.008-1.226,1.76-2.268,2.261C470.364,353.685,469.609,354.438,469.146,355.438z M470.542,315.714
			c0.462,0.399,0.75,0.851,0.87,1.351c0.117,0.504,0.402,0.952,0.873,1.352c2.322-1.598,4.473-3.311,6.448-5.113
			c1.973-1.806,3.661-3.915,5.051-6.319C478.44,309.193,474.028,312.097,470.542,315.714z M480.298,390.95
			c0.466-0.196,0.819-0.451,1.048-0.749c0.233-0.308,0.695-0.455,1.396-0.455c0.698,2.211,0,4.063-2.088,5.567
			c-2.098,1.505-3.488,3.263-4.188,5.268c-0.933,0.599-1.742,1.305-2.437,2.104c-0.7,0.805-1.396,1.608-2.091,2.41
			c-0.934,1.611-1.396,2.61-1.396,3.01c3.948-3.812,7.783-7.677,11.499-11.586c3.718-3.915,7.204-7.976,10.46-12.192
			c-1.39,0-2.671,0.107-3.833,0.302c-1.166,0.205-2.677,0.205-4.528,0c-0.241,1.409-0.872,2.561-1.921,3.46
			C481.171,388.994,480.53,389.946,480.298,390.95z M472.285,409.91c0.462-1.002,1.221-1.852,2.268-2.559
			c1.039-0.7,1.565-1.452,1.565-2.257c-0.468,0.805-1.218,1.557-2.268,2.257C472.808,408.059,472.285,408.908,472.285,409.91z
			 M472.632,349.718c3.486-3.009,7.319-5.719,11.508-8.123c4.18-2.41,6.972-6.019,8.361-10.834c-1.86,0.399-3.311,1.053-4.359,1.95
			c-1.042,0.906-2.15,1.857-3.308,2.865c-1.165,0.805-2.331,1.649-3.488,2.555c-1.162,0.906-2.213,1.957-3.138,3.163
			c0.7,1.004,0.81,1.857,0.348,2.558c-0.463,0.704-1.103,1.404-1.915,2.104c-0.815,0.705-1.626,1.357-2.443,1.958
			C473.382,348.515,472.864,349.119,472.632,349.718z M473.328,295.843c0.924,0,1.449,0.208,1.572,0.607
			c0.114,0.405,0.402,0.705,0.869,0.899c0.226,0,0.349-0.046,0.349-0.147s0.232-0.153,0.694-0.153c0-1.603-0.817-2.404-2.438-2.404
			C473.68,295.243,473.328,295.65,473.328,295.843z M479.259,316.911c0.462-0.193,0.985-0.599,1.565-1.197
			c0.577-0.608,0.64-0.906,0.174-0.906c-1.162,1.608-2.735,2.81-4.702,3.608c-1.983,0.806-2.968,2.211-2.968,4.216
			C475.65,321.426,477.631,319.521,479.259,316.911z M480.998,320.826c-0.7,1.004-1.624,1.806-2.79,2.411
			c-1.162,0.599-2.323,1.402-3.485,2.404c0,0.805,0.229,1.608,0.7,2.408c2.09-1.403,3.951-2.909,5.575-4.515
			c1.623-1.604,3.248-3.308,4.885-5.119c-0.703-0.399-1.396-0.092-2.099,0.906C483.092,320.326,482.158,320.826,480.998,320.826z
			 M474.723,390.347c0.7-0.4,1.272-0.901,1.742-1.506c0.463-0.599,1.272-0.7,2.443-0.298c0.466-0.802,0.982-1.453,1.567-1.959
			c0.577-0.501,1.104-1.152,1.565-1.956c-1.162,0-2.26,0-3.308,0s-2.036,0.104-2.964,0.304c0,1.006-0.119,2.005-0.347,3.009
			C475.186,388.948,474.952,389.746,474.723,390.347z M480.998,349.119c-1.162,0.404-2.328,1.053-3.485,1.956
			c-1.162,0.899-1.98,1.759-2.442,2.558c2.095-1.203,4.063-2.456,5.928-3.762c1.86-1.305,3.836-2.457,5.924-3.464
			c0.465,0,0.758,0.153,0.873,0.454c0.117,0.299,0.292,0.651,0.524,1.053c-1.165,1.004-2.268,2.056-3.311,3.161
			c-1.047,1.105-1.802,2.456-2.268,4.063c2.093-1.004,3.95-2.257,5.578-3.762c1.62-1.505,3.362-2.861,5.229-4.063
			c0.232-2.209,0.348-4.468,0.348-6.772c0-2.303-0.471-4.16-1.395-5.573c-2.323,2.211-4.182,4.622-5.579,7.226
			C485.526,344.804,483.554,347.112,480.998,349.119z M476.118,356.037c0.694-0.193,1.45-0.193,2.268,0
			c0.811,0.206,1.45-0.095,1.912-0.899c-0.462-0.399-0.577-0.8-0.347-1.207c0.232-0.399,0.462-0.799,0.702-1.203
			C478.093,353.531,476.58,354.637,476.118,356.037z M476.465,331.959c1.166-0.599,2.091-1.352,2.794-2.257
			c0.692-0.897,1.505-1.853,2.436-2.856c-1.164,0.807-2.211,1.557-3.139,2.257C477.631,329.809,476.928,330.761,476.465,331.959z
			 M483.784,331.062c0-0.402-0.23-0.607-0.692-0.607c-0.697,1.207-1.866,2.257-3.488,3.163c-1.625,0.905-2.328,2.158-2.091,3.762
			c1.396-0.799,2.553-1.803,3.485-3.01C481.926,333.166,482.858,332.066,483.784,331.062z M482.041,304.874
			c1.166-0.402,1.857-0.9,2.099-1.508C483.207,303.366,482.503,303.873,482.041,304.874z M482.041,403.591
			c0.924-0.2,1.688-0.553,2.268-1.054c0.578-0.501,0.642-1.253,0.178-2.257c-0.47,0.599-0.872,1.105-1.219,1.504
			C482.914,402.192,482.503,402.791,482.041,403.591z M484.14,316.012c1.619-1.403,3.015-2.203,4.18-2.411
			c0.464-1.397,0.233-2.202-0.694-2.404c-0.471,0.802-1.111,1.606-1.921,2.404C484.887,314.408,484.363,315.213,484.14,316.012z
			 M487.272,323.836c1.396,0,2.205,0.405,2.443,1.204c-0.471,1.206-0.996,2.312-1.574,3.311c-0.579,1.007-1.22,2.011-1.912,3.01
			c1.396-0.399,2.49-0.906,3.308-1.505c0.811-0.599,1.798-1.1,2.964-1.505c0-1.804-0.293-3.655-0.873-5.567
			c-0.577-1.904-1.219-3.661-1.912-5.268c-0.471,1.008-0.755,2.058-0.874,3.158C488.72,321.778,488.197,322.838,487.272,323.836z
			 M486.922,355.736c2.093,0.808,3.891,0.507,5.406-0.899c1.505-1.403,1.683-2.908,0.524-4.515
			c-1.171,0.799-2.327,1.606-3.484,2.405C488.197,353.531,487.387,354.533,486.922,355.736z"/>
	</g>
	<path fill="#2A2929" d="M321.685,249.22c0.38,0.733,0.413,1.322,0.091,1.77c-0.326,0.449-0.307,1.04,0.085,1.771l15.271,11.03
		c1.619,0.266,3.349-0.074,5.188-1.03c1.818-0.956,3.693-1.19,5.633-0.707c0.626,2.276,0.188,4.469-1.318,6.556
		c-1.516,2.097-2.769,4.146-3.765,6.155c-1.565,3.423-3.461,6.829-5.68,10.23c-2.235,3.397-4.279,6.699-6.135,9.903
		c-0.787,1.713-1.324,3.256-1.63,4.626c-0.313,1.374-1.39,2.066-3.229,2.103c-1.719-0.783-2.638-2.354-2.747-4.715
		c-5.777-4.624-11.411-9.269-16.927-13.934c-5.513-4.667-11.786-9.083-18.8-13.242c-3.73-1.778-7.158-3.806-10.302-6.078
		c-3.144-2.271-6.731-4.403-10.749-6.403c-2.315-1.212-4.446-2.528-6.392-3.931c-1.948-1.409-3.927-2.604-5.935-3.605
		c-8.354-4.212-17.085-9.152-26.192-14.829c-5.91-3.811-10.827-8.047-14.747-12.701c-3.932-4.657-8.544-8.67-13.845-12.052
		c-3.736-1.781-7.271-3.652-10.629-5.631c-3.36-1.97-7.123-3.548-11.273-4.733c-1.35,3.122-2.048,5.346-2.094,6.679
		c-0.949,0.681-1.671,0.736-2.159,0.15c-0.494-0.586-1.105-0.684-1.829-0.301c-6.186,9.182-12.176,17.942-17.958,26.276
		c-5.799,8.334-12.017,16.468-18.656,24.404c-2.896,3.368-6.213,7.016-9.938,10.913c-3.737,3.902-5.268,7.915-4.597,12.038
		c-3.739,1.394-6.998,4.159-9.758,8.308c-2.771,4.145-5.712,8.054-8.813,11.723c-4.28,4.653-8.442,9.154-12.489,13.504
		c-4.062,4.348-7.556,8.875-10.494,13.579c-2.734,4.398-4.936,8.722-6.63,12.957c-1.696,4.237-4.762,8.163-9.198,11.785
		c-1.88-1.816-2.509-4.095-1.898-6.833c-3.049-0.835-5.384-2.644-7.023-5.415c-1.643-2.777-4.003-3.918-7.097-3.42
		c-1.83-3.144-4.571-5.352-8.206-6.612c-3.646-1.268-5.867-3.557-6.664-6.862c2.638-4.919,6.132-9.906,10.471-14.962
		c4.336-5.057,7.89-10.448,10.667-16.183c0.129-0.815-0.235-1.42-1.087-1.809c-0.861-0.39-0.961-1.034-0.312-1.934
		c3.923-3.533,7.056-7.872,9.396-13.007c0.725-0.38,1.392-0.358,1.997,0.079c0.593,0.43,1.403,0.566,2.443,0.401
		c5.442-8.806,11.316-17.085,17.596-24.833c6.286-7.748,12.399-16.063,18.374-24.955c2.59-3.587,4.754-6.908,6.516-9.967
		c1.747-3.056,3.833-6.895,6.268-11.51c5.147-9.021,11.754-18.016,19.828-26.976c8.063-8.958,14.822-17.844,20.275-26.648
		c3.8-5.896,8.387-11.458,13.764-16.681c5.363-5.223,9.905-11.04,13.634-17.453c5.66-9.104,12.162-17.942,19.505-26.527
		c7.332-8.577,13.901-17.822,19.703-27.743c2.323-1.961,4.922-5.083,7.803-9.381c2.868-4.295,5.015-7.746,6.454-10.353
		c0.13-0.815-0.487-1.379-1.858-1.686c-1.376-0.312-1.847-0.758-1.411-1.359c0.046-1.335,0.849-2.118,2.396-2.364
		c1.544-0.251,2.791-0.716,3.741-1.398c2.471-5.945,5.354-11.83,8.646-17.644c3.285-5.817,6.575-11.63,9.87-17.442
		c1.242-0.467,2.569-0.416,3.989,0.154c1.403,0.566,2.675,1.025,3.792,1.373c7.531,4.077,15.18,9.258,22.938,15.548
		c7.758,6.287,15.291,11.622,22.617,15.997c0.407,2.58,2.147,4.741,5.215,6.498c3.051,1.759,5.658,2.722,7.809,2.911
		c1.11,0.355,1.346,0.974,0.697,1.871s-0.679,1.557-0.074,1.994c6.115,3.51,11.663,7.179,16.651,11.007
		c4.976,3.828,10.103,6.506,15.378,8.038c0.9,0.651,1.204,1.328,0.928,2.033c-0.287,0.709-0.129,1.272,0.474,1.707
		c2.987,2.162,5.299,3.381,6.936,3.645c-0.271,1.63,0.304,2.728,1.72,3.294c1.407,0.569,2.865,1.384,4.367,2.47
		c1.494,1.081,2.875,2.314,4.167,3.693c1.277,1.382,2.665,2.608,4.163,3.694c0.901,0.648,1.847,1.226,2.859,1.724
		c1.002,0.501,1.957,1.072,2.856,1.721c2.695,1.948,4.922,3.898,6.697,5.863c1.768,1.959,4.112,3.77,7.023,5.415
		c4.399,2.733,8.618,5.885,12.635,9.472c4.014,3.581,7.882,6.268,11.616,8.049c1.704,0.785,3.417,1.565,5.141,2.35
		c1.701,0.782,3.311,1.707,4.813,2.793c1.795,1.297,3.535,2.67,5.223,4.118c1.69,1.453,3.54,2.673,5.552,3.666
		c2.011,1.004,4.079,1.926,6.202,2.774c2.12,0.848,4.076,1.923,5.871,3.22c1.496,1.081,2.865,2.186,4.106,3.305
		c1.237,1.13,2.881,1.519,4.949,1.19c0.036,1.849,1.097,3.521,3.195,5.036c2.091,1.513,3.669,3.111,4.741,4.793
		c-0.435,0.602-0.837,0.994-1.197,1.182c-0.373,0.189-0.619,0.692-0.745,1.508c-1.256,0.462-2.454,0.391-3.605-0.213
		c-1.163-0.608-2.446-1.193-3.853-1.762c-2.515,4.101-5.721,8.388-9.625,12.845c-3.903,4.462-7.225,8.889-9.942,13.294
		c-1.501-1.086-2.312-2.011-2.435-2.782c-0.126-0.774-0.577-1.891-1.335-3.354c-2.533-0.914-5.139-2.348-7.833-4.295
		c-2.695-1.945-4.109-4.099-4.219-6.459c-8.254-6.87-16.279-13.575-24.075-20.125c-7.809-6.544-15.511-12.112-23.127-16.708
		c-10.829-6.459-21.474-13.006-31.931-19.658c-10.468-6.643-20.451-13.17-29.936-19.578c-1.799-1.296-3.804-2.629-6.001-3.994
		c-2.21-1.363-4.47-2.654-6.773-3.869c-10.234-6.03-20.909-12.375-32.032-19.047c-2.033,2.181-4.33,4.725-6.892,7.647
		c-2.571,2.925-3.13,5.592-1.68,8.005c-5.126,2.673-9.576,7.414-13.364,14.234c-3.793,6.815-8.362,13.305-13.707,19.45
		c-2.033,2.178-4.186,4.377-6.47,6.588c-2.286,2.222-4.598,4.309-6.917,6.266c-5.79,6.741-10.813,13.693-15.068,20.855
		c-4.266,7.157-7.81,14.271-10.629,21.332c6.634,3.428,13.104,7.879,19.413,13.343c6.298,5.467,12.473,9.693,18.508,12.689
		c2.676,5.122,6.68,9.04,12.015,11.75c5.322,2.717,10.317,6.208,14.978,10.484c1.581,1.598,3.031,3.212,4.357,4.851
		c1.316,1.633,3.052,2.547,5.201,2.736c2.425,3.573,5.461,5.992,9.105,7.261c3.636,1.262,7.318,2.791,11.05,4.57
		c-0.646,0.897-0.438,1.39,0.637,1.485c1.071,0.087,2.06,0.462,2.959,1.11c0.293,0.214,0.407,0.53,0.348,0.936
		c-0.071,0.408,0.049,0.718,0.351,0.933c0.292,0.214,0.552,0.178,0.771-0.123c0.214-0.295,0.472-0.342,0.775-0.122
		c0.596,0.432,0.855,0.853,0.796,1.258c-0.069,0.41,0.196,0.823,0.802,1.259c3.072,2.678,6.461,5.244,10.166,7.688
		C314.618,247.646,318.201,248.987,321.685,249.22z M254.048,17.416l-1.619,2.243c1.326,0.052,3.076-0.167,5.249-0.646
		c2.161-0.487,3.313-1.127,3.453-1.94c-1.041,0.162-2.096,0.533-3.192,1.105C256.841,18.75,255.542,18.496,254.048,17.416z
		 M180.318,181.903c-6.273,0.479-12.348,1.316-18.23,2.528c-5.889,1.207-11.988,2.717-18.303,4.522
		c-5.074,1.346-9.696,3.012-13.866,4.999c-4.177,2-7.176,5.512-9,10.566c5.581-1.428,11.248-2.796,16.986-4.112
		c5.735-1.316,11.246-2.799,16.532-4.441c2.27-0.632,4.296-1.214,6.059-1.765c1.763-0.541,3.324-1.458,4.712-2.738
		c-3.049-0.837-6.072-0.741-9.077,0.268c-4.133,0.662-8.266,1.653-12.405,2.982c-4.153,1.333-8.356,2.73-12.604,4.206
		c-1.041,0.167-1.783,0.878-2.235,2.142c-0.462,1.264-1.025,1.42-1.705,0.47c1.123-2.823,3.191-4.747,6.208-5.753
		c3.002-1.009,5.905-1.876,8.704-2.585c6.312-1.806,12.729-3.434,19.238-4.873c6.506-1.441,12.743-2.503,18.716-3.204
		c-0.174-1.031-0.02-1.718,0.46-2.054C180.975,182.718,180.914,182.332,180.318,181.903z M245.923,33.388
		c1.245-0.466,2.792-0.712,4.64-0.745c1.841-0.033,3.073-1.415,3.691-4.158c-1.94-0.484-2.571-1.174-1.922-2.071
		c0.646-0.897,0.367-1.781-0.827-2.643c-1.685,1.064-3.072,2.673-4.173,4.834C246.22,30.767,245.752,32.359,245.923,33.388z
		 M167.421,173.266c-0.518,0.082-0.995-0.036-1.448-0.361c-0.447-0.326-1.042-0.298-1.769,0.085
		c-1.546,0.246-3.056,0.755-4.514,1.516c-1.469,0.763-2.967,1.272-4.515,1.519c-3.016,1.009-5.74,2.109-8.191,3.299
		c-2.457,1.185-5.311,1.513-8.566,0.977l-3.24,4.484c9.278-1.488,18.339-3.478,27.197-5.948c8.849-2.484,17.743-5.497,26.692-9.045
		c-0.087-0.511,0.053-0.87,0.425-1.058c0.36-0.189,0.396-0.397,0.098-0.61c-3.988-0.153-7.657,0.503-10.982,1.961
		C175.265,171.542,171.539,172.604,167.421,173.266z M122.445,209.032c-1.043,0.164-1.799-0.041-2.281-0.626
		c-0.499-0.583-1.107-0.682-1.836-0.298c0.161,1.031-0.186,2.146-1.047,3.338c-0.865,1.199-1.218,2.309-1.043,3.341
		c3.782-2.728,7.899-4.638,12.354-5.749c4.444-1.111,8.836-2.15,13.18-3.105c4.337-0.963,8.604-1.979,12.793-3.045
		c4.188-1.069,8.175-2.968,11.968-5.69c-7.818,0.73-15.377,2.203-22.682,4.435C136.541,203.858,129.406,206.329,122.445,209.032z
		 M162.25,151.097c2.105-1.655,4.222-2.856,6.358-3.598c2.123-0.736,4.242-1.937,6.358-3.598c0.211-0.293-0.091-0.512-0.896-0.648
		c-0.824-0.134-1.013-0.493-0.575-1.098c0.474-1.929,1.47-3.141,2.978-3.649c1.497-0.509,3.029-0.884,4.576-1.132
		c1.545-0.247,2.882-0.528,4.027-0.843c1.133-0.313,1.984-1.18,2.557-2.591c-4.641,0.744-9.646,2.142-14.989,4.188
		C167.289,140.18,163.823,144.503,162.25,151.097z M149.988,170.91c-0.395-0.734-0.763-0.999-1.123-0.813
		c-0.373,0.189-0.851,0.068-1.449-0.364c-1.514,2.096-2.64,3.33-3.364,3.712c5.449-0.607,10.616-1.77,15.499-3.478
		c4.875-1.707,9.978-2.457,15.3-2.259c0.86-1.19,2.294-1.754,4.288-1.677c1.998,0.077,2.906-0.397,2.744-1.431
		c-5.537,0.096-10.896,0.895-16.071,2.38C160.628,168.475,155.354,169.783,149.988,170.91z M71.52,276.681
		c-1.297,1.795-2.547,3.053-3.751,3.772c-1.21,0.729-2.057,2.047-2.528,3.976c6.959-2.703,14.033-5.563,21.218-8.563
		c7.182-3.002,13.87-6.583,20.074-10.75c-6.275,0.479-12.263,1.836-17.981,4.071C82.831,271.433,77.155,273.923,71.52,276.681z
		 M103.487,256.088c-3.234,1.308-6.576,3.096-10.041,5.378c-3.467,2.271-6.436,2.29-8.911,0.042c2.32-1.96,4.697-3.193,7.13-3.722
		c2.424-0.52,4.544-1.721,6.358-3.6c-0.77-1.461-2.001-2.124-3.693-1.981c-1.7,0.134-3.295-0.334-4.789-1.415
		c-1.817,1.877-3.205,3.485-4.178,4.834c-0.971,1.344-1.893,2.619-2.755,3.812c-0.864,1.196-1.765,2.597-2.688,4.197
		c-0.938,1.605-2.008,3.567-3.213,5.871c2.351-0.111,4.981-0.602,7.891-1.464c2.895-0.863,5.596-1.762,8.093-2.687
		c4.171-1.992,8.522-4.082,13.063-6.259c4.536-2.188,8.849-4.531,12.943-7.035c0.297,0.213,0.501,0.255,0.611,0.102
		c0.107-0.148,0.011-0.34-0.287-0.553c-2.413,1.45-4.852,2.299-7.318,2.563C109.229,254.432,106.488,255.08,103.487,256.088z
		 M160.608,158.103c-1.689,1.062-3.405,1.871-5.163,2.413c-1.767,0.547-3.323,2.38-4.661,5.507c2.656,0.106,5.587-0.167,8.79-0.818
		c3.199-0.641,6.299-1.475,9.314-2.484c3.003-1.009,6.091-1.967,9.252-2.873c3.149-0.903,6.342-2.011,9.575-3.321
		c0.509-0.083,0.621-0.235,0.325-0.449c-5.281-1.532-10.018-1.437-14.231,0.301C169.593,158.108,165.194,158.686,160.608,158.103z
		 M157.066,158.272c1.758-0.541,3.388-1.07,4.899-1.578c1.497-0.506,2.493-1.718,2.979-3.65c-1.549,0.249-3.256,0.72-5.125,1.417
		C157.947,155.156,157.025,156.432,157.066,158.272z M59.907,295.594c8.559-4.279,17.038-7.828,25.448-10.627
		c8.399-2.801,16.621-6.303,24.672-10.5c0.215-0.296,0.023-0.667-0.576-1.1c-3.829,0.881-7.518,1.735-11.084,2.572
		c-3.568,0.834-7.739,2.035-12.505,3.595c-6.326,1.806-12.269,3.882-17.831,6.232c-5.574,2.348-10.135,7.241-13.685,14.684
		c1.11,0.355,2.066,0.128,2.869-0.657c0.794-0.791,1.704-1.267,2.741-1.434c0.432-0.594,0.271-1.168-0.474-1.707
		C58.731,296.11,58.867,295.758,59.907,295.594z M56.518,304.066c-1.115-0.348-2.494-0.659-4.113-0.928
		c-2.339,1.965-3.848,4.052-4.537,6.279c3.169,0.02,6.22-0.73,9.151-2.26c2.919-1.526,5.993-2.944,9.226-4.257
		c3.218-1.309,6.554-2.772,9.998-4.378c3.438-1.608,6.619-3.177,9.551-4.703c0.509-0.084,0.726-0.386,0.648-0.899
		c-5.375,1.13-10.474,2.67-15.313,4.64C66.293,299.524,61.414,301.697,56.518,304.066z M239.097,47.57
		c1.978-0.843,4.017-1.302,6.122-1.379c2.104-0.071,3.826-1.675,5.173-4.796c-0.853-1.98-1.884-3.066-3.104-3.266
		c-1.223-0.2-2.496,0.137-3.804,1.004c-1.317,0.875-2.442,2.109-3.366,3.712C239.181,44.452,238.845,46.021,239.097,47.57z
		 M117.835,217.306c-0.604-0.436-1.032-0.627-1.286-0.589c-0.268,0.042-0.58-0.301-0.959-1.034c-2.246,2.473-4.029,4.938-5.346,7.4
		c-1.327,2.457-3.326,5.226-5.998,8.298c5.148-0.826,10.271-2.246,15.377-4.251c5.089-2.013,10.129-3.946,15.123-5.798
		c1.674-1.064,3.318-1.921,4.937-2.578c1.603-0.653,3.103-1.622,4.485-2.903c-2.583,0.413-5.684,1.248-9.312,2.487
		c-3.634,1.245-7.067,2.522-10.287,3.833c-1.251,0.459-2.511,1.253-3.776,2.388c-1.274,1.128-2.588,2.003-3.941,2.616
		c-1.363,0.615-2.571,0.873-3.639,0.782c-1.076-0.09-1.997-0.869-2.756-2.334c6.49-3.948,13.193-7.072,20.096-9.368
		c6.891-2.298,13.375-5.122,19.449-8.479c-5.287,1.641-10.536,3.545-15.731,5.699C129.059,215.636,123.584,216.914,117.835,217.306z
		 M98.094,239.902c-0.572,1.411-1.762,3.061-3.565,4.935c-1.816,1.875-2.642,3.33-2.47,4.361c9.375-4.15,18.861-7.983,28.478-11.51
		c9.604-3.524,18.862-7.983,27.778-13.382c-9.018-0.137-17.609,1.51-25.776,4.93C114.362,232.662,106.221,236.219,98.094,239.902z
		 M191.413,110.733c-0.648,0.897-1.098,1.828-1.334,2.788c-0.248,0.963-0.879,1.532-1.907,1.696
		c4.551-1.258,9.125-2.386,13.729-3.393c4.592-1.004,9.089-2.651,13.478-4.938c-4.292-0.373-8.332,0.017-12.109,1.149
		C199.479,109.171,195.532,110.072,191.413,110.733z M198.989,101.188c-0.141,0.815-0.6,1.614-1.395,2.405
		c-0.801,0.785-1.014,1.551-0.621,2.282c0.941-0.684,1.927-1.103,2.967-1.267c1.028-0.167,2.163-0.487,3.417-0.949
		c-0.897-0.646-1.706-1.11-2.408-1.395C200.232,101.981,199.588,101.621,198.989,101.188z M181.347,129.398
		c-0.175-1.032-0.771-1.463-1.798-1.299l-2.594,3.589c4.551-1.256,8.901-2.55,13.058-3.879c4.141-1.327,8.45-2.873,12.928-4.654
		c0.295,0.216,0.422,0.2,0.388-0.06c-0.049-0.26-0.218-0.498-0.513-0.712c-3.83,0.881-7.485,1.995-10.96,3.346
		C188.368,127.081,184.868,128.307,181.347,129.398z M55.071,309.851c-2.19,1.146-4.919,2.703-8.165,4.681
		c-3.251,1.979-5.442,4.375-6.566,7.201c8.423-3.473,16.967-6.621,25.635-9.467c8.654-2.848,16.86-6.476,24.612-10.892
		c-5.677,0.912-11.653,1.94-17.945,3.078C66.346,305.602,60.489,307.396,55.071,309.851z M207.342,91.525
		c-0.143,0.816-0.803,1.584-2.008,2.301c-1.209,0.727-1.515,1.297-0.908,1.734c1.243-0.468,2.765-0.843,4.574-1.133
		c1.803-0.287,2.619-0.946,2.455-1.978c-0.736,0.383-1.347,0.282-1.831-0.304C209.127,91.566,208.367,91.358,207.342,91.525z
		 M208.396,112.764c-3.016,1.012-5.743,2.109-8.19,3.3c-2.461,1.185-5.04,2.391-7.744,3.619c-1.465,0.764-3.042,1.215-4.735,1.354
		c-1.701,0.137-3.087,0.96-4.163,2.451c5.36-1.124,11.469-2.632,18.303-4.522c6.831-1.888,12.916-4.32,18.253-7.289
		c-2.149-0.189-4.103,0-5.861,0.542C212.496,112.767,210.541,112.947,208.396,112.764z M221.353,82.532
		c-2.795,0.711-5.173,1.16-7.118,1.343c-1.961,0.183-3.503,1.683-4.626,4.509c5.365-1.127,10.819-2.531,16.372-4.213
		c5.543-1.682,10.959-3.346,16.247-4.987c1.547-0.249,3.344-0.54,5.412-0.867c2.054-0.332,3.473-1.352,4.262-3.064
		c-4.077-0.665-9.068-0.068-14.975,1.809C231.015,78.932,225.818,80.756,221.353,82.532z M235.654,53.277
		c0.433-0.596,0.925-0.807,1.487-0.638c0.555,0.178,0.494-0.208-0.188-1.16C235.408,51.729,234.971,52.333,235.654,53.277z
		 M242.894,61.233c-2.586,0.416-5.103,0.75-7.569,1.018c-2.473,0.263-4.997,0.602-7.568,1.018c-2.298,3.8-4.459,6.793-6.48,8.968
		c-2.033,2.178-3.615,4.676-4.736,7.502c2.271-0.632,4.627-1.204,7.059-1.729c2.424-0.517,4.199-2.191,5.335-5.018
		c-1.502-1.086-2.187-2.027-2.046-2.845c2.699-1.226,5.771-2.314,9.189-3.259C239.491,65.944,241.758,64.063,242.894,61.233z
		 M257.618,24.771c2.694,1.949,5.42,2.104,8.206,0.468c2.771-1.636,5.105-3.138,7.005-4.495c-2.583,0.416-5.102,0.752-7.569,1.015
		C262.788,22.022,260.243,23.032,257.618,24.771z M234.537,58.609c0.725-0.383,1.372-0.479,1.934-0.309
		c0.554,0.178,0.894-0.145,1.034-0.96c-0.302-0.216-0.4-0.394-0.288-0.547c0.106-0.147,0.011-0.336-0.284-0.549
		c-0.437,0.604-0.987,0.889-1.647,0.858C234.617,57.08,234.365,57.578,234.537,58.609z M44.705,324.203
		c1.976-0.846,4.212-1.735,6.707-2.662c2.49-0.934,4.572-1.924,6.262-2.987c-2.284,0.632-4.486,1.313-6.611,2.052
		C48.927,321.344,46.81,322.545,44.705,324.203z M213.127,92.973c4.769-1.557,9.589-2.394,14.464-2.52
		c4.871-0.118,9.008-1.91,12.422-5.362c-4.134,0.662-8.668,1.587-13.632,2.779C221.417,89.065,216.996,90.765,213.127,92.973z
		 M243.188,53.258c4.035-1.179,8.247-2.117,12.633-2.82c4.371-0.704,8.052-2.484,11.033-5.343c-3.914,0.364-8.061,0.9-12.433,1.604
		C250.037,47.4,246.289,49.586,243.188,53.258z M207.995,102.917c5.362-1.127,10.656-2.306,15.884-3.542
		c5.219-1.234,10.533-3.075,15.959-5.532c-5.873-1.964-11.478-1.469-16.809,1.505C217.692,98.318,212.679,100.841,207.995,102.917z
		 M178.956,144.054l0.251,1.549c3.688-0.068,7.196-0.829,10.536-2.287c3.326-1.458,6.782-3.398,10.359-5.828l-0.896-0.646
		c-3.312,0.796-6.826,1.551-10.538,2.285C184.95,139.852,181.711,141.501,178.956,144.054z M253.411,42.895
		c5.361-1.127,10.866-3.072,16.505-5.825c-3.046-0.834-6.271-0.777-9.688,0.169C256.814,38.183,254.532,40.066,253.411,42.895z
		 M262.282,31.557c2.144,0.181,4.46-0.192,6.961-1.117c2.486-0.933,4.57-1.926,6.257-2.987
		C270.259,27.762,265.851,29.13,262.282,31.557z M49.771,328.544c0.682,0.953,1.622,1.064,2.831,0.34
		c1.202-0.722,1.504-1.3,0.904-1.731c-0.432,0.599-1.004,0.752-1.701,0.471C51.086,327.341,50.419,327.646,49.771,328.544z
		 M251.221,56.328c1.328,0.055,2.613-0.159,3.865-0.618c1.243-0.468,2.681-0.561,4.314-0.298c0.595,0.432,0.807,0.924,0.636,1.485
		c-0.174,0.556,0.142,0.9,0.961,1.034c1.029-0.164,2.35-0.574,3.965-1.228c1.605-0.657,2.4-1.904,2.369-3.754
		c-2.881,0.203-5.775,0.266-8.692,0.208C255.717,53.091,253.244,54.153,251.221,56.328z M81.749,290.898
		c3.224-1.31,6.233-2.325,9.029-3.037c2.791-0.711,5.795-1.72,9.028-3.033c-3.185-0.017-6.458,0.572-9.825,1.772
		C86.6,287.81,83.856,289.24,81.749,290.898z M242.522,71.206c1.677-1.059,3.544-1.759,5.612-2.087
		c2.052-0.334,3.629-1.242,4.712-2.741c-1.849,0.03-3.759,0.473-5.737,1.316C245.13,68.546,243.601,69.712,242.522,71.206z
		 M198.513,147.261c-2.586,0.416-5.188,1.032-7.83,1.852c-2.646,0.821-4.77,2.014-6.361,3.598c3.816-0.881,7.987-1.28,12.494-1.215
		c0.431-0.593,0.971-1.343,1.621-2.241C199.083,148.358,199.105,147.693,198.513,147.261z M115.43,249.015
		c1.889-1.362,4.12-2.249,6.708-2.665c2.569-0.412,4.512-1.516,5.808-3.311c-2.281,0.636-4.591,1.464-6.929,2.502
		C118.664,246.575,116.801,247.737,115.43,249.015z M56.182,333.86c0.507-0.085,0.759,0.203,0.735,0.87
		c-0.028,0.659,0.47,0.914,1.509,0.753c0.727-0.384,1.49-0.972,2.296-1.76c0.796-0.785,1.705-1.261,2.741-1.431
		c-1.329-0.044-2.795-0.077-4.378-0.094C57.492,332.194,56.529,332.745,56.182,333.86z M132.111,246.733
		c-3.328,3.972-6.88,6.525-10.656,7.66c-3.788,1.133-7.062,2.984-9.813,5.538c1.329,0.052,2.744-0.171,4.251-0.685
		c1.499-0.503,3.215-0.515,5.151-0.03c-0.302-0.219-0.323,0.446-0.075,1.994c-3.142,1.825-6.491,3.62-10.035,5.374
		c-3.557,1.765-6.639,3.513-9.262,5.258c2.872-0.196,5.74-0.856,8.602-1.976c2.856-1.116,5.569-1.888,8.155-2.3
		c3.021-4.184,6.528-8.258,10.52-12.199c3.985-3.945,6.76-7.625,8.324-11.048c-0.95,0.679-1.808,1.084-2.581,1.206
		C133.92,245.649,133.055,246.049,132.111,246.733z M60.842,328.355c2.791-0.72,6.156-0.334,10.101,1.149
		c0.049-1.329,0.574-2.536,1.597-3.625c1.008-1.084,1.432-2.143,1.271-3.179c-2.284,0.638-4.618,1.338-6.992,2.118
		C64.426,325.596,62.434,326.772,60.842,328.355z M82.353,299.524c2.922-1.528,6.436-2.283,10.538-2.287
		c4.096,0.006,6.944-2.372,8.563-7.121c-3.308,0.797-6.741,2.071-10.285,3.83C87.611,295.709,84.677,297.566,82.353,299.524z
		 M203.99,132.107c0.214-0.296,1.282-0.205,3.216,0.276c0.13-0.815,0.541-1.541,1.234-2.181c0.686-0.638,0.621-1.023-0.183-1.158
		c-0.438,0.602-1.304,0.999-2.586,1.207C204.384,130.457,203.819,131.075,203.99,132.107z M76.573,310.364
		c1.761-0.542,3.485-0.892,5.187-1.03c1.693-0.141,3.487-0.896,5.385-2.25l-0.896-0.65c-1.689,1.064-3.515,1.557-5.512,1.477
		C78.743,307.836,77.35,308.651,76.573,310.364z M211.046,124.235c1.706,0.783,3.43-0.019,5.162-2.416
		c1.726-2.389,3.023-4.184,3.89-5.382C216.57,117.538,213.549,120.134,211.046,124.235z M198.661,143.271
		c1.021-0.167,1.853-0.366,2.479-0.596c0.616-0.235,0.846-0.859,0.684-1.894c-0.436,0.603-1.112,0.901-2.029,0.922
		C198.868,141.715,198.487,142.241,198.661,143.271z M73.383,317.615c1.621,0.268,3.04,0.834,4.242,1.701
		c0.346-1.116,0.884-1.859,1.62-2.243c0.724-0.384,1.008-1.084,0.847-2.118c-1.254,0.46-2.391,0.78-3.417,0.944
		C75.635,316.069,74.54,316.638,73.383,317.615z M225.804,107.59c0.596,0.432,1.154,0.61,1.671,0.528
		c0.509-0.085,1.066,0.087,1.671,0.523c1.374-1.278,2.975-2.854,4.786-4.733c1.804-1.874,2.847-3.628,3.118-5.256
		c-2.585,0.414-4.606,1.792-6.071,4.145C229.504,105.145,227.78,106.748,225.804,107.59z M188.214,159.619
		c1.195,0.862,2.783,0.878,4.768,0.027c0.431-0.593,0.346-1.113-0.253-1.546c-0.736,0.386-1.483,0.635-2.255,0.761
		C189.7,158.984,188.941,159.236,188.214,159.619z M281.662,31.221c2.738,0.615,5.213,0.355,7.408-0.791
		c2.194-1.146,4.572-1.923,7.155-2.336c-2.188-2.03-4.752-2.41-7.719-1.141C285.539,28.219,283.251,29.642,281.662,31.221z
		 M157.135,210.206c-0.102,2.654-1.63,4.621-4.596,5.89c-2.969,1.27-5.401,2.585-7.293,3.948c2.141,0.181,4.042,0.082,5.696-0.32
		c1.652-0.396,3.549-0.509,5.702-0.32c0.473-1.929,1.678-3.907,3.598-5.931c1.915-2.027,2.967-4.106,3.154-6.254
		C161.331,207.549,159.242,208.547,157.135,210.206z M60.475,338.323c1.191,0.863,2.604,1.436,4.236,1.698
		c0.432-0.597,1.044-1.293,1.848-2.082c0.794-0.785,0.959-1.8,0.496-3.053C64.469,335.306,62.276,336.448,60.475,338.323z
		 M286.602,34.791c1.924,0.484,4.201,0.646,6.823,0.493c2.612-0.161,4.162-1.195,4.649-3.127c-2.065,0.331-3.999,0.643-5.797,0.93
		C290.463,33.376,288.579,33.948,286.602,34.791z M144.352,231.686c0.808,0.137,1.111,0.355,0.899,0.648
		c-0.218,0.304-0.031,0.662,0.572,1.098c0.431-0.597,1.043-1.295,1.845-2.08c0.798-0.79,1.149-1.441,1.071-1.955
		C146.672,229.727,145.211,230.496,144.352,231.686z M195.429,172.338c-0.736,0.386-1.144,0.314-1.222-0.2
		c-0.089-0.515-0.429-0.99-1.025-1.423c-1.166,0.979-2.445,1.647-3.837,2.005c-1.403,0.353-2.168,0.941-2.293,1.757
		c2.052-0.331,4.038-0.72,5.96-1.158c1.904-0.435,3.977-0.3,6.209,0.395c-0.14,0.815-0.415,1.521-0.847,2.115
		c-0.437,0.604-0.718,1.308-0.847,2.12l4.637-0.744c0.598,0.43,0.604,0.895,0.026,1.382c-0.59,0.492-0.839,0.999-0.746,1.51
		c1.757-0.544,3.484-0.894,5.185-1.031c1.693-0.143,3.271-0.591,4.739-1.355c-2.615-1.433-5.055-2.629-7.321-3.583
		c-2.277-0.96-4.717-2.147-7.32-3.582c-0.738,0.383-0.986,0.887-0.75,1.505C196.209,172.677,196.024,172.767,195.429,172.338z
		 M299.324,39.885c-3.268-0.534-6.45-0.222-9.566,0.938c-3.121,1.16-5.841,2.725-8.164,4.684c5.017-0.014,9.971-0.411,14.877-1.199
		c4.892-0.785,9.77-1.699,14.629-2.744C307.166,36.911,303.245,36.35,299.324,39.885z M215.284,179.859
		c-5.64,2.749-11.334,4.333-17.078,4.722c-5.757,0.397-11.454,1.967-17.086,4.725c2.011,1.004,4.283,1.165,6.823,0.49
		c2.53-0.667,5.023-0.804,7.467-0.405c4.468-1.775,8.825-2.607,13.081-2.495c4.245,0.112,8.603-0.717,13.079-2.495
		C219.903,182.289,217.805,180.773,215.284,179.859z M317.51,46.881c-5.461,0.61-10.829,0.944-16.101,0.996
		c-5.283,0.057-10.308,0.864-15.074,2.421c5.613,0.419,11.2,0.583,16.734,0.487c5.541-0.096,10.987-0.707,16.361-1.833
		c-0.605-0.438-0.926-0.777-0.963-1.037C318.421,47.658,318.104,47.31,317.51,46.881z M193.819,199.164
		c0.159,1.034,0.67,1.743,1.535,2.134c0.852,0.388,1.578,0.799,2.182,1.23c2.273-0.629,4.296-1.214,6.063-1.762
		c1.756-0.544,3.627-1.239,5.608-2.09c-3.048-0.837-5.725-1.067-8.045-0.692C198.843,198.356,196.393,198.75,193.819,199.164z
		 M315.539,54.333c-2.877,0.203-5.697,0.318-8.464,0.367c-2.769,0.049-5.445,0.281-8.019,0.692
		c5.017-0.011,10.137,0.156,15.351,0.509c5.212,0.353,10.246,0.013,15.1-1.034c-1.795-1.3-3.909-1.683-6.333-1.163
		C320.74,54.229,318.199,54.437,315.539,54.333z M293.799,64.563c0.597,0.433,1.136,0.938,1.631,1.521
		c0.486,0.588,1.189,1.198,2.086,1.847c1.675-1.062,3.693-1.653,6.061-1.765c2.353-0.113,4.161-0.408,5.411-0.868
		c-2.586,0.413-5.113,0.293-7.595-0.369C298.9,64.27,296.367,64.149,293.799,64.563z M232.474,192.961
		c-4.94,0.523-9.976,0.876-15.1,1.034c-5.137,0.162-9.978,0.878-14.528,2.134c5.748-0.391,11.385-0.309,16.896,0.26
		c5.509,0.566,10.988,0.546,16.451-0.061C234.095,194.813,232.855,193.692,232.474,192.961z M211.754,204.61
		c2.271-0.629,4.309-1.086,6.122-1.379c1.798-0.29,3.729-0.599,5.798-0.93c0.43-0.597,0.382-0.856-0.126-0.774
		c-3.693,0.06-7.438,0.205-11.233,0.416c-3.807,0.213-7.421,1.122-10.861,2.733c1.655,2.115,3.403,2.695,5.236,1.738
		C208.513,205.459,210.207,204.86,211.754,204.61z M336.119,58.962c-4.779,1.559-9.51,2.121-14.202,1.683
		c-4.706-0.435-9.365-0.282-14.005,0.465c-0.518,0.083-0.826,0.2-0.933,0.348c-0.112,0.153,0.09,0.184,0.609,0.101
		c5.915,0.635,11.71,1.292,17.37,1.97c5.664,0.676,11.322,0.561,16.996-0.35C340.289,61.066,338.346,59.663,336.119,58.962z
		 M316.722,76.346c-0.602-0.435-0.684-0.941-0.249-1.543c0.43-0.596,0.197-1.223-0.7-1.872c-1.543,0.246-3.139,0.235-4.763-0.03
		c-1.634-0.263-3.33-0.123-5.09,0.418c2.397,1.732,4.949,3.237,7.672,4.52c2.72,1.283,5.576,3.004,8.572,5.168
		c3.22-1.311,6.67-1.667,10.336-1.062c3.669,0.599,7.296,0.61,10.913,0.033c-4.766-1.62-9.222-2.227-13.382-1.819
		C325.862,80.563,321.428,79.298,316.722,76.346z M223.668,190.012c0.728-0.383,1.428-0.558,2.096-0.536
		c0.663,0.03,0.8-0.328,0.425-1.056c-0.436,0.599-1.007,0.755-1.711,0.468C223.765,188.606,223.496,188.978,223.668,190.012z
		 M350.939,69.668c-6.738-0.774-13.51-1.335-20.303-1.699c-6.808-0.364-13.559-0.005-20.254,1.07
		c4.588,0.582,9.253,1.223,13.994,1.917c4.735,0.689,9.505,1.182,14.317,1.469c5.099,0.506,9.525,0.055,13.266-1.338
		C351.357,70.65,351.017,70.183,350.939,69.668z M219.41,205.366c0.508-0.082,1.252-0.003,2.22,0.238
		c0.958,0.244,1.251-0.002,0.873-0.733c-0.521,0.082-1.055,0.036-1.608-0.14C220.333,204.562,219.84,204.77,219.41,205.366z
		 M244.83,220.314c0.43-0.594,0.384-0.851-0.125-0.771c-4.38-0.881-8.455-0.755-12.231,0.377c-3.79,1.136-7.948,0.745-12.481-1.166
		c-0.605-0.438-0.842-1.056-0.701-1.871c0.129-0.815-0.213-1.286-1.023-1.423c-0.519,0.082-1.053,0.039-1.609-0.139
		c-0.56-0.17-1.053,0.038-1.483,0.634c3.409,4.747,7.812,9.059,13.199,12.95c0.81,0.137,1.453,0.024,1.934-0.31
		c0.47-0.342,1.112-0.446,1.931-0.312c-0.601-0.435-1.534-0.876-2.793-1.336c-1.271-0.459-1.984-1.198-2.146-2.235l-0.121-0.769
		C233.32,221.111,239.205,219.902,244.83,220.314z M245.548,205.136c-3.862-0.969-7.713-1.478-11.547-1.516
		c-3.846-0.046-7.381,0.586-10.601,1.899c2.142,0.178,4.301,0.033,6.475-0.446c2.163-0.484,4.082,0.336,5.748,2.451
		c2.573-0.419,5.06-0.55,7.469-0.408c2.396,0.14,4.884,0.008,7.468-0.41c-0.388-0.725-1.392-1.229-3.017-1.494
		C246.722,205.076,246.054,205.054,245.548,205.136z M236.766,197.426c0.597,0.429,0.549,0.971-0.137,1.606
		c-0.695,0.64-0.742,1.171-0.137,1.609c0.942-0.684,1.844-0.821,2.707-0.435c0.85,0.391,1.645,0.399,2.38,0.013
		C239.48,198.704,237.877,197.779,236.766,197.426z M344.406,75.87c-3.483-0.235-6.547-0.399-9.204-0.506
		c-2.658-0.099-4.727,0.232-6.183,0.993c6.135,0.334,12.52,1.429,19.171,3.27c6.631,1.838,13.13,2.776,19.489,2.817
		c-1.29-1.379-2.561-2.298-3.818-2.757c-1.27-0.462-2.287-1.42-3.045-2.884c-2.745-0.619-5.303-0.865-7.655-0.752
		C350.795,76.163,347.881,76.105,344.406,75.87z M250.391,215.461c-2.367,0.112-4.538,0.134-6.534,0.055
		c-1.995-0.074-4.032,0.054-6.086,0.383c-0.738,0.383-0.787,0.454-0.163,0.224c0.62-0.235,1.119,0.02,1.511,0.75
		c4.117-0.662,7.962-0.619,11.522,0.131c3.555,0.758,7.286,0.944,11.199,0.583c-1.367-1.893-3.157-2.728-5.365-2.509
		C254.263,215.303,252.231,215.426,250.391,215.461z M330.12,88.075c2.855,2.979,5.724,5.16,8.596,6.55
		c2.864,1.387,5.903,3.018,9.116,4.881c1.157-0.977,2.281-1.423,3.356-1.33c1.066,0.088,2.112,0.055,3.151-0.109
		c-5.188-1.02-10.057-2.49-14.59-4.402c-0.173-1.029,0.074-1.992,0.722-2.889c0.43-0.594,1.33-0.747,2.71-0.432
		c1.366,0.307,2.114,0.054,2.253-0.763c-2.662-0.099-5.238-0.476-7.718-1.138C335.222,87.783,332.693,87.662,330.12,88.075z
		 M370.55,87.93c-2.064,0.334-4.119,0.331-6.15-0.003c-2.04-0.334-4.128-0.596-6.27-0.777c-3.486-0.235-6.851-0.618-10.101-1.157
		c-3.268-0.533-6.63-0.917-10.104-1.152c5.699,0.938,12.577,2.602,20.641,5.012c8.054,2.405,15.477,3.33,22.261,2.771
		c-1.364-1.894-2.55-3.089-3.554-3.589c-1.013-0.498-2.563-1.513-4.656-3.023c-0.435,0.602-0.777,0.919-1.034,0.96
		C371.316,87.017,370.98,87.334,370.55,87.93z M245.159,232.159c-1.544,0.249-3.091,0.498-4.638,0.743
		c-1.545,0.25-2.943,0.605-4.189,1.07c2.305,1.217,4.865,2.726,7.67,4.517c2.804,1.801,5.213,1.615,7.247-0.566
		C247.386,236.958,245.358,235.035,245.159,232.159z M247.327,223.485c3.6-0.577,7.167-0.624,10.687-0.129
		c3.512,0.49,7.18,0.301,11.011-0.577c-3.778-0.449-7.657-0.755-11.646-0.909C253.387,221.721,250.027,222.257,247.327,223.485z
		 M276.982,227.847c-4.641,0.742-8.895,0.635-12.746-0.334c-3.015,1.011-6.479,1.237-10.398,0.677
		c-3.932-0.558-7.356-0.076-10.274,1.45c5.748-0.389,11.564-0.399,17.444-0.022c5.874,0.38,11.643,0.113,17.32-0.799
		L276.982,227.847z M294.32,236.961c-0.824-0.137-1.386,0.021-1.708,0.47c-0.324,0.449-1.009,0.755-2.033,0.922
		c-4.208,0.147-8.347,0.349-12.396,0.6c-4.063,0.255-8.234,0.197-12.52-0.17c-1.688,1.064-4.111,1.582-7.28,1.565
		c-3.183-0.017-5.053,0.682-5.611,2.091c7.763,0.607,15.56,1.004,23.393,1.201c7.824,0.19,15.458-0.438,22.894-1.891
		C296.496,238.99,294.915,237.39,294.32,236.961z M357.014,104.772c3.238,3.707,6.848,5.185,10.826,4.41
		c3.97-0.769,7.802-1.19,11.492-1.253c0.217-0.292,0.173-0.558-0.122-0.769c-3.775-0.449-7.494-0.979-11.16-1.582
		C364.382,104.978,360.703,104.709,357.014,104.772z M377.886,101.423c-2.583,0.416-5.221,0.441-7.918,0.083
		c-2.709-0.359-5.092-0.372-7.146-0.044c2.824,1.133,5.571,1.753,8.233,1.852c2.656,0.107,5.359,0.459,8.105,1.078
		c3.254,0.537,6.408,1.214,9.455,2.049c3.041,0.834,5.81,0.786,8.301-0.142c-2.864-2.977-5.969-4.197-9.315-3.658
		C384.244,103.18,381.013,102.775,377.886,101.423z M257.838,246.779c0.594,0.43,1.151,0.608,1.671,0.526
		c0.505-0.083,1.108,0.352,1.795,1.296c0.129-0.814,0.109-1.734-0.051-2.766c-0.519,0.082-1.041,0.164-1.547,0.245
		C259.187,246.164,258.563,246.397,257.838,246.779z M266.567,251.722c1.494,1.077,3.649,2.188,6.484,3.321
		c1.458-0.761,3.3-1.255,5.513-1.48c2.209-0.217,3.228-0.846,3.066-1.88c-2.369,0.112-4.818,0.05-7.369-0.205
		C271.706,251.231,269.139,251.308,266.567,251.722z M305.346,246.289c-5.973,0.702-11.895,0.856-17.767,0.475
		c-5.882-0.375-11.657-0.112-17.322,0.796c6.512,1.066,12.919,1.825,19.203,2.273c6.282,0.44,12.474-0.091,18.58-1.595
		L305.346,246.289z M382.099,95.591c0.381,0.736,0.188,1.163-0.586,1.286c-0.771,0.123-0.974,0.556-0.583,1.286
		c1.023-0.167,1.875-0.235,2.543-0.213c0.661,0.03,1.359-0.148,2.096-0.534C385.227,95.355,384.077,94.75,382.099,95.591z
		 M282.746,234.061c1.024-0.17,2.354-0.115,3.99,0.15c1.624,0.266,2.354-0.112,2.191-1.146c-1.111-0.347-2.166-0.306-3.153,0.109
		C284.785,233.601,283.771,233.891,282.746,234.061z M372.931,114.906c1.278,1.381,3.032,2.426,5.265,3.121
		c-0.173-1.031,0.257-1.625,1.293-1.794c1.029-0.165,1.353-0.613,0.975-1.346c-1.335-0.047-2.662-0.099-3.995-0.154
		C375.137,114.69,373.954,114.742,372.931,114.906z M389.812,111.404c-2.148-0.189-4.492-0.4-7.045-0.651
		c-2.555-0.249-4.563,0.008-6.025,0.766c5.322,0.208,10.689,1.13,16.114,2.769c5.415,1.639,10.512,1.68,15.286,0.124
		c-2.262-2.545-5.143-3.606-8.644-3.174S392.764,111.724,389.812,111.404z M305.701,253.37c-4.427,0.452-8.686,0.671-12.784,0.665
		c-4.102,0.003-7.911,0.544-11.433,1.637c6.13,0.336,12.314,0.599,18.571,0.787c6.237,0.188,12.344-0.061,18.316-0.757
		c-1.973-2.332-3.93-3.404-5.877-3.224C310.536,252.662,308.273,252.957,305.701,253.37z M386.15,123.095
		c0.598,0.432,1.152,0.607,1.672,0.522c0.506-0.079,1.174-0.058,1.994,0.079c-0.82-0.137-1.524-0.418-2.117-0.851
		C387.095,122.411,386.583,122.499,386.15,123.095z M409.795,119.697c-3.486-0.233-7.034-0.526-10.652-0.867
		c-3.63-0.342-6.727-0.309-9.301,0.104c9.591,3.75,19.178,4.982,28.754,3.712c-1.362-1.896-2.695-2.739-3.979-2.536
		C413.326,120.318,411.718,120.181,409.795,119.697z M298.771,262.019c3.472,0.235,7.131,0.372,10.971,0.419
		c3.839,0.041,7.154-0.293,9.95-1.004c-3.481-0.233-6.91-0.214-10.3,0.067C306,261.78,302.46,261.952,298.771,262.019z
		 M311.567,265.118c-2.287,0.632-4.771,0.767-7.469,0.408c-2.712-0.359-4.899-0.009-6.575,1.05c2.053-0.327,4.624-0.41,7.696-0.24
		C308.281,266.5,310.399,266.098,311.567,265.118z M412.913,126.73c-2.662-0.099-5.143-0.304-7.434-0.594
		c-2.296-0.295-4.43-0.011-6.409,0.832c5.615,0.418,11.271,1.433,16.951,3.031c5.674,1.601,11.343,1.945,17.022,1.034
		c-2.867-2.979-6.065-4.383-9.605-4.21C419.896,126.996,416.386,126.966,412.913,126.73z M417.58,133.516
		c0.646-0.897,0.451-1.264-0.574-1.1c-3.479-0.232-6.886-0.875-10.227-1.926c-3.343-1.047-6.779-1.026-10.304,0.066
		c2.996,2.161,5.127,3.937,6.413,5.315c2.58-0.413,5.004-0.93,7.283-1.565C412.445,133.677,414.916,133.414,417.58,133.516z
		 M296.026,269.594c1.408,0.566,2.438,1.193,3.084,1.886c0.633,0.692,1.47,0.955,2.507,0.785c-0.302-0.217,0.199-1.221,1.496-3.016
		C299.847,268.716,297.488,268.833,296.026,269.594z M331.317,267.102c-4.131,0.663-8.29,1.072-12.492,1.212
		c-4.21,0.151-8.145,1.179-11.794,3.087c4.495,0.068,8.889-0.172,13.168-0.729c4.265-0.555,8.572-1.313,12.913-2.272
		L331.317,267.102z M409.127,137.647c8.139,1.337,14.922,0.774,20.354-1.68c-3.097,0.495-6.462,0.572-10.076,0.23
		C415.772,135.855,412.347,136.336,409.127,137.647z M310.725,279.528l1.35,0.975c1.546-0.249,2.42-0.522,2.639-0.824
		C314.112,279.243,312.776,279.197,310.725,279.528z M315.961,275.12c5.611,0.416,12.076,0.308,19.376-0.339
		c-0.998,2.011-2.233,3.404-3.69,4.161c-1.47,0.764-3.174,1.24-5.122,1.42c-1.962,0.184-3.912,0.361-5.863,0.545
		c-1.959,0.184-3.624,0.908-4.998,2.187c1.874,1.813,4.071,2.723,6.585,2.714c2.504-0.006,4.933-0.533,7.28-1.567
		c2.346-1.04,4.271-2.6,5.784-4.695c1.51-2.088,2.202-4.32,2.096-6.679c-3.696,0.061-7.496,0.281-11.4,0.637
		C322.098,273.867,318.749,274.404,315.961,275.12z M428.357,141.302c-1.85,0.027-3.437,0.021-4.761-0.027
		c-1.338-0.05-2.733,0.309-4.191,1.067c4.714-0.232,9.256-0.364,13.617-0.399c4.351-0.039,8.804-0.692,13.364-1.951
		c-2.963-0.318-5.983-0.23-9.078,0.268C434.221,140.758,431.232,141.105,428.357,141.302z M422.324,150.596
		c0.603,0.433,0.859,0.854,0.802,1.262c-0.071,0.404,0.301,0.675,1.122,0.81c0.723-0.386,1.33-0.747,1.809-1.083
		c0.471-0.345,1.072-0.697,1.806-1.083c-1.116-0.348-2.058-0.463-2.829-0.342C424.259,150.287,423.355,150.432,422.324,150.596z
		 M451.202,142.787c-2.334,1.962-5.151,2.879-8.479,2.75c-3.327-0.123-5.938,0.49-7.83,1.852c3.904-0.361,7.724-0.446,11.463-0.254
		c3.724,0.197,7.354-0.249,10.884-1.352c-0.468-1.242-1.388-2.025-2.758-2.331C453.106,143.141,452.015,142.924,451.202,142.787z
		 M455.224,150.47c-3.182-0.014-6.312,0.221-9.403,0.716c-3.092,0.496-6.231,0.734-9.403,0.717c-0.738,0.386-1.818,0.624-3.253,0.72
		c-1.438,0.102-1.972,0.515-1.581,1.245c3.77,0.454,7.431,0.591,10.974,0.418c3.538-0.17,7.236,0.227,11.098,1.196
		c0.647-0.897,1.296-1.795,1.944-2.692C456.244,151.893,456.121,151.118,455.224,150.47z M434.702,160.899
		c0.757,1.467,1.732,2.17,2.916,2.109c1.177-0.057,2.337-0.243,3.48-0.558c1.133-0.312,2.293-0.498,3.477-0.558
		c1.177-0.058,2.222,0.238,3.119,0.886c0.126-0.813,0.556-1.409,1.297-1.792c0.726-0.383,0.862-1.193,0.399-2.443
		c-2.585,0.416-5.144,0.498-7.696,0.244C439.14,158.538,436.806,159.244,434.702,160.899z"/>
	<g>
		<path fill="#2A2929" d="M5.594,412.08c0-0.741,0-1.271,0.107-1.798C4.435,402.153,1.267,373.014,0,364.778
			c0.105-0.316,0.527-2.005,1.371-2.429c2.536,0,3.063,1.056,5.174,1.056c5.069,0,17.422-2.323,20.166-2.323
			c4.118,0,7.496,1.057,10.347,3.169c2.956,0.846,11.613,8.024,14.147,9.187c4.013,6.755,6.018,12.14,6.018,16.257
			c0,2.534-0.525,4.858-1.688,7.072c-1.373,7.814-9.819,13.306-18.477,19.22c-5.595,1.371-13.619,3.801-24.601,7.494
			c-0.528,0.952-1.057,1.37-1.794,1.37c-0.528,0-1.478-0.314-2.744-0.949C6.758,422.425,5.594,416.088,5.594,412.08z
			 M11.614,418.624c1.371-1.057,7.284-1.795,8.657-2.638c12.985-2.218,22.805-7.707,29.244-16.576
			c1.795-5.913,2.641-10.032,2.641-12.46c0-3.274-0.846-5.912-2.641-8.131c-8.763-8.763-17.314-13.091-25.866-13.091
			c-2.111,0-4.328,0.317-6.546,0.951c-1.268,0.314-9.713,0.526-11.93,1.899C6.019,372.8,7.391,398.669,11.614,418.624z"/>
		<path fill="#2A2929" d="M70.901,389.187c0-1.199-0.6-6.091-0.6-7.292c0-2.298,0.6-3.994,1.896-5.291
			c3.997-0.802,21.574-3.798,27.168-5.094l3.099,0.297c0.198,0.499,0.299,0.999,0.299,1.5c0,1.198-1.001,1.997-2.897,2.396
			c-11.687,2.295-18.877,3.294-23.569,4.793c-0.7,1.3-1.101,3.098-1.101,5.292c0,2,0.3,3.896,0.898,5.692h1.4
			c2.096,0,7.39-0.396,10.287-0.396c2.896,0,3.195,0.901,3.195,2.097c0,1.898-13.684,2.896-15.481,3.395v15.882l2.398,1.598
			c12.384-0.297,22.472-1.097,30.461-2.295c0.5-0.504,1.599-0.801,3.097-0.801c1.897,0,2.996,0.297,3.496,0.998
			c0,1.896-0.4,3.097-1.2,3.598c-17.077,1.297-29.462,1.997-38.252,2.295c-0.3-0.298-4.795-0.998-4.795-3.296v-17.179
			c-0.398-0.397-0.597-1.298-0.597-2.794c0-1.4,0.198-2.399,0.597-3.101C70.802,390.784,70.901,390.086,70.901,389.187z"/>
		<path fill="#2A2929" d="M135.671,440.424c-2.297,1.595-6.992,4.394-14.182,8.687c-0.899-0.299-1.401-0.599-1.499-0.996
			c0-7.491,8.79-6.594,13.282-10.787c9.39-7.891,14.184-15.281,14.383-22.273c-0.399-3.596-1.998-7.592-4.795-11.885
			c-11.685-16.481-17.678-28.366-17.678-37.255c0-9.589,5.493-17.28,18.378-20.573c5.692,1.097,11.087,1.898,13.783,5.693v1.699
			c0,0.897-0.5,1.395-1.398,1.395c-0.5,0-1.099-0.298-1.698-0.998c-2.296-2.896-7.29-3.295-9.888-3.295
			c-2.796,0-5.093,0.698-6.992,2.197c-5.293,2.796-7.889,7.891-7.889,15.382c0,1.695,0.198,3.495,0.497,5.392
			c3.897,9.988,10.389,20.974,19.479,33.061c1.296,3.396,1.896,6.89,1.896,10.386c0,4.793-1.1,8.79-3.396,12.087
			C144.959,432.733,140.863,436.728,135.671,440.424z"/>
		<path fill="#2A2929" d="M174.074,373.805c-1.497,0-7.289,2.199-8.388,2.199c-1.298,0-1.998-1.102-1.998-3.297v-0.9
			c4.295-1.898,18.578-2.196,21.074-2.795h0.6c0.698,0,1.896-0.2,3.097-0.2c1.898,0,3.295,0.498,3.994,1.499
			c0,2.793-1.399,2.895-3.695,2.895h-1.998c-0.898-0.102-1.496-0.102-1.896-0.102c-2.896,0-4.297,1.101-4.297,3.297
			c0,0.7,0.102,1.5,0.102,2.296c0,6.993-2.098,25.671-2.098,30.565c0,2.096,0.1,4.194,0.301,6.09l5.093,0.301
			c1.998,0.099,3.396,1.1,4.097,2.299c0,1.397-0.301,2.197-1.001,2.495c-5.194-0.498-10.687-0.799-16.279-0.799
			c-1.997,0-3.995,0-5.992,0.101c-0.699-0.998-1.1-1.898-1.1-2.795c0-2.2,8.99-2.299,9.487-2.597
			c0.898-5.693,1.598-12.287,2.099-19.775c0.3-4.396,0.699-10.987,0.999-20.178C175.674,374.005,174.976,373.805,174.074,373.805z"
			/>
		<path fill="#2A2929" d="M231.457,368.111c3.197,0,6.295,0.5,9.39,1.499l0.799,1.598c0.3,0.302,0.5,0.698,0.5,0.999
			c0,0.5-0.3,1.1-0.999,1.798c-2.696-1.101-5.792-1.598-9.089-1.598c-15.182,0-24.969,10.185-26.566,26.669
			c1.497,12.382,6.091,18.374,15.38,18.374c6.091,0,11.986-2.697,17.679-8.091c1.297-2.095,1.896-5.99,2.597-9.186l-1.1-1.098
			c-1.099,0-9.088,2.594-13.283,2.594c-1.896,0-2.496-0.999-2.496-2.097c0-3.794,11.885-4.297,12.484-4.596h0.299
			c1.299,0,5.593-1.696,6.493-1.696c1.299,0,2.196,0.698,2.695,2.197c-1.099,7.488-1.698,16.079-7.19,18.974
			c-4.695,4.494-11.086,6.796-19.076,6.796c-12.284,0-16.181-4.295-19.076-22.375C202.994,379.295,215.876,368.111,231.457,368.111z
			"/>
		<path fill="#2A2929" d="M259.974,427.537h-0.599l-0.999-1.296c2.698-28.366,4.693-49.24,5.894-63.522
			c0.398-0.7,0.898-1.097,1.398-1.097c0.299,0,0.598,0.098,0.898,0.396c6.292,9.888,29.063,47.142,31.461,51.935l0.798-1.496
			c0-15.882,1.898-31.762,5.694-47.64c0.498-1.198,1.396-1.8,2.597-1.8c1.297,0,1.798,1.698,1.798,2.799
			c0,1.395-2.297,6.292-2.597,7.988c-1.999,11.086-3.896,42.546-4.694,48.639c-0.899,0.9-1.698,1.4-2.297,1.4
			c-0.4,0-0.699-0.101-0.999-0.401c-3.497-6.392-6.592-12.583-10.088-18.876c-4.095-7.291-7.989-13.383-11.686-18.275
			c-2.896-6.492-5.794-11.288-8.689-14.585l-0.8,1.001c-0.398,2.896-4.194,50.637-4.595,53.835
			C261.571,427.236,260.673,427.537,259.974,427.537z"/>
	</g>
</g>
</svg>
