<?xml version="1.0" encoding="utf-8"?>
<!-- Generator: Adobe Illustrator 16.0.0, SVG Export Plug-In . SVG Version: 6.00 Build 0)  -->
<!DOCTYPE svg PUBLIC "-//W3C//DTD SVG 1.1//EN" "http://www.w3.org/Graphics/SVG/1.1/DTD/svg11.dtd">
<svg version="1.1" id="圖層_1" xmlns="http://www.w3.org/2000/svg" xmlns:xlink="http://www.w3.org/1999/xlink" x="0px" y="0px"
	 width="933.094px" height="622.063px" viewBox="0 0 933.094 622.063" enable-background="new 0 0 933.094 622.063"
	 xml:space="preserve">
<rect fill="#E5E5E5" width="933.094" height="622.063"/>
<g>
	<path fill="#AAAAAA" d="M318.715,220.901h-3.691v-32.959h-1.494c-4.102,10.665-10.05,18.896-17.842,24.697l-2.285-2.9
		c7.031-5.214,12.568-12.48,16.611-21.797h-13.623v-3.428h18.633v-9.053h3.691v9.053h18.721v3.428h-18.721V220.901z
		 M337.963,170.188v3.34h-42.1v-3.34h14.063c-2.461-5.917-4.601-10.547-6.416-13.887l2.9-1.582
		c2.402,4.161,4.892,9.316,7.471,15.469h5.537c2.87-4.57,5.273-9.785,7.207-15.645l3.428,1.318
		c-2.403,6.446-4.601,11.221-6.592,14.326H337.963z M297.357,149.622h37.881v3.428h-37.881V149.622z M312.211,138.108
		c2.402,2.931,4.716,6.064,6.943,9.404l-2.988,2.021c-2.403-3.925-4.629-7.177-6.68-9.756L312.211,138.108z M322.582,191.106
		c2.929,2.637,6.855,6.651,11.777,12.041l-2.725,2.725c-4.922-5.683-8.76-9.813-11.514-12.393L322.582,191.106z M376.02,168.167
		v3.428h-13.711v48.955h-3.691v-48.955h-13.799v7.646c0,18.868-4.19,32.636-12.568,41.309l-2.9-2.813
		c7.792-8.438,11.689-21.27,11.689-38.496v-31.025c10.195-0.937,19.833-3.516,28.916-7.734l2.197,3.076
		c-9.259,3.985-18.369,6.504-27.334,7.559v17.051H376.02z"/>
	<path fill="#AAAAAA" d="M440.355,140.833h3.955v21.709h9.668v3.691h-9.668v26.895c4.219-1.934,7.704-3.837,10.459-5.713
		l0.791,3.428c-6.915,4.395-15.499,8.584-25.752,12.568l-1.143-3.604c1.934-0.879,3.925-1.699,5.977-2.461
		c1.815-0.761,3.72-1.582,5.713-2.461v-28.652h-10.459v-3.691h10.459V140.833z M487.201,152.434
		c2.988-3.749,5.801-8.319,8.438-13.711l3.076,1.67c-2.344,4.57-4.805,8.613-7.383,12.129h14.59v26.104h-49.395v-26.104h15.732
		c-2.344-3.867-5.128-7.763-8.35-11.689l2.988-2.197c3.046,3.867,6.152,8.468,9.316,13.799H487.201z M479.291,155.95h-18.809v19.248
		h18.809V155.95z M465.668,220.901h-3.779v-35.596H501v35.596h-3.779v-5.537h-31.553V220.901z M467.689,158.586
		c3.105,4.102,5.595,8.468,7.471,13.096l-2.988,1.758c-2.344-5.39-4.746-9.697-7.207-12.92L467.689,158.586z M497.221,188.645
		h-31.553v8.965h31.553V188.645z M465.668,211.848h31.553v-10.811h-31.553V211.848z M483.158,175.198h18.896V155.95h-18.896V175.198
		z M498.012,160.256c-2.403,5.392-5.01,9.668-7.822,12.832l-2.637-2.109c2.87-3.34,5.302-7.412,7.295-12.217L498.012,160.256z"/>
	<path fill="#AAAAAA" d="M574.564,189.172v7.119h-4.482V154.28h32.344v-16.172h4.746v16.172h32.52v42.012h-4.482v-7.119h-28.037
		v31.729h-4.746v-31.729H574.564z M574.564,158.235v26.982h27.861v-26.982H574.564z M635.209,185.217v-26.982h-28.037v26.982
		H635.209z"/>
</g>
</svg>
